G75*
%MOIN*%
%OFA0B0*%
%FSLAX25Y25*%
%IPPOS*%
%LPD*%
%AMOC8*
5,1,8,0,0,1.08239X$1,22.5*
%
%ADD10C,0.00300*%
D10*
X0098386Y0010101D02*
X0099003Y0009484D01*
X0100237Y0009484D01*
X0100855Y0010101D01*
X0100855Y0011336D01*
X0099620Y0011336D01*
X0098386Y0012570D02*
X0098386Y0010101D01*
X0098386Y0012570D02*
X0099003Y0013187D01*
X0100237Y0013187D01*
X0100855Y0012570D01*
X0102069Y0011953D02*
X0102069Y0009484D01*
X0102069Y0010719D02*
X0103303Y0011953D01*
X0103921Y0011953D01*
X0105755Y0011953D02*
X0106990Y0011953D01*
X0107607Y0011336D01*
X0107607Y0009484D01*
X0105755Y0009484D01*
X0105138Y0010101D01*
X0105755Y0010719D01*
X0107607Y0010719D01*
X0108821Y0011953D02*
X0110673Y0011953D01*
X0111290Y0011336D01*
X0111290Y0010101D01*
X0110673Y0009484D01*
X0108821Y0009484D01*
X0108821Y0008250D02*
X0108821Y0011953D01*
X0112505Y0011336D02*
X0113122Y0011953D01*
X0114356Y0011953D01*
X0114973Y0011336D01*
X0114973Y0009484D01*
X0116188Y0009484D02*
X0117422Y0009484D01*
X0116805Y0009484D02*
X0116805Y0011953D01*
X0116188Y0011953D01*
X0116805Y0013187D02*
X0116805Y0013805D01*
X0119260Y0011953D02*
X0118643Y0011336D01*
X0118643Y0010101D01*
X0119260Y0009484D01*
X0121112Y0009484D01*
X0126009Y0009484D02*
X0128478Y0009484D01*
X0129693Y0010101D02*
X0130310Y0009484D01*
X0131544Y0009484D01*
X0132161Y0010101D01*
X0132161Y0012570D01*
X0131544Y0013187D01*
X0130310Y0013187D01*
X0129693Y0012570D01*
X0129693Y0010101D01*
X0130927Y0010719D02*
X0132161Y0009484D01*
X0137059Y0009484D02*
X0138910Y0009484D01*
X0139528Y0010101D01*
X0139528Y0012570D01*
X0138910Y0013187D01*
X0137059Y0013187D01*
X0137059Y0009484D01*
X0140742Y0010101D02*
X0140742Y0011336D01*
X0141359Y0011953D01*
X0142594Y0011953D01*
X0143211Y0011336D01*
X0143211Y0010719D01*
X0140742Y0010719D01*
X0140742Y0010101D02*
X0141359Y0009484D01*
X0142594Y0009484D01*
X0144425Y0009484D02*
X0146277Y0009484D01*
X0146894Y0010101D01*
X0146277Y0010719D01*
X0145042Y0010719D01*
X0144425Y0011336D01*
X0145042Y0011953D01*
X0146894Y0011953D01*
X0148108Y0011953D02*
X0148725Y0011953D01*
X0148725Y0009484D01*
X0148108Y0009484D02*
X0149343Y0009484D01*
X0150564Y0010101D02*
X0151181Y0009484D01*
X0153032Y0009484D01*
X0153032Y0008867D02*
X0153032Y0011953D01*
X0151181Y0011953D01*
X0150564Y0011336D01*
X0150564Y0010101D01*
X0152415Y0008250D02*
X0153032Y0008867D01*
X0152415Y0008250D02*
X0151798Y0008250D01*
X0154247Y0009484D02*
X0154247Y0011953D01*
X0156098Y0011953D01*
X0156716Y0011336D01*
X0156716Y0009484D01*
X0157930Y0010101D02*
X0158547Y0009484D01*
X0159782Y0009484D01*
X0160399Y0010719D02*
X0157930Y0010719D01*
X0157930Y0011336D02*
X0158547Y0011953D01*
X0159782Y0011953D01*
X0160399Y0011336D01*
X0160399Y0010719D01*
X0161613Y0011336D02*
X0162230Y0011953D01*
X0164082Y0011953D01*
X0164082Y0013187D02*
X0164082Y0009484D01*
X0162230Y0009484D01*
X0161613Y0010101D01*
X0161613Y0011336D01*
X0157930Y0011336D02*
X0157930Y0010101D01*
X0148725Y0013187D02*
X0148725Y0013805D01*
X0128478Y0013187D02*
X0126009Y0013187D01*
X0126009Y0009484D01*
X0126009Y0011336D02*
X0127244Y0011336D01*
X0121112Y0011953D02*
X0119260Y0011953D01*
X0112505Y0013187D02*
X0112505Y0009484D01*
X0168979Y0009484D02*
X0170214Y0009484D01*
X0169597Y0009484D02*
X0169597Y0011953D01*
X0168979Y0011953D01*
X0169597Y0013187D02*
X0169597Y0013805D01*
X0171435Y0011953D02*
X0173286Y0011953D01*
X0173904Y0011336D01*
X0173904Y0009484D01*
X0171435Y0009484D02*
X0171435Y0011953D01*
X0178801Y0011336D02*
X0181270Y0011336D01*
X0182484Y0011336D02*
X0183101Y0011953D01*
X0184336Y0011953D01*
X0184953Y0011336D01*
X0184953Y0010719D01*
X0182484Y0010719D01*
X0182484Y0011336D02*
X0182484Y0010101D01*
X0183101Y0009484D01*
X0184336Y0009484D01*
X0186167Y0009484D02*
X0186167Y0011953D01*
X0186167Y0010719D02*
X0187402Y0011953D01*
X0188019Y0011953D01*
X0189237Y0011953D02*
X0191088Y0011953D01*
X0191705Y0011336D01*
X0191705Y0009484D01*
X0192920Y0010101D02*
X0193537Y0009484D01*
X0194771Y0009484D01*
X0195389Y0010719D02*
X0192920Y0010719D01*
X0192920Y0011336D02*
X0193537Y0011953D01*
X0194771Y0011953D01*
X0195389Y0011336D01*
X0195389Y0010719D01*
X0192920Y0011336D02*
X0192920Y0010101D01*
X0189237Y0009484D02*
X0189237Y0011953D01*
X0181270Y0013187D02*
X0181270Y0009484D01*
X0178801Y0009484D02*
X0178801Y0013187D01*
X0200286Y0013187D02*
X0200286Y0009484D01*
X0200286Y0011336D02*
X0202755Y0011336D01*
X0202755Y0013187D02*
X0202755Y0009484D01*
X0203969Y0009484D02*
X0205204Y0009484D01*
X0204586Y0009484D02*
X0204586Y0013187D01*
X0203969Y0013187D02*
X0205204Y0013187D01*
X0206425Y0013187D02*
X0207042Y0013187D01*
X0207042Y0009484D01*
X0206425Y0009484D02*
X0207659Y0009484D01*
X0208880Y0009484D02*
X0210115Y0009484D01*
X0209497Y0009484D02*
X0209497Y0013187D01*
X0208880Y0013187D01*
X0211953Y0010101D02*
X0211953Y0009484D01*
X0212570Y0009484D01*
X0212570Y0010101D01*
X0211953Y0010101D01*
X0212570Y0009484D02*
X0211336Y0008250D01*
X0217474Y0009484D02*
X0219943Y0009484D01*
X0221157Y0010101D02*
X0221774Y0009484D01*
X0223009Y0009484D01*
X0223626Y0010101D01*
X0223626Y0011336D01*
X0223009Y0011953D01*
X0221774Y0011953D01*
X0221157Y0011336D01*
X0221157Y0010101D01*
X0217474Y0009484D02*
X0217474Y0013187D01*
X0224840Y0011953D02*
X0226692Y0011953D01*
X0227309Y0011336D01*
X0227309Y0009484D01*
X0228524Y0010101D02*
X0229141Y0009484D01*
X0230992Y0009484D01*
X0230992Y0013187D01*
X0230992Y0011953D02*
X0229141Y0011953D01*
X0228524Y0011336D01*
X0228524Y0010101D01*
X0232207Y0010101D02*
X0232824Y0009484D01*
X0234058Y0009484D01*
X0234675Y0010101D01*
X0234675Y0011336D01*
X0234058Y0011953D01*
X0232824Y0011953D01*
X0232207Y0011336D01*
X0232207Y0010101D01*
X0235890Y0009484D02*
X0235890Y0011953D01*
X0237741Y0011953D01*
X0238359Y0011336D01*
X0238359Y0009484D01*
X0239573Y0008250D02*
X0240807Y0009484D01*
X0240190Y0009484D01*
X0240190Y0010101D01*
X0240807Y0010101D01*
X0240807Y0009484D01*
X0245712Y0009484D02*
X0247563Y0009484D01*
X0248180Y0010101D01*
X0248180Y0011336D01*
X0247563Y0011953D01*
X0245712Y0011953D01*
X0245712Y0013187D02*
X0245712Y0009484D01*
X0249395Y0010101D02*
X0250012Y0009484D01*
X0251863Y0009484D01*
X0251863Y0008867D02*
X0251246Y0008250D01*
X0250629Y0008250D01*
X0251863Y0008867D02*
X0251863Y0011953D01*
X0249395Y0011953D02*
X0249395Y0010101D01*
X0256761Y0013187D02*
X0259230Y0013187D01*
X0257995Y0013187D02*
X0257995Y0009484D01*
X0260444Y0010101D02*
X0261061Y0009484D01*
X0262296Y0009484D01*
X0262913Y0010101D01*
X0262913Y0011336D01*
X0262296Y0011953D01*
X0261061Y0011953D01*
X0260444Y0011336D01*
X0260444Y0010101D01*
X0264127Y0009484D02*
X0264127Y0011953D01*
X0264744Y0011953D01*
X0265362Y0011336D01*
X0265979Y0011953D01*
X0266596Y0011336D01*
X0266596Y0009484D01*
X0265362Y0009484D02*
X0265362Y0011336D01*
X0271494Y0013187D02*
X0271494Y0009484D01*
X0272728Y0010719D01*
X0273962Y0009484D01*
X0273962Y0013187D01*
X0275177Y0013187D02*
X0275177Y0009484D01*
X0275177Y0011336D02*
X0275794Y0011953D01*
X0277028Y0011953D01*
X0277645Y0011336D01*
X0277645Y0009484D01*
X0278860Y0009484D02*
X0280094Y0009484D01*
X0279477Y0009484D02*
X0279477Y0011953D01*
X0278860Y0011953D01*
X0279477Y0013187D02*
X0279477Y0013805D01*
X0281315Y0011953D02*
X0282550Y0011953D01*
X0281932Y0012570D02*
X0281932Y0010101D01*
X0282550Y0009484D01*
X0283771Y0010101D02*
X0284388Y0009484D01*
X0285005Y0010101D01*
X0285622Y0009484D01*
X0286239Y0010101D01*
X0286239Y0011953D01*
X0287454Y0011336D02*
X0288071Y0011953D01*
X0289305Y0011953D01*
X0289923Y0011336D01*
X0289923Y0010719D01*
X0287454Y0010719D01*
X0287454Y0011336D02*
X0287454Y0010101D01*
X0288071Y0009484D01*
X0289305Y0009484D01*
X0291137Y0009484D02*
X0292371Y0009484D01*
X0291754Y0009484D02*
X0291754Y0013187D01*
X0291137Y0013187D01*
X0293592Y0013187D02*
X0294210Y0013187D01*
X0294210Y0009484D01*
X0294827Y0009484D02*
X0293592Y0009484D01*
X0299731Y0009484D02*
X0299731Y0013187D01*
X0302200Y0013187D01*
X0304031Y0011953D02*
X0305266Y0011953D01*
X0305883Y0011336D01*
X0305883Y0010719D01*
X0303414Y0010719D01*
X0303414Y0011336D02*
X0304031Y0011953D01*
X0303414Y0011336D02*
X0303414Y0010101D01*
X0304031Y0009484D01*
X0305266Y0009484D01*
X0307097Y0009484D02*
X0308949Y0009484D01*
X0309566Y0010101D01*
X0309566Y0011336D01*
X0308949Y0011953D01*
X0307097Y0011953D01*
X0307097Y0013187D02*
X0307097Y0009484D01*
X0310780Y0009484D02*
X0310780Y0011953D01*
X0310780Y0010719D02*
X0312015Y0011953D01*
X0312632Y0011953D01*
X0313850Y0011953D02*
X0313850Y0010101D01*
X0314467Y0009484D01*
X0316318Y0009484D01*
X0316318Y0011953D01*
X0318150Y0011953D02*
X0319384Y0011953D01*
X0320002Y0011336D01*
X0320002Y0009484D01*
X0318150Y0009484D01*
X0317533Y0010101D01*
X0318150Y0010719D01*
X0320002Y0010719D01*
X0321216Y0010719D02*
X0322450Y0011953D01*
X0323068Y0011953D01*
X0324285Y0011953D02*
X0324285Y0010101D01*
X0324902Y0009484D01*
X0326754Y0009484D01*
X0326754Y0008867D02*
X0326137Y0008250D01*
X0325520Y0008250D01*
X0326754Y0008867D02*
X0326754Y0011953D01*
X0331652Y0012570D02*
X0332269Y0013187D01*
X0333503Y0013187D01*
X0334120Y0012570D01*
X0334120Y0011953D01*
X0331652Y0009484D01*
X0334120Y0009484D01*
X0335335Y0010101D02*
X0337803Y0012570D01*
X0337803Y0010101D01*
X0337186Y0009484D01*
X0335952Y0009484D01*
X0335335Y0010101D01*
X0335335Y0012570D01*
X0335952Y0013187D01*
X0337186Y0013187D01*
X0337803Y0012570D01*
X0339018Y0011953D02*
X0340252Y0013187D01*
X0340252Y0009484D01*
X0339018Y0009484D02*
X0341487Y0009484D01*
X0342701Y0009484D02*
X0342701Y0010101D01*
X0345170Y0012570D01*
X0345170Y0013187D01*
X0342701Y0013187D01*
X0350067Y0013187D02*
X0351919Y0013187D01*
X0352536Y0012570D01*
X0352536Y0011336D01*
X0351919Y0010719D01*
X0350067Y0010719D01*
X0350067Y0009484D02*
X0350067Y0013187D01*
X0353750Y0011953D02*
X0353750Y0009484D01*
X0353750Y0010719D02*
X0354985Y0011953D01*
X0355602Y0011953D01*
X0356820Y0011336D02*
X0357437Y0011953D01*
X0358671Y0011953D01*
X0359288Y0011336D01*
X0359288Y0010101D01*
X0358671Y0009484D01*
X0357437Y0009484D01*
X0356820Y0010101D01*
X0356820Y0011336D01*
X0360503Y0011953D02*
X0361737Y0011953D01*
X0361120Y0012570D02*
X0361120Y0010101D01*
X0361737Y0009484D01*
X0362958Y0010101D02*
X0363575Y0009484D01*
X0364810Y0009484D01*
X0365427Y0010101D01*
X0365427Y0011336D01*
X0364810Y0011953D01*
X0363575Y0011953D01*
X0362958Y0011336D01*
X0362958Y0010101D01*
X0370325Y0010101D02*
X0370942Y0009484D01*
X0372176Y0009484D01*
X0372793Y0010101D01*
X0372793Y0010719D01*
X0372176Y0011336D01*
X0371559Y0011336D01*
X0372176Y0011336D02*
X0372793Y0011953D01*
X0372793Y0012570D01*
X0372176Y0013187D01*
X0370942Y0013187D01*
X0370325Y0012570D01*
X0321216Y0011953D02*
X0321216Y0009484D01*
X0300965Y0011336D02*
X0299731Y0011336D01*
X0283771Y0011953D02*
X0283771Y0010101D01*
X0224840Y0009484D02*
X0224840Y0011953D01*
M02*
