%
M48
M72
T01C0.0130
T02C0.0315
T03C0.0433
%
T01
X9208Y3086
X11332Y3962
X11833Y4586
X11333Y7336
X11833Y9211
X21082Y7337
X21958Y8836
X21958Y4687
X21083Y3961
X30708Y3961
X31208Y4711
X30708Y7586
X31208Y8836
X9583Y1086
T02
X16897Y1690
X18312Y3104
X21747Y1690
X23162Y3104
X26522Y1690
X27937Y3104
X31297Y1690
X32712Y3104
X36097Y1690
X37512Y3104
X40897Y1690
X42312Y3104
X45597Y1690
X47012Y3104
X36405Y9468
X37112Y10175
X37819Y10882
X38526Y11589
X33826Y11589
X33119Y10882
X32412Y10175
X31705Y9468
X28319Y10882
X27612Y10175
X26905Y9468
X23519Y10882
X22812Y10175
X22105Y9468
X18744Y10882
X18037Y10175
X17330Y9468
X13969Y10882
X13262Y10175
X12555Y9468
X9119Y10882
X8412Y10175
X7705Y9468
X9826Y11589
X14676Y11589
X19451Y11589
X24226Y11589
X29026Y11589
T03
X6365Y2586
X9711Y2586
X10892Y2586
X43399Y9961
X44580Y9961
X47927Y9961
M30
