G75*
%MOIN*%
%OFA0B0*%
%FSLAX25Y25*%
%IPPOS*%
%LPD*%
%AMOC8*
5,1,8,0,0,1.08239X$1,22.5*
%
%ADD10R,0.04724X0.04724*%
%ADD11C,0.06496*%
%ADD12C,0.00600*%
%ADD13C,0.00800*%
%ADD14C,0.01600*%
%ADD15C,0.01000*%
%ADD16C,0.02500*%
D10*
G36*
X0168974Y0013557D02*
X0165634Y0016897D01*
X0168974Y0020237D01*
X0172314Y0016897D01*
X0168974Y0013557D01*
G37*
G36*
X0183116Y0027699D02*
X0179776Y0031039D01*
X0183116Y0034379D01*
X0186456Y0031039D01*
X0183116Y0027699D01*
G37*
G36*
X0217474Y0013557D02*
X0214134Y0016897D01*
X0217474Y0020237D01*
X0220814Y0016897D01*
X0217474Y0013557D01*
G37*
G36*
X0231616Y0027699D02*
X0228276Y0031039D01*
X0231616Y0034379D01*
X0234956Y0031039D01*
X0231616Y0027699D01*
G37*
G36*
X0265224Y0013557D02*
X0261884Y0016897D01*
X0265224Y0020237D01*
X0268564Y0016897D01*
X0265224Y0013557D01*
G37*
G36*
X0279366Y0027699D02*
X0276026Y0031039D01*
X0279366Y0034379D01*
X0282706Y0031039D01*
X0279366Y0027699D01*
G37*
G36*
X0312974Y0013557D02*
X0309634Y0016897D01*
X0312974Y0020237D01*
X0316314Y0016897D01*
X0312974Y0013557D01*
G37*
G36*
X0327116Y0027699D02*
X0323776Y0031039D01*
X0327116Y0034379D01*
X0330456Y0031039D01*
X0327116Y0027699D01*
G37*
G36*
X0360974Y0013557D02*
X0357634Y0016897D01*
X0360974Y0020237D01*
X0364314Y0016897D01*
X0360974Y0013557D01*
G37*
G36*
X0375116Y0027699D02*
X0371776Y0031039D01*
X0375116Y0034379D01*
X0378456Y0031039D01*
X0375116Y0027699D01*
G37*
G36*
X0408974Y0013557D02*
X0405634Y0016897D01*
X0408974Y0020237D01*
X0412314Y0016897D01*
X0408974Y0013557D01*
G37*
G36*
X0423116Y0027699D02*
X0419776Y0031039D01*
X0423116Y0034379D01*
X0426456Y0031039D01*
X0423116Y0027699D01*
G37*
G36*
X0455974Y0013557D02*
X0452634Y0016897D01*
X0455974Y0020237D01*
X0459314Y0016897D01*
X0455974Y0013557D01*
G37*
G36*
X0470116Y0027699D02*
X0466776Y0031039D01*
X0470116Y0034379D01*
X0473456Y0031039D01*
X0470116Y0027699D01*
G37*
G36*
X0364050Y0091339D02*
X0360710Y0094679D01*
X0364050Y0098019D01*
X0367390Y0094679D01*
X0364050Y0091339D01*
G37*
G36*
X0371121Y0098410D02*
X0367781Y0101750D01*
X0371121Y0105090D01*
X0374461Y0101750D01*
X0371121Y0098410D01*
G37*
G36*
X0378192Y0105481D02*
X0374852Y0108821D01*
X0378192Y0112161D01*
X0381532Y0108821D01*
X0378192Y0105481D01*
G37*
G36*
X0385264Y0112552D02*
X0381924Y0115892D01*
X0385264Y0119232D01*
X0388604Y0115892D01*
X0385264Y0112552D01*
G37*
G36*
X0338264Y0112552D02*
X0334924Y0115892D01*
X0338264Y0119232D01*
X0341604Y0115892D01*
X0338264Y0112552D01*
G37*
G36*
X0331192Y0105481D02*
X0327852Y0108821D01*
X0331192Y0112161D01*
X0334532Y0108821D01*
X0331192Y0105481D01*
G37*
G36*
X0324121Y0098410D02*
X0320781Y0101750D01*
X0324121Y0105090D01*
X0327461Y0101750D01*
X0324121Y0098410D01*
G37*
G36*
X0317050Y0091339D02*
X0313710Y0094679D01*
X0317050Y0098019D01*
X0320390Y0094679D01*
X0317050Y0091339D01*
G37*
G36*
X0283192Y0105481D02*
X0279852Y0108821D01*
X0283192Y0112161D01*
X0286532Y0108821D01*
X0283192Y0105481D01*
G37*
G36*
X0276121Y0098410D02*
X0272781Y0101750D01*
X0276121Y0105090D01*
X0279461Y0101750D01*
X0276121Y0098410D01*
G37*
G36*
X0269050Y0091339D02*
X0265710Y0094679D01*
X0269050Y0098019D01*
X0272390Y0094679D01*
X0269050Y0091339D01*
G37*
G36*
X0235192Y0105481D02*
X0231852Y0108821D01*
X0235192Y0112161D01*
X0238532Y0108821D01*
X0235192Y0105481D01*
G37*
G36*
X0228121Y0098410D02*
X0224781Y0101750D01*
X0228121Y0105090D01*
X0231461Y0101750D01*
X0228121Y0098410D01*
G37*
G36*
X0221050Y0091339D02*
X0217710Y0094679D01*
X0221050Y0098019D01*
X0224390Y0094679D01*
X0221050Y0091339D01*
G37*
G36*
X0187442Y0105481D02*
X0184102Y0108821D01*
X0187442Y0112161D01*
X0190782Y0108821D01*
X0187442Y0105481D01*
G37*
G36*
X0180371Y0098410D02*
X0177031Y0101750D01*
X0180371Y0105090D01*
X0183711Y0101750D01*
X0180371Y0098410D01*
G37*
G36*
X0173300Y0091339D02*
X0169960Y0094679D01*
X0173300Y0098019D01*
X0176640Y0094679D01*
X0173300Y0091339D01*
G37*
G36*
X0139692Y0105481D02*
X0136352Y0108821D01*
X0139692Y0112161D01*
X0143032Y0108821D01*
X0139692Y0105481D01*
G37*
G36*
X0132621Y0098410D02*
X0129281Y0101750D01*
X0132621Y0105090D01*
X0135961Y0101750D01*
X0132621Y0098410D01*
G37*
G36*
X0125550Y0091339D02*
X0122210Y0094679D01*
X0125550Y0098019D01*
X0128890Y0094679D01*
X0125550Y0091339D01*
G37*
G36*
X0091192Y0105481D02*
X0087852Y0108821D01*
X0091192Y0112161D01*
X0094532Y0108821D01*
X0091192Y0105481D01*
G37*
G36*
X0084121Y0098410D02*
X0080781Y0101750D01*
X0084121Y0105090D01*
X0087461Y0101750D01*
X0084121Y0098410D01*
G37*
G36*
X0077050Y0091339D02*
X0073710Y0094679D01*
X0077050Y0098019D01*
X0080390Y0094679D01*
X0077050Y0091339D01*
G37*
G36*
X0098264Y0112552D02*
X0094924Y0115892D01*
X0098264Y0119232D01*
X0101604Y0115892D01*
X0098264Y0112552D01*
G37*
G36*
X0146764Y0112552D02*
X0143424Y0115892D01*
X0146764Y0119232D01*
X0150104Y0115892D01*
X0146764Y0112552D01*
G37*
G36*
X0194514Y0112552D02*
X0191174Y0115892D01*
X0194514Y0119232D01*
X0197854Y0115892D01*
X0194514Y0112552D01*
G37*
G36*
X0242264Y0112552D02*
X0238924Y0115892D01*
X0242264Y0119232D01*
X0245604Y0115892D01*
X0242264Y0112552D01*
G37*
G36*
X0290264Y0112552D02*
X0286924Y0115892D01*
X0290264Y0119232D01*
X0293604Y0115892D01*
X0290264Y0112552D01*
G37*
D11*
X0433993Y0099609D03*
X0445804Y0099609D03*
X0479268Y0099609D03*
X0108924Y0025859D03*
X0097113Y0025859D03*
X0063648Y0025859D03*
D12*
X0131468Y0026609D02*
X0131468Y0029011D01*
X0131868Y0027810D02*
X0133069Y0026609D01*
X0134230Y0026609D02*
X0135031Y0026609D01*
X0134630Y0026609D02*
X0134630Y0029011D01*
X0134230Y0029011D02*
X0135031Y0029011D01*
X0136072Y0029011D02*
X0136072Y0026609D01*
X0137673Y0026609D01*
X0138834Y0026609D02*
X0140435Y0026609D01*
X0141596Y0027009D02*
X0141997Y0026609D01*
X0142797Y0026609D01*
X0143198Y0027009D01*
X0143198Y0027409D01*
X0142797Y0027810D01*
X0141997Y0027810D01*
X0141596Y0028210D01*
X0141596Y0028610D01*
X0141997Y0029011D01*
X0142797Y0029011D01*
X0143198Y0028610D01*
X0142797Y0030209D02*
X0141997Y0030209D01*
X0141596Y0030609D01*
X0141997Y0031410D02*
X0142797Y0031410D01*
X0143198Y0031009D01*
X0143198Y0030609D01*
X0142797Y0030209D01*
X0141997Y0031410D02*
X0141596Y0031810D01*
X0141596Y0032210D01*
X0141997Y0032611D01*
X0142797Y0032611D01*
X0143198Y0032210D01*
X0140555Y0032611D02*
X0139755Y0032611D01*
X0140155Y0032611D02*
X0140155Y0030209D01*
X0139755Y0030209D02*
X0140555Y0030209D01*
X0138594Y0030209D02*
X0138594Y0032611D01*
X0138594Y0031410D02*
X0136992Y0031410D01*
X0136992Y0030209D02*
X0136992Y0032611D01*
X0135831Y0032611D02*
X0134230Y0032611D01*
X0135031Y0032611D02*
X0135031Y0030209D01*
X0133069Y0029011D02*
X0131468Y0027409D01*
X0138834Y0026609D02*
X0138834Y0029011D01*
X0147121Y0029011D02*
X0147121Y0026609D01*
X0147121Y0027810D02*
X0147922Y0027810D01*
X0147121Y0029011D02*
X0148722Y0029011D01*
X0148722Y0030209D02*
X0148722Y0032611D01*
X0147922Y0031810D01*
X0147121Y0032611D01*
X0147121Y0030209D01*
X0149883Y0030209D02*
X0149883Y0031810D01*
X0150684Y0032611D01*
X0151485Y0031810D01*
X0151485Y0030209D01*
X0151485Y0031410D02*
X0149883Y0031410D01*
X0150684Y0029011D02*
X0151485Y0028210D01*
X0151485Y0026609D01*
X0151485Y0027810D02*
X0149883Y0027810D01*
X0149883Y0028210D02*
X0150684Y0029011D01*
X0149883Y0028210D02*
X0149883Y0026609D01*
X0152646Y0027009D02*
X0153046Y0026609D01*
X0153847Y0026609D01*
X0154247Y0027009D01*
X0154247Y0027409D01*
X0153847Y0027810D01*
X0153046Y0027810D01*
X0152646Y0028210D01*
X0152646Y0028610D01*
X0153046Y0029011D01*
X0153847Y0029011D01*
X0154247Y0028610D01*
X0155408Y0028610D02*
X0155408Y0027009D01*
X0155808Y0026609D01*
X0156609Y0026609D01*
X0157009Y0027009D01*
X0158170Y0026609D02*
X0158971Y0026609D01*
X0158571Y0026609D02*
X0158571Y0029011D01*
X0158971Y0029011D02*
X0158170Y0029011D01*
X0158170Y0030209D02*
X0158971Y0030209D01*
X0158571Y0030209D02*
X0158571Y0032611D01*
X0158971Y0032611D02*
X0158170Y0032611D01*
X0157009Y0032611D02*
X0157009Y0030209D01*
X0157009Y0031410D02*
X0155408Y0031410D01*
X0155408Y0030209D02*
X0155408Y0032611D01*
X0154247Y0032210D02*
X0153847Y0032611D01*
X0153046Y0032611D01*
X0152646Y0032210D01*
X0152646Y0030609D01*
X0153046Y0030209D01*
X0153847Y0030209D01*
X0154247Y0030609D01*
X0155808Y0029011D02*
X0155408Y0028610D01*
X0155808Y0029011D02*
X0156609Y0029011D01*
X0157009Y0028610D01*
X0160012Y0028610D02*
X0160012Y0028210D01*
X0160412Y0027810D01*
X0161213Y0027810D01*
X0161613Y0027409D01*
X0161613Y0027009D01*
X0161213Y0026609D01*
X0160412Y0026609D01*
X0160012Y0027009D01*
X0160012Y0028610D02*
X0160412Y0029011D01*
X0161213Y0029011D01*
X0161613Y0028610D01*
X0162774Y0029011D02*
X0164376Y0029011D01*
X0163575Y0029011D02*
X0163575Y0026609D01*
X0165537Y0027009D02*
X0165937Y0026609D01*
X0166738Y0026609D01*
X0167138Y0027009D01*
X0167138Y0027409D01*
X0166738Y0027810D01*
X0165937Y0027810D01*
X0165537Y0028210D01*
X0165537Y0028610D01*
X0165937Y0029011D01*
X0166738Y0029011D01*
X0167138Y0028610D01*
X0164376Y0030209D02*
X0162774Y0030209D01*
X0162774Y0032611D01*
X0164376Y0032611D01*
X0163575Y0031410D02*
X0162774Y0031410D01*
X0161613Y0030209D02*
X0161613Y0032611D01*
X0160012Y0032611D02*
X0160012Y0030209D01*
X0161613Y0030209D02*
X0160012Y0032611D01*
D13*
X0169583Y0034609D02*
X0169583Y0024609D01*
X0129583Y0024609D01*
X0129583Y0034609D01*
X0169583Y0034609D01*
D14*
X0058883Y0006409D02*
X0058883Y0118950D01*
X0095436Y0118950D01*
X0095320Y0118835D01*
X0093483Y0116997D01*
X0093246Y0116587D01*
X0093123Y0116129D01*
X0093123Y0115655D01*
X0093246Y0115197D01*
X0093483Y0114787D01*
X0095320Y0112949D01*
X0098263Y0115892D01*
X0095320Y0118835D01*
X0098263Y0115892D01*
X0098263Y0115892D01*
X0098263Y0115892D01*
X0098264Y0115892D02*
X0101207Y0118835D01*
X0103045Y0116997D01*
X0103282Y0116587D01*
X0103404Y0116129D01*
X0103404Y0115655D01*
X0103282Y0115197D01*
X0103045Y0114787D01*
X0101207Y0112949D01*
X0098264Y0115892D01*
X0098264Y0115892D01*
X0101207Y0118835D01*
X0101091Y0118950D01*
X0143936Y0118950D01*
X0143820Y0118835D01*
X0141983Y0116997D01*
X0141746Y0116587D01*
X0141623Y0116129D01*
X0141623Y0115655D01*
X0141746Y0115197D01*
X0141983Y0114787D01*
X0143820Y0112949D01*
X0146763Y0115892D01*
X0143820Y0118835D01*
X0146763Y0115892D01*
X0146763Y0115892D01*
X0146763Y0115892D01*
X0146764Y0115892D02*
X0149707Y0118835D01*
X0146764Y0115892D01*
X0146764Y0115892D01*
X0149707Y0112949D01*
X0151545Y0114787D01*
X0151782Y0115197D01*
X0151904Y0115655D01*
X0151904Y0116129D01*
X0151782Y0116587D01*
X0151545Y0116997D01*
X0149707Y0118835D01*
X0149591Y0118950D01*
X0191686Y0118950D01*
X0191570Y0118835D01*
X0189733Y0116997D01*
X0189496Y0116587D01*
X0189373Y0116129D01*
X0189373Y0115655D01*
X0189496Y0115197D01*
X0189733Y0114787D01*
X0191570Y0112949D01*
X0194513Y0115892D01*
X0191570Y0118835D01*
X0194513Y0115892D01*
X0194513Y0115892D01*
X0194513Y0115892D01*
X0194514Y0115892D02*
X0197457Y0118835D01*
X0194514Y0115892D01*
X0194514Y0115892D01*
X0197457Y0112949D01*
X0199295Y0114787D01*
X0199532Y0115197D01*
X0199654Y0115655D01*
X0199654Y0116129D01*
X0199532Y0116587D01*
X0199295Y0116997D01*
X0197457Y0118835D01*
X0197341Y0118950D01*
X0239436Y0118950D01*
X0239320Y0118835D01*
X0237483Y0116997D01*
X0237246Y0116587D01*
X0237123Y0116129D01*
X0237123Y0115655D01*
X0237246Y0115197D01*
X0237483Y0114787D01*
X0239320Y0112949D01*
X0242263Y0115892D01*
X0239320Y0118835D01*
X0242263Y0115892D01*
X0242263Y0115892D01*
X0242263Y0115892D01*
X0242264Y0115892D02*
X0245207Y0118835D01*
X0242264Y0115892D01*
X0242264Y0115892D01*
X0245207Y0112949D01*
X0247045Y0114787D01*
X0247282Y0115197D01*
X0247404Y0115655D01*
X0247404Y0116129D01*
X0247282Y0116587D01*
X0247045Y0116997D01*
X0245207Y0118835D01*
X0245091Y0118950D01*
X0287436Y0118950D01*
X0287320Y0118835D01*
X0285483Y0116997D01*
X0285246Y0116587D01*
X0285123Y0116129D01*
X0285123Y0115655D01*
X0285246Y0115197D01*
X0285483Y0114787D01*
X0287320Y0112949D01*
X0290263Y0115892D01*
X0287320Y0118835D01*
X0290263Y0115892D01*
X0290263Y0115892D01*
X0290263Y0115892D01*
X0290264Y0115892D02*
X0293207Y0118835D01*
X0290264Y0115892D01*
X0290264Y0115892D01*
X0293207Y0112949D01*
X0295045Y0114787D01*
X0295282Y0115197D01*
X0295404Y0115655D01*
X0295404Y0116129D01*
X0295282Y0116587D01*
X0295045Y0116997D01*
X0293207Y0118835D01*
X0293091Y0118950D01*
X0335436Y0118950D01*
X0335320Y0118835D01*
X0333483Y0116997D01*
X0333246Y0116587D01*
X0333123Y0116129D01*
X0333123Y0115655D01*
X0333246Y0115197D01*
X0333483Y0114787D01*
X0335320Y0112949D01*
X0338263Y0115892D01*
X0335320Y0118835D01*
X0338263Y0115892D01*
X0338263Y0115892D01*
X0338263Y0115892D01*
X0338264Y0115892D02*
X0341207Y0118835D01*
X0338264Y0115892D01*
X0338264Y0115892D01*
X0341207Y0112949D01*
X0343045Y0114787D01*
X0343282Y0115197D01*
X0343404Y0115655D01*
X0343404Y0116129D01*
X0343282Y0116587D01*
X0343045Y0116997D01*
X0341207Y0118835D01*
X0341091Y0118950D01*
X0382436Y0118950D01*
X0382320Y0118835D01*
X0380483Y0116997D01*
X0380246Y0116587D01*
X0380123Y0116129D01*
X0380123Y0115655D01*
X0380246Y0115197D01*
X0380483Y0114787D01*
X0382320Y0112949D01*
X0385263Y0115892D01*
X0382320Y0118835D01*
X0385263Y0115892D01*
X0385263Y0115892D01*
X0385263Y0115892D01*
X0385264Y0115892D02*
X0388207Y0118835D01*
X0385264Y0115892D01*
X0385264Y0115892D01*
X0388207Y0112949D01*
X0390045Y0114787D01*
X0390282Y0115197D01*
X0390404Y0115655D01*
X0390404Y0116129D01*
X0390282Y0116587D01*
X0390045Y0116997D01*
X0388207Y0118835D01*
X0388091Y0118950D01*
X0484417Y0118950D01*
X0484417Y0006409D01*
X0058883Y0006409D01*
X0058883Y0007806D02*
X0484417Y0007806D01*
X0484417Y0009404D02*
X0474566Y0009404D01*
X0474120Y0008959D02*
X0475233Y0010072D01*
X0481168Y0016007D01*
X0481168Y0095365D01*
X0481901Y0095668D01*
X0483209Y0096976D01*
X0483916Y0098684D01*
X0483916Y0100533D01*
X0483209Y0102242D01*
X0481901Y0103549D01*
X0480193Y0104257D01*
X0478344Y0104257D01*
X0476635Y0103549D01*
X0475328Y0102242D01*
X0474620Y0100533D01*
X0474620Y0098684D01*
X0475328Y0096976D01*
X0476635Y0095668D01*
X0477368Y0095365D01*
X0477368Y0017581D01*
X0472546Y0012759D01*
X0457157Y0012759D01*
X0460715Y0016317D01*
X0460715Y0017477D01*
X0456554Y0021637D01*
X0455394Y0021637D01*
X0452554Y0018797D01*
X0412395Y0018797D01*
X0409554Y0021637D01*
X0408394Y0021637D01*
X0405554Y0018797D01*
X0364395Y0018797D01*
X0361554Y0021637D01*
X0360394Y0021637D01*
X0357766Y0019009D01*
X0357546Y0019009D01*
X0357334Y0018797D01*
X0316395Y0018797D01*
X0313554Y0021637D01*
X0312394Y0021637D01*
X0309554Y0018797D01*
X0268645Y0018797D01*
X0265804Y0021637D01*
X0264644Y0021637D01*
X0261804Y0018797D01*
X0220895Y0018797D01*
X0218054Y0021637D01*
X0216894Y0021637D01*
X0214054Y0018797D01*
X0172395Y0018797D01*
X0169554Y0021637D01*
X0168394Y0021637D01*
X0164234Y0017477D01*
X0164234Y0016317D01*
X0167792Y0012759D01*
X0097681Y0012759D01*
X0097334Y0013105D01*
X0096360Y0013509D01*
X0095306Y0013509D01*
X0094332Y0013105D01*
X0093587Y0012360D01*
X0093183Y0011386D01*
X0093183Y0010332D01*
X0093587Y0009358D01*
X0094332Y0008612D01*
X0095306Y0008209D01*
X0096360Y0008209D01*
X0097334Y0008612D01*
X0097681Y0008959D01*
X0474120Y0008959D01*
X0476164Y0011003D02*
X0484417Y0011003D01*
X0484417Y0012601D02*
X0477763Y0012601D01*
X0479361Y0014200D02*
X0484417Y0014200D01*
X0484417Y0015798D02*
X0480960Y0015798D01*
X0481168Y0017397D02*
X0484417Y0017397D01*
X0484417Y0018995D02*
X0481168Y0018995D01*
X0481168Y0020594D02*
X0484417Y0020594D01*
X0484417Y0022192D02*
X0481168Y0022192D01*
X0481168Y0023791D02*
X0484417Y0023791D01*
X0484417Y0025389D02*
X0481168Y0025389D01*
X0481168Y0026988D02*
X0484417Y0026988D01*
X0484417Y0028586D02*
X0481168Y0028586D01*
X0481168Y0030185D02*
X0484417Y0030185D01*
X0484417Y0031783D02*
X0481168Y0031783D01*
X0481168Y0033382D02*
X0484417Y0033382D01*
X0484417Y0034980D02*
X0481168Y0034980D01*
X0481168Y0036579D02*
X0484417Y0036579D01*
X0484417Y0038177D02*
X0481168Y0038177D01*
X0481168Y0039776D02*
X0484417Y0039776D01*
X0484417Y0041375D02*
X0481168Y0041375D01*
X0481168Y0042973D02*
X0484417Y0042973D01*
X0484417Y0044572D02*
X0481168Y0044572D01*
X0481168Y0046170D02*
X0484417Y0046170D01*
X0484417Y0047769D02*
X0481168Y0047769D01*
X0481168Y0049367D02*
X0484417Y0049367D01*
X0484417Y0050966D02*
X0481168Y0050966D01*
X0481168Y0052564D02*
X0484417Y0052564D01*
X0484417Y0054163D02*
X0481168Y0054163D01*
X0481168Y0055761D02*
X0484417Y0055761D01*
X0484417Y0057360D02*
X0481168Y0057360D01*
X0481168Y0058958D02*
X0484417Y0058958D01*
X0484417Y0060557D02*
X0481168Y0060557D01*
X0481168Y0062155D02*
X0484417Y0062155D01*
X0484417Y0063754D02*
X0481168Y0063754D01*
X0481168Y0065352D02*
X0484417Y0065352D01*
X0484417Y0066951D02*
X0481168Y0066951D01*
X0481168Y0068549D02*
X0484417Y0068549D01*
X0484417Y0070148D02*
X0481168Y0070148D01*
X0481168Y0071746D02*
X0484417Y0071746D01*
X0484417Y0073345D02*
X0481168Y0073345D01*
X0481168Y0074943D02*
X0484417Y0074943D01*
X0484417Y0076542D02*
X0481168Y0076542D01*
X0481168Y0078140D02*
X0484417Y0078140D01*
X0484417Y0079739D02*
X0481168Y0079739D01*
X0481168Y0081337D02*
X0484417Y0081337D01*
X0484417Y0082936D02*
X0481168Y0082936D01*
X0481168Y0084534D02*
X0484417Y0084534D01*
X0484417Y0086133D02*
X0481168Y0086133D01*
X0481168Y0087731D02*
X0484417Y0087731D01*
X0484417Y0089330D02*
X0481168Y0089330D01*
X0481168Y0090928D02*
X0484417Y0090928D01*
X0484417Y0092527D02*
X0481168Y0092527D01*
X0481168Y0094125D02*
X0484417Y0094125D01*
X0484417Y0095724D02*
X0481957Y0095724D01*
X0483352Y0097322D02*
X0484417Y0097322D01*
X0484417Y0098921D02*
X0483916Y0098921D01*
X0483916Y0100519D02*
X0484417Y0100519D01*
X0484417Y0102118D02*
X0483260Y0102118D01*
X0484417Y0103716D02*
X0481497Y0103716D01*
X0484417Y0105315D02*
X0471407Y0105315D01*
X0471407Y0106913D02*
X0484417Y0106913D01*
X0484417Y0108512D02*
X0471407Y0108512D01*
X0471407Y0110110D02*
X0484417Y0110110D01*
X0484417Y0111709D02*
X0386967Y0111709D01*
X0386369Y0111111D02*
X0388207Y0112949D01*
X0385264Y0115892D01*
X0385264Y0115892D01*
X0385263Y0115892D02*
X0382320Y0112949D01*
X0384158Y0111111D01*
X0384569Y0110874D01*
X0385027Y0110751D01*
X0385501Y0110751D01*
X0385958Y0110874D01*
X0386369Y0111111D01*
X0387848Y0113308D02*
X0387848Y0113308D01*
X0388566Y0113308D02*
X0484417Y0113308D01*
X0484417Y0114906D02*
X0390114Y0114906D01*
X0390303Y0116505D02*
X0484417Y0116505D01*
X0484417Y0118103D02*
X0388938Y0118103D01*
X0387475Y0118103D02*
X0387475Y0118103D01*
X0385876Y0116505D02*
X0385876Y0116505D01*
X0384651Y0116505D02*
X0384651Y0116505D01*
X0384278Y0114906D02*
X0384278Y0114906D01*
X0386249Y0114906D02*
X0386249Y0114906D01*
X0382679Y0113308D02*
X0382679Y0113308D01*
X0381961Y0113308D02*
X0379026Y0113308D01*
X0378772Y0113561D02*
X0377613Y0113561D01*
X0373452Y0109401D01*
X0373452Y0108241D01*
X0377613Y0104080D01*
X0378772Y0104080D01*
X0382933Y0108241D01*
X0382933Y0109401D01*
X0378772Y0113561D01*
X0377359Y0113308D02*
X0341566Y0113308D01*
X0341207Y0112949D02*
X0338264Y0115892D01*
X0338264Y0115892D01*
X0338263Y0115892D02*
X0335320Y0112949D01*
X0337158Y0111111D01*
X0337569Y0110874D01*
X0338027Y0110751D01*
X0338501Y0110751D01*
X0338958Y0110874D01*
X0339369Y0111111D01*
X0341207Y0112949D01*
X0340848Y0113308D02*
X0340848Y0113308D01*
X0339967Y0111709D02*
X0375760Y0111709D01*
X0374162Y0110110D02*
X0335223Y0110110D01*
X0335933Y0109401D02*
X0331772Y0113561D01*
X0330613Y0113561D01*
X0326452Y0109401D01*
X0326452Y0108241D01*
X0330613Y0104080D01*
X0331772Y0104080D01*
X0335933Y0108241D01*
X0335933Y0109401D01*
X0335933Y0108512D02*
X0373452Y0108512D01*
X0374779Y0106913D02*
X0334606Y0106913D01*
X0333007Y0105315D02*
X0369366Y0105315D01*
X0370541Y0106490D02*
X0368175Y0104123D01*
X0327505Y0103686D01*
X0324701Y0106490D01*
X0323541Y0106490D01*
X0320935Y0103884D01*
X0279524Y0103667D01*
X0276701Y0106490D01*
X0275541Y0106490D01*
X0272701Y0103650D01*
X0231542Y0103650D01*
X0228701Y0106490D01*
X0227541Y0106490D01*
X0224701Y0103650D01*
X0183792Y0103650D01*
X0180951Y0106490D01*
X0179791Y0106490D01*
X0176951Y0103650D01*
X0136042Y0103650D01*
X0133201Y0106490D01*
X0132041Y0106490D01*
X0129201Y0103650D01*
X0087542Y0103650D01*
X0084701Y0106490D01*
X0083541Y0106490D01*
X0079381Y0102330D01*
X0079381Y0101170D01*
X0082221Y0098329D01*
X0082221Y0038034D01*
X0082573Y0037682D01*
X0071978Y0037682D01*
X0071510Y0037214D01*
X0071510Y0014504D01*
X0071978Y0014035D01*
X0094688Y0014035D01*
X0095157Y0014504D01*
X0095157Y0021638D01*
X0096188Y0021211D01*
X0098037Y0021211D01*
X0099746Y0021918D01*
X0101053Y0023226D01*
X0101761Y0024934D01*
X0101761Y0026783D01*
X0101053Y0028492D01*
X0099746Y0029799D01*
X0098037Y0030507D01*
X0096188Y0030507D01*
X0095157Y0030080D01*
X0095157Y0037214D01*
X0094688Y0037682D01*
X0087947Y0037682D01*
X0086021Y0039608D01*
X0086021Y0098329D01*
X0087542Y0099850D01*
X0129201Y0099850D01*
X0132041Y0097009D01*
X0133201Y0097009D01*
X0136042Y0099850D01*
X0176951Y0099850D01*
X0179791Y0097009D01*
X0180951Y0097009D01*
X0183792Y0099850D01*
X0224701Y0099850D01*
X0227541Y0097009D01*
X0228701Y0097009D01*
X0231542Y0099850D01*
X0272701Y0099850D01*
X0275541Y0097009D01*
X0276701Y0097009D01*
X0279560Y0099868D01*
X0320469Y0100082D01*
X0323541Y0097009D01*
X0324701Y0097009D01*
X0327579Y0099887D01*
X0367237Y0100313D01*
X0370541Y0097009D01*
X0371701Y0097009D01*
X0375862Y0101170D01*
X0375862Y0102330D01*
X0371701Y0106490D01*
X0370541Y0106490D01*
X0372877Y0105315D02*
X0376378Y0105315D01*
X0374475Y0103716D02*
X0431058Y0103716D01*
X0431347Y0103926D02*
X0430704Y0103459D01*
X0430142Y0102897D01*
X0429675Y0102254D01*
X0429315Y0101547D01*
X0429069Y0100791D01*
X0428945Y0100006D01*
X0428945Y0099891D01*
X0433710Y0099891D01*
X0433710Y0099326D01*
X0428945Y0099326D01*
X0428945Y0099211D01*
X0429069Y0098427D01*
X0429315Y0097671D01*
X0429675Y0096963D01*
X0430142Y0096320D01*
X0430704Y0095758D01*
X0431347Y0095291D01*
X0432055Y0094931D01*
X0432811Y0094685D01*
X0433595Y0094561D01*
X0433710Y0094561D01*
X0433710Y0099326D01*
X0434275Y0099326D01*
X0434275Y0094561D01*
X0434390Y0094561D01*
X0435175Y0094685D01*
X0435931Y0094931D01*
X0436639Y0095291D01*
X0437281Y0095758D01*
X0437843Y0096320D01*
X0438310Y0096963D01*
X0438671Y0097671D01*
X0438916Y0098427D01*
X0439041Y0099211D01*
X0439041Y0099326D01*
X0434276Y0099326D01*
X0434276Y0099891D01*
X0439041Y0099891D01*
X0439041Y0100006D01*
X0438916Y0100791D01*
X0438671Y0101547D01*
X0438310Y0102254D01*
X0437843Y0102897D01*
X0437281Y0103459D01*
X0436639Y0103926D01*
X0435931Y0104287D01*
X0435175Y0104532D01*
X0434390Y0104657D01*
X0434275Y0104657D01*
X0434275Y0099891D01*
X0433710Y0099891D01*
X0433710Y0104657D01*
X0433595Y0104657D01*
X0432811Y0104532D01*
X0432055Y0104287D01*
X0431347Y0103926D01*
X0433710Y0103716D02*
X0434275Y0103716D01*
X0434275Y0102118D02*
X0433710Y0102118D01*
X0433710Y0100519D02*
X0434275Y0100519D01*
X0434275Y0098921D02*
X0433710Y0098921D01*
X0433710Y0097322D02*
X0434275Y0097322D01*
X0434275Y0095724D02*
X0433710Y0095724D01*
X0430752Y0095724D02*
X0368326Y0095724D01*
X0368791Y0095258D02*
X0364630Y0099419D01*
X0363470Y0099419D01*
X0359310Y0095258D01*
X0359310Y0094099D01*
X0363470Y0089938D01*
X0364630Y0089938D01*
X0368791Y0094099D01*
X0368791Y0095258D01*
X0368791Y0094125D02*
X0447760Y0094125D01*
X0447760Y0095388D02*
X0447760Y0088254D01*
X0448228Y0087785D01*
X0470938Y0087785D01*
X0471407Y0088254D01*
X0471407Y0110964D01*
X0470938Y0111432D01*
X0448228Y0111432D01*
X0447760Y0110964D01*
X0447760Y0103830D01*
X0446728Y0104257D01*
X0444879Y0104257D01*
X0443171Y0103549D01*
X0441863Y0102242D01*
X0441156Y0100533D01*
X0441156Y0098684D01*
X0441863Y0096976D01*
X0443171Y0095668D01*
X0444879Y0094961D01*
X0446728Y0094961D01*
X0447760Y0095388D01*
X0447760Y0092527D02*
X0367219Y0092527D01*
X0365621Y0090928D02*
X0447760Y0090928D01*
X0447760Y0089330D02*
X0314549Y0089330D01*
X0314733Y0088886D02*
X0314330Y0089860D01*
X0313584Y0090605D01*
X0312610Y0091009D01*
X0311556Y0091009D01*
X0310582Y0090605D01*
X0309837Y0089860D01*
X0309433Y0088886D01*
X0309433Y0087832D01*
X0309837Y0086858D01*
X0310183Y0086511D01*
X0310183Y0048956D01*
X0309837Y0048610D01*
X0309433Y0047636D01*
X0309433Y0046582D01*
X0309837Y0045608D01*
X0310582Y0044862D01*
X0311556Y0044459D01*
X0312610Y0044459D01*
X0313584Y0044862D01*
X0314330Y0045608D01*
X0314733Y0046582D01*
X0314733Y0047636D01*
X0314330Y0048610D01*
X0313983Y0048956D01*
X0313983Y0086511D01*
X0314330Y0086858D01*
X0314733Y0087832D01*
X0314733Y0088886D01*
X0314692Y0087731D02*
X0477368Y0087731D01*
X0477368Y0086133D02*
X0313983Y0086133D01*
X0313983Y0084534D02*
X0477368Y0084534D01*
X0477368Y0082936D02*
X0313983Y0082936D01*
X0313983Y0081337D02*
X0477368Y0081337D01*
X0477368Y0079739D02*
X0313983Y0079739D01*
X0313983Y0078140D02*
X0477368Y0078140D01*
X0477368Y0076542D02*
X0313983Y0076542D01*
X0313983Y0074943D02*
X0477368Y0074943D01*
X0477368Y0073345D02*
X0313983Y0073345D01*
X0313983Y0071746D02*
X0477368Y0071746D01*
X0477368Y0070148D02*
X0313983Y0070148D01*
X0313983Y0068549D02*
X0477368Y0068549D01*
X0477368Y0066951D02*
X0313983Y0066951D01*
X0313983Y0065352D02*
X0477368Y0065352D01*
X0477368Y0063754D02*
X0313983Y0063754D01*
X0313983Y0062155D02*
X0477368Y0062155D01*
X0477368Y0060557D02*
X0313983Y0060557D01*
X0313983Y0058958D02*
X0477368Y0058958D01*
X0477368Y0057360D02*
X0313983Y0057360D01*
X0313983Y0055761D02*
X0477368Y0055761D01*
X0477368Y0054163D02*
X0313983Y0054163D01*
X0313983Y0052564D02*
X0477368Y0052564D01*
X0477368Y0050966D02*
X0313983Y0050966D01*
X0313983Y0049367D02*
X0477368Y0049367D01*
X0477368Y0047769D02*
X0314678Y0047769D01*
X0314563Y0046170D02*
X0477368Y0046170D01*
X0477368Y0044572D02*
X0312883Y0044572D01*
X0311284Y0044572D02*
X0308983Y0044572D01*
X0308983Y0046170D02*
X0309604Y0046170D01*
X0309488Y0047769D02*
X0308983Y0047769D01*
X0308983Y0049367D02*
X0310183Y0049367D01*
X0310183Y0050966D02*
X0308983Y0050966D01*
X0308983Y0052564D02*
X0310183Y0052564D01*
X0310183Y0054163D02*
X0308983Y0054163D01*
X0308983Y0055761D02*
X0310183Y0055761D01*
X0310183Y0057360D02*
X0308983Y0057360D01*
X0308983Y0058958D02*
X0310183Y0058958D01*
X0310183Y0060557D02*
X0308983Y0060557D01*
X0308983Y0062155D02*
X0310183Y0062155D01*
X0310183Y0063754D02*
X0308983Y0063754D01*
X0308983Y0065352D02*
X0310183Y0065352D01*
X0310183Y0066951D02*
X0308983Y0066951D01*
X0308983Y0068549D02*
X0310183Y0068549D01*
X0310183Y0070148D02*
X0308983Y0070148D01*
X0308983Y0071746D02*
X0310183Y0071746D01*
X0310183Y0073345D02*
X0308983Y0073345D01*
X0308983Y0074011D02*
X0308983Y0041456D01*
X0309330Y0041110D01*
X0309733Y0040136D01*
X0309733Y0039082D01*
X0309330Y0038108D01*
X0308584Y0037362D01*
X0307610Y0036959D01*
X0306556Y0036959D01*
X0305582Y0037362D01*
X0304837Y0038108D01*
X0304433Y0039082D01*
X0304433Y0040136D01*
X0304837Y0041110D01*
X0305183Y0041456D01*
X0305183Y0074011D01*
X0304837Y0074358D01*
X0304433Y0075332D01*
X0304433Y0076386D01*
X0304837Y0077360D01*
X0305582Y0078105D01*
X0306556Y0078509D01*
X0307610Y0078509D01*
X0308584Y0078105D01*
X0309330Y0077360D01*
X0309733Y0076386D01*
X0309733Y0075332D01*
X0309330Y0074358D01*
X0308983Y0074011D01*
X0309572Y0074943D02*
X0310183Y0074943D01*
X0310183Y0076542D02*
X0309669Y0076542D01*
X0310183Y0078140D02*
X0308500Y0078140D01*
X0310183Y0079739D02*
X0221483Y0079739D01*
X0221483Y0081337D02*
X0310183Y0081337D01*
X0310183Y0082936D02*
X0221483Y0082936D01*
X0221483Y0084534D02*
X0310183Y0084534D01*
X0310183Y0086133D02*
X0221483Y0086133D01*
X0221483Y0086511D02*
X0221830Y0086858D01*
X0222233Y0087832D01*
X0222233Y0088886D01*
X0221830Y0089860D01*
X0221691Y0089999D01*
X0225791Y0094099D01*
X0225791Y0095258D01*
X0221630Y0099419D01*
X0220470Y0099419D01*
X0216310Y0095258D01*
X0216310Y0094099D01*
X0219400Y0091009D01*
X0219056Y0091009D01*
X0218082Y0090605D01*
X0217337Y0089860D01*
X0216933Y0088886D01*
X0216933Y0087832D01*
X0217337Y0086858D01*
X0217683Y0086511D01*
X0217683Y0048720D01*
X0217337Y0048374D01*
X0216933Y0047400D01*
X0216933Y0046345D01*
X0217337Y0045371D01*
X0218082Y0044626D01*
X0219056Y0044223D01*
X0220110Y0044223D01*
X0221084Y0044626D01*
X0221830Y0045371D01*
X0222233Y0046345D01*
X0222233Y0047400D01*
X0221830Y0048374D01*
X0221483Y0048720D01*
X0221483Y0086511D01*
X0222192Y0087731D02*
X0309475Y0087731D01*
X0309617Y0089330D02*
X0222049Y0089330D01*
X0222621Y0090928D02*
X0267480Y0090928D01*
X0268470Y0089938D02*
X0264310Y0094099D01*
X0264310Y0095258D01*
X0268470Y0099419D01*
X0269630Y0099419D01*
X0273791Y0095258D01*
X0273791Y0094099D01*
X0269630Y0089938D01*
X0268470Y0089938D01*
X0270621Y0090928D02*
X0311362Y0090928D01*
X0312805Y0090928D02*
X0315480Y0090928D01*
X0316470Y0089938D02*
X0312310Y0094099D01*
X0312310Y0095258D01*
X0316470Y0099419D01*
X0317630Y0099419D01*
X0321791Y0095258D01*
X0321791Y0094099D01*
X0317630Y0089938D01*
X0316470Y0089938D01*
X0318621Y0090928D02*
X0362480Y0090928D01*
X0360881Y0092527D02*
X0320219Y0092527D01*
X0321791Y0094125D02*
X0359310Y0094125D01*
X0359775Y0095724D02*
X0321326Y0095724D01*
X0319727Y0097322D02*
X0323228Y0097322D01*
X0325015Y0097322D02*
X0361374Y0097322D01*
X0362972Y0098921D02*
X0326613Y0098921D01*
X0321630Y0098921D02*
X0318129Y0098921D01*
X0315972Y0098921D02*
X0278613Y0098921D01*
X0277015Y0097322D02*
X0314374Y0097322D01*
X0312775Y0095724D02*
X0273326Y0095724D01*
X0273791Y0094125D02*
X0312310Y0094125D01*
X0313881Y0092527D02*
X0272219Y0092527D01*
X0265881Y0092527D02*
X0224219Y0092527D01*
X0225791Y0094125D02*
X0264310Y0094125D01*
X0264775Y0095724D02*
X0225326Y0095724D01*
X0223727Y0097322D02*
X0227228Y0097322D01*
X0229015Y0097322D02*
X0266374Y0097322D01*
X0267972Y0098921D02*
X0230613Y0098921D01*
X0225630Y0098921D02*
X0222129Y0098921D01*
X0219972Y0098921D02*
X0182863Y0098921D01*
X0181265Y0097322D02*
X0218374Y0097322D01*
X0216775Y0095724D02*
X0177576Y0095724D01*
X0178041Y0095258D02*
X0173880Y0099419D01*
X0172720Y0099419D01*
X0168560Y0095258D01*
X0168560Y0094099D01*
X0172720Y0089938D01*
X0173880Y0089938D01*
X0178041Y0094099D01*
X0178041Y0095258D01*
X0178041Y0094125D02*
X0216310Y0094125D01*
X0217881Y0092527D02*
X0176469Y0092527D01*
X0174871Y0090928D02*
X0218862Y0090928D01*
X0217117Y0089330D02*
X0120233Y0089330D01*
X0120233Y0090261D02*
X0120233Y0047706D01*
X0120580Y0047360D01*
X0120983Y0046386D01*
X0120983Y0045332D01*
X0120580Y0044358D01*
X0119834Y0043612D01*
X0118860Y0043209D01*
X0117806Y0043209D01*
X0116832Y0043612D01*
X0116087Y0044358D01*
X0115683Y0045332D01*
X0115683Y0046386D01*
X0116087Y0047360D01*
X0116433Y0047706D01*
X0116433Y0090261D01*
X0116087Y0090608D01*
X0115683Y0091582D01*
X0115683Y0092636D01*
X0116087Y0093610D01*
X0116832Y0094355D01*
X0117806Y0094759D01*
X0118860Y0094759D01*
X0119834Y0094355D01*
X0120580Y0093610D01*
X0120983Y0092636D01*
X0120983Y0091582D01*
X0120580Y0090608D01*
X0120233Y0090261D01*
X0120713Y0090928D02*
X0123980Y0090928D01*
X0124970Y0089938D02*
X0126130Y0089938D01*
X0130291Y0094099D01*
X0130291Y0095258D01*
X0126130Y0099419D01*
X0124970Y0099419D01*
X0120810Y0095258D01*
X0120810Y0094099D01*
X0124970Y0089938D01*
X0127121Y0090928D02*
X0171730Y0090928D01*
X0170131Y0092527D02*
X0128719Y0092527D01*
X0130291Y0094125D02*
X0168560Y0094125D01*
X0169025Y0095724D02*
X0129826Y0095724D01*
X0128227Y0097322D02*
X0131728Y0097322D01*
X0133515Y0097322D02*
X0170624Y0097322D01*
X0172222Y0098921D02*
X0135113Y0098921D01*
X0130130Y0098921D02*
X0126629Y0098921D01*
X0124472Y0098921D02*
X0086613Y0098921D01*
X0086021Y0097322D02*
X0122874Y0097322D01*
X0121275Y0095724D02*
X0086021Y0095724D01*
X0086021Y0094125D02*
X0116602Y0094125D01*
X0115683Y0092527D02*
X0086021Y0092527D01*
X0086021Y0090928D02*
X0115954Y0090928D01*
X0116433Y0089330D02*
X0086021Y0089330D01*
X0086021Y0087731D02*
X0116433Y0087731D01*
X0116433Y0086133D02*
X0086021Y0086133D01*
X0086021Y0084534D02*
X0116433Y0084534D01*
X0116433Y0082936D02*
X0086021Y0082936D01*
X0086021Y0081337D02*
X0116433Y0081337D01*
X0116433Y0079739D02*
X0086021Y0079739D01*
X0086021Y0078140D02*
X0116433Y0078140D01*
X0116433Y0076542D02*
X0086021Y0076542D01*
X0086021Y0074943D02*
X0111170Y0074943D01*
X0111087Y0074860D02*
X0110683Y0073886D01*
X0110683Y0072832D01*
X0111087Y0071858D01*
X0111433Y0071512D01*
X0111424Y0041467D01*
X0111077Y0041120D01*
X0110673Y0040146D01*
X0110673Y0039091D01*
X0111077Y0038117D01*
X0111822Y0037372D01*
X0112796Y0036969D01*
X0113851Y0036969D01*
X0114825Y0037372D01*
X0115570Y0038117D01*
X0115973Y0039091D01*
X0115973Y0040146D01*
X0115570Y0041120D01*
X0115224Y0041466D01*
X0115233Y0071511D01*
X0115580Y0071858D01*
X0115983Y0072832D01*
X0115983Y0073886D01*
X0115580Y0074860D01*
X0114834Y0075605D01*
X0113860Y0076009D01*
X0112806Y0076009D01*
X0111832Y0075605D01*
X0111087Y0074860D01*
X0110683Y0073345D02*
X0086021Y0073345D01*
X0086021Y0071746D02*
X0111198Y0071746D01*
X0111432Y0070148D02*
X0086021Y0070148D01*
X0086021Y0068549D02*
X0111432Y0068549D01*
X0111431Y0066951D02*
X0086021Y0066951D01*
X0086021Y0065352D02*
X0111431Y0065352D01*
X0111431Y0063754D02*
X0086021Y0063754D01*
X0086021Y0062155D02*
X0111430Y0062155D01*
X0111430Y0060557D02*
X0086021Y0060557D01*
X0086021Y0058958D02*
X0111429Y0058958D01*
X0111429Y0057360D02*
X0086021Y0057360D01*
X0086021Y0055761D02*
X0111428Y0055761D01*
X0111428Y0054163D02*
X0086021Y0054163D01*
X0086021Y0052564D02*
X0111427Y0052564D01*
X0111427Y0050966D02*
X0086021Y0050966D01*
X0086021Y0049367D02*
X0111426Y0049367D01*
X0111426Y0047769D02*
X0086021Y0047769D01*
X0086021Y0046170D02*
X0111425Y0046170D01*
X0111425Y0044572D02*
X0086021Y0044572D01*
X0086021Y0042973D02*
X0111424Y0042973D01*
X0111332Y0041375D02*
X0086021Y0041375D01*
X0086021Y0039776D02*
X0110673Y0039776D01*
X0111052Y0038177D02*
X0087452Y0038177D01*
X0082221Y0038177D02*
X0058883Y0038177D01*
X0058883Y0036579D02*
X0071510Y0036579D01*
X0071510Y0034980D02*
X0058883Y0034980D01*
X0058883Y0033382D02*
X0071510Y0033382D01*
X0071510Y0031783D02*
X0058883Y0031783D01*
X0058883Y0030185D02*
X0061947Y0030185D01*
X0062724Y0030507D02*
X0061015Y0029799D01*
X0059708Y0028492D01*
X0059000Y0026783D01*
X0059000Y0024934D01*
X0059708Y0023226D01*
X0061015Y0021918D01*
X0062724Y0021211D01*
X0064573Y0021211D01*
X0066281Y0021918D01*
X0067589Y0023226D01*
X0068296Y0024934D01*
X0068296Y0026783D01*
X0067589Y0028492D01*
X0066281Y0029799D01*
X0064573Y0030507D01*
X0062724Y0030507D01*
X0065350Y0030185D02*
X0071510Y0030185D01*
X0071510Y0028586D02*
X0067494Y0028586D01*
X0068212Y0026988D02*
X0071510Y0026988D01*
X0071510Y0025389D02*
X0068296Y0025389D01*
X0067823Y0023791D02*
X0071510Y0023791D01*
X0071510Y0022192D02*
X0066555Y0022192D01*
X0071510Y0020594D02*
X0058883Y0020594D01*
X0058883Y0022192D02*
X0060741Y0022192D01*
X0059474Y0023791D02*
X0058883Y0023791D01*
X0058883Y0025389D02*
X0059000Y0025389D01*
X0059085Y0026988D02*
X0058883Y0026988D01*
X0058883Y0028586D02*
X0059803Y0028586D01*
X0058883Y0018995D02*
X0071510Y0018995D01*
X0071510Y0017397D02*
X0058883Y0017397D01*
X0058883Y0015798D02*
X0071510Y0015798D01*
X0071814Y0014200D02*
X0058883Y0014200D01*
X0058883Y0012601D02*
X0093828Y0012601D01*
X0093183Y0011003D02*
X0058883Y0011003D01*
X0058883Y0009404D02*
X0093567Y0009404D01*
X0094853Y0014200D02*
X0166351Y0014200D01*
X0164752Y0015798D02*
X0095157Y0015798D01*
X0095157Y0017397D02*
X0164234Y0017397D01*
X0165752Y0018995D02*
X0095157Y0018995D01*
X0095157Y0020594D02*
X0167351Y0020594D01*
X0170598Y0020594D02*
X0215851Y0020594D01*
X0214252Y0018995D02*
X0172196Y0018995D01*
X0170329Y0022809D02*
X0130329Y0022809D01*
X0128838Y0022809D01*
X0127783Y0023863D01*
X0127783Y0035354D01*
X0128838Y0036409D01*
X0170329Y0036409D01*
X0171383Y0035354D01*
X0171383Y0023863D01*
X0170329Y0022809D01*
X0171311Y0023791D02*
X0477368Y0023791D01*
X0477368Y0025389D02*
X0171383Y0025389D01*
X0171383Y0026988D02*
X0181847Y0026988D01*
X0182536Y0026298D02*
X0183696Y0026298D01*
X0187857Y0030459D01*
X0187857Y0031619D01*
X0183696Y0035780D01*
X0182536Y0035780D01*
X0178376Y0031619D01*
X0178376Y0030459D01*
X0182536Y0026298D01*
X0184386Y0026988D02*
X0230347Y0026988D01*
X0231036Y0026298D02*
X0232196Y0026298D01*
X0236357Y0030459D01*
X0236357Y0031619D01*
X0232196Y0035780D01*
X0231036Y0035780D01*
X0226876Y0031619D01*
X0226876Y0030459D01*
X0231036Y0026298D01*
X0232886Y0026988D02*
X0278097Y0026988D01*
X0278786Y0026298D02*
X0279946Y0026298D01*
X0284107Y0030459D01*
X0284107Y0031619D01*
X0279946Y0035780D01*
X0278786Y0035780D01*
X0274626Y0031619D01*
X0274626Y0030459D01*
X0278786Y0026298D01*
X0280636Y0026988D02*
X0325847Y0026988D01*
X0326536Y0026298D02*
X0327696Y0026298D01*
X0331857Y0030459D01*
X0331857Y0031619D01*
X0327696Y0035780D01*
X0326536Y0035780D01*
X0322376Y0031619D01*
X0322376Y0030459D01*
X0326536Y0026298D01*
X0328386Y0026988D02*
X0373847Y0026988D01*
X0374536Y0026298D02*
X0375696Y0026298D01*
X0379857Y0030459D01*
X0379857Y0031619D01*
X0375696Y0035780D01*
X0374536Y0035780D01*
X0370376Y0031619D01*
X0370376Y0030459D01*
X0374536Y0026298D01*
X0376386Y0026988D02*
X0421847Y0026988D01*
X0422536Y0026298D02*
X0423696Y0026298D01*
X0427857Y0030459D01*
X0427857Y0031619D01*
X0423696Y0035780D01*
X0422536Y0035780D01*
X0418376Y0031619D01*
X0418376Y0030459D01*
X0422536Y0026298D01*
X0424386Y0026988D02*
X0468847Y0026988D01*
X0469536Y0026298D02*
X0470696Y0026298D01*
X0474857Y0030459D01*
X0474857Y0031619D01*
X0470696Y0035780D01*
X0469536Y0035780D01*
X0465376Y0031619D01*
X0465376Y0030459D01*
X0469536Y0026298D01*
X0471386Y0026988D02*
X0477368Y0026988D01*
X0477368Y0028586D02*
X0472984Y0028586D01*
X0474583Y0030185D02*
X0477368Y0030185D01*
X0477368Y0031783D02*
X0474692Y0031783D01*
X0473094Y0033382D02*
X0477368Y0033382D01*
X0477368Y0034980D02*
X0471495Y0034980D01*
X0468737Y0034980D02*
X0424495Y0034980D01*
X0426094Y0033382D02*
X0467139Y0033382D01*
X0465540Y0031783D02*
X0427692Y0031783D01*
X0427583Y0030185D02*
X0465650Y0030185D01*
X0467248Y0028586D02*
X0425984Y0028586D01*
X0420248Y0028586D02*
X0377984Y0028586D01*
X0379583Y0030185D02*
X0418650Y0030185D01*
X0418540Y0031783D02*
X0379692Y0031783D01*
X0378094Y0033382D02*
X0420139Y0033382D01*
X0421737Y0034980D02*
X0376495Y0034980D01*
X0373737Y0034980D02*
X0328495Y0034980D01*
X0330094Y0033382D02*
X0372139Y0033382D01*
X0370540Y0031783D02*
X0331692Y0031783D01*
X0331583Y0030185D02*
X0370650Y0030185D01*
X0372248Y0028586D02*
X0329984Y0028586D01*
X0324248Y0028586D02*
X0282234Y0028586D01*
X0283833Y0030185D02*
X0322650Y0030185D01*
X0322540Y0031783D02*
X0283942Y0031783D01*
X0282344Y0033382D02*
X0324139Y0033382D01*
X0325737Y0034980D02*
X0280745Y0034980D01*
X0277987Y0034980D02*
X0232995Y0034980D01*
X0234594Y0033382D02*
X0276389Y0033382D01*
X0274790Y0031783D02*
X0236192Y0031783D01*
X0236083Y0030185D02*
X0274900Y0030185D01*
X0276498Y0028586D02*
X0234484Y0028586D01*
X0228748Y0028586D02*
X0185984Y0028586D01*
X0187583Y0030185D02*
X0227150Y0030185D01*
X0227040Y0031783D02*
X0187692Y0031783D01*
X0186094Y0033382D02*
X0228639Y0033382D01*
X0230237Y0034980D02*
X0184495Y0034980D01*
X0181737Y0034980D02*
X0171383Y0034980D01*
X0171383Y0033382D02*
X0180139Y0033382D01*
X0178540Y0031783D02*
X0171383Y0031783D01*
X0171383Y0030185D02*
X0178650Y0030185D01*
X0180248Y0028586D02*
X0171383Y0028586D01*
X0208183Y0039082D02*
X0208587Y0038108D01*
X0209332Y0037362D01*
X0210306Y0036959D01*
X0211360Y0036959D01*
X0212334Y0037362D01*
X0213080Y0038108D01*
X0213483Y0039082D01*
X0213483Y0040136D01*
X0213080Y0041110D01*
X0212733Y0041456D01*
X0212733Y0071531D01*
X0213070Y0071867D01*
X0213473Y0072841D01*
X0213473Y0073896D01*
X0213070Y0074870D01*
X0212325Y0075615D01*
X0211351Y0076019D01*
X0210296Y0076019D01*
X0209322Y0075615D01*
X0208577Y0074870D01*
X0208173Y0073896D01*
X0208173Y0072841D01*
X0208577Y0071867D01*
X0208933Y0071511D01*
X0208933Y0041456D01*
X0208587Y0041110D01*
X0208183Y0040136D01*
X0208183Y0039082D01*
X0208183Y0039776D02*
X0115973Y0039776D01*
X0115595Y0038177D02*
X0208558Y0038177D01*
X0208851Y0041375D02*
X0115315Y0041375D01*
X0115224Y0042973D02*
X0208933Y0042973D01*
X0208933Y0044572D02*
X0120668Y0044572D01*
X0120983Y0046170D02*
X0208933Y0046170D01*
X0208933Y0047769D02*
X0120233Y0047769D01*
X0120233Y0049367D02*
X0208933Y0049367D01*
X0208933Y0050966D02*
X0120233Y0050966D01*
X0120233Y0052564D02*
X0208933Y0052564D01*
X0208933Y0054163D02*
X0120233Y0054163D01*
X0120233Y0055761D02*
X0208933Y0055761D01*
X0208933Y0057360D02*
X0120233Y0057360D01*
X0120233Y0058958D02*
X0208933Y0058958D01*
X0208933Y0060557D02*
X0120233Y0060557D01*
X0120233Y0062155D02*
X0208933Y0062155D01*
X0208933Y0063754D02*
X0120233Y0063754D01*
X0120233Y0065352D02*
X0208933Y0065352D01*
X0208933Y0066951D02*
X0120233Y0066951D01*
X0120233Y0068549D02*
X0208933Y0068549D01*
X0208933Y0070148D02*
X0120233Y0070148D01*
X0120233Y0071746D02*
X0208698Y0071746D01*
X0208173Y0073345D02*
X0120233Y0073345D01*
X0120233Y0074943D02*
X0208650Y0074943D01*
X0212996Y0074943D02*
X0217683Y0074943D01*
X0217683Y0073345D02*
X0213473Y0073345D01*
X0212949Y0071746D02*
X0217683Y0071746D01*
X0217683Y0070148D02*
X0212733Y0070148D01*
X0212733Y0068549D02*
X0217683Y0068549D01*
X0217683Y0066951D02*
X0212733Y0066951D01*
X0212733Y0065352D02*
X0217683Y0065352D01*
X0217683Y0063754D02*
X0212733Y0063754D01*
X0212733Y0062155D02*
X0217683Y0062155D01*
X0217683Y0060557D02*
X0212733Y0060557D01*
X0212733Y0058958D02*
X0217683Y0058958D01*
X0217683Y0057360D02*
X0212733Y0057360D01*
X0212733Y0055761D02*
X0217683Y0055761D01*
X0217683Y0054163D02*
X0212733Y0054163D01*
X0212733Y0052564D02*
X0217683Y0052564D01*
X0217683Y0050966D02*
X0212733Y0050966D01*
X0212733Y0049367D02*
X0217683Y0049367D01*
X0217086Y0047769D02*
X0212733Y0047769D01*
X0212733Y0046170D02*
X0217006Y0046170D01*
X0218214Y0044572D02*
X0212733Y0044572D01*
X0212733Y0042973D02*
X0305183Y0042973D01*
X0305183Y0044572D02*
X0220953Y0044572D01*
X0222161Y0046170D02*
X0305183Y0046170D01*
X0305183Y0047769D02*
X0222081Y0047769D01*
X0221483Y0049367D02*
X0305183Y0049367D01*
X0305183Y0050966D02*
X0221483Y0050966D01*
X0221483Y0052564D02*
X0305183Y0052564D01*
X0305183Y0054163D02*
X0221483Y0054163D01*
X0221483Y0055761D02*
X0305183Y0055761D01*
X0305183Y0057360D02*
X0221483Y0057360D01*
X0221483Y0058958D02*
X0305183Y0058958D01*
X0305183Y0060557D02*
X0221483Y0060557D01*
X0221483Y0062155D02*
X0305183Y0062155D01*
X0305183Y0063754D02*
X0221483Y0063754D01*
X0221483Y0065352D02*
X0305183Y0065352D01*
X0305183Y0066951D02*
X0221483Y0066951D01*
X0221483Y0068549D02*
X0305183Y0068549D01*
X0305183Y0070148D02*
X0221483Y0070148D01*
X0221483Y0071746D02*
X0305183Y0071746D01*
X0305183Y0073345D02*
X0221483Y0073345D01*
X0221483Y0074943D02*
X0304594Y0074943D01*
X0304498Y0076542D02*
X0221483Y0076542D01*
X0221483Y0078140D02*
X0305667Y0078140D01*
X0275228Y0097322D02*
X0271727Y0097322D01*
X0270129Y0098921D02*
X0273630Y0098921D01*
X0272768Y0103716D02*
X0231475Y0103716D01*
X0229877Y0105315D02*
X0233378Y0105315D01*
X0234613Y0104080D02*
X0235772Y0104080D01*
X0239933Y0108241D01*
X0239933Y0109401D01*
X0235772Y0113561D01*
X0234613Y0113561D01*
X0230452Y0109401D01*
X0230452Y0108241D01*
X0234613Y0104080D01*
X0237007Y0105315D02*
X0274366Y0105315D01*
X0277877Y0105315D02*
X0281378Y0105315D01*
X0282613Y0104080D02*
X0278452Y0108241D01*
X0278452Y0109401D01*
X0282613Y0113561D01*
X0283772Y0113561D01*
X0287933Y0109401D01*
X0287933Y0108241D01*
X0283772Y0104080D01*
X0282613Y0104080D01*
X0285007Y0105315D02*
X0322366Y0105315D01*
X0325877Y0105315D02*
X0329378Y0105315D01*
X0330328Y0103716D02*
X0327475Y0103716D01*
X0327779Y0106913D02*
X0286606Y0106913D01*
X0287933Y0108512D02*
X0326452Y0108512D01*
X0327162Y0110110D02*
X0287223Y0110110D01*
X0288560Y0111709D02*
X0285625Y0111709D01*
X0286961Y0113308D02*
X0284026Y0113308D01*
X0282359Y0113308D02*
X0245566Y0113308D01*
X0245207Y0112949D02*
X0243369Y0111111D01*
X0242958Y0110874D01*
X0242501Y0110751D01*
X0242027Y0110751D01*
X0241569Y0110874D01*
X0241158Y0111111D01*
X0239320Y0112949D01*
X0242263Y0115892D01*
X0242264Y0115892D02*
X0242264Y0115892D01*
X0245207Y0112949D01*
X0244848Y0113308D02*
X0244848Y0113308D01*
X0243967Y0111709D02*
X0280760Y0111709D01*
X0279162Y0110110D02*
X0239223Y0110110D01*
X0239933Y0108512D02*
X0278452Y0108512D01*
X0279779Y0106913D02*
X0238606Y0106913D01*
X0231779Y0106913D02*
X0190856Y0106913D01*
X0192183Y0108241D02*
X0192183Y0109401D01*
X0188022Y0113561D01*
X0186863Y0113561D01*
X0182702Y0109401D01*
X0182702Y0108241D01*
X0186863Y0104080D01*
X0188022Y0104080D01*
X0192183Y0108241D01*
X0192183Y0108512D02*
X0230452Y0108512D01*
X0231162Y0110110D02*
X0191473Y0110110D01*
X0192810Y0111709D02*
X0189875Y0111709D01*
X0191211Y0113308D02*
X0188276Y0113308D01*
X0186609Y0113308D02*
X0150066Y0113308D01*
X0149707Y0112949D02*
X0146764Y0115892D01*
X0146764Y0115892D01*
X0146763Y0115892D02*
X0143820Y0112949D01*
X0145658Y0111111D01*
X0146069Y0110874D01*
X0146527Y0110751D01*
X0147001Y0110751D01*
X0147458Y0110874D01*
X0147869Y0111111D01*
X0149707Y0112949D01*
X0149348Y0113308D02*
X0149348Y0113308D01*
X0148467Y0111709D02*
X0185010Y0111709D01*
X0183412Y0110110D02*
X0143723Y0110110D01*
X0144433Y0109401D02*
X0140272Y0113561D01*
X0139113Y0113561D01*
X0134952Y0109401D01*
X0134952Y0108241D01*
X0139113Y0104080D01*
X0140272Y0104080D01*
X0144433Y0108241D01*
X0144433Y0109401D01*
X0144433Y0108512D02*
X0182702Y0108512D01*
X0184029Y0106913D02*
X0143106Y0106913D01*
X0141507Y0105315D02*
X0178616Y0105315D01*
X0177018Y0103716D02*
X0135975Y0103716D01*
X0134377Y0105315D02*
X0137878Y0105315D01*
X0136279Y0106913D02*
X0094606Y0106913D01*
X0095933Y0108241D02*
X0095933Y0109401D01*
X0091772Y0113561D01*
X0090613Y0113561D01*
X0086452Y0109401D01*
X0086452Y0108241D01*
X0090613Y0104080D01*
X0091772Y0104080D01*
X0095933Y0108241D01*
X0095933Y0108512D02*
X0134952Y0108512D01*
X0135662Y0110110D02*
X0095223Y0110110D01*
X0096560Y0111709D02*
X0093625Y0111709D01*
X0094961Y0113308D02*
X0092026Y0113308D01*
X0090359Y0113308D02*
X0058883Y0113308D01*
X0058883Y0114906D02*
X0093413Y0114906D01*
X0093224Y0116505D02*
X0058883Y0116505D01*
X0058883Y0118103D02*
X0094589Y0118103D01*
X0096052Y0118103D02*
X0096052Y0118103D01*
X0097651Y0116505D02*
X0097651Y0116505D01*
X0098263Y0115892D02*
X0095320Y0112949D01*
X0097158Y0111111D01*
X0097569Y0110874D01*
X0098027Y0110751D01*
X0098501Y0110751D01*
X0098958Y0110874D01*
X0099369Y0111111D01*
X0101207Y0112949D01*
X0098264Y0115892D01*
X0098264Y0115892D01*
X0098876Y0116505D02*
X0098876Y0116505D01*
X0099249Y0114906D02*
X0099249Y0114906D01*
X0097278Y0114906D02*
X0097278Y0114906D01*
X0095679Y0113308D02*
X0095679Y0113308D01*
X0099967Y0111709D02*
X0137260Y0111709D01*
X0138859Y0113308D02*
X0101566Y0113308D01*
X0100848Y0113308D02*
X0100848Y0113308D01*
X0103114Y0114906D02*
X0141913Y0114906D01*
X0141724Y0116505D02*
X0103303Y0116505D01*
X0101938Y0118103D02*
X0143089Y0118103D01*
X0144552Y0118103D02*
X0144552Y0118103D01*
X0146151Y0116505D02*
X0146151Y0116505D01*
X0147376Y0116505D02*
X0147376Y0116505D01*
X0147749Y0114906D02*
X0147749Y0114906D01*
X0145778Y0114906D02*
X0145778Y0114906D01*
X0144179Y0113308D02*
X0144179Y0113308D01*
X0143461Y0113308D02*
X0140526Y0113308D01*
X0142125Y0111709D02*
X0145060Y0111709D01*
X0151614Y0114906D02*
X0189663Y0114906D01*
X0189474Y0116505D02*
X0151803Y0116505D01*
X0150438Y0118103D02*
X0190839Y0118103D01*
X0192302Y0118103D02*
X0192302Y0118103D01*
X0193901Y0116505D02*
X0193901Y0116505D01*
X0194513Y0115892D02*
X0191570Y0112949D01*
X0193408Y0111111D01*
X0193819Y0110874D01*
X0194277Y0110751D01*
X0194751Y0110751D01*
X0195208Y0110874D01*
X0195619Y0111111D01*
X0197457Y0112949D01*
X0194514Y0115892D01*
X0194514Y0115892D01*
X0195126Y0116505D02*
X0195126Y0116505D01*
X0195499Y0114906D02*
X0195499Y0114906D01*
X0193528Y0114906D02*
X0193528Y0114906D01*
X0191929Y0113308D02*
X0191929Y0113308D01*
X0196217Y0111709D02*
X0232760Y0111709D01*
X0234359Y0113308D02*
X0197816Y0113308D01*
X0197098Y0113308D02*
X0197098Y0113308D01*
X0199364Y0114906D02*
X0237413Y0114906D01*
X0237224Y0116505D02*
X0199553Y0116505D01*
X0198188Y0118103D02*
X0238589Y0118103D01*
X0240052Y0118103D02*
X0240052Y0118103D01*
X0241651Y0116505D02*
X0241651Y0116505D01*
X0242876Y0116505D02*
X0242876Y0116505D01*
X0243249Y0114906D02*
X0243249Y0114906D01*
X0241278Y0114906D02*
X0241278Y0114906D01*
X0239679Y0113308D02*
X0239679Y0113308D01*
X0238961Y0113308D02*
X0236026Y0113308D01*
X0237625Y0111709D02*
X0240560Y0111709D01*
X0247114Y0114906D02*
X0285413Y0114906D01*
X0285224Y0116505D02*
X0247303Y0116505D01*
X0245938Y0118103D02*
X0286589Y0118103D01*
X0288052Y0118103D02*
X0288052Y0118103D01*
X0289651Y0116505D02*
X0289651Y0116505D01*
X0290263Y0115892D02*
X0287320Y0112949D01*
X0289158Y0111111D01*
X0289569Y0110874D01*
X0290027Y0110751D01*
X0290501Y0110751D01*
X0290958Y0110874D01*
X0291369Y0111111D01*
X0293207Y0112949D01*
X0290264Y0115892D01*
X0290264Y0115892D01*
X0290876Y0116505D02*
X0290876Y0116505D01*
X0291249Y0114906D02*
X0291249Y0114906D01*
X0289278Y0114906D02*
X0289278Y0114906D01*
X0287679Y0113308D02*
X0287679Y0113308D01*
X0291967Y0111709D02*
X0328760Y0111709D01*
X0330359Y0113308D02*
X0293566Y0113308D01*
X0292848Y0113308D02*
X0292848Y0113308D01*
X0295114Y0114906D02*
X0333413Y0114906D01*
X0333224Y0116505D02*
X0295303Y0116505D01*
X0293938Y0118103D02*
X0334589Y0118103D01*
X0336052Y0118103D02*
X0336052Y0118103D01*
X0337651Y0116505D02*
X0337651Y0116505D01*
X0338876Y0116505D02*
X0338876Y0116505D01*
X0339249Y0114906D02*
X0339249Y0114906D01*
X0337278Y0114906D02*
X0337278Y0114906D01*
X0335679Y0113308D02*
X0335679Y0113308D01*
X0334961Y0113308D02*
X0332026Y0113308D01*
X0333625Y0111709D02*
X0336560Y0111709D01*
X0343114Y0114906D02*
X0380413Y0114906D01*
X0380224Y0116505D02*
X0343303Y0116505D01*
X0341938Y0118103D02*
X0381589Y0118103D01*
X0383052Y0118103D02*
X0383052Y0118103D01*
X0383560Y0111709D02*
X0380625Y0111709D01*
X0382223Y0110110D02*
X0447760Y0110110D01*
X0447760Y0108512D02*
X0382933Y0108512D01*
X0381606Y0106913D02*
X0447760Y0106913D01*
X0447760Y0105315D02*
X0380007Y0105315D01*
X0375862Y0102118D02*
X0429606Y0102118D01*
X0429026Y0100519D02*
X0375212Y0100519D01*
X0373613Y0098921D02*
X0428991Y0098921D01*
X0429492Y0097322D02*
X0372015Y0097322D01*
X0370228Y0097322D02*
X0366727Y0097322D01*
X0365129Y0098921D02*
X0368630Y0098921D01*
X0340475Y0118103D02*
X0340475Y0118103D01*
X0292475Y0118103D02*
X0292475Y0118103D01*
X0288884Y0103716D02*
X0279475Y0103716D01*
X0244475Y0118103D02*
X0244475Y0118103D01*
X0226366Y0105315D02*
X0189257Y0105315D01*
X0185628Y0105315D02*
X0182127Y0105315D01*
X0183725Y0103716D02*
X0224768Y0103716D01*
X0216975Y0087731D02*
X0120233Y0087731D01*
X0120233Y0086133D02*
X0217683Y0086133D01*
X0217683Y0084534D02*
X0120233Y0084534D01*
X0120233Y0082936D02*
X0217683Y0082936D01*
X0217683Y0081337D02*
X0120233Y0081337D01*
X0120233Y0079739D02*
X0217683Y0079739D01*
X0217683Y0078140D02*
X0120233Y0078140D01*
X0120233Y0076542D02*
X0217683Y0076542D01*
X0179478Y0097322D02*
X0175977Y0097322D01*
X0174379Y0098921D02*
X0177880Y0098921D01*
X0196725Y0118103D02*
X0196725Y0118103D01*
X0148975Y0118103D02*
X0148975Y0118103D01*
X0130866Y0105315D02*
X0093007Y0105315D01*
X0089378Y0105315D02*
X0085877Y0105315D01*
X0087475Y0103716D02*
X0129268Y0103716D01*
X0120810Y0094125D02*
X0120064Y0094125D01*
X0120983Y0092527D02*
X0122381Y0092527D01*
X0087779Y0106913D02*
X0058883Y0106913D01*
X0058883Y0105315D02*
X0082366Y0105315D01*
X0080768Y0103716D02*
X0058883Y0103716D01*
X0058883Y0102118D02*
X0079381Y0102118D01*
X0080031Y0100519D02*
X0058883Y0100519D01*
X0058883Y0098921D02*
X0075972Y0098921D01*
X0076470Y0099419D02*
X0072310Y0095258D01*
X0072310Y0094099D01*
X0076470Y0089938D01*
X0077630Y0089938D01*
X0081791Y0094099D01*
X0081791Y0095258D01*
X0077630Y0099419D01*
X0076470Y0099419D01*
X0078129Y0098921D02*
X0081630Y0098921D01*
X0082221Y0097322D02*
X0079727Y0097322D01*
X0081326Y0095724D02*
X0082221Y0095724D01*
X0082221Y0094125D02*
X0081791Y0094125D01*
X0082221Y0092527D02*
X0080219Y0092527D01*
X0078621Y0090928D02*
X0082221Y0090928D01*
X0082221Y0089330D02*
X0058883Y0089330D01*
X0058883Y0090928D02*
X0075480Y0090928D01*
X0073881Y0092527D02*
X0058883Y0092527D01*
X0058883Y0094125D02*
X0072310Y0094125D01*
X0072775Y0095724D02*
X0058883Y0095724D01*
X0058883Y0097322D02*
X0074374Y0097322D01*
X0082221Y0087731D02*
X0058883Y0087731D01*
X0058883Y0086133D02*
X0082221Y0086133D01*
X0082221Y0084534D02*
X0058883Y0084534D01*
X0058883Y0082936D02*
X0082221Y0082936D01*
X0082221Y0081337D02*
X0058883Y0081337D01*
X0058883Y0079739D02*
X0082221Y0079739D01*
X0082221Y0078140D02*
X0058883Y0078140D01*
X0058883Y0076542D02*
X0082221Y0076542D01*
X0082221Y0074943D02*
X0058883Y0074943D01*
X0058883Y0073345D02*
X0082221Y0073345D01*
X0082221Y0071746D02*
X0058883Y0071746D01*
X0058883Y0070148D02*
X0082221Y0070148D01*
X0082221Y0068549D02*
X0058883Y0068549D01*
X0058883Y0066951D02*
X0082221Y0066951D01*
X0082221Y0065352D02*
X0058883Y0065352D01*
X0058883Y0063754D02*
X0082221Y0063754D01*
X0082221Y0062155D02*
X0058883Y0062155D01*
X0058883Y0060557D02*
X0082221Y0060557D01*
X0082221Y0058958D02*
X0058883Y0058958D01*
X0058883Y0057360D02*
X0082221Y0057360D01*
X0082221Y0055761D02*
X0058883Y0055761D01*
X0058883Y0054163D02*
X0082221Y0054163D01*
X0082221Y0052564D02*
X0058883Y0052564D01*
X0058883Y0050966D02*
X0082221Y0050966D01*
X0082221Y0049367D02*
X0058883Y0049367D01*
X0058883Y0047769D02*
X0082221Y0047769D01*
X0082221Y0046170D02*
X0058883Y0046170D01*
X0058883Y0044572D02*
X0082221Y0044572D01*
X0082221Y0042973D02*
X0058883Y0042973D01*
X0058883Y0041375D02*
X0082221Y0041375D01*
X0082221Y0039776D02*
X0058883Y0039776D01*
X0095157Y0036579D02*
X0477368Y0036579D01*
X0477368Y0038177D02*
X0309359Y0038177D01*
X0309733Y0039776D02*
X0477368Y0039776D01*
X0477368Y0041375D02*
X0309065Y0041375D01*
X0308983Y0042973D02*
X0477368Y0042973D01*
X0477368Y0022192D02*
X0112396Y0022192D01*
X0112212Y0022008D02*
X0112774Y0022570D01*
X0113241Y0023213D01*
X0113602Y0023921D01*
X0113848Y0024677D01*
X0113972Y0025461D01*
X0113972Y0025576D01*
X0109207Y0025576D01*
X0109207Y0026141D01*
X0113972Y0026141D01*
X0113972Y0026256D01*
X0113848Y0027041D01*
X0113602Y0027797D01*
X0113241Y0028504D01*
X0112774Y0029147D01*
X0112212Y0029709D01*
X0111570Y0030176D01*
X0110862Y0030537D01*
X0110106Y0030782D01*
X0109321Y0030907D01*
X0109207Y0030907D01*
X0109207Y0026141D01*
X0108641Y0026141D01*
X0108641Y0025576D01*
X0103876Y0025576D01*
X0103876Y0025461D01*
X0104000Y0024677D01*
X0104246Y0023921D01*
X0104606Y0023213D01*
X0105073Y0022570D01*
X0105635Y0022008D01*
X0106278Y0021541D01*
X0106986Y0021181D01*
X0107742Y0020935D01*
X0108527Y0020811D01*
X0108641Y0020811D01*
X0108641Y0025576D01*
X0109207Y0025576D01*
X0109207Y0020811D01*
X0109321Y0020811D01*
X0110106Y0020935D01*
X0110862Y0021181D01*
X0111570Y0021541D01*
X0112212Y0022008D01*
X0113536Y0023791D02*
X0127856Y0023791D01*
X0127783Y0025389D02*
X0113960Y0025389D01*
X0113856Y0026988D02*
X0127783Y0026988D01*
X0127783Y0028586D02*
X0113182Y0028586D01*
X0111553Y0030185D02*
X0127783Y0030185D01*
X0127783Y0031783D02*
X0095157Y0031783D01*
X0095157Y0030185D02*
X0095411Y0030185D01*
X0098814Y0030185D02*
X0106295Y0030185D01*
X0106278Y0030176D02*
X0105635Y0029709D01*
X0105073Y0029147D01*
X0104606Y0028504D01*
X0104246Y0027797D01*
X0104000Y0027041D01*
X0103876Y0026256D01*
X0103876Y0026141D01*
X0108641Y0026141D01*
X0108641Y0030907D01*
X0108527Y0030907D01*
X0107742Y0030782D01*
X0106986Y0030537D01*
X0106278Y0030176D01*
X0104666Y0028586D02*
X0100958Y0028586D01*
X0101676Y0026988D02*
X0103992Y0026988D01*
X0103887Y0025389D02*
X0101761Y0025389D01*
X0101287Y0023791D02*
X0104312Y0023791D01*
X0105451Y0022192D02*
X0100020Y0022192D01*
X0108641Y0022192D02*
X0109207Y0022192D01*
X0109207Y0023791D02*
X0108641Y0023791D01*
X0108641Y0025389D02*
X0109207Y0025389D01*
X0109207Y0026988D02*
X0108641Y0026988D01*
X0108641Y0028586D02*
X0109207Y0028586D01*
X0109207Y0030185D02*
X0108641Y0030185D01*
X0095157Y0033382D02*
X0127783Y0033382D01*
X0127783Y0034980D02*
X0095157Y0034980D01*
X0115225Y0044572D02*
X0115998Y0044572D01*
X0115683Y0046170D02*
X0115225Y0046170D01*
X0115226Y0047769D02*
X0116433Y0047769D01*
X0116433Y0049367D02*
X0115226Y0049367D01*
X0115227Y0050966D02*
X0116433Y0050966D01*
X0116433Y0052564D02*
X0115227Y0052564D01*
X0115228Y0054163D02*
X0116433Y0054163D01*
X0116433Y0055761D02*
X0115228Y0055761D01*
X0115229Y0057360D02*
X0116433Y0057360D01*
X0116433Y0058958D02*
X0115229Y0058958D01*
X0115230Y0060557D02*
X0116433Y0060557D01*
X0116433Y0062155D02*
X0115230Y0062155D01*
X0115230Y0063754D02*
X0116433Y0063754D01*
X0116433Y0065352D02*
X0115231Y0065352D01*
X0115231Y0066951D02*
X0116433Y0066951D01*
X0116433Y0068549D02*
X0115232Y0068549D01*
X0115232Y0070148D02*
X0116433Y0070148D01*
X0116433Y0071746D02*
X0115468Y0071746D01*
X0115983Y0073345D02*
X0116433Y0073345D01*
X0116433Y0074943D02*
X0115496Y0074943D01*
X0086452Y0108512D02*
X0058883Y0108512D01*
X0058883Y0110110D02*
X0087162Y0110110D01*
X0088760Y0111709D02*
X0058883Y0111709D01*
X0100475Y0118103D02*
X0100475Y0118103D01*
X0212815Y0041375D02*
X0305101Y0041375D01*
X0304433Y0039776D02*
X0213483Y0039776D01*
X0213109Y0038177D02*
X0304808Y0038177D01*
X0311351Y0020594D02*
X0266848Y0020594D01*
X0268446Y0018995D02*
X0309752Y0018995D01*
X0314598Y0020594D02*
X0359351Y0020594D01*
X0357533Y0018995D02*
X0316196Y0018995D01*
X0362598Y0020594D02*
X0407351Y0020594D01*
X0405752Y0018995D02*
X0364196Y0018995D01*
X0410598Y0020594D02*
X0454351Y0020594D01*
X0452752Y0018995D02*
X0412196Y0018995D01*
X0457598Y0020594D02*
X0477368Y0020594D01*
X0477368Y0018995D02*
X0459196Y0018995D01*
X0460715Y0017397D02*
X0477184Y0017397D01*
X0475586Y0015798D02*
X0460196Y0015798D01*
X0458598Y0014200D02*
X0473987Y0014200D01*
X0471407Y0089330D02*
X0477368Y0089330D01*
X0477368Y0090928D02*
X0471407Y0090928D01*
X0471407Y0092527D02*
X0477368Y0092527D01*
X0477368Y0094125D02*
X0471407Y0094125D01*
X0471407Y0095724D02*
X0476580Y0095724D01*
X0475184Y0097322D02*
X0471407Y0097322D01*
X0471407Y0098921D02*
X0474620Y0098921D01*
X0474620Y0100519D02*
X0471407Y0100519D01*
X0471407Y0102118D02*
X0475277Y0102118D01*
X0477039Y0103716D02*
X0471407Y0103716D01*
X0443575Y0103716D02*
X0436927Y0103716D01*
X0438380Y0102118D02*
X0441812Y0102118D01*
X0441156Y0100519D02*
X0438959Y0100519D01*
X0438995Y0098921D02*
X0441156Y0098921D01*
X0441720Y0097322D02*
X0438493Y0097322D01*
X0437234Y0095724D02*
X0443115Y0095724D01*
X0263601Y0020594D02*
X0219098Y0020594D01*
X0220696Y0018995D02*
X0262002Y0018995D01*
D15*
X0265224Y0016897D02*
X0217474Y0016897D01*
X0168974Y0016897D01*
X0210833Y0039609D02*
X0210833Y0073359D01*
X0210823Y0073369D01*
X0219583Y0088359D02*
X0219583Y0046873D01*
X0265224Y0016897D02*
X0312974Y0016897D01*
X0360974Y0016897D01*
X0360762Y0017109D01*
X0358333Y0017109D01*
X0358545Y0016897D01*
X0360974Y0016897D01*
X0408974Y0016897D01*
X0455974Y0016897D01*
X0473333Y0010859D02*
X0095833Y0010859D01*
X0092083Y0030859D02*
X0084121Y0038821D01*
X0084121Y0101750D01*
X0132621Y0101750D01*
X0180371Y0101750D01*
X0228121Y0101750D01*
X0276121Y0101750D01*
X0323871Y0102000D01*
X0324121Y0101750D01*
X0370621Y0102250D01*
X0371121Y0101750D01*
X0312083Y0088359D02*
X0312083Y0047109D01*
X0307083Y0039609D02*
X0307083Y0075859D01*
X0473333Y0010859D02*
X0479268Y0016794D01*
X0479268Y0099609D01*
X0118333Y0092109D02*
X0118333Y0045859D01*
X0113323Y0039619D02*
X0113333Y0073359D01*
D16*
X0113333Y0073359D03*
X0118333Y0092109D03*
X0118333Y0045859D03*
X0113323Y0039619D03*
X0092083Y0030859D03*
X0095833Y0010859D03*
X0210833Y0039609D03*
X0219583Y0046873D03*
X0210823Y0073369D03*
X0219583Y0088359D03*
X0307083Y0075859D03*
X0312083Y0088359D03*
X0312083Y0047109D03*
X0307083Y0039609D03*
M02*
