G75*
%MOIN*%
%OFA0B0*%
%FSLAX25Y25*%
%IPPOS*%
%LPD*%
%AMOC8*
5,1,8,0,0,1.08239X$1,22.5*
%
%ADD10C,0.00800*%
%ADD11C,0.00400*%
%ADD12C,0.00500*%
%ADD13C,0.00300*%
D10*
X0088520Y0097351D02*
X0163184Y0022687D01*
X0170255Y0029758D01*
X0095591Y0104422D01*
X0088520Y0097351D01*
X0080586Y0091143D02*
X0167582Y0004147D01*
X0188795Y0025360D01*
X0186652Y0027503D01*
X0179581Y0034574D02*
X0101799Y0112356D01*
X0094728Y0119427D02*
X0092584Y0121571D01*
X0071371Y0100358D01*
X0073515Y0098214D01*
X0119871Y0100358D02*
X0122015Y0098214D01*
X0119871Y0100358D02*
X0141084Y0121571D01*
X0143228Y0119427D01*
X0150299Y0112356D02*
X0228081Y0034574D01*
X0218755Y0029758D02*
X0144091Y0104422D01*
X0137020Y0097351D01*
X0211684Y0022687D01*
X0218755Y0029758D01*
X0235152Y0027503D02*
X0237295Y0025360D01*
X0216082Y0004147D01*
X0129086Y0091143D01*
X0167621Y0100358D02*
X0169765Y0098214D01*
X0167621Y0100358D02*
X0188834Y0121571D01*
X0190978Y0119427D01*
X0198049Y0112356D02*
X0275831Y0034574D01*
X0266505Y0029758D02*
X0191841Y0104422D01*
X0184770Y0097351D01*
X0259434Y0022687D01*
X0266505Y0029758D01*
X0282902Y0027503D02*
X0285045Y0025360D01*
X0263832Y0004147D01*
X0176836Y0091143D01*
X0215371Y0100358D02*
X0217515Y0098214D01*
X0215371Y0100358D02*
X0236584Y0121571D01*
X0238728Y0119427D01*
X0245799Y0112356D02*
X0323581Y0034574D01*
X0314255Y0029758D02*
X0239591Y0104422D01*
X0232520Y0097351D01*
X0307184Y0022687D01*
X0314255Y0029758D01*
X0330652Y0027503D02*
X0332795Y0025360D01*
X0311582Y0004147D01*
X0224586Y0091143D01*
X0263371Y0100358D02*
X0265515Y0098214D01*
X0263371Y0100358D02*
X0284584Y0121571D01*
X0286728Y0119427D01*
X0293799Y0112356D02*
X0371581Y0034574D01*
X0362255Y0029758D02*
X0287591Y0104422D01*
X0280520Y0097351D01*
X0355184Y0022687D01*
X0362255Y0029758D01*
X0378652Y0027503D02*
X0380795Y0025360D01*
X0359582Y0004147D01*
X0272586Y0091143D01*
X0311371Y0100358D02*
X0313515Y0098214D01*
X0311371Y0100358D02*
X0332584Y0121571D01*
X0334728Y0119427D01*
X0341799Y0112356D02*
X0419581Y0034574D01*
X0410255Y0029758D02*
X0335591Y0104422D01*
X0328520Y0097351D01*
X0403184Y0022687D01*
X0410255Y0029758D01*
X0426652Y0027503D02*
X0428795Y0025360D01*
X0407582Y0004147D01*
X0320586Y0091143D01*
X0358371Y0100358D02*
X0360515Y0098214D01*
X0358371Y0100358D02*
X0379584Y0121571D01*
X0381728Y0119427D01*
X0388799Y0112356D02*
X0466581Y0034574D01*
X0457255Y0029758D02*
X0382591Y0104422D01*
X0375520Y0097351D01*
X0450184Y0022687D01*
X0457255Y0029758D01*
X0473652Y0027503D02*
X0475795Y0025360D01*
X0454582Y0004147D01*
X0367586Y0091143D01*
D11*
X0374489Y0087529D02*
X0376660Y0085359D01*
X0377202Y0085901D01*
X0377202Y0090242D01*
X0377745Y0090784D01*
X0379915Y0088614D01*
X0381000Y0087529D02*
X0377745Y0084273D01*
X0379373Y0085901D02*
X0381543Y0083731D01*
X0379915Y0082103D02*
X0383171Y0085359D01*
X0384256Y0084273D02*
X0384256Y0079933D01*
X0384256Y0081018D02*
X0381000Y0081018D01*
X0383171Y0078848D02*
X0386426Y0082103D01*
X0387511Y0081018D02*
X0388054Y0079390D01*
X0388054Y0077220D01*
X0386426Y0078848D01*
X0385341Y0078848D01*
X0384798Y0078305D01*
X0384798Y0077220D01*
X0385884Y0076135D01*
X0386969Y0076135D01*
X0388054Y0077220D01*
X0387511Y0074507D02*
X0389682Y0072337D01*
X0388596Y0073422D02*
X0391852Y0076677D01*
X0391852Y0074507D01*
X0347565Y0073964D02*
X0345394Y0076135D01*
X0344852Y0075592D01*
X0344852Y0071252D01*
X0344309Y0070709D01*
X0341054Y0073964D02*
X0340511Y0074507D01*
X0341054Y0075050D01*
X0341596Y0074507D01*
X0341054Y0073964D01*
X0339426Y0075592D02*
X0339969Y0076135D01*
X0339969Y0080475D01*
X0340511Y0081018D01*
X0342682Y0078848D01*
X0339426Y0082103D02*
X0336171Y0078848D01*
X0337256Y0079933D02*
X0337256Y0084273D01*
X0336171Y0085359D02*
X0332915Y0082103D01*
X0334000Y0081018D02*
X0337256Y0081018D01*
X0334543Y0083731D02*
X0332373Y0085901D01*
X0330202Y0085901D02*
X0329660Y0085359D01*
X0327489Y0087529D01*
X0330202Y0085901D02*
X0330202Y0090242D01*
X0330745Y0090784D01*
X0332915Y0088614D01*
X0334000Y0087529D02*
X0330745Y0084273D01*
X0299022Y0074507D02*
X0299022Y0073422D01*
X0299022Y0074507D02*
X0297937Y0075592D01*
X0296852Y0075592D01*
X0296309Y0075050D01*
X0296309Y0070709D01*
X0294139Y0072879D01*
X0293054Y0073964D02*
X0292511Y0074507D01*
X0293054Y0075050D01*
X0293596Y0074507D01*
X0293054Y0073964D01*
X0291969Y0076135D02*
X0290884Y0076135D01*
X0289798Y0077220D01*
X0289798Y0078305D01*
X0290884Y0079390D01*
X0291969Y0079390D01*
X0292511Y0078848D01*
X0293054Y0077220D01*
X0294682Y0078848D01*
X0292511Y0081018D01*
X0291426Y0082103D02*
X0288171Y0078848D01*
X0289256Y0079933D02*
X0289256Y0084273D01*
X0288171Y0085359D02*
X0284915Y0082103D01*
X0286000Y0081018D02*
X0289256Y0081018D01*
X0286543Y0083731D02*
X0284373Y0085901D01*
X0282202Y0085901D02*
X0281660Y0085359D01*
X0279489Y0087529D01*
X0282202Y0085901D02*
X0282202Y0090242D01*
X0282745Y0090784D01*
X0284915Y0088614D01*
X0286000Y0087529D02*
X0282745Y0084273D01*
X0245596Y0079933D02*
X0245596Y0077763D01*
X0245596Y0079933D02*
X0242341Y0076677D01*
X0243426Y0075592D02*
X0241256Y0077763D01*
X0240171Y0078848D02*
X0243426Y0082103D01*
X0241256Y0081018D02*
X0238000Y0081018D01*
X0236915Y0082103D02*
X0240171Y0085359D01*
X0241256Y0084273D02*
X0241256Y0079933D01*
X0238543Y0083731D02*
X0236373Y0085901D01*
X0234202Y0085901D02*
X0233660Y0085359D01*
X0231489Y0087529D01*
X0234202Y0085901D02*
X0234202Y0090242D01*
X0234745Y0090784D01*
X0236915Y0088614D01*
X0238000Y0087529D02*
X0234745Y0084273D01*
X0200559Y0077220D02*
X0200559Y0073964D01*
X0198389Y0076135D01*
X0197846Y0077763D02*
X0197846Y0079933D01*
X0194591Y0076677D01*
X0195676Y0075592D02*
X0193506Y0077763D01*
X0192963Y0079390D02*
X0192963Y0083731D01*
X0190793Y0081561D01*
X0190793Y0080475D01*
X0191878Y0079390D01*
X0192963Y0079390D01*
X0195134Y0081561D01*
X0195134Y0082646D01*
X0194048Y0083731D01*
X0192963Y0083731D01*
X0192421Y0085359D02*
X0189165Y0082103D01*
X0190793Y0083731D02*
X0188623Y0085901D01*
X0186452Y0085901D02*
X0185910Y0085359D01*
X0183739Y0087529D01*
X0186452Y0085901D02*
X0186452Y0090242D01*
X0186995Y0090784D01*
X0189165Y0088614D01*
X0190250Y0087529D02*
X0186995Y0084273D01*
X0197304Y0073964D02*
X0200559Y0077220D01*
X0153352Y0076677D02*
X0153352Y0074507D01*
X0153352Y0076677D02*
X0150096Y0073422D01*
X0149011Y0074507D02*
X0151182Y0072337D01*
X0148469Y0076135D02*
X0147384Y0076135D01*
X0146298Y0077220D01*
X0146298Y0078305D01*
X0146841Y0078848D01*
X0147926Y0078848D01*
X0149554Y0077220D01*
X0148469Y0076135D01*
X0149554Y0077220D02*
X0149554Y0079390D01*
X0149011Y0081018D01*
X0147384Y0081561D02*
X0147384Y0082646D01*
X0146298Y0083731D01*
X0145213Y0083731D01*
X0145213Y0079390D01*
X0144128Y0079390D01*
X0143043Y0080475D01*
X0143043Y0081561D01*
X0145213Y0083731D01*
X0144671Y0085359D02*
X0141415Y0082103D01*
X0143043Y0083731D02*
X0140873Y0085901D01*
X0138702Y0085901D02*
X0138160Y0085359D01*
X0135989Y0087529D01*
X0138702Y0085901D02*
X0138702Y0090242D01*
X0139245Y0090784D01*
X0141415Y0088614D01*
X0142500Y0087529D02*
X0139245Y0084273D01*
X0145213Y0079390D02*
X0147384Y0081561D01*
X0101054Y0079390D02*
X0101054Y0077220D01*
X0099426Y0078848D01*
X0098341Y0078848D01*
X0097798Y0078305D01*
X0097798Y0077220D01*
X0098884Y0076135D01*
X0099969Y0076135D01*
X0101054Y0077220D01*
X0101054Y0079390D02*
X0100511Y0081018D01*
X0098884Y0081561D02*
X0098884Y0082646D01*
X0097798Y0083731D01*
X0096713Y0083731D01*
X0096171Y0083188D01*
X0096171Y0082103D01*
X0095085Y0082103D01*
X0094543Y0081561D01*
X0094543Y0080475D01*
X0095628Y0079390D01*
X0096713Y0079390D01*
X0096713Y0081561D02*
X0096171Y0082103D01*
X0094543Y0083731D02*
X0092373Y0085901D01*
X0090202Y0085901D02*
X0089660Y0085359D01*
X0087489Y0087529D01*
X0090202Y0085901D02*
X0090202Y0090242D01*
X0090745Y0090784D01*
X0092915Y0088614D01*
X0094000Y0087529D02*
X0090745Y0084273D01*
X0092915Y0082103D02*
X0096171Y0085359D01*
D12*
X0061680Y0008142D02*
X0059711Y0008142D01*
X0059711Y0010111D01*
X0072740Y0025859D02*
X0072743Y0026119D01*
X0072753Y0026379D01*
X0072769Y0026638D01*
X0072791Y0026897D01*
X0072820Y0027156D01*
X0072855Y0027413D01*
X0072896Y0027670D01*
X0072944Y0027926D01*
X0072997Y0028180D01*
X0073057Y0028433D01*
X0073124Y0028684D01*
X0073196Y0028934D01*
X0073275Y0029182D01*
X0073359Y0029428D01*
X0073450Y0029671D01*
X0073546Y0029913D01*
X0073649Y0030152D01*
X0073757Y0030388D01*
X0073871Y0030622D01*
X0073991Y0030853D01*
X0074116Y0031080D01*
X0074247Y0031305D01*
X0074383Y0031526D01*
X0074525Y0031744D01*
X0074672Y0031959D01*
X0074825Y0032169D01*
X0074982Y0032376D01*
X0075145Y0032579D01*
X0075312Y0032778D01*
X0075484Y0032973D01*
X0075661Y0033163D01*
X0075843Y0033349D01*
X0076029Y0033531D01*
X0076219Y0033708D01*
X0076414Y0033880D01*
X0076613Y0034047D01*
X0076816Y0034210D01*
X0077023Y0034367D01*
X0077233Y0034520D01*
X0077448Y0034667D01*
X0077666Y0034809D01*
X0077887Y0034945D01*
X0078112Y0035076D01*
X0078339Y0035201D01*
X0078570Y0035321D01*
X0078804Y0035435D01*
X0079040Y0035543D01*
X0079279Y0035646D01*
X0079521Y0035742D01*
X0079764Y0035833D01*
X0080010Y0035917D01*
X0080258Y0035996D01*
X0080508Y0036068D01*
X0080759Y0036135D01*
X0081012Y0036195D01*
X0081266Y0036248D01*
X0081522Y0036296D01*
X0081779Y0036337D01*
X0082036Y0036372D01*
X0082295Y0036401D01*
X0082554Y0036423D01*
X0082813Y0036439D01*
X0083073Y0036449D01*
X0083333Y0036452D01*
X0083593Y0036449D01*
X0083853Y0036439D01*
X0084112Y0036423D01*
X0084371Y0036401D01*
X0084630Y0036372D01*
X0084887Y0036337D01*
X0085144Y0036296D01*
X0085400Y0036248D01*
X0085654Y0036195D01*
X0085907Y0036135D01*
X0086158Y0036068D01*
X0086408Y0035996D01*
X0086656Y0035917D01*
X0086902Y0035833D01*
X0087145Y0035742D01*
X0087387Y0035646D01*
X0087626Y0035543D01*
X0087862Y0035435D01*
X0088096Y0035321D01*
X0088327Y0035201D01*
X0088554Y0035076D01*
X0088779Y0034945D01*
X0089000Y0034809D01*
X0089218Y0034667D01*
X0089433Y0034520D01*
X0089643Y0034367D01*
X0089850Y0034210D01*
X0090053Y0034047D01*
X0090252Y0033880D01*
X0090447Y0033708D01*
X0090637Y0033531D01*
X0090823Y0033349D01*
X0091005Y0033163D01*
X0091182Y0032973D01*
X0091354Y0032778D01*
X0091521Y0032579D01*
X0091684Y0032376D01*
X0091841Y0032169D01*
X0091994Y0031959D01*
X0092141Y0031744D01*
X0092283Y0031526D01*
X0092419Y0031305D01*
X0092550Y0031080D01*
X0092675Y0030853D01*
X0092795Y0030622D01*
X0092909Y0030388D01*
X0093017Y0030152D01*
X0093120Y0029913D01*
X0093216Y0029671D01*
X0093307Y0029428D01*
X0093391Y0029182D01*
X0093470Y0028934D01*
X0093542Y0028684D01*
X0093609Y0028433D01*
X0093669Y0028180D01*
X0093722Y0027926D01*
X0093770Y0027670D01*
X0093811Y0027413D01*
X0093846Y0027156D01*
X0093875Y0026897D01*
X0093897Y0026638D01*
X0093913Y0026379D01*
X0093923Y0026119D01*
X0093926Y0025859D01*
X0093923Y0025599D01*
X0093913Y0025339D01*
X0093897Y0025080D01*
X0093875Y0024821D01*
X0093846Y0024562D01*
X0093811Y0024305D01*
X0093770Y0024048D01*
X0093722Y0023792D01*
X0093669Y0023538D01*
X0093609Y0023285D01*
X0093542Y0023034D01*
X0093470Y0022784D01*
X0093391Y0022536D01*
X0093307Y0022290D01*
X0093216Y0022047D01*
X0093120Y0021805D01*
X0093017Y0021566D01*
X0092909Y0021330D01*
X0092795Y0021096D01*
X0092675Y0020865D01*
X0092550Y0020638D01*
X0092419Y0020413D01*
X0092283Y0020192D01*
X0092141Y0019974D01*
X0091994Y0019759D01*
X0091841Y0019549D01*
X0091684Y0019342D01*
X0091521Y0019139D01*
X0091354Y0018940D01*
X0091182Y0018745D01*
X0091005Y0018555D01*
X0090823Y0018369D01*
X0090637Y0018187D01*
X0090447Y0018010D01*
X0090252Y0017838D01*
X0090053Y0017671D01*
X0089850Y0017508D01*
X0089643Y0017351D01*
X0089433Y0017198D01*
X0089218Y0017051D01*
X0089000Y0016909D01*
X0088779Y0016773D01*
X0088554Y0016642D01*
X0088327Y0016517D01*
X0088096Y0016397D01*
X0087862Y0016283D01*
X0087626Y0016175D01*
X0087387Y0016072D01*
X0087145Y0015976D01*
X0086902Y0015885D01*
X0086656Y0015801D01*
X0086408Y0015722D01*
X0086158Y0015650D01*
X0085907Y0015583D01*
X0085654Y0015523D01*
X0085400Y0015470D01*
X0085144Y0015422D01*
X0084887Y0015381D01*
X0084630Y0015346D01*
X0084371Y0015317D01*
X0084112Y0015295D01*
X0083853Y0015279D01*
X0083593Y0015269D01*
X0083333Y0015266D01*
X0083073Y0015269D01*
X0082813Y0015279D01*
X0082554Y0015295D01*
X0082295Y0015317D01*
X0082036Y0015346D01*
X0081779Y0015381D01*
X0081522Y0015422D01*
X0081266Y0015470D01*
X0081012Y0015523D01*
X0080759Y0015583D01*
X0080508Y0015650D01*
X0080258Y0015722D01*
X0080010Y0015801D01*
X0079764Y0015885D01*
X0079521Y0015976D01*
X0079279Y0016072D01*
X0079040Y0016175D01*
X0078804Y0016283D01*
X0078570Y0016397D01*
X0078339Y0016517D01*
X0078112Y0016642D01*
X0077887Y0016773D01*
X0077666Y0016909D01*
X0077448Y0017051D01*
X0077233Y0017198D01*
X0077023Y0017351D01*
X0076816Y0017508D01*
X0076613Y0017671D01*
X0076414Y0017838D01*
X0076219Y0018010D01*
X0076029Y0018187D01*
X0075843Y0018369D01*
X0075661Y0018555D01*
X0075484Y0018745D01*
X0075312Y0018940D01*
X0075145Y0019139D01*
X0074982Y0019342D01*
X0074825Y0019549D01*
X0074672Y0019759D01*
X0074525Y0019974D01*
X0074383Y0020192D01*
X0074247Y0020413D01*
X0074116Y0020638D01*
X0073991Y0020865D01*
X0073871Y0021096D01*
X0073757Y0021330D01*
X0073649Y0021566D01*
X0073546Y0021805D01*
X0073450Y0022047D01*
X0073359Y0022290D01*
X0073275Y0022536D01*
X0073196Y0022784D01*
X0073124Y0023034D01*
X0073057Y0023285D01*
X0072997Y0023538D01*
X0072944Y0023792D01*
X0072896Y0024048D01*
X0072855Y0024305D01*
X0072820Y0024562D01*
X0072791Y0024821D01*
X0072769Y0025080D01*
X0072753Y0025339D01*
X0072743Y0025599D01*
X0072740Y0025859D01*
X0101050Y0010111D02*
X0101050Y0008142D01*
X0099081Y0008142D01*
X0101050Y0041607D02*
X0101050Y0043575D01*
X0099081Y0043575D01*
X0061680Y0043575D02*
X0059711Y0043575D01*
X0059711Y0041607D01*
X0441867Y0081892D02*
X0441867Y0083861D01*
X0441867Y0081892D02*
X0443835Y0081892D01*
X0448990Y0099609D02*
X0448993Y0099869D01*
X0449003Y0100129D01*
X0449019Y0100388D01*
X0449041Y0100647D01*
X0449070Y0100906D01*
X0449105Y0101163D01*
X0449146Y0101420D01*
X0449194Y0101676D01*
X0449247Y0101930D01*
X0449307Y0102183D01*
X0449374Y0102434D01*
X0449446Y0102684D01*
X0449525Y0102932D01*
X0449609Y0103178D01*
X0449700Y0103421D01*
X0449796Y0103663D01*
X0449899Y0103902D01*
X0450007Y0104138D01*
X0450121Y0104372D01*
X0450241Y0104603D01*
X0450366Y0104830D01*
X0450497Y0105055D01*
X0450633Y0105276D01*
X0450775Y0105494D01*
X0450922Y0105709D01*
X0451075Y0105919D01*
X0451232Y0106126D01*
X0451395Y0106329D01*
X0451562Y0106528D01*
X0451734Y0106723D01*
X0451911Y0106913D01*
X0452093Y0107099D01*
X0452279Y0107281D01*
X0452469Y0107458D01*
X0452664Y0107630D01*
X0452863Y0107797D01*
X0453066Y0107960D01*
X0453273Y0108117D01*
X0453483Y0108270D01*
X0453698Y0108417D01*
X0453916Y0108559D01*
X0454137Y0108695D01*
X0454362Y0108826D01*
X0454589Y0108951D01*
X0454820Y0109071D01*
X0455054Y0109185D01*
X0455290Y0109293D01*
X0455529Y0109396D01*
X0455771Y0109492D01*
X0456014Y0109583D01*
X0456260Y0109667D01*
X0456508Y0109746D01*
X0456758Y0109818D01*
X0457009Y0109885D01*
X0457262Y0109945D01*
X0457516Y0109998D01*
X0457772Y0110046D01*
X0458029Y0110087D01*
X0458286Y0110122D01*
X0458545Y0110151D01*
X0458804Y0110173D01*
X0459063Y0110189D01*
X0459323Y0110199D01*
X0459583Y0110202D01*
X0459843Y0110199D01*
X0460103Y0110189D01*
X0460362Y0110173D01*
X0460621Y0110151D01*
X0460880Y0110122D01*
X0461137Y0110087D01*
X0461394Y0110046D01*
X0461650Y0109998D01*
X0461904Y0109945D01*
X0462157Y0109885D01*
X0462408Y0109818D01*
X0462658Y0109746D01*
X0462906Y0109667D01*
X0463152Y0109583D01*
X0463395Y0109492D01*
X0463637Y0109396D01*
X0463876Y0109293D01*
X0464112Y0109185D01*
X0464346Y0109071D01*
X0464577Y0108951D01*
X0464804Y0108826D01*
X0465029Y0108695D01*
X0465250Y0108559D01*
X0465468Y0108417D01*
X0465683Y0108270D01*
X0465893Y0108117D01*
X0466100Y0107960D01*
X0466303Y0107797D01*
X0466502Y0107630D01*
X0466697Y0107458D01*
X0466887Y0107281D01*
X0467073Y0107099D01*
X0467255Y0106913D01*
X0467432Y0106723D01*
X0467604Y0106528D01*
X0467771Y0106329D01*
X0467934Y0106126D01*
X0468091Y0105919D01*
X0468244Y0105709D01*
X0468391Y0105494D01*
X0468533Y0105276D01*
X0468669Y0105055D01*
X0468800Y0104830D01*
X0468925Y0104603D01*
X0469045Y0104372D01*
X0469159Y0104138D01*
X0469267Y0103902D01*
X0469370Y0103663D01*
X0469466Y0103421D01*
X0469557Y0103178D01*
X0469641Y0102932D01*
X0469720Y0102684D01*
X0469792Y0102434D01*
X0469859Y0102183D01*
X0469919Y0101930D01*
X0469972Y0101676D01*
X0470020Y0101420D01*
X0470061Y0101163D01*
X0470096Y0100906D01*
X0470125Y0100647D01*
X0470147Y0100388D01*
X0470163Y0100129D01*
X0470173Y0099869D01*
X0470176Y0099609D01*
X0470173Y0099349D01*
X0470163Y0099089D01*
X0470147Y0098830D01*
X0470125Y0098571D01*
X0470096Y0098312D01*
X0470061Y0098055D01*
X0470020Y0097798D01*
X0469972Y0097542D01*
X0469919Y0097288D01*
X0469859Y0097035D01*
X0469792Y0096784D01*
X0469720Y0096534D01*
X0469641Y0096286D01*
X0469557Y0096040D01*
X0469466Y0095797D01*
X0469370Y0095555D01*
X0469267Y0095316D01*
X0469159Y0095080D01*
X0469045Y0094846D01*
X0468925Y0094615D01*
X0468800Y0094388D01*
X0468669Y0094163D01*
X0468533Y0093942D01*
X0468391Y0093724D01*
X0468244Y0093509D01*
X0468091Y0093299D01*
X0467934Y0093092D01*
X0467771Y0092889D01*
X0467604Y0092690D01*
X0467432Y0092495D01*
X0467255Y0092305D01*
X0467073Y0092119D01*
X0466887Y0091937D01*
X0466697Y0091760D01*
X0466502Y0091588D01*
X0466303Y0091421D01*
X0466100Y0091258D01*
X0465893Y0091101D01*
X0465683Y0090948D01*
X0465468Y0090801D01*
X0465250Y0090659D01*
X0465029Y0090523D01*
X0464804Y0090392D01*
X0464577Y0090267D01*
X0464346Y0090147D01*
X0464112Y0090033D01*
X0463876Y0089925D01*
X0463637Y0089822D01*
X0463395Y0089726D01*
X0463152Y0089635D01*
X0462906Y0089551D01*
X0462658Y0089472D01*
X0462408Y0089400D01*
X0462157Y0089333D01*
X0461904Y0089273D01*
X0461650Y0089220D01*
X0461394Y0089172D01*
X0461137Y0089131D01*
X0460880Y0089096D01*
X0460621Y0089067D01*
X0460362Y0089045D01*
X0460103Y0089029D01*
X0459843Y0089019D01*
X0459583Y0089016D01*
X0459323Y0089019D01*
X0459063Y0089029D01*
X0458804Y0089045D01*
X0458545Y0089067D01*
X0458286Y0089096D01*
X0458029Y0089131D01*
X0457772Y0089172D01*
X0457516Y0089220D01*
X0457262Y0089273D01*
X0457009Y0089333D01*
X0456758Y0089400D01*
X0456508Y0089472D01*
X0456260Y0089551D01*
X0456014Y0089635D01*
X0455771Y0089726D01*
X0455529Y0089822D01*
X0455290Y0089925D01*
X0455054Y0090033D01*
X0454820Y0090147D01*
X0454589Y0090267D01*
X0454362Y0090392D01*
X0454137Y0090523D01*
X0453916Y0090659D01*
X0453698Y0090801D01*
X0453483Y0090948D01*
X0453273Y0091101D01*
X0453066Y0091258D01*
X0452863Y0091421D01*
X0452664Y0091588D01*
X0452469Y0091760D01*
X0452279Y0091937D01*
X0452093Y0092119D01*
X0451911Y0092305D01*
X0451734Y0092495D01*
X0451562Y0092690D01*
X0451395Y0092889D01*
X0451232Y0093092D01*
X0451075Y0093299D01*
X0450922Y0093509D01*
X0450775Y0093724D01*
X0450633Y0093942D01*
X0450497Y0094163D01*
X0450366Y0094388D01*
X0450241Y0094615D01*
X0450121Y0094846D01*
X0450007Y0095080D01*
X0449899Y0095316D01*
X0449796Y0095555D01*
X0449700Y0095797D01*
X0449609Y0096040D01*
X0449525Y0096286D01*
X0449446Y0096534D01*
X0449374Y0096784D01*
X0449307Y0097035D01*
X0449247Y0097288D01*
X0449194Y0097542D01*
X0449146Y0097798D01*
X0449105Y0098055D01*
X0449070Y0098312D01*
X0449041Y0098571D01*
X0449019Y0098830D01*
X0449003Y0099089D01*
X0448993Y0099349D01*
X0448990Y0099609D01*
X0441867Y0115357D02*
X0441867Y0117325D01*
X0443835Y0117325D01*
X0481237Y0117325D02*
X0483205Y0117325D01*
X0483205Y0115357D01*
X0483205Y0083861D02*
X0483205Y0081892D01*
X0481237Y0081892D01*
D13*
X0440833Y0097609D02*
X0437130Y0097609D01*
X0437130Y0098843D02*
X0437130Y0096374D01*
X0437130Y0100057D02*
X0440216Y0100057D01*
X0440833Y0100675D01*
X0440833Y0101909D01*
X0440216Y0102526D01*
X0437130Y0102526D01*
X0437747Y0103741D02*
X0438982Y0103741D01*
X0439599Y0104358D01*
X0439599Y0106209D01*
X0440833Y0106209D02*
X0437130Y0106209D01*
X0437130Y0104358D01*
X0437747Y0103741D01*
X0437130Y0107424D02*
X0437130Y0109892D01*
X0437130Y0111107D02*
X0440216Y0111107D01*
X0440833Y0111724D01*
X0440833Y0112958D01*
X0440216Y0113576D01*
X0437130Y0113576D01*
X0437747Y0114790D02*
X0437130Y0115407D01*
X0437130Y0116642D01*
X0437747Y0117259D01*
X0440216Y0117259D01*
X0440833Y0116642D01*
X0440833Y0115407D01*
X0440216Y0114790D01*
X0437747Y0114790D01*
X0437130Y0108658D02*
X0440833Y0108658D01*
X0105786Y0024182D02*
X0105786Y0021714D01*
X0105786Y0020499D02*
X0102701Y0020499D01*
X0102083Y0019882D01*
X0102083Y0018648D01*
X0102701Y0018030D01*
X0105786Y0018030D01*
X0105169Y0016816D02*
X0103935Y0016816D01*
X0103318Y0016199D01*
X0103318Y0014347D01*
X0102083Y0014347D02*
X0105786Y0014347D01*
X0105786Y0016199D01*
X0105169Y0016816D01*
X0105786Y0013133D02*
X0102083Y0013133D01*
X0105786Y0010664D01*
X0102083Y0010664D01*
X0102083Y0009443D02*
X0102083Y0008209D01*
X0102083Y0008826D02*
X0105786Y0008826D01*
X0105786Y0008209D02*
X0105786Y0009443D01*
X0105786Y0022948D02*
X0102083Y0022948D01*
M02*
