G75*
%MOIN*%
%OFA0B0*%
%FSLAX25Y25*%
%IPPOS*%
%LPD*%
%AMOC8*
5,1,8,0,0,1.08239X$1,22.5*
%
%ADD10C,0.00300*%
%ADD11C,0.00500*%
%ADD12C,0.00200*%
%ADD13C,0.00800*%
%ADD14C,0.00400*%
%ADD15R,0.03543X0.05315*%
D10*
X0113483Y0009126D02*
X0114101Y0008509D01*
X0115335Y0008509D01*
X0115952Y0009126D01*
X0115952Y0010360D01*
X0114718Y0010360D01*
X0113483Y0009126D02*
X0113483Y0011595D01*
X0114101Y0012212D01*
X0115335Y0012212D01*
X0115952Y0011595D01*
X0117166Y0010978D02*
X0117166Y0008509D01*
X0117166Y0009743D02*
X0118401Y0010978D01*
X0119018Y0010978D01*
X0120853Y0010978D02*
X0122087Y0010978D01*
X0122705Y0010360D01*
X0122705Y0008509D01*
X0120853Y0008509D01*
X0120236Y0009126D01*
X0120853Y0009743D01*
X0122705Y0009743D01*
X0123919Y0008509D02*
X0125770Y0008509D01*
X0126388Y0009126D01*
X0126388Y0010360D01*
X0125770Y0010978D01*
X0123919Y0010978D01*
X0123919Y0007274D01*
X0127602Y0008509D02*
X0127602Y0012212D01*
X0128219Y0010978D02*
X0129454Y0010978D01*
X0130071Y0010360D01*
X0130071Y0008509D01*
X0131285Y0008509D02*
X0132520Y0008509D01*
X0131902Y0008509D02*
X0131902Y0010978D01*
X0131285Y0010978D01*
X0131902Y0012212D02*
X0131902Y0012829D01*
X0134358Y0010978D02*
X0133741Y0010360D01*
X0133741Y0009126D01*
X0134358Y0008509D01*
X0136209Y0008509D01*
X0136209Y0010978D02*
X0134358Y0010978D01*
X0128219Y0010978D02*
X0127602Y0010360D01*
X0141107Y0010360D02*
X0142341Y0010360D01*
X0141107Y0008509D02*
X0143576Y0008509D01*
X0144790Y0009126D02*
X0145407Y0008509D01*
X0146642Y0008509D01*
X0147259Y0009126D01*
X0147259Y0011595D01*
X0146642Y0012212D01*
X0145407Y0012212D01*
X0144790Y0011595D01*
X0144790Y0009126D01*
X0146024Y0009743D02*
X0147259Y0008509D01*
X0152156Y0008509D02*
X0154008Y0008509D01*
X0154625Y0009126D01*
X0154625Y0011595D01*
X0154008Y0012212D01*
X0152156Y0012212D01*
X0152156Y0008509D01*
X0155839Y0009126D02*
X0155839Y0010360D01*
X0156457Y0010978D01*
X0157691Y0010978D01*
X0158308Y0010360D01*
X0158308Y0009743D01*
X0155839Y0009743D01*
X0155839Y0009126D02*
X0156457Y0008509D01*
X0157691Y0008509D01*
X0159523Y0008509D02*
X0161374Y0008509D01*
X0161991Y0009126D01*
X0161374Y0009743D01*
X0160140Y0009743D01*
X0159523Y0010360D01*
X0160140Y0010978D01*
X0161991Y0010978D01*
X0163206Y0010978D02*
X0163823Y0010978D01*
X0163823Y0008509D01*
X0163206Y0008509D02*
X0164440Y0008509D01*
X0165661Y0009126D02*
X0165661Y0010360D01*
X0166278Y0010978D01*
X0168130Y0010978D01*
X0168130Y0007892D01*
X0167513Y0007274D01*
X0166896Y0007274D01*
X0166278Y0008509D02*
X0168130Y0008509D01*
X0169344Y0008509D02*
X0169344Y0010978D01*
X0171196Y0010978D01*
X0171813Y0010360D01*
X0171813Y0008509D01*
X0173027Y0009126D02*
X0173027Y0010360D01*
X0173645Y0010978D01*
X0174879Y0010978D01*
X0175496Y0010360D01*
X0175496Y0009743D01*
X0173027Y0009743D01*
X0173027Y0009126D02*
X0173645Y0008509D01*
X0174879Y0008509D01*
X0176711Y0009126D02*
X0176711Y0010360D01*
X0177328Y0010978D01*
X0179179Y0010978D01*
X0179179Y0012212D02*
X0179179Y0008509D01*
X0177328Y0008509D01*
X0176711Y0009126D01*
X0184077Y0008509D02*
X0185311Y0008509D01*
X0184694Y0008509D02*
X0184694Y0010978D01*
X0184077Y0010978D01*
X0184694Y0012212D02*
X0184694Y0012829D01*
X0186532Y0010978D02*
X0188384Y0010978D01*
X0189001Y0010360D01*
X0189001Y0008509D01*
X0186532Y0008509D02*
X0186532Y0010978D01*
X0193899Y0010360D02*
X0196367Y0010360D01*
X0197582Y0010360D02*
X0198199Y0010978D01*
X0199433Y0010978D01*
X0200051Y0010360D01*
X0200051Y0009743D01*
X0197582Y0009743D01*
X0197582Y0009126D02*
X0197582Y0010360D01*
X0197582Y0009126D02*
X0198199Y0008509D01*
X0199433Y0008509D01*
X0201265Y0008509D02*
X0201265Y0010978D01*
X0202499Y0010978D02*
X0203116Y0010978D01*
X0202499Y0010978D02*
X0201265Y0009743D01*
X0204334Y0008509D02*
X0204334Y0010978D01*
X0206186Y0010978D01*
X0206803Y0010360D01*
X0206803Y0008509D01*
X0208017Y0009126D02*
X0208017Y0010360D01*
X0208635Y0010978D01*
X0209869Y0010978D01*
X0210486Y0010360D01*
X0210486Y0009743D01*
X0208017Y0009743D01*
X0208017Y0009126D02*
X0208635Y0008509D01*
X0209869Y0008509D01*
X0215384Y0008509D02*
X0215384Y0012212D01*
X0215384Y0010360D02*
X0217852Y0010360D01*
X0217852Y0008509D02*
X0217852Y0012212D01*
X0219067Y0012212D02*
X0220301Y0012212D01*
X0219684Y0012212D02*
X0219684Y0008509D01*
X0219067Y0008509D02*
X0220301Y0008509D01*
X0221522Y0008509D02*
X0222757Y0008509D01*
X0222139Y0008509D02*
X0222139Y0012212D01*
X0221522Y0012212D01*
X0223978Y0012212D02*
X0224595Y0012212D01*
X0224595Y0008509D01*
X0223978Y0008509D02*
X0225212Y0008509D01*
X0226433Y0007274D02*
X0227667Y0008509D01*
X0227050Y0008509D01*
X0227050Y0009126D01*
X0227667Y0009126D01*
X0227667Y0008509D01*
X0232572Y0008509D02*
X0235040Y0008509D01*
X0236255Y0009126D02*
X0236255Y0010360D01*
X0236872Y0010978D01*
X0238106Y0010978D01*
X0238724Y0010360D01*
X0238724Y0009126D01*
X0238106Y0008509D01*
X0236872Y0008509D01*
X0236255Y0009126D01*
X0239938Y0008509D02*
X0239938Y0010978D01*
X0241789Y0010978D01*
X0242407Y0010360D01*
X0242407Y0008509D01*
X0243621Y0009126D02*
X0243621Y0010360D01*
X0244238Y0010978D01*
X0246090Y0010978D01*
X0246090Y0012212D02*
X0246090Y0008509D01*
X0244238Y0008509D01*
X0243621Y0009126D01*
X0247304Y0009126D02*
X0247304Y0010360D01*
X0247921Y0010978D01*
X0249156Y0010978D01*
X0249773Y0010360D01*
X0249773Y0009126D01*
X0249156Y0008509D01*
X0247921Y0008509D01*
X0247304Y0009126D01*
X0250987Y0008509D02*
X0250987Y0010978D01*
X0252839Y0010978D01*
X0253456Y0010360D01*
X0253456Y0008509D01*
X0254670Y0007274D02*
X0255905Y0008509D01*
X0255288Y0008509D01*
X0255288Y0009126D01*
X0255905Y0009126D01*
X0255905Y0008509D01*
X0260809Y0008509D02*
X0262661Y0008509D01*
X0263278Y0009126D01*
X0263278Y0010360D01*
X0262661Y0010978D01*
X0260809Y0010978D01*
X0260809Y0012212D02*
X0260809Y0008509D01*
X0264492Y0009126D02*
X0265109Y0008509D01*
X0266961Y0008509D01*
X0266961Y0007892D02*
X0266344Y0007274D01*
X0265727Y0007274D01*
X0266961Y0007892D02*
X0266961Y0010978D01*
X0264492Y0010978D02*
X0264492Y0009126D01*
X0271859Y0012212D02*
X0274327Y0012212D01*
X0273093Y0012212D02*
X0273093Y0008509D01*
X0275542Y0009126D02*
X0275542Y0010360D01*
X0276159Y0010978D01*
X0277393Y0010978D01*
X0278010Y0010360D01*
X0278010Y0009126D01*
X0277393Y0008509D01*
X0276159Y0008509D01*
X0275542Y0009126D01*
X0279225Y0008509D02*
X0279225Y0010978D01*
X0279842Y0010978D01*
X0280459Y0010360D01*
X0281076Y0010978D01*
X0281694Y0010360D01*
X0281694Y0008509D01*
X0280459Y0008509D02*
X0280459Y0010360D01*
X0286591Y0008509D02*
X0287825Y0009743D01*
X0289060Y0008509D01*
X0289060Y0012212D01*
X0290274Y0012212D02*
X0290274Y0008509D01*
X0290274Y0010360D02*
X0290891Y0010978D01*
X0292126Y0010978D01*
X0292743Y0010360D01*
X0292743Y0008509D01*
X0293957Y0008509D02*
X0295192Y0008509D01*
X0294575Y0008509D02*
X0294575Y0010978D01*
X0293957Y0010978D01*
X0294575Y0012212D02*
X0294575Y0012829D01*
X0296413Y0010978D02*
X0297647Y0010978D01*
X0297030Y0011595D02*
X0297030Y0009126D01*
X0297647Y0008509D01*
X0298868Y0009126D02*
X0299485Y0008509D01*
X0300103Y0009126D01*
X0300720Y0008509D01*
X0301337Y0009126D01*
X0301337Y0010978D01*
X0302551Y0010360D02*
X0303169Y0010978D01*
X0304403Y0010978D01*
X0305020Y0010360D01*
X0305020Y0009743D01*
X0302551Y0009743D01*
X0302551Y0009126D02*
X0302551Y0010360D01*
X0302551Y0009126D02*
X0303169Y0008509D01*
X0304403Y0008509D01*
X0306235Y0008509D02*
X0307469Y0008509D01*
X0306852Y0008509D02*
X0306852Y0012212D01*
X0306235Y0012212D01*
X0308690Y0012212D02*
X0309307Y0012212D01*
X0309307Y0008509D01*
X0308690Y0008509D02*
X0309924Y0008509D01*
X0314829Y0009126D02*
X0315446Y0008509D01*
X0316063Y0008509D01*
X0316680Y0009126D01*
X0316680Y0012212D01*
X0316063Y0012212D02*
X0317297Y0012212D01*
X0319129Y0010978D02*
X0320363Y0010978D01*
X0320980Y0010360D01*
X0320980Y0008509D01*
X0319129Y0008509D01*
X0318512Y0009126D01*
X0319129Y0009743D01*
X0320980Y0009743D01*
X0322195Y0008509D02*
X0322195Y0010978D01*
X0324046Y0010978D01*
X0324664Y0010360D01*
X0324664Y0008509D01*
X0325878Y0009126D02*
X0325878Y0010978D01*
X0325878Y0009126D02*
X0326495Y0008509D01*
X0328347Y0008509D01*
X0328347Y0010978D01*
X0330178Y0010978D02*
X0331413Y0010978D01*
X0332030Y0010360D01*
X0332030Y0008509D01*
X0330178Y0008509D01*
X0329561Y0009126D01*
X0330178Y0009743D01*
X0332030Y0009743D01*
X0333244Y0009743D02*
X0334479Y0010978D01*
X0335096Y0010978D01*
X0336314Y0010978D02*
X0336314Y0009126D01*
X0336931Y0008509D01*
X0338782Y0008509D01*
X0338782Y0007892D02*
X0338165Y0007274D01*
X0337548Y0007274D01*
X0338782Y0007892D02*
X0338782Y0010978D01*
X0343680Y0011595D02*
X0344297Y0012212D01*
X0345531Y0012212D01*
X0346149Y0011595D01*
X0346149Y0010978D01*
X0343680Y0008509D01*
X0346149Y0008509D01*
X0347363Y0009126D02*
X0349832Y0011595D01*
X0349832Y0009126D01*
X0349215Y0008509D01*
X0347980Y0008509D01*
X0347363Y0009126D01*
X0347363Y0011595D01*
X0347980Y0012212D01*
X0349215Y0012212D01*
X0349832Y0011595D01*
X0351046Y0010978D02*
X0352280Y0012212D01*
X0352280Y0008509D01*
X0351046Y0008509D02*
X0353515Y0008509D01*
X0354729Y0008509D02*
X0354729Y0009126D01*
X0357198Y0011595D01*
X0357198Y0012212D01*
X0354729Y0012212D01*
X0362096Y0012212D02*
X0362096Y0008509D01*
X0362096Y0009743D02*
X0363947Y0009743D01*
X0364564Y0010360D01*
X0364564Y0011595D01*
X0363947Y0012212D01*
X0362096Y0012212D01*
X0365779Y0010978D02*
X0365779Y0008509D01*
X0365779Y0009743D02*
X0367013Y0010978D01*
X0367630Y0010978D01*
X0368848Y0010360D02*
X0368848Y0009126D01*
X0369465Y0008509D01*
X0370700Y0008509D01*
X0371317Y0009126D01*
X0371317Y0010360D01*
X0370700Y0010978D01*
X0369465Y0010978D01*
X0368848Y0010360D01*
X0372531Y0010978D02*
X0373765Y0010978D01*
X0373148Y0011595D02*
X0373148Y0009126D01*
X0373765Y0008509D01*
X0374987Y0009126D02*
X0375604Y0008509D01*
X0376838Y0008509D01*
X0377455Y0009126D01*
X0377455Y0010360D01*
X0376838Y0010978D01*
X0375604Y0010978D01*
X0374987Y0010360D01*
X0374987Y0009126D01*
X0382353Y0008509D02*
X0384822Y0008509D01*
X0383587Y0008509D02*
X0383587Y0012212D01*
X0382353Y0010978D01*
X0333244Y0010978D02*
X0333244Y0008509D01*
X0298868Y0009126D02*
X0298868Y0010978D01*
X0286591Y0012212D02*
X0286591Y0008509D01*
X0232572Y0008509D02*
X0232572Y0012212D01*
X0196367Y0012212D02*
X0196367Y0008509D01*
X0193899Y0008509D02*
X0193899Y0012212D01*
X0166278Y0008509D02*
X0165661Y0009126D01*
X0163823Y0012212D02*
X0163823Y0012829D01*
X0143576Y0012212D02*
X0141107Y0012212D01*
X0141107Y0008509D01*
D11*
X0075646Y0024451D02*
X0075646Y0029766D01*
X0077221Y0029766D01*
X0077221Y0024451D01*
X0075646Y0024451D01*
X0077221Y0024451D02*
X0081946Y0024451D01*
X0081946Y0029766D01*
X0077221Y0029766D01*
X0077221Y0031951D02*
X0077221Y0037266D01*
X0075646Y0037266D01*
X0075646Y0031951D01*
X0077221Y0031951D01*
X0081946Y0031951D01*
X0081946Y0037266D01*
X0077221Y0037266D01*
X0081946Y0037266D02*
X0083520Y0037266D01*
X0083520Y0031951D01*
X0081946Y0031951D01*
X0081946Y0029766D02*
X0083520Y0029766D01*
X0083520Y0024451D01*
X0081946Y0024451D01*
X0104396Y0044451D02*
X0104396Y0049766D01*
X0105971Y0049766D01*
X0105971Y0044451D01*
X0110696Y0044451D01*
X0110696Y0049766D01*
X0112270Y0049766D01*
X0112270Y0044451D01*
X0110696Y0044451D01*
X0105971Y0044451D02*
X0104396Y0044451D01*
X0105971Y0049766D02*
X0110696Y0049766D01*
X0123669Y0054109D02*
X0123671Y0054184D01*
X0123677Y0054258D01*
X0123687Y0054332D01*
X0123700Y0054405D01*
X0123718Y0054478D01*
X0123739Y0054549D01*
X0123764Y0054620D01*
X0123793Y0054689D01*
X0123826Y0054756D01*
X0123862Y0054821D01*
X0123901Y0054885D01*
X0123943Y0054946D01*
X0123989Y0055005D01*
X0124038Y0055062D01*
X0124090Y0055115D01*
X0124144Y0055166D01*
X0124201Y0055215D01*
X0124261Y0055259D01*
X0124323Y0055301D01*
X0124387Y0055340D01*
X0124453Y0055375D01*
X0124520Y0055406D01*
X0124590Y0055434D01*
X0124660Y0055458D01*
X0124732Y0055479D01*
X0124805Y0055495D01*
X0124878Y0055508D01*
X0124953Y0055517D01*
X0125027Y0055522D01*
X0125102Y0055523D01*
X0125176Y0055520D01*
X0125251Y0055513D01*
X0125324Y0055502D01*
X0125398Y0055488D01*
X0125470Y0055469D01*
X0125541Y0055447D01*
X0125611Y0055421D01*
X0125680Y0055391D01*
X0125746Y0055358D01*
X0125811Y0055321D01*
X0125874Y0055281D01*
X0125935Y0055237D01*
X0125993Y0055191D01*
X0126049Y0055141D01*
X0126102Y0055089D01*
X0126153Y0055034D01*
X0126200Y0054976D01*
X0126244Y0054916D01*
X0126285Y0054853D01*
X0126323Y0054789D01*
X0126357Y0054723D01*
X0126388Y0054654D01*
X0126415Y0054585D01*
X0126438Y0054514D01*
X0126457Y0054442D01*
X0126473Y0054369D01*
X0126485Y0054295D01*
X0126493Y0054221D01*
X0126497Y0054146D01*
X0126497Y0054072D01*
X0126493Y0053997D01*
X0126485Y0053923D01*
X0126473Y0053849D01*
X0126457Y0053776D01*
X0126438Y0053704D01*
X0126415Y0053633D01*
X0126388Y0053564D01*
X0126357Y0053495D01*
X0126323Y0053429D01*
X0126285Y0053365D01*
X0126244Y0053302D01*
X0126200Y0053242D01*
X0126153Y0053184D01*
X0126102Y0053129D01*
X0126049Y0053077D01*
X0125993Y0053027D01*
X0125935Y0052981D01*
X0125874Y0052937D01*
X0125811Y0052897D01*
X0125746Y0052860D01*
X0125680Y0052827D01*
X0125611Y0052797D01*
X0125541Y0052771D01*
X0125470Y0052749D01*
X0125398Y0052730D01*
X0125324Y0052716D01*
X0125251Y0052705D01*
X0125176Y0052698D01*
X0125102Y0052695D01*
X0125027Y0052696D01*
X0124953Y0052701D01*
X0124878Y0052710D01*
X0124805Y0052723D01*
X0124732Y0052739D01*
X0124660Y0052760D01*
X0124590Y0052784D01*
X0124520Y0052812D01*
X0124453Y0052843D01*
X0124387Y0052878D01*
X0124323Y0052917D01*
X0124261Y0052959D01*
X0124201Y0053003D01*
X0124144Y0053052D01*
X0124090Y0053103D01*
X0124038Y0053156D01*
X0123989Y0053213D01*
X0123943Y0053272D01*
X0123901Y0053333D01*
X0123862Y0053397D01*
X0123826Y0053462D01*
X0123793Y0053529D01*
X0123764Y0053598D01*
X0123739Y0053669D01*
X0123718Y0053740D01*
X0123700Y0053813D01*
X0123687Y0053886D01*
X0123677Y0053960D01*
X0123671Y0054034D01*
X0123669Y0054109D01*
X0112270Y0064451D02*
X0112270Y0069766D01*
X0110696Y0069766D01*
X0110696Y0064451D01*
X0112270Y0064451D01*
X0110696Y0064451D02*
X0105971Y0064451D01*
X0105971Y0069766D01*
X0110696Y0069766D01*
X0105971Y0069766D02*
X0104396Y0069766D01*
X0104396Y0064451D01*
X0105971Y0064451D01*
X0105646Y0076951D02*
X0105646Y0082266D01*
X0107221Y0082266D01*
X0107221Y0076951D01*
X0111946Y0076951D01*
X0111946Y0082266D01*
X0113520Y0082266D01*
X0113520Y0076951D01*
X0111946Y0076951D01*
X0107221Y0076951D02*
X0105646Y0076951D01*
X0107221Y0082266D02*
X0111946Y0082266D01*
X0111946Y0084451D02*
X0107221Y0084451D01*
X0107221Y0089766D01*
X0111946Y0089766D01*
X0111946Y0084451D01*
X0113520Y0084451D01*
X0113520Y0089766D01*
X0111946Y0089766D01*
X0111946Y0091951D02*
X0107221Y0091951D01*
X0107221Y0097266D01*
X0111946Y0097266D01*
X0111946Y0091951D01*
X0113520Y0091951D01*
X0113520Y0097266D01*
X0111946Y0097266D01*
X0111946Y0099451D02*
X0111946Y0104766D01*
X0113520Y0104766D01*
X0113520Y0099451D01*
X0111946Y0099451D01*
X0107221Y0099451D01*
X0107221Y0104766D01*
X0111946Y0104766D01*
X0111946Y0106951D02*
X0107221Y0106951D01*
X0107221Y0112266D01*
X0111946Y0112266D01*
X0111946Y0106951D01*
X0113520Y0106951D01*
X0113520Y0112266D01*
X0111946Y0112266D01*
X0107221Y0112266D02*
X0105646Y0112266D01*
X0105646Y0106951D01*
X0107221Y0106951D01*
X0107221Y0104766D02*
X0105646Y0104766D01*
X0105646Y0099451D01*
X0107221Y0099451D01*
X0107221Y0097266D02*
X0105646Y0097266D01*
X0105646Y0091951D01*
X0107221Y0091951D01*
X0107221Y0089766D02*
X0105646Y0089766D01*
X0105646Y0084451D01*
X0107221Y0084451D01*
X0091020Y0084451D02*
X0091020Y0089766D01*
X0089446Y0089766D01*
X0089446Y0084451D01*
X0091020Y0084451D01*
X0089446Y0084451D02*
X0084721Y0084451D01*
X0084721Y0089766D01*
X0089446Y0089766D01*
X0084721Y0089766D02*
X0083146Y0089766D01*
X0083146Y0084451D01*
X0084721Y0084451D01*
X0084721Y0082266D02*
X0084721Y0076951D01*
X0089446Y0076951D01*
X0089446Y0082266D01*
X0091020Y0082266D01*
X0091020Y0076951D01*
X0089446Y0076951D01*
X0084721Y0076951D02*
X0083146Y0076951D01*
X0083146Y0082266D01*
X0084721Y0082266D01*
X0089446Y0082266D01*
X0074741Y0061046D02*
X0069426Y0061046D01*
X0069426Y0059471D01*
X0074741Y0059471D01*
X0074741Y0061046D01*
X0074741Y0059471D02*
X0074741Y0054747D01*
X0069426Y0054747D01*
X0069426Y0059471D01*
X0069426Y0054747D02*
X0069426Y0053172D01*
X0074741Y0053172D01*
X0074741Y0054747D01*
X0078669Y0054109D02*
X0078671Y0054184D01*
X0078677Y0054258D01*
X0078687Y0054332D01*
X0078700Y0054405D01*
X0078718Y0054478D01*
X0078739Y0054549D01*
X0078764Y0054620D01*
X0078793Y0054689D01*
X0078826Y0054756D01*
X0078862Y0054821D01*
X0078901Y0054885D01*
X0078943Y0054946D01*
X0078989Y0055005D01*
X0079038Y0055062D01*
X0079090Y0055115D01*
X0079144Y0055166D01*
X0079201Y0055215D01*
X0079261Y0055259D01*
X0079323Y0055301D01*
X0079387Y0055340D01*
X0079453Y0055375D01*
X0079520Y0055406D01*
X0079590Y0055434D01*
X0079660Y0055458D01*
X0079732Y0055479D01*
X0079805Y0055495D01*
X0079878Y0055508D01*
X0079953Y0055517D01*
X0080027Y0055522D01*
X0080102Y0055523D01*
X0080176Y0055520D01*
X0080251Y0055513D01*
X0080324Y0055502D01*
X0080398Y0055488D01*
X0080470Y0055469D01*
X0080541Y0055447D01*
X0080611Y0055421D01*
X0080680Y0055391D01*
X0080746Y0055358D01*
X0080811Y0055321D01*
X0080874Y0055281D01*
X0080935Y0055237D01*
X0080993Y0055191D01*
X0081049Y0055141D01*
X0081102Y0055089D01*
X0081153Y0055034D01*
X0081200Y0054976D01*
X0081244Y0054916D01*
X0081285Y0054853D01*
X0081323Y0054789D01*
X0081357Y0054723D01*
X0081388Y0054654D01*
X0081415Y0054585D01*
X0081438Y0054514D01*
X0081457Y0054442D01*
X0081473Y0054369D01*
X0081485Y0054295D01*
X0081493Y0054221D01*
X0081497Y0054146D01*
X0081497Y0054072D01*
X0081493Y0053997D01*
X0081485Y0053923D01*
X0081473Y0053849D01*
X0081457Y0053776D01*
X0081438Y0053704D01*
X0081415Y0053633D01*
X0081388Y0053564D01*
X0081357Y0053495D01*
X0081323Y0053429D01*
X0081285Y0053365D01*
X0081244Y0053302D01*
X0081200Y0053242D01*
X0081153Y0053184D01*
X0081102Y0053129D01*
X0081049Y0053077D01*
X0080993Y0053027D01*
X0080935Y0052981D01*
X0080874Y0052937D01*
X0080811Y0052897D01*
X0080746Y0052860D01*
X0080680Y0052827D01*
X0080611Y0052797D01*
X0080541Y0052771D01*
X0080470Y0052749D01*
X0080398Y0052730D01*
X0080324Y0052716D01*
X0080251Y0052705D01*
X0080176Y0052698D01*
X0080102Y0052695D01*
X0080027Y0052696D01*
X0079953Y0052701D01*
X0079878Y0052710D01*
X0079805Y0052723D01*
X0079732Y0052739D01*
X0079660Y0052760D01*
X0079590Y0052784D01*
X0079520Y0052812D01*
X0079453Y0052843D01*
X0079387Y0052878D01*
X0079323Y0052917D01*
X0079261Y0052959D01*
X0079201Y0053003D01*
X0079144Y0053052D01*
X0079090Y0053103D01*
X0079038Y0053156D01*
X0078989Y0053213D01*
X0078943Y0053272D01*
X0078901Y0053333D01*
X0078862Y0053397D01*
X0078826Y0053462D01*
X0078793Y0053529D01*
X0078764Y0053598D01*
X0078739Y0053669D01*
X0078718Y0053740D01*
X0078700Y0053813D01*
X0078687Y0053886D01*
X0078677Y0053960D01*
X0078671Y0054034D01*
X0078669Y0054109D01*
X0153146Y0076951D02*
X0153146Y0082266D01*
X0154721Y0082266D01*
X0154721Y0076951D01*
X0159446Y0076951D01*
X0159446Y0082266D01*
X0161020Y0082266D01*
X0161020Y0076951D01*
X0159446Y0076951D01*
X0154721Y0076951D02*
X0153146Y0076951D01*
X0154721Y0082266D02*
X0159446Y0082266D01*
X0159446Y0084451D02*
X0154721Y0084451D01*
X0154721Y0089766D01*
X0159446Y0089766D01*
X0159446Y0084451D01*
X0161020Y0084451D01*
X0161020Y0089766D01*
X0159446Y0089766D01*
X0159446Y0091951D02*
X0154721Y0091951D01*
X0154721Y0097266D01*
X0159446Y0097266D01*
X0159446Y0091951D01*
X0161020Y0091951D01*
X0161020Y0097266D01*
X0159446Y0097266D01*
X0159446Y0099451D02*
X0159446Y0104766D01*
X0161020Y0104766D01*
X0161020Y0099451D01*
X0159446Y0099451D01*
X0154721Y0099451D01*
X0154721Y0104766D01*
X0159446Y0104766D01*
X0159446Y0106951D02*
X0154721Y0106951D01*
X0154721Y0112266D01*
X0159446Y0112266D01*
X0159446Y0106951D01*
X0161020Y0106951D01*
X0161020Y0112266D01*
X0159446Y0112266D01*
X0154721Y0112266D02*
X0153146Y0112266D01*
X0153146Y0106951D01*
X0154721Y0106951D01*
X0154721Y0104766D02*
X0153146Y0104766D01*
X0153146Y0099451D01*
X0154721Y0099451D01*
X0154721Y0097266D02*
X0153146Y0097266D01*
X0153146Y0091951D01*
X0154721Y0091951D01*
X0154721Y0089766D02*
X0153146Y0089766D01*
X0153146Y0084451D01*
X0154721Y0084451D01*
X0171926Y0074796D02*
X0177241Y0074796D01*
X0177241Y0073221D01*
X0171926Y0073221D01*
X0171926Y0068497D01*
X0177241Y0068497D01*
X0177241Y0066922D01*
X0171926Y0066922D01*
X0171926Y0068497D01*
X0177241Y0068497D02*
X0177241Y0073221D01*
X0171926Y0073221D02*
X0171926Y0074796D01*
X0203146Y0076951D02*
X0203146Y0082266D01*
X0204721Y0082266D01*
X0204721Y0076951D01*
X0209446Y0076951D01*
X0209446Y0082266D01*
X0211020Y0082266D01*
X0211020Y0076951D01*
X0209446Y0076951D01*
X0204721Y0076951D02*
X0203146Y0076951D01*
X0204721Y0082266D02*
X0209446Y0082266D01*
X0209446Y0084451D02*
X0204721Y0084451D01*
X0204721Y0089766D01*
X0209446Y0089766D01*
X0209446Y0084451D01*
X0211020Y0084451D01*
X0211020Y0089766D01*
X0209446Y0089766D01*
X0209446Y0091951D02*
X0204721Y0091951D01*
X0204721Y0097266D01*
X0209446Y0097266D01*
X0209446Y0091951D01*
X0211020Y0091951D01*
X0211020Y0097266D01*
X0209446Y0097266D01*
X0209446Y0099451D02*
X0209446Y0104766D01*
X0211020Y0104766D01*
X0211020Y0099451D01*
X0209446Y0099451D01*
X0204721Y0099451D01*
X0204721Y0104766D01*
X0209446Y0104766D01*
X0209446Y0106951D02*
X0204721Y0106951D01*
X0204721Y0112266D01*
X0209446Y0112266D01*
X0209446Y0106951D01*
X0211020Y0106951D01*
X0211020Y0112266D01*
X0209446Y0112266D01*
X0204721Y0112266D02*
X0203146Y0112266D01*
X0203146Y0106951D01*
X0204721Y0106951D01*
X0204721Y0104766D02*
X0203146Y0104766D01*
X0203146Y0099451D01*
X0204721Y0099451D01*
X0204721Y0097266D02*
X0203146Y0097266D01*
X0203146Y0091951D01*
X0204721Y0091951D01*
X0204721Y0089766D02*
X0203146Y0089766D01*
X0203146Y0084451D01*
X0204721Y0084451D01*
X0248146Y0084451D02*
X0248146Y0089766D01*
X0249721Y0089766D01*
X0249721Y0084451D01*
X0254446Y0084451D01*
X0254446Y0089766D01*
X0256020Y0089766D01*
X0256020Y0084451D01*
X0254446Y0084451D01*
X0254446Y0082266D02*
X0249721Y0082266D01*
X0249721Y0076951D01*
X0254446Y0076951D01*
X0254446Y0082266D01*
X0256020Y0082266D01*
X0256020Y0076951D01*
X0254446Y0076951D01*
X0249721Y0076951D02*
X0248146Y0076951D01*
X0248146Y0082266D01*
X0249721Y0082266D01*
X0249721Y0084451D02*
X0248146Y0084451D01*
X0249721Y0089766D02*
X0254446Y0089766D01*
X0254446Y0091951D02*
X0249721Y0091951D01*
X0249721Y0097266D01*
X0254446Y0097266D01*
X0254446Y0091951D01*
X0256020Y0091951D01*
X0256020Y0097266D01*
X0254446Y0097266D01*
X0254446Y0099451D02*
X0254446Y0104766D01*
X0256020Y0104766D01*
X0256020Y0099451D01*
X0254446Y0099451D01*
X0249721Y0099451D01*
X0249721Y0104766D01*
X0254446Y0104766D01*
X0254446Y0106951D02*
X0249721Y0106951D01*
X0249721Y0112266D01*
X0254446Y0112266D01*
X0254446Y0106951D01*
X0256020Y0106951D01*
X0256020Y0112266D01*
X0254446Y0112266D01*
X0249721Y0112266D02*
X0248146Y0112266D01*
X0248146Y0106951D01*
X0249721Y0106951D01*
X0249721Y0104766D02*
X0248146Y0104766D01*
X0248146Y0099451D01*
X0249721Y0099451D01*
X0249721Y0097266D02*
X0248146Y0097266D01*
X0248146Y0091951D01*
X0249721Y0091951D01*
X0263146Y0106951D02*
X0263146Y0112266D01*
X0264721Y0112266D01*
X0264721Y0106951D01*
X0269446Y0106951D01*
X0269446Y0112266D01*
X0271020Y0112266D01*
X0271020Y0106951D01*
X0269446Y0106951D01*
X0264721Y0106951D02*
X0263146Y0106951D01*
X0264721Y0112266D02*
X0269446Y0112266D01*
X0293146Y0104766D02*
X0293146Y0099451D01*
X0294721Y0099451D01*
X0294721Y0104766D01*
X0299446Y0104766D01*
X0299446Y0099451D01*
X0301020Y0099451D01*
X0301020Y0104766D01*
X0299446Y0104766D01*
X0300646Y0106951D02*
X0300646Y0112266D01*
X0302221Y0112266D01*
X0302221Y0106951D01*
X0306946Y0106951D01*
X0306946Y0112266D01*
X0308520Y0112266D01*
X0308520Y0106951D01*
X0306946Y0106951D01*
X0302221Y0106951D02*
X0300646Y0106951D01*
X0302221Y0112266D02*
X0306946Y0112266D01*
X0315646Y0112266D02*
X0315646Y0106951D01*
X0317221Y0106951D01*
X0317221Y0112266D01*
X0321946Y0112266D01*
X0321946Y0106951D01*
X0323520Y0106951D01*
X0323520Y0112266D01*
X0321946Y0112266D01*
X0317221Y0112266D02*
X0315646Y0112266D01*
X0317221Y0106951D02*
X0321946Y0106951D01*
X0301020Y0097266D02*
X0301020Y0091951D01*
X0299446Y0091951D01*
X0299446Y0097266D01*
X0301020Y0097266D01*
X0299446Y0097266D02*
X0294721Y0097266D01*
X0294721Y0091951D01*
X0299446Y0091951D01*
X0299446Y0089766D02*
X0294721Y0089766D01*
X0294721Y0084451D01*
X0299446Y0084451D01*
X0299446Y0089766D01*
X0301020Y0089766D01*
X0301020Y0084451D01*
X0299446Y0084451D01*
X0299446Y0082266D02*
X0294721Y0082266D01*
X0294721Y0076951D01*
X0299446Y0076951D01*
X0299446Y0082266D01*
X0301020Y0082266D01*
X0301020Y0076951D01*
X0299446Y0076951D01*
X0294721Y0076951D02*
X0293146Y0076951D01*
X0293146Y0082266D01*
X0294721Y0082266D01*
X0294721Y0084451D02*
X0293146Y0084451D01*
X0293146Y0089766D01*
X0294721Y0089766D01*
X0294721Y0091951D02*
X0293146Y0091951D01*
X0293146Y0097266D01*
X0294721Y0097266D01*
X0294721Y0099451D02*
X0299446Y0099451D01*
X0294721Y0104766D02*
X0293146Y0104766D01*
X0345646Y0104766D02*
X0345646Y0099451D01*
X0347221Y0099451D01*
X0347221Y0104766D01*
X0351946Y0104766D01*
X0351946Y0099451D01*
X0353520Y0099451D01*
X0353520Y0104766D01*
X0351946Y0104766D01*
X0351946Y0106951D02*
X0347221Y0106951D01*
X0347221Y0112266D01*
X0351946Y0112266D01*
X0351946Y0106951D01*
X0353520Y0106951D01*
X0353520Y0112266D01*
X0351946Y0112266D01*
X0347221Y0112266D02*
X0345646Y0112266D01*
X0345646Y0106951D01*
X0347221Y0106951D01*
X0347221Y0104766D02*
X0345646Y0104766D01*
X0347221Y0099451D02*
X0351946Y0099451D01*
X0351946Y0097266D02*
X0351946Y0091951D01*
X0353520Y0091951D01*
X0353520Y0097266D01*
X0351946Y0097266D01*
X0347221Y0097266D01*
X0347221Y0091951D01*
X0351946Y0091951D01*
X0351946Y0089766D02*
X0347221Y0089766D01*
X0347221Y0084451D01*
X0351946Y0084451D01*
X0351946Y0089766D01*
X0353520Y0089766D01*
X0353520Y0084451D01*
X0351946Y0084451D01*
X0351946Y0082266D02*
X0347221Y0082266D01*
X0347221Y0076951D01*
X0351946Y0076951D01*
X0351946Y0082266D01*
X0353520Y0082266D01*
X0353520Y0076951D01*
X0351946Y0076951D01*
X0347221Y0076951D02*
X0345646Y0076951D01*
X0345646Y0082266D01*
X0347221Y0082266D01*
X0347221Y0084451D02*
X0345646Y0084451D01*
X0345646Y0089766D01*
X0347221Y0089766D01*
X0347221Y0091951D02*
X0345646Y0091951D01*
X0345646Y0097266D01*
X0347221Y0097266D01*
X0360646Y0106951D02*
X0360646Y0112266D01*
X0362221Y0112266D01*
X0362221Y0106951D01*
X0360646Y0106951D01*
X0362221Y0106951D02*
X0366946Y0106951D01*
X0366946Y0112266D01*
X0362221Y0112266D01*
X0366946Y0112266D02*
X0368520Y0112266D01*
X0368520Y0106951D01*
X0366946Y0106951D01*
X0390646Y0106951D02*
X0390646Y0112266D01*
X0392221Y0112266D01*
X0392221Y0106951D01*
X0396946Y0106951D01*
X0396946Y0112266D01*
X0398520Y0112266D01*
X0398520Y0106951D01*
X0396946Y0106951D01*
X0396946Y0104766D02*
X0392221Y0104766D01*
X0392221Y0099451D01*
X0396946Y0099451D01*
X0396946Y0104766D01*
X0398520Y0104766D01*
X0398520Y0099451D01*
X0396946Y0099451D01*
X0396946Y0097266D02*
X0396946Y0091951D01*
X0398520Y0091951D01*
X0398520Y0097266D01*
X0396946Y0097266D01*
X0392221Y0097266D01*
X0392221Y0091951D01*
X0396946Y0091951D01*
X0396946Y0089766D02*
X0392221Y0089766D01*
X0392221Y0084451D01*
X0396946Y0084451D01*
X0396946Y0089766D01*
X0398520Y0089766D01*
X0398520Y0084451D01*
X0396946Y0084451D01*
X0396946Y0082266D02*
X0392221Y0082266D01*
X0392221Y0076951D01*
X0396946Y0076951D01*
X0396946Y0082266D01*
X0398520Y0082266D01*
X0398520Y0076951D01*
X0396946Y0076951D01*
X0392221Y0076951D02*
X0390646Y0076951D01*
X0390646Y0082266D01*
X0392221Y0082266D01*
X0392221Y0084451D02*
X0390646Y0084451D01*
X0390646Y0089766D01*
X0392221Y0089766D01*
X0392221Y0091951D02*
X0390646Y0091951D01*
X0390646Y0097266D01*
X0392221Y0097266D01*
X0392221Y0099451D02*
X0390646Y0099451D01*
X0390646Y0104766D01*
X0392221Y0104766D01*
X0392221Y0106951D02*
X0390646Y0106951D01*
X0392221Y0112266D02*
X0396946Y0112266D01*
X0405646Y0112266D02*
X0405646Y0106951D01*
X0407221Y0106951D01*
X0407221Y0112266D01*
X0405646Y0112266D01*
X0407221Y0112266D02*
X0411946Y0112266D01*
X0411946Y0106951D01*
X0407221Y0106951D01*
X0411946Y0106951D02*
X0413520Y0106951D01*
X0413520Y0112266D01*
X0411946Y0112266D01*
X0354770Y0069766D02*
X0354770Y0064451D01*
X0353196Y0064451D01*
X0353196Y0069766D01*
X0354770Y0069766D01*
X0353196Y0069766D02*
X0348471Y0069766D01*
X0348471Y0064451D01*
X0353196Y0064451D01*
X0348471Y0064451D02*
X0346896Y0064451D01*
X0346896Y0069766D01*
X0348471Y0069766D01*
X0361169Y0054109D02*
X0361171Y0054184D01*
X0361177Y0054258D01*
X0361187Y0054332D01*
X0361200Y0054405D01*
X0361218Y0054478D01*
X0361239Y0054549D01*
X0361264Y0054620D01*
X0361293Y0054689D01*
X0361326Y0054756D01*
X0361362Y0054821D01*
X0361401Y0054885D01*
X0361443Y0054946D01*
X0361489Y0055005D01*
X0361538Y0055062D01*
X0361590Y0055115D01*
X0361644Y0055166D01*
X0361701Y0055215D01*
X0361761Y0055259D01*
X0361823Y0055301D01*
X0361887Y0055340D01*
X0361953Y0055375D01*
X0362020Y0055406D01*
X0362090Y0055434D01*
X0362160Y0055458D01*
X0362232Y0055479D01*
X0362305Y0055495D01*
X0362378Y0055508D01*
X0362453Y0055517D01*
X0362527Y0055522D01*
X0362602Y0055523D01*
X0362676Y0055520D01*
X0362751Y0055513D01*
X0362824Y0055502D01*
X0362898Y0055488D01*
X0362970Y0055469D01*
X0363041Y0055447D01*
X0363111Y0055421D01*
X0363180Y0055391D01*
X0363246Y0055358D01*
X0363311Y0055321D01*
X0363374Y0055281D01*
X0363435Y0055237D01*
X0363493Y0055191D01*
X0363549Y0055141D01*
X0363602Y0055089D01*
X0363653Y0055034D01*
X0363700Y0054976D01*
X0363744Y0054916D01*
X0363785Y0054853D01*
X0363823Y0054789D01*
X0363857Y0054723D01*
X0363888Y0054654D01*
X0363915Y0054585D01*
X0363938Y0054514D01*
X0363957Y0054442D01*
X0363973Y0054369D01*
X0363985Y0054295D01*
X0363993Y0054221D01*
X0363997Y0054146D01*
X0363997Y0054072D01*
X0363993Y0053997D01*
X0363985Y0053923D01*
X0363973Y0053849D01*
X0363957Y0053776D01*
X0363938Y0053704D01*
X0363915Y0053633D01*
X0363888Y0053564D01*
X0363857Y0053495D01*
X0363823Y0053429D01*
X0363785Y0053365D01*
X0363744Y0053302D01*
X0363700Y0053242D01*
X0363653Y0053184D01*
X0363602Y0053129D01*
X0363549Y0053077D01*
X0363493Y0053027D01*
X0363435Y0052981D01*
X0363374Y0052937D01*
X0363311Y0052897D01*
X0363246Y0052860D01*
X0363180Y0052827D01*
X0363111Y0052797D01*
X0363041Y0052771D01*
X0362970Y0052749D01*
X0362898Y0052730D01*
X0362824Y0052716D01*
X0362751Y0052705D01*
X0362676Y0052698D01*
X0362602Y0052695D01*
X0362527Y0052696D01*
X0362453Y0052701D01*
X0362378Y0052710D01*
X0362305Y0052723D01*
X0362232Y0052739D01*
X0362160Y0052760D01*
X0362090Y0052784D01*
X0362020Y0052812D01*
X0361953Y0052843D01*
X0361887Y0052878D01*
X0361823Y0052917D01*
X0361761Y0052959D01*
X0361701Y0053003D01*
X0361644Y0053052D01*
X0361590Y0053103D01*
X0361538Y0053156D01*
X0361489Y0053213D01*
X0361443Y0053272D01*
X0361401Y0053333D01*
X0361362Y0053397D01*
X0361326Y0053462D01*
X0361293Y0053529D01*
X0361264Y0053598D01*
X0361239Y0053669D01*
X0361218Y0053740D01*
X0361200Y0053813D01*
X0361187Y0053886D01*
X0361177Y0053960D01*
X0361171Y0054034D01*
X0361169Y0054109D01*
X0354770Y0048516D02*
X0354770Y0043201D01*
X0353196Y0043201D01*
X0353196Y0048516D01*
X0354770Y0048516D01*
X0353196Y0048516D02*
X0348471Y0048516D01*
X0348471Y0043201D01*
X0353196Y0043201D01*
X0348471Y0043201D02*
X0346896Y0043201D01*
X0346896Y0048516D01*
X0348471Y0048516D01*
X0318669Y0054109D02*
X0318671Y0054184D01*
X0318677Y0054258D01*
X0318687Y0054332D01*
X0318700Y0054405D01*
X0318718Y0054478D01*
X0318739Y0054549D01*
X0318764Y0054620D01*
X0318793Y0054689D01*
X0318826Y0054756D01*
X0318862Y0054821D01*
X0318901Y0054885D01*
X0318943Y0054946D01*
X0318989Y0055005D01*
X0319038Y0055062D01*
X0319090Y0055115D01*
X0319144Y0055166D01*
X0319201Y0055215D01*
X0319261Y0055259D01*
X0319323Y0055301D01*
X0319387Y0055340D01*
X0319453Y0055375D01*
X0319520Y0055406D01*
X0319590Y0055434D01*
X0319660Y0055458D01*
X0319732Y0055479D01*
X0319805Y0055495D01*
X0319878Y0055508D01*
X0319953Y0055517D01*
X0320027Y0055522D01*
X0320102Y0055523D01*
X0320176Y0055520D01*
X0320251Y0055513D01*
X0320324Y0055502D01*
X0320398Y0055488D01*
X0320470Y0055469D01*
X0320541Y0055447D01*
X0320611Y0055421D01*
X0320680Y0055391D01*
X0320746Y0055358D01*
X0320811Y0055321D01*
X0320874Y0055281D01*
X0320935Y0055237D01*
X0320993Y0055191D01*
X0321049Y0055141D01*
X0321102Y0055089D01*
X0321153Y0055034D01*
X0321200Y0054976D01*
X0321244Y0054916D01*
X0321285Y0054853D01*
X0321323Y0054789D01*
X0321357Y0054723D01*
X0321388Y0054654D01*
X0321415Y0054585D01*
X0321438Y0054514D01*
X0321457Y0054442D01*
X0321473Y0054369D01*
X0321485Y0054295D01*
X0321493Y0054221D01*
X0321497Y0054146D01*
X0321497Y0054072D01*
X0321493Y0053997D01*
X0321485Y0053923D01*
X0321473Y0053849D01*
X0321457Y0053776D01*
X0321438Y0053704D01*
X0321415Y0053633D01*
X0321388Y0053564D01*
X0321357Y0053495D01*
X0321323Y0053429D01*
X0321285Y0053365D01*
X0321244Y0053302D01*
X0321200Y0053242D01*
X0321153Y0053184D01*
X0321102Y0053129D01*
X0321049Y0053077D01*
X0320993Y0053027D01*
X0320935Y0052981D01*
X0320874Y0052937D01*
X0320811Y0052897D01*
X0320746Y0052860D01*
X0320680Y0052827D01*
X0320611Y0052797D01*
X0320541Y0052771D01*
X0320470Y0052749D01*
X0320398Y0052730D01*
X0320324Y0052716D01*
X0320251Y0052705D01*
X0320176Y0052698D01*
X0320102Y0052695D01*
X0320027Y0052696D01*
X0319953Y0052701D01*
X0319878Y0052710D01*
X0319805Y0052723D01*
X0319732Y0052739D01*
X0319660Y0052760D01*
X0319590Y0052784D01*
X0319520Y0052812D01*
X0319453Y0052843D01*
X0319387Y0052878D01*
X0319323Y0052917D01*
X0319261Y0052959D01*
X0319201Y0053003D01*
X0319144Y0053052D01*
X0319090Y0053103D01*
X0319038Y0053156D01*
X0318989Y0053213D01*
X0318943Y0053272D01*
X0318901Y0053333D01*
X0318862Y0053397D01*
X0318826Y0053462D01*
X0318793Y0053529D01*
X0318764Y0053598D01*
X0318739Y0053669D01*
X0318718Y0053740D01*
X0318700Y0053813D01*
X0318687Y0053886D01*
X0318677Y0053960D01*
X0318671Y0054034D01*
X0318669Y0054109D01*
X0277241Y0046046D02*
X0277241Y0044471D01*
X0271926Y0044471D01*
X0271926Y0039747D01*
X0277241Y0039747D01*
X0277241Y0038172D01*
X0271926Y0038172D01*
X0271926Y0039747D01*
X0277241Y0039747D02*
X0277241Y0044471D01*
X0277241Y0046046D02*
X0271926Y0046046D01*
X0271926Y0044471D01*
X0286926Y0031046D02*
X0292241Y0031046D01*
X0292241Y0029471D01*
X0286926Y0029471D01*
X0286926Y0024747D01*
X0292241Y0024747D01*
X0292241Y0023172D01*
X0286926Y0023172D01*
X0286926Y0024747D01*
X0292241Y0024747D02*
X0292241Y0029471D01*
X0286926Y0029471D02*
X0286926Y0031046D01*
X0247241Y0031046D02*
X0247241Y0029471D01*
X0241926Y0029471D01*
X0241926Y0024747D01*
X0247241Y0024747D01*
X0247241Y0023172D01*
X0241926Y0023172D01*
X0241926Y0024747D01*
X0247241Y0024747D02*
X0247241Y0029471D01*
X0247241Y0031046D02*
X0241926Y0031046D01*
X0241926Y0029471D01*
X0228669Y0054109D02*
X0228671Y0054184D01*
X0228677Y0054258D01*
X0228687Y0054332D01*
X0228700Y0054405D01*
X0228718Y0054478D01*
X0228739Y0054549D01*
X0228764Y0054620D01*
X0228793Y0054689D01*
X0228826Y0054756D01*
X0228862Y0054821D01*
X0228901Y0054885D01*
X0228943Y0054946D01*
X0228989Y0055005D01*
X0229038Y0055062D01*
X0229090Y0055115D01*
X0229144Y0055166D01*
X0229201Y0055215D01*
X0229261Y0055259D01*
X0229323Y0055301D01*
X0229387Y0055340D01*
X0229453Y0055375D01*
X0229520Y0055406D01*
X0229590Y0055434D01*
X0229660Y0055458D01*
X0229732Y0055479D01*
X0229805Y0055495D01*
X0229878Y0055508D01*
X0229953Y0055517D01*
X0230027Y0055522D01*
X0230102Y0055523D01*
X0230176Y0055520D01*
X0230251Y0055513D01*
X0230324Y0055502D01*
X0230398Y0055488D01*
X0230470Y0055469D01*
X0230541Y0055447D01*
X0230611Y0055421D01*
X0230680Y0055391D01*
X0230746Y0055358D01*
X0230811Y0055321D01*
X0230874Y0055281D01*
X0230935Y0055237D01*
X0230993Y0055191D01*
X0231049Y0055141D01*
X0231102Y0055089D01*
X0231153Y0055034D01*
X0231200Y0054976D01*
X0231244Y0054916D01*
X0231285Y0054853D01*
X0231323Y0054789D01*
X0231357Y0054723D01*
X0231388Y0054654D01*
X0231415Y0054585D01*
X0231438Y0054514D01*
X0231457Y0054442D01*
X0231473Y0054369D01*
X0231485Y0054295D01*
X0231493Y0054221D01*
X0231497Y0054146D01*
X0231497Y0054072D01*
X0231493Y0053997D01*
X0231485Y0053923D01*
X0231473Y0053849D01*
X0231457Y0053776D01*
X0231438Y0053704D01*
X0231415Y0053633D01*
X0231388Y0053564D01*
X0231357Y0053495D01*
X0231323Y0053429D01*
X0231285Y0053365D01*
X0231244Y0053302D01*
X0231200Y0053242D01*
X0231153Y0053184D01*
X0231102Y0053129D01*
X0231049Y0053077D01*
X0230993Y0053027D01*
X0230935Y0052981D01*
X0230874Y0052937D01*
X0230811Y0052897D01*
X0230746Y0052860D01*
X0230680Y0052827D01*
X0230611Y0052797D01*
X0230541Y0052771D01*
X0230470Y0052749D01*
X0230398Y0052730D01*
X0230324Y0052716D01*
X0230251Y0052705D01*
X0230176Y0052698D01*
X0230102Y0052695D01*
X0230027Y0052696D01*
X0229953Y0052701D01*
X0229878Y0052710D01*
X0229805Y0052723D01*
X0229732Y0052739D01*
X0229660Y0052760D01*
X0229590Y0052784D01*
X0229520Y0052812D01*
X0229453Y0052843D01*
X0229387Y0052878D01*
X0229323Y0052917D01*
X0229261Y0052959D01*
X0229201Y0053003D01*
X0229144Y0053052D01*
X0229090Y0053103D01*
X0229038Y0053156D01*
X0228989Y0053213D01*
X0228943Y0053272D01*
X0228901Y0053333D01*
X0228862Y0053397D01*
X0228826Y0053462D01*
X0228793Y0053529D01*
X0228764Y0053598D01*
X0228739Y0053669D01*
X0228718Y0053740D01*
X0228700Y0053813D01*
X0228687Y0053886D01*
X0228677Y0053960D01*
X0228671Y0054034D01*
X0228669Y0054109D01*
X0194741Y0031046D02*
X0189426Y0031046D01*
X0189426Y0029471D01*
X0194741Y0029471D01*
X0194741Y0024747D01*
X0189426Y0024747D01*
X0189426Y0023172D01*
X0194741Y0023172D01*
X0194741Y0024747D01*
X0189426Y0024747D02*
X0189426Y0029471D01*
X0194741Y0029471D02*
X0194741Y0031046D01*
X0177241Y0039422D02*
X0171926Y0039422D01*
X0171926Y0040997D01*
X0177241Y0040997D01*
X0177241Y0039422D01*
X0177241Y0040997D02*
X0177241Y0045721D01*
X0171926Y0045721D01*
X0171926Y0040997D01*
X0171926Y0045721D02*
X0171926Y0047296D01*
X0177241Y0047296D01*
X0177241Y0045721D01*
X0271926Y0066922D02*
X0277241Y0066922D01*
X0277241Y0068497D01*
X0271926Y0068497D01*
X0271926Y0066922D01*
X0271926Y0068497D02*
X0271926Y0073221D01*
X0277241Y0073221D01*
X0277241Y0068497D01*
X0277241Y0073221D02*
X0277241Y0074796D01*
X0271926Y0074796D01*
X0271926Y0073221D01*
X0226020Y0106951D02*
X0224446Y0106951D01*
X0224446Y0112266D01*
X0226020Y0112266D01*
X0226020Y0106951D01*
X0224446Y0106951D02*
X0219721Y0106951D01*
X0219721Y0112266D01*
X0224446Y0112266D01*
X0219721Y0112266D02*
X0218146Y0112266D01*
X0218146Y0106951D01*
X0219721Y0106951D01*
X0179770Y0110701D02*
X0179770Y0116016D01*
X0178196Y0116016D01*
X0178196Y0110701D01*
X0179770Y0110701D01*
X0178196Y0110701D02*
X0173471Y0110701D01*
X0173471Y0116016D01*
X0178196Y0116016D01*
X0173471Y0116016D02*
X0171896Y0116016D01*
X0171896Y0110701D01*
X0173471Y0110701D01*
X0128520Y0112266D02*
X0128520Y0106951D01*
X0126946Y0106951D01*
X0126946Y0112266D01*
X0128520Y0112266D01*
X0126946Y0112266D02*
X0122221Y0112266D01*
X0122221Y0106951D01*
X0126946Y0106951D01*
X0122221Y0106951D02*
X0120646Y0106951D01*
X0120646Y0112266D01*
X0122221Y0112266D01*
X0339426Y0031046D02*
X0339426Y0029471D01*
X0344741Y0029471D01*
X0344741Y0024747D01*
X0339426Y0024747D01*
X0339426Y0023172D01*
X0344741Y0023172D01*
X0344741Y0024747D01*
X0339426Y0024747D02*
X0339426Y0029471D01*
X0339426Y0031046D02*
X0344741Y0031046D01*
X0344741Y0029471D01*
X0384426Y0029471D02*
X0384426Y0024747D01*
X0389741Y0024747D01*
X0389741Y0023172D01*
X0384426Y0023172D01*
X0384426Y0024747D01*
X0389741Y0024747D02*
X0389741Y0029471D01*
X0384426Y0029471D01*
X0384426Y0031046D01*
X0389741Y0031046D01*
X0389741Y0029471D01*
X0400676Y0029471D02*
X0400676Y0024747D01*
X0405991Y0024747D01*
X0405991Y0023172D01*
X0400676Y0023172D01*
X0400676Y0024747D01*
X0405991Y0024747D02*
X0405991Y0029471D01*
X0400676Y0029471D01*
X0400676Y0031046D01*
X0405991Y0031046D01*
X0405991Y0029471D01*
X0465646Y0026016D02*
X0465646Y0020701D01*
X0467221Y0020701D01*
X0467221Y0026016D01*
X0465646Y0026016D01*
X0467221Y0026016D02*
X0471946Y0026016D01*
X0471946Y0020701D01*
X0467221Y0020701D01*
X0471946Y0020701D02*
X0473520Y0020701D01*
X0473520Y0026016D01*
X0471946Y0026016D01*
D12*
X0477183Y0025661D02*
X0477183Y0023459D01*
X0477183Y0024193D02*
X0478284Y0024193D01*
X0478651Y0024560D01*
X0478651Y0025294D01*
X0478284Y0025661D01*
X0477183Y0025661D01*
X0477917Y0024193D02*
X0478651Y0023459D01*
X0478284Y0023161D02*
X0477183Y0022060D01*
X0478651Y0022060D01*
X0479393Y0021326D02*
X0479393Y0020959D01*
X0479393Y0021326D02*
X0480861Y0022794D01*
X0480861Y0023161D01*
X0479393Y0023161D01*
X0479393Y0023459D02*
X0480861Y0023459D01*
X0480127Y0023459D02*
X0480127Y0025661D01*
X0479393Y0024927D01*
X0478284Y0023161D02*
X0478284Y0020959D01*
X0481603Y0021326D02*
X0483071Y0022794D01*
X0483071Y0021326D01*
X0482704Y0020959D01*
X0481970Y0020959D01*
X0481603Y0021326D01*
X0481603Y0022794D01*
X0481970Y0023161D01*
X0482704Y0023161D01*
X0483071Y0022794D01*
X0482704Y0023459D02*
X0481970Y0023459D01*
X0481603Y0023826D01*
X0481603Y0024193D01*
X0481970Y0024560D01*
X0482704Y0024560D01*
X0483071Y0024193D01*
X0483071Y0023826D01*
X0482704Y0023459D01*
X0482704Y0024560D02*
X0483071Y0024927D01*
X0483071Y0025294D01*
X0482704Y0025661D01*
X0481970Y0025661D01*
X0481603Y0025294D01*
X0481603Y0024927D01*
X0481970Y0024560D01*
X0483813Y0023161D02*
X0484914Y0023161D01*
X0485281Y0022794D01*
X0485281Y0022060D01*
X0484914Y0021693D01*
X0483813Y0021693D01*
X0484547Y0021693D02*
X0485281Y0020959D01*
X0483813Y0020959D02*
X0483813Y0023161D01*
X0410571Y0036209D02*
X0410571Y0037677D01*
X0409103Y0037677D02*
X0409103Y0036576D01*
X0409470Y0036209D01*
X0410571Y0036209D01*
X0408361Y0036209D02*
X0406893Y0036209D01*
X0408361Y0037677D01*
X0408361Y0038044D01*
X0407994Y0038411D01*
X0407260Y0038411D01*
X0406893Y0038044D01*
X0406151Y0038044D02*
X0405784Y0038411D01*
X0405050Y0038411D01*
X0404683Y0038044D01*
X0406151Y0038044D02*
X0406151Y0037677D01*
X0404683Y0036209D01*
X0406151Y0036209D01*
X0400861Y0036209D02*
X0399393Y0036209D01*
X0400861Y0037677D01*
X0400861Y0038044D01*
X0400494Y0038411D01*
X0399760Y0038411D01*
X0399393Y0038044D01*
X0398651Y0038044D02*
X0398284Y0038411D01*
X0397550Y0038411D01*
X0397183Y0038044D01*
X0397183Y0036576D01*
X0397550Y0036209D01*
X0398284Y0036209D01*
X0398651Y0036576D01*
X0389483Y0036919D02*
X0389116Y0036919D01*
X0387648Y0038387D01*
X0387281Y0038387D01*
X0387281Y0036919D01*
X0386983Y0036919D02*
X0385515Y0038387D01*
X0385148Y0038387D01*
X0384781Y0038020D01*
X0384781Y0037286D01*
X0385148Y0036919D01*
X0385148Y0036177D02*
X0385882Y0036177D01*
X0386249Y0035810D01*
X0386249Y0034709D01*
X0386249Y0035443D02*
X0386983Y0036177D01*
X0387281Y0035810D02*
X0388382Y0034709D01*
X0388382Y0036177D01*
X0389483Y0035810D02*
X0387281Y0035810D01*
X0386983Y0034709D02*
X0384781Y0034709D01*
X0384781Y0035810D01*
X0385148Y0036177D01*
X0386983Y0036919D02*
X0386983Y0038387D01*
X0386616Y0039129D02*
X0385148Y0040596D01*
X0386616Y0040596D01*
X0386983Y0040229D01*
X0386983Y0039495D01*
X0386616Y0039129D01*
X0385148Y0039129D01*
X0384781Y0039495D01*
X0384781Y0040229D01*
X0385148Y0040596D01*
X0387281Y0040229D02*
X0387648Y0040596D01*
X0389116Y0039129D01*
X0389483Y0039495D01*
X0389483Y0040229D01*
X0389116Y0040596D01*
X0387648Y0040596D01*
X0387281Y0040229D02*
X0387281Y0039495D01*
X0387648Y0039129D01*
X0389116Y0039129D01*
X0388749Y0041338D02*
X0388749Y0042439D01*
X0388382Y0042806D01*
X0387648Y0042806D01*
X0387281Y0042439D01*
X0387281Y0041338D01*
X0389483Y0041338D01*
X0388749Y0042072D02*
X0389483Y0042806D01*
X0389824Y0052309D02*
X0390191Y0052676D01*
X0390191Y0054144D01*
X0389824Y0054511D01*
X0389090Y0054511D01*
X0388723Y0054144D01*
X0388723Y0053777D01*
X0389090Y0053410D01*
X0390191Y0053410D01*
X0389824Y0052309D02*
X0389090Y0052309D01*
X0388723Y0052676D01*
X0387981Y0052309D02*
X0386514Y0052309D01*
X0387247Y0052309D02*
X0387247Y0054511D01*
X0386514Y0053777D01*
X0385772Y0053777D02*
X0385405Y0053410D01*
X0384671Y0053410D01*
X0384304Y0053777D01*
X0384304Y0054144D01*
X0384671Y0054511D01*
X0385405Y0054511D01*
X0385772Y0054144D01*
X0385772Y0053777D01*
X0385405Y0053410D02*
X0385772Y0053043D01*
X0385772Y0052676D01*
X0385405Y0052309D01*
X0384671Y0052309D01*
X0384304Y0052676D01*
X0384304Y0053043D01*
X0384671Y0053410D01*
X0383562Y0053410D02*
X0383562Y0052676D01*
X0383195Y0052309D01*
X0382461Y0052309D01*
X0382094Y0052676D01*
X0382094Y0053410D02*
X0382828Y0053777D01*
X0383195Y0053777D01*
X0383562Y0053410D01*
X0383562Y0054511D02*
X0382094Y0054511D01*
X0382094Y0053410D01*
X0377941Y0053176D02*
X0377941Y0054644D01*
X0377574Y0055011D01*
X0376473Y0055011D01*
X0376473Y0052809D01*
X0377574Y0052809D01*
X0377941Y0053176D01*
X0375731Y0052809D02*
X0374264Y0052809D01*
X0375731Y0054277D01*
X0375731Y0054644D01*
X0375364Y0055011D01*
X0374630Y0055011D01*
X0374264Y0054644D01*
X0373522Y0054644D02*
X0373522Y0054277D01*
X0373155Y0053910D01*
X0373522Y0053543D01*
X0373522Y0053176D01*
X0373155Y0052809D01*
X0372421Y0052809D01*
X0372054Y0053176D01*
X0371312Y0053176D02*
X0370945Y0052809D01*
X0370211Y0052809D01*
X0369844Y0053176D01*
X0369844Y0053910D02*
X0370578Y0054277D01*
X0370945Y0054277D01*
X0371312Y0053910D01*
X0371312Y0053176D01*
X0369844Y0053910D02*
X0369844Y0055011D01*
X0371312Y0055011D01*
X0372054Y0054644D02*
X0372421Y0055011D01*
X0373155Y0055011D01*
X0373522Y0054644D01*
X0373155Y0053910D02*
X0372788Y0053910D01*
X0369102Y0053910D02*
X0369102Y0053176D01*
X0368735Y0052809D01*
X0368001Y0052809D01*
X0367634Y0053176D01*
X0367634Y0053910D02*
X0368368Y0054277D01*
X0368735Y0054277D01*
X0369102Y0053910D01*
X0369102Y0055011D02*
X0367634Y0055011D01*
X0367634Y0053910D01*
X0366892Y0055011D02*
X0365424Y0055011D01*
X0365424Y0052809D01*
X0366892Y0052809D01*
X0366158Y0053910D02*
X0365424Y0053910D01*
X0364682Y0052809D02*
X0364682Y0055011D01*
X0363214Y0055011D02*
X0364682Y0052809D01*
X0363214Y0052809D02*
X0363214Y0055011D01*
X0372290Y0059309D02*
X0373024Y0059309D01*
X0372657Y0059309D02*
X0372657Y0061511D01*
X0372290Y0061511D02*
X0373024Y0061511D01*
X0373764Y0061144D02*
X0373764Y0059676D01*
X0374131Y0059309D01*
X0374864Y0059309D01*
X0375231Y0059676D01*
X0375973Y0059676D02*
X0376340Y0059309D01*
X0377074Y0059309D01*
X0377441Y0059676D01*
X0377441Y0060410D01*
X0377074Y0060777D01*
X0376707Y0060777D01*
X0375973Y0060410D01*
X0375973Y0061511D01*
X0377441Y0061511D01*
X0375231Y0061144D02*
X0374864Y0061511D01*
X0374131Y0061511D01*
X0373764Y0061144D01*
X0382183Y0060810D02*
X0382917Y0061177D01*
X0383284Y0061177D01*
X0383651Y0060810D01*
X0383651Y0060076D01*
X0383284Y0059709D01*
X0382550Y0059709D01*
X0382183Y0060076D01*
X0382183Y0060810D02*
X0382183Y0061911D01*
X0383651Y0061911D01*
X0384393Y0061544D02*
X0384760Y0061911D01*
X0385494Y0061911D01*
X0385861Y0061544D01*
X0385861Y0061177D01*
X0385494Y0060810D01*
X0384760Y0060810D01*
X0384393Y0061177D01*
X0384393Y0061544D01*
X0384760Y0060810D02*
X0384393Y0060443D01*
X0384393Y0060076D01*
X0384760Y0059709D01*
X0385494Y0059709D01*
X0385861Y0060076D01*
X0385861Y0060443D01*
X0385494Y0060810D01*
X0386603Y0061177D02*
X0387337Y0061911D01*
X0387337Y0059709D01*
X0386603Y0059709D02*
X0388071Y0059709D01*
X0388813Y0060076D02*
X0389180Y0059709D01*
X0389914Y0059709D01*
X0390281Y0060076D01*
X0390281Y0061544D01*
X0389914Y0061911D01*
X0389180Y0061911D01*
X0388813Y0061544D01*
X0388813Y0061177D01*
X0389180Y0060810D01*
X0390281Y0060810D01*
X0384973Y0077309D02*
X0384973Y0077676D01*
X0386441Y0079144D01*
X0386441Y0079511D01*
X0384973Y0079511D01*
X0385342Y0079809D02*
X0385342Y0082011D01*
X0386443Y0081277D02*
X0385342Y0080543D01*
X0386443Y0079809D01*
X0384600Y0079809D02*
X0383132Y0079809D01*
X0383498Y0079511D02*
X0383498Y0077309D01*
X0384231Y0077309D02*
X0382764Y0077309D01*
X0382022Y0077309D02*
X0381288Y0078043D01*
X0381655Y0078043D02*
X0380554Y0078043D01*
X0380554Y0077309D02*
X0380554Y0079511D01*
X0381655Y0079511D01*
X0382022Y0079144D01*
X0382022Y0078410D01*
X0381655Y0078043D01*
X0382764Y0078777D02*
X0383498Y0079511D01*
X0383866Y0079809D02*
X0383866Y0082011D01*
X0383132Y0081277D01*
X0382390Y0080910D02*
X0382390Y0080176D01*
X0382023Y0079809D01*
X0381289Y0079809D01*
X0380922Y0080176D01*
X0380922Y0080910D02*
X0381656Y0081277D01*
X0382023Y0081277D01*
X0382390Y0080910D01*
X0382390Y0082011D02*
X0380922Y0082011D01*
X0380922Y0080910D01*
X0380921Y0084809D02*
X0381655Y0084809D01*
X0382022Y0085176D01*
X0382764Y0084809D02*
X0384231Y0086277D01*
X0384231Y0086644D01*
X0383864Y0087011D01*
X0383131Y0087011D01*
X0382764Y0086644D01*
X0383500Y0086575D02*
X0383500Y0088777D01*
X0384601Y0088777D01*
X0384968Y0088410D01*
X0384968Y0087676D01*
X0384601Y0087309D01*
X0383500Y0087309D01*
X0382758Y0087676D02*
X0382391Y0087309D01*
X0381657Y0087309D01*
X0381290Y0087676D01*
X0382758Y0089144D01*
X0382758Y0087676D01*
X0382022Y0086644D02*
X0381655Y0087011D01*
X0380921Y0087011D01*
X0380554Y0086644D01*
X0380554Y0085176D01*
X0380921Y0084809D01*
X0382764Y0084809D02*
X0384231Y0084809D01*
X0384973Y0084809D02*
X0384973Y0085176D01*
X0386441Y0086644D01*
X0386441Y0087011D01*
X0384973Y0087011D01*
X0386077Y0087309D02*
X0386077Y0089144D01*
X0386444Y0089511D01*
X0386444Y0088410D02*
X0385710Y0088410D01*
X0382758Y0089144D02*
X0382391Y0089511D01*
X0381657Y0089511D01*
X0381290Y0089144D01*
X0381290Y0087676D01*
X0380548Y0087309D02*
X0379080Y0087309D01*
X0380548Y0088777D01*
X0380548Y0089144D01*
X0380181Y0089511D01*
X0379447Y0089511D01*
X0379080Y0089144D01*
X0378338Y0089144D02*
X0377971Y0089511D01*
X0377237Y0089511D01*
X0376871Y0089144D01*
X0378338Y0089144D02*
X0378338Y0088777D01*
X0376871Y0087309D01*
X0378338Y0087309D01*
X0380554Y0092309D02*
X0380554Y0094511D01*
X0381655Y0094511D01*
X0382022Y0094144D01*
X0382022Y0093410D01*
X0381655Y0093043D01*
X0380554Y0093043D01*
X0381288Y0093043D02*
X0382022Y0092309D01*
X0382764Y0092309D02*
X0384231Y0092309D01*
X0383498Y0092309D02*
X0383498Y0094511D01*
X0382764Y0093777D01*
X0382394Y0094809D02*
X0382027Y0094809D01*
X0382027Y0095176D01*
X0382394Y0095176D01*
X0382394Y0094809D01*
X0383132Y0095176D02*
X0383132Y0095543D01*
X0383499Y0095910D01*
X0384233Y0095910D01*
X0384600Y0095543D01*
X0384600Y0095176D01*
X0384233Y0094809D01*
X0383499Y0094809D01*
X0383132Y0095176D01*
X0383499Y0095910D02*
X0383132Y0096277D01*
X0383132Y0096644D01*
X0383499Y0097011D01*
X0384233Y0097011D01*
X0384600Y0096644D01*
X0384600Y0096277D01*
X0384233Y0095910D01*
X0385342Y0095543D02*
X0386443Y0096277D01*
X0385342Y0097011D02*
X0385342Y0094809D01*
X0385342Y0095543D02*
X0386443Y0094809D01*
X0386441Y0094511D02*
X0385707Y0094144D01*
X0384973Y0093410D01*
X0386074Y0093410D01*
X0386441Y0093043D01*
X0386441Y0092676D01*
X0386074Y0092309D01*
X0385340Y0092309D01*
X0384973Y0092676D01*
X0384973Y0093410D01*
X0381285Y0094809D02*
X0379817Y0094809D01*
X0380551Y0094809D02*
X0380551Y0097011D01*
X0379817Y0096277D01*
X0380921Y0099809D02*
X0381655Y0099809D01*
X0382022Y0100176D01*
X0382764Y0099809D02*
X0384231Y0101277D01*
X0384231Y0101644D01*
X0383864Y0102011D01*
X0383131Y0102011D01*
X0382764Y0101644D01*
X0382764Y0102309D02*
X0382764Y0102676D01*
X0384231Y0104144D01*
X0384231Y0104511D01*
X0382764Y0104511D01*
X0382026Y0102676D02*
X0382026Y0102309D01*
X0381659Y0102309D01*
X0381659Y0102676D01*
X0382026Y0102676D01*
X0381655Y0102011D02*
X0380921Y0102011D01*
X0380554Y0101644D01*
X0380554Y0100176D01*
X0380921Y0099809D01*
X0382764Y0099809D02*
X0384231Y0099809D01*
X0384973Y0100176D02*
X0386441Y0101644D01*
X0386441Y0100176D01*
X0386074Y0099809D01*
X0385340Y0099809D01*
X0384973Y0100176D01*
X0384973Y0101644D01*
X0385340Y0102011D01*
X0386074Y0102011D01*
X0386441Y0101644D01*
X0386441Y0102309D02*
X0386441Y0103410D01*
X0386074Y0103777D01*
X0384973Y0103777D01*
X0384973Y0102309D01*
X0382022Y0101644D02*
X0381655Y0102011D01*
X0380550Y0102309D02*
X0380550Y0104511D01*
X0379449Y0103410D01*
X0380917Y0103410D01*
X0380921Y0109809D02*
X0381655Y0109809D01*
X0382022Y0110176D01*
X0382764Y0110176D02*
X0383131Y0109809D01*
X0383864Y0109809D01*
X0384231Y0110176D01*
X0384231Y0110543D01*
X0383864Y0110910D01*
X0383498Y0110910D01*
X0383864Y0110910D02*
X0384231Y0111277D01*
X0384231Y0111644D01*
X0383864Y0112011D01*
X0383131Y0112011D01*
X0382764Y0111644D01*
X0382022Y0111644D02*
X0381655Y0112011D01*
X0380921Y0112011D01*
X0380554Y0111644D01*
X0380554Y0110176D01*
X0380921Y0109809D01*
X0384973Y0109809D02*
X0384973Y0110176D01*
X0386441Y0111644D01*
X0386441Y0112011D01*
X0384973Y0112011D01*
X0391514Y0113559D02*
X0391514Y0115761D01*
X0392981Y0113559D01*
X0392981Y0115761D01*
X0393723Y0115761D02*
X0394824Y0115761D01*
X0395191Y0115394D01*
X0395191Y0114660D01*
X0394824Y0114293D01*
X0393723Y0114293D01*
X0393723Y0113559D02*
X0393723Y0115761D01*
X0417183Y0111544D02*
X0417183Y0110076D01*
X0417550Y0109709D01*
X0418284Y0109709D01*
X0418651Y0110076D01*
X0418651Y0109411D02*
X0418651Y0107209D01*
X0417183Y0109411D01*
X0417183Y0107209D01*
X0419393Y0107209D02*
X0419393Y0109411D01*
X0420494Y0109411D01*
X0420861Y0109044D01*
X0420861Y0108310D01*
X0420494Y0107943D01*
X0419393Y0107943D01*
X0419760Y0109709D02*
X0419393Y0110076D01*
X0419760Y0109709D02*
X0420494Y0109709D01*
X0420861Y0110076D01*
X0420861Y0110443D01*
X0420494Y0110810D01*
X0420127Y0110810D01*
X0420494Y0110810D02*
X0420861Y0111177D01*
X0420861Y0111544D01*
X0420494Y0111911D01*
X0419760Y0111911D01*
X0419393Y0111544D01*
X0418651Y0111544D02*
X0418284Y0111911D01*
X0417550Y0111911D01*
X0417183Y0111544D01*
X0421603Y0111544D02*
X0421603Y0111177D01*
X0421970Y0110810D01*
X0422704Y0110810D01*
X0423071Y0110443D01*
X0423071Y0110076D01*
X0422704Y0109709D01*
X0421970Y0109709D01*
X0421603Y0110076D01*
X0421603Y0110443D01*
X0421970Y0110810D01*
X0422704Y0110810D02*
X0423071Y0111177D01*
X0423071Y0111544D01*
X0422704Y0111911D01*
X0421970Y0111911D01*
X0421603Y0111544D01*
X0368071Y0105661D02*
X0367337Y0105294D01*
X0366603Y0104560D01*
X0367704Y0104560D01*
X0368071Y0104193D01*
X0368071Y0103826D01*
X0367704Y0103459D01*
X0366970Y0103459D01*
X0366603Y0103826D01*
X0366603Y0104560D01*
X0365861Y0104927D02*
X0365494Y0104560D01*
X0365861Y0104193D01*
X0365861Y0103826D01*
X0365494Y0103459D01*
X0364760Y0103459D01*
X0364393Y0103826D01*
X0363651Y0103826D02*
X0363284Y0103459D01*
X0362550Y0103459D01*
X0362183Y0103826D01*
X0362183Y0105294D01*
X0362550Y0105661D01*
X0363284Y0105661D01*
X0363651Y0105294D01*
X0364393Y0105294D02*
X0364760Y0105661D01*
X0365494Y0105661D01*
X0365861Y0105294D01*
X0365861Y0104927D01*
X0365494Y0104560D02*
X0365127Y0104560D01*
X0364901Y0113459D02*
X0364901Y0115661D01*
X0365643Y0115661D02*
X0365643Y0113459D01*
X0365643Y0114193D02*
X0366744Y0114193D01*
X0367111Y0114560D01*
X0367111Y0115294D01*
X0366744Y0115661D01*
X0365643Y0115661D01*
X0363433Y0115661D02*
X0364901Y0113459D01*
X0363433Y0113459D02*
X0363433Y0115661D01*
X0341441Y0110910D02*
X0341441Y0109809D01*
X0341074Y0109511D02*
X0340340Y0109511D01*
X0339973Y0109144D01*
X0339973Y0108777D01*
X0340340Y0108410D01*
X0341441Y0108410D01*
X0341441Y0107676D02*
X0341441Y0109144D01*
X0341074Y0109511D01*
X0339973Y0109809D02*
X0339973Y0111277D01*
X0341074Y0111277D01*
X0341441Y0110910D01*
X0339231Y0111277D02*
X0339231Y0111644D01*
X0338864Y0112011D01*
X0338131Y0112011D01*
X0337764Y0111644D01*
X0339231Y0111277D02*
X0337764Y0109809D01*
X0339231Y0109809D01*
X0338498Y0109511D02*
X0338498Y0107309D01*
X0339231Y0107309D02*
X0337764Y0107309D01*
X0337022Y0107676D02*
X0336655Y0107309D01*
X0335921Y0107309D01*
X0335554Y0107676D01*
X0335554Y0109144D01*
X0335921Y0109511D01*
X0336655Y0109511D01*
X0337022Y0109144D01*
X0337026Y0109809D02*
X0336659Y0109809D01*
X0336659Y0110176D01*
X0337026Y0110176D01*
X0337026Y0109809D01*
X0335917Y0109809D02*
X0334449Y0109809D01*
X0335917Y0111277D01*
X0335917Y0111644D01*
X0335550Y0112011D01*
X0334816Y0112011D01*
X0334449Y0111644D01*
X0337764Y0108777D02*
X0338498Y0109511D01*
X0339973Y0107676D02*
X0340340Y0107309D01*
X0341074Y0107309D01*
X0341441Y0107676D01*
X0338864Y0104511D02*
X0339231Y0104144D01*
X0337764Y0102676D01*
X0338131Y0102309D01*
X0338864Y0102309D01*
X0339231Y0102676D01*
X0339231Y0104144D01*
X0338864Y0104511D02*
X0338131Y0104511D01*
X0337764Y0104144D01*
X0337764Y0102676D01*
X0337022Y0102309D02*
X0335554Y0102309D01*
X0335921Y0102011D02*
X0335554Y0101644D01*
X0335554Y0100176D01*
X0335921Y0099809D01*
X0336655Y0099809D01*
X0337022Y0100176D01*
X0337764Y0099809D02*
X0339231Y0099809D01*
X0338498Y0099809D02*
X0338498Y0102011D01*
X0337764Y0101277D01*
X0337022Y0101644D02*
X0336655Y0102011D01*
X0335921Y0102011D01*
X0336288Y0102309D02*
X0336288Y0104511D01*
X0335554Y0103777D01*
X0339973Y0103777D02*
X0341074Y0103777D01*
X0341441Y0103410D01*
X0341441Y0102309D01*
X0341074Y0102011D02*
X0341441Y0101644D01*
X0341441Y0101277D01*
X0341074Y0100910D01*
X0340340Y0100910D01*
X0339973Y0101277D01*
X0339973Y0101644D01*
X0340340Y0102011D01*
X0341074Y0102011D01*
X0341074Y0100910D02*
X0341441Y0100543D01*
X0341441Y0100176D01*
X0341074Y0099809D01*
X0340340Y0099809D01*
X0339973Y0100176D01*
X0339973Y0100543D01*
X0340340Y0100910D01*
X0339973Y0102309D02*
X0339973Y0103777D01*
X0340342Y0097011D02*
X0340342Y0094809D01*
X0340342Y0095543D02*
X0341443Y0096277D01*
X0340342Y0095543D02*
X0341443Y0094809D01*
X0341074Y0094511D02*
X0339973Y0093410D01*
X0341441Y0093410D01*
X0341074Y0092309D02*
X0341074Y0094511D01*
X0339600Y0095176D02*
X0339233Y0094809D01*
X0338499Y0094809D01*
X0338132Y0095176D01*
X0338132Y0095543D01*
X0338499Y0095910D01*
X0339233Y0095910D01*
X0339600Y0095543D01*
X0339600Y0095176D01*
X0339233Y0095910D02*
X0339600Y0096277D01*
X0339600Y0096644D01*
X0339233Y0097011D01*
X0338499Y0097011D01*
X0338132Y0096644D01*
X0338132Y0096277D01*
X0338499Y0095910D01*
X0337394Y0095176D02*
X0337394Y0094809D01*
X0337027Y0094809D01*
X0337027Y0095176D01*
X0337394Y0095176D01*
X0336655Y0094511D02*
X0337022Y0094144D01*
X0337022Y0093410D01*
X0336655Y0093043D01*
X0335554Y0093043D01*
X0336288Y0093043D02*
X0337022Y0092309D01*
X0337764Y0092309D02*
X0339231Y0092309D01*
X0338498Y0092309D02*
X0338498Y0094511D01*
X0337764Y0093777D01*
X0336655Y0094511D02*
X0335554Y0094511D01*
X0335554Y0092309D01*
X0335548Y0089511D02*
X0334080Y0089511D01*
X0332971Y0089511D02*
X0331871Y0088410D01*
X0333338Y0088410D01*
X0334080Y0087676D02*
X0334080Y0087309D01*
X0334080Y0087676D02*
X0335548Y0089144D01*
X0335548Y0089511D01*
X0336290Y0089144D02*
X0336657Y0089511D01*
X0337391Y0089511D01*
X0337758Y0089144D01*
X0336290Y0087676D01*
X0336657Y0087309D01*
X0337391Y0087309D01*
X0337758Y0087676D01*
X0337758Y0089144D01*
X0338500Y0088777D02*
X0339601Y0088777D01*
X0339968Y0088410D01*
X0339968Y0087676D01*
X0339601Y0087309D01*
X0338500Y0087309D01*
X0338864Y0087011D02*
X0338131Y0087011D01*
X0337764Y0086644D01*
X0338500Y0086575D02*
X0338500Y0088777D01*
X0338864Y0087011D02*
X0339231Y0086644D01*
X0339231Y0086277D01*
X0337764Y0084809D01*
X0339231Y0084809D01*
X0339973Y0085176D02*
X0340340Y0084809D01*
X0341074Y0084809D01*
X0341441Y0085176D01*
X0341441Y0085543D01*
X0341074Y0085910D01*
X0339973Y0085910D01*
X0339973Y0085176D01*
X0339973Y0085910D02*
X0340707Y0086644D01*
X0341441Y0087011D01*
X0341077Y0087309D02*
X0341077Y0089144D01*
X0341444Y0089511D01*
X0341444Y0088410D02*
X0340710Y0088410D01*
X0337022Y0086644D02*
X0336655Y0087011D01*
X0335921Y0087011D01*
X0335554Y0086644D01*
X0335554Y0085176D01*
X0335921Y0084809D01*
X0336655Y0084809D01*
X0337022Y0085176D01*
X0337390Y0082011D02*
X0336656Y0081644D01*
X0335922Y0080910D01*
X0337023Y0080910D01*
X0337390Y0080543D01*
X0337390Y0080176D01*
X0337023Y0079809D01*
X0336289Y0079809D01*
X0335922Y0080176D01*
X0335922Y0080910D01*
X0335554Y0079511D02*
X0336655Y0079511D01*
X0337022Y0079144D01*
X0337022Y0078410D01*
X0336655Y0078043D01*
X0335554Y0078043D01*
X0336288Y0078043D02*
X0337022Y0077309D01*
X0337764Y0077309D02*
X0339231Y0077309D01*
X0338498Y0077309D02*
X0338498Y0079511D01*
X0337764Y0078777D01*
X0338132Y0079809D02*
X0339600Y0081277D01*
X0339600Y0081644D01*
X0339233Y0082011D01*
X0338499Y0082011D01*
X0338132Y0081644D01*
X0338132Y0079809D02*
X0339600Y0079809D01*
X0339973Y0079511D02*
X0339973Y0078410D01*
X0340707Y0078777D01*
X0341074Y0078777D01*
X0341441Y0078410D01*
X0341441Y0077676D01*
X0341074Y0077309D01*
X0340340Y0077309D01*
X0339973Y0077676D01*
X0339973Y0079511D02*
X0341441Y0079511D01*
X0341443Y0079809D02*
X0340342Y0080543D01*
X0341443Y0081277D01*
X0340342Y0082011D02*
X0340342Y0079809D01*
X0335554Y0079511D02*
X0335554Y0077309D01*
X0347094Y0072527D02*
X0347828Y0073261D01*
X0347828Y0071059D01*
X0347094Y0071059D02*
X0348562Y0071059D01*
X0349304Y0071426D02*
X0349671Y0071059D01*
X0350405Y0071059D01*
X0350772Y0071426D01*
X0350772Y0072894D01*
X0349304Y0071426D01*
X0349304Y0072894D01*
X0349671Y0073261D01*
X0350405Y0073261D01*
X0350772Y0072894D01*
X0351514Y0072894D02*
X0351881Y0073261D01*
X0352614Y0073261D01*
X0352981Y0072894D01*
X0351514Y0071426D01*
X0351881Y0071059D01*
X0352614Y0071059D01*
X0352981Y0071426D01*
X0352981Y0072894D01*
X0353723Y0072527D02*
X0354824Y0072527D01*
X0355191Y0072160D01*
X0355191Y0071059D01*
X0353723Y0071059D02*
X0353723Y0072527D01*
X0351514Y0072894D02*
X0351514Y0071426D01*
X0351364Y0063261D02*
X0350631Y0063261D01*
X0350264Y0062894D01*
X0349522Y0062894D02*
X0349155Y0063261D01*
X0348421Y0063261D01*
X0348054Y0062894D01*
X0348054Y0061426D01*
X0348421Y0061059D01*
X0349155Y0061059D01*
X0349522Y0061426D01*
X0350264Y0061059D02*
X0351731Y0062527D01*
X0351731Y0062894D01*
X0351364Y0063261D01*
X0352473Y0062894D02*
X0352473Y0062527D01*
X0352840Y0062160D01*
X0353941Y0062160D01*
X0353941Y0062894D02*
X0353574Y0063261D01*
X0352840Y0063261D01*
X0352473Y0062894D01*
X0352473Y0061426D02*
X0352840Y0061059D01*
X0353574Y0061059D01*
X0353941Y0061426D01*
X0353941Y0062894D01*
X0351731Y0061059D02*
X0350264Y0061059D01*
X0335441Y0054644D02*
X0335074Y0055011D01*
X0333973Y0055011D01*
X0333973Y0052809D01*
X0335074Y0052809D01*
X0335441Y0053176D01*
X0335441Y0054644D01*
X0333231Y0054644D02*
X0333231Y0054277D01*
X0331764Y0052809D01*
X0333231Y0052809D01*
X0333231Y0054644D02*
X0332864Y0055011D01*
X0332130Y0055011D01*
X0331764Y0054644D01*
X0331022Y0054644D02*
X0331022Y0054277D01*
X0330655Y0053910D01*
X0331022Y0053543D01*
X0331022Y0053176D01*
X0330655Y0052809D01*
X0329921Y0052809D01*
X0329554Y0053176D01*
X0328812Y0053176D02*
X0328445Y0052809D01*
X0327711Y0052809D01*
X0327344Y0053176D01*
X0327344Y0053910D02*
X0328078Y0054277D01*
X0328445Y0054277D01*
X0328812Y0053910D01*
X0328812Y0053176D01*
X0327344Y0053910D02*
X0327344Y0055011D01*
X0328812Y0055011D01*
X0329554Y0054644D02*
X0329921Y0055011D01*
X0330655Y0055011D01*
X0331022Y0054644D01*
X0330655Y0053910D02*
X0330288Y0053910D01*
X0326602Y0053910D02*
X0326602Y0053176D01*
X0326235Y0052809D01*
X0325501Y0052809D01*
X0325134Y0053176D01*
X0325134Y0053910D02*
X0325868Y0054277D01*
X0326235Y0054277D01*
X0326602Y0053910D01*
X0326602Y0055011D02*
X0325134Y0055011D01*
X0325134Y0053910D01*
X0324392Y0055011D02*
X0322924Y0055011D01*
X0322924Y0052809D01*
X0324392Y0052809D01*
X0323658Y0053910D02*
X0322924Y0053910D01*
X0322182Y0052809D02*
X0322182Y0055011D01*
X0320714Y0055011D02*
X0322182Y0052809D01*
X0320714Y0052809D02*
X0320714Y0055011D01*
X0329790Y0059309D02*
X0330524Y0059309D01*
X0330157Y0059309D02*
X0330157Y0061511D01*
X0329790Y0061511D02*
X0330524Y0061511D01*
X0331264Y0061144D02*
X0331264Y0059676D01*
X0331631Y0059309D01*
X0332364Y0059309D01*
X0332731Y0059676D01*
X0333473Y0060410D02*
X0334941Y0060410D01*
X0334574Y0061511D02*
X0333473Y0060410D01*
X0332731Y0061144D02*
X0332364Y0061511D01*
X0331631Y0061511D01*
X0331264Y0061144D01*
X0334574Y0061511D02*
X0334574Y0059309D01*
X0345844Y0051277D02*
X0346578Y0052011D01*
X0346578Y0049809D01*
X0345844Y0049809D02*
X0347312Y0049809D01*
X0348054Y0050176D02*
X0349522Y0051644D01*
X0349522Y0050176D01*
X0349155Y0049809D01*
X0348421Y0049809D01*
X0348054Y0050176D01*
X0348054Y0051644D01*
X0348421Y0052011D01*
X0349155Y0052011D01*
X0349522Y0051644D01*
X0350264Y0051644D02*
X0350631Y0052011D01*
X0351364Y0052011D01*
X0351731Y0051644D01*
X0350264Y0050176D01*
X0350631Y0049809D01*
X0351364Y0049809D01*
X0351731Y0050176D01*
X0351731Y0051644D01*
X0352473Y0051277D02*
X0353574Y0051277D01*
X0353941Y0050910D01*
X0353941Y0049809D01*
X0352473Y0049809D02*
X0352473Y0051277D01*
X0350264Y0051644D02*
X0350264Y0050176D01*
X0344483Y0042806D02*
X0343749Y0042072D01*
X0343749Y0042439D02*
X0343749Y0041338D01*
X0344483Y0041338D02*
X0342281Y0041338D01*
X0342281Y0042439D01*
X0342648Y0042806D01*
X0343382Y0042806D01*
X0343749Y0042439D01*
X0344116Y0040596D02*
X0344483Y0040229D01*
X0344483Y0039495D01*
X0344116Y0039129D01*
X0342648Y0040596D01*
X0344116Y0040596D01*
X0344116Y0039129D02*
X0342648Y0039129D01*
X0342281Y0039495D01*
X0342281Y0040229D01*
X0342648Y0040596D01*
X0341983Y0040596D02*
X0341983Y0039129D01*
X0341983Y0039862D02*
X0339781Y0039862D01*
X0340515Y0039129D01*
X0340515Y0038387D02*
X0340148Y0038387D01*
X0339781Y0038020D01*
X0339781Y0037286D01*
X0340148Y0036919D01*
X0340148Y0036177D02*
X0340882Y0036177D01*
X0341249Y0035810D01*
X0341249Y0034709D01*
X0341249Y0035443D02*
X0341983Y0036177D01*
X0342281Y0035810D02*
X0343382Y0034709D01*
X0343382Y0036177D01*
X0344116Y0036919D02*
X0344483Y0036919D01*
X0344116Y0036919D02*
X0342648Y0038387D01*
X0342281Y0038387D01*
X0342281Y0036919D01*
X0341983Y0036919D02*
X0340515Y0038387D01*
X0341983Y0038387D02*
X0341983Y0036919D01*
X0342281Y0035810D02*
X0344483Y0035810D01*
X0341983Y0034709D02*
X0339781Y0034709D01*
X0339781Y0035810D01*
X0340148Y0036177D01*
X0348054Y0040176D02*
X0348054Y0041644D01*
X0348421Y0042011D01*
X0349155Y0042011D01*
X0349522Y0041644D01*
X0350264Y0041644D02*
X0350631Y0042011D01*
X0351364Y0042011D01*
X0351731Y0041644D01*
X0351731Y0041277D01*
X0351364Y0040910D01*
X0351731Y0040543D01*
X0351731Y0040176D01*
X0351364Y0039809D01*
X0350631Y0039809D01*
X0350264Y0040176D01*
X0349522Y0040176D02*
X0349155Y0039809D01*
X0348421Y0039809D01*
X0348054Y0040176D01*
X0350998Y0040910D02*
X0351364Y0040910D01*
X0352473Y0041644D02*
X0352840Y0042011D01*
X0353574Y0042011D01*
X0353941Y0041644D01*
X0352473Y0040176D01*
X0352840Y0039809D01*
X0353574Y0039809D01*
X0353941Y0040176D01*
X0353941Y0041644D01*
X0352473Y0041644D02*
X0352473Y0040176D01*
X0397531Y0030229D02*
X0397531Y0029495D01*
X0397898Y0029129D01*
X0398265Y0029129D01*
X0398632Y0029495D01*
X0398632Y0030596D01*
X0397898Y0030596D02*
X0397531Y0030229D01*
X0397898Y0030596D02*
X0399366Y0030596D01*
X0399733Y0030229D01*
X0399733Y0029495D01*
X0399366Y0029129D01*
X0399733Y0028387D02*
X0399733Y0026919D01*
X0399733Y0027653D02*
X0397531Y0027653D01*
X0398265Y0026919D01*
X0397898Y0026177D02*
X0398632Y0026177D01*
X0398999Y0025810D01*
X0398999Y0024709D01*
X0398999Y0025443D02*
X0399733Y0026177D01*
X0399733Y0024709D02*
X0397531Y0024709D01*
X0397531Y0025810D01*
X0397898Y0026177D01*
X0407531Y0026887D02*
X0407531Y0025419D01*
X0407531Y0024310D02*
X0408632Y0023209D01*
X0408632Y0024677D01*
X0409366Y0025419D02*
X0409733Y0025419D01*
X0409366Y0025419D02*
X0407898Y0026887D01*
X0407531Y0026887D01*
X0407898Y0027629D02*
X0407531Y0027995D01*
X0407531Y0028729D01*
X0407898Y0029096D01*
X0409366Y0027629D01*
X0409733Y0027995D01*
X0409733Y0028729D01*
X0409366Y0029096D01*
X0407898Y0029096D01*
X0407531Y0029838D02*
X0407531Y0030939D01*
X0407898Y0031306D01*
X0408632Y0031306D01*
X0408999Y0030939D01*
X0408999Y0029838D01*
X0409733Y0029838D02*
X0407531Y0029838D01*
X0408999Y0030572D02*
X0409733Y0031306D01*
X0409366Y0027629D02*
X0407898Y0027629D01*
X0407531Y0024310D02*
X0409733Y0024310D01*
X0409901Y0075959D02*
X0408433Y0075959D01*
X0409901Y0077427D01*
X0409901Y0077794D01*
X0409534Y0078161D01*
X0408800Y0078161D01*
X0408433Y0077794D01*
X0406377Y0078161D02*
X0406377Y0075959D01*
X0405643Y0075959D02*
X0407111Y0075959D01*
X0405643Y0077427D02*
X0406377Y0078161D01*
X0404901Y0077794D02*
X0404534Y0078161D01*
X0403800Y0078161D01*
X0403433Y0077794D01*
X0403433Y0076326D01*
X0403800Y0075959D01*
X0404534Y0075959D01*
X0404901Y0076326D01*
X0410643Y0075959D02*
X0412111Y0077427D01*
X0412111Y0077794D01*
X0411744Y0078161D01*
X0411010Y0078161D01*
X0410643Y0077794D01*
X0410643Y0075959D02*
X0412111Y0075959D01*
X0412853Y0076326D02*
X0413220Y0075959D01*
X0414321Y0075959D01*
X0414321Y0077427D01*
X0412853Y0077427D02*
X0412853Y0076326D01*
X0336290Y0087676D02*
X0336290Y0089144D01*
X0332971Y0089511D02*
X0332971Y0087309D01*
X0334817Y0094809D02*
X0336285Y0094809D01*
X0335551Y0094809D02*
X0335551Y0097011D01*
X0334817Y0096277D01*
X0321441Y0103926D02*
X0321074Y0103559D01*
X0320340Y0103559D01*
X0319973Y0103926D01*
X0319973Y0104660D02*
X0320707Y0105027D01*
X0321074Y0105027D01*
X0321441Y0104660D01*
X0321441Y0103926D01*
X0319973Y0104660D02*
X0319973Y0105761D01*
X0321441Y0105761D01*
X0319231Y0105394D02*
X0319231Y0105027D01*
X0318864Y0104660D01*
X0319231Y0104293D01*
X0319231Y0103926D01*
X0318864Y0103559D01*
X0318131Y0103559D01*
X0317764Y0103926D01*
X0317022Y0103926D02*
X0316655Y0103559D01*
X0315921Y0103559D01*
X0315554Y0103926D01*
X0315554Y0105394D01*
X0315921Y0105761D01*
X0316655Y0105761D01*
X0317022Y0105394D01*
X0317764Y0105394D02*
X0318131Y0105761D01*
X0318864Y0105761D01*
X0319231Y0105394D01*
X0318864Y0104660D02*
X0318498Y0104660D01*
X0319231Y0113559D02*
X0319231Y0115761D01*
X0319973Y0115761D02*
X0321074Y0115761D01*
X0321441Y0115394D01*
X0321441Y0114660D01*
X0321074Y0114293D01*
X0319973Y0114293D01*
X0319973Y0113559D02*
X0319973Y0115761D01*
X0317764Y0115761D02*
X0319231Y0113559D01*
X0317764Y0113559D02*
X0317764Y0115761D01*
X0296441Y0111644D02*
X0296441Y0110910D01*
X0296074Y0110543D01*
X0294973Y0110543D01*
X0294973Y0109809D02*
X0294973Y0112011D01*
X0296074Y0112011D01*
X0296441Y0111644D01*
X0296074Y0109511D02*
X0294973Y0108410D01*
X0296441Y0108410D01*
X0296074Y0107309D02*
X0296074Y0109511D01*
X0294231Y0109809D02*
X0294231Y0112011D01*
X0292764Y0112011D02*
X0294231Y0109809D01*
X0293864Y0109511D02*
X0294231Y0109144D01*
X0294231Y0108777D01*
X0293864Y0108410D01*
X0294231Y0108043D01*
X0294231Y0107676D01*
X0293864Y0107309D01*
X0293131Y0107309D01*
X0292764Y0107676D01*
X0292022Y0107676D02*
X0291655Y0107309D01*
X0290921Y0107309D01*
X0290554Y0107676D01*
X0290554Y0109144D01*
X0290921Y0109511D01*
X0291655Y0109511D01*
X0292022Y0109144D01*
X0292764Y0109144D02*
X0293131Y0109511D01*
X0293864Y0109511D01*
X0293864Y0108410D02*
X0293498Y0108410D01*
X0292764Y0109809D02*
X0292764Y0112011D01*
X0286364Y0104511D02*
X0286731Y0104144D01*
X0286731Y0103777D01*
X0286364Y0103410D01*
X0286731Y0103043D01*
X0286731Y0102676D01*
X0286364Y0102309D01*
X0285631Y0102309D01*
X0285264Y0102676D01*
X0284522Y0102676D02*
X0284155Y0102309D01*
X0283421Y0102309D01*
X0283054Y0102676D01*
X0283421Y0102011D02*
X0283054Y0101644D01*
X0283054Y0100176D01*
X0283421Y0099809D01*
X0284155Y0099809D01*
X0284522Y0100176D01*
X0285264Y0099809D02*
X0286731Y0099809D01*
X0285998Y0099809D02*
X0285998Y0102011D01*
X0285264Y0101277D01*
X0284522Y0101644D02*
X0284155Y0102011D01*
X0283421Y0102011D01*
X0284522Y0102676D02*
X0284522Y0103043D01*
X0284155Y0103410D01*
X0283788Y0103410D01*
X0284155Y0103410D02*
X0284522Y0103777D01*
X0284522Y0104144D01*
X0284155Y0104511D01*
X0283421Y0104511D01*
X0283054Y0104144D01*
X0285264Y0104144D02*
X0285631Y0104511D01*
X0286364Y0104511D01*
X0286364Y0103410D02*
X0285998Y0103410D01*
X0287473Y0103777D02*
X0288574Y0103777D01*
X0288941Y0103410D01*
X0288941Y0102309D01*
X0288941Y0102011D02*
X0288941Y0101644D01*
X0287473Y0100176D01*
X0287473Y0099809D01*
X0287473Y0102011D02*
X0288941Y0102011D01*
X0287473Y0102309D02*
X0287473Y0103777D01*
X0287842Y0097011D02*
X0287842Y0094809D01*
X0287840Y0094511D02*
X0287473Y0094144D01*
X0287840Y0094511D02*
X0288574Y0094511D01*
X0288941Y0094144D01*
X0288941Y0093777D01*
X0287473Y0092309D01*
X0288941Y0092309D01*
X0286731Y0092309D02*
X0285264Y0092309D01*
X0285998Y0092309D02*
X0285998Y0094511D01*
X0285264Y0093777D01*
X0284522Y0094144D02*
X0284522Y0093410D01*
X0284155Y0093043D01*
X0283054Y0093043D01*
X0283788Y0093043D02*
X0284522Y0092309D01*
X0283054Y0092309D02*
X0283054Y0094511D01*
X0284155Y0094511D01*
X0284522Y0094144D01*
X0284527Y0094809D02*
X0284894Y0094809D01*
X0284894Y0095176D01*
X0284527Y0095176D01*
X0284527Y0094809D01*
X0283785Y0094809D02*
X0282317Y0094809D01*
X0283051Y0094809D02*
X0283051Y0097011D01*
X0282317Y0096277D01*
X0285632Y0096277D02*
X0285632Y0096644D01*
X0285999Y0097011D01*
X0286733Y0097011D01*
X0287100Y0096644D01*
X0287100Y0096277D01*
X0286733Y0095910D01*
X0285999Y0095910D01*
X0285632Y0096277D01*
X0285999Y0095910D02*
X0285632Y0095543D01*
X0285632Y0095176D01*
X0285999Y0094809D01*
X0286733Y0094809D01*
X0287100Y0095176D01*
X0287100Y0095543D01*
X0286733Y0095910D01*
X0287842Y0095543D02*
X0288943Y0096277D01*
X0287842Y0095543D02*
X0288943Y0094809D01*
X0288574Y0088777D02*
X0288941Y0088410D01*
X0288941Y0087309D01*
X0288941Y0087011D02*
X0287473Y0087011D01*
X0287473Y0085910D01*
X0288207Y0086277D01*
X0288574Y0086277D01*
X0288941Y0085910D01*
X0288941Y0085176D01*
X0288574Y0084809D01*
X0287840Y0084809D01*
X0287473Y0085176D01*
X0286731Y0084809D02*
X0285264Y0084809D01*
X0286731Y0086277D01*
X0286731Y0086644D01*
X0286364Y0087011D01*
X0285631Y0087011D01*
X0285264Y0086644D01*
X0285264Y0087309D02*
X0286731Y0087309D01*
X0285998Y0087309D02*
X0285998Y0089511D01*
X0285264Y0088777D01*
X0284155Y0087011D02*
X0283421Y0087011D01*
X0283054Y0086644D01*
X0283054Y0085176D01*
X0283421Y0084809D01*
X0284155Y0084809D01*
X0284522Y0085176D01*
X0284522Y0086644D02*
X0284155Y0087011D01*
X0287473Y0087309D02*
X0287473Y0088777D01*
X0288574Y0088777D01*
X0276983Y0086556D02*
X0275882Y0086556D01*
X0275515Y0086189D01*
X0275515Y0085088D01*
X0276983Y0085088D01*
X0276616Y0084346D02*
X0276983Y0083979D01*
X0276983Y0083245D01*
X0276616Y0082879D01*
X0275148Y0084346D01*
X0276616Y0084346D01*
X0276616Y0082879D02*
X0275148Y0082879D01*
X0274781Y0083245D01*
X0274781Y0083979D01*
X0275148Y0084346D01*
X0274483Y0083979D02*
X0274483Y0083245D01*
X0274116Y0082879D01*
X0274483Y0082137D02*
X0274483Y0080669D01*
X0274781Y0081036D02*
X0274781Y0081770D01*
X0275148Y0082137D01*
X0276616Y0080669D01*
X0276983Y0081036D01*
X0276983Y0081770D01*
X0276616Y0082137D01*
X0275148Y0082137D01*
X0274483Y0081403D02*
X0272281Y0081403D01*
X0273015Y0080669D01*
X0272648Y0079927D02*
X0272281Y0079560D01*
X0272281Y0078826D01*
X0272648Y0078459D01*
X0274116Y0078459D01*
X0274483Y0078826D01*
X0274483Y0079560D01*
X0274116Y0079927D01*
X0274781Y0079193D02*
X0276983Y0079193D01*
X0276983Y0078459D02*
X0276983Y0079927D01*
X0276616Y0080669D02*
X0275148Y0080669D01*
X0274781Y0081036D01*
X0274781Y0079193D02*
X0275515Y0078459D01*
X0272648Y0082879D02*
X0272281Y0083245D01*
X0272281Y0083979D01*
X0272648Y0084346D01*
X0273015Y0084346D01*
X0273382Y0083979D01*
X0273749Y0084346D01*
X0274116Y0084346D01*
X0274483Y0083979D01*
X0273382Y0083979D02*
X0273382Y0083612D01*
X0283422Y0080910D02*
X0283422Y0080176D01*
X0283789Y0079809D01*
X0284523Y0079809D01*
X0284890Y0080176D01*
X0284890Y0080543D01*
X0284523Y0080910D01*
X0283422Y0080910D01*
X0284156Y0081644D01*
X0284890Y0082011D01*
X0285632Y0081644D02*
X0285632Y0081277D01*
X0285999Y0080910D01*
X0286733Y0080910D01*
X0287100Y0080543D01*
X0287100Y0080176D01*
X0286733Y0079809D01*
X0285999Y0079809D01*
X0285632Y0080176D01*
X0285632Y0080543D01*
X0285999Y0080910D01*
X0286733Y0080910D02*
X0287100Y0081277D01*
X0287100Y0081644D01*
X0286733Y0082011D01*
X0285999Y0082011D01*
X0285632Y0081644D01*
X0285998Y0079511D02*
X0285264Y0078777D01*
X0284522Y0079144D02*
X0284522Y0078410D01*
X0284155Y0078043D01*
X0283054Y0078043D01*
X0283788Y0078043D02*
X0284522Y0077309D01*
X0285264Y0077309D02*
X0286731Y0077309D01*
X0285998Y0077309D02*
X0285998Y0079511D01*
X0287473Y0079144D02*
X0287840Y0079511D01*
X0288574Y0079511D01*
X0288941Y0079144D01*
X0288941Y0078777D01*
X0288574Y0078410D01*
X0288941Y0078043D01*
X0288941Y0077676D01*
X0288574Y0077309D01*
X0287840Y0077309D01*
X0287473Y0077676D01*
X0288207Y0078410D02*
X0288574Y0078410D01*
X0288943Y0079809D02*
X0287842Y0080543D01*
X0288943Y0081277D01*
X0287842Y0082011D02*
X0287842Y0079809D01*
X0284522Y0079144D02*
X0284155Y0079511D01*
X0283054Y0079511D01*
X0283054Y0077309D01*
X0276983Y0057806D02*
X0275882Y0057806D01*
X0275515Y0057439D01*
X0275515Y0056338D01*
X0276983Y0056338D01*
X0276616Y0055596D02*
X0276983Y0055229D01*
X0276983Y0054495D01*
X0276616Y0054129D01*
X0275148Y0055596D01*
X0276616Y0055596D01*
X0276616Y0054129D02*
X0275148Y0054129D01*
X0274781Y0054495D01*
X0274781Y0055229D01*
X0275148Y0055596D01*
X0275148Y0053387D02*
X0276616Y0051919D01*
X0276983Y0052286D01*
X0276983Y0053020D01*
X0276616Y0053387D01*
X0275148Y0053387D01*
X0274781Y0053020D01*
X0274781Y0052286D01*
X0275148Y0051919D01*
X0276616Y0051919D01*
X0276983Y0051177D02*
X0276983Y0049709D01*
X0276983Y0050443D02*
X0274781Y0050443D01*
X0275515Y0049709D01*
X0274483Y0050076D02*
X0274483Y0050810D01*
X0274116Y0051177D01*
X0274116Y0051919D02*
X0274483Y0052286D01*
X0274483Y0053020D01*
X0274116Y0053387D01*
X0273749Y0053387D01*
X0273382Y0053020D01*
X0273382Y0051919D01*
X0274116Y0051919D01*
X0273382Y0051919D02*
X0272648Y0052653D01*
X0272281Y0053387D01*
X0272648Y0051177D02*
X0272281Y0050810D01*
X0272281Y0050076D01*
X0272648Y0049709D01*
X0274116Y0049709D01*
X0274483Y0050076D01*
X0289781Y0042439D02*
X0290148Y0042806D01*
X0290882Y0042806D01*
X0291249Y0042439D01*
X0291249Y0041338D01*
X0291983Y0041338D02*
X0289781Y0041338D01*
X0289781Y0042439D01*
X0291249Y0042072D02*
X0291983Y0042806D01*
X0291616Y0040596D02*
X0290148Y0040596D01*
X0291616Y0039129D01*
X0291983Y0039495D01*
X0291983Y0040229D01*
X0291616Y0040596D01*
X0291616Y0039129D02*
X0290148Y0039129D01*
X0289781Y0039495D01*
X0289781Y0040229D01*
X0290148Y0040596D01*
X0289483Y0040596D02*
X0289483Y0039129D01*
X0288015Y0040596D01*
X0287648Y0040596D01*
X0287281Y0040229D01*
X0287281Y0039495D01*
X0287648Y0039129D01*
X0287648Y0038387D02*
X0287281Y0038020D01*
X0287281Y0037286D01*
X0287648Y0036919D01*
X0287648Y0036177D02*
X0288382Y0036177D01*
X0288749Y0035810D01*
X0288749Y0034709D01*
X0288749Y0035443D02*
X0289483Y0036177D01*
X0289781Y0035810D02*
X0290882Y0034709D01*
X0290882Y0036177D01*
X0291616Y0036919D02*
X0291983Y0036919D01*
X0291616Y0036919D02*
X0290148Y0038387D01*
X0289781Y0038387D01*
X0289781Y0036919D01*
X0289483Y0036919D02*
X0288015Y0038387D01*
X0287648Y0038387D01*
X0289483Y0038387D02*
X0289483Y0036919D01*
X0289781Y0035810D02*
X0291983Y0035810D01*
X0289483Y0034709D02*
X0287281Y0034709D01*
X0287281Y0035810D01*
X0287648Y0036177D01*
X0246983Y0035810D02*
X0244781Y0035810D01*
X0245882Y0034709D01*
X0245882Y0036177D01*
X0246616Y0036919D02*
X0246983Y0036919D01*
X0246616Y0036919D02*
X0245148Y0038387D01*
X0244781Y0038387D01*
X0244781Y0036919D01*
X0244483Y0036919D02*
X0243015Y0038387D01*
X0242648Y0038387D01*
X0242281Y0038020D01*
X0242281Y0037286D01*
X0242648Y0036919D01*
X0242648Y0036177D02*
X0243382Y0036177D01*
X0243749Y0035810D01*
X0243749Y0034709D01*
X0243749Y0035443D02*
X0244483Y0036177D01*
X0244483Y0036919D02*
X0244483Y0038387D01*
X0244116Y0039129D02*
X0244483Y0039495D01*
X0244483Y0040229D01*
X0244116Y0040596D01*
X0243749Y0040596D01*
X0243382Y0040229D01*
X0243382Y0039862D01*
X0243382Y0040229D02*
X0243015Y0040596D01*
X0242648Y0040596D01*
X0242281Y0040229D01*
X0242281Y0039495D01*
X0242648Y0039129D01*
X0244781Y0039495D02*
X0244781Y0040229D01*
X0245148Y0040596D01*
X0246616Y0039129D01*
X0246983Y0039495D01*
X0246983Y0040229D01*
X0246616Y0040596D01*
X0245148Y0040596D01*
X0244781Y0041338D02*
X0244781Y0042439D01*
X0245148Y0042806D01*
X0245882Y0042806D01*
X0246249Y0042439D01*
X0246249Y0041338D01*
X0246983Y0041338D02*
X0244781Y0041338D01*
X0246249Y0042072D02*
X0246983Y0042806D01*
X0246616Y0039129D02*
X0245148Y0039129D01*
X0244781Y0039495D01*
X0242648Y0036177D02*
X0242281Y0035810D01*
X0242281Y0034709D01*
X0244483Y0034709D01*
X0243973Y0052809D02*
X0245074Y0052809D01*
X0245441Y0053176D01*
X0245441Y0054644D01*
X0245074Y0055011D01*
X0243973Y0055011D01*
X0243973Y0052809D01*
X0243231Y0052809D02*
X0241764Y0052809D01*
X0243231Y0054277D01*
X0243231Y0054644D01*
X0242864Y0055011D01*
X0242130Y0055011D01*
X0241764Y0054644D01*
X0241022Y0054644D02*
X0241022Y0054277D01*
X0240655Y0053910D01*
X0241022Y0053543D01*
X0241022Y0053176D01*
X0240655Y0052809D01*
X0239921Y0052809D01*
X0239554Y0053176D01*
X0238812Y0053176D02*
X0238445Y0052809D01*
X0237711Y0052809D01*
X0237344Y0053176D01*
X0237344Y0053910D02*
X0238078Y0054277D01*
X0238445Y0054277D01*
X0238812Y0053910D01*
X0238812Y0053176D01*
X0237344Y0053910D02*
X0237344Y0055011D01*
X0238812Y0055011D01*
X0239554Y0054644D02*
X0239921Y0055011D01*
X0240655Y0055011D01*
X0241022Y0054644D01*
X0240655Y0053910D02*
X0240288Y0053910D01*
X0236602Y0053910D02*
X0236602Y0053176D01*
X0236235Y0052809D01*
X0235501Y0052809D01*
X0235134Y0053176D01*
X0235134Y0053910D02*
X0235868Y0054277D01*
X0236235Y0054277D01*
X0236602Y0053910D01*
X0236602Y0055011D02*
X0235134Y0055011D01*
X0235134Y0053910D01*
X0234392Y0055011D02*
X0232924Y0055011D01*
X0232924Y0052809D01*
X0234392Y0052809D01*
X0233658Y0053910D02*
X0232924Y0053910D01*
X0232182Y0052809D02*
X0232182Y0055011D01*
X0230714Y0055011D02*
X0232182Y0052809D01*
X0230714Y0052809D02*
X0230714Y0055011D01*
X0239790Y0059309D02*
X0240524Y0059309D01*
X0240157Y0059309D02*
X0240157Y0061511D01*
X0239790Y0061511D02*
X0240524Y0061511D01*
X0241264Y0061144D02*
X0241264Y0059676D01*
X0241631Y0059309D01*
X0242364Y0059309D01*
X0242731Y0059676D01*
X0243473Y0059676D02*
X0243840Y0059309D01*
X0244574Y0059309D01*
X0244941Y0059676D01*
X0244941Y0060043D01*
X0244574Y0060410D01*
X0244207Y0060410D01*
X0244574Y0060410D02*
X0244941Y0060777D01*
X0244941Y0061144D01*
X0244574Y0061511D01*
X0243840Y0061511D01*
X0243473Y0061144D01*
X0242731Y0061144D02*
X0242364Y0061511D01*
X0241631Y0061511D01*
X0241264Y0061144D01*
X0240998Y0077309D02*
X0240998Y0079511D01*
X0240264Y0078777D01*
X0239522Y0079144D02*
X0239522Y0078410D01*
X0239155Y0078043D01*
X0238054Y0078043D01*
X0238788Y0078043D02*
X0239522Y0077309D01*
X0240264Y0077309D02*
X0241731Y0077309D01*
X0242473Y0077309D02*
X0243941Y0077309D01*
X0243207Y0077309D02*
X0243207Y0079511D01*
X0242473Y0078777D01*
X0242842Y0079809D02*
X0242842Y0082011D01*
X0242100Y0081644D02*
X0241733Y0082011D01*
X0240999Y0082011D01*
X0240632Y0081644D01*
X0239890Y0081644D02*
X0239890Y0081277D01*
X0239523Y0080910D01*
X0238789Y0080910D01*
X0238422Y0081277D01*
X0238422Y0081644D01*
X0238789Y0082011D01*
X0239523Y0082011D01*
X0239890Y0081644D01*
X0239523Y0080910D02*
X0239890Y0080543D01*
X0239890Y0080176D01*
X0239523Y0079809D01*
X0238789Y0079809D01*
X0238422Y0080176D01*
X0238422Y0080543D01*
X0238789Y0080910D01*
X0239155Y0079511D02*
X0239522Y0079144D01*
X0239155Y0079511D02*
X0238054Y0079511D01*
X0238054Y0077309D01*
X0240632Y0079809D02*
X0242100Y0081277D01*
X0242100Y0081644D01*
X0242842Y0080543D02*
X0243943Y0081277D01*
X0242842Y0080543D02*
X0243943Y0079809D01*
X0242100Y0079809D02*
X0240632Y0079809D01*
X0240264Y0084809D02*
X0241731Y0086277D01*
X0241731Y0086644D01*
X0241364Y0087011D01*
X0240631Y0087011D01*
X0240264Y0086644D01*
X0240264Y0087309D02*
X0241731Y0088777D01*
X0241731Y0089144D01*
X0241364Y0089511D01*
X0240631Y0089511D01*
X0240264Y0089144D01*
X0239526Y0087676D02*
X0239526Y0087309D01*
X0239159Y0087309D01*
X0239159Y0087676D01*
X0239526Y0087676D01*
X0239155Y0087011D02*
X0238421Y0087011D01*
X0238054Y0086644D01*
X0238054Y0085176D01*
X0238421Y0084809D01*
X0239155Y0084809D01*
X0239522Y0085176D01*
X0240264Y0084809D02*
X0241731Y0084809D01*
X0242473Y0085910D02*
X0243941Y0085910D01*
X0243574Y0087011D02*
X0242473Y0085910D01*
X0242473Y0087309D02*
X0242473Y0088777D01*
X0243574Y0088777D01*
X0243941Y0088410D01*
X0243941Y0087309D01*
X0243574Y0087011D02*
X0243574Y0084809D01*
X0241731Y0087309D02*
X0240264Y0087309D01*
X0239522Y0086644D02*
X0239155Y0087011D01*
X0238417Y0087309D02*
X0236949Y0087309D01*
X0238417Y0088777D01*
X0238417Y0089144D01*
X0238050Y0089511D01*
X0237316Y0089511D01*
X0236949Y0089144D01*
X0238054Y0092309D02*
X0238054Y0094511D01*
X0239155Y0094511D01*
X0239522Y0094144D01*
X0239522Y0093410D01*
X0239155Y0093043D01*
X0238054Y0093043D01*
X0238788Y0093043D02*
X0239522Y0092309D01*
X0240264Y0092309D02*
X0241731Y0092309D01*
X0240998Y0092309D02*
X0240998Y0094511D01*
X0240264Y0093777D01*
X0239894Y0094809D02*
X0239527Y0094809D01*
X0239527Y0095176D01*
X0239894Y0095176D01*
X0239894Y0094809D01*
X0240632Y0095176D02*
X0240632Y0095543D01*
X0240999Y0095910D01*
X0241733Y0095910D01*
X0242100Y0095543D01*
X0242100Y0095176D01*
X0241733Y0094809D01*
X0240999Y0094809D01*
X0240632Y0095176D01*
X0240999Y0095910D02*
X0240632Y0096277D01*
X0240632Y0096644D01*
X0240999Y0097011D01*
X0241733Y0097011D01*
X0242100Y0096644D01*
X0242100Y0096277D01*
X0241733Y0095910D01*
X0242842Y0095543D02*
X0243943Y0096277D01*
X0242842Y0097011D02*
X0242842Y0094809D01*
X0242840Y0094511D02*
X0243574Y0094511D01*
X0243941Y0094144D01*
X0242473Y0092676D01*
X0242840Y0092309D01*
X0243574Y0092309D01*
X0243941Y0092676D01*
X0243941Y0094144D01*
X0243943Y0094809D02*
X0242842Y0095543D01*
X0242840Y0094511D02*
X0242473Y0094144D01*
X0242473Y0092676D01*
X0238785Y0094809D02*
X0237317Y0094809D01*
X0238051Y0094809D02*
X0238051Y0097011D01*
X0237317Y0096277D01*
X0238421Y0099809D02*
X0239155Y0099809D01*
X0239522Y0100176D01*
X0240264Y0099809D02*
X0241731Y0099809D01*
X0240998Y0099809D02*
X0240998Y0102011D01*
X0240264Y0101277D01*
X0239522Y0101644D02*
X0239155Y0102011D01*
X0238421Y0102011D01*
X0238054Y0101644D01*
X0238054Y0100176D01*
X0238421Y0099809D01*
X0238421Y0102309D02*
X0238054Y0102676D01*
X0238421Y0102309D02*
X0239155Y0102309D01*
X0239522Y0102676D01*
X0239522Y0103043D01*
X0239155Y0103410D01*
X0238788Y0103410D01*
X0239155Y0103410D02*
X0239522Y0103777D01*
X0239522Y0104144D01*
X0239155Y0104511D01*
X0238421Y0104511D01*
X0238054Y0104144D01*
X0240264Y0104144D02*
X0240631Y0104511D01*
X0241364Y0104511D01*
X0241731Y0104144D01*
X0241731Y0103777D01*
X0241364Y0103410D01*
X0241731Y0103043D01*
X0241731Y0102676D01*
X0241364Y0102309D01*
X0240631Y0102309D01*
X0240264Y0102676D01*
X0240998Y0103410D02*
X0241364Y0103410D01*
X0242473Y0103777D02*
X0243574Y0103777D01*
X0243941Y0103410D01*
X0243941Y0102309D01*
X0243941Y0102011D02*
X0243207Y0101644D01*
X0242473Y0100910D01*
X0243574Y0100910D01*
X0243941Y0100543D01*
X0243941Y0100176D01*
X0243574Y0099809D01*
X0242840Y0099809D01*
X0242473Y0100176D01*
X0242473Y0100910D01*
X0242473Y0102309D02*
X0242473Y0103777D01*
X0242840Y0107309D02*
X0242473Y0107676D01*
X0242840Y0107309D02*
X0243574Y0107309D01*
X0243941Y0107676D01*
X0243941Y0108410D01*
X0243574Y0108777D01*
X0243207Y0108777D01*
X0242473Y0108410D01*
X0242473Y0109511D01*
X0243941Y0109511D01*
X0243941Y0109809D02*
X0243941Y0110910D01*
X0243574Y0111277D01*
X0242473Y0111277D01*
X0242473Y0109809D01*
X0240998Y0109511D02*
X0240998Y0107309D01*
X0241731Y0107309D02*
X0240264Y0107309D01*
X0239522Y0107676D02*
X0239155Y0107309D01*
X0238421Y0107309D01*
X0238054Y0107676D01*
X0238054Y0109144D01*
X0238421Y0109511D01*
X0239155Y0109511D01*
X0239522Y0109144D01*
X0239155Y0109809D02*
X0239155Y0112011D01*
X0238054Y0110910D01*
X0239522Y0110910D01*
X0240264Y0110176D02*
X0240264Y0109809D01*
X0240264Y0110176D02*
X0241731Y0111644D01*
X0241731Y0112011D01*
X0240264Y0112011D01*
X0240998Y0109511D02*
X0240264Y0108777D01*
X0223941Y0105394D02*
X0223574Y0105761D01*
X0222840Y0105761D01*
X0222473Y0105394D01*
X0221731Y0105394D02*
X0221731Y0105027D01*
X0221364Y0104660D01*
X0221731Y0104293D01*
X0221731Y0103926D01*
X0221364Y0103559D01*
X0220631Y0103559D01*
X0220264Y0103926D01*
X0219522Y0103926D02*
X0219155Y0103559D01*
X0218421Y0103559D01*
X0218054Y0103926D01*
X0218054Y0105394D01*
X0218421Y0105761D01*
X0219155Y0105761D01*
X0219522Y0105394D01*
X0220264Y0105394D02*
X0220631Y0105761D01*
X0221364Y0105761D01*
X0221731Y0105394D01*
X0221364Y0104660D02*
X0220998Y0104660D01*
X0222473Y0103559D02*
X0223941Y0105027D01*
X0223941Y0105394D01*
X0223941Y0103559D02*
X0222473Y0103559D01*
X0222473Y0113559D02*
X0222473Y0115761D01*
X0223574Y0115761D01*
X0223941Y0115394D01*
X0223941Y0114660D01*
X0223574Y0114293D01*
X0222473Y0114293D01*
X0221731Y0113559D02*
X0221731Y0115761D01*
X0220264Y0115761D02*
X0221731Y0113559D01*
X0220264Y0113559D02*
X0220264Y0115761D01*
X0198941Y0110910D02*
X0198941Y0109809D01*
X0198574Y0109511D02*
X0197473Y0108410D01*
X0198941Y0108410D01*
X0198574Y0107309D02*
X0198574Y0109511D01*
X0197473Y0109809D02*
X0197473Y0111277D01*
X0198574Y0111277D01*
X0198941Y0110910D01*
X0196731Y0111644D02*
X0195264Y0110176D01*
X0195631Y0109809D01*
X0196364Y0109809D01*
X0196731Y0110176D01*
X0196731Y0111644D01*
X0196364Y0112011D01*
X0195631Y0112011D01*
X0195264Y0111644D01*
X0195264Y0110176D01*
X0194522Y0110176D02*
X0194522Y0111644D01*
X0193054Y0110176D01*
X0193421Y0109809D01*
X0194155Y0109809D01*
X0194522Y0110176D01*
X0194155Y0109511D02*
X0193421Y0109511D01*
X0193054Y0109144D01*
X0193054Y0107676D01*
X0193421Y0107309D01*
X0194155Y0107309D01*
X0194522Y0107676D01*
X0195264Y0107309D02*
X0196731Y0107309D01*
X0195998Y0107309D02*
X0195998Y0109511D01*
X0195264Y0108777D01*
X0194522Y0109144D02*
X0194155Y0109511D01*
X0193054Y0110176D02*
X0193054Y0111644D01*
X0193421Y0112011D01*
X0194155Y0112011D01*
X0194522Y0111644D01*
X0192312Y0109809D02*
X0190844Y0109809D01*
X0191578Y0109809D02*
X0191578Y0112011D01*
X0190844Y0111277D01*
X0191578Y0104511D02*
X0191578Y0102309D01*
X0190844Y0102309D02*
X0192312Y0102309D01*
X0193054Y0102676D02*
X0194522Y0104144D01*
X0194522Y0102676D01*
X0194155Y0102309D01*
X0193421Y0102309D01*
X0193054Y0102676D01*
X0193054Y0104144D01*
X0193421Y0104511D01*
X0194155Y0104511D01*
X0194522Y0104144D01*
X0195264Y0104144D02*
X0195631Y0104511D01*
X0196364Y0104511D01*
X0196731Y0104144D01*
X0195264Y0102676D01*
X0195631Y0102309D01*
X0196364Y0102309D01*
X0196731Y0102676D01*
X0196731Y0104144D01*
X0197473Y0103777D02*
X0198574Y0103777D01*
X0198941Y0103410D01*
X0198941Y0102309D01*
X0198207Y0102011D02*
X0198207Y0099809D01*
X0197473Y0099809D02*
X0198941Y0099809D01*
X0197473Y0101277D02*
X0198207Y0102011D01*
X0197473Y0102309D02*
X0197473Y0103777D01*
X0195264Y0104144D02*
X0195264Y0102676D01*
X0195998Y0102011D02*
X0195998Y0099809D01*
X0196731Y0099809D02*
X0195264Y0099809D01*
X0194522Y0100176D02*
X0194155Y0099809D01*
X0193421Y0099809D01*
X0193054Y0100176D01*
X0193054Y0101644D01*
X0193421Y0102011D01*
X0194155Y0102011D01*
X0194522Y0101644D01*
X0195264Y0101277D02*
X0195998Y0102011D01*
X0191578Y0104511D02*
X0190844Y0103777D01*
X0193051Y0097011D02*
X0193051Y0094809D01*
X0192317Y0094809D02*
X0193785Y0094809D01*
X0194527Y0094809D02*
X0194894Y0094809D01*
X0194894Y0095176D01*
X0194527Y0095176D01*
X0194527Y0094809D01*
X0195264Y0094511D02*
X0196364Y0094511D01*
X0196731Y0094144D01*
X0196731Y0093410D01*
X0196364Y0093043D01*
X0195264Y0093043D01*
X0195998Y0093043D02*
X0196731Y0092309D01*
X0197473Y0092676D02*
X0197840Y0092309D01*
X0198574Y0092309D01*
X0198941Y0092676D01*
X0198941Y0093043D01*
X0198574Y0093410D01*
X0197840Y0093410D01*
X0197473Y0093777D01*
X0197473Y0094144D01*
X0197840Y0094511D01*
X0198574Y0094511D01*
X0198941Y0094144D01*
X0198941Y0093777D01*
X0198574Y0093410D01*
X0197840Y0093410D02*
X0197473Y0093043D01*
X0197473Y0092676D01*
X0197842Y0094809D02*
X0197842Y0097011D01*
X0197100Y0096644D02*
X0197100Y0096277D01*
X0196733Y0095910D01*
X0195999Y0095910D01*
X0195632Y0096277D01*
X0195632Y0096644D01*
X0195999Y0097011D01*
X0196733Y0097011D01*
X0197100Y0096644D01*
X0196733Y0095910D02*
X0197100Y0095543D01*
X0197100Y0095176D01*
X0196733Y0094809D01*
X0195999Y0094809D01*
X0195632Y0095176D01*
X0195632Y0095543D01*
X0195999Y0095910D01*
X0195264Y0094511D02*
X0195264Y0092309D01*
X0195264Y0089511D02*
X0196731Y0089511D01*
X0196731Y0089144D01*
X0195264Y0087676D01*
X0195264Y0087309D01*
X0195631Y0087011D02*
X0195264Y0086644D01*
X0195631Y0087011D02*
X0196364Y0087011D01*
X0196731Y0086644D01*
X0196731Y0086277D01*
X0195264Y0084809D01*
X0196731Y0084809D01*
X0197473Y0085176D02*
X0197840Y0084809D01*
X0198574Y0084809D01*
X0198941Y0085176D01*
X0198941Y0085543D01*
X0198574Y0085910D01*
X0198207Y0085910D01*
X0198574Y0085910D02*
X0198941Y0086277D01*
X0198941Y0086644D01*
X0198574Y0087011D01*
X0197840Y0087011D01*
X0197473Y0086644D01*
X0197473Y0087309D02*
X0197473Y0088777D01*
X0198574Y0088777D01*
X0198941Y0088410D01*
X0198941Y0087309D01*
X0194526Y0087309D02*
X0194526Y0087676D01*
X0194159Y0087676D01*
X0194159Y0087309D01*
X0194526Y0087309D01*
X0194155Y0087011D02*
X0193421Y0087011D01*
X0193054Y0086644D01*
X0193054Y0085176D01*
X0193421Y0084809D01*
X0194155Y0084809D01*
X0194522Y0085176D01*
X0194522Y0086644D02*
X0194155Y0087011D01*
X0193050Y0087309D02*
X0193050Y0089511D01*
X0191949Y0088410D01*
X0193417Y0088410D01*
X0193789Y0082011D02*
X0193422Y0081644D01*
X0193422Y0081277D01*
X0193789Y0080910D01*
X0194890Y0080910D01*
X0194890Y0081644D02*
X0194523Y0082011D01*
X0193789Y0082011D01*
X0194890Y0081644D02*
X0194890Y0080176D01*
X0194523Y0079809D01*
X0193789Y0079809D01*
X0193422Y0080176D01*
X0195264Y0079511D02*
X0195264Y0077309D01*
X0195264Y0078043D02*
X0196364Y0078043D01*
X0196731Y0078410D01*
X0196731Y0079144D01*
X0196364Y0079511D01*
X0195264Y0079511D01*
X0195632Y0079809D02*
X0197100Y0079809D01*
X0196366Y0079809D02*
X0196366Y0082011D01*
X0195632Y0081277D01*
X0197842Y0082011D02*
X0197842Y0079809D01*
X0197840Y0079511D02*
X0197473Y0079144D01*
X0197473Y0078777D01*
X0197840Y0078410D01*
X0198941Y0078410D01*
X0198941Y0079144D02*
X0198574Y0079511D01*
X0197840Y0079511D01*
X0197842Y0080543D02*
X0198943Y0081277D01*
X0197842Y0080543D02*
X0198943Y0079809D01*
X0198941Y0079144D02*
X0198941Y0077676D01*
X0198574Y0077309D01*
X0197840Y0077309D01*
X0197473Y0077676D01*
X0196731Y0077309D02*
X0195998Y0078043D01*
X0176983Y0078459D02*
X0176983Y0079927D01*
X0176983Y0079193D02*
X0174781Y0079193D01*
X0175515Y0078459D01*
X0174483Y0078826D02*
X0174483Y0079560D01*
X0174116Y0079927D01*
X0174116Y0080669D02*
X0174483Y0081036D01*
X0174483Y0081770D01*
X0174116Y0082137D01*
X0172648Y0082137D01*
X0172281Y0081770D01*
X0172281Y0081036D01*
X0172648Y0080669D01*
X0173015Y0080669D01*
X0173382Y0081036D01*
X0173382Y0082137D01*
X0174781Y0081770D02*
X0175148Y0082137D01*
X0176616Y0080669D01*
X0176983Y0081036D01*
X0176983Y0081770D01*
X0176616Y0082137D01*
X0175148Y0082137D01*
X0174781Y0081770D02*
X0174781Y0081036D01*
X0175148Y0080669D01*
X0176616Y0080669D01*
X0176616Y0082879D02*
X0175148Y0084346D01*
X0176616Y0084346D01*
X0176983Y0083979D01*
X0176983Y0083245D01*
X0176616Y0082879D01*
X0175148Y0082879D01*
X0174781Y0083245D01*
X0174781Y0083979D01*
X0175148Y0084346D01*
X0175515Y0085088D02*
X0175515Y0086189D01*
X0175882Y0086556D01*
X0176983Y0086556D01*
X0176983Y0085088D02*
X0175515Y0085088D01*
X0172648Y0079927D02*
X0172281Y0079560D01*
X0172281Y0078826D01*
X0172648Y0078459D01*
X0174116Y0078459D01*
X0174483Y0078826D01*
X0148941Y0079144D02*
X0147473Y0077676D01*
X0147473Y0077309D01*
X0146731Y0077309D02*
X0145998Y0078043D01*
X0146364Y0078043D02*
X0145264Y0078043D01*
X0145264Y0077309D02*
X0145264Y0079511D01*
X0146364Y0079511D01*
X0146731Y0079144D01*
X0146731Y0078410D01*
X0146364Y0078043D01*
X0145999Y0079809D02*
X0145632Y0080176D01*
X0147100Y0081644D01*
X0147100Y0080176D01*
X0146733Y0079809D01*
X0145999Y0079809D01*
X0145632Y0080176D02*
X0145632Y0081644D01*
X0145999Y0082011D01*
X0146733Y0082011D01*
X0147100Y0081644D01*
X0147842Y0082011D02*
X0147842Y0079809D01*
X0147473Y0079511D02*
X0148941Y0079511D01*
X0148941Y0079144D01*
X0148943Y0079809D02*
X0147842Y0080543D01*
X0148943Y0081277D01*
X0148941Y0084809D02*
X0147473Y0084809D01*
X0148941Y0086277D01*
X0148941Y0086644D01*
X0148574Y0087011D01*
X0147840Y0087011D01*
X0147473Y0086644D01*
X0147468Y0087309D02*
X0147468Y0088410D01*
X0147101Y0088777D01*
X0146000Y0088777D01*
X0146000Y0087309D01*
X0146364Y0087011D02*
X0145631Y0087011D01*
X0145264Y0086644D01*
X0144522Y0086644D02*
X0144155Y0087011D01*
X0143421Y0087011D01*
X0143054Y0086644D01*
X0143054Y0085176D01*
X0143421Y0084809D01*
X0144155Y0084809D01*
X0144522Y0085176D01*
X0145264Y0084809D02*
X0146731Y0086277D01*
X0146731Y0086644D01*
X0146364Y0087011D01*
X0145258Y0087676D02*
X0144891Y0087309D01*
X0144157Y0087309D01*
X0143790Y0087676D01*
X0145258Y0089144D01*
X0145258Y0087676D01*
X0145258Y0089144D02*
X0144891Y0089511D01*
X0144157Y0089511D01*
X0143790Y0089144D01*
X0143790Y0087676D01*
X0143048Y0087309D02*
X0141580Y0087309D01*
X0142314Y0087309D02*
X0142314Y0089511D01*
X0141580Y0088777D01*
X0145264Y0092309D02*
X0145264Y0094511D01*
X0146364Y0094511D01*
X0146731Y0094144D01*
X0146731Y0093410D01*
X0146364Y0093043D01*
X0145264Y0093043D01*
X0145998Y0093043D02*
X0146731Y0092309D01*
X0147473Y0092676D02*
X0147840Y0092309D01*
X0148574Y0092309D01*
X0148941Y0092676D01*
X0148941Y0093043D01*
X0148574Y0093410D01*
X0147473Y0093410D01*
X0147473Y0092676D01*
X0147473Y0093410D02*
X0148207Y0094144D01*
X0148941Y0094511D01*
X0148943Y0094809D02*
X0147842Y0095543D01*
X0148943Y0096277D01*
X0147842Y0097011D02*
X0147842Y0094809D01*
X0147100Y0095176D02*
X0146733Y0094809D01*
X0145999Y0094809D01*
X0145632Y0095176D01*
X0145632Y0095543D01*
X0145999Y0095910D01*
X0146733Y0095910D01*
X0147100Y0095543D01*
X0147100Y0095176D01*
X0146733Y0095910D02*
X0147100Y0096277D01*
X0147100Y0096644D01*
X0146733Y0097011D01*
X0145999Y0097011D01*
X0145632Y0096644D01*
X0145632Y0096277D01*
X0145999Y0095910D01*
X0144894Y0095176D02*
X0144894Y0094809D01*
X0144527Y0094809D01*
X0144527Y0095176D01*
X0144894Y0095176D01*
X0143785Y0094809D02*
X0142317Y0094809D01*
X0143051Y0094809D02*
X0143051Y0097011D01*
X0142317Y0096277D01*
X0145631Y0099809D02*
X0146364Y0099809D01*
X0146731Y0100176D01*
X0147473Y0100176D02*
X0147473Y0100543D01*
X0147840Y0100910D01*
X0148574Y0100910D01*
X0148941Y0100543D01*
X0148941Y0100176D01*
X0148574Y0099809D01*
X0147840Y0099809D01*
X0147473Y0100176D01*
X0147840Y0100910D02*
X0147473Y0101277D01*
X0147473Y0101644D01*
X0147840Y0102011D01*
X0148574Y0102011D01*
X0148941Y0101644D01*
X0148941Y0101277D01*
X0148574Y0100910D01*
X0148577Y0102309D02*
X0148577Y0104144D01*
X0148944Y0104511D01*
X0148944Y0103410D02*
X0148210Y0103410D01*
X0147468Y0103410D02*
X0147468Y0102309D01*
X0146731Y0101644D02*
X0146364Y0102011D01*
X0145631Y0102011D01*
X0145264Y0101644D01*
X0145264Y0100176D01*
X0145631Y0099809D01*
X0146000Y0102309D02*
X0146000Y0103777D01*
X0147101Y0103777D01*
X0147468Y0103410D01*
X0145258Y0104144D02*
X0143790Y0102676D01*
X0144157Y0102309D01*
X0144891Y0102309D01*
X0145258Y0102676D01*
X0145258Y0104144D01*
X0144891Y0104511D01*
X0144157Y0104511D01*
X0143790Y0104144D01*
X0143790Y0102676D01*
X0143048Y0104144D02*
X0141580Y0102676D01*
X0141580Y0102309D01*
X0140471Y0102309D02*
X0140471Y0104511D01*
X0139371Y0103410D01*
X0140838Y0103410D01*
X0141580Y0104511D02*
X0143048Y0104511D01*
X0143048Y0104144D01*
X0143421Y0107309D02*
X0144155Y0107309D01*
X0144522Y0107676D01*
X0145264Y0107309D02*
X0146731Y0107309D01*
X0145998Y0107309D02*
X0145998Y0109511D01*
X0145264Y0108777D01*
X0144522Y0109144D02*
X0144155Y0109511D01*
X0143421Y0109511D01*
X0143054Y0109144D01*
X0143054Y0107676D01*
X0143421Y0107309D01*
X0144157Y0109809D02*
X0143790Y0110176D01*
X0144157Y0109809D02*
X0144891Y0109809D01*
X0145258Y0110176D01*
X0145258Y0110543D01*
X0144891Y0110910D01*
X0144524Y0110910D01*
X0144891Y0110910D02*
X0145258Y0111277D01*
X0145258Y0111644D01*
X0144891Y0112011D01*
X0144157Y0112011D01*
X0143790Y0111644D01*
X0143048Y0111644D02*
X0143048Y0111277D01*
X0142681Y0110910D01*
X0143048Y0110543D01*
X0143048Y0110176D01*
X0142681Y0109809D01*
X0141947Y0109809D01*
X0141580Y0110176D01*
X0142314Y0110910D02*
X0142681Y0110910D01*
X0143048Y0111644D02*
X0142681Y0112011D01*
X0141947Y0112011D01*
X0141580Y0111644D01*
X0146000Y0111277D02*
X0147101Y0111277D01*
X0147468Y0110910D01*
X0147468Y0109809D01*
X0147840Y0109511D02*
X0148574Y0109511D01*
X0148941Y0109144D01*
X0147473Y0107676D01*
X0147840Y0107309D01*
X0148574Y0107309D01*
X0148941Y0107676D01*
X0148941Y0109144D01*
X0148577Y0109809D02*
X0148577Y0111644D01*
X0148944Y0112011D01*
X0148944Y0110910D02*
X0148210Y0110910D01*
X0147840Y0109511D02*
X0147473Y0109144D01*
X0147473Y0107676D01*
X0146000Y0109809D02*
X0146000Y0111277D01*
X0128944Y0105761D02*
X0128577Y0105394D01*
X0128577Y0103559D01*
X0127468Y0103559D02*
X0127468Y0104660D01*
X0127101Y0105027D01*
X0126000Y0105027D01*
X0126000Y0103559D01*
X0125258Y0103926D02*
X0124891Y0103559D01*
X0124157Y0103559D01*
X0123790Y0103926D01*
X0125258Y0105394D01*
X0125258Y0103926D01*
X0125258Y0105394D02*
X0124891Y0105761D01*
X0124157Y0105761D01*
X0123790Y0105394D01*
X0123790Y0103926D01*
X0123048Y0105394D02*
X0121580Y0103926D01*
X0121580Y0103559D01*
X0120471Y0103559D02*
X0120471Y0105761D01*
X0119371Y0104660D01*
X0120838Y0104660D01*
X0121580Y0105761D02*
X0123048Y0105761D01*
X0123048Y0105394D01*
X0128210Y0104660D02*
X0128944Y0104660D01*
X0126074Y0113559D02*
X0125340Y0113559D01*
X0124973Y0113926D01*
X0124973Y0114660D02*
X0125707Y0115027D01*
X0126074Y0115027D01*
X0126441Y0114660D01*
X0126441Y0113926D01*
X0126074Y0113559D01*
X0124973Y0114660D02*
X0124973Y0115761D01*
X0126441Y0115761D01*
X0124231Y0115394D02*
X0123864Y0115761D01*
X0123131Y0115761D01*
X0122764Y0115394D01*
X0122764Y0113926D01*
X0123131Y0113559D01*
X0123864Y0113559D01*
X0124231Y0113926D01*
X0113944Y0114660D02*
X0113210Y0114660D01*
X0112468Y0114660D02*
X0112468Y0113559D01*
X0112468Y0114660D02*
X0112101Y0115027D01*
X0111000Y0115027D01*
X0111000Y0113559D01*
X0110258Y0113926D02*
X0109891Y0113559D01*
X0109157Y0113559D01*
X0108790Y0113926D01*
X0110258Y0115394D01*
X0110258Y0113926D01*
X0110258Y0115394D02*
X0109891Y0115761D01*
X0109157Y0115761D01*
X0108790Y0115394D01*
X0108790Y0113926D01*
X0108048Y0115394D02*
X0106580Y0113926D01*
X0106580Y0113559D01*
X0105471Y0113559D02*
X0105471Y0115761D01*
X0104371Y0114660D01*
X0105838Y0114660D01*
X0106580Y0115761D02*
X0108048Y0115761D01*
X0108048Y0115394D01*
X0113577Y0115394D02*
X0113577Y0113559D01*
X0113577Y0115394D02*
X0113944Y0115761D01*
X0101441Y0109144D02*
X0101441Y0108777D01*
X0101074Y0108410D01*
X0101441Y0108043D01*
X0101441Y0107676D01*
X0101074Y0107309D01*
X0100340Y0107309D01*
X0099973Y0107676D01*
X0099231Y0107676D02*
X0098864Y0107309D01*
X0098131Y0107309D01*
X0097764Y0107676D01*
X0097764Y0109144D01*
X0098131Y0109511D01*
X0098864Y0109511D01*
X0099231Y0109144D01*
X0099973Y0109144D02*
X0100340Y0109511D01*
X0101074Y0109511D01*
X0101441Y0109144D01*
X0101074Y0108410D02*
X0100707Y0108410D01*
X0101444Y0104511D02*
X0101077Y0104144D01*
X0101077Y0102309D01*
X0101441Y0102011D02*
X0101441Y0101644D01*
X0099973Y0100176D01*
X0099973Y0099809D01*
X0099231Y0100176D02*
X0098864Y0099809D01*
X0098131Y0099809D01*
X0097764Y0100176D01*
X0097764Y0101644D01*
X0098131Y0102011D01*
X0098864Y0102011D01*
X0099231Y0101644D01*
X0099973Y0102011D02*
X0101441Y0102011D01*
X0101444Y0103410D02*
X0100710Y0103410D01*
X0099968Y0103410D02*
X0099968Y0102309D01*
X0099968Y0103410D02*
X0099601Y0103777D01*
X0098500Y0103777D01*
X0098500Y0102309D01*
X0097758Y0102676D02*
X0097391Y0102309D01*
X0096657Y0102309D01*
X0096290Y0102676D01*
X0097758Y0104144D01*
X0097758Y0102676D01*
X0097758Y0104144D02*
X0097391Y0104511D01*
X0096657Y0104511D01*
X0096290Y0104144D01*
X0096290Y0102676D01*
X0095548Y0102676D02*
X0095181Y0102309D01*
X0094447Y0102309D01*
X0094080Y0102676D01*
X0093338Y0102676D02*
X0092971Y0102309D01*
X0092237Y0102309D01*
X0091871Y0102676D01*
X0092604Y0103410D02*
X0092971Y0103410D01*
X0093338Y0103043D01*
X0093338Y0102676D01*
X0092971Y0103410D02*
X0093338Y0103777D01*
X0093338Y0104144D01*
X0092971Y0104511D01*
X0092237Y0104511D01*
X0091871Y0104144D01*
X0094080Y0104144D02*
X0094447Y0104511D01*
X0095181Y0104511D01*
X0095548Y0104144D01*
X0095548Y0103777D01*
X0095181Y0103410D01*
X0095548Y0103043D01*
X0095548Y0102676D01*
X0095181Y0103410D02*
X0094814Y0103410D01*
X0095551Y0097011D02*
X0094817Y0096277D01*
X0095551Y0097011D02*
X0095551Y0094809D01*
X0094817Y0094809D02*
X0096285Y0094809D01*
X0097027Y0094809D02*
X0097394Y0094809D01*
X0097394Y0095176D01*
X0097027Y0095176D01*
X0097027Y0094809D01*
X0097764Y0094511D02*
X0098864Y0094511D01*
X0099231Y0094144D01*
X0099231Y0093410D01*
X0098864Y0093043D01*
X0097764Y0093043D01*
X0098498Y0093043D02*
X0099231Y0092309D01*
X0099973Y0093410D02*
X0101441Y0093410D01*
X0101074Y0094511D02*
X0099973Y0093410D01*
X0100342Y0094809D02*
X0100342Y0097011D01*
X0099600Y0096644D02*
X0099600Y0096277D01*
X0099233Y0095910D01*
X0098499Y0095910D01*
X0098132Y0096277D01*
X0098132Y0096644D01*
X0098499Y0097011D01*
X0099233Y0097011D01*
X0099600Y0096644D01*
X0099233Y0095910D02*
X0099600Y0095543D01*
X0099600Y0095176D01*
X0099233Y0094809D01*
X0098499Y0094809D01*
X0098132Y0095176D01*
X0098132Y0095543D01*
X0098499Y0095910D01*
X0097764Y0094511D02*
X0097764Y0092309D01*
X0097391Y0089511D02*
X0096657Y0089511D01*
X0096290Y0089144D01*
X0095548Y0089144D02*
X0095181Y0089511D01*
X0094447Y0089511D01*
X0094080Y0089144D01*
X0095548Y0089144D02*
X0095548Y0088777D01*
X0094080Y0087309D01*
X0095548Y0087309D01*
X0095921Y0087011D02*
X0095554Y0086644D01*
X0095554Y0085176D01*
X0095921Y0084809D01*
X0096655Y0084809D01*
X0097022Y0085176D01*
X0097764Y0084809D02*
X0099231Y0086277D01*
X0099231Y0086644D01*
X0098864Y0087011D01*
X0098131Y0087011D01*
X0097764Y0086644D01*
X0097758Y0087309D02*
X0096290Y0087309D01*
X0097758Y0088777D01*
X0097758Y0089144D01*
X0097391Y0089511D01*
X0098500Y0088777D02*
X0099601Y0088777D01*
X0099968Y0088410D01*
X0099968Y0087309D01*
X0100707Y0087011D02*
X0099973Y0086277D01*
X0100707Y0087011D02*
X0100707Y0084809D01*
X0099973Y0084809D02*
X0101441Y0084809D01*
X0099231Y0084809D02*
X0097764Y0084809D01*
X0097022Y0086644D02*
X0096655Y0087011D01*
X0095921Y0087011D01*
X0098500Y0087309D02*
X0098500Y0088777D01*
X0100710Y0088410D02*
X0101444Y0088410D01*
X0101077Y0089144D02*
X0101444Y0089511D01*
X0101077Y0089144D02*
X0101077Y0087309D01*
X0101074Y0092309D02*
X0101074Y0094511D01*
X0101443Y0094809D02*
X0100342Y0095543D01*
X0101443Y0096277D01*
X0078943Y0088777D02*
X0077842Y0088043D01*
X0078943Y0087309D01*
X0078941Y0087011D02*
X0077473Y0087011D01*
X0077473Y0085910D01*
X0078207Y0086277D01*
X0078574Y0086277D01*
X0078941Y0085910D01*
X0078941Y0085176D01*
X0078574Y0084809D01*
X0077840Y0084809D01*
X0077473Y0085176D01*
X0076731Y0084809D02*
X0075264Y0084809D01*
X0076731Y0086277D01*
X0076731Y0086644D01*
X0076364Y0087011D01*
X0075631Y0087011D01*
X0075264Y0086644D01*
X0074522Y0086644D02*
X0074522Y0085910D01*
X0074155Y0085543D01*
X0073054Y0085543D01*
X0073788Y0085543D02*
X0074522Y0084809D01*
X0073054Y0084809D02*
X0073054Y0087011D01*
X0074155Y0087011D01*
X0074522Y0086644D01*
X0074156Y0087309D02*
X0074156Y0089511D01*
X0073422Y0088777D01*
X0073422Y0087309D02*
X0074890Y0087309D01*
X0075632Y0087676D02*
X0077100Y0089144D01*
X0077100Y0087676D01*
X0076733Y0087309D01*
X0075999Y0087309D01*
X0075632Y0087676D01*
X0075632Y0089144D01*
X0075999Y0089511D01*
X0076733Y0089511D01*
X0077100Y0089144D01*
X0077842Y0089511D02*
X0077842Y0087309D01*
X0077842Y0082011D02*
X0077842Y0079809D01*
X0077842Y0080543D02*
X0078943Y0081277D01*
X0077842Y0080543D02*
X0078943Y0079809D01*
X0078941Y0079511D02*
X0078207Y0079144D01*
X0077473Y0078410D01*
X0078574Y0078410D01*
X0078941Y0078043D01*
X0078941Y0077676D01*
X0078574Y0077309D01*
X0077840Y0077309D01*
X0077473Y0077676D01*
X0077473Y0078410D01*
X0076731Y0078777D02*
X0076731Y0079144D01*
X0076364Y0079511D01*
X0075631Y0079511D01*
X0075264Y0079144D01*
X0074522Y0079144D02*
X0074522Y0078410D01*
X0074155Y0078043D01*
X0073054Y0078043D01*
X0073788Y0078043D02*
X0074522Y0077309D01*
X0075264Y0077309D02*
X0076731Y0078777D01*
X0076733Y0079809D02*
X0075999Y0079809D01*
X0075632Y0080176D01*
X0077100Y0081644D01*
X0077100Y0080176D01*
X0076733Y0079809D01*
X0075632Y0080176D02*
X0075632Y0081644D01*
X0075999Y0082011D01*
X0076733Y0082011D01*
X0077100Y0081644D01*
X0074890Y0079809D02*
X0073422Y0079809D01*
X0073054Y0079511D02*
X0074155Y0079511D01*
X0074522Y0079144D01*
X0074156Y0079809D02*
X0074156Y0082011D01*
X0073422Y0081277D01*
X0073054Y0079511D02*
X0073054Y0077309D01*
X0075264Y0077309D02*
X0076731Y0077309D01*
X0093712Y0079809D02*
X0095180Y0079809D01*
X0094446Y0079809D02*
X0094446Y0082011D01*
X0093712Y0081277D01*
X0095922Y0081644D02*
X0096289Y0082011D01*
X0097023Y0082011D01*
X0097390Y0081644D01*
X0097390Y0081277D01*
X0097023Y0080910D01*
X0097390Y0080543D01*
X0097390Y0080176D01*
X0097023Y0079809D01*
X0096289Y0079809D01*
X0095922Y0080176D01*
X0096656Y0080910D02*
X0097023Y0080910D01*
X0098132Y0081644D02*
X0098499Y0082011D01*
X0099233Y0082011D01*
X0099600Y0081644D01*
X0098132Y0080176D01*
X0098499Y0079809D01*
X0099233Y0079809D01*
X0099600Y0080176D01*
X0099600Y0081644D01*
X0100342Y0082011D02*
X0100342Y0079809D01*
X0099973Y0079511D02*
X0101441Y0079511D01*
X0101443Y0079809D02*
X0100342Y0080543D01*
X0101443Y0081277D01*
X0099973Y0079511D02*
X0099973Y0078410D01*
X0100707Y0078777D01*
X0101074Y0078777D01*
X0101441Y0078410D01*
X0101441Y0077676D01*
X0101074Y0077309D01*
X0100340Y0077309D01*
X0099973Y0077676D01*
X0099231Y0077309D02*
X0098498Y0078043D01*
X0098864Y0078043D02*
X0097764Y0078043D01*
X0097764Y0077309D02*
X0097764Y0079511D01*
X0098864Y0079511D01*
X0099231Y0079144D01*
X0099231Y0078410D01*
X0098864Y0078043D01*
X0098132Y0080176D02*
X0098132Y0081644D01*
X0105328Y0073261D02*
X0104594Y0072527D01*
X0105328Y0073261D02*
X0105328Y0071059D01*
X0104594Y0071059D02*
X0106062Y0071059D01*
X0106804Y0071426D02*
X0107171Y0071059D01*
X0107905Y0071059D01*
X0108272Y0071426D01*
X0108272Y0072894D01*
X0106804Y0071426D01*
X0106804Y0072894D01*
X0107171Y0073261D01*
X0107905Y0073261D01*
X0108272Y0072894D01*
X0109014Y0072894D02*
X0109381Y0073261D01*
X0110114Y0073261D01*
X0110481Y0072894D01*
X0109014Y0071426D01*
X0109381Y0071059D01*
X0110114Y0071059D01*
X0110481Y0071426D01*
X0110481Y0072894D01*
X0111223Y0072527D02*
X0112324Y0072527D01*
X0112691Y0072160D01*
X0112691Y0071059D01*
X0111223Y0071059D02*
X0111223Y0072527D01*
X0109014Y0072894D02*
X0109014Y0071426D01*
X0109824Y0063261D02*
X0108723Y0062160D01*
X0110191Y0062160D01*
X0109824Y0061059D02*
X0109824Y0063261D01*
X0107981Y0062894D02*
X0107614Y0063261D01*
X0106881Y0063261D01*
X0106514Y0062894D01*
X0106514Y0061426D01*
X0106881Y0061059D01*
X0107614Y0061059D01*
X0107981Y0061426D01*
X0095441Y0054644D02*
X0095074Y0055011D01*
X0093973Y0055011D01*
X0093973Y0052809D01*
X0095074Y0052809D01*
X0095441Y0053176D01*
X0095441Y0054644D01*
X0093231Y0054644D02*
X0093231Y0054277D01*
X0091764Y0052809D01*
X0093231Y0052809D01*
X0093231Y0054644D02*
X0092864Y0055011D01*
X0092130Y0055011D01*
X0091764Y0054644D01*
X0091022Y0054644D02*
X0091022Y0054277D01*
X0090655Y0053910D01*
X0091022Y0053543D01*
X0091022Y0053176D01*
X0090655Y0052809D01*
X0089921Y0052809D01*
X0089554Y0053176D01*
X0088812Y0053176D02*
X0088445Y0052809D01*
X0087711Y0052809D01*
X0087344Y0053176D01*
X0087344Y0053910D02*
X0088078Y0054277D01*
X0088445Y0054277D01*
X0088812Y0053910D01*
X0088812Y0053176D01*
X0087344Y0053910D02*
X0087344Y0055011D01*
X0088812Y0055011D01*
X0089554Y0054644D02*
X0089921Y0055011D01*
X0090655Y0055011D01*
X0091022Y0054644D01*
X0090655Y0053910D02*
X0090288Y0053910D01*
X0086602Y0053910D02*
X0086602Y0053176D01*
X0086235Y0052809D01*
X0085501Y0052809D01*
X0085134Y0053176D01*
X0085134Y0053910D02*
X0085868Y0054277D01*
X0086235Y0054277D01*
X0086602Y0053910D01*
X0086602Y0055011D02*
X0085134Y0055011D01*
X0085134Y0053910D01*
X0084392Y0055011D02*
X0082924Y0055011D01*
X0082924Y0052809D01*
X0084392Y0052809D01*
X0083658Y0053910D02*
X0082924Y0053910D01*
X0082182Y0052809D02*
X0082182Y0055011D01*
X0080714Y0055011D02*
X0082182Y0052809D01*
X0080714Y0052809D02*
X0080714Y0055011D01*
X0089790Y0059309D02*
X0090524Y0059309D01*
X0090157Y0059309D02*
X0090157Y0061511D01*
X0089790Y0061511D02*
X0090524Y0061511D01*
X0091264Y0061144D02*
X0091264Y0059676D01*
X0091631Y0059309D01*
X0092364Y0059309D01*
X0092731Y0059676D01*
X0093473Y0059309D02*
X0094941Y0059309D01*
X0094207Y0059309D02*
X0094207Y0061511D01*
X0093473Y0060777D01*
X0092731Y0061144D02*
X0092364Y0061511D01*
X0091631Y0061511D01*
X0091264Y0061144D01*
X0104594Y0052527D02*
X0105328Y0053261D01*
X0105328Y0051059D01*
X0104594Y0051059D02*
X0106062Y0051059D01*
X0106804Y0051426D02*
X0108272Y0052894D01*
X0108272Y0051426D01*
X0107905Y0051059D01*
X0107171Y0051059D01*
X0106804Y0051426D01*
X0106804Y0052894D01*
X0107171Y0053261D01*
X0107905Y0053261D01*
X0108272Y0052894D01*
X0109014Y0052894D02*
X0109381Y0053261D01*
X0110114Y0053261D01*
X0110481Y0052894D01*
X0109014Y0051426D01*
X0109381Y0051059D01*
X0110114Y0051059D01*
X0110481Y0051426D01*
X0110481Y0052894D01*
X0111223Y0052527D02*
X0112324Y0052527D01*
X0112691Y0052160D01*
X0112691Y0051059D01*
X0111223Y0051059D02*
X0111223Y0052527D01*
X0109014Y0052894D02*
X0109014Y0051426D01*
X0108864Y0043261D02*
X0108131Y0043261D01*
X0107764Y0042894D01*
X0107022Y0042894D02*
X0106655Y0043261D01*
X0105921Y0043261D01*
X0105554Y0042894D01*
X0105554Y0041426D01*
X0105921Y0041059D01*
X0106655Y0041059D01*
X0107022Y0041426D01*
X0107764Y0041059D02*
X0109231Y0042527D01*
X0109231Y0042894D01*
X0108864Y0043261D01*
X0109973Y0042894D02*
X0109973Y0042527D01*
X0110340Y0042160D01*
X0111074Y0042160D01*
X0111441Y0041793D01*
X0111441Y0041426D01*
X0111074Y0041059D01*
X0110340Y0041059D01*
X0109973Y0041426D01*
X0109973Y0041793D01*
X0110340Y0042160D01*
X0111074Y0042160D02*
X0111441Y0042527D01*
X0111441Y0042894D01*
X0111074Y0043261D01*
X0110340Y0043261D01*
X0109973Y0042894D01*
X0109231Y0041059D02*
X0107764Y0041059D01*
X0093809Y0033677D02*
X0092708Y0032943D01*
X0093809Y0032209D01*
X0092708Y0032209D02*
X0092708Y0034411D01*
X0091966Y0034411D02*
X0091966Y0034044D01*
X0090498Y0032576D01*
X0090498Y0032209D01*
X0089760Y0032209D02*
X0089393Y0032209D01*
X0089393Y0032576D01*
X0089760Y0032576D01*
X0089760Y0032209D01*
X0088651Y0032209D02*
X0087183Y0032209D01*
X0088651Y0033677D01*
X0088651Y0034044D01*
X0088284Y0034411D01*
X0087550Y0034411D01*
X0087183Y0034044D01*
X0087183Y0034709D02*
X0087183Y0036911D01*
X0088284Y0036911D01*
X0088651Y0036544D01*
X0088651Y0035810D01*
X0088284Y0035443D01*
X0087183Y0035443D01*
X0087917Y0035443D02*
X0088651Y0034709D01*
X0089393Y0034709D02*
X0090861Y0036177D01*
X0090861Y0036544D01*
X0090494Y0036911D01*
X0089760Y0036911D01*
X0089393Y0036544D01*
X0089393Y0034709D02*
X0090861Y0034709D01*
X0090498Y0034411D02*
X0091966Y0034411D01*
X0090494Y0029411D02*
X0089760Y0029411D01*
X0089393Y0029044D01*
X0088651Y0029044D02*
X0088651Y0028310D01*
X0088284Y0027943D01*
X0087183Y0027943D01*
X0087183Y0027209D02*
X0087183Y0029411D01*
X0088284Y0029411D01*
X0088651Y0029044D01*
X0087917Y0027943D02*
X0088651Y0027209D01*
X0088284Y0026911D02*
X0087183Y0025810D01*
X0088651Y0025810D01*
X0089393Y0025076D02*
X0089393Y0024709D01*
X0089393Y0025076D02*
X0090861Y0026544D01*
X0090861Y0026911D01*
X0089393Y0026911D01*
X0089760Y0027209D02*
X0089393Y0027576D01*
X0089760Y0027209D02*
X0090494Y0027209D01*
X0090861Y0027576D01*
X0090861Y0027943D01*
X0090494Y0028310D01*
X0090127Y0028310D01*
X0090494Y0028310D02*
X0090861Y0028677D01*
X0090861Y0029044D01*
X0090494Y0029411D01*
X0091970Y0026911D02*
X0092704Y0026911D01*
X0093071Y0026544D01*
X0091603Y0025076D01*
X0091970Y0024709D01*
X0092704Y0024709D01*
X0093071Y0025076D01*
X0093071Y0026544D01*
X0093813Y0026911D02*
X0094914Y0026911D01*
X0095281Y0026544D01*
X0095281Y0025810D01*
X0094914Y0025443D01*
X0093813Y0025443D01*
X0094547Y0025443D02*
X0095281Y0024709D01*
X0093813Y0024709D02*
X0093813Y0026911D01*
X0091970Y0026911D02*
X0091603Y0026544D01*
X0091603Y0025076D01*
X0088284Y0024709D02*
X0088284Y0026911D01*
X0071883Y0042342D02*
X0070415Y0043810D01*
X0070048Y0043810D01*
X0069681Y0043443D01*
X0069681Y0042709D01*
X0070048Y0042342D01*
X0071883Y0042342D02*
X0071883Y0043810D01*
X0071883Y0044552D02*
X0071883Y0044919D01*
X0071516Y0044919D01*
X0071516Y0044552D01*
X0071883Y0044552D01*
X0072181Y0045289D02*
X0072181Y0046390D01*
X0072548Y0046757D01*
X0073282Y0046757D01*
X0073649Y0046390D01*
X0073649Y0045289D01*
X0073649Y0046023D02*
X0074383Y0046757D01*
X0074383Y0047499D02*
X0074383Y0048967D01*
X0074383Y0048233D02*
X0072181Y0048233D01*
X0072915Y0047499D01*
X0071883Y0047867D02*
X0069681Y0047867D01*
X0069681Y0047125D02*
X0070048Y0047125D01*
X0071516Y0045657D01*
X0071883Y0045657D01*
X0072181Y0045289D02*
X0074383Y0045289D01*
X0071149Y0047867D02*
X0070415Y0048968D01*
X0071149Y0047867D02*
X0071883Y0048968D01*
X0069681Y0047125D02*
X0069681Y0045657D01*
X0125714Y0052809D02*
X0125714Y0055011D01*
X0127182Y0052809D01*
X0127182Y0055011D01*
X0127924Y0055011D02*
X0127924Y0052809D01*
X0129392Y0052809D01*
X0130134Y0053176D02*
X0130501Y0052809D01*
X0131235Y0052809D01*
X0131602Y0053176D01*
X0131602Y0053910D01*
X0131235Y0054277D01*
X0130868Y0054277D01*
X0130134Y0053910D01*
X0130134Y0055011D01*
X0131602Y0055011D01*
X0132344Y0055011D02*
X0132344Y0053910D01*
X0133078Y0054277D01*
X0133445Y0054277D01*
X0133812Y0053910D01*
X0133812Y0053176D01*
X0133445Y0052809D01*
X0132711Y0052809D01*
X0132344Y0053176D01*
X0132344Y0055011D02*
X0133812Y0055011D01*
X0134554Y0054644D02*
X0134921Y0055011D01*
X0135655Y0055011D01*
X0136022Y0054644D01*
X0136022Y0054277D01*
X0135655Y0053910D01*
X0136022Y0053543D01*
X0136022Y0053176D01*
X0135655Y0052809D01*
X0134921Y0052809D01*
X0134554Y0053176D01*
X0135288Y0053910D02*
X0135655Y0053910D01*
X0136764Y0054644D02*
X0137130Y0055011D01*
X0137864Y0055011D01*
X0138231Y0054644D01*
X0138231Y0054277D01*
X0136764Y0052809D01*
X0138231Y0052809D01*
X0138973Y0052809D02*
X0140074Y0052809D01*
X0140441Y0053176D01*
X0140441Y0054644D01*
X0140074Y0055011D01*
X0138973Y0055011D01*
X0138973Y0052809D01*
X0129392Y0055011D02*
X0127924Y0055011D01*
X0127924Y0053910D02*
X0128658Y0053910D01*
X0134790Y0059309D02*
X0135524Y0059309D01*
X0135157Y0059309D02*
X0135157Y0061511D01*
X0134790Y0061511D02*
X0135524Y0061511D01*
X0136264Y0061144D02*
X0136264Y0059676D01*
X0136631Y0059309D01*
X0137364Y0059309D01*
X0137731Y0059676D01*
X0138473Y0059309D02*
X0139941Y0060777D01*
X0139941Y0061144D01*
X0139574Y0061511D01*
X0138840Y0061511D01*
X0138473Y0061144D01*
X0137731Y0061144D02*
X0137364Y0061511D01*
X0136631Y0061511D01*
X0136264Y0061144D01*
X0138473Y0059309D02*
X0139941Y0059309D01*
X0172281Y0056479D02*
X0172281Y0055745D01*
X0172648Y0055379D01*
X0172281Y0056479D02*
X0172648Y0056846D01*
X0173015Y0056846D01*
X0174483Y0055379D01*
X0174483Y0056846D01*
X0174781Y0056479D02*
X0175148Y0056846D01*
X0176616Y0055379D01*
X0176983Y0055745D01*
X0176983Y0056479D01*
X0176616Y0056846D01*
X0175148Y0056846D01*
X0174781Y0056479D02*
X0174781Y0055745D01*
X0175148Y0055379D01*
X0176616Y0055379D01*
X0176616Y0054637D02*
X0176983Y0054270D01*
X0176983Y0053536D01*
X0176616Y0053169D01*
X0175148Y0054637D01*
X0176616Y0054637D01*
X0175148Y0054637D02*
X0174781Y0054270D01*
X0174781Y0053536D01*
X0175148Y0053169D01*
X0176616Y0053169D01*
X0176983Y0052427D02*
X0176983Y0050959D01*
X0176983Y0051693D02*
X0174781Y0051693D01*
X0175515Y0050959D01*
X0174483Y0051326D02*
X0174483Y0052060D01*
X0174116Y0052427D01*
X0174483Y0053169D02*
X0174483Y0054637D01*
X0174483Y0053903D02*
X0172281Y0053903D01*
X0173015Y0053169D01*
X0172648Y0052427D02*
X0172281Y0052060D01*
X0172281Y0051326D01*
X0172648Y0050959D01*
X0174116Y0050959D01*
X0174483Y0051326D01*
X0175515Y0057588D02*
X0175515Y0058689D01*
X0175882Y0059056D01*
X0176983Y0059056D01*
X0176983Y0057588D02*
X0175515Y0057588D01*
X0192281Y0042439D02*
X0192648Y0042806D01*
X0193382Y0042806D01*
X0193749Y0042439D01*
X0193749Y0041338D01*
X0194483Y0041338D02*
X0192281Y0041338D01*
X0192281Y0042439D01*
X0193749Y0042072D02*
X0194483Y0042806D01*
X0194116Y0040596D02*
X0194483Y0040229D01*
X0194483Y0039495D01*
X0194116Y0039129D01*
X0192648Y0040596D01*
X0194116Y0040596D01*
X0194116Y0039129D02*
X0192648Y0039129D01*
X0192281Y0039495D01*
X0192281Y0040229D01*
X0192648Y0040596D01*
X0191983Y0040229D02*
X0189781Y0040229D01*
X0190882Y0039129D01*
X0190882Y0040596D01*
X0190515Y0038387D02*
X0190148Y0038387D01*
X0189781Y0038020D01*
X0189781Y0037286D01*
X0190148Y0036919D01*
X0190148Y0036177D02*
X0190882Y0036177D01*
X0191249Y0035810D01*
X0191249Y0034709D01*
X0191249Y0035443D02*
X0191983Y0036177D01*
X0192281Y0035810D02*
X0193382Y0034709D01*
X0193382Y0036177D01*
X0194116Y0036919D02*
X0194483Y0036919D01*
X0194116Y0036919D02*
X0192648Y0038387D01*
X0192281Y0038387D01*
X0192281Y0036919D01*
X0191983Y0036919D02*
X0190515Y0038387D01*
X0191983Y0038387D02*
X0191983Y0036919D01*
X0192281Y0035810D02*
X0194483Y0035810D01*
X0191983Y0034709D02*
X0189781Y0034709D01*
X0189781Y0035810D01*
X0190148Y0036177D01*
X0144890Y0079809D02*
X0143422Y0079809D01*
X0144156Y0079809D02*
X0144156Y0082011D01*
X0143422Y0081277D01*
X0142680Y0079809D02*
X0141212Y0079809D01*
X0141946Y0079809D02*
X0141946Y0082011D01*
X0141212Y0081277D01*
X0145264Y0084809D02*
X0146731Y0084809D01*
X0148577Y0087309D02*
X0148577Y0089144D01*
X0148944Y0089511D01*
X0148944Y0088410D02*
X0148210Y0088410D01*
X0173054Y0107676D02*
X0173421Y0107309D01*
X0174155Y0107309D01*
X0174522Y0107676D01*
X0175264Y0107676D02*
X0175631Y0107309D01*
X0176364Y0107309D01*
X0176731Y0107676D01*
X0176731Y0108043D01*
X0176364Y0108410D01*
X0175998Y0108410D01*
X0176364Y0108410D02*
X0176731Y0108777D01*
X0176731Y0109144D01*
X0176364Y0109511D01*
X0175631Y0109511D01*
X0175264Y0109144D01*
X0174522Y0109144D02*
X0174155Y0109511D01*
X0173421Y0109511D01*
X0173054Y0109144D01*
X0173054Y0107676D01*
X0177473Y0107309D02*
X0178941Y0107309D01*
X0178207Y0107309D02*
X0178207Y0109511D01*
X0177473Y0108777D01*
X0176223Y0117309D02*
X0176223Y0119511D01*
X0177324Y0119511D01*
X0177691Y0119144D01*
X0177691Y0118410D01*
X0177324Y0118043D01*
X0176223Y0118043D01*
X0175481Y0117309D02*
X0175481Y0119511D01*
X0174014Y0119511D02*
X0174014Y0117309D01*
X0175481Y0117309D02*
X0174014Y0119511D01*
X0193051Y0097011D02*
X0192317Y0096277D01*
X0197842Y0095543D02*
X0198943Y0096277D01*
X0197842Y0095543D02*
X0198943Y0094809D01*
X0264304Y0103926D02*
X0264671Y0103559D01*
X0265405Y0103559D01*
X0265772Y0103926D01*
X0266514Y0103926D02*
X0266881Y0103559D01*
X0267614Y0103559D01*
X0267981Y0103926D01*
X0267981Y0104293D01*
X0267614Y0104660D01*
X0267248Y0104660D01*
X0267614Y0104660D02*
X0267981Y0105027D01*
X0267981Y0105394D01*
X0267614Y0105761D01*
X0266881Y0105761D01*
X0266514Y0105394D01*
X0265772Y0105394D02*
X0265405Y0105761D01*
X0264671Y0105761D01*
X0264304Y0105394D01*
X0264304Y0103926D01*
X0268723Y0103926D02*
X0269090Y0103559D01*
X0269824Y0103559D01*
X0270191Y0103926D01*
X0270191Y0104293D01*
X0269824Y0104660D01*
X0269457Y0104660D01*
X0269824Y0104660D02*
X0270191Y0105027D01*
X0270191Y0105394D01*
X0269824Y0105761D01*
X0269090Y0105761D01*
X0268723Y0105394D01*
X0267473Y0113559D02*
X0267473Y0115761D01*
X0268574Y0115761D01*
X0268941Y0115394D01*
X0268941Y0114660D01*
X0268574Y0114293D01*
X0267473Y0114293D01*
X0266731Y0113559D02*
X0266731Y0115761D01*
X0265264Y0115761D02*
X0265264Y0113559D01*
X0266731Y0113559D02*
X0265264Y0115761D01*
D13*
X0246532Y0064589D02*
X0227635Y0064589D01*
X0227635Y0051597D01*
X0246532Y0051597D01*
X0246532Y0049628D01*
X0227635Y0049628D01*
X0227635Y0051597D01*
X0246532Y0051597D02*
X0246532Y0064589D01*
X0317635Y0064589D02*
X0317635Y0051597D01*
X0336532Y0051597D01*
X0336532Y0049628D01*
X0317635Y0049628D01*
X0317635Y0051597D01*
X0336532Y0051597D02*
X0336532Y0064589D01*
X0317635Y0064589D01*
X0360135Y0064589D02*
X0360135Y0051597D01*
X0379032Y0051597D01*
X0379032Y0049628D01*
X0360135Y0049628D01*
X0360135Y0051597D01*
X0379032Y0051597D02*
X0379032Y0064589D01*
X0360135Y0064589D01*
X0432083Y0046184D02*
X0437083Y0046184D01*
X0141532Y0049628D02*
X0122635Y0049628D01*
X0122635Y0051597D01*
X0141532Y0051597D01*
X0141532Y0049628D01*
X0141532Y0051597D02*
X0141532Y0064589D01*
X0122635Y0064589D01*
X0122635Y0051597D01*
X0096532Y0051597D02*
X0096532Y0049628D01*
X0077635Y0049628D01*
X0077635Y0051597D01*
X0096532Y0051597D01*
X0096532Y0064589D01*
X0077635Y0064589D01*
X0077635Y0051597D01*
D14*
X0419783Y0052354D02*
X0424387Y0052354D01*
X0424387Y0050820D02*
X0424387Y0053889D01*
X0423620Y0055424D02*
X0424387Y0056191D01*
X0424387Y0057726D01*
X0423620Y0058493D01*
X0422853Y0058493D01*
X0422085Y0057726D01*
X0422085Y0056191D01*
X0421318Y0055424D01*
X0420551Y0055424D01*
X0419783Y0056191D01*
X0419783Y0057726D01*
X0420551Y0058493D01*
X0420551Y0064632D02*
X0419783Y0065399D01*
X0419783Y0067701D01*
X0424387Y0067701D01*
X0424387Y0065399D01*
X0423620Y0064632D01*
X0420551Y0064632D01*
X0419783Y0069236D02*
X0419783Y0072305D01*
X0424387Y0072305D01*
X0424387Y0069236D01*
X0422085Y0070770D02*
X0422085Y0072305D01*
X0422085Y0073839D02*
X0421318Y0074607D01*
X0421318Y0076909D01*
X0419783Y0076909D02*
X0424387Y0076909D01*
X0424387Y0074607D01*
X0423620Y0073839D01*
X0422085Y0073839D01*
X0421318Y0075374D02*
X0419783Y0073839D01*
X0419783Y0049285D02*
X0424387Y0049285D01*
X0424387Y0046983D01*
X0423620Y0046216D01*
X0422085Y0046216D01*
X0421318Y0046983D01*
X0421318Y0049285D01*
X0421318Y0047751D02*
X0419783Y0046216D01*
X0419783Y0044681D02*
X0419783Y0043147D01*
X0419783Y0043914D02*
X0424387Y0043914D01*
X0424387Y0044681D02*
X0424387Y0043147D01*
X0424387Y0041612D02*
X0419783Y0041612D01*
X0421318Y0041612D02*
X0421318Y0039310D01*
X0422085Y0038543D01*
X0423620Y0038543D01*
X0424387Y0039310D01*
X0424387Y0041612D01*
X0424387Y0037008D02*
X0419783Y0037008D01*
X0419783Y0033939D01*
X0422085Y0035473D02*
X0422085Y0037008D01*
X0424387Y0037008D02*
X0424387Y0033939D01*
D15*
X0405696Y0053260D03*
X0400971Y0060957D03*
M02*
