G75*
%MOIN*%
%OFA0B0*%
%FSLAX25Y25*%
%IPPOS*%
%LPD*%
%AMOC8*
5,1,8,0,0,1.08239X$1,22.5*
%
%ADD10C,0.00800*%
%ADD11C,0.00400*%
%ADD12C,0.00500*%
%ADD13C,0.00300*%
D10*
X0061915Y0089222D02*
X0148911Y0002226D01*
X0173966Y0027281D01*
X0171823Y0029424D01*
X0164752Y0036495D02*
X0086970Y0114277D01*
X0079899Y0121348D02*
X0077755Y0123492D01*
X0052700Y0098437D01*
X0054844Y0096293D01*
X0071770Y0097351D02*
X0078841Y0104422D01*
X0153505Y0029758D01*
X0146434Y0022687D01*
X0071770Y0097351D01*
X0105200Y0098437D02*
X0107344Y0096293D01*
X0105200Y0098437D02*
X0130255Y0123492D01*
X0132399Y0121348D01*
X0139470Y0114277D02*
X0217252Y0036495D01*
X0224323Y0029424D02*
X0226466Y0027281D01*
X0201411Y0002226D01*
X0114415Y0089222D01*
X0124270Y0097351D02*
X0131341Y0104422D01*
X0206005Y0029758D01*
X0198934Y0022687D01*
X0124270Y0097351D01*
X0157700Y0098437D02*
X0159844Y0096293D01*
X0157700Y0098437D02*
X0182755Y0123492D01*
X0184899Y0121348D01*
X0191970Y0114277D02*
X0269752Y0036495D01*
X0276823Y0029424D02*
X0278966Y0027281D01*
X0253911Y0002226D01*
X0166915Y0089222D01*
X0176770Y0097351D02*
X0183841Y0104422D01*
X0258505Y0029758D01*
X0251434Y0022687D01*
X0176770Y0097351D01*
X0210200Y0098437D02*
X0212344Y0096293D01*
X0210200Y0098437D02*
X0235255Y0123492D01*
X0237399Y0121348D01*
X0244470Y0114277D02*
X0322252Y0036495D01*
X0329323Y0029424D02*
X0331466Y0027281D01*
X0306411Y0002226D01*
X0219415Y0089222D01*
X0229270Y0097351D02*
X0236341Y0104422D01*
X0311005Y0029758D01*
X0303934Y0022687D01*
X0229270Y0097351D01*
X0262700Y0098437D02*
X0264844Y0096293D01*
X0262700Y0098437D02*
X0287755Y0123492D01*
X0289899Y0121348D01*
X0296970Y0114277D02*
X0374752Y0036495D01*
X0381823Y0029424D02*
X0383966Y0027281D01*
X0358911Y0002226D01*
X0271915Y0089222D01*
X0281770Y0097351D02*
X0288841Y0104422D01*
X0363505Y0029758D01*
X0356434Y0022687D01*
X0281770Y0097351D01*
X0315200Y0098437D02*
X0317344Y0096293D01*
X0315200Y0098437D02*
X0340255Y0123492D01*
X0342399Y0121348D01*
X0349470Y0114277D02*
X0427252Y0036495D01*
X0434323Y0029424D02*
X0436466Y0027281D01*
X0411411Y0002226D01*
X0324415Y0089222D01*
X0334270Y0097351D02*
X0341341Y0104422D01*
X0416005Y0029758D01*
X0408934Y0022687D01*
X0334270Y0097351D01*
X0367700Y0098437D02*
X0369844Y0096293D01*
X0367700Y0098437D02*
X0392755Y0123492D01*
X0394899Y0121348D01*
X0401970Y0114277D02*
X0479752Y0036495D01*
X0486823Y0029424D02*
X0488966Y0027281D01*
X0463911Y0002226D01*
X0376915Y0089222D01*
X0386770Y0097351D02*
X0393841Y0104422D01*
X0468505Y0029758D01*
X0461434Y0022687D01*
X0386770Y0097351D01*
D11*
X0388995Y0090784D02*
X0388452Y0090242D01*
X0388452Y0085901D01*
X0387910Y0085359D01*
X0385739Y0087529D01*
X0388995Y0090784D02*
X0391165Y0088614D01*
X0392250Y0087529D02*
X0388995Y0084273D01*
X0390623Y0085901D02*
X0392793Y0083731D01*
X0391165Y0082103D02*
X0394421Y0085359D01*
X0395506Y0084273D02*
X0395506Y0079933D01*
X0395506Y0081018D02*
X0392250Y0081018D01*
X0394421Y0078848D02*
X0397676Y0082103D01*
X0398761Y0081018D02*
X0399304Y0079390D01*
X0399304Y0077220D01*
X0397676Y0078848D01*
X0396591Y0078848D01*
X0396048Y0078305D01*
X0396048Y0077220D01*
X0397134Y0076135D01*
X0398219Y0076135D01*
X0399304Y0077220D01*
X0398761Y0074507D02*
X0400932Y0072337D01*
X0399846Y0073422D02*
X0403102Y0076677D01*
X0403102Y0074507D01*
X0353315Y0073964D02*
X0351144Y0076135D01*
X0350602Y0075592D01*
X0350602Y0071252D01*
X0350059Y0070709D01*
X0346804Y0073964D02*
X0346261Y0074507D01*
X0346804Y0075050D01*
X0347346Y0074507D01*
X0346804Y0073964D01*
X0345176Y0075592D02*
X0345719Y0076135D01*
X0345719Y0080475D01*
X0346261Y0081018D01*
X0348432Y0078848D01*
X0345176Y0082103D02*
X0341921Y0078848D01*
X0343006Y0079933D02*
X0343006Y0084273D01*
X0341921Y0085359D02*
X0338665Y0082103D01*
X0339750Y0081018D02*
X0343006Y0081018D01*
X0340293Y0083731D02*
X0338123Y0085901D01*
X0335952Y0085901D02*
X0335410Y0085359D01*
X0333239Y0087529D01*
X0335952Y0085901D02*
X0335952Y0090242D01*
X0336495Y0090784D01*
X0338665Y0088614D01*
X0339750Y0087529D02*
X0336495Y0084273D01*
X0300272Y0074507D02*
X0300272Y0073422D01*
X0300272Y0074507D02*
X0299187Y0075592D01*
X0298102Y0075592D01*
X0297559Y0075050D01*
X0297559Y0070709D01*
X0295389Y0072879D01*
X0294304Y0073964D02*
X0293761Y0074507D01*
X0294304Y0075050D01*
X0294846Y0074507D01*
X0294304Y0073964D01*
X0293219Y0076135D02*
X0292134Y0076135D01*
X0291048Y0077220D01*
X0291048Y0078305D01*
X0292134Y0079390D01*
X0293219Y0079390D01*
X0293761Y0078848D01*
X0294304Y0077220D01*
X0295932Y0078848D01*
X0293761Y0081018D01*
X0292676Y0082103D02*
X0289421Y0078848D01*
X0290506Y0079933D02*
X0290506Y0084273D01*
X0289421Y0085359D02*
X0286165Y0082103D01*
X0287250Y0081018D02*
X0290506Y0081018D01*
X0287793Y0083731D02*
X0285623Y0085901D01*
X0283452Y0085901D02*
X0282910Y0085359D01*
X0280739Y0087529D01*
X0283452Y0085901D02*
X0283452Y0090242D01*
X0283995Y0090784D01*
X0286165Y0088614D01*
X0287250Y0087529D02*
X0283995Y0084273D01*
X0242346Y0079933D02*
X0242346Y0077763D01*
X0242346Y0079933D02*
X0239091Y0076677D01*
X0240176Y0075592D02*
X0238006Y0077763D01*
X0236921Y0078848D02*
X0240176Y0082103D01*
X0238006Y0081018D02*
X0234750Y0081018D01*
X0233665Y0082103D02*
X0236921Y0085359D01*
X0238006Y0084273D02*
X0238006Y0079933D01*
X0235293Y0083731D02*
X0233123Y0085901D01*
X0230952Y0085901D02*
X0230410Y0085359D01*
X0228239Y0087529D01*
X0230952Y0085901D02*
X0230952Y0090242D01*
X0231495Y0090784D01*
X0233665Y0088614D01*
X0234750Y0087529D02*
X0231495Y0084273D01*
X0192559Y0077220D02*
X0192559Y0073964D01*
X0190389Y0076135D01*
X0189846Y0077763D02*
X0189846Y0079933D01*
X0186591Y0076677D01*
X0187676Y0075592D02*
X0185506Y0077763D01*
X0184963Y0079390D02*
X0184963Y0083731D01*
X0182793Y0081561D01*
X0182793Y0080475D01*
X0183878Y0079390D01*
X0184963Y0079390D01*
X0187134Y0081561D01*
X0187134Y0082646D01*
X0186048Y0083731D01*
X0184963Y0083731D01*
X0184421Y0085359D02*
X0181165Y0082103D01*
X0182793Y0083731D02*
X0180623Y0085901D01*
X0178452Y0085901D02*
X0177910Y0085359D01*
X0175739Y0087529D01*
X0178452Y0085901D02*
X0178452Y0090242D01*
X0178995Y0090784D01*
X0181165Y0088614D01*
X0182250Y0087529D02*
X0178995Y0084273D01*
X0189304Y0073964D02*
X0192559Y0077220D01*
X0140602Y0076677D02*
X0140602Y0074507D01*
X0140602Y0076677D02*
X0137346Y0073422D01*
X0136261Y0074507D02*
X0138432Y0072337D01*
X0135719Y0076135D02*
X0134634Y0076135D01*
X0133548Y0077220D01*
X0133548Y0078305D01*
X0134091Y0078848D01*
X0135176Y0078848D01*
X0136804Y0077220D01*
X0135719Y0076135D01*
X0136804Y0077220D02*
X0136804Y0079390D01*
X0136261Y0081018D01*
X0134634Y0081561D02*
X0132463Y0079390D01*
X0132463Y0083731D01*
X0130293Y0081561D01*
X0130293Y0080475D01*
X0131378Y0079390D01*
X0132463Y0079390D01*
X0134634Y0081561D02*
X0134634Y0082646D01*
X0133548Y0083731D01*
X0132463Y0083731D01*
X0131921Y0085359D02*
X0128665Y0082103D01*
X0130293Y0083731D02*
X0128123Y0085901D01*
X0125952Y0085901D02*
X0125410Y0085359D01*
X0123239Y0087529D01*
X0125952Y0085901D02*
X0125952Y0090242D01*
X0126495Y0090784D01*
X0128665Y0088614D01*
X0129750Y0087529D02*
X0126495Y0084273D01*
X0084304Y0079390D02*
X0084304Y0077220D01*
X0082676Y0078848D01*
X0081591Y0078848D01*
X0081048Y0078305D01*
X0081048Y0077220D01*
X0082134Y0076135D01*
X0083219Y0076135D01*
X0084304Y0077220D01*
X0084304Y0079390D02*
X0083761Y0081018D01*
X0082134Y0081561D02*
X0082134Y0082646D01*
X0081048Y0083731D01*
X0079963Y0083731D01*
X0079421Y0083188D01*
X0079421Y0082103D01*
X0078335Y0082103D01*
X0077793Y0081561D01*
X0077793Y0080475D01*
X0078878Y0079390D01*
X0079963Y0079390D01*
X0079963Y0081561D02*
X0079421Y0082103D01*
X0077793Y0083731D02*
X0075623Y0085901D01*
X0073452Y0085901D02*
X0072910Y0085359D01*
X0070739Y0087529D01*
X0073452Y0085901D02*
X0073452Y0090242D01*
X0073995Y0090784D01*
X0076165Y0088614D01*
X0077250Y0087529D02*
X0073995Y0084273D01*
X0076165Y0082103D02*
X0079421Y0085359D01*
D12*
X0061680Y0007642D02*
X0059711Y0007642D01*
X0059711Y0009611D01*
X0072740Y0025359D02*
X0072743Y0025619D01*
X0072753Y0025879D01*
X0072769Y0026138D01*
X0072791Y0026397D01*
X0072820Y0026656D01*
X0072855Y0026913D01*
X0072896Y0027170D01*
X0072944Y0027426D01*
X0072997Y0027680D01*
X0073057Y0027933D01*
X0073124Y0028184D01*
X0073196Y0028434D01*
X0073275Y0028682D01*
X0073359Y0028928D01*
X0073450Y0029171D01*
X0073546Y0029413D01*
X0073649Y0029652D01*
X0073757Y0029888D01*
X0073871Y0030122D01*
X0073991Y0030353D01*
X0074116Y0030580D01*
X0074247Y0030805D01*
X0074383Y0031026D01*
X0074525Y0031244D01*
X0074672Y0031459D01*
X0074825Y0031669D01*
X0074982Y0031876D01*
X0075145Y0032079D01*
X0075312Y0032278D01*
X0075484Y0032473D01*
X0075661Y0032663D01*
X0075843Y0032849D01*
X0076029Y0033031D01*
X0076219Y0033208D01*
X0076414Y0033380D01*
X0076613Y0033547D01*
X0076816Y0033710D01*
X0077023Y0033867D01*
X0077233Y0034020D01*
X0077448Y0034167D01*
X0077666Y0034309D01*
X0077887Y0034445D01*
X0078112Y0034576D01*
X0078339Y0034701D01*
X0078570Y0034821D01*
X0078804Y0034935D01*
X0079040Y0035043D01*
X0079279Y0035146D01*
X0079521Y0035242D01*
X0079764Y0035333D01*
X0080010Y0035417D01*
X0080258Y0035496D01*
X0080508Y0035568D01*
X0080759Y0035635D01*
X0081012Y0035695D01*
X0081266Y0035748D01*
X0081522Y0035796D01*
X0081779Y0035837D01*
X0082036Y0035872D01*
X0082295Y0035901D01*
X0082554Y0035923D01*
X0082813Y0035939D01*
X0083073Y0035949D01*
X0083333Y0035952D01*
X0083593Y0035949D01*
X0083853Y0035939D01*
X0084112Y0035923D01*
X0084371Y0035901D01*
X0084630Y0035872D01*
X0084887Y0035837D01*
X0085144Y0035796D01*
X0085400Y0035748D01*
X0085654Y0035695D01*
X0085907Y0035635D01*
X0086158Y0035568D01*
X0086408Y0035496D01*
X0086656Y0035417D01*
X0086902Y0035333D01*
X0087145Y0035242D01*
X0087387Y0035146D01*
X0087626Y0035043D01*
X0087862Y0034935D01*
X0088096Y0034821D01*
X0088327Y0034701D01*
X0088554Y0034576D01*
X0088779Y0034445D01*
X0089000Y0034309D01*
X0089218Y0034167D01*
X0089433Y0034020D01*
X0089643Y0033867D01*
X0089850Y0033710D01*
X0090053Y0033547D01*
X0090252Y0033380D01*
X0090447Y0033208D01*
X0090637Y0033031D01*
X0090823Y0032849D01*
X0091005Y0032663D01*
X0091182Y0032473D01*
X0091354Y0032278D01*
X0091521Y0032079D01*
X0091684Y0031876D01*
X0091841Y0031669D01*
X0091994Y0031459D01*
X0092141Y0031244D01*
X0092283Y0031026D01*
X0092419Y0030805D01*
X0092550Y0030580D01*
X0092675Y0030353D01*
X0092795Y0030122D01*
X0092909Y0029888D01*
X0093017Y0029652D01*
X0093120Y0029413D01*
X0093216Y0029171D01*
X0093307Y0028928D01*
X0093391Y0028682D01*
X0093470Y0028434D01*
X0093542Y0028184D01*
X0093609Y0027933D01*
X0093669Y0027680D01*
X0093722Y0027426D01*
X0093770Y0027170D01*
X0093811Y0026913D01*
X0093846Y0026656D01*
X0093875Y0026397D01*
X0093897Y0026138D01*
X0093913Y0025879D01*
X0093923Y0025619D01*
X0093926Y0025359D01*
X0093923Y0025099D01*
X0093913Y0024839D01*
X0093897Y0024580D01*
X0093875Y0024321D01*
X0093846Y0024062D01*
X0093811Y0023805D01*
X0093770Y0023548D01*
X0093722Y0023292D01*
X0093669Y0023038D01*
X0093609Y0022785D01*
X0093542Y0022534D01*
X0093470Y0022284D01*
X0093391Y0022036D01*
X0093307Y0021790D01*
X0093216Y0021547D01*
X0093120Y0021305D01*
X0093017Y0021066D01*
X0092909Y0020830D01*
X0092795Y0020596D01*
X0092675Y0020365D01*
X0092550Y0020138D01*
X0092419Y0019913D01*
X0092283Y0019692D01*
X0092141Y0019474D01*
X0091994Y0019259D01*
X0091841Y0019049D01*
X0091684Y0018842D01*
X0091521Y0018639D01*
X0091354Y0018440D01*
X0091182Y0018245D01*
X0091005Y0018055D01*
X0090823Y0017869D01*
X0090637Y0017687D01*
X0090447Y0017510D01*
X0090252Y0017338D01*
X0090053Y0017171D01*
X0089850Y0017008D01*
X0089643Y0016851D01*
X0089433Y0016698D01*
X0089218Y0016551D01*
X0089000Y0016409D01*
X0088779Y0016273D01*
X0088554Y0016142D01*
X0088327Y0016017D01*
X0088096Y0015897D01*
X0087862Y0015783D01*
X0087626Y0015675D01*
X0087387Y0015572D01*
X0087145Y0015476D01*
X0086902Y0015385D01*
X0086656Y0015301D01*
X0086408Y0015222D01*
X0086158Y0015150D01*
X0085907Y0015083D01*
X0085654Y0015023D01*
X0085400Y0014970D01*
X0085144Y0014922D01*
X0084887Y0014881D01*
X0084630Y0014846D01*
X0084371Y0014817D01*
X0084112Y0014795D01*
X0083853Y0014779D01*
X0083593Y0014769D01*
X0083333Y0014766D01*
X0083073Y0014769D01*
X0082813Y0014779D01*
X0082554Y0014795D01*
X0082295Y0014817D01*
X0082036Y0014846D01*
X0081779Y0014881D01*
X0081522Y0014922D01*
X0081266Y0014970D01*
X0081012Y0015023D01*
X0080759Y0015083D01*
X0080508Y0015150D01*
X0080258Y0015222D01*
X0080010Y0015301D01*
X0079764Y0015385D01*
X0079521Y0015476D01*
X0079279Y0015572D01*
X0079040Y0015675D01*
X0078804Y0015783D01*
X0078570Y0015897D01*
X0078339Y0016017D01*
X0078112Y0016142D01*
X0077887Y0016273D01*
X0077666Y0016409D01*
X0077448Y0016551D01*
X0077233Y0016698D01*
X0077023Y0016851D01*
X0076816Y0017008D01*
X0076613Y0017171D01*
X0076414Y0017338D01*
X0076219Y0017510D01*
X0076029Y0017687D01*
X0075843Y0017869D01*
X0075661Y0018055D01*
X0075484Y0018245D01*
X0075312Y0018440D01*
X0075145Y0018639D01*
X0074982Y0018842D01*
X0074825Y0019049D01*
X0074672Y0019259D01*
X0074525Y0019474D01*
X0074383Y0019692D01*
X0074247Y0019913D01*
X0074116Y0020138D01*
X0073991Y0020365D01*
X0073871Y0020596D01*
X0073757Y0020830D01*
X0073649Y0021066D01*
X0073546Y0021305D01*
X0073450Y0021547D01*
X0073359Y0021790D01*
X0073275Y0022036D01*
X0073196Y0022284D01*
X0073124Y0022534D01*
X0073057Y0022785D01*
X0072997Y0023038D01*
X0072944Y0023292D01*
X0072896Y0023548D01*
X0072855Y0023805D01*
X0072820Y0024062D01*
X0072791Y0024321D01*
X0072769Y0024580D01*
X0072753Y0024839D01*
X0072743Y0025099D01*
X0072740Y0025359D01*
X0101050Y0009611D02*
X0101050Y0007642D01*
X0099081Y0007642D01*
X0101050Y0041107D02*
X0101050Y0043075D01*
X0099081Y0043075D01*
X0061680Y0043075D02*
X0059711Y0043075D01*
X0059711Y0041107D01*
X0441867Y0081392D02*
X0441867Y0083361D01*
X0441867Y0081392D02*
X0443835Y0081392D01*
X0448990Y0099109D02*
X0448993Y0099369D01*
X0449003Y0099629D01*
X0449019Y0099888D01*
X0449041Y0100147D01*
X0449070Y0100406D01*
X0449105Y0100663D01*
X0449146Y0100920D01*
X0449194Y0101176D01*
X0449247Y0101430D01*
X0449307Y0101683D01*
X0449374Y0101934D01*
X0449446Y0102184D01*
X0449525Y0102432D01*
X0449609Y0102678D01*
X0449700Y0102921D01*
X0449796Y0103163D01*
X0449899Y0103402D01*
X0450007Y0103638D01*
X0450121Y0103872D01*
X0450241Y0104103D01*
X0450366Y0104330D01*
X0450497Y0104555D01*
X0450633Y0104776D01*
X0450775Y0104994D01*
X0450922Y0105209D01*
X0451075Y0105419D01*
X0451232Y0105626D01*
X0451395Y0105829D01*
X0451562Y0106028D01*
X0451734Y0106223D01*
X0451911Y0106413D01*
X0452093Y0106599D01*
X0452279Y0106781D01*
X0452469Y0106958D01*
X0452664Y0107130D01*
X0452863Y0107297D01*
X0453066Y0107460D01*
X0453273Y0107617D01*
X0453483Y0107770D01*
X0453698Y0107917D01*
X0453916Y0108059D01*
X0454137Y0108195D01*
X0454362Y0108326D01*
X0454589Y0108451D01*
X0454820Y0108571D01*
X0455054Y0108685D01*
X0455290Y0108793D01*
X0455529Y0108896D01*
X0455771Y0108992D01*
X0456014Y0109083D01*
X0456260Y0109167D01*
X0456508Y0109246D01*
X0456758Y0109318D01*
X0457009Y0109385D01*
X0457262Y0109445D01*
X0457516Y0109498D01*
X0457772Y0109546D01*
X0458029Y0109587D01*
X0458286Y0109622D01*
X0458545Y0109651D01*
X0458804Y0109673D01*
X0459063Y0109689D01*
X0459323Y0109699D01*
X0459583Y0109702D01*
X0459843Y0109699D01*
X0460103Y0109689D01*
X0460362Y0109673D01*
X0460621Y0109651D01*
X0460880Y0109622D01*
X0461137Y0109587D01*
X0461394Y0109546D01*
X0461650Y0109498D01*
X0461904Y0109445D01*
X0462157Y0109385D01*
X0462408Y0109318D01*
X0462658Y0109246D01*
X0462906Y0109167D01*
X0463152Y0109083D01*
X0463395Y0108992D01*
X0463637Y0108896D01*
X0463876Y0108793D01*
X0464112Y0108685D01*
X0464346Y0108571D01*
X0464577Y0108451D01*
X0464804Y0108326D01*
X0465029Y0108195D01*
X0465250Y0108059D01*
X0465468Y0107917D01*
X0465683Y0107770D01*
X0465893Y0107617D01*
X0466100Y0107460D01*
X0466303Y0107297D01*
X0466502Y0107130D01*
X0466697Y0106958D01*
X0466887Y0106781D01*
X0467073Y0106599D01*
X0467255Y0106413D01*
X0467432Y0106223D01*
X0467604Y0106028D01*
X0467771Y0105829D01*
X0467934Y0105626D01*
X0468091Y0105419D01*
X0468244Y0105209D01*
X0468391Y0104994D01*
X0468533Y0104776D01*
X0468669Y0104555D01*
X0468800Y0104330D01*
X0468925Y0104103D01*
X0469045Y0103872D01*
X0469159Y0103638D01*
X0469267Y0103402D01*
X0469370Y0103163D01*
X0469466Y0102921D01*
X0469557Y0102678D01*
X0469641Y0102432D01*
X0469720Y0102184D01*
X0469792Y0101934D01*
X0469859Y0101683D01*
X0469919Y0101430D01*
X0469972Y0101176D01*
X0470020Y0100920D01*
X0470061Y0100663D01*
X0470096Y0100406D01*
X0470125Y0100147D01*
X0470147Y0099888D01*
X0470163Y0099629D01*
X0470173Y0099369D01*
X0470176Y0099109D01*
X0470173Y0098849D01*
X0470163Y0098589D01*
X0470147Y0098330D01*
X0470125Y0098071D01*
X0470096Y0097812D01*
X0470061Y0097555D01*
X0470020Y0097298D01*
X0469972Y0097042D01*
X0469919Y0096788D01*
X0469859Y0096535D01*
X0469792Y0096284D01*
X0469720Y0096034D01*
X0469641Y0095786D01*
X0469557Y0095540D01*
X0469466Y0095297D01*
X0469370Y0095055D01*
X0469267Y0094816D01*
X0469159Y0094580D01*
X0469045Y0094346D01*
X0468925Y0094115D01*
X0468800Y0093888D01*
X0468669Y0093663D01*
X0468533Y0093442D01*
X0468391Y0093224D01*
X0468244Y0093009D01*
X0468091Y0092799D01*
X0467934Y0092592D01*
X0467771Y0092389D01*
X0467604Y0092190D01*
X0467432Y0091995D01*
X0467255Y0091805D01*
X0467073Y0091619D01*
X0466887Y0091437D01*
X0466697Y0091260D01*
X0466502Y0091088D01*
X0466303Y0090921D01*
X0466100Y0090758D01*
X0465893Y0090601D01*
X0465683Y0090448D01*
X0465468Y0090301D01*
X0465250Y0090159D01*
X0465029Y0090023D01*
X0464804Y0089892D01*
X0464577Y0089767D01*
X0464346Y0089647D01*
X0464112Y0089533D01*
X0463876Y0089425D01*
X0463637Y0089322D01*
X0463395Y0089226D01*
X0463152Y0089135D01*
X0462906Y0089051D01*
X0462658Y0088972D01*
X0462408Y0088900D01*
X0462157Y0088833D01*
X0461904Y0088773D01*
X0461650Y0088720D01*
X0461394Y0088672D01*
X0461137Y0088631D01*
X0460880Y0088596D01*
X0460621Y0088567D01*
X0460362Y0088545D01*
X0460103Y0088529D01*
X0459843Y0088519D01*
X0459583Y0088516D01*
X0459323Y0088519D01*
X0459063Y0088529D01*
X0458804Y0088545D01*
X0458545Y0088567D01*
X0458286Y0088596D01*
X0458029Y0088631D01*
X0457772Y0088672D01*
X0457516Y0088720D01*
X0457262Y0088773D01*
X0457009Y0088833D01*
X0456758Y0088900D01*
X0456508Y0088972D01*
X0456260Y0089051D01*
X0456014Y0089135D01*
X0455771Y0089226D01*
X0455529Y0089322D01*
X0455290Y0089425D01*
X0455054Y0089533D01*
X0454820Y0089647D01*
X0454589Y0089767D01*
X0454362Y0089892D01*
X0454137Y0090023D01*
X0453916Y0090159D01*
X0453698Y0090301D01*
X0453483Y0090448D01*
X0453273Y0090601D01*
X0453066Y0090758D01*
X0452863Y0090921D01*
X0452664Y0091088D01*
X0452469Y0091260D01*
X0452279Y0091437D01*
X0452093Y0091619D01*
X0451911Y0091805D01*
X0451734Y0091995D01*
X0451562Y0092190D01*
X0451395Y0092389D01*
X0451232Y0092592D01*
X0451075Y0092799D01*
X0450922Y0093009D01*
X0450775Y0093224D01*
X0450633Y0093442D01*
X0450497Y0093663D01*
X0450366Y0093888D01*
X0450241Y0094115D01*
X0450121Y0094346D01*
X0450007Y0094580D01*
X0449899Y0094816D01*
X0449796Y0095055D01*
X0449700Y0095297D01*
X0449609Y0095540D01*
X0449525Y0095786D01*
X0449446Y0096034D01*
X0449374Y0096284D01*
X0449307Y0096535D01*
X0449247Y0096788D01*
X0449194Y0097042D01*
X0449146Y0097298D01*
X0449105Y0097555D01*
X0449070Y0097812D01*
X0449041Y0098071D01*
X0449019Y0098330D01*
X0449003Y0098589D01*
X0448993Y0098849D01*
X0448990Y0099109D01*
X0441867Y0114857D02*
X0441867Y0116825D01*
X0443835Y0116825D01*
X0481237Y0116825D02*
X0483205Y0116825D01*
X0483205Y0114857D01*
X0483205Y0083361D02*
X0483205Y0081392D01*
X0481237Y0081392D01*
D13*
X0440833Y0097109D02*
X0437130Y0097109D01*
X0437130Y0098343D02*
X0437130Y0095874D01*
X0437130Y0099557D02*
X0440216Y0099557D01*
X0440833Y0100175D01*
X0440833Y0101409D01*
X0440216Y0102026D01*
X0437130Y0102026D01*
X0437747Y0103241D02*
X0438982Y0103241D01*
X0439599Y0103858D01*
X0439599Y0105709D01*
X0440833Y0105709D02*
X0437130Y0105709D01*
X0437130Y0103858D01*
X0437747Y0103241D01*
X0437130Y0106924D02*
X0437130Y0109392D01*
X0437130Y0110607D02*
X0440216Y0110607D01*
X0440833Y0111224D01*
X0440833Y0112458D01*
X0440216Y0113076D01*
X0437130Y0113076D01*
X0437747Y0114290D02*
X0437130Y0114907D01*
X0437130Y0116142D01*
X0437747Y0116759D01*
X0440216Y0116759D01*
X0440833Y0116142D01*
X0440833Y0114907D01*
X0440216Y0114290D01*
X0437747Y0114290D01*
X0437130Y0108158D02*
X0440833Y0108158D01*
X0105786Y0023682D02*
X0105786Y0021214D01*
X0105786Y0019999D02*
X0102701Y0019999D01*
X0102083Y0019382D01*
X0102083Y0018148D01*
X0102701Y0017530D01*
X0105786Y0017530D01*
X0105169Y0016316D02*
X0103935Y0016316D01*
X0103318Y0015699D01*
X0103318Y0013847D01*
X0102083Y0013847D02*
X0105786Y0013847D01*
X0105786Y0015699D01*
X0105169Y0016316D01*
X0105786Y0012633D02*
X0102083Y0012633D01*
X0105786Y0010164D01*
X0102083Y0010164D01*
X0102083Y0008943D02*
X0102083Y0007709D01*
X0102083Y0008326D02*
X0105786Y0008326D01*
X0105786Y0007709D02*
X0105786Y0008943D01*
X0105786Y0022448D02*
X0102083Y0022448D01*
M02*
