G75*
%MOIN*%
%OFA0B0*%
%FSLAX25Y25*%
%IPPOS*%
%LPD*%
%AMOC8*
5,1,8,0,0,1.08239X$1,22.5*
%
%ADD10C,0.00300*%
%ADD11C,0.00500*%
%ADD12C,0.00200*%
%ADD13C,0.00800*%
%ADD14C,0.00400*%
%ADD15R,0.03543X0.05315*%
D10*
X0113483Y0008626D02*
X0114101Y0008009D01*
X0115335Y0008009D01*
X0115952Y0008626D01*
X0115952Y0009860D01*
X0114718Y0009860D01*
X0113483Y0008626D02*
X0113483Y0011095D01*
X0114101Y0011712D01*
X0115335Y0011712D01*
X0115952Y0011095D01*
X0117166Y0010478D02*
X0117166Y0008009D01*
X0117166Y0009243D02*
X0118401Y0010478D01*
X0119018Y0010478D01*
X0120853Y0010478D02*
X0122087Y0010478D01*
X0122705Y0009860D01*
X0122705Y0008009D01*
X0120853Y0008009D01*
X0120236Y0008626D01*
X0120853Y0009243D01*
X0122705Y0009243D01*
X0123919Y0008009D02*
X0125770Y0008009D01*
X0126388Y0008626D01*
X0126388Y0009860D01*
X0125770Y0010478D01*
X0123919Y0010478D01*
X0123919Y0006774D01*
X0127602Y0008009D02*
X0127602Y0011712D01*
X0128219Y0010478D02*
X0129454Y0010478D01*
X0130071Y0009860D01*
X0130071Y0008009D01*
X0131285Y0008009D02*
X0132520Y0008009D01*
X0131902Y0008009D02*
X0131902Y0010478D01*
X0131285Y0010478D01*
X0131902Y0011712D02*
X0131902Y0012329D01*
X0134358Y0010478D02*
X0133741Y0009860D01*
X0133741Y0008626D01*
X0134358Y0008009D01*
X0136209Y0008009D01*
X0136209Y0010478D02*
X0134358Y0010478D01*
X0128219Y0010478D02*
X0127602Y0009860D01*
X0141107Y0009860D02*
X0142341Y0009860D01*
X0141107Y0008009D02*
X0141107Y0011712D01*
X0143576Y0011712D01*
X0144790Y0011095D02*
X0145407Y0011712D01*
X0146642Y0011712D01*
X0147259Y0011095D01*
X0147259Y0008626D01*
X0146642Y0008009D01*
X0145407Y0008009D01*
X0144790Y0008626D01*
X0144790Y0011095D01*
X0146024Y0009243D02*
X0147259Y0008009D01*
X0143576Y0008009D02*
X0141107Y0008009D01*
X0152156Y0008009D02*
X0154008Y0008009D01*
X0154625Y0008626D01*
X0154625Y0011095D01*
X0154008Y0011712D01*
X0152156Y0011712D01*
X0152156Y0008009D01*
X0155839Y0008626D02*
X0155839Y0009860D01*
X0156457Y0010478D01*
X0157691Y0010478D01*
X0158308Y0009860D01*
X0158308Y0009243D01*
X0155839Y0009243D01*
X0155839Y0008626D02*
X0156457Y0008009D01*
X0157691Y0008009D01*
X0159523Y0008009D02*
X0161374Y0008009D01*
X0161991Y0008626D01*
X0161374Y0009243D01*
X0160140Y0009243D01*
X0159523Y0009860D01*
X0160140Y0010478D01*
X0161991Y0010478D01*
X0163206Y0010478D02*
X0163823Y0010478D01*
X0163823Y0008009D01*
X0163206Y0008009D02*
X0164440Y0008009D01*
X0165661Y0008626D02*
X0165661Y0009860D01*
X0166278Y0010478D01*
X0168130Y0010478D01*
X0168130Y0007392D01*
X0167513Y0006774D01*
X0166896Y0006774D01*
X0166278Y0008009D02*
X0168130Y0008009D01*
X0169344Y0008009D02*
X0169344Y0010478D01*
X0171196Y0010478D01*
X0171813Y0009860D01*
X0171813Y0008009D01*
X0173027Y0008626D02*
X0173027Y0009860D01*
X0173645Y0010478D01*
X0174879Y0010478D01*
X0175496Y0009860D01*
X0175496Y0009243D01*
X0173027Y0009243D01*
X0173027Y0008626D02*
X0173645Y0008009D01*
X0174879Y0008009D01*
X0176711Y0008626D02*
X0176711Y0009860D01*
X0177328Y0010478D01*
X0179179Y0010478D01*
X0179179Y0011712D02*
X0179179Y0008009D01*
X0177328Y0008009D01*
X0176711Y0008626D01*
X0184077Y0008009D02*
X0185311Y0008009D01*
X0184694Y0008009D02*
X0184694Y0010478D01*
X0184077Y0010478D01*
X0184694Y0011712D02*
X0184694Y0012329D01*
X0186532Y0010478D02*
X0188384Y0010478D01*
X0189001Y0009860D01*
X0189001Y0008009D01*
X0186532Y0008009D02*
X0186532Y0010478D01*
X0193899Y0009860D02*
X0196367Y0009860D01*
X0197582Y0009860D02*
X0198199Y0010478D01*
X0199433Y0010478D01*
X0200051Y0009860D01*
X0200051Y0009243D01*
X0197582Y0009243D01*
X0197582Y0008626D02*
X0197582Y0009860D01*
X0197582Y0008626D02*
X0198199Y0008009D01*
X0199433Y0008009D01*
X0201265Y0008009D02*
X0201265Y0010478D01*
X0202499Y0010478D02*
X0203116Y0010478D01*
X0202499Y0010478D02*
X0201265Y0009243D01*
X0204334Y0008009D02*
X0204334Y0010478D01*
X0206186Y0010478D01*
X0206803Y0009860D01*
X0206803Y0008009D01*
X0208017Y0008626D02*
X0208017Y0009860D01*
X0208635Y0010478D01*
X0209869Y0010478D01*
X0210486Y0009860D01*
X0210486Y0009243D01*
X0208017Y0009243D01*
X0208017Y0008626D02*
X0208635Y0008009D01*
X0209869Y0008009D01*
X0215384Y0008009D02*
X0215384Y0011712D01*
X0215384Y0009860D02*
X0217852Y0009860D01*
X0217852Y0008009D02*
X0217852Y0011712D01*
X0219067Y0011712D02*
X0220301Y0011712D01*
X0219684Y0011712D02*
X0219684Y0008009D01*
X0219067Y0008009D02*
X0220301Y0008009D01*
X0221522Y0008009D02*
X0222757Y0008009D01*
X0222139Y0008009D02*
X0222139Y0011712D01*
X0221522Y0011712D01*
X0223978Y0011712D02*
X0224595Y0011712D01*
X0224595Y0008009D01*
X0223978Y0008009D02*
X0225212Y0008009D01*
X0226433Y0006774D02*
X0227667Y0008009D01*
X0227050Y0008009D01*
X0227050Y0008626D01*
X0227667Y0008626D01*
X0227667Y0008009D01*
X0232572Y0008009D02*
X0232572Y0011712D01*
X0232572Y0008009D02*
X0235040Y0008009D01*
X0236255Y0008626D02*
X0236255Y0009860D01*
X0236872Y0010478D01*
X0238106Y0010478D01*
X0238724Y0009860D01*
X0238724Y0008626D01*
X0238106Y0008009D01*
X0236872Y0008009D01*
X0236255Y0008626D01*
X0239938Y0008009D02*
X0239938Y0010478D01*
X0241789Y0010478D01*
X0242407Y0009860D01*
X0242407Y0008009D01*
X0243621Y0008626D02*
X0243621Y0009860D01*
X0244238Y0010478D01*
X0246090Y0010478D01*
X0246090Y0011712D02*
X0246090Y0008009D01*
X0244238Y0008009D01*
X0243621Y0008626D01*
X0247304Y0008626D02*
X0247304Y0009860D01*
X0247921Y0010478D01*
X0249156Y0010478D01*
X0249773Y0009860D01*
X0249773Y0008626D01*
X0249156Y0008009D01*
X0247921Y0008009D01*
X0247304Y0008626D01*
X0250987Y0008009D02*
X0250987Y0010478D01*
X0252839Y0010478D01*
X0253456Y0009860D01*
X0253456Y0008009D01*
X0254670Y0006774D02*
X0255905Y0008009D01*
X0255288Y0008009D01*
X0255288Y0008626D01*
X0255905Y0008626D01*
X0255905Y0008009D01*
X0260809Y0008009D02*
X0260809Y0011712D01*
X0260809Y0010478D02*
X0262661Y0010478D01*
X0263278Y0009860D01*
X0263278Y0008626D01*
X0262661Y0008009D01*
X0260809Y0008009D01*
X0264492Y0008626D02*
X0265109Y0008009D01*
X0266961Y0008009D01*
X0266961Y0007392D02*
X0266344Y0006774D01*
X0265727Y0006774D01*
X0266961Y0007392D02*
X0266961Y0010478D01*
X0264492Y0010478D02*
X0264492Y0008626D01*
X0271859Y0011712D02*
X0274327Y0011712D01*
X0273093Y0011712D02*
X0273093Y0008009D01*
X0275542Y0008626D02*
X0275542Y0009860D01*
X0276159Y0010478D01*
X0277393Y0010478D01*
X0278010Y0009860D01*
X0278010Y0008626D01*
X0277393Y0008009D01*
X0276159Y0008009D01*
X0275542Y0008626D01*
X0279225Y0008009D02*
X0279225Y0010478D01*
X0279842Y0010478D01*
X0280459Y0009860D01*
X0281076Y0010478D01*
X0281694Y0009860D01*
X0281694Y0008009D01*
X0280459Y0008009D02*
X0280459Y0009860D01*
X0286591Y0008009D02*
X0287825Y0009243D01*
X0289060Y0008009D01*
X0289060Y0011712D01*
X0290274Y0011712D02*
X0290274Y0008009D01*
X0290274Y0009860D02*
X0290891Y0010478D01*
X0292126Y0010478D01*
X0292743Y0009860D01*
X0292743Y0008009D01*
X0293957Y0008009D02*
X0295192Y0008009D01*
X0294575Y0008009D02*
X0294575Y0010478D01*
X0293957Y0010478D01*
X0294575Y0011712D02*
X0294575Y0012329D01*
X0296413Y0010478D02*
X0297647Y0010478D01*
X0297030Y0011095D02*
X0297030Y0008626D01*
X0297647Y0008009D01*
X0298868Y0008626D02*
X0299485Y0008009D01*
X0300103Y0008626D01*
X0300720Y0008009D01*
X0301337Y0008626D01*
X0301337Y0010478D01*
X0302551Y0009860D02*
X0303169Y0010478D01*
X0304403Y0010478D01*
X0305020Y0009860D01*
X0305020Y0009243D01*
X0302551Y0009243D01*
X0302551Y0008626D02*
X0302551Y0009860D01*
X0302551Y0008626D02*
X0303169Y0008009D01*
X0304403Y0008009D01*
X0306235Y0008009D02*
X0307469Y0008009D01*
X0306852Y0008009D02*
X0306852Y0011712D01*
X0306235Y0011712D01*
X0308690Y0011712D02*
X0309307Y0011712D01*
X0309307Y0008009D01*
X0308690Y0008009D02*
X0309924Y0008009D01*
X0314829Y0008009D02*
X0314829Y0011712D01*
X0317297Y0011712D01*
X0319129Y0010478D02*
X0320363Y0010478D01*
X0320980Y0009860D01*
X0320980Y0009243D01*
X0318512Y0009243D01*
X0318512Y0008626D02*
X0318512Y0009860D01*
X0319129Y0010478D01*
X0318512Y0008626D02*
X0319129Y0008009D01*
X0320363Y0008009D01*
X0322195Y0008009D02*
X0322195Y0011712D01*
X0322195Y0010478D02*
X0324046Y0010478D01*
X0324664Y0009860D01*
X0324664Y0008626D01*
X0324046Y0008009D01*
X0322195Y0008009D01*
X0325878Y0008009D02*
X0325878Y0010478D01*
X0327112Y0010478D02*
X0327730Y0010478D01*
X0327112Y0010478D02*
X0325878Y0009243D01*
X0328947Y0008626D02*
X0329564Y0008009D01*
X0331416Y0008009D01*
X0331416Y0010478D01*
X0333248Y0010478D02*
X0334482Y0010478D01*
X0335099Y0009860D01*
X0335099Y0008009D01*
X0333248Y0008009D01*
X0332630Y0008626D01*
X0333248Y0009243D01*
X0335099Y0009243D01*
X0336314Y0009243D02*
X0337548Y0010478D01*
X0338165Y0010478D01*
X0339383Y0010478D02*
X0339383Y0008626D01*
X0340000Y0008009D01*
X0341852Y0008009D01*
X0341852Y0007392D02*
X0341234Y0006774D01*
X0340617Y0006774D01*
X0341852Y0007392D02*
X0341852Y0010478D01*
X0346749Y0011095D02*
X0347366Y0011712D01*
X0348601Y0011712D01*
X0349218Y0011095D01*
X0349218Y0010478D01*
X0346749Y0008009D01*
X0349218Y0008009D01*
X0350432Y0008626D02*
X0352901Y0011095D01*
X0352901Y0008626D01*
X0352284Y0008009D01*
X0351049Y0008009D01*
X0350432Y0008626D01*
X0350432Y0011095D01*
X0351049Y0011712D01*
X0352284Y0011712D01*
X0352901Y0011095D01*
X0354115Y0010478D02*
X0355350Y0011712D01*
X0355350Y0008009D01*
X0356584Y0008009D02*
X0354115Y0008009D01*
X0357799Y0008009D02*
X0357799Y0008626D01*
X0360267Y0011095D01*
X0360267Y0011712D01*
X0357799Y0011712D01*
X0365165Y0011712D02*
X0365165Y0008009D01*
X0365165Y0009243D02*
X0367016Y0009243D01*
X0367634Y0009860D01*
X0367634Y0011095D01*
X0367016Y0011712D01*
X0365165Y0011712D01*
X0368848Y0010478D02*
X0368848Y0008009D01*
X0368848Y0009243D02*
X0370082Y0010478D01*
X0370700Y0010478D01*
X0371917Y0009860D02*
X0371917Y0008626D01*
X0372534Y0008009D01*
X0373769Y0008009D01*
X0374386Y0008626D01*
X0374386Y0009860D01*
X0373769Y0010478D01*
X0372534Y0010478D01*
X0371917Y0009860D01*
X0375600Y0010478D02*
X0376835Y0010478D01*
X0376218Y0011095D02*
X0376218Y0008626D01*
X0376835Y0008009D01*
X0378056Y0008626D02*
X0378673Y0008009D01*
X0379907Y0008009D01*
X0380525Y0008626D01*
X0380525Y0009860D01*
X0379907Y0010478D01*
X0378673Y0010478D01*
X0378056Y0009860D01*
X0378056Y0008626D01*
X0385422Y0008009D02*
X0387891Y0010478D01*
X0387891Y0011095D01*
X0387274Y0011712D01*
X0386039Y0011712D01*
X0385422Y0011095D01*
X0385422Y0008009D02*
X0387891Y0008009D01*
X0336314Y0008009D02*
X0336314Y0010478D01*
X0328947Y0010478D02*
X0328947Y0008626D01*
X0316063Y0009860D02*
X0314829Y0009860D01*
X0298868Y0010478D02*
X0298868Y0008626D01*
X0286591Y0008009D02*
X0286591Y0011712D01*
X0196367Y0011712D02*
X0196367Y0008009D01*
X0193899Y0008009D02*
X0193899Y0011712D01*
X0166278Y0008009D02*
X0165661Y0008626D01*
X0163823Y0011712D02*
X0163823Y0012329D01*
D11*
X0075646Y0023951D02*
X0075646Y0029266D01*
X0077221Y0029266D01*
X0077221Y0023951D01*
X0075646Y0023951D01*
X0077221Y0023951D02*
X0081946Y0023951D01*
X0081946Y0029266D01*
X0077221Y0029266D01*
X0077221Y0031451D02*
X0077221Y0036766D01*
X0075646Y0036766D01*
X0075646Y0031451D01*
X0077221Y0031451D01*
X0081946Y0031451D01*
X0081946Y0036766D01*
X0077221Y0036766D01*
X0081946Y0036766D02*
X0083520Y0036766D01*
X0083520Y0031451D01*
X0081946Y0031451D01*
X0081946Y0029266D02*
X0083520Y0029266D01*
X0083520Y0023951D01*
X0081946Y0023951D01*
X0104396Y0043951D02*
X0104396Y0049266D01*
X0105971Y0049266D01*
X0105971Y0043951D01*
X0110696Y0043951D01*
X0110696Y0049266D01*
X0112270Y0049266D01*
X0112270Y0043951D01*
X0110696Y0043951D01*
X0105971Y0043951D02*
X0104396Y0043951D01*
X0105971Y0049266D02*
X0110696Y0049266D01*
X0123669Y0053609D02*
X0123671Y0053684D01*
X0123677Y0053758D01*
X0123687Y0053832D01*
X0123700Y0053905D01*
X0123718Y0053978D01*
X0123739Y0054049D01*
X0123764Y0054120D01*
X0123793Y0054189D01*
X0123826Y0054256D01*
X0123862Y0054321D01*
X0123901Y0054385D01*
X0123943Y0054446D01*
X0123989Y0054505D01*
X0124038Y0054562D01*
X0124090Y0054615D01*
X0124144Y0054666D01*
X0124201Y0054715D01*
X0124261Y0054759D01*
X0124323Y0054801D01*
X0124387Y0054840D01*
X0124453Y0054875D01*
X0124520Y0054906D01*
X0124590Y0054934D01*
X0124660Y0054958D01*
X0124732Y0054979D01*
X0124805Y0054995D01*
X0124878Y0055008D01*
X0124953Y0055017D01*
X0125027Y0055022D01*
X0125102Y0055023D01*
X0125176Y0055020D01*
X0125251Y0055013D01*
X0125324Y0055002D01*
X0125398Y0054988D01*
X0125470Y0054969D01*
X0125541Y0054947D01*
X0125611Y0054921D01*
X0125680Y0054891D01*
X0125746Y0054858D01*
X0125811Y0054821D01*
X0125874Y0054781D01*
X0125935Y0054737D01*
X0125993Y0054691D01*
X0126049Y0054641D01*
X0126102Y0054589D01*
X0126153Y0054534D01*
X0126200Y0054476D01*
X0126244Y0054416D01*
X0126285Y0054353D01*
X0126323Y0054289D01*
X0126357Y0054223D01*
X0126388Y0054154D01*
X0126415Y0054085D01*
X0126438Y0054014D01*
X0126457Y0053942D01*
X0126473Y0053869D01*
X0126485Y0053795D01*
X0126493Y0053721D01*
X0126497Y0053646D01*
X0126497Y0053572D01*
X0126493Y0053497D01*
X0126485Y0053423D01*
X0126473Y0053349D01*
X0126457Y0053276D01*
X0126438Y0053204D01*
X0126415Y0053133D01*
X0126388Y0053064D01*
X0126357Y0052995D01*
X0126323Y0052929D01*
X0126285Y0052865D01*
X0126244Y0052802D01*
X0126200Y0052742D01*
X0126153Y0052684D01*
X0126102Y0052629D01*
X0126049Y0052577D01*
X0125993Y0052527D01*
X0125935Y0052481D01*
X0125874Y0052437D01*
X0125811Y0052397D01*
X0125746Y0052360D01*
X0125680Y0052327D01*
X0125611Y0052297D01*
X0125541Y0052271D01*
X0125470Y0052249D01*
X0125398Y0052230D01*
X0125324Y0052216D01*
X0125251Y0052205D01*
X0125176Y0052198D01*
X0125102Y0052195D01*
X0125027Y0052196D01*
X0124953Y0052201D01*
X0124878Y0052210D01*
X0124805Y0052223D01*
X0124732Y0052239D01*
X0124660Y0052260D01*
X0124590Y0052284D01*
X0124520Y0052312D01*
X0124453Y0052343D01*
X0124387Y0052378D01*
X0124323Y0052417D01*
X0124261Y0052459D01*
X0124201Y0052503D01*
X0124144Y0052552D01*
X0124090Y0052603D01*
X0124038Y0052656D01*
X0123989Y0052713D01*
X0123943Y0052772D01*
X0123901Y0052833D01*
X0123862Y0052897D01*
X0123826Y0052962D01*
X0123793Y0053029D01*
X0123764Y0053098D01*
X0123739Y0053169D01*
X0123718Y0053240D01*
X0123700Y0053313D01*
X0123687Y0053386D01*
X0123677Y0053460D01*
X0123671Y0053534D01*
X0123669Y0053609D01*
X0112270Y0063951D02*
X0112270Y0069266D01*
X0110696Y0069266D01*
X0110696Y0063951D01*
X0112270Y0063951D01*
X0110696Y0063951D02*
X0105971Y0063951D01*
X0105971Y0069266D01*
X0110696Y0069266D01*
X0105971Y0069266D02*
X0104396Y0069266D01*
X0104396Y0063951D01*
X0105971Y0063951D01*
X0098520Y0076451D02*
X0098520Y0081766D01*
X0096946Y0081766D01*
X0096946Y0076451D01*
X0098520Y0076451D01*
X0096946Y0076451D02*
X0092221Y0076451D01*
X0092221Y0081766D01*
X0096946Y0081766D01*
X0096946Y0083951D02*
X0092221Y0083951D01*
X0092221Y0089266D01*
X0096946Y0089266D01*
X0096946Y0083951D01*
X0098520Y0083951D01*
X0098520Y0089266D01*
X0096946Y0089266D01*
X0096946Y0091451D02*
X0092221Y0091451D01*
X0092221Y0096766D01*
X0096946Y0096766D01*
X0096946Y0091451D01*
X0098520Y0091451D01*
X0098520Y0096766D01*
X0096946Y0096766D01*
X0096946Y0098951D02*
X0092221Y0098951D01*
X0092221Y0104266D01*
X0096946Y0104266D01*
X0096946Y0098951D01*
X0098520Y0098951D01*
X0098520Y0104266D01*
X0096946Y0104266D01*
X0096946Y0106451D02*
X0092221Y0106451D01*
X0092221Y0111766D01*
X0096946Y0111766D01*
X0096946Y0106451D01*
X0098520Y0106451D01*
X0098520Y0111766D01*
X0096946Y0111766D01*
X0092221Y0111766D02*
X0090646Y0111766D01*
X0090646Y0106451D01*
X0092221Y0106451D01*
X0092221Y0104266D02*
X0090646Y0104266D01*
X0090646Y0098951D01*
X0092221Y0098951D01*
X0092221Y0096766D02*
X0090646Y0096766D01*
X0090646Y0091451D01*
X0092221Y0091451D01*
X0092221Y0089266D02*
X0090646Y0089266D01*
X0090646Y0083951D01*
X0092221Y0083951D01*
X0092221Y0081766D02*
X0090646Y0081766D01*
X0090646Y0076451D01*
X0092221Y0076451D01*
X0083520Y0076451D02*
X0083520Y0081766D01*
X0081946Y0081766D01*
X0081946Y0076451D01*
X0083520Y0076451D01*
X0081946Y0076451D02*
X0077221Y0076451D01*
X0077221Y0081766D01*
X0081946Y0081766D01*
X0081946Y0083951D02*
X0077221Y0083951D01*
X0077221Y0089266D01*
X0081946Y0089266D01*
X0081946Y0083951D01*
X0083520Y0083951D01*
X0083520Y0089266D01*
X0081946Y0089266D01*
X0077221Y0089266D02*
X0075646Y0089266D01*
X0075646Y0083951D01*
X0077221Y0083951D01*
X0077221Y0081766D02*
X0075646Y0081766D01*
X0075646Y0076451D01*
X0077221Y0076451D01*
X0074741Y0060546D02*
X0069426Y0060546D01*
X0069426Y0058971D01*
X0074741Y0058971D01*
X0074741Y0060546D01*
X0074741Y0058971D02*
X0074741Y0054247D01*
X0069426Y0054247D01*
X0069426Y0058971D01*
X0069426Y0054247D02*
X0069426Y0052672D01*
X0074741Y0052672D01*
X0074741Y0054247D01*
X0078669Y0053609D02*
X0078671Y0053684D01*
X0078677Y0053758D01*
X0078687Y0053832D01*
X0078700Y0053905D01*
X0078718Y0053978D01*
X0078739Y0054049D01*
X0078764Y0054120D01*
X0078793Y0054189D01*
X0078826Y0054256D01*
X0078862Y0054321D01*
X0078901Y0054385D01*
X0078943Y0054446D01*
X0078989Y0054505D01*
X0079038Y0054562D01*
X0079090Y0054615D01*
X0079144Y0054666D01*
X0079201Y0054715D01*
X0079261Y0054759D01*
X0079323Y0054801D01*
X0079387Y0054840D01*
X0079453Y0054875D01*
X0079520Y0054906D01*
X0079590Y0054934D01*
X0079660Y0054958D01*
X0079732Y0054979D01*
X0079805Y0054995D01*
X0079878Y0055008D01*
X0079953Y0055017D01*
X0080027Y0055022D01*
X0080102Y0055023D01*
X0080176Y0055020D01*
X0080251Y0055013D01*
X0080324Y0055002D01*
X0080398Y0054988D01*
X0080470Y0054969D01*
X0080541Y0054947D01*
X0080611Y0054921D01*
X0080680Y0054891D01*
X0080746Y0054858D01*
X0080811Y0054821D01*
X0080874Y0054781D01*
X0080935Y0054737D01*
X0080993Y0054691D01*
X0081049Y0054641D01*
X0081102Y0054589D01*
X0081153Y0054534D01*
X0081200Y0054476D01*
X0081244Y0054416D01*
X0081285Y0054353D01*
X0081323Y0054289D01*
X0081357Y0054223D01*
X0081388Y0054154D01*
X0081415Y0054085D01*
X0081438Y0054014D01*
X0081457Y0053942D01*
X0081473Y0053869D01*
X0081485Y0053795D01*
X0081493Y0053721D01*
X0081497Y0053646D01*
X0081497Y0053572D01*
X0081493Y0053497D01*
X0081485Y0053423D01*
X0081473Y0053349D01*
X0081457Y0053276D01*
X0081438Y0053204D01*
X0081415Y0053133D01*
X0081388Y0053064D01*
X0081357Y0052995D01*
X0081323Y0052929D01*
X0081285Y0052865D01*
X0081244Y0052802D01*
X0081200Y0052742D01*
X0081153Y0052684D01*
X0081102Y0052629D01*
X0081049Y0052577D01*
X0080993Y0052527D01*
X0080935Y0052481D01*
X0080874Y0052437D01*
X0080811Y0052397D01*
X0080746Y0052360D01*
X0080680Y0052327D01*
X0080611Y0052297D01*
X0080541Y0052271D01*
X0080470Y0052249D01*
X0080398Y0052230D01*
X0080324Y0052216D01*
X0080251Y0052205D01*
X0080176Y0052198D01*
X0080102Y0052195D01*
X0080027Y0052196D01*
X0079953Y0052201D01*
X0079878Y0052210D01*
X0079805Y0052223D01*
X0079732Y0052239D01*
X0079660Y0052260D01*
X0079590Y0052284D01*
X0079520Y0052312D01*
X0079453Y0052343D01*
X0079387Y0052378D01*
X0079323Y0052417D01*
X0079261Y0052459D01*
X0079201Y0052503D01*
X0079144Y0052552D01*
X0079090Y0052603D01*
X0079038Y0052656D01*
X0078989Y0052713D01*
X0078943Y0052772D01*
X0078901Y0052833D01*
X0078862Y0052897D01*
X0078826Y0052962D01*
X0078793Y0053029D01*
X0078764Y0053098D01*
X0078739Y0053169D01*
X0078718Y0053240D01*
X0078700Y0053313D01*
X0078687Y0053386D01*
X0078677Y0053460D01*
X0078671Y0053534D01*
X0078669Y0053609D01*
X0145646Y0076451D02*
X0145646Y0081766D01*
X0147221Y0081766D01*
X0147221Y0076451D01*
X0151946Y0076451D01*
X0151946Y0081766D01*
X0153520Y0081766D01*
X0153520Y0076451D01*
X0151946Y0076451D01*
X0147221Y0076451D02*
X0145646Y0076451D01*
X0147221Y0081766D02*
X0151946Y0081766D01*
X0151946Y0083951D02*
X0147221Y0083951D01*
X0147221Y0089266D01*
X0151946Y0089266D01*
X0151946Y0083951D01*
X0153520Y0083951D01*
X0153520Y0089266D01*
X0151946Y0089266D01*
X0151946Y0091451D02*
X0147221Y0091451D01*
X0147221Y0096766D01*
X0151946Y0096766D01*
X0151946Y0091451D01*
X0153520Y0091451D01*
X0153520Y0096766D01*
X0151946Y0096766D01*
X0151946Y0098951D02*
X0147221Y0098951D01*
X0147221Y0104266D01*
X0151946Y0104266D01*
X0151946Y0098951D01*
X0153520Y0098951D01*
X0153520Y0104266D01*
X0151946Y0104266D01*
X0151946Y0106451D02*
X0147221Y0106451D01*
X0147221Y0111766D01*
X0151946Y0111766D01*
X0151946Y0106451D01*
X0153520Y0106451D01*
X0153520Y0111766D01*
X0151946Y0111766D01*
X0147221Y0111766D02*
X0145646Y0111766D01*
X0145646Y0106451D01*
X0147221Y0106451D01*
X0147221Y0104266D02*
X0145646Y0104266D01*
X0145646Y0098951D01*
X0147221Y0098951D01*
X0147221Y0096766D02*
X0145646Y0096766D01*
X0145646Y0091451D01*
X0147221Y0091451D01*
X0147221Y0089266D02*
X0145646Y0089266D01*
X0145646Y0083951D01*
X0147221Y0083951D01*
X0171926Y0074296D02*
X0171926Y0072721D01*
X0177241Y0072721D01*
X0177241Y0067997D01*
X0171926Y0067997D01*
X0171926Y0066422D01*
X0177241Y0066422D01*
X0177241Y0067997D01*
X0171926Y0067997D02*
X0171926Y0072721D01*
X0171926Y0074296D02*
X0177241Y0074296D01*
X0177241Y0072721D01*
X0203146Y0076451D02*
X0203146Y0081766D01*
X0204721Y0081766D01*
X0204721Y0076451D01*
X0209446Y0076451D01*
X0209446Y0081766D01*
X0211020Y0081766D01*
X0211020Y0076451D01*
X0209446Y0076451D01*
X0204721Y0076451D02*
X0203146Y0076451D01*
X0204721Y0081766D02*
X0209446Y0081766D01*
X0209446Y0083951D02*
X0204721Y0083951D01*
X0204721Y0089266D01*
X0209446Y0089266D01*
X0209446Y0083951D01*
X0211020Y0083951D01*
X0211020Y0089266D01*
X0209446Y0089266D01*
X0209446Y0091451D02*
X0204721Y0091451D01*
X0204721Y0096766D01*
X0209446Y0096766D01*
X0209446Y0091451D01*
X0211020Y0091451D01*
X0211020Y0096766D01*
X0209446Y0096766D01*
X0209446Y0098951D02*
X0204721Y0098951D01*
X0204721Y0104266D01*
X0209446Y0104266D01*
X0209446Y0098951D01*
X0211020Y0098951D01*
X0211020Y0104266D01*
X0209446Y0104266D01*
X0209446Y0106451D02*
X0204721Y0106451D01*
X0204721Y0111766D01*
X0209446Y0111766D01*
X0209446Y0106451D01*
X0211020Y0106451D01*
X0211020Y0111766D01*
X0209446Y0111766D01*
X0204721Y0111766D02*
X0203146Y0111766D01*
X0203146Y0106451D01*
X0204721Y0106451D01*
X0204721Y0104266D02*
X0203146Y0104266D01*
X0203146Y0098951D01*
X0204721Y0098951D01*
X0204721Y0096766D02*
X0203146Y0096766D01*
X0203146Y0091451D01*
X0204721Y0091451D01*
X0204721Y0089266D02*
X0203146Y0089266D01*
X0203146Y0083951D01*
X0204721Y0083951D01*
X0248146Y0083951D02*
X0248146Y0089266D01*
X0249721Y0089266D01*
X0249721Y0083951D01*
X0254446Y0083951D01*
X0254446Y0089266D01*
X0256020Y0089266D01*
X0256020Y0083951D01*
X0254446Y0083951D01*
X0254446Y0081766D02*
X0249721Y0081766D01*
X0249721Y0076451D01*
X0254446Y0076451D01*
X0254446Y0081766D01*
X0256020Y0081766D01*
X0256020Y0076451D01*
X0254446Y0076451D01*
X0249721Y0076451D02*
X0248146Y0076451D01*
X0248146Y0081766D01*
X0249721Y0081766D01*
X0249721Y0083951D02*
X0248146Y0083951D01*
X0249721Y0089266D02*
X0254446Y0089266D01*
X0254446Y0091451D02*
X0249721Y0091451D01*
X0249721Y0096766D01*
X0254446Y0096766D01*
X0254446Y0091451D01*
X0256020Y0091451D01*
X0256020Y0096766D01*
X0254446Y0096766D01*
X0254446Y0098951D02*
X0249721Y0098951D01*
X0249721Y0104266D01*
X0254446Y0104266D01*
X0254446Y0098951D01*
X0256020Y0098951D01*
X0256020Y0104266D01*
X0254446Y0104266D01*
X0254446Y0106451D02*
X0249721Y0106451D01*
X0249721Y0111766D01*
X0254446Y0111766D01*
X0254446Y0106451D01*
X0256020Y0106451D01*
X0256020Y0111766D01*
X0254446Y0111766D01*
X0249721Y0111766D02*
X0248146Y0111766D01*
X0248146Y0106451D01*
X0249721Y0106451D01*
X0249721Y0104266D02*
X0248146Y0104266D01*
X0248146Y0098951D01*
X0249721Y0098951D01*
X0249721Y0096766D02*
X0248146Y0096766D01*
X0248146Y0091451D01*
X0249721Y0091451D01*
X0263146Y0106451D02*
X0263146Y0111766D01*
X0264721Y0111766D01*
X0264721Y0106451D01*
X0269446Y0106451D01*
X0269446Y0111766D01*
X0271020Y0111766D01*
X0271020Y0106451D01*
X0269446Y0106451D01*
X0264721Y0106451D02*
X0263146Y0106451D01*
X0264721Y0111766D02*
X0269446Y0111766D01*
X0293146Y0104266D02*
X0293146Y0098951D01*
X0294721Y0098951D01*
X0294721Y0104266D01*
X0299446Y0104266D01*
X0299446Y0098951D01*
X0301020Y0098951D01*
X0301020Y0104266D01*
X0299446Y0104266D01*
X0300646Y0106451D02*
X0300646Y0111766D01*
X0302221Y0111766D01*
X0302221Y0106451D01*
X0306946Y0106451D01*
X0306946Y0111766D01*
X0308520Y0111766D01*
X0308520Y0106451D01*
X0306946Y0106451D01*
X0302221Y0106451D02*
X0300646Y0106451D01*
X0302221Y0111766D02*
X0306946Y0111766D01*
X0315646Y0111766D02*
X0315646Y0106451D01*
X0317221Y0106451D01*
X0317221Y0111766D01*
X0321946Y0111766D01*
X0321946Y0106451D01*
X0323520Y0106451D01*
X0323520Y0111766D01*
X0321946Y0111766D01*
X0317221Y0111766D02*
X0315646Y0111766D01*
X0317221Y0106451D02*
X0321946Y0106451D01*
X0301020Y0096766D02*
X0299446Y0096766D01*
X0299446Y0091451D01*
X0301020Y0091451D01*
X0301020Y0096766D01*
X0299446Y0096766D02*
X0294721Y0096766D01*
X0294721Y0091451D01*
X0299446Y0091451D01*
X0299446Y0089266D02*
X0294721Y0089266D01*
X0294721Y0083951D01*
X0299446Y0083951D01*
X0299446Y0089266D01*
X0301020Y0089266D01*
X0301020Y0083951D01*
X0299446Y0083951D01*
X0299446Y0081766D02*
X0294721Y0081766D01*
X0294721Y0076451D01*
X0299446Y0076451D01*
X0299446Y0081766D01*
X0301020Y0081766D01*
X0301020Y0076451D01*
X0299446Y0076451D01*
X0294721Y0076451D02*
X0293146Y0076451D01*
X0293146Y0081766D01*
X0294721Y0081766D01*
X0294721Y0083951D02*
X0293146Y0083951D01*
X0293146Y0089266D01*
X0294721Y0089266D01*
X0294721Y0091451D02*
X0293146Y0091451D01*
X0293146Y0096766D01*
X0294721Y0096766D01*
X0294721Y0098951D02*
X0299446Y0098951D01*
X0294721Y0104266D02*
X0293146Y0104266D01*
X0345646Y0104266D02*
X0345646Y0098951D01*
X0347221Y0098951D01*
X0347221Y0104266D01*
X0351946Y0104266D01*
X0351946Y0098951D01*
X0353520Y0098951D01*
X0353520Y0104266D01*
X0351946Y0104266D01*
X0353146Y0106451D02*
X0353146Y0111766D01*
X0354721Y0111766D01*
X0354721Y0106451D01*
X0359446Y0106451D01*
X0359446Y0111766D01*
X0361020Y0111766D01*
X0361020Y0106451D01*
X0359446Y0106451D01*
X0354721Y0106451D02*
X0353146Y0106451D01*
X0347221Y0104266D02*
X0345646Y0104266D01*
X0347221Y0098951D02*
X0351946Y0098951D01*
X0351946Y0096766D02*
X0347221Y0096766D01*
X0347221Y0091451D01*
X0351946Y0091451D01*
X0351946Y0096766D01*
X0353520Y0096766D01*
X0353520Y0091451D01*
X0351946Y0091451D01*
X0351946Y0089266D02*
X0347221Y0089266D01*
X0347221Y0083951D01*
X0351946Y0083951D01*
X0351946Y0089266D01*
X0353520Y0089266D01*
X0353520Y0083951D01*
X0351946Y0083951D01*
X0351946Y0081766D02*
X0347221Y0081766D01*
X0347221Y0076451D01*
X0351946Y0076451D01*
X0351946Y0081766D01*
X0353520Y0081766D01*
X0353520Y0076451D01*
X0351946Y0076451D01*
X0347221Y0076451D02*
X0345646Y0076451D01*
X0345646Y0081766D01*
X0347221Y0081766D01*
X0347221Y0083951D02*
X0345646Y0083951D01*
X0345646Y0089266D01*
X0347221Y0089266D01*
X0347221Y0091451D02*
X0345646Y0091451D01*
X0345646Y0096766D01*
X0347221Y0096766D01*
X0368146Y0106451D02*
X0368146Y0111766D01*
X0369721Y0111766D01*
X0369721Y0106451D01*
X0368146Y0106451D01*
X0369721Y0106451D02*
X0374446Y0106451D01*
X0374446Y0111766D01*
X0369721Y0111766D01*
X0374446Y0111766D02*
X0376020Y0111766D01*
X0376020Y0106451D01*
X0374446Y0106451D01*
X0359446Y0111766D02*
X0354721Y0111766D01*
X0390646Y0096766D02*
X0390646Y0091451D01*
X0392221Y0091451D01*
X0392221Y0096766D01*
X0396946Y0096766D01*
X0396946Y0091451D01*
X0398520Y0091451D01*
X0398520Y0096766D01*
X0396946Y0096766D01*
X0398146Y0098951D02*
X0398146Y0104266D01*
X0399721Y0104266D01*
X0399721Y0098951D01*
X0404446Y0098951D01*
X0404446Y0104266D01*
X0406020Y0104266D01*
X0406020Y0098951D01*
X0404446Y0098951D01*
X0399721Y0098951D02*
X0398146Y0098951D01*
X0392221Y0096766D02*
X0390646Y0096766D01*
X0392221Y0091451D02*
X0396946Y0091451D01*
X0396946Y0089266D02*
X0392221Y0089266D01*
X0392221Y0083951D01*
X0396946Y0083951D01*
X0396946Y0089266D01*
X0398520Y0089266D01*
X0398520Y0083951D01*
X0396946Y0083951D01*
X0396946Y0081766D02*
X0392221Y0081766D01*
X0392221Y0076451D01*
X0396946Y0076451D01*
X0396946Y0081766D01*
X0398520Y0081766D01*
X0398520Y0076451D01*
X0396946Y0076451D01*
X0392221Y0076451D02*
X0390646Y0076451D01*
X0390646Y0081766D01*
X0392221Y0081766D01*
X0392221Y0083951D02*
X0390646Y0083951D01*
X0390646Y0089266D01*
X0392221Y0089266D01*
X0399721Y0104266D02*
X0404446Y0104266D01*
X0405646Y0106451D02*
X0405646Y0111766D01*
X0407221Y0111766D01*
X0407221Y0106451D01*
X0411946Y0106451D01*
X0411946Y0111766D01*
X0413520Y0111766D01*
X0413520Y0106451D01*
X0411946Y0106451D01*
X0407221Y0106451D02*
X0405646Y0106451D01*
X0407221Y0111766D02*
X0411946Y0111766D01*
X0420646Y0111766D02*
X0420646Y0106451D01*
X0422221Y0106451D01*
X0422221Y0111766D01*
X0420646Y0111766D01*
X0422221Y0111766D02*
X0426946Y0111766D01*
X0426946Y0106451D01*
X0422221Y0106451D01*
X0426946Y0106451D02*
X0428520Y0106451D01*
X0428520Y0111766D01*
X0426946Y0111766D01*
X0354770Y0069266D02*
X0354770Y0063951D01*
X0353196Y0063951D01*
X0353196Y0069266D01*
X0354770Y0069266D01*
X0353196Y0069266D02*
X0348471Y0069266D01*
X0348471Y0063951D01*
X0353196Y0063951D01*
X0348471Y0063951D02*
X0346896Y0063951D01*
X0346896Y0069266D01*
X0348471Y0069266D01*
X0361169Y0053609D02*
X0361171Y0053684D01*
X0361177Y0053758D01*
X0361187Y0053832D01*
X0361200Y0053905D01*
X0361218Y0053978D01*
X0361239Y0054049D01*
X0361264Y0054120D01*
X0361293Y0054189D01*
X0361326Y0054256D01*
X0361362Y0054321D01*
X0361401Y0054385D01*
X0361443Y0054446D01*
X0361489Y0054505D01*
X0361538Y0054562D01*
X0361590Y0054615D01*
X0361644Y0054666D01*
X0361701Y0054715D01*
X0361761Y0054759D01*
X0361823Y0054801D01*
X0361887Y0054840D01*
X0361953Y0054875D01*
X0362020Y0054906D01*
X0362090Y0054934D01*
X0362160Y0054958D01*
X0362232Y0054979D01*
X0362305Y0054995D01*
X0362378Y0055008D01*
X0362453Y0055017D01*
X0362527Y0055022D01*
X0362602Y0055023D01*
X0362676Y0055020D01*
X0362751Y0055013D01*
X0362824Y0055002D01*
X0362898Y0054988D01*
X0362970Y0054969D01*
X0363041Y0054947D01*
X0363111Y0054921D01*
X0363180Y0054891D01*
X0363246Y0054858D01*
X0363311Y0054821D01*
X0363374Y0054781D01*
X0363435Y0054737D01*
X0363493Y0054691D01*
X0363549Y0054641D01*
X0363602Y0054589D01*
X0363653Y0054534D01*
X0363700Y0054476D01*
X0363744Y0054416D01*
X0363785Y0054353D01*
X0363823Y0054289D01*
X0363857Y0054223D01*
X0363888Y0054154D01*
X0363915Y0054085D01*
X0363938Y0054014D01*
X0363957Y0053942D01*
X0363973Y0053869D01*
X0363985Y0053795D01*
X0363993Y0053721D01*
X0363997Y0053646D01*
X0363997Y0053572D01*
X0363993Y0053497D01*
X0363985Y0053423D01*
X0363973Y0053349D01*
X0363957Y0053276D01*
X0363938Y0053204D01*
X0363915Y0053133D01*
X0363888Y0053064D01*
X0363857Y0052995D01*
X0363823Y0052929D01*
X0363785Y0052865D01*
X0363744Y0052802D01*
X0363700Y0052742D01*
X0363653Y0052684D01*
X0363602Y0052629D01*
X0363549Y0052577D01*
X0363493Y0052527D01*
X0363435Y0052481D01*
X0363374Y0052437D01*
X0363311Y0052397D01*
X0363246Y0052360D01*
X0363180Y0052327D01*
X0363111Y0052297D01*
X0363041Y0052271D01*
X0362970Y0052249D01*
X0362898Y0052230D01*
X0362824Y0052216D01*
X0362751Y0052205D01*
X0362676Y0052198D01*
X0362602Y0052195D01*
X0362527Y0052196D01*
X0362453Y0052201D01*
X0362378Y0052210D01*
X0362305Y0052223D01*
X0362232Y0052239D01*
X0362160Y0052260D01*
X0362090Y0052284D01*
X0362020Y0052312D01*
X0361953Y0052343D01*
X0361887Y0052378D01*
X0361823Y0052417D01*
X0361761Y0052459D01*
X0361701Y0052503D01*
X0361644Y0052552D01*
X0361590Y0052603D01*
X0361538Y0052656D01*
X0361489Y0052713D01*
X0361443Y0052772D01*
X0361401Y0052833D01*
X0361362Y0052897D01*
X0361326Y0052962D01*
X0361293Y0053029D01*
X0361264Y0053098D01*
X0361239Y0053169D01*
X0361218Y0053240D01*
X0361200Y0053313D01*
X0361187Y0053386D01*
X0361177Y0053460D01*
X0361171Y0053534D01*
X0361169Y0053609D01*
X0354770Y0048016D02*
X0354770Y0042701D01*
X0353196Y0042701D01*
X0353196Y0048016D01*
X0354770Y0048016D01*
X0353196Y0048016D02*
X0348471Y0048016D01*
X0348471Y0042701D01*
X0353196Y0042701D01*
X0348471Y0042701D02*
X0346896Y0042701D01*
X0346896Y0048016D01*
X0348471Y0048016D01*
X0318669Y0053609D02*
X0318671Y0053684D01*
X0318677Y0053758D01*
X0318687Y0053832D01*
X0318700Y0053905D01*
X0318718Y0053978D01*
X0318739Y0054049D01*
X0318764Y0054120D01*
X0318793Y0054189D01*
X0318826Y0054256D01*
X0318862Y0054321D01*
X0318901Y0054385D01*
X0318943Y0054446D01*
X0318989Y0054505D01*
X0319038Y0054562D01*
X0319090Y0054615D01*
X0319144Y0054666D01*
X0319201Y0054715D01*
X0319261Y0054759D01*
X0319323Y0054801D01*
X0319387Y0054840D01*
X0319453Y0054875D01*
X0319520Y0054906D01*
X0319590Y0054934D01*
X0319660Y0054958D01*
X0319732Y0054979D01*
X0319805Y0054995D01*
X0319878Y0055008D01*
X0319953Y0055017D01*
X0320027Y0055022D01*
X0320102Y0055023D01*
X0320176Y0055020D01*
X0320251Y0055013D01*
X0320324Y0055002D01*
X0320398Y0054988D01*
X0320470Y0054969D01*
X0320541Y0054947D01*
X0320611Y0054921D01*
X0320680Y0054891D01*
X0320746Y0054858D01*
X0320811Y0054821D01*
X0320874Y0054781D01*
X0320935Y0054737D01*
X0320993Y0054691D01*
X0321049Y0054641D01*
X0321102Y0054589D01*
X0321153Y0054534D01*
X0321200Y0054476D01*
X0321244Y0054416D01*
X0321285Y0054353D01*
X0321323Y0054289D01*
X0321357Y0054223D01*
X0321388Y0054154D01*
X0321415Y0054085D01*
X0321438Y0054014D01*
X0321457Y0053942D01*
X0321473Y0053869D01*
X0321485Y0053795D01*
X0321493Y0053721D01*
X0321497Y0053646D01*
X0321497Y0053572D01*
X0321493Y0053497D01*
X0321485Y0053423D01*
X0321473Y0053349D01*
X0321457Y0053276D01*
X0321438Y0053204D01*
X0321415Y0053133D01*
X0321388Y0053064D01*
X0321357Y0052995D01*
X0321323Y0052929D01*
X0321285Y0052865D01*
X0321244Y0052802D01*
X0321200Y0052742D01*
X0321153Y0052684D01*
X0321102Y0052629D01*
X0321049Y0052577D01*
X0320993Y0052527D01*
X0320935Y0052481D01*
X0320874Y0052437D01*
X0320811Y0052397D01*
X0320746Y0052360D01*
X0320680Y0052327D01*
X0320611Y0052297D01*
X0320541Y0052271D01*
X0320470Y0052249D01*
X0320398Y0052230D01*
X0320324Y0052216D01*
X0320251Y0052205D01*
X0320176Y0052198D01*
X0320102Y0052195D01*
X0320027Y0052196D01*
X0319953Y0052201D01*
X0319878Y0052210D01*
X0319805Y0052223D01*
X0319732Y0052239D01*
X0319660Y0052260D01*
X0319590Y0052284D01*
X0319520Y0052312D01*
X0319453Y0052343D01*
X0319387Y0052378D01*
X0319323Y0052417D01*
X0319261Y0052459D01*
X0319201Y0052503D01*
X0319144Y0052552D01*
X0319090Y0052603D01*
X0319038Y0052656D01*
X0318989Y0052713D01*
X0318943Y0052772D01*
X0318901Y0052833D01*
X0318862Y0052897D01*
X0318826Y0052962D01*
X0318793Y0053029D01*
X0318764Y0053098D01*
X0318739Y0053169D01*
X0318718Y0053240D01*
X0318700Y0053313D01*
X0318687Y0053386D01*
X0318677Y0053460D01*
X0318671Y0053534D01*
X0318669Y0053609D01*
X0277241Y0045546D02*
X0277241Y0043971D01*
X0271926Y0043971D01*
X0271926Y0039247D01*
X0277241Y0039247D01*
X0277241Y0037672D01*
X0271926Y0037672D01*
X0271926Y0039247D01*
X0277241Y0039247D02*
X0277241Y0043971D01*
X0277241Y0045546D02*
X0271926Y0045546D01*
X0271926Y0043971D01*
X0286926Y0030546D02*
X0292241Y0030546D01*
X0292241Y0028971D01*
X0286926Y0028971D01*
X0286926Y0024247D01*
X0292241Y0024247D01*
X0292241Y0022672D01*
X0286926Y0022672D01*
X0286926Y0024247D01*
X0292241Y0024247D02*
X0292241Y0028971D01*
X0286926Y0028971D02*
X0286926Y0030546D01*
X0247241Y0030546D02*
X0241926Y0030546D01*
X0241926Y0028971D01*
X0247241Y0028971D01*
X0247241Y0024247D01*
X0241926Y0024247D01*
X0241926Y0022672D01*
X0247241Y0022672D01*
X0247241Y0024247D01*
X0241926Y0024247D02*
X0241926Y0028971D01*
X0247241Y0028971D02*
X0247241Y0030546D01*
X0228669Y0053609D02*
X0228671Y0053684D01*
X0228677Y0053758D01*
X0228687Y0053832D01*
X0228700Y0053905D01*
X0228718Y0053978D01*
X0228739Y0054049D01*
X0228764Y0054120D01*
X0228793Y0054189D01*
X0228826Y0054256D01*
X0228862Y0054321D01*
X0228901Y0054385D01*
X0228943Y0054446D01*
X0228989Y0054505D01*
X0229038Y0054562D01*
X0229090Y0054615D01*
X0229144Y0054666D01*
X0229201Y0054715D01*
X0229261Y0054759D01*
X0229323Y0054801D01*
X0229387Y0054840D01*
X0229453Y0054875D01*
X0229520Y0054906D01*
X0229590Y0054934D01*
X0229660Y0054958D01*
X0229732Y0054979D01*
X0229805Y0054995D01*
X0229878Y0055008D01*
X0229953Y0055017D01*
X0230027Y0055022D01*
X0230102Y0055023D01*
X0230176Y0055020D01*
X0230251Y0055013D01*
X0230324Y0055002D01*
X0230398Y0054988D01*
X0230470Y0054969D01*
X0230541Y0054947D01*
X0230611Y0054921D01*
X0230680Y0054891D01*
X0230746Y0054858D01*
X0230811Y0054821D01*
X0230874Y0054781D01*
X0230935Y0054737D01*
X0230993Y0054691D01*
X0231049Y0054641D01*
X0231102Y0054589D01*
X0231153Y0054534D01*
X0231200Y0054476D01*
X0231244Y0054416D01*
X0231285Y0054353D01*
X0231323Y0054289D01*
X0231357Y0054223D01*
X0231388Y0054154D01*
X0231415Y0054085D01*
X0231438Y0054014D01*
X0231457Y0053942D01*
X0231473Y0053869D01*
X0231485Y0053795D01*
X0231493Y0053721D01*
X0231497Y0053646D01*
X0231497Y0053572D01*
X0231493Y0053497D01*
X0231485Y0053423D01*
X0231473Y0053349D01*
X0231457Y0053276D01*
X0231438Y0053204D01*
X0231415Y0053133D01*
X0231388Y0053064D01*
X0231357Y0052995D01*
X0231323Y0052929D01*
X0231285Y0052865D01*
X0231244Y0052802D01*
X0231200Y0052742D01*
X0231153Y0052684D01*
X0231102Y0052629D01*
X0231049Y0052577D01*
X0230993Y0052527D01*
X0230935Y0052481D01*
X0230874Y0052437D01*
X0230811Y0052397D01*
X0230746Y0052360D01*
X0230680Y0052327D01*
X0230611Y0052297D01*
X0230541Y0052271D01*
X0230470Y0052249D01*
X0230398Y0052230D01*
X0230324Y0052216D01*
X0230251Y0052205D01*
X0230176Y0052198D01*
X0230102Y0052195D01*
X0230027Y0052196D01*
X0229953Y0052201D01*
X0229878Y0052210D01*
X0229805Y0052223D01*
X0229732Y0052239D01*
X0229660Y0052260D01*
X0229590Y0052284D01*
X0229520Y0052312D01*
X0229453Y0052343D01*
X0229387Y0052378D01*
X0229323Y0052417D01*
X0229261Y0052459D01*
X0229201Y0052503D01*
X0229144Y0052552D01*
X0229090Y0052603D01*
X0229038Y0052656D01*
X0228989Y0052713D01*
X0228943Y0052772D01*
X0228901Y0052833D01*
X0228862Y0052897D01*
X0228826Y0052962D01*
X0228793Y0053029D01*
X0228764Y0053098D01*
X0228739Y0053169D01*
X0228718Y0053240D01*
X0228700Y0053313D01*
X0228687Y0053386D01*
X0228677Y0053460D01*
X0228671Y0053534D01*
X0228669Y0053609D01*
X0271926Y0066422D02*
X0277241Y0066422D01*
X0277241Y0067997D01*
X0271926Y0067997D01*
X0271926Y0066422D01*
X0271926Y0067997D02*
X0271926Y0072721D01*
X0277241Y0072721D01*
X0277241Y0067997D01*
X0277241Y0072721D02*
X0277241Y0074296D01*
X0271926Y0074296D01*
X0271926Y0072721D01*
X0226020Y0106451D02*
X0224446Y0106451D01*
X0224446Y0111766D01*
X0226020Y0111766D01*
X0226020Y0106451D01*
X0224446Y0106451D02*
X0219721Y0106451D01*
X0219721Y0111766D01*
X0224446Y0111766D01*
X0219721Y0111766D02*
X0218146Y0111766D01*
X0218146Y0106451D01*
X0219721Y0106451D01*
X0172270Y0110201D02*
X0172270Y0115516D01*
X0170696Y0115516D01*
X0170696Y0110201D01*
X0172270Y0110201D01*
X0170696Y0110201D02*
X0165971Y0110201D01*
X0165971Y0115516D01*
X0170696Y0115516D01*
X0165971Y0115516D02*
X0164396Y0115516D01*
X0164396Y0110201D01*
X0165971Y0110201D01*
X0113520Y0111766D02*
X0113520Y0106451D01*
X0111946Y0106451D01*
X0111946Y0111766D01*
X0113520Y0111766D01*
X0111946Y0111766D02*
X0107221Y0111766D01*
X0107221Y0106451D01*
X0111946Y0106451D01*
X0107221Y0106451D02*
X0105646Y0106451D01*
X0105646Y0111766D01*
X0107221Y0111766D01*
X0171926Y0046796D02*
X0177241Y0046796D01*
X0177241Y0045221D01*
X0171926Y0045221D01*
X0171926Y0040497D01*
X0177241Y0040497D01*
X0177241Y0038922D01*
X0171926Y0038922D01*
X0171926Y0040497D01*
X0177241Y0040497D02*
X0177241Y0045221D01*
X0171926Y0045221D02*
X0171926Y0046796D01*
X0189426Y0030546D02*
X0194741Y0030546D01*
X0194741Y0028971D01*
X0189426Y0028971D01*
X0189426Y0024247D01*
X0194741Y0024247D01*
X0194741Y0022672D01*
X0189426Y0022672D01*
X0189426Y0024247D01*
X0194741Y0024247D02*
X0194741Y0028971D01*
X0189426Y0028971D02*
X0189426Y0030546D01*
X0339426Y0030546D02*
X0344741Y0030546D01*
X0344741Y0028971D01*
X0339426Y0028971D01*
X0339426Y0024247D01*
X0344741Y0024247D01*
X0344741Y0022672D01*
X0339426Y0022672D01*
X0339426Y0024247D01*
X0344741Y0024247D02*
X0344741Y0028971D01*
X0339426Y0028971D02*
X0339426Y0030546D01*
X0384426Y0030546D02*
X0389741Y0030546D01*
X0389741Y0028971D01*
X0384426Y0028971D01*
X0384426Y0024247D01*
X0389741Y0024247D01*
X0389741Y0022672D01*
X0384426Y0022672D01*
X0384426Y0024247D01*
X0389741Y0024247D02*
X0389741Y0028971D01*
X0384426Y0028971D02*
X0384426Y0030546D01*
X0400676Y0030546D02*
X0405991Y0030546D01*
X0405991Y0028971D01*
X0400676Y0028971D01*
X0400676Y0024247D01*
X0405991Y0024247D01*
X0405991Y0022672D01*
X0400676Y0022672D01*
X0400676Y0024247D01*
X0405991Y0024247D02*
X0405991Y0028971D01*
X0400676Y0028971D02*
X0400676Y0030546D01*
X0465646Y0025516D02*
X0465646Y0020201D01*
X0467221Y0020201D01*
X0467221Y0025516D01*
X0465646Y0025516D01*
X0467221Y0025516D02*
X0471946Y0025516D01*
X0471946Y0020201D01*
X0467221Y0020201D01*
X0471946Y0020201D02*
X0473520Y0020201D01*
X0473520Y0025516D01*
X0471946Y0025516D01*
D12*
X0477183Y0025161D02*
X0477183Y0022959D01*
X0477183Y0023693D02*
X0478284Y0023693D01*
X0478651Y0024060D01*
X0478651Y0024794D01*
X0478284Y0025161D01*
X0477183Y0025161D01*
X0477917Y0023693D02*
X0478651Y0022959D01*
X0478284Y0022661D02*
X0477183Y0021560D01*
X0478651Y0021560D01*
X0479393Y0020826D02*
X0479393Y0020459D01*
X0479393Y0020826D02*
X0480861Y0022294D01*
X0480861Y0022661D01*
X0479393Y0022661D01*
X0479393Y0022959D02*
X0480861Y0022959D01*
X0480127Y0022959D02*
X0480127Y0025161D01*
X0479393Y0024427D01*
X0478284Y0022661D02*
X0478284Y0020459D01*
X0481603Y0020826D02*
X0483071Y0022294D01*
X0483071Y0020826D01*
X0482704Y0020459D01*
X0481970Y0020459D01*
X0481603Y0020826D01*
X0481603Y0022294D01*
X0481970Y0022661D01*
X0482704Y0022661D01*
X0483071Y0022294D01*
X0482704Y0022959D02*
X0481970Y0022959D01*
X0481603Y0023326D01*
X0481603Y0023693D01*
X0481970Y0024060D01*
X0482704Y0024060D01*
X0483071Y0023693D01*
X0483071Y0023326D01*
X0482704Y0022959D01*
X0482704Y0024060D02*
X0483071Y0024427D01*
X0483071Y0024794D01*
X0482704Y0025161D01*
X0481970Y0025161D01*
X0481603Y0024794D01*
X0481603Y0024427D01*
X0481970Y0024060D01*
X0483813Y0022661D02*
X0484914Y0022661D01*
X0485281Y0022294D01*
X0485281Y0021560D01*
X0484914Y0021193D01*
X0483813Y0021193D01*
X0484547Y0021193D02*
X0485281Y0020459D01*
X0483813Y0020459D02*
X0483813Y0022661D01*
X0410571Y0035709D02*
X0410571Y0037177D01*
X0409103Y0037177D02*
X0409103Y0036076D01*
X0409470Y0035709D01*
X0410571Y0035709D01*
X0408361Y0035709D02*
X0406893Y0035709D01*
X0408361Y0037177D01*
X0408361Y0037544D01*
X0407994Y0037911D01*
X0407260Y0037911D01*
X0406893Y0037544D01*
X0406151Y0037544D02*
X0405784Y0037911D01*
X0405050Y0037911D01*
X0404683Y0037544D01*
X0406151Y0037544D02*
X0406151Y0037177D01*
X0404683Y0035709D01*
X0406151Y0035709D01*
X0400861Y0035709D02*
X0399393Y0035709D01*
X0400861Y0037177D01*
X0400861Y0037544D01*
X0400494Y0037911D01*
X0399760Y0037911D01*
X0399393Y0037544D01*
X0398651Y0037544D02*
X0398284Y0037911D01*
X0397550Y0037911D01*
X0397183Y0037544D01*
X0397183Y0036076D01*
X0397550Y0035709D01*
X0398284Y0035709D01*
X0398651Y0036076D01*
X0389483Y0036419D02*
X0389116Y0036419D01*
X0387648Y0037887D01*
X0387281Y0037887D01*
X0387281Y0036419D01*
X0386983Y0036419D02*
X0385515Y0037887D01*
X0385148Y0037887D01*
X0384781Y0037520D01*
X0384781Y0036786D01*
X0385148Y0036419D01*
X0385148Y0035677D02*
X0385882Y0035677D01*
X0386249Y0035310D01*
X0386249Y0034209D01*
X0386249Y0034943D02*
X0386983Y0035677D01*
X0387281Y0035310D02*
X0388382Y0034209D01*
X0388382Y0035677D01*
X0389483Y0035310D02*
X0387281Y0035310D01*
X0386983Y0034209D02*
X0384781Y0034209D01*
X0384781Y0035310D01*
X0385148Y0035677D01*
X0386983Y0036419D02*
X0386983Y0037887D01*
X0386616Y0038629D02*
X0385148Y0040096D01*
X0386616Y0040096D01*
X0386983Y0039729D01*
X0386983Y0038995D01*
X0386616Y0038629D01*
X0385148Y0038629D01*
X0384781Y0038995D01*
X0384781Y0039729D01*
X0385148Y0040096D01*
X0387281Y0039729D02*
X0387648Y0040096D01*
X0389116Y0038629D01*
X0389483Y0038995D01*
X0389483Y0039729D01*
X0389116Y0040096D01*
X0387648Y0040096D01*
X0387281Y0039729D02*
X0387281Y0038995D01*
X0387648Y0038629D01*
X0389116Y0038629D01*
X0388749Y0040838D02*
X0388749Y0041939D01*
X0388382Y0042306D01*
X0387648Y0042306D01*
X0387281Y0041939D01*
X0387281Y0040838D01*
X0389483Y0040838D01*
X0388749Y0041572D02*
X0389483Y0042306D01*
X0389824Y0051809D02*
X0390191Y0052176D01*
X0390191Y0053644D01*
X0389824Y0054011D01*
X0389090Y0054011D01*
X0388723Y0053644D01*
X0388723Y0053277D01*
X0389090Y0052910D01*
X0390191Y0052910D01*
X0389824Y0051809D02*
X0389090Y0051809D01*
X0388723Y0052176D01*
X0387981Y0051809D02*
X0386514Y0051809D01*
X0387247Y0051809D02*
X0387247Y0054011D01*
X0386514Y0053277D01*
X0385772Y0053277D02*
X0385405Y0052910D01*
X0384671Y0052910D01*
X0384304Y0053277D01*
X0384304Y0053644D01*
X0384671Y0054011D01*
X0385405Y0054011D01*
X0385772Y0053644D01*
X0385772Y0053277D01*
X0385405Y0052910D02*
X0385772Y0052543D01*
X0385772Y0052176D01*
X0385405Y0051809D01*
X0384671Y0051809D01*
X0384304Y0052176D01*
X0384304Y0052543D01*
X0384671Y0052910D01*
X0383562Y0052910D02*
X0383562Y0052176D01*
X0383195Y0051809D01*
X0382461Y0051809D01*
X0382094Y0052176D01*
X0382094Y0052910D02*
X0382828Y0053277D01*
X0383195Y0053277D01*
X0383562Y0052910D01*
X0383562Y0054011D02*
X0382094Y0054011D01*
X0382094Y0052910D01*
X0377941Y0052676D02*
X0377941Y0054144D01*
X0377574Y0054511D01*
X0376473Y0054511D01*
X0376473Y0052309D01*
X0377574Y0052309D01*
X0377941Y0052676D01*
X0375731Y0052309D02*
X0374264Y0052309D01*
X0375731Y0053777D01*
X0375731Y0054144D01*
X0375364Y0054511D01*
X0374630Y0054511D01*
X0374264Y0054144D01*
X0373522Y0054144D02*
X0373522Y0053777D01*
X0373155Y0053410D01*
X0373522Y0053043D01*
X0373522Y0052676D01*
X0373155Y0052309D01*
X0372421Y0052309D01*
X0372054Y0052676D01*
X0371312Y0052676D02*
X0370945Y0052309D01*
X0370211Y0052309D01*
X0369844Y0052676D01*
X0369844Y0053410D02*
X0370578Y0053777D01*
X0370945Y0053777D01*
X0371312Y0053410D01*
X0371312Y0052676D01*
X0369844Y0053410D02*
X0369844Y0054511D01*
X0371312Y0054511D01*
X0372054Y0054144D02*
X0372421Y0054511D01*
X0373155Y0054511D01*
X0373522Y0054144D01*
X0373155Y0053410D02*
X0372788Y0053410D01*
X0369102Y0053410D02*
X0369102Y0052676D01*
X0368735Y0052309D01*
X0368001Y0052309D01*
X0367634Y0052676D01*
X0367634Y0053410D02*
X0368368Y0053777D01*
X0368735Y0053777D01*
X0369102Y0053410D01*
X0369102Y0054511D02*
X0367634Y0054511D01*
X0367634Y0053410D01*
X0366892Y0054511D02*
X0365424Y0054511D01*
X0365424Y0052309D01*
X0366892Y0052309D01*
X0366158Y0053410D02*
X0365424Y0053410D01*
X0364682Y0052309D02*
X0364682Y0054511D01*
X0363214Y0054511D02*
X0364682Y0052309D01*
X0363214Y0052309D02*
X0363214Y0054511D01*
X0372290Y0058809D02*
X0373024Y0058809D01*
X0372657Y0058809D02*
X0372657Y0061011D01*
X0372290Y0061011D02*
X0373024Y0061011D01*
X0373764Y0060644D02*
X0373764Y0059176D01*
X0374131Y0058809D01*
X0374864Y0058809D01*
X0375231Y0059176D01*
X0375973Y0059176D02*
X0376340Y0058809D01*
X0377074Y0058809D01*
X0377441Y0059176D01*
X0377441Y0059910D01*
X0377074Y0060277D01*
X0376707Y0060277D01*
X0375973Y0059910D01*
X0375973Y0061011D01*
X0377441Y0061011D01*
X0375231Y0060644D02*
X0374864Y0061011D01*
X0374131Y0061011D01*
X0373764Y0060644D01*
X0382183Y0060310D02*
X0382917Y0060677D01*
X0383284Y0060677D01*
X0383651Y0060310D01*
X0383651Y0059576D01*
X0383284Y0059209D01*
X0382550Y0059209D01*
X0382183Y0059576D01*
X0382183Y0060310D02*
X0382183Y0061411D01*
X0383651Y0061411D01*
X0384393Y0061044D02*
X0384393Y0060677D01*
X0384760Y0060310D01*
X0385494Y0060310D01*
X0385861Y0059943D01*
X0385861Y0059576D01*
X0385494Y0059209D01*
X0384760Y0059209D01*
X0384393Y0059576D01*
X0384393Y0059943D01*
X0384760Y0060310D01*
X0385494Y0060310D02*
X0385861Y0060677D01*
X0385861Y0061044D01*
X0385494Y0061411D01*
X0384760Y0061411D01*
X0384393Y0061044D01*
X0386603Y0060677D02*
X0387337Y0061411D01*
X0387337Y0059209D01*
X0386603Y0059209D02*
X0388071Y0059209D01*
X0388813Y0059576D02*
X0389180Y0059209D01*
X0389914Y0059209D01*
X0390281Y0059576D01*
X0390281Y0061044D01*
X0389914Y0061411D01*
X0389180Y0061411D01*
X0388813Y0061044D01*
X0388813Y0060677D01*
X0389180Y0060310D01*
X0390281Y0060310D01*
X0403800Y0075459D02*
X0404534Y0075459D01*
X0404901Y0075826D01*
X0405643Y0075459D02*
X0407111Y0075459D01*
X0406377Y0075459D02*
X0406377Y0077661D01*
X0405643Y0076927D01*
X0404901Y0077294D02*
X0404534Y0077661D01*
X0403800Y0077661D01*
X0403433Y0077294D01*
X0403433Y0075826D01*
X0403800Y0075459D01*
X0408433Y0075459D02*
X0409901Y0076927D01*
X0409901Y0077294D01*
X0409534Y0077661D01*
X0408800Y0077661D01*
X0408433Y0077294D01*
X0408433Y0075459D02*
X0409901Y0075459D01*
X0410643Y0075459D02*
X0412111Y0076927D01*
X0412111Y0077294D01*
X0411744Y0077661D01*
X0411010Y0077661D01*
X0410643Y0077294D01*
X0410643Y0075459D02*
X0412111Y0075459D01*
X0412853Y0075826D02*
X0413220Y0075459D01*
X0414321Y0075459D01*
X0414321Y0076927D01*
X0412853Y0076927D02*
X0412853Y0075826D01*
X0386441Y0078644D02*
X0384973Y0077176D01*
X0384973Y0076809D01*
X0384231Y0076809D02*
X0382764Y0076809D01*
X0383498Y0076809D02*
X0383498Y0079011D01*
X0382764Y0078277D01*
X0382022Y0078644D02*
X0382022Y0077910D01*
X0381655Y0077543D01*
X0380554Y0077543D01*
X0381288Y0077543D02*
X0382022Y0076809D01*
X0380554Y0076809D02*
X0380554Y0079011D01*
X0381655Y0079011D01*
X0382022Y0078644D01*
X0382023Y0079309D02*
X0381289Y0079309D01*
X0380922Y0079676D01*
X0380922Y0080410D02*
X0381656Y0080777D01*
X0382023Y0080777D01*
X0382390Y0080410D01*
X0382390Y0079676D01*
X0382023Y0079309D01*
X0383132Y0079309D02*
X0384600Y0079309D01*
X0384973Y0079011D02*
X0386441Y0079011D01*
X0386441Y0078644D01*
X0386443Y0079309D02*
X0385342Y0080043D01*
X0386443Y0080777D01*
X0385342Y0081511D02*
X0385342Y0079309D01*
X0383866Y0079309D02*
X0383866Y0081511D01*
X0383132Y0080777D01*
X0382390Y0081511D02*
X0380922Y0081511D01*
X0380922Y0080410D01*
X0380921Y0084309D02*
X0381655Y0084309D01*
X0382022Y0084676D01*
X0382764Y0084309D02*
X0384231Y0085777D01*
X0384231Y0086144D01*
X0383864Y0086511D01*
X0383131Y0086511D01*
X0382764Y0086144D01*
X0383500Y0086075D02*
X0383500Y0088277D01*
X0384601Y0088277D01*
X0384968Y0087910D01*
X0384968Y0087176D01*
X0384601Y0086809D01*
X0383500Y0086809D01*
X0382758Y0087176D02*
X0382391Y0086809D01*
X0381657Y0086809D01*
X0381290Y0087176D01*
X0382758Y0088644D01*
X0382758Y0087176D01*
X0382022Y0086144D02*
X0381655Y0086511D01*
X0380921Y0086511D01*
X0380554Y0086144D01*
X0380554Y0084676D01*
X0380921Y0084309D01*
X0382764Y0084309D02*
X0384231Y0084309D01*
X0384973Y0084309D02*
X0384973Y0084676D01*
X0386441Y0086144D01*
X0386441Y0086511D01*
X0384973Y0086511D01*
X0386077Y0086809D02*
X0386077Y0088644D01*
X0386444Y0089011D01*
X0386444Y0087910D02*
X0385710Y0087910D01*
X0382758Y0088644D02*
X0382391Y0089011D01*
X0381657Y0089011D01*
X0381290Y0088644D01*
X0381290Y0087176D01*
X0380548Y0086809D02*
X0379080Y0086809D01*
X0380548Y0088277D01*
X0380548Y0088644D01*
X0380181Y0089011D01*
X0379447Y0089011D01*
X0379080Y0088644D01*
X0378338Y0088644D02*
X0377971Y0089011D01*
X0377237Y0089011D01*
X0376871Y0088644D01*
X0378338Y0088644D02*
X0378338Y0088277D01*
X0376871Y0086809D01*
X0378338Y0086809D01*
X0380554Y0091809D02*
X0380554Y0094011D01*
X0381655Y0094011D01*
X0382022Y0093644D01*
X0382022Y0092910D01*
X0381655Y0092543D01*
X0380554Y0092543D01*
X0381288Y0092543D02*
X0382022Y0091809D01*
X0382764Y0091809D02*
X0384231Y0091809D01*
X0383498Y0091809D02*
X0383498Y0094011D01*
X0382764Y0093277D01*
X0382394Y0094309D02*
X0382027Y0094309D01*
X0382027Y0094676D01*
X0382394Y0094676D01*
X0382394Y0094309D01*
X0383132Y0094676D02*
X0383499Y0094309D01*
X0384233Y0094309D01*
X0384600Y0094676D01*
X0384600Y0095043D01*
X0384233Y0095410D01*
X0383499Y0095410D01*
X0383132Y0095777D01*
X0383132Y0096144D01*
X0383499Y0096511D01*
X0384233Y0096511D01*
X0384600Y0096144D01*
X0384600Y0095777D01*
X0384233Y0095410D01*
X0383499Y0095410D02*
X0383132Y0095043D01*
X0383132Y0094676D01*
X0381285Y0094309D02*
X0379817Y0094309D01*
X0380551Y0094309D02*
X0380551Y0096511D01*
X0379817Y0095777D01*
X0385342Y0096511D02*
X0385342Y0094309D01*
X0385342Y0095043D02*
X0386443Y0095777D01*
X0385342Y0095043D02*
X0386443Y0094309D01*
X0386441Y0094011D02*
X0385707Y0093644D01*
X0384973Y0092910D01*
X0386074Y0092910D01*
X0386441Y0092543D01*
X0386441Y0092176D01*
X0386074Y0091809D01*
X0385340Y0091809D01*
X0384973Y0092176D01*
X0384973Y0092910D01*
X0388421Y0099309D02*
X0389155Y0099309D01*
X0389522Y0099676D01*
X0390264Y0099309D02*
X0391731Y0100777D01*
X0391731Y0101144D01*
X0391364Y0101511D01*
X0390631Y0101511D01*
X0390264Y0101144D01*
X0390264Y0101809D02*
X0390264Y0102176D01*
X0391731Y0103644D01*
X0391731Y0104011D01*
X0390264Y0104011D01*
X0389526Y0102176D02*
X0389526Y0101809D01*
X0389159Y0101809D01*
X0389159Y0102176D01*
X0389526Y0102176D01*
X0389155Y0101511D02*
X0388421Y0101511D01*
X0388054Y0101144D01*
X0388054Y0099676D01*
X0388421Y0099309D01*
X0390264Y0099309D02*
X0391731Y0099309D01*
X0392473Y0099676D02*
X0393941Y0101144D01*
X0393941Y0099676D01*
X0393574Y0099309D01*
X0392840Y0099309D01*
X0392473Y0099676D01*
X0392473Y0101144D01*
X0392840Y0101511D01*
X0393574Y0101511D01*
X0393941Y0101144D01*
X0393941Y0101809D02*
X0393941Y0102910D01*
X0393574Y0103277D01*
X0392473Y0103277D01*
X0392473Y0101809D01*
X0389522Y0101144D02*
X0389155Y0101511D01*
X0388050Y0101809D02*
X0388050Y0104011D01*
X0386949Y0102910D01*
X0388417Y0102910D01*
X0375571Y0103326D02*
X0375571Y0103693D01*
X0375204Y0104060D01*
X0374103Y0104060D01*
X0374103Y0103326D01*
X0374470Y0102959D01*
X0375204Y0102959D01*
X0375571Y0103326D01*
X0374837Y0104794D02*
X0374103Y0104060D01*
X0373361Y0104427D02*
X0372994Y0104060D01*
X0373361Y0103693D01*
X0373361Y0103326D01*
X0372994Y0102959D01*
X0372260Y0102959D01*
X0371893Y0103326D01*
X0371151Y0103326D02*
X0370784Y0102959D01*
X0370050Y0102959D01*
X0369683Y0103326D01*
X0369683Y0104794D01*
X0370050Y0105161D01*
X0370784Y0105161D01*
X0371151Y0104794D01*
X0371893Y0104794D02*
X0372260Y0105161D01*
X0372994Y0105161D01*
X0373361Y0104794D01*
X0373361Y0104427D01*
X0372994Y0104060D02*
X0372627Y0104060D01*
X0374837Y0104794D02*
X0375571Y0105161D01*
X0373143Y0112959D02*
X0373143Y0115161D01*
X0374244Y0115161D01*
X0374611Y0114794D01*
X0374611Y0114060D01*
X0374244Y0113693D01*
X0373143Y0113693D01*
X0372401Y0112959D02*
X0372401Y0115161D01*
X0370933Y0115161D02*
X0372401Y0112959D01*
X0370933Y0112959D02*
X0370933Y0115161D01*
X0348941Y0110410D02*
X0348941Y0109309D01*
X0348574Y0109011D02*
X0347840Y0109011D01*
X0347473Y0108644D01*
X0347473Y0108277D01*
X0347840Y0107910D01*
X0348941Y0107910D01*
X0348941Y0108644D02*
X0348574Y0109011D01*
X0348941Y0108644D02*
X0348941Y0107176D01*
X0348574Y0106809D01*
X0347840Y0106809D01*
X0347473Y0107176D01*
X0346731Y0106809D02*
X0345264Y0106809D01*
X0345998Y0106809D02*
X0345998Y0109011D01*
X0345264Y0108277D01*
X0344522Y0108644D02*
X0344155Y0109011D01*
X0343421Y0109011D01*
X0343054Y0108644D01*
X0343054Y0107176D01*
X0343421Y0106809D01*
X0344155Y0106809D01*
X0344522Y0107176D01*
X0344526Y0109309D02*
X0344159Y0109309D01*
X0344159Y0109676D01*
X0344526Y0109676D01*
X0344526Y0109309D01*
X0345264Y0109309D02*
X0346731Y0110777D01*
X0346731Y0111144D01*
X0346364Y0111511D01*
X0345631Y0111511D01*
X0345264Y0111144D01*
X0345264Y0109309D02*
X0346731Y0109309D01*
X0347473Y0109309D02*
X0347473Y0110777D01*
X0348574Y0110777D01*
X0348941Y0110410D01*
X0343417Y0110777D02*
X0343417Y0111144D01*
X0343050Y0111511D01*
X0342316Y0111511D01*
X0341949Y0111144D01*
X0343417Y0110777D02*
X0341949Y0109309D01*
X0343417Y0109309D01*
X0341074Y0103277D02*
X0339973Y0103277D01*
X0339973Y0101809D01*
X0340340Y0101511D02*
X0341074Y0101511D01*
X0341441Y0101144D01*
X0341441Y0100777D01*
X0341074Y0100410D01*
X0340340Y0100410D01*
X0339973Y0100777D01*
X0339973Y0101144D01*
X0340340Y0101511D01*
X0340340Y0100410D02*
X0339973Y0100043D01*
X0339973Y0099676D01*
X0340340Y0099309D01*
X0341074Y0099309D01*
X0341441Y0099676D01*
X0341441Y0100043D01*
X0341074Y0100410D01*
X0341441Y0101809D02*
X0341441Y0102910D01*
X0341074Y0103277D01*
X0339231Y0103644D02*
X0337764Y0102176D01*
X0338131Y0101809D01*
X0338864Y0101809D01*
X0339231Y0102176D01*
X0339231Y0103644D01*
X0338864Y0104011D01*
X0338131Y0104011D01*
X0337764Y0103644D01*
X0337764Y0102176D01*
X0337022Y0101809D02*
X0335554Y0101809D01*
X0335921Y0101511D02*
X0335554Y0101144D01*
X0335554Y0099676D01*
X0335921Y0099309D01*
X0336655Y0099309D01*
X0337022Y0099676D01*
X0337764Y0099309D02*
X0339231Y0099309D01*
X0338498Y0099309D02*
X0338498Y0101511D01*
X0337764Y0100777D01*
X0337022Y0101144D02*
X0336655Y0101511D01*
X0335921Y0101511D01*
X0336288Y0101809D02*
X0336288Y0104011D01*
X0335554Y0103277D01*
X0335551Y0096511D02*
X0334817Y0095777D01*
X0335551Y0096511D02*
X0335551Y0094309D01*
X0335554Y0094011D02*
X0336655Y0094011D01*
X0337022Y0093644D01*
X0337022Y0092910D01*
X0336655Y0092543D01*
X0335554Y0092543D01*
X0336288Y0092543D02*
X0337022Y0091809D01*
X0337764Y0091809D02*
X0339231Y0091809D01*
X0338498Y0091809D02*
X0338498Y0094011D01*
X0337764Y0093277D01*
X0337394Y0094309D02*
X0337027Y0094309D01*
X0337027Y0094676D01*
X0337394Y0094676D01*
X0337394Y0094309D01*
X0338132Y0094676D02*
X0338499Y0094309D01*
X0339233Y0094309D01*
X0339600Y0094676D01*
X0339600Y0095043D01*
X0339233Y0095410D01*
X0338499Y0095410D01*
X0338132Y0095777D01*
X0338132Y0096144D01*
X0338499Y0096511D01*
X0339233Y0096511D01*
X0339600Y0096144D01*
X0339600Y0095777D01*
X0339233Y0095410D01*
X0338499Y0095410D02*
X0338132Y0095043D01*
X0338132Y0094676D01*
X0336285Y0094309D02*
X0334817Y0094309D01*
X0335554Y0094011D02*
X0335554Y0091809D01*
X0335548Y0089011D02*
X0334080Y0089011D01*
X0332971Y0089011D02*
X0331871Y0087910D01*
X0333338Y0087910D01*
X0334080Y0087176D02*
X0334080Y0086809D01*
X0334080Y0087176D02*
X0335548Y0088644D01*
X0335548Y0089011D01*
X0336290Y0088644D02*
X0336657Y0089011D01*
X0337391Y0089011D01*
X0337758Y0088644D01*
X0336290Y0087176D01*
X0336657Y0086809D01*
X0337391Y0086809D01*
X0337758Y0087176D01*
X0337758Y0088644D01*
X0338500Y0088277D02*
X0339601Y0088277D01*
X0339968Y0087910D01*
X0339968Y0087176D01*
X0339601Y0086809D01*
X0338500Y0086809D01*
X0338864Y0086511D02*
X0338131Y0086511D01*
X0337764Y0086144D01*
X0338500Y0086075D02*
X0338500Y0088277D01*
X0338864Y0086511D02*
X0339231Y0086144D01*
X0339231Y0085777D01*
X0337764Y0084309D01*
X0339231Y0084309D01*
X0339973Y0084676D02*
X0340340Y0084309D01*
X0341074Y0084309D01*
X0341441Y0084676D01*
X0341441Y0085043D01*
X0341074Y0085410D01*
X0339973Y0085410D01*
X0339973Y0084676D01*
X0339973Y0085410D02*
X0340707Y0086144D01*
X0341441Y0086511D01*
X0341077Y0086809D02*
X0341077Y0088644D01*
X0341444Y0089011D01*
X0341444Y0087910D02*
X0340710Y0087910D01*
X0341074Y0091809D02*
X0341074Y0094011D01*
X0339973Y0092910D01*
X0341441Y0092910D01*
X0341443Y0094309D02*
X0340342Y0095043D01*
X0341443Y0095777D01*
X0340342Y0096511D02*
X0340342Y0094309D01*
X0336290Y0088644D02*
X0336290Y0087176D01*
X0336655Y0086511D02*
X0335921Y0086511D01*
X0335554Y0086144D01*
X0335554Y0084676D01*
X0335921Y0084309D01*
X0336655Y0084309D01*
X0337022Y0084676D01*
X0337022Y0086144D02*
X0336655Y0086511D01*
X0332971Y0086809D02*
X0332971Y0089011D01*
X0336656Y0081144D02*
X0335922Y0080410D01*
X0337023Y0080410D01*
X0337390Y0080043D01*
X0337390Y0079676D01*
X0337023Y0079309D01*
X0336289Y0079309D01*
X0335922Y0079676D01*
X0335922Y0080410D01*
X0336656Y0081144D02*
X0337390Y0081511D01*
X0338132Y0081144D02*
X0338499Y0081511D01*
X0339233Y0081511D01*
X0339600Y0081144D01*
X0339600Y0080777D01*
X0338132Y0079309D01*
X0339600Y0079309D01*
X0339973Y0079011D02*
X0339973Y0077910D01*
X0340707Y0078277D01*
X0341074Y0078277D01*
X0341441Y0077910D01*
X0341441Y0077176D01*
X0341074Y0076809D01*
X0340340Y0076809D01*
X0339973Y0077176D01*
X0339231Y0076809D02*
X0337764Y0076809D01*
X0338498Y0076809D02*
X0338498Y0079011D01*
X0337764Y0078277D01*
X0337022Y0078644D02*
X0337022Y0077910D01*
X0336655Y0077543D01*
X0335554Y0077543D01*
X0336288Y0077543D02*
X0337022Y0076809D01*
X0335554Y0076809D02*
X0335554Y0079011D01*
X0336655Y0079011D01*
X0337022Y0078644D01*
X0339973Y0079011D02*
X0341441Y0079011D01*
X0341443Y0079309D02*
X0340342Y0080043D01*
X0341443Y0080777D01*
X0340342Y0081511D02*
X0340342Y0079309D01*
X0347094Y0072027D02*
X0347828Y0072761D01*
X0347828Y0070559D01*
X0347094Y0070559D02*
X0348562Y0070559D01*
X0349304Y0070926D02*
X0350772Y0072394D01*
X0350772Y0070926D01*
X0350405Y0070559D01*
X0349671Y0070559D01*
X0349304Y0070926D01*
X0349304Y0072394D01*
X0349671Y0072761D01*
X0350405Y0072761D01*
X0350772Y0072394D01*
X0351514Y0072394D02*
X0351881Y0072761D01*
X0352614Y0072761D01*
X0352981Y0072394D01*
X0351514Y0070926D01*
X0351881Y0070559D01*
X0352614Y0070559D01*
X0352981Y0070926D01*
X0352981Y0072394D01*
X0353723Y0072027D02*
X0354824Y0072027D01*
X0355191Y0071660D01*
X0355191Y0070559D01*
X0353723Y0070559D02*
X0353723Y0072027D01*
X0351514Y0072394D02*
X0351514Y0070926D01*
X0351364Y0062761D02*
X0350631Y0062761D01*
X0350264Y0062394D01*
X0349522Y0062394D02*
X0349155Y0062761D01*
X0348421Y0062761D01*
X0348054Y0062394D01*
X0348054Y0060926D01*
X0348421Y0060559D01*
X0349155Y0060559D01*
X0349522Y0060926D01*
X0350264Y0060559D02*
X0351731Y0062027D01*
X0351731Y0062394D01*
X0351364Y0062761D01*
X0352473Y0062394D02*
X0352473Y0062027D01*
X0352840Y0061660D01*
X0353941Y0061660D01*
X0353941Y0062394D02*
X0353574Y0062761D01*
X0352840Y0062761D01*
X0352473Y0062394D01*
X0352473Y0060926D02*
X0352840Y0060559D01*
X0353574Y0060559D01*
X0353941Y0060926D01*
X0353941Y0062394D01*
X0351731Y0060559D02*
X0350264Y0060559D01*
X0334941Y0059910D02*
X0333473Y0059910D01*
X0334574Y0061011D01*
X0334574Y0058809D01*
X0332731Y0059176D02*
X0332364Y0058809D01*
X0331631Y0058809D01*
X0331264Y0059176D01*
X0331264Y0060644D01*
X0331631Y0061011D01*
X0332364Y0061011D01*
X0332731Y0060644D01*
X0330524Y0061011D02*
X0329790Y0061011D01*
X0330157Y0061011D02*
X0330157Y0058809D01*
X0329790Y0058809D02*
X0330524Y0058809D01*
X0330655Y0054511D02*
X0329921Y0054511D01*
X0329554Y0054144D01*
X0328812Y0054511D02*
X0327344Y0054511D01*
X0327344Y0053410D01*
X0328078Y0053777D01*
X0328445Y0053777D01*
X0328812Y0053410D01*
X0328812Y0052676D01*
X0328445Y0052309D01*
X0327711Y0052309D01*
X0327344Y0052676D01*
X0326602Y0052676D02*
X0326235Y0052309D01*
X0325501Y0052309D01*
X0325134Y0052676D01*
X0325134Y0053410D02*
X0325868Y0053777D01*
X0326235Y0053777D01*
X0326602Y0053410D01*
X0326602Y0052676D01*
X0325134Y0053410D02*
X0325134Y0054511D01*
X0326602Y0054511D01*
X0324392Y0054511D02*
X0322924Y0054511D01*
X0322924Y0052309D01*
X0324392Y0052309D01*
X0323658Y0053410D02*
X0322924Y0053410D01*
X0322182Y0052309D02*
X0322182Y0054511D01*
X0320714Y0054511D02*
X0322182Y0052309D01*
X0320714Y0052309D02*
X0320714Y0054511D01*
X0329554Y0052676D02*
X0329921Y0052309D01*
X0330655Y0052309D01*
X0331022Y0052676D01*
X0331022Y0053043D01*
X0330655Y0053410D01*
X0330288Y0053410D01*
X0330655Y0053410D02*
X0331022Y0053777D01*
X0331022Y0054144D01*
X0330655Y0054511D01*
X0331764Y0054144D02*
X0332130Y0054511D01*
X0332864Y0054511D01*
X0333231Y0054144D01*
X0333231Y0053777D01*
X0331764Y0052309D01*
X0333231Y0052309D01*
X0333973Y0052309D02*
X0335074Y0052309D01*
X0335441Y0052676D01*
X0335441Y0054144D01*
X0335074Y0054511D01*
X0333973Y0054511D01*
X0333973Y0052309D01*
X0345844Y0050777D02*
X0346578Y0051511D01*
X0346578Y0049309D01*
X0345844Y0049309D02*
X0347312Y0049309D01*
X0348054Y0049676D02*
X0348421Y0049309D01*
X0349155Y0049309D01*
X0349522Y0049676D01*
X0349522Y0051144D01*
X0348054Y0049676D01*
X0348054Y0051144D01*
X0348421Y0051511D01*
X0349155Y0051511D01*
X0349522Y0051144D01*
X0350264Y0051144D02*
X0350631Y0051511D01*
X0351364Y0051511D01*
X0351731Y0051144D01*
X0350264Y0049676D01*
X0350631Y0049309D01*
X0351364Y0049309D01*
X0351731Y0049676D01*
X0351731Y0051144D01*
X0352473Y0050777D02*
X0353574Y0050777D01*
X0353941Y0050410D01*
X0353941Y0049309D01*
X0352473Y0049309D02*
X0352473Y0050777D01*
X0350264Y0051144D02*
X0350264Y0049676D01*
X0350631Y0041511D02*
X0350264Y0041144D01*
X0350631Y0041511D02*
X0351364Y0041511D01*
X0351731Y0041144D01*
X0351731Y0040777D01*
X0351364Y0040410D01*
X0351731Y0040043D01*
X0351731Y0039676D01*
X0351364Y0039309D01*
X0350631Y0039309D01*
X0350264Y0039676D01*
X0349522Y0039676D02*
X0349155Y0039309D01*
X0348421Y0039309D01*
X0348054Y0039676D01*
X0348054Y0041144D01*
X0348421Y0041511D01*
X0349155Y0041511D01*
X0349522Y0041144D01*
X0350998Y0040410D02*
X0351364Y0040410D01*
X0352473Y0041144D02*
X0352840Y0041511D01*
X0353574Y0041511D01*
X0353941Y0041144D01*
X0352473Y0039676D01*
X0352840Y0039309D01*
X0353574Y0039309D01*
X0353941Y0039676D01*
X0353941Y0041144D01*
X0352473Y0041144D02*
X0352473Y0039676D01*
X0344483Y0039729D02*
X0344483Y0038995D01*
X0344116Y0038629D01*
X0342648Y0040096D01*
X0344116Y0040096D01*
X0344483Y0039729D01*
X0344483Y0040838D02*
X0342281Y0040838D01*
X0342281Y0041939D01*
X0342648Y0042306D01*
X0343382Y0042306D01*
X0343749Y0041939D01*
X0343749Y0040838D01*
X0343749Y0041572D02*
X0344483Y0042306D01*
X0342648Y0040096D02*
X0342281Y0039729D01*
X0342281Y0038995D01*
X0342648Y0038629D01*
X0344116Y0038629D01*
X0342648Y0037887D02*
X0344116Y0036419D01*
X0344483Y0036419D01*
X0344483Y0035310D02*
X0342281Y0035310D01*
X0343382Y0034209D01*
X0343382Y0035677D01*
X0342281Y0036419D02*
X0342281Y0037887D01*
X0342648Y0037887D01*
X0341983Y0037887D02*
X0341983Y0036419D01*
X0340515Y0037887D01*
X0340148Y0037887D01*
X0339781Y0037520D01*
X0339781Y0036786D01*
X0340148Y0036419D01*
X0340148Y0035677D02*
X0340882Y0035677D01*
X0341249Y0035310D01*
X0341249Y0034209D01*
X0341249Y0034943D02*
X0341983Y0035677D01*
X0341983Y0034209D02*
X0339781Y0034209D01*
X0339781Y0035310D01*
X0340148Y0035677D01*
X0340515Y0038629D02*
X0339781Y0039362D01*
X0341983Y0039362D01*
X0341983Y0038629D02*
X0341983Y0040096D01*
X0291983Y0039729D02*
X0291983Y0038995D01*
X0291616Y0038629D01*
X0290148Y0040096D01*
X0291616Y0040096D01*
X0291983Y0039729D01*
X0291983Y0040838D02*
X0289781Y0040838D01*
X0289781Y0041939D01*
X0290148Y0042306D01*
X0290882Y0042306D01*
X0291249Y0041939D01*
X0291249Y0040838D01*
X0291249Y0041572D02*
X0291983Y0042306D01*
X0290148Y0040096D02*
X0289781Y0039729D01*
X0289781Y0038995D01*
X0290148Y0038629D01*
X0291616Y0038629D01*
X0290148Y0037887D02*
X0291616Y0036419D01*
X0291983Y0036419D01*
X0291983Y0035310D02*
X0289781Y0035310D01*
X0290882Y0034209D01*
X0290882Y0035677D01*
X0289781Y0036419D02*
X0289781Y0037887D01*
X0290148Y0037887D01*
X0289483Y0037887D02*
X0289483Y0036419D01*
X0288015Y0037887D01*
X0287648Y0037887D01*
X0287281Y0037520D01*
X0287281Y0036786D01*
X0287648Y0036419D01*
X0287648Y0035677D02*
X0288382Y0035677D01*
X0288749Y0035310D01*
X0288749Y0034209D01*
X0288749Y0034943D02*
X0289483Y0035677D01*
X0289483Y0034209D02*
X0287281Y0034209D01*
X0287281Y0035310D01*
X0287648Y0035677D01*
X0287648Y0038629D02*
X0287281Y0038995D01*
X0287281Y0039729D01*
X0287648Y0040096D01*
X0288015Y0040096D01*
X0289483Y0038629D01*
X0289483Y0040096D01*
X0276983Y0049209D02*
X0276983Y0050677D01*
X0276983Y0049943D02*
X0274781Y0049943D01*
X0275515Y0049209D01*
X0274483Y0049576D02*
X0274483Y0050310D01*
X0274116Y0050677D01*
X0274116Y0051419D02*
X0274483Y0051786D01*
X0274483Y0052520D01*
X0274116Y0052887D01*
X0273749Y0052887D01*
X0273382Y0052520D01*
X0273382Y0051419D01*
X0274116Y0051419D01*
X0273382Y0051419D02*
X0272648Y0052153D01*
X0272281Y0052887D01*
X0272648Y0050677D02*
X0272281Y0050310D01*
X0272281Y0049576D01*
X0272648Y0049209D01*
X0274116Y0049209D01*
X0274483Y0049576D01*
X0275148Y0051419D02*
X0274781Y0051786D01*
X0274781Y0052520D01*
X0275148Y0052887D01*
X0276616Y0051419D01*
X0276983Y0051786D01*
X0276983Y0052520D01*
X0276616Y0052887D01*
X0275148Y0052887D01*
X0275148Y0053629D02*
X0274781Y0053995D01*
X0274781Y0054729D01*
X0275148Y0055096D01*
X0276616Y0053629D01*
X0276983Y0053995D01*
X0276983Y0054729D01*
X0276616Y0055096D01*
X0275148Y0055096D01*
X0275515Y0055838D02*
X0275515Y0056939D01*
X0275882Y0057306D01*
X0276983Y0057306D01*
X0276983Y0055838D02*
X0275515Y0055838D01*
X0275148Y0053629D02*
X0276616Y0053629D01*
X0276616Y0051419D02*
X0275148Y0051419D01*
X0246983Y0042306D02*
X0246249Y0041572D01*
X0246249Y0041939D02*
X0246249Y0040838D01*
X0246983Y0040838D02*
X0244781Y0040838D01*
X0244781Y0041939D01*
X0245148Y0042306D01*
X0245882Y0042306D01*
X0246249Y0041939D01*
X0246616Y0040096D02*
X0245148Y0040096D01*
X0246616Y0038629D01*
X0246983Y0038995D01*
X0246983Y0039729D01*
X0246616Y0040096D01*
X0246616Y0038629D02*
X0245148Y0038629D01*
X0244781Y0038995D01*
X0244781Y0039729D01*
X0245148Y0040096D01*
X0244483Y0039729D02*
X0244483Y0038995D01*
X0244116Y0038629D01*
X0244483Y0037887D02*
X0244483Y0036419D01*
X0243015Y0037887D01*
X0242648Y0037887D01*
X0242281Y0037520D01*
X0242281Y0036786D01*
X0242648Y0036419D01*
X0242648Y0035677D02*
X0243382Y0035677D01*
X0243749Y0035310D01*
X0243749Y0034209D01*
X0243749Y0034943D02*
X0244483Y0035677D01*
X0244781Y0035310D02*
X0245882Y0034209D01*
X0245882Y0035677D01*
X0246616Y0036419D02*
X0246983Y0036419D01*
X0246616Y0036419D02*
X0245148Y0037887D01*
X0244781Y0037887D01*
X0244781Y0036419D01*
X0244781Y0035310D02*
X0246983Y0035310D01*
X0244483Y0034209D02*
X0242281Y0034209D01*
X0242281Y0035310D01*
X0242648Y0035677D01*
X0242648Y0038629D02*
X0242281Y0038995D01*
X0242281Y0039729D01*
X0242648Y0040096D01*
X0243015Y0040096D01*
X0243382Y0039729D01*
X0243749Y0040096D01*
X0244116Y0040096D01*
X0244483Y0039729D01*
X0243382Y0039729D02*
X0243382Y0039362D01*
X0243231Y0052309D02*
X0241764Y0052309D01*
X0243231Y0053777D01*
X0243231Y0054144D01*
X0242864Y0054511D01*
X0242130Y0054511D01*
X0241764Y0054144D01*
X0241022Y0054144D02*
X0241022Y0053777D01*
X0240655Y0053410D01*
X0241022Y0053043D01*
X0241022Y0052676D01*
X0240655Y0052309D01*
X0239921Y0052309D01*
X0239554Y0052676D01*
X0238812Y0052676D02*
X0238445Y0052309D01*
X0237711Y0052309D01*
X0237344Y0052676D01*
X0237344Y0053410D02*
X0238078Y0053777D01*
X0238445Y0053777D01*
X0238812Y0053410D01*
X0238812Y0052676D01*
X0237344Y0053410D02*
X0237344Y0054511D01*
X0238812Y0054511D01*
X0239554Y0054144D02*
X0239921Y0054511D01*
X0240655Y0054511D01*
X0241022Y0054144D01*
X0240655Y0053410D02*
X0240288Y0053410D01*
X0236602Y0053410D02*
X0236602Y0052676D01*
X0236235Y0052309D01*
X0235501Y0052309D01*
X0235134Y0052676D01*
X0235134Y0053410D02*
X0235868Y0053777D01*
X0236235Y0053777D01*
X0236602Y0053410D01*
X0236602Y0054511D02*
X0235134Y0054511D01*
X0235134Y0053410D01*
X0234392Y0054511D02*
X0232924Y0054511D01*
X0232924Y0052309D01*
X0234392Y0052309D01*
X0233658Y0053410D02*
X0232924Y0053410D01*
X0232182Y0052309D02*
X0232182Y0054511D01*
X0230714Y0054511D02*
X0232182Y0052309D01*
X0230714Y0052309D02*
X0230714Y0054511D01*
X0239790Y0058809D02*
X0240524Y0058809D01*
X0240157Y0058809D02*
X0240157Y0061011D01*
X0239790Y0061011D02*
X0240524Y0061011D01*
X0241264Y0060644D02*
X0241264Y0059176D01*
X0241631Y0058809D01*
X0242364Y0058809D01*
X0242731Y0059176D01*
X0243473Y0059176D02*
X0243840Y0058809D01*
X0244574Y0058809D01*
X0244941Y0059176D01*
X0244941Y0059543D01*
X0244574Y0059910D01*
X0244207Y0059910D01*
X0244574Y0059910D02*
X0244941Y0060277D01*
X0244941Y0060644D01*
X0244574Y0061011D01*
X0243840Y0061011D01*
X0243473Y0060644D01*
X0242731Y0060644D02*
X0242364Y0061011D01*
X0241631Y0061011D01*
X0241264Y0060644D01*
X0243973Y0054511D02*
X0245074Y0054511D01*
X0245441Y0054144D01*
X0245441Y0052676D01*
X0245074Y0052309D01*
X0243973Y0052309D01*
X0243973Y0054511D01*
X0243941Y0076809D02*
X0242473Y0076809D01*
X0243207Y0076809D02*
X0243207Y0079011D01*
X0242473Y0078277D01*
X0242842Y0079309D02*
X0242842Y0081511D01*
X0242100Y0081144D02*
X0241733Y0081511D01*
X0240999Y0081511D01*
X0240632Y0081144D01*
X0239890Y0081144D02*
X0239890Y0080777D01*
X0239523Y0080410D01*
X0238789Y0080410D01*
X0238422Y0080777D01*
X0238422Y0081144D01*
X0238789Y0081511D01*
X0239523Y0081511D01*
X0239890Y0081144D01*
X0239523Y0080410D02*
X0239890Y0080043D01*
X0239890Y0079676D01*
X0239523Y0079309D01*
X0238789Y0079309D01*
X0238422Y0079676D01*
X0238422Y0080043D01*
X0238789Y0080410D01*
X0239155Y0079011D02*
X0239522Y0078644D01*
X0239522Y0077910D01*
X0239155Y0077543D01*
X0238054Y0077543D01*
X0238788Y0077543D02*
X0239522Y0076809D01*
X0240264Y0076809D02*
X0241731Y0076809D01*
X0240998Y0076809D02*
X0240998Y0079011D01*
X0240264Y0078277D01*
X0240632Y0079309D02*
X0242100Y0080777D01*
X0242100Y0081144D01*
X0242842Y0080043D02*
X0243943Y0080777D01*
X0242842Y0080043D02*
X0243943Y0079309D01*
X0242100Y0079309D02*
X0240632Y0079309D01*
X0239155Y0079011D02*
X0238054Y0079011D01*
X0238054Y0076809D01*
X0238421Y0084309D02*
X0239155Y0084309D01*
X0239522Y0084676D01*
X0240264Y0084309D02*
X0241731Y0085777D01*
X0241731Y0086144D01*
X0241364Y0086511D01*
X0240631Y0086511D01*
X0240264Y0086144D01*
X0240264Y0086809D02*
X0241731Y0088277D01*
X0241731Y0088644D01*
X0241364Y0089011D01*
X0240631Y0089011D01*
X0240264Y0088644D01*
X0239526Y0087176D02*
X0239526Y0086809D01*
X0239159Y0086809D01*
X0239159Y0087176D01*
X0239526Y0087176D01*
X0239155Y0086511D02*
X0238421Y0086511D01*
X0238054Y0086144D01*
X0238054Y0084676D01*
X0238421Y0084309D01*
X0240264Y0084309D02*
X0241731Y0084309D01*
X0242473Y0085410D02*
X0243941Y0085410D01*
X0243574Y0086511D02*
X0242473Y0085410D01*
X0242473Y0086809D02*
X0242473Y0088277D01*
X0243574Y0088277D01*
X0243941Y0087910D01*
X0243941Y0086809D01*
X0243574Y0086511D02*
X0243574Y0084309D01*
X0241731Y0086809D02*
X0240264Y0086809D01*
X0239522Y0086144D02*
X0239155Y0086511D01*
X0238417Y0086809D02*
X0236949Y0086809D01*
X0238417Y0088277D01*
X0238417Y0088644D01*
X0238050Y0089011D01*
X0237316Y0089011D01*
X0236949Y0088644D01*
X0238054Y0091809D02*
X0238054Y0094011D01*
X0239155Y0094011D01*
X0239522Y0093644D01*
X0239522Y0092910D01*
X0239155Y0092543D01*
X0238054Y0092543D01*
X0238788Y0092543D02*
X0239522Y0091809D01*
X0240264Y0091809D02*
X0241731Y0091809D01*
X0240998Y0091809D02*
X0240998Y0094011D01*
X0240264Y0093277D01*
X0239894Y0094309D02*
X0239527Y0094309D01*
X0239527Y0094676D01*
X0239894Y0094676D01*
X0239894Y0094309D01*
X0240632Y0094676D02*
X0240632Y0095043D01*
X0240999Y0095410D01*
X0241733Y0095410D01*
X0242100Y0095043D01*
X0242100Y0094676D01*
X0241733Y0094309D01*
X0240999Y0094309D01*
X0240632Y0094676D01*
X0240999Y0095410D02*
X0240632Y0095777D01*
X0240632Y0096144D01*
X0240999Y0096511D01*
X0241733Y0096511D01*
X0242100Y0096144D01*
X0242100Y0095777D01*
X0241733Y0095410D01*
X0242842Y0095043D02*
X0243943Y0095777D01*
X0242842Y0096511D02*
X0242842Y0094309D01*
X0242840Y0094011D02*
X0243574Y0094011D01*
X0243941Y0093644D01*
X0242473Y0092176D01*
X0242840Y0091809D01*
X0243574Y0091809D01*
X0243941Y0092176D01*
X0243941Y0093644D01*
X0243943Y0094309D02*
X0242842Y0095043D01*
X0242840Y0094011D02*
X0242473Y0093644D01*
X0242473Y0092176D01*
X0238785Y0094309D02*
X0237317Y0094309D01*
X0238051Y0094309D02*
X0238051Y0096511D01*
X0237317Y0095777D01*
X0238421Y0099309D02*
X0239155Y0099309D01*
X0239522Y0099676D01*
X0240264Y0099309D02*
X0241731Y0099309D01*
X0240998Y0099309D02*
X0240998Y0101511D01*
X0240264Y0100777D01*
X0239522Y0101144D02*
X0239155Y0101511D01*
X0238421Y0101511D01*
X0238054Y0101144D01*
X0238054Y0099676D01*
X0238421Y0099309D01*
X0238421Y0101809D02*
X0238054Y0102176D01*
X0238421Y0101809D02*
X0239155Y0101809D01*
X0239522Y0102176D01*
X0239522Y0102543D01*
X0239155Y0102910D01*
X0238788Y0102910D01*
X0239155Y0102910D02*
X0239522Y0103277D01*
X0239522Y0103644D01*
X0239155Y0104011D01*
X0238421Y0104011D01*
X0238054Y0103644D01*
X0240264Y0103644D02*
X0240631Y0104011D01*
X0241364Y0104011D01*
X0241731Y0103644D01*
X0241731Y0103277D01*
X0241364Y0102910D01*
X0241731Y0102543D01*
X0241731Y0102176D01*
X0241364Y0101809D01*
X0240631Y0101809D01*
X0240264Y0102176D01*
X0240998Y0102910D02*
X0241364Y0102910D01*
X0242473Y0103277D02*
X0243574Y0103277D01*
X0243941Y0102910D01*
X0243941Y0101809D01*
X0243941Y0101511D02*
X0243207Y0101144D01*
X0242473Y0100410D01*
X0243574Y0100410D01*
X0243941Y0100043D01*
X0243941Y0099676D01*
X0243574Y0099309D01*
X0242840Y0099309D01*
X0242473Y0099676D01*
X0242473Y0100410D01*
X0242473Y0101809D02*
X0242473Y0103277D01*
X0242840Y0106809D02*
X0242473Y0107176D01*
X0242840Y0106809D02*
X0243574Y0106809D01*
X0243941Y0107176D01*
X0243941Y0107910D01*
X0243574Y0108277D01*
X0243207Y0108277D01*
X0242473Y0107910D01*
X0242473Y0109011D01*
X0243941Y0109011D01*
X0243941Y0109309D02*
X0243941Y0110410D01*
X0243574Y0110777D01*
X0242473Y0110777D01*
X0242473Y0109309D01*
X0240998Y0109011D02*
X0240998Y0106809D01*
X0241731Y0106809D02*
X0240264Y0106809D01*
X0239522Y0107176D02*
X0239155Y0106809D01*
X0238421Y0106809D01*
X0238054Y0107176D01*
X0238054Y0108644D01*
X0238421Y0109011D01*
X0239155Y0109011D01*
X0239522Y0108644D01*
X0239155Y0109309D02*
X0239155Y0111511D01*
X0238054Y0110410D01*
X0239522Y0110410D01*
X0240264Y0109676D02*
X0240264Y0109309D01*
X0240264Y0109676D02*
X0241731Y0111144D01*
X0241731Y0111511D01*
X0240264Y0111511D01*
X0240998Y0109011D02*
X0240264Y0108277D01*
X0223941Y0114160D02*
X0223574Y0113793D01*
X0222473Y0113793D01*
X0222473Y0113059D02*
X0222473Y0115261D01*
X0223574Y0115261D01*
X0223941Y0114894D01*
X0223941Y0114160D01*
X0221731Y0113059D02*
X0221731Y0115261D01*
X0220264Y0115261D02*
X0221731Y0113059D01*
X0220264Y0113059D02*
X0220264Y0115261D01*
X0220574Y0104761D02*
X0219840Y0104761D01*
X0219473Y0104394D01*
X0218731Y0104394D02*
X0218731Y0104027D01*
X0218364Y0103660D01*
X0218731Y0103293D01*
X0218731Y0102926D01*
X0218364Y0102559D01*
X0217631Y0102559D01*
X0217264Y0102926D01*
X0216522Y0102926D02*
X0216155Y0102559D01*
X0215421Y0102559D01*
X0215054Y0102926D01*
X0215054Y0104394D01*
X0215421Y0104761D01*
X0216155Y0104761D01*
X0216522Y0104394D01*
X0217264Y0104394D02*
X0217631Y0104761D01*
X0218364Y0104761D01*
X0218731Y0104394D01*
X0218364Y0103660D02*
X0217998Y0103660D01*
X0219473Y0102559D02*
X0220941Y0104027D01*
X0220941Y0104394D01*
X0220574Y0104761D01*
X0220941Y0102559D02*
X0219473Y0102559D01*
X0198941Y0102910D02*
X0198941Y0101809D01*
X0198207Y0101511D02*
X0198207Y0099309D01*
X0197473Y0099309D02*
X0198941Y0099309D01*
X0197473Y0100777D02*
X0198207Y0101511D01*
X0197473Y0101809D02*
X0197473Y0103277D01*
X0198574Y0103277D01*
X0198941Y0102910D01*
X0196731Y0103644D02*
X0195264Y0102176D01*
X0195631Y0101809D01*
X0196364Y0101809D01*
X0196731Y0102176D01*
X0196731Y0103644D01*
X0196364Y0104011D01*
X0195631Y0104011D01*
X0195264Y0103644D01*
X0195264Y0102176D01*
X0194522Y0102176D02*
X0194155Y0101809D01*
X0193421Y0101809D01*
X0193054Y0102176D01*
X0194522Y0103644D01*
X0194522Y0102176D01*
X0194155Y0101511D02*
X0193421Y0101511D01*
X0193054Y0101144D01*
X0193054Y0099676D01*
X0193421Y0099309D01*
X0194155Y0099309D01*
X0194522Y0099676D01*
X0195264Y0099309D02*
X0196731Y0099309D01*
X0195998Y0099309D02*
X0195998Y0101511D01*
X0195264Y0100777D01*
X0194522Y0101144D02*
X0194155Y0101511D01*
X0193054Y0102176D02*
X0193054Y0103644D01*
X0193421Y0104011D01*
X0194155Y0104011D01*
X0194522Y0103644D01*
X0192312Y0101809D02*
X0190844Y0101809D01*
X0191578Y0101809D02*
X0191578Y0104011D01*
X0190844Y0103277D01*
X0193421Y0106809D02*
X0194155Y0106809D01*
X0194522Y0107176D01*
X0195264Y0106809D02*
X0196731Y0106809D01*
X0195998Y0106809D02*
X0195998Y0109011D01*
X0195264Y0108277D01*
X0194522Y0108644D02*
X0194155Y0109011D01*
X0193421Y0109011D01*
X0193054Y0108644D01*
X0193054Y0107176D01*
X0193421Y0106809D01*
X0193421Y0109309D02*
X0193054Y0109676D01*
X0194522Y0111144D01*
X0194522Y0109676D01*
X0194155Y0109309D01*
X0193421Y0109309D01*
X0193054Y0109676D02*
X0193054Y0111144D01*
X0193421Y0111511D01*
X0194155Y0111511D01*
X0194522Y0111144D01*
X0195264Y0111144D02*
X0195264Y0109676D01*
X0196731Y0111144D01*
X0196731Y0109676D01*
X0196364Y0109309D01*
X0195631Y0109309D01*
X0195264Y0109676D01*
X0195264Y0111144D02*
X0195631Y0111511D01*
X0196364Y0111511D01*
X0196731Y0111144D01*
X0197473Y0110777D02*
X0198574Y0110777D01*
X0198941Y0110410D01*
X0198941Y0109309D01*
X0198574Y0109011D02*
X0197473Y0107910D01*
X0198941Y0107910D01*
X0198574Y0106809D02*
X0198574Y0109011D01*
X0197473Y0109309D02*
X0197473Y0110777D01*
X0192312Y0109309D02*
X0190844Y0109309D01*
X0191578Y0109309D02*
X0191578Y0111511D01*
X0190844Y0110777D01*
X0171441Y0106809D02*
X0169973Y0106809D01*
X0170707Y0106809D02*
X0170707Y0109011D01*
X0169973Y0108277D01*
X0169231Y0108277D02*
X0168864Y0107910D01*
X0169231Y0107543D01*
X0169231Y0107176D01*
X0168864Y0106809D01*
X0168131Y0106809D01*
X0167764Y0107176D01*
X0167022Y0107176D02*
X0166655Y0106809D01*
X0165921Y0106809D01*
X0165554Y0107176D01*
X0165554Y0108644D01*
X0165921Y0109011D01*
X0166655Y0109011D01*
X0167022Y0108644D01*
X0167764Y0108644D02*
X0168131Y0109011D01*
X0168864Y0109011D01*
X0169231Y0108644D01*
X0169231Y0108277D01*
X0168864Y0107910D02*
X0168498Y0107910D01*
X0168723Y0116809D02*
X0168723Y0119011D01*
X0169824Y0119011D01*
X0170191Y0118644D01*
X0170191Y0117910D01*
X0169824Y0117543D01*
X0168723Y0117543D01*
X0167981Y0116809D02*
X0167981Y0119011D01*
X0166514Y0119011D02*
X0167981Y0116809D01*
X0166514Y0116809D02*
X0166514Y0119011D01*
X0141444Y0111511D02*
X0141077Y0111144D01*
X0141077Y0109309D01*
X0141074Y0109011D02*
X0141441Y0108644D01*
X0139973Y0107176D01*
X0140340Y0106809D01*
X0141074Y0106809D01*
X0141441Y0107176D01*
X0141441Y0108644D01*
X0141074Y0109011D02*
X0140340Y0109011D01*
X0139973Y0108644D01*
X0139973Y0107176D01*
X0139231Y0106809D02*
X0137764Y0106809D01*
X0138498Y0106809D02*
X0138498Y0109011D01*
X0137764Y0108277D01*
X0137022Y0108644D02*
X0136655Y0109011D01*
X0135921Y0109011D01*
X0135554Y0108644D01*
X0135554Y0107176D01*
X0135921Y0106809D01*
X0136655Y0106809D01*
X0137022Y0107176D01*
X0136657Y0109309D02*
X0136290Y0109676D01*
X0136657Y0109309D02*
X0137391Y0109309D01*
X0137758Y0109676D01*
X0137758Y0110043D01*
X0137391Y0110410D01*
X0137024Y0110410D01*
X0137391Y0110410D02*
X0137758Y0110777D01*
X0137758Y0111144D01*
X0137391Y0111511D01*
X0136657Y0111511D01*
X0136290Y0111144D01*
X0135548Y0111144D02*
X0135548Y0110777D01*
X0135181Y0110410D01*
X0135548Y0110043D01*
X0135548Y0109676D01*
X0135181Y0109309D01*
X0134447Y0109309D01*
X0134080Y0109676D01*
X0134814Y0110410D02*
X0135181Y0110410D01*
X0135548Y0111144D02*
X0135181Y0111511D01*
X0134447Y0111511D01*
X0134080Y0111144D01*
X0138500Y0110777D02*
X0139601Y0110777D01*
X0139968Y0110410D01*
X0139968Y0109309D01*
X0140710Y0110410D02*
X0141444Y0110410D01*
X0138500Y0110777D02*
X0138500Y0109309D01*
X0137391Y0104011D02*
X0137758Y0103644D01*
X0136290Y0102176D01*
X0136657Y0101809D01*
X0137391Y0101809D01*
X0137758Y0102176D01*
X0137758Y0103644D01*
X0137391Y0104011D02*
X0136657Y0104011D01*
X0136290Y0103644D01*
X0136290Y0102176D01*
X0135548Y0103644D02*
X0134080Y0102176D01*
X0134080Y0101809D01*
X0132971Y0101809D02*
X0132971Y0104011D01*
X0131871Y0102910D01*
X0133338Y0102910D01*
X0134080Y0104011D02*
X0135548Y0104011D01*
X0135548Y0103644D01*
X0138500Y0103277D02*
X0139601Y0103277D01*
X0139968Y0102910D01*
X0139968Y0101809D01*
X0140340Y0101511D02*
X0139973Y0101144D01*
X0139973Y0100777D01*
X0140340Y0100410D01*
X0141074Y0100410D01*
X0141441Y0100043D01*
X0141441Y0099676D01*
X0141074Y0099309D01*
X0140340Y0099309D01*
X0139973Y0099676D01*
X0139973Y0100043D01*
X0140340Y0100410D01*
X0141074Y0100410D02*
X0141441Y0100777D01*
X0141441Y0101144D01*
X0141074Y0101511D01*
X0140340Y0101511D01*
X0141077Y0101809D02*
X0141077Y0103644D01*
X0141444Y0104011D01*
X0141444Y0102910D02*
X0140710Y0102910D01*
X0138500Y0103277D02*
X0138500Y0101809D01*
X0138864Y0101511D02*
X0138131Y0101511D01*
X0137764Y0101144D01*
X0137764Y0099676D01*
X0138131Y0099309D01*
X0138864Y0099309D01*
X0139231Y0099676D01*
X0139231Y0101144D02*
X0138864Y0101511D01*
X0138499Y0096511D02*
X0139233Y0096511D01*
X0139600Y0096144D01*
X0139600Y0095777D01*
X0139233Y0095410D01*
X0138499Y0095410D01*
X0138132Y0095777D01*
X0138132Y0096144D01*
X0138499Y0096511D01*
X0138499Y0095410D02*
X0138132Y0095043D01*
X0138132Y0094676D01*
X0138499Y0094309D01*
X0139233Y0094309D01*
X0139600Y0094676D01*
X0139600Y0095043D01*
X0139233Y0095410D01*
X0140342Y0095043D02*
X0141443Y0094309D01*
X0141441Y0094011D02*
X0140707Y0093644D01*
X0139973Y0092910D01*
X0141074Y0092910D01*
X0141441Y0092543D01*
X0141441Y0092176D01*
X0141074Y0091809D01*
X0140340Y0091809D01*
X0139973Y0092176D01*
X0139973Y0092910D01*
X0139231Y0092910D02*
X0138864Y0092543D01*
X0137764Y0092543D01*
X0138498Y0092543D02*
X0139231Y0091809D01*
X0139231Y0092910D02*
X0139231Y0093644D01*
X0138864Y0094011D01*
X0137764Y0094011D01*
X0137764Y0091809D01*
X0137394Y0094309D02*
X0137027Y0094309D01*
X0137027Y0094676D01*
X0137394Y0094676D01*
X0137394Y0094309D01*
X0136285Y0094309D02*
X0134817Y0094309D01*
X0135551Y0094309D02*
X0135551Y0096511D01*
X0134817Y0095777D01*
X0140342Y0096511D02*
X0140342Y0094309D01*
X0140342Y0095043D02*
X0141443Y0095777D01*
X0141444Y0089011D02*
X0141077Y0088644D01*
X0141077Y0086809D01*
X0141074Y0086511D02*
X0140340Y0086511D01*
X0139973Y0086144D01*
X0139968Y0086809D02*
X0139968Y0087910D01*
X0139601Y0088277D01*
X0138500Y0088277D01*
X0138500Y0086809D01*
X0138864Y0086511D02*
X0138131Y0086511D01*
X0137764Y0086144D01*
X0137022Y0086144D02*
X0136655Y0086511D01*
X0135921Y0086511D01*
X0135554Y0086144D01*
X0135554Y0084676D01*
X0135921Y0084309D01*
X0136655Y0084309D01*
X0137022Y0084676D01*
X0137764Y0084309D02*
X0139231Y0085777D01*
X0139231Y0086144D01*
X0138864Y0086511D01*
X0137758Y0087176D02*
X0137391Y0086809D01*
X0136657Y0086809D01*
X0136290Y0087176D01*
X0137758Y0088644D01*
X0137758Y0087176D01*
X0137758Y0088644D02*
X0137391Y0089011D01*
X0136657Y0089011D01*
X0136290Y0088644D01*
X0136290Y0087176D01*
X0135548Y0086809D02*
X0134080Y0086809D01*
X0134814Y0086809D02*
X0134814Y0089011D01*
X0134080Y0088277D01*
X0137764Y0084309D02*
X0139231Y0084309D01*
X0139973Y0084309D02*
X0141441Y0085777D01*
X0141441Y0086144D01*
X0141074Y0086511D01*
X0140710Y0087910D02*
X0141444Y0087910D01*
X0141441Y0084309D02*
X0139973Y0084309D01*
X0140342Y0081511D02*
X0140342Y0079309D01*
X0139973Y0079011D02*
X0141441Y0079011D01*
X0141441Y0078644D01*
X0139973Y0077176D01*
X0139973Y0076809D01*
X0139231Y0076809D02*
X0138498Y0077543D01*
X0138864Y0077543D02*
X0137764Y0077543D01*
X0137764Y0076809D02*
X0137764Y0079011D01*
X0138864Y0079011D01*
X0139231Y0078644D01*
X0139231Y0077910D01*
X0138864Y0077543D01*
X0138499Y0079309D02*
X0138132Y0079676D01*
X0139600Y0081144D01*
X0139600Y0079676D01*
X0139233Y0079309D01*
X0138499Y0079309D01*
X0138132Y0079676D02*
X0138132Y0081144D01*
X0138499Y0081511D01*
X0139233Y0081511D01*
X0139600Y0081144D01*
X0140342Y0080043D02*
X0141443Y0080777D01*
X0140342Y0080043D02*
X0141443Y0079309D01*
X0137390Y0079309D02*
X0135922Y0079309D01*
X0136656Y0079309D02*
X0136656Y0081511D01*
X0135922Y0080777D01*
X0135180Y0079309D02*
X0133712Y0079309D01*
X0134446Y0079309D02*
X0134446Y0081511D01*
X0133712Y0080777D01*
X0112691Y0071660D02*
X0112691Y0070559D01*
X0112691Y0071660D02*
X0112324Y0072027D01*
X0111223Y0072027D01*
X0111223Y0070559D01*
X0110481Y0070926D02*
X0110114Y0070559D01*
X0109381Y0070559D01*
X0109014Y0070926D01*
X0110481Y0072394D01*
X0110481Y0070926D01*
X0109014Y0070926D02*
X0109014Y0072394D01*
X0109381Y0072761D01*
X0110114Y0072761D01*
X0110481Y0072394D01*
X0108272Y0072394D02*
X0106804Y0070926D01*
X0107171Y0070559D01*
X0107905Y0070559D01*
X0108272Y0070926D01*
X0108272Y0072394D01*
X0107905Y0072761D01*
X0107171Y0072761D01*
X0106804Y0072394D01*
X0106804Y0070926D01*
X0106062Y0070559D02*
X0104594Y0070559D01*
X0105328Y0070559D02*
X0105328Y0072761D01*
X0104594Y0072027D01*
X0105264Y0076809D02*
X0105264Y0079011D01*
X0106364Y0079011D01*
X0106731Y0078644D01*
X0106731Y0077910D01*
X0106364Y0077543D01*
X0105264Y0077543D01*
X0105998Y0077543D02*
X0106731Y0076809D01*
X0107473Y0077176D02*
X0107840Y0076809D01*
X0108574Y0076809D01*
X0108941Y0077176D01*
X0108941Y0077910D01*
X0108574Y0078277D01*
X0108207Y0078277D01*
X0107473Y0077910D01*
X0107473Y0079011D01*
X0108941Y0079011D01*
X0108943Y0079309D02*
X0107842Y0080043D01*
X0108943Y0080777D01*
X0107842Y0081511D02*
X0107842Y0079309D01*
X0107100Y0079676D02*
X0106733Y0079309D01*
X0105999Y0079309D01*
X0105632Y0079676D01*
X0107100Y0081144D01*
X0107100Y0079676D01*
X0107100Y0081144D02*
X0106733Y0081511D01*
X0105999Y0081511D01*
X0105632Y0081144D01*
X0105632Y0079676D01*
X0104890Y0079676D02*
X0104523Y0079309D01*
X0103789Y0079309D01*
X0103422Y0079676D01*
X0102680Y0079309D02*
X0101212Y0079309D01*
X0101946Y0079309D02*
X0101946Y0081511D01*
X0101212Y0080777D01*
X0103422Y0081144D02*
X0103789Y0081511D01*
X0104523Y0081511D01*
X0104890Y0081144D01*
X0104890Y0080777D01*
X0104523Y0080410D01*
X0104890Y0080043D01*
X0104890Y0079676D01*
X0104523Y0080410D02*
X0104156Y0080410D01*
X0104155Y0084309D02*
X0104522Y0084676D01*
X0104155Y0084309D02*
X0103421Y0084309D01*
X0103054Y0084676D01*
X0103054Y0086144D01*
X0103421Y0086511D01*
X0104155Y0086511D01*
X0104522Y0086144D01*
X0105264Y0086144D02*
X0105631Y0086511D01*
X0106364Y0086511D01*
X0106731Y0086144D01*
X0106731Y0085777D01*
X0105264Y0084309D01*
X0106731Y0084309D01*
X0107473Y0084309D02*
X0108941Y0084309D01*
X0108207Y0084309D02*
X0108207Y0086511D01*
X0107473Y0085777D01*
X0107468Y0086809D02*
X0107468Y0087910D01*
X0107101Y0088277D01*
X0106000Y0088277D01*
X0106000Y0086809D01*
X0105258Y0086809D02*
X0103790Y0086809D01*
X0105258Y0088277D01*
X0105258Y0088644D01*
X0104891Y0089011D01*
X0104157Y0089011D01*
X0103790Y0088644D01*
X0103048Y0088644D02*
X0102681Y0089011D01*
X0101947Y0089011D01*
X0101580Y0088644D01*
X0103048Y0088644D02*
X0103048Y0088277D01*
X0101580Y0086809D01*
X0103048Y0086809D01*
X0108210Y0087910D02*
X0108944Y0087910D01*
X0108577Y0088644D02*
X0108944Y0089011D01*
X0108577Y0088644D02*
X0108577Y0086809D01*
X0086441Y0092910D02*
X0084973Y0092910D01*
X0086074Y0094011D01*
X0086074Y0091809D01*
X0084231Y0091809D02*
X0083498Y0092543D01*
X0083864Y0092543D02*
X0082764Y0092543D01*
X0082764Y0091809D02*
X0082764Y0094011D01*
X0083864Y0094011D01*
X0084231Y0093644D01*
X0084231Y0092910D01*
X0083864Y0092543D01*
X0083499Y0094309D02*
X0083132Y0094676D01*
X0083132Y0095043D01*
X0083499Y0095410D01*
X0084233Y0095410D01*
X0084600Y0095043D01*
X0084600Y0094676D01*
X0084233Y0094309D01*
X0083499Y0094309D01*
X0083499Y0095410D02*
X0083132Y0095777D01*
X0083132Y0096144D01*
X0083499Y0096511D01*
X0084233Y0096511D01*
X0084600Y0096144D01*
X0084600Y0095777D01*
X0084233Y0095410D01*
X0085342Y0095043D02*
X0086443Y0094309D01*
X0085342Y0094309D02*
X0085342Y0096511D01*
X0086443Y0095777D02*
X0085342Y0095043D01*
X0082394Y0094676D02*
X0082394Y0094309D01*
X0082027Y0094309D01*
X0082027Y0094676D01*
X0082394Y0094676D01*
X0081285Y0094309D02*
X0079817Y0094309D01*
X0080551Y0094309D02*
X0080551Y0096511D01*
X0079817Y0095777D01*
X0083131Y0099309D02*
X0083864Y0099309D01*
X0084231Y0099676D01*
X0084973Y0099676D02*
X0084973Y0099309D01*
X0084973Y0099676D02*
X0086441Y0101144D01*
X0086441Y0101511D01*
X0084973Y0101511D01*
X0084968Y0101809D02*
X0084968Y0102910D01*
X0084601Y0103277D01*
X0083500Y0103277D01*
X0083500Y0101809D01*
X0083864Y0101511D02*
X0083131Y0101511D01*
X0082764Y0101144D01*
X0082764Y0099676D01*
X0083131Y0099309D01*
X0084231Y0101144D02*
X0083864Y0101511D01*
X0082758Y0102176D02*
X0082391Y0101809D01*
X0081657Y0101809D01*
X0081290Y0102176D01*
X0082758Y0103644D01*
X0082758Y0102176D01*
X0082758Y0103644D02*
X0082391Y0104011D01*
X0081657Y0104011D01*
X0081290Y0103644D01*
X0081290Y0102176D01*
X0080548Y0102176D02*
X0080181Y0101809D01*
X0079447Y0101809D01*
X0079080Y0102176D01*
X0078338Y0102176D02*
X0077971Y0101809D01*
X0077238Y0101809D01*
X0076871Y0102176D01*
X0077604Y0102910D02*
X0077971Y0102910D01*
X0078338Y0102543D01*
X0078338Y0102176D01*
X0077971Y0102910D02*
X0078338Y0103277D01*
X0078338Y0103644D01*
X0077971Y0104011D01*
X0077238Y0104011D01*
X0076871Y0103644D01*
X0079080Y0103644D02*
X0079447Y0104011D01*
X0080181Y0104011D01*
X0080548Y0103644D01*
X0080548Y0103277D01*
X0080181Y0102910D01*
X0080548Y0102543D01*
X0080548Y0102176D01*
X0080181Y0102910D02*
X0079814Y0102910D01*
X0083131Y0106809D02*
X0083864Y0106809D01*
X0084231Y0107176D01*
X0084973Y0107176D02*
X0085340Y0106809D01*
X0086074Y0106809D01*
X0086441Y0107176D01*
X0086441Y0107543D01*
X0086074Y0107910D01*
X0085707Y0107910D01*
X0086074Y0107910D02*
X0086441Y0108277D01*
X0086441Y0108644D01*
X0086074Y0109011D01*
X0085340Y0109011D01*
X0084973Y0108644D01*
X0084231Y0108644D02*
X0083864Y0109011D01*
X0083131Y0109011D01*
X0082764Y0108644D01*
X0082764Y0107176D01*
X0083131Y0106809D01*
X0086077Y0103644D02*
X0086444Y0104011D01*
X0086077Y0103644D02*
X0086077Y0101809D01*
X0085710Y0102910D02*
X0086444Y0102910D01*
X0104371Y0104160D02*
X0105838Y0104160D01*
X0106580Y0103426D02*
X0108048Y0104894D01*
X0108048Y0105261D01*
X0106580Y0105261D01*
X0105471Y0105261D02*
X0104371Y0104160D01*
X0105471Y0103059D02*
X0105471Y0105261D01*
X0106580Y0103426D02*
X0106580Y0103059D01*
X0108790Y0103426D02*
X0110258Y0104894D01*
X0110258Y0103426D01*
X0109891Y0103059D01*
X0109157Y0103059D01*
X0108790Y0103426D01*
X0108790Y0104894D01*
X0109157Y0105261D01*
X0109891Y0105261D01*
X0110258Y0104894D01*
X0111000Y0104527D02*
X0112101Y0104527D01*
X0112468Y0104160D01*
X0112468Y0103059D01*
X0113577Y0103059D02*
X0113577Y0104894D01*
X0113944Y0105261D01*
X0113944Y0104160D02*
X0113210Y0104160D01*
X0111000Y0104527D02*
X0111000Y0103059D01*
X0111074Y0113059D02*
X0110340Y0113059D01*
X0109973Y0113426D01*
X0109973Y0114160D02*
X0110707Y0114527D01*
X0111074Y0114527D01*
X0111441Y0114160D01*
X0111441Y0113426D01*
X0111074Y0113059D01*
X0109973Y0114160D02*
X0109973Y0115261D01*
X0111441Y0115261D01*
X0109231Y0114894D02*
X0108864Y0115261D01*
X0108131Y0115261D01*
X0107764Y0114894D01*
X0107764Y0113426D01*
X0108131Y0113059D01*
X0108864Y0113059D01*
X0109231Y0113426D01*
X0098944Y0114160D02*
X0098210Y0114160D01*
X0097468Y0114160D02*
X0097468Y0113059D01*
X0097468Y0114160D02*
X0097101Y0114527D01*
X0096000Y0114527D01*
X0096000Y0113059D01*
X0095258Y0113426D02*
X0094891Y0113059D01*
X0094157Y0113059D01*
X0093790Y0113426D01*
X0095258Y0114894D01*
X0095258Y0113426D01*
X0095258Y0114894D02*
X0094891Y0115261D01*
X0094157Y0115261D01*
X0093790Y0114894D01*
X0093790Y0113426D01*
X0093048Y0114894D02*
X0091580Y0113426D01*
X0091580Y0113059D01*
X0090471Y0113059D02*
X0090471Y0115261D01*
X0089371Y0114160D01*
X0090838Y0114160D01*
X0091580Y0115261D02*
X0093048Y0115261D01*
X0093048Y0114894D01*
X0098577Y0114894D02*
X0098577Y0113059D01*
X0098577Y0114894D02*
X0098944Y0115261D01*
X0071443Y0088277D02*
X0070342Y0087543D01*
X0071443Y0086809D01*
X0071441Y0086511D02*
X0069973Y0086511D01*
X0069973Y0085410D01*
X0070707Y0085777D01*
X0071074Y0085777D01*
X0071441Y0085410D01*
X0071441Y0084676D01*
X0071074Y0084309D01*
X0070340Y0084309D01*
X0069973Y0084676D01*
X0069231Y0084309D02*
X0067764Y0084309D01*
X0069231Y0085777D01*
X0069231Y0086144D01*
X0068864Y0086511D01*
X0068131Y0086511D01*
X0067764Y0086144D01*
X0067022Y0086144D02*
X0067022Y0085410D01*
X0066655Y0085043D01*
X0065554Y0085043D01*
X0066288Y0085043D02*
X0067022Y0084309D01*
X0065554Y0084309D02*
X0065554Y0086511D01*
X0066655Y0086511D01*
X0067022Y0086144D01*
X0066656Y0086809D02*
X0066656Y0089011D01*
X0065922Y0088277D01*
X0065922Y0086809D02*
X0067390Y0086809D01*
X0068132Y0087176D02*
X0069600Y0088644D01*
X0069600Y0087176D01*
X0069233Y0086809D01*
X0068499Y0086809D01*
X0068132Y0087176D01*
X0068132Y0088644D01*
X0068499Y0089011D01*
X0069233Y0089011D01*
X0069600Y0088644D01*
X0070342Y0089011D02*
X0070342Y0086809D01*
X0070342Y0081511D02*
X0070342Y0079309D01*
X0070342Y0080043D02*
X0071443Y0080777D01*
X0070342Y0080043D02*
X0071443Y0079309D01*
X0071441Y0079011D02*
X0070707Y0078644D01*
X0069973Y0077910D01*
X0071074Y0077910D01*
X0071441Y0077543D01*
X0071441Y0077176D01*
X0071074Y0076809D01*
X0070340Y0076809D01*
X0069973Y0077176D01*
X0069973Y0077910D01*
X0069231Y0078277D02*
X0067764Y0076809D01*
X0069231Y0076809D01*
X0069231Y0078277D02*
X0069231Y0078644D01*
X0068864Y0079011D01*
X0068131Y0079011D01*
X0067764Y0078644D01*
X0067022Y0078644D02*
X0067022Y0077910D01*
X0066655Y0077543D01*
X0065554Y0077543D01*
X0066288Y0077543D02*
X0067022Y0076809D01*
X0065554Y0076809D02*
X0065554Y0079011D01*
X0066655Y0079011D01*
X0067022Y0078644D01*
X0066656Y0079309D02*
X0066656Y0081511D01*
X0065922Y0080777D01*
X0065922Y0079309D02*
X0067390Y0079309D01*
X0068132Y0079676D02*
X0069600Y0081144D01*
X0069600Y0079676D01*
X0069233Y0079309D01*
X0068499Y0079309D01*
X0068132Y0079676D01*
X0068132Y0081144D01*
X0068499Y0081511D01*
X0069233Y0081511D01*
X0069600Y0081144D01*
X0106514Y0062394D02*
X0106514Y0060926D01*
X0106881Y0060559D01*
X0107614Y0060559D01*
X0107981Y0060926D01*
X0108723Y0061660D02*
X0110191Y0061660D01*
X0109824Y0060559D02*
X0109824Y0062761D01*
X0108723Y0061660D01*
X0107981Y0062394D02*
X0107614Y0062761D01*
X0106881Y0062761D01*
X0106514Y0062394D01*
X0094941Y0058809D02*
X0093473Y0058809D01*
X0094207Y0058809D02*
X0094207Y0061011D01*
X0093473Y0060277D01*
X0092731Y0060644D02*
X0092364Y0061011D01*
X0091631Y0061011D01*
X0091264Y0060644D01*
X0091264Y0059176D01*
X0091631Y0058809D01*
X0092364Y0058809D01*
X0092731Y0059176D01*
X0090524Y0058809D02*
X0089790Y0058809D01*
X0090157Y0058809D02*
X0090157Y0061011D01*
X0089790Y0061011D02*
X0090524Y0061011D01*
X0090655Y0054511D02*
X0089921Y0054511D01*
X0089554Y0054144D01*
X0088812Y0054511D02*
X0087344Y0054511D01*
X0087344Y0053410D01*
X0088078Y0053777D01*
X0088445Y0053777D01*
X0088812Y0053410D01*
X0088812Y0052676D01*
X0088445Y0052309D01*
X0087711Y0052309D01*
X0087344Y0052676D01*
X0086602Y0052676D02*
X0086235Y0052309D01*
X0085501Y0052309D01*
X0085134Y0052676D01*
X0085134Y0053410D02*
X0085868Y0053777D01*
X0086235Y0053777D01*
X0086602Y0053410D01*
X0086602Y0052676D01*
X0085134Y0053410D02*
X0085134Y0054511D01*
X0086602Y0054511D01*
X0084392Y0054511D02*
X0082924Y0054511D01*
X0082924Y0052309D01*
X0084392Y0052309D01*
X0083658Y0053410D02*
X0082924Y0053410D01*
X0082182Y0052309D02*
X0082182Y0054511D01*
X0080714Y0054511D02*
X0082182Y0052309D01*
X0080714Y0052309D02*
X0080714Y0054511D01*
X0089554Y0052676D02*
X0089921Y0052309D01*
X0090655Y0052309D01*
X0091022Y0052676D01*
X0091022Y0053043D01*
X0090655Y0053410D01*
X0090288Y0053410D01*
X0090655Y0053410D02*
X0091022Y0053777D01*
X0091022Y0054144D01*
X0090655Y0054511D01*
X0091764Y0054144D02*
X0092130Y0054511D01*
X0092864Y0054511D01*
X0093231Y0054144D01*
X0093231Y0053777D01*
X0091764Y0052309D01*
X0093231Y0052309D01*
X0093973Y0052309D02*
X0095074Y0052309D01*
X0095441Y0052676D01*
X0095441Y0054144D01*
X0095074Y0054511D01*
X0093973Y0054511D01*
X0093973Y0052309D01*
X0104594Y0052027D02*
X0105328Y0052761D01*
X0105328Y0050559D01*
X0104594Y0050559D02*
X0106062Y0050559D01*
X0106804Y0050926D02*
X0108272Y0052394D01*
X0108272Y0050926D01*
X0107905Y0050559D01*
X0107171Y0050559D01*
X0106804Y0050926D01*
X0106804Y0052394D01*
X0107171Y0052761D01*
X0107905Y0052761D01*
X0108272Y0052394D01*
X0109014Y0052394D02*
X0109381Y0052761D01*
X0110114Y0052761D01*
X0110481Y0052394D01*
X0109014Y0050926D01*
X0109381Y0050559D01*
X0110114Y0050559D01*
X0110481Y0050926D01*
X0110481Y0052394D01*
X0111223Y0052027D02*
X0112324Y0052027D01*
X0112691Y0051660D01*
X0112691Y0050559D01*
X0111223Y0050559D02*
X0111223Y0052027D01*
X0109014Y0052394D02*
X0109014Y0050926D01*
X0108864Y0042761D02*
X0108131Y0042761D01*
X0107764Y0042394D01*
X0107022Y0042394D02*
X0106655Y0042761D01*
X0105921Y0042761D01*
X0105554Y0042394D01*
X0105554Y0040926D01*
X0105921Y0040559D01*
X0106655Y0040559D01*
X0107022Y0040926D01*
X0107764Y0040559D02*
X0109231Y0042027D01*
X0109231Y0042394D01*
X0108864Y0042761D01*
X0109973Y0042394D02*
X0109973Y0042027D01*
X0110340Y0041660D01*
X0111074Y0041660D01*
X0111441Y0041293D01*
X0111441Y0040926D01*
X0111074Y0040559D01*
X0110340Y0040559D01*
X0109973Y0040926D01*
X0109973Y0041293D01*
X0110340Y0041660D01*
X0111074Y0041660D02*
X0111441Y0042027D01*
X0111441Y0042394D01*
X0111074Y0042761D01*
X0110340Y0042761D01*
X0109973Y0042394D01*
X0109231Y0040559D02*
X0107764Y0040559D01*
X0093809Y0033177D02*
X0092708Y0032443D01*
X0093809Y0031709D01*
X0092708Y0031709D02*
X0092708Y0033911D01*
X0091966Y0033911D02*
X0091966Y0033544D01*
X0090498Y0032076D01*
X0090498Y0031709D01*
X0089760Y0031709D02*
X0089393Y0031709D01*
X0089393Y0032076D01*
X0089760Y0032076D01*
X0089760Y0031709D01*
X0088651Y0031709D02*
X0087183Y0031709D01*
X0088651Y0033177D01*
X0088651Y0033544D01*
X0088284Y0033911D01*
X0087550Y0033911D01*
X0087183Y0033544D01*
X0087183Y0034209D02*
X0087183Y0036411D01*
X0088284Y0036411D01*
X0088651Y0036044D01*
X0088651Y0035310D01*
X0088284Y0034943D01*
X0087183Y0034943D01*
X0087917Y0034943D02*
X0088651Y0034209D01*
X0089393Y0034209D02*
X0090861Y0035677D01*
X0090861Y0036044D01*
X0090494Y0036411D01*
X0089760Y0036411D01*
X0089393Y0036044D01*
X0089393Y0034209D02*
X0090861Y0034209D01*
X0090498Y0033911D02*
X0091966Y0033911D01*
X0090494Y0028911D02*
X0089760Y0028911D01*
X0089393Y0028544D01*
X0088651Y0028544D02*
X0088651Y0027810D01*
X0088284Y0027443D01*
X0087183Y0027443D01*
X0087183Y0026709D02*
X0087183Y0028911D01*
X0088284Y0028911D01*
X0088651Y0028544D01*
X0087917Y0027443D02*
X0088651Y0026709D01*
X0088284Y0026411D02*
X0087183Y0025310D01*
X0088651Y0025310D01*
X0089393Y0024576D02*
X0089393Y0024209D01*
X0089393Y0024576D02*
X0090861Y0026044D01*
X0090861Y0026411D01*
X0089393Y0026411D01*
X0089760Y0026709D02*
X0089393Y0027076D01*
X0089760Y0026709D02*
X0090494Y0026709D01*
X0090861Y0027076D01*
X0090861Y0027443D01*
X0090494Y0027810D01*
X0090127Y0027810D01*
X0090494Y0027810D02*
X0090861Y0028177D01*
X0090861Y0028544D01*
X0090494Y0028911D01*
X0091970Y0026411D02*
X0092704Y0026411D01*
X0093071Y0026044D01*
X0091603Y0024576D01*
X0091970Y0024209D01*
X0092704Y0024209D01*
X0093071Y0024576D01*
X0093071Y0026044D01*
X0093813Y0026411D02*
X0094914Y0026411D01*
X0095281Y0026044D01*
X0095281Y0025310D01*
X0094914Y0024943D01*
X0093813Y0024943D01*
X0094547Y0024943D02*
X0095281Y0024209D01*
X0093813Y0024209D02*
X0093813Y0026411D01*
X0091970Y0026411D02*
X0091603Y0026044D01*
X0091603Y0024576D01*
X0088284Y0024209D02*
X0088284Y0026411D01*
X0071883Y0041842D02*
X0070415Y0043310D01*
X0070048Y0043310D01*
X0069681Y0042943D01*
X0069681Y0042209D01*
X0070048Y0041842D01*
X0071883Y0041842D02*
X0071883Y0043310D01*
X0071883Y0044052D02*
X0071883Y0044419D01*
X0071516Y0044419D01*
X0071516Y0044052D01*
X0071883Y0044052D01*
X0072181Y0044789D02*
X0072181Y0045890D01*
X0072548Y0046257D01*
X0073282Y0046257D01*
X0073649Y0045890D01*
X0073649Y0044789D01*
X0073649Y0045523D02*
X0074383Y0046257D01*
X0074383Y0046999D02*
X0074383Y0048467D01*
X0074383Y0047733D02*
X0072181Y0047733D01*
X0072915Y0046999D01*
X0071883Y0047367D02*
X0069681Y0047367D01*
X0069681Y0046625D02*
X0070048Y0046625D01*
X0071516Y0045157D01*
X0071883Y0045157D01*
X0072181Y0044789D02*
X0074383Y0044789D01*
X0069681Y0045157D02*
X0069681Y0046625D01*
X0071149Y0047367D02*
X0070415Y0048468D01*
X0071149Y0047367D02*
X0071883Y0048468D01*
X0125714Y0052309D02*
X0125714Y0054511D01*
X0127182Y0052309D01*
X0127182Y0054511D01*
X0127924Y0054511D02*
X0127924Y0052309D01*
X0129392Y0052309D01*
X0130134Y0052676D02*
X0130501Y0052309D01*
X0131235Y0052309D01*
X0131602Y0052676D01*
X0131602Y0053410D01*
X0131235Y0053777D01*
X0130868Y0053777D01*
X0130134Y0053410D01*
X0130134Y0054511D01*
X0131602Y0054511D01*
X0132344Y0054511D02*
X0132344Y0053410D01*
X0133078Y0053777D01*
X0133445Y0053777D01*
X0133812Y0053410D01*
X0133812Y0052676D01*
X0133445Y0052309D01*
X0132711Y0052309D01*
X0132344Y0052676D01*
X0132344Y0054511D02*
X0133812Y0054511D01*
X0134554Y0054144D02*
X0134921Y0054511D01*
X0135655Y0054511D01*
X0136022Y0054144D01*
X0136022Y0053777D01*
X0135655Y0053410D01*
X0136022Y0053043D01*
X0136022Y0052676D01*
X0135655Y0052309D01*
X0134921Y0052309D01*
X0134554Y0052676D01*
X0135288Y0053410D02*
X0135655Y0053410D01*
X0136764Y0054144D02*
X0137130Y0054511D01*
X0137864Y0054511D01*
X0138231Y0054144D01*
X0138231Y0053777D01*
X0136764Y0052309D01*
X0138231Y0052309D01*
X0138973Y0052309D02*
X0140074Y0052309D01*
X0140441Y0052676D01*
X0140441Y0054144D01*
X0140074Y0054511D01*
X0138973Y0054511D01*
X0138973Y0052309D01*
X0138473Y0058809D02*
X0139941Y0060277D01*
X0139941Y0060644D01*
X0139574Y0061011D01*
X0138840Y0061011D01*
X0138473Y0060644D01*
X0137731Y0060644D02*
X0137364Y0061011D01*
X0136631Y0061011D01*
X0136264Y0060644D01*
X0136264Y0059176D01*
X0136631Y0058809D01*
X0137364Y0058809D01*
X0137731Y0059176D01*
X0138473Y0058809D02*
X0139941Y0058809D01*
X0135524Y0058809D02*
X0134790Y0058809D01*
X0135157Y0058809D02*
X0135157Y0061011D01*
X0134790Y0061011D02*
X0135524Y0061011D01*
X0129392Y0054511D02*
X0127924Y0054511D01*
X0127924Y0053410D02*
X0128658Y0053410D01*
X0172281Y0053403D02*
X0174483Y0053403D01*
X0174781Y0053770D02*
X0175148Y0054137D01*
X0176616Y0052669D01*
X0176983Y0053036D01*
X0176983Y0053770D01*
X0176616Y0054137D01*
X0175148Y0054137D01*
X0174781Y0053770D02*
X0174781Y0053036D01*
X0175148Y0052669D01*
X0176616Y0052669D01*
X0176983Y0051927D02*
X0176983Y0050459D01*
X0176983Y0051193D02*
X0174781Y0051193D01*
X0175515Y0050459D01*
X0174483Y0050826D02*
X0174483Y0051560D01*
X0174116Y0051927D01*
X0174483Y0052669D02*
X0174483Y0054137D01*
X0174483Y0054879D02*
X0173015Y0056346D01*
X0172648Y0056346D01*
X0172281Y0055979D01*
X0172281Y0055245D01*
X0172648Y0054879D01*
X0172281Y0053403D02*
X0173015Y0052669D01*
X0172648Y0051927D02*
X0172281Y0051560D01*
X0172281Y0050826D01*
X0172648Y0050459D01*
X0174116Y0050459D01*
X0174483Y0050826D01*
X0174483Y0054879D02*
X0174483Y0056346D01*
X0174781Y0055979D02*
X0175148Y0056346D01*
X0176616Y0054879D01*
X0176983Y0055245D01*
X0176983Y0055979D01*
X0176616Y0056346D01*
X0175148Y0056346D01*
X0174781Y0055979D02*
X0174781Y0055245D01*
X0175148Y0054879D01*
X0176616Y0054879D01*
X0176983Y0057088D02*
X0175515Y0057088D01*
X0175515Y0058189D01*
X0175882Y0058556D01*
X0176983Y0058556D01*
X0192648Y0042306D02*
X0193382Y0042306D01*
X0193749Y0041939D01*
X0193749Y0040838D01*
X0194483Y0040838D02*
X0192281Y0040838D01*
X0192281Y0041939D01*
X0192648Y0042306D01*
X0193749Y0041572D02*
X0194483Y0042306D01*
X0194116Y0040096D02*
X0194483Y0039729D01*
X0194483Y0038995D01*
X0194116Y0038629D01*
X0192648Y0040096D01*
X0194116Y0040096D01*
X0194116Y0038629D02*
X0192648Y0038629D01*
X0192281Y0038995D01*
X0192281Y0039729D01*
X0192648Y0040096D01*
X0191983Y0039729D02*
X0189781Y0039729D01*
X0190882Y0038629D01*
X0190882Y0040096D01*
X0190515Y0037887D02*
X0190148Y0037887D01*
X0189781Y0037520D01*
X0189781Y0036786D01*
X0190148Y0036419D01*
X0190148Y0035677D02*
X0190882Y0035677D01*
X0191249Y0035310D01*
X0191249Y0034209D01*
X0191249Y0034943D02*
X0191983Y0035677D01*
X0192281Y0035310D02*
X0193382Y0034209D01*
X0193382Y0035677D01*
X0194116Y0036419D02*
X0194483Y0036419D01*
X0194116Y0036419D02*
X0192648Y0037887D01*
X0192281Y0037887D01*
X0192281Y0036419D01*
X0191983Y0036419D02*
X0190515Y0037887D01*
X0191983Y0037887D02*
X0191983Y0036419D01*
X0192281Y0035310D02*
X0194483Y0035310D01*
X0191983Y0034209D02*
X0189781Y0034209D01*
X0189781Y0035310D01*
X0190148Y0035677D01*
X0195264Y0076809D02*
X0195264Y0079011D01*
X0196364Y0079011D01*
X0196731Y0078644D01*
X0196731Y0077910D01*
X0196364Y0077543D01*
X0195264Y0077543D01*
X0195998Y0077543D02*
X0196731Y0076809D01*
X0197473Y0077176D02*
X0197840Y0076809D01*
X0198574Y0076809D01*
X0198941Y0077176D01*
X0198941Y0078644D01*
X0198574Y0079011D01*
X0197840Y0079011D01*
X0197473Y0078644D01*
X0197473Y0078277D01*
X0197840Y0077910D01*
X0198941Y0077910D01*
X0198943Y0079309D02*
X0197842Y0080043D01*
X0198943Y0080777D01*
X0197842Y0081511D02*
X0197842Y0079309D01*
X0197100Y0079309D02*
X0195632Y0079309D01*
X0196366Y0079309D02*
X0196366Y0081511D01*
X0195632Y0080777D01*
X0194890Y0081144D02*
X0194890Y0079676D01*
X0194523Y0079309D01*
X0193789Y0079309D01*
X0193422Y0079676D01*
X0193789Y0080410D02*
X0194890Y0080410D01*
X0194890Y0081144D02*
X0194523Y0081511D01*
X0193789Y0081511D01*
X0193422Y0081144D01*
X0193422Y0080777D01*
X0193789Y0080410D01*
X0194155Y0084309D02*
X0194522Y0084676D01*
X0194155Y0084309D02*
X0193421Y0084309D01*
X0193054Y0084676D01*
X0193054Y0086144D01*
X0193421Y0086511D01*
X0194155Y0086511D01*
X0194522Y0086144D01*
X0194526Y0086809D02*
X0194159Y0086809D01*
X0194159Y0087176D01*
X0194526Y0087176D01*
X0194526Y0086809D01*
X0195264Y0086809D02*
X0195264Y0087176D01*
X0196731Y0088644D01*
X0196731Y0089011D01*
X0195264Y0089011D01*
X0193417Y0087910D02*
X0191949Y0087910D01*
X0193050Y0089011D01*
X0193050Y0086809D01*
X0195264Y0086144D02*
X0195631Y0086511D01*
X0196364Y0086511D01*
X0196731Y0086144D01*
X0196731Y0085777D01*
X0195264Y0084309D01*
X0196731Y0084309D01*
X0197473Y0084676D02*
X0197840Y0084309D01*
X0198574Y0084309D01*
X0198941Y0084676D01*
X0198941Y0085043D01*
X0198574Y0085410D01*
X0198207Y0085410D01*
X0198574Y0085410D02*
X0198941Y0085777D01*
X0198941Y0086144D01*
X0198574Y0086511D01*
X0197840Y0086511D01*
X0197473Y0086144D01*
X0197473Y0086809D02*
X0197473Y0088277D01*
X0198574Y0088277D01*
X0198941Y0087910D01*
X0198941Y0086809D01*
X0198574Y0091809D02*
X0197840Y0091809D01*
X0197473Y0092176D01*
X0197473Y0092543D01*
X0197840Y0092910D01*
X0198574Y0092910D01*
X0198941Y0092543D01*
X0198941Y0092176D01*
X0198574Y0091809D01*
X0198574Y0092910D02*
X0198941Y0093277D01*
X0198941Y0093644D01*
X0198574Y0094011D01*
X0197840Y0094011D01*
X0197473Y0093644D01*
X0197473Y0093277D01*
X0197840Y0092910D01*
X0196731Y0092910D02*
X0196364Y0092543D01*
X0195264Y0092543D01*
X0195998Y0092543D02*
X0196731Y0091809D01*
X0196731Y0092910D02*
X0196731Y0093644D01*
X0196364Y0094011D01*
X0195264Y0094011D01*
X0195264Y0091809D01*
X0194894Y0094309D02*
X0194527Y0094309D01*
X0194527Y0094676D01*
X0194894Y0094676D01*
X0194894Y0094309D01*
X0195632Y0094676D02*
X0195632Y0095043D01*
X0195999Y0095410D01*
X0196733Y0095410D01*
X0197100Y0095043D01*
X0197100Y0094676D01*
X0196733Y0094309D01*
X0195999Y0094309D01*
X0195632Y0094676D01*
X0195999Y0095410D02*
X0195632Y0095777D01*
X0195632Y0096144D01*
X0195999Y0096511D01*
X0196733Y0096511D01*
X0197100Y0096144D01*
X0197100Y0095777D01*
X0196733Y0095410D01*
X0197842Y0095043D02*
X0198943Y0095777D01*
X0197842Y0096511D02*
X0197842Y0094309D01*
X0197842Y0095043D02*
X0198943Y0094309D01*
X0193785Y0094309D02*
X0192317Y0094309D01*
X0193051Y0094309D02*
X0193051Y0096511D01*
X0192317Y0095777D01*
X0176983Y0086056D02*
X0175882Y0086056D01*
X0175515Y0085689D01*
X0175515Y0084588D01*
X0176983Y0084588D01*
X0176616Y0083846D02*
X0176983Y0083479D01*
X0176983Y0082745D01*
X0176616Y0082379D01*
X0175148Y0083846D01*
X0176616Y0083846D01*
X0176616Y0082379D02*
X0175148Y0082379D01*
X0174781Y0082745D01*
X0174781Y0083479D01*
X0175148Y0083846D01*
X0175148Y0081637D02*
X0176616Y0080169D01*
X0176983Y0080536D01*
X0176983Y0081270D01*
X0176616Y0081637D01*
X0175148Y0081637D01*
X0174781Y0081270D01*
X0174781Y0080536D01*
X0175148Y0080169D01*
X0176616Y0080169D01*
X0176983Y0079427D02*
X0176983Y0077959D01*
X0176983Y0078693D02*
X0174781Y0078693D01*
X0175515Y0077959D01*
X0174483Y0078326D02*
X0174483Y0079060D01*
X0174116Y0079427D01*
X0174116Y0080169D02*
X0174483Y0080536D01*
X0174483Y0081270D01*
X0174116Y0081637D01*
X0172648Y0081637D01*
X0172281Y0081270D01*
X0172281Y0080536D01*
X0172648Y0080169D01*
X0173015Y0080169D01*
X0173382Y0080536D01*
X0173382Y0081637D01*
X0172648Y0079427D02*
X0172281Y0079060D01*
X0172281Y0078326D01*
X0172648Y0077959D01*
X0174116Y0077959D01*
X0174483Y0078326D01*
X0264304Y0103426D02*
X0264671Y0103059D01*
X0265405Y0103059D01*
X0265772Y0103426D01*
X0266514Y0103426D02*
X0266881Y0103059D01*
X0267614Y0103059D01*
X0267981Y0103426D01*
X0267981Y0103793D01*
X0267614Y0104160D01*
X0267248Y0104160D01*
X0267614Y0104160D02*
X0267981Y0104527D01*
X0267981Y0104894D01*
X0267614Y0105261D01*
X0266881Y0105261D01*
X0266514Y0104894D01*
X0265772Y0104894D02*
X0265405Y0105261D01*
X0264671Y0105261D01*
X0264304Y0104894D01*
X0264304Y0103426D01*
X0268723Y0103426D02*
X0269090Y0103059D01*
X0269824Y0103059D01*
X0270191Y0103426D01*
X0270191Y0103793D01*
X0269824Y0104160D01*
X0269457Y0104160D01*
X0269824Y0104160D02*
X0270191Y0104527D01*
X0270191Y0104894D01*
X0269824Y0105261D01*
X0269090Y0105261D01*
X0268723Y0104894D01*
X0267473Y0113059D02*
X0267473Y0115261D01*
X0268574Y0115261D01*
X0268941Y0114894D01*
X0268941Y0114160D01*
X0268574Y0113793D01*
X0267473Y0113793D01*
X0266731Y0113059D02*
X0266731Y0115261D01*
X0265264Y0115261D02*
X0265264Y0113059D01*
X0266731Y0113059D02*
X0265264Y0115261D01*
X0283054Y0103644D02*
X0283421Y0104011D01*
X0284155Y0104011D01*
X0284522Y0103644D01*
X0284522Y0103277D01*
X0284155Y0102910D01*
X0284522Y0102543D01*
X0284522Y0102176D01*
X0284155Y0101809D01*
X0283421Y0101809D01*
X0283054Y0102176D01*
X0283421Y0101511D02*
X0283054Y0101144D01*
X0283054Y0099676D01*
X0283421Y0099309D01*
X0284155Y0099309D01*
X0284522Y0099676D01*
X0285264Y0099309D02*
X0286731Y0099309D01*
X0285998Y0099309D02*
X0285998Y0101511D01*
X0285264Y0100777D01*
X0284522Y0101144D02*
X0284155Y0101511D01*
X0283421Y0101511D01*
X0283788Y0102910D02*
X0284155Y0102910D01*
X0285264Y0103644D02*
X0285631Y0104011D01*
X0286364Y0104011D01*
X0286731Y0103644D01*
X0286731Y0103277D01*
X0286364Y0102910D01*
X0286731Y0102543D01*
X0286731Y0102176D01*
X0286364Y0101809D01*
X0285631Y0101809D01*
X0285264Y0102176D01*
X0285998Y0102910D02*
X0286364Y0102910D01*
X0287473Y0103277D02*
X0288574Y0103277D01*
X0288941Y0102910D01*
X0288941Y0101809D01*
X0288941Y0101511D02*
X0288941Y0101144D01*
X0287473Y0099676D01*
X0287473Y0099309D01*
X0287473Y0101511D02*
X0288941Y0101511D01*
X0287473Y0101809D02*
X0287473Y0103277D01*
X0290921Y0106809D02*
X0291655Y0106809D01*
X0292022Y0107176D01*
X0292764Y0107176D02*
X0293131Y0106809D01*
X0293864Y0106809D01*
X0294231Y0107176D01*
X0294231Y0107543D01*
X0293864Y0107910D01*
X0293498Y0107910D01*
X0293864Y0107910D02*
X0294231Y0108277D01*
X0294231Y0108644D01*
X0293864Y0109011D01*
X0293131Y0109011D01*
X0292764Y0108644D01*
X0292764Y0109309D02*
X0292764Y0111511D01*
X0294231Y0109309D01*
X0294231Y0111511D01*
X0294973Y0111511D02*
X0296074Y0111511D01*
X0296441Y0111144D01*
X0296441Y0110410D01*
X0296074Y0110043D01*
X0294973Y0110043D01*
X0294973Y0109309D02*
X0294973Y0111511D01*
X0296074Y0109011D02*
X0294973Y0107910D01*
X0296441Y0107910D01*
X0296074Y0106809D02*
X0296074Y0109011D01*
X0292022Y0108644D02*
X0291655Y0109011D01*
X0290921Y0109011D01*
X0290554Y0108644D01*
X0290554Y0107176D01*
X0290921Y0106809D01*
X0287842Y0096511D02*
X0287842Y0094309D01*
X0287840Y0094011D02*
X0287473Y0093644D01*
X0287840Y0094011D02*
X0288574Y0094011D01*
X0288941Y0093644D01*
X0288941Y0093277D01*
X0287473Y0091809D01*
X0288941Y0091809D01*
X0286731Y0091809D02*
X0285264Y0091809D01*
X0285998Y0091809D02*
X0285998Y0094011D01*
X0285264Y0093277D01*
X0284522Y0093644D02*
X0284522Y0092910D01*
X0284155Y0092543D01*
X0283054Y0092543D01*
X0283788Y0092543D02*
X0284522Y0091809D01*
X0283054Y0091809D02*
X0283054Y0094011D01*
X0284155Y0094011D01*
X0284522Y0093644D01*
X0284527Y0094309D02*
X0284894Y0094309D01*
X0284894Y0094676D01*
X0284527Y0094676D01*
X0284527Y0094309D01*
X0283785Y0094309D02*
X0282317Y0094309D01*
X0283051Y0094309D02*
X0283051Y0096511D01*
X0282317Y0095777D01*
X0285632Y0095777D02*
X0285632Y0096144D01*
X0285999Y0096511D01*
X0286733Y0096511D01*
X0287100Y0096144D01*
X0287100Y0095777D01*
X0286733Y0095410D01*
X0285999Y0095410D01*
X0285632Y0095777D01*
X0285999Y0095410D02*
X0285632Y0095043D01*
X0285632Y0094676D01*
X0285999Y0094309D01*
X0286733Y0094309D01*
X0287100Y0094676D01*
X0287100Y0095043D01*
X0286733Y0095410D01*
X0287842Y0095043D02*
X0288943Y0095777D01*
X0287842Y0095043D02*
X0288943Y0094309D01*
X0288574Y0088277D02*
X0288941Y0087910D01*
X0288941Y0086809D01*
X0288941Y0086511D02*
X0287473Y0086511D01*
X0287473Y0085410D01*
X0288207Y0085777D01*
X0288574Y0085777D01*
X0288941Y0085410D01*
X0288941Y0084676D01*
X0288574Y0084309D01*
X0287840Y0084309D01*
X0287473Y0084676D01*
X0286731Y0084309D02*
X0285264Y0084309D01*
X0286731Y0085777D01*
X0286731Y0086144D01*
X0286364Y0086511D01*
X0285631Y0086511D01*
X0285264Y0086144D01*
X0285264Y0086809D02*
X0286731Y0086809D01*
X0285998Y0086809D02*
X0285998Y0089011D01*
X0285264Y0088277D01*
X0284155Y0086511D02*
X0283421Y0086511D01*
X0283054Y0086144D01*
X0283054Y0084676D01*
X0283421Y0084309D01*
X0284155Y0084309D01*
X0284522Y0084676D01*
X0284522Y0086144D02*
X0284155Y0086511D01*
X0287473Y0086809D02*
X0287473Y0088277D01*
X0288574Y0088277D01*
X0276983Y0086056D02*
X0275882Y0086056D01*
X0275515Y0085689D01*
X0275515Y0084588D01*
X0276983Y0084588D01*
X0276616Y0083846D02*
X0276983Y0083479D01*
X0276983Y0082745D01*
X0276616Y0082379D01*
X0275148Y0083846D01*
X0276616Y0083846D01*
X0276616Y0082379D02*
X0275148Y0082379D01*
X0274781Y0082745D01*
X0274781Y0083479D01*
X0275148Y0083846D01*
X0274483Y0083479D02*
X0274483Y0082745D01*
X0274116Y0082379D01*
X0274483Y0081637D02*
X0274483Y0080169D01*
X0274781Y0080536D02*
X0275148Y0080169D01*
X0276616Y0080169D01*
X0275148Y0081637D01*
X0276616Y0081637D01*
X0276983Y0081270D01*
X0276983Y0080536D01*
X0276616Y0080169D01*
X0276983Y0079427D02*
X0276983Y0077959D01*
X0276983Y0078693D02*
X0274781Y0078693D01*
X0275515Y0077959D01*
X0274483Y0078326D02*
X0274483Y0079060D01*
X0274116Y0079427D01*
X0274483Y0078326D02*
X0274116Y0077959D01*
X0272648Y0077959D01*
X0272281Y0078326D01*
X0272281Y0079060D01*
X0272648Y0079427D01*
X0273015Y0080169D02*
X0272281Y0080903D01*
X0274483Y0080903D01*
X0274781Y0081270D02*
X0275148Y0081637D01*
X0274781Y0081270D02*
X0274781Y0080536D01*
X0272648Y0082379D02*
X0272281Y0082745D01*
X0272281Y0083479D01*
X0272648Y0083846D01*
X0273015Y0083846D01*
X0273382Y0083479D01*
X0273749Y0083846D01*
X0274116Y0083846D01*
X0274483Y0083479D01*
X0273382Y0083479D02*
X0273382Y0083112D01*
X0283422Y0080410D02*
X0283422Y0079676D01*
X0283789Y0079309D01*
X0284523Y0079309D01*
X0284890Y0079676D01*
X0284890Y0080043D01*
X0284523Y0080410D01*
X0283422Y0080410D01*
X0284156Y0081144D01*
X0284890Y0081511D01*
X0285632Y0081144D02*
X0285632Y0080777D01*
X0285999Y0080410D01*
X0286733Y0080410D01*
X0287100Y0080043D01*
X0287100Y0079676D01*
X0286733Y0079309D01*
X0285999Y0079309D01*
X0285632Y0079676D01*
X0285632Y0080043D01*
X0285999Y0080410D01*
X0286733Y0080410D02*
X0287100Y0080777D01*
X0287100Y0081144D01*
X0286733Y0081511D01*
X0285999Y0081511D01*
X0285632Y0081144D01*
X0285998Y0079011D02*
X0285264Y0078277D01*
X0284522Y0078644D02*
X0284522Y0077910D01*
X0284155Y0077543D01*
X0283054Y0077543D01*
X0283788Y0077543D02*
X0284522Y0076809D01*
X0285264Y0076809D02*
X0286731Y0076809D01*
X0285998Y0076809D02*
X0285998Y0079011D01*
X0287473Y0078644D02*
X0287840Y0079011D01*
X0288574Y0079011D01*
X0288941Y0078644D01*
X0288941Y0078277D01*
X0288574Y0077910D01*
X0288941Y0077543D01*
X0288941Y0077176D01*
X0288574Y0076809D01*
X0287840Y0076809D01*
X0287473Y0077176D01*
X0288207Y0077910D02*
X0288574Y0077910D01*
X0288943Y0079309D02*
X0287842Y0080043D01*
X0288943Y0080777D01*
X0287842Y0081511D02*
X0287842Y0079309D01*
X0284522Y0078644D02*
X0284155Y0079011D01*
X0283054Y0079011D01*
X0283054Y0076809D01*
X0315554Y0103426D02*
X0315921Y0103059D01*
X0316655Y0103059D01*
X0317022Y0103426D01*
X0317764Y0103426D02*
X0318131Y0103059D01*
X0318864Y0103059D01*
X0319231Y0103426D01*
X0319231Y0103793D01*
X0318864Y0104160D01*
X0318498Y0104160D01*
X0318864Y0104160D02*
X0319231Y0104527D01*
X0319231Y0104894D01*
X0318864Y0105261D01*
X0318131Y0105261D01*
X0317764Y0104894D01*
X0317022Y0104894D02*
X0316655Y0105261D01*
X0315921Y0105261D01*
X0315554Y0104894D01*
X0315554Y0103426D01*
X0319973Y0103426D02*
X0320340Y0103059D01*
X0321074Y0103059D01*
X0321441Y0103426D01*
X0321441Y0104160D01*
X0321074Y0104527D01*
X0320707Y0104527D01*
X0319973Y0104160D01*
X0319973Y0105261D01*
X0321441Y0105261D01*
X0319973Y0113059D02*
X0319973Y0115261D01*
X0321074Y0115261D01*
X0321441Y0114894D01*
X0321441Y0114160D01*
X0321074Y0113793D01*
X0319973Y0113793D01*
X0319231Y0113059D02*
X0319231Y0115261D01*
X0317764Y0115261D02*
X0319231Y0113059D01*
X0317764Y0113059D02*
X0317764Y0115261D01*
X0395554Y0111144D02*
X0395554Y0109676D01*
X0395921Y0109309D01*
X0396655Y0109309D01*
X0397022Y0109676D01*
X0397764Y0109676D02*
X0398131Y0109309D01*
X0398864Y0109309D01*
X0399231Y0109676D01*
X0399231Y0110043D01*
X0398864Y0110410D01*
X0398498Y0110410D01*
X0398864Y0110410D02*
X0399231Y0110777D01*
X0399231Y0111144D01*
X0398864Y0111511D01*
X0398131Y0111511D01*
X0397764Y0111144D01*
X0397022Y0111144D02*
X0396655Y0111511D01*
X0395921Y0111511D01*
X0395554Y0111144D01*
X0399973Y0111511D02*
X0401441Y0111511D01*
X0401441Y0111144D01*
X0399973Y0109676D01*
X0399973Y0109309D01*
X0406514Y0113059D02*
X0406514Y0115261D01*
X0407981Y0113059D01*
X0407981Y0115261D01*
X0408723Y0115261D02*
X0409824Y0115261D01*
X0410191Y0114894D01*
X0410191Y0114160D01*
X0409824Y0113793D01*
X0408723Y0113793D01*
X0408723Y0113059D02*
X0408723Y0115261D01*
X0432183Y0111044D02*
X0432183Y0109576D01*
X0432550Y0109209D01*
X0433284Y0109209D01*
X0433651Y0109576D01*
X0433651Y0108911D02*
X0433651Y0106709D01*
X0432183Y0108911D01*
X0432183Y0106709D01*
X0434393Y0106709D02*
X0434393Y0108911D01*
X0435494Y0108911D01*
X0435861Y0108544D01*
X0435861Y0107810D01*
X0435494Y0107443D01*
X0434393Y0107443D01*
X0434760Y0109209D02*
X0434393Y0109576D01*
X0434760Y0109209D02*
X0435494Y0109209D01*
X0435861Y0109576D01*
X0435861Y0109943D01*
X0435494Y0110310D01*
X0435127Y0110310D01*
X0435494Y0110310D02*
X0435861Y0110677D01*
X0435861Y0111044D01*
X0435494Y0111411D01*
X0434760Y0111411D01*
X0434393Y0111044D01*
X0433651Y0111044D02*
X0433284Y0111411D01*
X0432550Y0111411D01*
X0432183Y0111044D01*
X0436603Y0111044D02*
X0436970Y0111411D01*
X0437704Y0111411D01*
X0438071Y0111044D01*
X0438071Y0110677D01*
X0437704Y0110310D01*
X0436970Y0110310D01*
X0436603Y0110677D01*
X0436603Y0111044D01*
X0436970Y0110310D02*
X0436603Y0109943D01*
X0436603Y0109576D01*
X0436970Y0109209D01*
X0437704Y0109209D01*
X0438071Y0109576D01*
X0438071Y0109943D01*
X0437704Y0110310D01*
X0409733Y0030806D02*
X0408999Y0030072D01*
X0408999Y0030439D02*
X0408999Y0029338D01*
X0409733Y0029338D02*
X0407531Y0029338D01*
X0407531Y0030439D01*
X0407898Y0030806D01*
X0408632Y0030806D01*
X0408999Y0030439D01*
X0409366Y0028596D02*
X0409733Y0028229D01*
X0409733Y0027495D01*
X0409366Y0027129D01*
X0407898Y0028596D01*
X0409366Y0028596D01*
X0409366Y0027129D02*
X0407898Y0027129D01*
X0407531Y0027495D01*
X0407531Y0028229D01*
X0407898Y0028596D01*
X0407898Y0026387D02*
X0409366Y0024919D01*
X0409733Y0024919D01*
X0409733Y0023810D02*
X0407531Y0023810D01*
X0408632Y0022709D01*
X0408632Y0024177D01*
X0407531Y0024919D02*
X0407531Y0026387D01*
X0407898Y0026387D01*
X0399733Y0026419D02*
X0399733Y0027887D01*
X0399733Y0027153D02*
X0397531Y0027153D01*
X0398265Y0026419D01*
X0397898Y0025677D02*
X0398632Y0025677D01*
X0398999Y0025310D01*
X0398999Y0024209D01*
X0398999Y0024943D02*
X0399733Y0025677D01*
X0399733Y0024209D02*
X0397531Y0024209D01*
X0397531Y0025310D01*
X0397898Y0025677D01*
X0397898Y0028629D02*
X0398265Y0028629D01*
X0398632Y0028995D01*
X0398632Y0030096D01*
X0397898Y0030096D02*
X0397531Y0029729D01*
X0397531Y0028995D01*
X0397898Y0028629D01*
X0397898Y0030096D02*
X0399366Y0030096D01*
X0399733Y0029729D01*
X0399733Y0028995D01*
X0399366Y0028629D01*
D13*
X0432083Y0045684D02*
X0437083Y0045684D01*
X0379032Y0049128D02*
X0360135Y0049128D01*
X0360135Y0051097D01*
X0379032Y0051097D01*
X0379032Y0049128D01*
X0379032Y0051097D02*
X0379032Y0064089D01*
X0360135Y0064089D01*
X0360135Y0051097D01*
X0336532Y0051097D02*
X0336532Y0049128D01*
X0317635Y0049128D01*
X0317635Y0051097D01*
X0336532Y0051097D01*
X0336532Y0064089D01*
X0317635Y0064089D01*
X0317635Y0051097D01*
X0246532Y0051097D02*
X0246532Y0049128D01*
X0227635Y0049128D01*
X0227635Y0051097D01*
X0246532Y0051097D01*
X0246532Y0064089D01*
X0227635Y0064089D01*
X0227635Y0051097D01*
X0141532Y0051097D02*
X0141532Y0049128D01*
X0122635Y0049128D01*
X0122635Y0051097D01*
X0141532Y0051097D01*
X0141532Y0064089D01*
X0122635Y0064089D01*
X0122635Y0051097D01*
X0096532Y0051097D02*
X0096532Y0049128D01*
X0077635Y0049128D01*
X0077635Y0051097D01*
X0096532Y0051097D01*
X0096532Y0064089D01*
X0077635Y0064089D01*
X0077635Y0051097D01*
D14*
X0419783Y0051854D02*
X0424387Y0051854D01*
X0424387Y0050320D02*
X0424387Y0053389D01*
X0423620Y0054924D02*
X0424387Y0055691D01*
X0424387Y0057226D01*
X0423620Y0057993D01*
X0422853Y0057993D01*
X0422085Y0057226D01*
X0422085Y0055691D01*
X0421318Y0054924D01*
X0420551Y0054924D01*
X0419783Y0055691D01*
X0419783Y0057226D01*
X0420551Y0057993D01*
X0420551Y0064132D02*
X0419783Y0064899D01*
X0419783Y0067201D01*
X0424387Y0067201D01*
X0424387Y0064899D01*
X0423620Y0064132D01*
X0420551Y0064132D01*
X0419783Y0068736D02*
X0419783Y0071805D01*
X0424387Y0071805D01*
X0424387Y0068736D01*
X0422085Y0070270D02*
X0422085Y0071805D01*
X0422085Y0073339D02*
X0421318Y0074107D01*
X0421318Y0076409D01*
X0419783Y0076409D02*
X0424387Y0076409D01*
X0424387Y0074107D01*
X0423620Y0073339D01*
X0422085Y0073339D01*
X0421318Y0074874D02*
X0419783Y0073339D01*
X0419783Y0048785D02*
X0424387Y0048785D01*
X0424387Y0046483D01*
X0423620Y0045716D01*
X0422085Y0045716D01*
X0421318Y0046483D01*
X0421318Y0048785D01*
X0421318Y0047251D02*
X0419783Y0045716D01*
X0419783Y0044181D02*
X0419783Y0042647D01*
X0419783Y0043414D02*
X0424387Y0043414D01*
X0424387Y0044181D02*
X0424387Y0042647D01*
X0424387Y0041112D02*
X0419783Y0041112D01*
X0421318Y0041112D02*
X0421318Y0038810D01*
X0422085Y0038043D01*
X0423620Y0038043D01*
X0424387Y0038810D01*
X0424387Y0041112D01*
X0424387Y0036508D02*
X0419783Y0036508D01*
X0419783Y0033439D01*
X0422085Y0034973D02*
X0422085Y0036508D01*
X0424387Y0036508D02*
X0424387Y0033439D01*
D15*
X0405696Y0052760D03*
X0400971Y0060457D03*
M02*
