%
M48
M72
T01C0.0130
T02C0.0315
T03C0.0433
%
T01
X7083Y4411
X11332Y3912
X11833Y4536
X11333Y7911
X11833Y8411
X21082Y7287
X21958Y8786
X21958Y4637
X21083Y3911
X30708Y3911
X31208Y4661
X30708Y7536
X31208Y8786
X9583Y1036
T02
X15222Y1690
X16637Y3104
X20472Y1690
X21887Y3104
X25722Y1690
X27137Y3104
X30972Y1690
X32387Y3104
X36222Y1690
X37637Y3104
X41472Y1690
X42887Y3104
X46722Y1690
X48137Y3104
X37530Y9468
X38237Y10175
X38944Y10882
X39651Y11589
X34401Y11589
X33694Y10882
X32987Y10175
X32280Y9468
X28444Y10882
X27737Y10175
X27030Y9468
X23194Y10882
X22487Y10175
X21780Y9468
X17944Y10882
X17237Y10175
X16530Y9468
X12694Y10882
X11987Y10175
X11280Y9468
X7444Y10882
X6737Y10175
X6030Y9468
X8151Y11589
X13401Y11589
X18651Y11589
X23901Y11589
X29151Y11589
T03
X6365Y2536
X9711Y2536
X10892Y2536
X43399Y9911
X44580Y9911
X47927Y9911
M30
