G75*
%MOIN*%
%OFA0B0*%
%FSLAX25Y25*%
%IPPOS*%
%LPD*%
%AMOC8*
5,1,8,0,0,1.08239X$1,22.5*
%
%ADD10C,0.04724*%
%ADD11C,0.06496*%
%ADD12C,0.00984*%
%ADD13R,0.06299X0.07087*%
%ADD14C,0.01969*%
%ADD15R,0.02362X0.08661*%
%ADD16R,0.05512X0.05512*%
%ADD17C,0.00600*%
%ADD18C,0.00800*%
%ADD19C,0.02400*%
%ADD20C,0.01600*%
%ADD21C,0.01000*%
%ADD22C,0.02500*%
D10*
X0152224Y0016897D03*
X0166366Y0031039D03*
X0204724Y0016897D03*
X0218866Y0031039D03*
X0257224Y0016897D03*
X0271366Y0031039D03*
X0309724Y0016897D03*
X0323866Y0031039D03*
X0362224Y0016897D03*
X0376366Y0031039D03*
X0414724Y0016897D03*
X0428866Y0031039D03*
X0467224Y0016897D03*
X0481366Y0031039D03*
X0375300Y0094679D03*
X0382371Y0101750D03*
X0389442Y0108821D03*
X0396514Y0115892D03*
X0344014Y0115892D03*
X0336942Y0108821D03*
X0329871Y0101750D03*
X0322800Y0094679D03*
X0284442Y0108821D03*
X0277371Y0101750D03*
X0270300Y0094679D03*
X0231942Y0108821D03*
X0224871Y0101750D03*
X0217800Y0094679D03*
X0179442Y0108821D03*
X0172371Y0101750D03*
X0165300Y0094679D03*
X0126942Y0108821D03*
X0119871Y0101750D03*
X0112800Y0094679D03*
X0074442Y0108821D03*
X0067371Y0101750D03*
X0060300Y0094679D03*
X0081514Y0115892D03*
X0134014Y0115892D03*
X0186514Y0115892D03*
X0239014Y0115892D03*
X0291514Y0115892D03*
D11*
X0433993Y0099109D03*
X0445804Y0099109D03*
X0479268Y0099109D03*
X0108924Y0025359D03*
X0097113Y0025359D03*
X0063648Y0025359D03*
D12*
X0073875Y0024148D02*
X0073875Y0029070D01*
X0077811Y0029070D01*
X0077811Y0024148D01*
X0073875Y0024148D01*
X0073875Y0025131D02*
X0077811Y0025131D01*
X0077811Y0026114D02*
X0073875Y0026114D01*
X0073875Y0027097D02*
X0077811Y0027097D01*
X0077811Y0028080D02*
X0073875Y0028080D01*
X0073875Y0029063D02*
X0077811Y0029063D01*
X0081355Y0029070D02*
X0081355Y0024148D01*
X0081355Y0029070D02*
X0085291Y0029070D01*
X0085291Y0024148D01*
X0081355Y0024148D01*
X0081355Y0025131D02*
X0085291Y0025131D01*
X0085291Y0026114D02*
X0081355Y0026114D01*
X0081355Y0027097D02*
X0085291Y0027097D01*
X0085291Y0028080D02*
X0081355Y0028080D01*
X0081355Y0029063D02*
X0085291Y0029063D01*
X0081355Y0031648D02*
X0081355Y0036570D01*
X0085291Y0036570D01*
X0085291Y0031648D01*
X0081355Y0031648D01*
X0081355Y0032631D02*
X0085291Y0032631D01*
X0085291Y0033614D02*
X0081355Y0033614D01*
X0081355Y0034597D02*
X0085291Y0034597D01*
X0085291Y0035580D02*
X0081355Y0035580D01*
X0081355Y0036563D02*
X0085291Y0036563D01*
X0073875Y0036570D02*
X0073875Y0031648D01*
X0073875Y0036570D02*
X0077811Y0036570D01*
X0077811Y0031648D01*
X0073875Y0031648D01*
X0073875Y0032631D02*
X0077811Y0032631D01*
X0077811Y0033614D02*
X0073875Y0033614D01*
X0073875Y0034597D02*
X0077811Y0034597D01*
X0077811Y0035580D02*
X0073875Y0035580D01*
X0073875Y0036563D02*
X0077811Y0036563D01*
X0106561Y0044148D02*
X0106561Y0049070D01*
X0106561Y0044148D02*
X0102625Y0044148D01*
X0102625Y0049070D01*
X0106561Y0049070D01*
X0106561Y0045131D02*
X0102625Y0045131D01*
X0102625Y0046114D02*
X0106561Y0046114D01*
X0106561Y0047097D02*
X0102625Y0047097D01*
X0102625Y0048080D02*
X0106561Y0048080D01*
X0106561Y0049063D02*
X0102625Y0049063D01*
X0114041Y0049070D02*
X0114041Y0044148D01*
X0110105Y0044148D01*
X0110105Y0049070D01*
X0114041Y0049070D01*
X0114041Y0045131D02*
X0110105Y0045131D01*
X0110105Y0046114D02*
X0114041Y0046114D01*
X0114041Y0047097D02*
X0110105Y0047097D01*
X0110105Y0048080D02*
X0114041Y0048080D01*
X0114041Y0049063D02*
X0110105Y0049063D01*
X0074544Y0054837D02*
X0069622Y0054837D01*
X0074544Y0054837D02*
X0074544Y0050901D01*
X0069622Y0050901D01*
X0069622Y0054837D01*
X0069622Y0051884D02*
X0074544Y0051884D01*
X0074544Y0052867D02*
X0069622Y0052867D01*
X0069622Y0053850D02*
X0074544Y0053850D01*
X0074544Y0054833D02*
X0069622Y0054833D01*
X0069622Y0062317D02*
X0074544Y0062317D01*
X0074544Y0058381D01*
X0069622Y0058381D01*
X0069622Y0062317D01*
X0069622Y0059364D02*
X0074544Y0059364D01*
X0074544Y0060347D02*
X0069622Y0060347D01*
X0069622Y0061330D02*
X0074544Y0061330D01*
X0074544Y0062313D02*
X0069622Y0062313D01*
X0077811Y0076648D02*
X0077811Y0081570D01*
X0077811Y0076648D02*
X0073875Y0076648D01*
X0073875Y0081570D01*
X0077811Y0081570D01*
X0077811Y0077631D02*
X0073875Y0077631D01*
X0073875Y0078614D02*
X0077811Y0078614D01*
X0077811Y0079597D02*
X0073875Y0079597D01*
X0073875Y0080580D02*
X0077811Y0080580D01*
X0077811Y0081563D02*
X0073875Y0081563D01*
X0077811Y0084148D02*
X0077811Y0089070D01*
X0077811Y0084148D02*
X0073875Y0084148D01*
X0073875Y0089070D01*
X0077811Y0089070D01*
X0077811Y0085131D02*
X0073875Y0085131D01*
X0073875Y0086114D02*
X0077811Y0086114D01*
X0077811Y0087097D02*
X0073875Y0087097D01*
X0073875Y0088080D02*
X0077811Y0088080D01*
X0077811Y0089063D02*
X0073875Y0089063D01*
X0085291Y0089070D02*
X0085291Y0084148D01*
X0081355Y0084148D01*
X0081355Y0089070D01*
X0085291Y0089070D01*
X0085291Y0085131D02*
X0081355Y0085131D01*
X0081355Y0086114D02*
X0085291Y0086114D01*
X0085291Y0087097D02*
X0081355Y0087097D01*
X0081355Y0088080D02*
X0085291Y0088080D01*
X0085291Y0089063D02*
X0081355Y0089063D01*
X0092811Y0089070D02*
X0092811Y0084148D01*
X0088875Y0084148D01*
X0088875Y0089070D01*
X0092811Y0089070D01*
X0092811Y0085131D02*
X0088875Y0085131D01*
X0088875Y0086114D02*
X0092811Y0086114D01*
X0092811Y0087097D02*
X0088875Y0087097D01*
X0088875Y0088080D02*
X0092811Y0088080D01*
X0092811Y0089063D02*
X0088875Y0089063D01*
X0092811Y0091648D02*
X0092811Y0096570D01*
X0092811Y0091648D02*
X0088875Y0091648D01*
X0088875Y0096570D01*
X0092811Y0096570D01*
X0092811Y0092631D02*
X0088875Y0092631D01*
X0088875Y0093614D02*
X0092811Y0093614D01*
X0092811Y0094597D02*
X0088875Y0094597D01*
X0088875Y0095580D02*
X0092811Y0095580D01*
X0092811Y0096563D02*
X0088875Y0096563D01*
X0092811Y0099148D02*
X0092811Y0104070D01*
X0092811Y0099148D02*
X0088875Y0099148D01*
X0088875Y0104070D01*
X0092811Y0104070D01*
X0092811Y0100131D02*
X0088875Y0100131D01*
X0088875Y0101114D02*
X0092811Y0101114D01*
X0092811Y0102097D02*
X0088875Y0102097D01*
X0088875Y0103080D02*
X0092811Y0103080D01*
X0092811Y0104063D02*
X0088875Y0104063D01*
X0092811Y0106648D02*
X0092811Y0111570D01*
X0092811Y0106648D02*
X0088875Y0106648D01*
X0088875Y0111570D01*
X0092811Y0111570D01*
X0092811Y0107631D02*
X0088875Y0107631D01*
X0088875Y0108614D02*
X0092811Y0108614D01*
X0092811Y0109597D02*
X0088875Y0109597D01*
X0088875Y0110580D02*
X0092811Y0110580D01*
X0092811Y0111563D02*
X0088875Y0111563D01*
X0100291Y0111570D02*
X0100291Y0106648D01*
X0096355Y0106648D01*
X0096355Y0111570D01*
X0100291Y0111570D01*
X0100291Y0107631D02*
X0096355Y0107631D01*
X0096355Y0108614D02*
X0100291Y0108614D01*
X0100291Y0109597D02*
X0096355Y0109597D01*
X0096355Y0110580D02*
X0100291Y0110580D01*
X0100291Y0111563D02*
X0096355Y0111563D01*
X0107811Y0111570D02*
X0107811Y0106648D01*
X0103875Y0106648D01*
X0103875Y0111570D01*
X0107811Y0111570D01*
X0107811Y0107631D02*
X0103875Y0107631D01*
X0103875Y0108614D02*
X0107811Y0108614D01*
X0107811Y0109597D02*
X0103875Y0109597D01*
X0103875Y0110580D02*
X0107811Y0110580D01*
X0107811Y0111563D02*
X0103875Y0111563D01*
X0115291Y0111570D02*
X0115291Y0106648D01*
X0111355Y0106648D01*
X0111355Y0111570D01*
X0115291Y0111570D01*
X0115291Y0107631D02*
X0111355Y0107631D01*
X0111355Y0108614D02*
X0115291Y0108614D01*
X0115291Y0109597D02*
X0111355Y0109597D01*
X0111355Y0110580D02*
X0115291Y0110580D01*
X0115291Y0111563D02*
X0111355Y0111563D01*
X0100291Y0104070D02*
X0100291Y0099148D01*
X0096355Y0099148D01*
X0096355Y0104070D01*
X0100291Y0104070D01*
X0100291Y0100131D02*
X0096355Y0100131D01*
X0096355Y0101114D02*
X0100291Y0101114D01*
X0100291Y0102097D02*
X0096355Y0102097D01*
X0096355Y0103080D02*
X0100291Y0103080D01*
X0100291Y0104063D02*
X0096355Y0104063D01*
X0100291Y0096570D02*
X0100291Y0091648D01*
X0096355Y0091648D01*
X0096355Y0096570D01*
X0100291Y0096570D01*
X0100291Y0092631D02*
X0096355Y0092631D01*
X0096355Y0093614D02*
X0100291Y0093614D01*
X0100291Y0094597D02*
X0096355Y0094597D01*
X0096355Y0095580D02*
X0100291Y0095580D01*
X0100291Y0096563D02*
X0096355Y0096563D01*
X0100291Y0089070D02*
X0100291Y0084148D01*
X0096355Y0084148D01*
X0096355Y0089070D01*
X0100291Y0089070D01*
X0100291Y0085131D02*
X0096355Y0085131D01*
X0096355Y0086114D02*
X0100291Y0086114D01*
X0100291Y0087097D02*
X0096355Y0087097D01*
X0096355Y0088080D02*
X0100291Y0088080D01*
X0100291Y0089063D02*
X0096355Y0089063D01*
X0100291Y0081570D02*
X0100291Y0076648D01*
X0096355Y0076648D01*
X0096355Y0081570D01*
X0100291Y0081570D01*
X0100291Y0077631D02*
X0096355Y0077631D01*
X0096355Y0078614D02*
X0100291Y0078614D01*
X0100291Y0079597D02*
X0096355Y0079597D01*
X0096355Y0080580D02*
X0100291Y0080580D01*
X0100291Y0081563D02*
X0096355Y0081563D01*
X0092811Y0081570D02*
X0092811Y0076648D01*
X0088875Y0076648D01*
X0088875Y0081570D01*
X0092811Y0081570D01*
X0092811Y0077631D02*
X0088875Y0077631D01*
X0088875Y0078614D02*
X0092811Y0078614D01*
X0092811Y0079597D02*
X0088875Y0079597D01*
X0088875Y0080580D02*
X0092811Y0080580D01*
X0092811Y0081563D02*
X0088875Y0081563D01*
X0085291Y0081570D02*
X0085291Y0076648D01*
X0081355Y0076648D01*
X0081355Y0081570D01*
X0085291Y0081570D01*
X0085291Y0077631D02*
X0081355Y0077631D01*
X0081355Y0078614D02*
X0085291Y0078614D01*
X0085291Y0079597D02*
X0081355Y0079597D01*
X0081355Y0080580D02*
X0085291Y0080580D01*
X0085291Y0081563D02*
X0081355Y0081563D01*
X0106561Y0069070D02*
X0106561Y0064148D01*
X0102625Y0064148D01*
X0102625Y0069070D01*
X0106561Y0069070D01*
X0106561Y0065131D02*
X0102625Y0065131D01*
X0102625Y0066114D02*
X0106561Y0066114D01*
X0106561Y0067097D02*
X0102625Y0067097D01*
X0102625Y0068080D02*
X0106561Y0068080D01*
X0106561Y0069063D02*
X0102625Y0069063D01*
X0114041Y0069070D02*
X0114041Y0064148D01*
X0110105Y0064148D01*
X0110105Y0069070D01*
X0114041Y0069070D01*
X0114041Y0065131D02*
X0110105Y0065131D01*
X0110105Y0066114D02*
X0114041Y0066114D01*
X0114041Y0067097D02*
X0110105Y0067097D01*
X0110105Y0068080D02*
X0114041Y0068080D01*
X0114041Y0069063D02*
X0110105Y0069063D01*
X0147811Y0076648D02*
X0147811Y0081570D01*
X0147811Y0076648D02*
X0143875Y0076648D01*
X0143875Y0081570D01*
X0147811Y0081570D01*
X0147811Y0077631D02*
X0143875Y0077631D01*
X0143875Y0078614D02*
X0147811Y0078614D01*
X0147811Y0079597D02*
X0143875Y0079597D01*
X0143875Y0080580D02*
X0147811Y0080580D01*
X0147811Y0081563D02*
X0143875Y0081563D01*
X0147811Y0084148D02*
X0147811Y0089070D01*
X0147811Y0084148D02*
X0143875Y0084148D01*
X0143875Y0089070D01*
X0147811Y0089070D01*
X0147811Y0085131D02*
X0143875Y0085131D01*
X0143875Y0086114D02*
X0147811Y0086114D01*
X0147811Y0087097D02*
X0143875Y0087097D01*
X0143875Y0088080D02*
X0147811Y0088080D01*
X0147811Y0089063D02*
X0143875Y0089063D01*
X0147811Y0091648D02*
X0147811Y0096570D01*
X0147811Y0091648D02*
X0143875Y0091648D01*
X0143875Y0096570D01*
X0147811Y0096570D01*
X0147811Y0092631D02*
X0143875Y0092631D01*
X0143875Y0093614D02*
X0147811Y0093614D01*
X0147811Y0094597D02*
X0143875Y0094597D01*
X0143875Y0095580D02*
X0147811Y0095580D01*
X0147811Y0096563D02*
X0143875Y0096563D01*
X0147811Y0099148D02*
X0147811Y0104070D01*
X0147811Y0099148D02*
X0143875Y0099148D01*
X0143875Y0104070D01*
X0147811Y0104070D01*
X0147811Y0100131D02*
X0143875Y0100131D01*
X0143875Y0101114D02*
X0147811Y0101114D01*
X0147811Y0102097D02*
X0143875Y0102097D01*
X0143875Y0103080D02*
X0147811Y0103080D01*
X0147811Y0104063D02*
X0143875Y0104063D01*
X0147811Y0106648D02*
X0147811Y0111570D01*
X0147811Y0106648D02*
X0143875Y0106648D01*
X0143875Y0111570D01*
X0147811Y0111570D01*
X0147811Y0107631D02*
X0143875Y0107631D01*
X0143875Y0108614D02*
X0147811Y0108614D01*
X0147811Y0109597D02*
X0143875Y0109597D01*
X0143875Y0110580D02*
X0147811Y0110580D01*
X0147811Y0111563D02*
X0143875Y0111563D01*
X0155291Y0111570D02*
X0155291Y0106648D01*
X0151355Y0106648D01*
X0151355Y0111570D01*
X0155291Y0111570D01*
X0155291Y0107631D02*
X0151355Y0107631D01*
X0151355Y0108614D02*
X0155291Y0108614D01*
X0155291Y0109597D02*
X0151355Y0109597D01*
X0151355Y0110580D02*
X0155291Y0110580D01*
X0155291Y0111563D02*
X0151355Y0111563D01*
X0166561Y0110398D02*
X0166561Y0115320D01*
X0166561Y0110398D02*
X0162625Y0110398D01*
X0162625Y0115320D01*
X0166561Y0115320D01*
X0166561Y0111381D02*
X0162625Y0111381D01*
X0162625Y0112364D02*
X0166561Y0112364D01*
X0166561Y0113347D02*
X0162625Y0113347D01*
X0162625Y0114330D02*
X0166561Y0114330D01*
X0166561Y0115313D02*
X0162625Y0115313D01*
X0174041Y0115320D02*
X0174041Y0110398D01*
X0170105Y0110398D01*
X0170105Y0115320D01*
X0174041Y0115320D01*
X0174041Y0111381D02*
X0170105Y0111381D01*
X0170105Y0112364D02*
X0174041Y0112364D01*
X0174041Y0113347D02*
X0170105Y0113347D01*
X0170105Y0114330D02*
X0174041Y0114330D01*
X0174041Y0115313D02*
X0170105Y0115313D01*
X0155291Y0104070D02*
X0155291Y0099148D01*
X0151355Y0099148D01*
X0151355Y0104070D01*
X0155291Y0104070D01*
X0155291Y0100131D02*
X0151355Y0100131D01*
X0151355Y0101114D02*
X0155291Y0101114D01*
X0155291Y0102097D02*
X0151355Y0102097D01*
X0151355Y0103080D02*
X0155291Y0103080D01*
X0155291Y0104063D02*
X0151355Y0104063D01*
X0155291Y0096570D02*
X0155291Y0091648D01*
X0151355Y0091648D01*
X0151355Y0096570D01*
X0155291Y0096570D01*
X0155291Y0092631D02*
X0151355Y0092631D01*
X0151355Y0093614D02*
X0155291Y0093614D01*
X0155291Y0094597D02*
X0151355Y0094597D01*
X0151355Y0095580D02*
X0155291Y0095580D01*
X0155291Y0096563D02*
X0151355Y0096563D01*
X0155291Y0089070D02*
X0155291Y0084148D01*
X0151355Y0084148D01*
X0151355Y0089070D01*
X0155291Y0089070D01*
X0155291Y0085131D02*
X0151355Y0085131D01*
X0151355Y0086114D02*
X0155291Y0086114D01*
X0155291Y0087097D02*
X0151355Y0087097D01*
X0151355Y0088080D02*
X0155291Y0088080D01*
X0155291Y0089063D02*
X0151355Y0089063D01*
X0155291Y0081570D02*
X0155291Y0076648D01*
X0151355Y0076648D01*
X0151355Y0081570D01*
X0155291Y0081570D01*
X0155291Y0077631D02*
X0151355Y0077631D01*
X0151355Y0078614D02*
X0155291Y0078614D01*
X0155291Y0079597D02*
X0151355Y0079597D01*
X0151355Y0080580D02*
X0155291Y0080580D01*
X0155291Y0081563D02*
X0151355Y0081563D01*
X0172122Y0072131D02*
X0177044Y0072131D01*
X0172122Y0072131D02*
X0172122Y0076067D01*
X0177044Y0076067D01*
X0177044Y0072131D01*
X0177044Y0073114D02*
X0172122Y0073114D01*
X0172122Y0074097D02*
X0177044Y0074097D01*
X0177044Y0075080D02*
X0172122Y0075080D01*
X0172122Y0076063D02*
X0177044Y0076063D01*
X0177044Y0064651D02*
X0172122Y0064651D01*
X0172122Y0068587D01*
X0177044Y0068587D01*
X0177044Y0064651D01*
X0177044Y0065634D02*
X0172122Y0065634D01*
X0172122Y0066617D02*
X0177044Y0066617D01*
X0177044Y0067600D02*
X0172122Y0067600D01*
X0172122Y0068583D02*
X0177044Y0068583D01*
X0205311Y0076648D02*
X0205311Y0081570D01*
X0205311Y0076648D02*
X0201375Y0076648D01*
X0201375Y0081570D01*
X0205311Y0081570D01*
X0205311Y0077631D02*
X0201375Y0077631D01*
X0201375Y0078614D02*
X0205311Y0078614D01*
X0205311Y0079597D02*
X0201375Y0079597D01*
X0201375Y0080580D02*
X0205311Y0080580D01*
X0205311Y0081563D02*
X0201375Y0081563D01*
X0205311Y0084148D02*
X0205311Y0089070D01*
X0205311Y0084148D02*
X0201375Y0084148D01*
X0201375Y0089070D01*
X0205311Y0089070D01*
X0205311Y0085131D02*
X0201375Y0085131D01*
X0201375Y0086114D02*
X0205311Y0086114D01*
X0205311Y0087097D02*
X0201375Y0087097D01*
X0201375Y0088080D02*
X0205311Y0088080D01*
X0205311Y0089063D02*
X0201375Y0089063D01*
X0205311Y0091648D02*
X0205311Y0096570D01*
X0205311Y0091648D02*
X0201375Y0091648D01*
X0201375Y0096570D01*
X0205311Y0096570D01*
X0205311Y0092631D02*
X0201375Y0092631D01*
X0201375Y0093614D02*
X0205311Y0093614D01*
X0205311Y0094597D02*
X0201375Y0094597D01*
X0201375Y0095580D02*
X0205311Y0095580D01*
X0205311Y0096563D02*
X0201375Y0096563D01*
X0205311Y0099148D02*
X0205311Y0104070D01*
X0205311Y0099148D02*
X0201375Y0099148D01*
X0201375Y0104070D01*
X0205311Y0104070D01*
X0205311Y0100131D02*
X0201375Y0100131D01*
X0201375Y0101114D02*
X0205311Y0101114D01*
X0205311Y0102097D02*
X0201375Y0102097D01*
X0201375Y0103080D02*
X0205311Y0103080D01*
X0205311Y0104063D02*
X0201375Y0104063D01*
X0205311Y0106648D02*
X0205311Y0111570D01*
X0205311Y0106648D02*
X0201375Y0106648D01*
X0201375Y0111570D01*
X0205311Y0111570D01*
X0205311Y0107631D02*
X0201375Y0107631D01*
X0201375Y0108614D02*
X0205311Y0108614D01*
X0205311Y0109597D02*
X0201375Y0109597D01*
X0201375Y0110580D02*
X0205311Y0110580D01*
X0205311Y0111563D02*
X0201375Y0111563D01*
X0212791Y0111570D02*
X0212791Y0106648D01*
X0208855Y0106648D01*
X0208855Y0111570D01*
X0212791Y0111570D01*
X0212791Y0107631D02*
X0208855Y0107631D01*
X0208855Y0108614D02*
X0212791Y0108614D01*
X0212791Y0109597D02*
X0208855Y0109597D01*
X0208855Y0110580D02*
X0212791Y0110580D01*
X0212791Y0111563D02*
X0208855Y0111563D01*
X0220311Y0111570D02*
X0220311Y0106648D01*
X0216375Y0106648D01*
X0216375Y0111570D01*
X0220311Y0111570D01*
X0220311Y0107631D02*
X0216375Y0107631D01*
X0216375Y0108614D02*
X0220311Y0108614D01*
X0220311Y0109597D02*
X0216375Y0109597D01*
X0216375Y0110580D02*
X0220311Y0110580D01*
X0220311Y0111563D02*
X0216375Y0111563D01*
X0227791Y0111570D02*
X0227791Y0106648D01*
X0223855Y0106648D01*
X0223855Y0111570D01*
X0227791Y0111570D01*
X0227791Y0107631D02*
X0223855Y0107631D01*
X0223855Y0108614D02*
X0227791Y0108614D01*
X0227791Y0109597D02*
X0223855Y0109597D01*
X0223855Y0110580D02*
X0227791Y0110580D01*
X0227791Y0111563D02*
X0223855Y0111563D01*
X0212791Y0104070D02*
X0212791Y0099148D01*
X0208855Y0099148D01*
X0208855Y0104070D01*
X0212791Y0104070D01*
X0212791Y0100131D02*
X0208855Y0100131D01*
X0208855Y0101114D02*
X0212791Y0101114D01*
X0212791Y0102097D02*
X0208855Y0102097D01*
X0208855Y0103080D02*
X0212791Y0103080D01*
X0212791Y0104063D02*
X0208855Y0104063D01*
X0212791Y0096570D02*
X0212791Y0091648D01*
X0208855Y0091648D01*
X0208855Y0096570D01*
X0212791Y0096570D01*
X0212791Y0092631D02*
X0208855Y0092631D01*
X0208855Y0093614D02*
X0212791Y0093614D01*
X0212791Y0094597D02*
X0208855Y0094597D01*
X0208855Y0095580D02*
X0212791Y0095580D01*
X0212791Y0096563D02*
X0208855Y0096563D01*
X0212791Y0089070D02*
X0212791Y0084148D01*
X0208855Y0084148D01*
X0208855Y0089070D01*
X0212791Y0089070D01*
X0212791Y0085131D02*
X0208855Y0085131D01*
X0208855Y0086114D02*
X0212791Y0086114D01*
X0212791Y0087097D02*
X0208855Y0087097D01*
X0208855Y0088080D02*
X0212791Y0088080D01*
X0212791Y0089063D02*
X0208855Y0089063D01*
X0212791Y0081570D02*
X0212791Y0076648D01*
X0208855Y0076648D01*
X0208855Y0081570D01*
X0212791Y0081570D01*
X0212791Y0077631D02*
X0208855Y0077631D01*
X0208855Y0078614D02*
X0212791Y0078614D01*
X0212791Y0079597D02*
X0208855Y0079597D01*
X0208855Y0080580D02*
X0212791Y0080580D01*
X0212791Y0081563D02*
X0208855Y0081563D01*
X0250311Y0081570D02*
X0250311Y0076648D01*
X0246375Y0076648D01*
X0246375Y0081570D01*
X0250311Y0081570D01*
X0250311Y0077631D02*
X0246375Y0077631D01*
X0246375Y0078614D02*
X0250311Y0078614D01*
X0250311Y0079597D02*
X0246375Y0079597D01*
X0246375Y0080580D02*
X0250311Y0080580D01*
X0250311Y0081563D02*
X0246375Y0081563D01*
X0250311Y0084148D02*
X0250311Y0089070D01*
X0250311Y0084148D02*
X0246375Y0084148D01*
X0246375Y0089070D01*
X0250311Y0089070D01*
X0250311Y0085131D02*
X0246375Y0085131D01*
X0246375Y0086114D02*
X0250311Y0086114D01*
X0250311Y0087097D02*
X0246375Y0087097D01*
X0246375Y0088080D02*
X0250311Y0088080D01*
X0250311Y0089063D02*
X0246375Y0089063D01*
X0250311Y0091648D02*
X0250311Y0096570D01*
X0250311Y0091648D02*
X0246375Y0091648D01*
X0246375Y0096570D01*
X0250311Y0096570D01*
X0250311Y0092631D02*
X0246375Y0092631D01*
X0246375Y0093614D02*
X0250311Y0093614D01*
X0250311Y0094597D02*
X0246375Y0094597D01*
X0246375Y0095580D02*
X0250311Y0095580D01*
X0250311Y0096563D02*
X0246375Y0096563D01*
X0250311Y0099148D02*
X0250311Y0104070D01*
X0250311Y0099148D02*
X0246375Y0099148D01*
X0246375Y0104070D01*
X0250311Y0104070D01*
X0250311Y0100131D02*
X0246375Y0100131D01*
X0246375Y0101114D02*
X0250311Y0101114D01*
X0250311Y0102097D02*
X0246375Y0102097D01*
X0246375Y0103080D02*
X0250311Y0103080D01*
X0250311Y0104063D02*
X0246375Y0104063D01*
X0250311Y0106648D02*
X0250311Y0111570D01*
X0250311Y0106648D02*
X0246375Y0106648D01*
X0246375Y0111570D01*
X0250311Y0111570D01*
X0250311Y0107631D02*
X0246375Y0107631D01*
X0246375Y0108614D02*
X0250311Y0108614D01*
X0250311Y0109597D02*
X0246375Y0109597D01*
X0246375Y0110580D02*
X0250311Y0110580D01*
X0250311Y0111563D02*
X0246375Y0111563D01*
X0257791Y0111570D02*
X0257791Y0106648D01*
X0253855Y0106648D01*
X0253855Y0111570D01*
X0257791Y0111570D01*
X0257791Y0107631D02*
X0253855Y0107631D01*
X0253855Y0108614D02*
X0257791Y0108614D01*
X0257791Y0109597D02*
X0253855Y0109597D01*
X0253855Y0110580D02*
X0257791Y0110580D01*
X0257791Y0111563D02*
X0253855Y0111563D01*
X0265311Y0111570D02*
X0265311Y0106648D01*
X0261375Y0106648D01*
X0261375Y0111570D01*
X0265311Y0111570D01*
X0265311Y0107631D02*
X0261375Y0107631D01*
X0261375Y0108614D02*
X0265311Y0108614D01*
X0265311Y0109597D02*
X0261375Y0109597D01*
X0261375Y0110580D02*
X0265311Y0110580D01*
X0265311Y0111563D02*
X0261375Y0111563D01*
X0272791Y0111570D02*
X0272791Y0106648D01*
X0268855Y0106648D01*
X0268855Y0111570D01*
X0272791Y0111570D01*
X0272791Y0107631D02*
X0268855Y0107631D01*
X0268855Y0108614D02*
X0272791Y0108614D01*
X0272791Y0109597D02*
X0268855Y0109597D01*
X0268855Y0110580D02*
X0272791Y0110580D01*
X0272791Y0111563D02*
X0268855Y0111563D01*
X0257791Y0104070D02*
X0257791Y0099148D01*
X0253855Y0099148D01*
X0253855Y0104070D01*
X0257791Y0104070D01*
X0257791Y0100131D02*
X0253855Y0100131D01*
X0253855Y0101114D02*
X0257791Y0101114D01*
X0257791Y0102097D02*
X0253855Y0102097D01*
X0253855Y0103080D02*
X0257791Y0103080D01*
X0257791Y0104063D02*
X0253855Y0104063D01*
X0257791Y0096570D02*
X0257791Y0091648D01*
X0253855Y0091648D01*
X0253855Y0096570D01*
X0257791Y0096570D01*
X0257791Y0092631D02*
X0253855Y0092631D01*
X0253855Y0093614D02*
X0257791Y0093614D01*
X0257791Y0094597D02*
X0253855Y0094597D01*
X0253855Y0095580D02*
X0257791Y0095580D01*
X0257791Y0096563D02*
X0253855Y0096563D01*
X0257791Y0089070D02*
X0257791Y0084148D01*
X0253855Y0084148D01*
X0253855Y0089070D01*
X0257791Y0089070D01*
X0257791Y0085131D02*
X0253855Y0085131D01*
X0253855Y0086114D02*
X0257791Y0086114D01*
X0257791Y0087097D02*
X0253855Y0087097D01*
X0253855Y0088080D02*
X0257791Y0088080D01*
X0257791Y0089063D02*
X0253855Y0089063D01*
X0257791Y0081570D02*
X0257791Y0076648D01*
X0253855Y0076648D01*
X0253855Y0081570D01*
X0257791Y0081570D01*
X0257791Y0077631D02*
X0253855Y0077631D01*
X0253855Y0078614D02*
X0257791Y0078614D01*
X0257791Y0079597D02*
X0253855Y0079597D01*
X0253855Y0080580D02*
X0257791Y0080580D01*
X0257791Y0081563D02*
X0253855Y0081563D01*
X0272122Y0072131D02*
X0277044Y0072131D01*
X0272122Y0072131D02*
X0272122Y0076067D01*
X0277044Y0076067D01*
X0277044Y0072131D01*
X0277044Y0073114D02*
X0272122Y0073114D01*
X0272122Y0074097D02*
X0277044Y0074097D01*
X0277044Y0075080D02*
X0272122Y0075080D01*
X0272122Y0076063D02*
X0277044Y0076063D01*
X0295311Y0076648D02*
X0295311Y0081570D01*
X0295311Y0076648D02*
X0291375Y0076648D01*
X0291375Y0081570D01*
X0295311Y0081570D01*
X0295311Y0077631D02*
X0291375Y0077631D01*
X0291375Y0078614D02*
X0295311Y0078614D01*
X0295311Y0079597D02*
X0291375Y0079597D01*
X0291375Y0080580D02*
X0295311Y0080580D01*
X0295311Y0081563D02*
X0291375Y0081563D01*
X0295311Y0084148D02*
X0295311Y0089070D01*
X0295311Y0084148D02*
X0291375Y0084148D01*
X0291375Y0089070D01*
X0295311Y0089070D01*
X0295311Y0085131D02*
X0291375Y0085131D01*
X0291375Y0086114D02*
X0295311Y0086114D01*
X0295311Y0087097D02*
X0291375Y0087097D01*
X0291375Y0088080D02*
X0295311Y0088080D01*
X0295311Y0089063D02*
X0291375Y0089063D01*
X0295311Y0091648D02*
X0295311Y0096570D01*
X0295311Y0091648D02*
X0291375Y0091648D01*
X0291375Y0096570D01*
X0295311Y0096570D01*
X0295311Y0092631D02*
X0291375Y0092631D01*
X0291375Y0093614D02*
X0295311Y0093614D01*
X0295311Y0094597D02*
X0291375Y0094597D01*
X0291375Y0095580D02*
X0295311Y0095580D01*
X0295311Y0096563D02*
X0291375Y0096563D01*
X0295311Y0099148D02*
X0295311Y0104070D01*
X0295311Y0099148D02*
X0291375Y0099148D01*
X0291375Y0104070D01*
X0295311Y0104070D01*
X0295311Y0100131D02*
X0291375Y0100131D01*
X0291375Y0101114D02*
X0295311Y0101114D01*
X0295311Y0102097D02*
X0291375Y0102097D01*
X0291375Y0103080D02*
X0295311Y0103080D01*
X0295311Y0104063D02*
X0291375Y0104063D01*
X0302791Y0104070D02*
X0302791Y0099148D01*
X0298855Y0099148D01*
X0298855Y0104070D01*
X0302791Y0104070D01*
X0302791Y0100131D02*
X0298855Y0100131D01*
X0298855Y0101114D02*
X0302791Y0101114D01*
X0302791Y0102097D02*
X0298855Y0102097D01*
X0298855Y0103080D02*
X0302791Y0103080D01*
X0302791Y0104063D02*
X0298855Y0104063D01*
X0302811Y0106648D02*
X0302811Y0111570D01*
X0302811Y0106648D02*
X0298875Y0106648D01*
X0298875Y0111570D01*
X0302811Y0111570D01*
X0302811Y0107631D02*
X0298875Y0107631D01*
X0298875Y0108614D02*
X0302811Y0108614D01*
X0302811Y0109597D02*
X0298875Y0109597D01*
X0298875Y0110580D02*
X0302811Y0110580D01*
X0302811Y0111563D02*
X0298875Y0111563D01*
X0310291Y0111570D02*
X0310291Y0106648D01*
X0306355Y0106648D01*
X0306355Y0111570D01*
X0310291Y0111570D01*
X0310291Y0107631D02*
X0306355Y0107631D01*
X0306355Y0108614D02*
X0310291Y0108614D01*
X0310291Y0109597D02*
X0306355Y0109597D01*
X0306355Y0110580D02*
X0310291Y0110580D01*
X0310291Y0111563D02*
X0306355Y0111563D01*
X0317811Y0111570D02*
X0317811Y0106648D01*
X0313875Y0106648D01*
X0313875Y0111570D01*
X0317811Y0111570D01*
X0317811Y0107631D02*
X0313875Y0107631D01*
X0313875Y0108614D02*
X0317811Y0108614D01*
X0317811Y0109597D02*
X0313875Y0109597D01*
X0313875Y0110580D02*
X0317811Y0110580D01*
X0317811Y0111563D02*
X0313875Y0111563D01*
X0325291Y0111570D02*
X0325291Y0106648D01*
X0321355Y0106648D01*
X0321355Y0111570D01*
X0325291Y0111570D01*
X0325291Y0107631D02*
X0321355Y0107631D01*
X0321355Y0108614D02*
X0325291Y0108614D01*
X0325291Y0109597D02*
X0321355Y0109597D01*
X0321355Y0110580D02*
X0325291Y0110580D01*
X0325291Y0111563D02*
X0321355Y0111563D01*
X0347811Y0104070D02*
X0347811Y0099148D01*
X0343875Y0099148D01*
X0343875Y0104070D01*
X0347811Y0104070D01*
X0347811Y0100131D02*
X0343875Y0100131D01*
X0343875Y0101114D02*
X0347811Y0101114D01*
X0347811Y0102097D02*
X0343875Y0102097D01*
X0343875Y0103080D02*
X0347811Y0103080D01*
X0347811Y0104063D02*
X0343875Y0104063D01*
X0355291Y0104070D02*
X0355291Y0099148D01*
X0351355Y0099148D01*
X0351355Y0104070D01*
X0355291Y0104070D01*
X0355291Y0100131D02*
X0351355Y0100131D01*
X0351355Y0101114D02*
X0355291Y0101114D01*
X0355291Y0102097D02*
X0351355Y0102097D01*
X0351355Y0103080D02*
X0355291Y0103080D01*
X0355291Y0104063D02*
X0351355Y0104063D01*
X0355311Y0106648D02*
X0355311Y0111570D01*
X0355311Y0106648D02*
X0351375Y0106648D01*
X0351375Y0111570D01*
X0355311Y0111570D01*
X0355311Y0107631D02*
X0351375Y0107631D01*
X0351375Y0108614D02*
X0355311Y0108614D01*
X0355311Y0109597D02*
X0351375Y0109597D01*
X0351375Y0110580D02*
X0355311Y0110580D01*
X0355311Y0111563D02*
X0351375Y0111563D01*
X0362791Y0111570D02*
X0362791Y0106648D01*
X0358855Y0106648D01*
X0358855Y0111570D01*
X0362791Y0111570D01*
X0362791Y0107631D02*
X0358855Y0107631D01*
X0358855Y0108614D02*
X0362791Y0108614D01*
X0362791Y0109597D02*
X0358855Y0109597D01*
X0358855Y0110580D02*
X0362791Y0110580D01*
X0362791Y0111563D02*
X0358855Y0111563D01*
X0366375Y0111570D02*
X0366375Y0106648D01*
X0366375Y0111570D02*
X0370311Y0111570D01*
X0370311Y0106648D01*
X0366375Y0106648D01*
X0366375Y0107631D02*
X0370311Y0107631D01*
X0370311Y0108614D02*
X0366375Y0108614D01*
X0366375Y0109597D02*
X0370311Y0109597D01*
X0370311Y0110580D02*
X0366375Y0110580D01*
X0366375Y0111563D02*
X0370311Y0111563D01*
X0373855Y0111570D02*
X0373855Y0106648D01*
X0373855Y0111570D02*
X0377791Y0111570D01*
X0377791Y0106648D01*
X0373855Y0106648D01*
X0373855Y0107631D02*
X0377791Y0107631D01*
X0377791Y0108614D02*
X0373855Y0108614D01*
X0373855Y0109597D02*
X0377791Y0109597D01*
X0377791Y0110580D02*
X0373855Y0110580D01*
X0373855Y0111563D02*
X0377791Y0111563D01*
X0400311Y0104070D02*
X0400311Y0099148D01*
X0396375Y0099148D01*
X0396375Y0104070D01*
X0400311Y0104070D01*
X0400311Y0100131D02*
X0396375Y0100131D01*
X0396375Y0101114D02*
X0400311Y0101114D01*
X0400311Y0102097D02*
X0396375Y0102097D01*
X0396375Y0103080D02*
X0400311Y0103080D01*
X0400311Y0104063D02*
X0396375Y0104063D01*
X0407791Y0104070D02*
X0407791Y0099148D01*
X0403855Y0099148D01*
X0403855Y0104070D01*
X0407791Y0104070D01*
X0407791Y0100131D02*
X0403855Y0100131D01*
X0403855Y0101114D02*
X0407791Y0101114D01*
X0407791Y0102097D02*
X0403855Y0102097D01*
X0403855Y0103080D02*
X0407791Y0103080D01*
X0407791Y0104063D02*
X0403855Y0104063D01*
X0407811Y0106648D02*
X0407811Y0111570D01*
X0407811Y0106648D02*
X0403875Y0106648D01*
X0403875Y0111570D01*
X0407811Y0111570D01*
X0407811Y0107631D02*
X0403875Y0107631D01*
X0403875Y0108614D02*
X0407811Y0108614D01*
X0407811Y0109597D02*
X0403875Y0109597D01*
X0403875Y0110580D02*
X0407811Y0110580D01*
X0407811Y0111563D02*
X0403875Y0111563D01*
X0415291Y0111570D02*
X0415291Y0106648D01*
X0411355Y0106648D01*
X0411355Y0111570D01*
X0415291Y0111570D01*
X0415291Y0107631D02*
X0411355Y0107631D01*
X0411355Y0108614D02*
X0415291Y0108614D01*
X0415291Y0109597D02*
X0411355Y0109597D01*
X0411355Y0110580D02*
X0415291Y0110580D01*
X0415291Y0111563D02*
X0411355Y0111563D01*
X0418875Y0111570D02*
X0418875Y0106648D01*
X0418875Y0111570D02*
X0422811Y0111570D01*
X0422811Y0106648D01*
X0418875Y0106648D01*
X0418875Y0107631D02*
X0422811Y0107631D01*
X0422811Y0108614D02*
X0418875Y0108614D01*
X0418875Y0109597D02*
X0422811Y0109597D01*
X0422811Y0110580D02*
X0418875Y0110580D01*
X0418875Y0111563D02*
X0422811Y0111563D01*
X0426355Y0111570D02*
X0426355Y0106648D01*
X0426355Y0111570D02*
X0430291Y0111570D01*
X0430291Y0106648D01*
X0426355Y0106648D01*
X0426355Y0107631D02*
X0430291Y0107631D01*
X0430291Y0108614D02*
X0426355Y0108614D01*
X0426355Y0109597D02*
X0430291Y0109597D01*
X0430291Y0110580D02*
X0426355Y0110580D01*
X0426355Y0111563D02*
X0430291Y0111563D01*
X0400291Y0096570D02*
X0400291Y0091648D01*
X0396355Y0091648D01*
X0396355Y0096570D01*
X0400291Y0096570D01*
X0400291Y0092631D02*
X0396355Y0092631D01*
X0396355Y0093614D02*
X0400291Y0093614D01*
X0400291Y0094597D02*
X0396355Y0094597D01*
X0396355Y0095580D02*
X0400291Y0095580D01*
X0400291Y0096563D02*
X0396355Y0096563D01*
X0392811Y0096570D02*
X0392811Y0091648D01*
X0388875Y0091648D01*
X0388875Y0096570D01*
X0392811Y0096570D01*
X0392811Y0092631D02*
X0388875Y0092631D01*
X0388875Y0093614D02*
X0392811Y0093614D01*
X0392811Y0094597D02*
X0388875Y0094597D01*
X0388875Y0095580D02*
X0392811Y0095580D01*
X0392811Y0096563D02*
X0388875Y0096563D01*
X0392811Y0089070D02*
X0392811Y0084148D01*
X0388875Y0084148D01*
X0388875Y0089070D01*
X0392811Y0089070D01*
X0392811Y0085131D02*
X0388875Y0085131D01*
X0388875Y0086114D02*
X0392811Y0086114D01*
X0392811Y0087097D02*
X0388875Y0087097D01*
X0388875Y0088080D02*
X0392811Y0088080D01*
X0392811Y0089063D02*
X0388875Y0089063D01*
X0400291Y0089070D02*
X0400291Y0084148D01*
X0396355Y0084148D01*
X0396355Y0089070D01*
X0400291Y0089070D01*
X0400291Y0085131D02*
X0396355Y0085131D01*
X0396355Y0086114D02*
X0400291Y0086114D01*
X0400291Y0087097D02*
X0396355Y0087097D01*
X0396355Y0088080D02*
X0400291Y0088080D01*
X0400291Y0089063D02*
X0396355Y0089063D01*
X0400291Y0081570D02*
X0400291Y0076648D01*
X0396355Y0076648D01*
X0396355Y0081570D01*
X0400291Y0081570D01*
X0400291Y0077631D02*
X0396355Y0077631D01*
X0396355Y0078614D02*
X0400291Y0078614D01*
X0400291Y0079597D02*
X0396355Y0079597D01*
X0396355Y0080580D02*
X0400291Y0080580D01*
X0400291Y0081563D02*
X0396355Y0081563D01*
X0392811Y0081570D02*
X0392811Y0076648D01*
X0388875Y0076648D01*
X0388875Y0081570D01*
X0392811Y0081570D01*
X0392811Y0077631D02*
X0388875Y0077631D01*
X0388875Y0078614D02*
X0392811Y0078614D01*
X0392811Y0079597D02*
X0388875Y0079597D01*
X0388875Y0080580D02*
X0392811Y0080580D01*
X0392811Y0081563D02*
X0388875Y0081563D01*
X0355291Y0081570D02*
X0355291Y0076648D01*
X0351355Y0076648D01*
X0351355Y0081570D01*
X0355291Y0081570D01*
X0355291Y0077631D02*
X0351355Y0077631D01*
X0351355Y0078614D02*
X0355291Y0078614D01*
X0355291Y0079597D02*
X0351355Y0079597D01*
X0351355Y0080580D02*
X0355291Y0080580D01*
X0355291Y0081563D02*
X0351355Y0081563D01*
X0347811Y0081570D02*
X0347811Y0076648D01*
X0343875Y0076648D01*
X0343875Y0081570D01*
X0347811Y0081570D01*
X0347811Y0077631D02*
X0343875Y0077631D01*
X0343875Y0078614D02*
X0347811Y0078614D01*
X0347811Y0079597D02*
X0343875Y0079597D01*
X0343875Y0080580D02*
X0347811Y0080580D01*
X0347811Y0081563D02*
X0343875Y0081563D01*
X0347811Y0084148D02*
X0347811Y0089070D01*
X0347811Y0084148D02*
X0343875Y0084148D01*
X0343875Y0089070D01*
X0347811Y0089070D01*
X0347811Y0085131D02*
X0343875Y0085131D01*
X0343875Y0086114D02*
X0347811Y0086114D01*
X0347811Y0087097D02*
X0343875Y0087097D01*
X0343875Y0088080D02*
X0347811Y0088080D01*
X0347811Y0089063D02*
X0343875Y0089063D01*
X0347811Y0091648D02*
X0347811Y0096570D01*
X0347811Y0091648D02*
X0343875Y0091648D01*
X0343875Y0096570D01*
X0347811Y0096570D01*
X0347811Y0092631D02*
X0343875Y0092631D01*
X0343875Y0093614D02*
X0347811Y0093614D01*
X0347811Y0094597D02*
X0343875Y0094597D01*
X0343875Y0095580D02*
X0347811Y0095580D01*
X0347811Y0096563D02*
X0343875Y0096563D01*
X0355291Y0096570D02*
X0355291Y0091648D01*
X0351355Y0091648D01*
X0351355Y0096570D01*
X0355291Y0096570D01*
X0355291Y0092631D02*
X0351355Y0092631D01*
X0351355Y0093614D02*
X0355291Y0093614D01*
X0355291Y0094597D02*
X0351355Y0094597D01*
X0351355Y0095580D02*
X0355291Y0095580D01*
X0355291Y0096563D02*
X0351355Y0096563D01*
X0355291Y0089070D02*
X0355291Y0084148D01*
X0351355Y0084148D01*
X0351355Y0089070D01*
X0355291Y0089070D01*
X0355291Y0085131D02*
X0351355Y0085131D01*
X0351355Y0086114D02*
X0355291Y0086114D01*
X0355291Y0087097D02*
X0351355Y0087097D01*
X0351355Y0088080D02*
X0355291Y0088080D01*
X0355291Y0089063D02*
X0351355Y0089063D01*
X0356541Y0069070D02*
X0356541Y0064148D01*
X0352605Y0064148D01*
X0352605Y0069070D01*
X0356541Y0069070D01*
X0356541Y0065131D02*
X0352605Y0065131D01*
X0352605Y0066114D02*
X0356541Y0066114D01*
X0356541Y0067097D02*
X0352605Y0067097D01*
X0352605Y0068080D02*
X0356541Y0068080D01*
X0356541Y0069063D02*
X0352605Y0069063D01*
X0349061Y0069070D02*
X0349061Y0064148D01*
X0345125Y0064148D01*
X0345125Y0069070D01*
X0349061Y0069070D01*
X0349061Y0065131D02*
X0345125Y0065131D01*
X0345125Y0066114D02*
X0349061Y0066114D01*
X0349061Y0067097D02*
X0345125Y0067097D01*
X0345125Y0068080D02*
X0349061Y0068080D01*
X0349061Y0069063D02*
X0345125Y0069063D01*
X0302791Y0076648D02*
X0302791Y0081570D01*
X0302791Y0076648D02*
X0298855Y0076648D01*
X0298855Y0081570D01*
X0302791Y0081570D01*
X0302791Y0077631D02*
X0298855Y0077631D01*
X0298855Y0078614D02*
X0302791Y0078614D01*
X0302791Y0079597D02*
X0298855Y0079597D01*
X0298855Y0080580D02*
X0302791Y0080580D01*
X0302791Y0081563D02*
X0298855Y0081563D01*
X0302791Y0084148D02*
X0302791Y0089070D01*
X0302791Y0084148D02*
X0298855Y0084148D01*
X0298855Y0089070D01*
X0302791Y0089070D01*
X0302791Y0085131D02*
X0298855Y0085131D01*
X0298855Y0086114D02*
X0302791Y0086114D01*
X0302791Y0087097D02*
X0298855Y0087097D01*
X0298855Y0088080D02*
X0302791Y0088080D01*
X0302791Y0089063D02*
X0298855Y0089063D01*
X0302791Y0091648D02*
X0302791Y0096570D01*
X0302791Y0091648D02*
X0298855Y0091648D01*
X0298855Y0096570D01*
X0302791Y0096570D01*
X0302791Y0092631D02*
X0298855Y0092631D01*
X0298855Y0093614D02*
X0302791Y0093614D01*
X0302791Y0094597D02*
X0298855Y0094597D01*
X0298855Y0095580D02*
X0302791Y0095580D01*
X0302791Y0096563D02*
X0298855Y0096563D01*
X0277044Y0064651D02*
X0272122Y0064651D01*
X0272122Y0068587D01*
X0277044Y0068587D01*
X0277044Y0064651D01*
X0277044Y0065634D02*
X0272122Y0065634D01*
X0272122Y0066617D02*
X0277044Y0066617D01*
X0277044Y0067600D02*
X0272122Y0067600D01*
X0272122Y0068583D02*
X0277044Y0068583D01*
X0277044Y0043381D02*
X0272122Y0043381D01*
X0272122Y0047317D01*
X0277044Y0047317D01*
X0277044Y0043381D01*
X0277044Y0044364D02*
X0272122Y0044364D01*
X0272122Y0045347D02*
X0277044Y0045347D01*
X0277044Y0046330D02*
X0272122Y0046330D01*
X0272122Y0047313D02*
X0277044Y0047313D01*
X0277044Y0035901D02*
X0272122Y0035901D01*
X0272122Y0039837D01*
X0277044Y0039837D01*
X0277044Y0035901D01*
X0277044Y0036884D02*
X0272122Y0036884D01*
X0272122Y0037867D02*
X0277044Y0037867D01*
X0277044Y0038850D02*
X0272122Y0038850D01*
X0272122Y0039833D02*
X0277044Y0039833D01*
X0287122Y0028381D02*
X0292044Y0028381D01*
X0287122Y0028381D02*
X0287122Y0032317D01*
X0292044Y0032317D01*
X0292044Y0028381D01*
X0292044Y0029364D02*
X0287122Y0029364D01*
X0287122Y0030347D02*
X0292044Y0030347D01*
X0292044Y0031330D02*
X0287122Y0031330D01*
X0287122Y0032313D02*
X0292044Y0032313D01*
X0292044Y0020901D02*
X0287122Y0020901D01*
X0287122Y0024837D01*
X0292044Y0024837D01*
X0292044Y0020901D01*
X0292044Y0021884D02*
X0287122Y0021884D01*
X0287122Y0022867D02*
X0292044Y0022867D01*
X0292044Y0023850D02*
X0287122Y0023850D01*
X0287122Y0024833D02*
X0292044Y0024833D01*
X0247044Y0020901D02*
X0242122Y0020901D01*
X0242122Y0024837D01*
X0247044Y0024837D01*
X0247044Y0020901D01*
X0247044Y0021884D02*
X0242122Y0021884D01*
X0242122Y0022867D02*
X0247044Y0022867D01*
X0247044Y0023850D02*
X0242122Y0023850D01*
X0242122Y0024833D02*
X0247044Y0024833D01*
X0247044Y0028381D02*
X0242122Y0028381D01*
X0242122Y0032317D01*
X0247044Y0032317D01*
X0247044Y0028381D01*
X0247044Y0029364D02*
X0242122Y0029364D01*
X0242122Y0030347D02*
X0247044Y0030347D01*
X0247044Y0031330D02*
X0242122Y0031330D01*
X0242122Y0032313D02*
X0247044Y0032313D01*
X0194544Y0028381D02*
X0189622Y0028381D01*
X0189622Y0032317D01*
X0194544Y0032317D01*
X0194544Y0028381D01*
X0194544Y0029364D02*
X0189622Y0029364D01*
X0189622Y0030347D02*
X0194544Y0030347D01*
X0194544Y0031330D02*
X0189622Y0031330D01*
X0189622Y0032313D02*
X0194544Y0032313D01*
X0194544Y0020901D02*
X0189622Y0020901D01*
X0189622Y0024837D01*
X0194544Y0024837D01*
X0194544Y0020901D01*
X0194544Y0021884D02*
X0189622Y0021884D01*
X0189622Y0022867D02*
X0194544Y0022867D01*
X0194544Y0023850D02*
X0189622Y0023850D01*
X0189622Y0024833D02*
X0194544Y0024833D01*
X0177044Y0037151D02*
X0172122Y0037151D01*
X0172122Y0041087D01*
X0177044Y0041087D01*
X0177044Y0037151D01*
X0177044Y0038134D02*
X0172122Y0038134D01*
X0172122Y0039117D02*
X0177044Y0039117D01*
X0177044Y0040100D02*
X0172122Y0040100D01*
X0172122Y0041083D02*
X0177044Y0041083D01*
X0177044Y0044631D02*
X0172122Y0044631D01*
X0172122Y0048567D01*
X0177044Y0048567D01*
X0177044Y0044631D01*
X0177044Y0045614D02*
X0172122Y0045614D01*
X0172122Y0046597D02*
X0177044Y0046597D01*
X0177044Y0047580D02*
X0172122Y0047580D01*
X0172122Y0048563D02*
X0177044Y0048563D01*
X0339622Y0028381D02*
X0344544Y0028381D01*
X0339622Y0028381D02*
X0339622Y0032317D01*
X0344544Y0032317D01*
X0344544Y0028381D01*
X0344544Y0029364D02*
X0339622Y0029364D01*
X0339622Y0030347D02*
X0344544Y0030347D01*
X0344544Y0031330D02*
X0339622Y0031330D01*
X0339622Y0032313D02*
X0344544Y0032313D01*
X0344544Y0020901D02*
X0339622Y0020901D01*
X0339622Y0024837D01*
X0344544Y0024837D01*
X0344544Y0020901D01*
X0344544Y0021884D02*
X0339622Y0021884D01*
X0339622Y0022867D02*
X0344544Y0022867D01*
X0344544Y0023850D02*
X0339622Y0023850D01*
X0339622Y0024833D02*
X0344544Y0024833D01*
X0349061Y0042898D02*
X0349061Y0047820D01*
X0349061Y0042898D02*
X0345125Y0042898D01*
X0345125Y0047820D01*
X0349061Y0047820D01*
X0349061Y0043881D02*
X0345125Y0043881D01*
X0345125Y0044864D02*
X0349061Y0044864D01*
X0349061Y0045847D02*
X0345125Y0045847D01*
X0345125Y0046830D02*
X0349061Y0046830D01*
X0349061Y0047813D02*
X0345125Y0047813D01*
X0356541Y0047820D02*
X0356541Y0042898D01*
X0352605Y0042898D01*
X0352605Y0047820D01*
X0356541Y0047820D01*
X0356541Y0043881D02*
X0352605Y0043881D01*
X0352605Y0044864D02*
X0356541Y0044864D01*
X0356541Y0045847D02*
X0352605Y0045847D01*
X0352605Y0046830D02*
X0356541Y0046830D01*
X0356541Y0047813D02*
X0352605Y0047813D01*
X0384622Y0028381D02*
X0389544Y0028381D01*
X0384622Y0028381D02*
X0384622Y0032317D01*
X0389544Y0032317D01*
X0389544Y0028381D01*
X0389544Y0029364D02*
X0384622Y0029364D01*
X0384622Y0030347D02*
X0389544Y0030347D01*
X0389544Y0031330D02*
X0384622Y0031330D01*
X0384622Y0032313D02*
X0389544Y0032313D01*
X0400872Y0028381D02*
X0405794Y0028381D01*
X0400872Y0028381D02*
X0400872Y0032317D01*
X0405794Y0032317D01*
X0405794Y0028381D01*
X0405794Y0029364D02*
X0400872Y0029364D01*
X0400872Y0030347D02*
X0405794Y0030347D01*
X0405794Y0031330D02*
X0400872Y0031330D01*
X0400872Y0032313D02*
X0405794Y0032313D01*
X0405794Y0020901D02*
X0400872Y0020901D01*
X0400872Y0024837D01*
X0405794Y0024837D01*
X0405794Y0020901D01*
X0405794Y0021884D02*
X0400872Y0021884D01*
X0400872Y0022867D02*
X0405794Y0022867D01*
X0405794Y0023850D02*
X0400872Y0023850D01*
X0400872Y0024833D02*
X0405794Y0024833D01*
X0389544Y0020901D02*
X0384622Y0020901D01*
X0384622Y0024837D01*
X0389544Y0024837D01*
X0389544Y0020901D01*
X0389544Y0021884D02*
X0384622Y0021884D01*
X0384622Y0022867D02*
X0389544Y0022867D01*
X0389544Y0023850D02*
X0384622Y0023850D01*
X0384622Y0024833D02*
X0389544Y0024833D01*
X0463875Y0025320D02*
X0463875Y0020398D01*
X0463875Y0025320D02*
X0467811Y0025320D01*
X0467811Y0020398D01*
X0463875Y0020398D01*
X0463875Y0021381D02*
X0467811Y0021381D01*
X0467811Y0022364D02*
X0463875Y0022364D01*
X0463875Y0023347D02*
X0467811Y0023347D01*
X0467811Y0024330D02*
X0463875Y0024330D01*
X0463875Y0025313D02*
X0467811Y0025313D01*
X0471355Y0025320D02*
X0471355Y0020398D01*
X0471355Y0025320D02*
X0475291Y0025320D01*
X0475291Y0020398D01*
X0471355Y0020398D01*
X0471355Y0021381D02*
X0475291Y0021381D01*
X0475291Y0022364D02*
X0471355Y0022364D01*
X0471355Y0023347D02*
X0475291Y0023347D01*
X0475291Y0024330D02*
X0471355Y0024330D01*
X0471355Y0025313D02*
X0475291Y0025313D01*
D13*
X0408845Y0043109D03*
X0397822Y0043109D03*
X0397822Y0070359D03*
X0408845Y0070359D03*
D14*
X0435567Y0074794D02*
X0435567Y0060424D01*
X0433599Y0060424D01*
X0433599Y0074794D01*
X0435567Y0074794D01*
X0435567Y0062392D02*
X0433599Y0062392D01*
X0433599Y0064360D02*
X0435567Y0064360D01*
X0435567Y0066328D02*
X0433599Y0066328D01*
X0433599Y0068296D02*
X0435567Y0068296D01*
X0435567Y0070264D02*
X0433599Y0070264D01*
X0433599Y0072232D02*
X0435567Y0072232D01*
X0435567Y0074200D02*
X0433599Y0074200D01*
X0445567Y0074794D02*
X0445567Y0060424D01*
X0443599Y0060424D01*
X0443599Y0074794D01*
X0445567Y0074794D01*
X0445567Y0062392D02*
X0443599Y0062392D01*
X0443599Y0064360D02*
X0445567Y0064360D01*
X0445567Y0066328D02*
X0443599Y0066328D01*
X0443599Y0068296D02*
X0445567Y0068296D01*
X0445567Y0070264D02*
X0443599Y0070264D01*
X0443599Y0072232D02*
X0445567Y0072232D01*
X0445567Y0074200D02*
X0443599Y0074200D01*
X0455567Y0074794D02*
X0455567Y0060424D01*
X0453599Y0060424D01*
X0453599Y0074794D01*
X0455567Y0074794D01*
X0455567Y0062392D02*
X0453599Y0062392D01*
X0453599Y0064360D02*
X0455567Y0064360D01*
X0455567Y0066328D02*
X0453599Y0066328D01*
X0453599Y0068296D02*
X0455567Y0068296D01*
X0455567Y0070264D02*
X0453599Y0070264D01*
X0453599Y0072232D02*
X0455567Y0072232D01*
X0455567Y0074200D02*
X0453599Y0074200D01*
X0465567Y0074794D02*
X0465567Y0060424D01*
X0463599Y0060424D01*
X0463599Y0074794D01*
X0465567Y0074794D01*
X0465567Y0062392D02*
X0463599Y0062392D01*
X0463599Y0064360D02*
X0465567Y0064360D01*
X0465567Y0066328D02*
X0463599Y0066328D01*
X0463599Y0068296D02*
X0465567Y0068296D01*
X0465567Y0070264D02*
X0463599Y0070264D01*
X0463599Y0072232D02*
X0465567Y0072232D01*
X0465567Y0074200D02*
X0463599Y0074200D01*
X0475567Y0074794D02*
X0475567Y0060424D01*
X0473599Y0060424D01*
X0473599Y0074794D01*
X0475567Y0074794D01*
X0475567Y0062392D02*
X0473599Y0062392D01*
X0473599Y0064360D02*
X0475567Y0064360D01*
X0475567Y0066328D02*
X0473599Y0066328D01*
X0473599Y0068296D02*
X0475567Y0068296D01*
X0475567Y0070264D02*
X0473599Y0070264D01*
X0473599Y0072232D02*
X0475567Y0072232D01*
X0475567Y0074200D02*
X0473599Y0074200D01*
X0475567Y0052794D02*
X0475567Y0038424D01*
X0473599Y0038424D01*
X0473599Y0052794D01*
X0475567Y0052794D01*
X0475567Y0040392D02*
X0473599Y0040392D01*
X0473599Y0042360D02*
X0475567Y0042360D01*
X0475567Y0044328D02*
X0473599Y0044328D01*
X0473599Y0046296D02*
X0475567Y0046296D01*
X0475567Y0048264D02*
X0473599Y0048264D01*
X0473599Y0050232D02*
X0475567Y0050232D01*
X0475567Y0052200D02*
X0473599Y0052200D01*
X0465567Y0052794D02*
X0465567Y0038424D01*
X0463599Y0038424D01*
X0463599Y0052794D01*
X0465567Y0052794D01*
X0465567Y0040392D02*
X0463599Y0040392D01*
X0463599Y0042360D02*
X0465567Y0042360D01*
X0465567Y0044328D02*
X0463599Y0044328D01*
X0463599Y0046296D02*
X0465567Y0046296D01*
X0465567Y0048264D02*
X0463599Y0048264D01*
X0463599Y0050232D02*
X0465567Y0050232D01*
X0465567Y0052200D02*
X0463599Y0052200D01*
X0455567Y0052794D02*
X0455567Y0038424D01*
X0453599Y0038424D01*
X0453599Y0052794D01*
X0455567Y0052794D01*
X0455567Y0040392D02*
X0453599Y0040392D01*
X0453599Y0042360D02*
X0455567Y0042360D01*
X0455567Y0044328D02*
X0453599Y0044328D01*
X0453599Y0046296D02*
X0455567Y0046296D01*
X0455567Y0048264D02*
X0453599Y0048264D01*
X0453599Y0050232D02*
X0455567Y0050232D01*
X0455567Y0052200D02*
X0453599Y0052200D01*
X0445567Y0052794D02*
X0445567Y0038424D01*
X0443599Y0038424D01*
X0443599Y0052794D01*
X0445567Y0052794D01*
X0445567Y0040392D02*
X0443599Y0040392D01*
X0443599Y0042360D02*
X0445567Y0042360D01*
X0445567Y0044328D02*
X0443599Y0044328D01*
X0443599Y0046296D02*
X0445567Y0046296D01*
X0445567Y0048264D02*
X0443599Y0048264D01*
X0443599Y0050232D02*
X0445567Y0050232D01*
X0445567Y0052200D02*
X0443599Y0052200D01*
X0435567Y0052794D02*
X0435567Y0038424D01*
X0433599Y0038424D01*
X0433599Y0052794D01*
X0435567Y0052794D01*
X0435567Y0040392D02*
X0433599Y0040392D01*
X0433599Y0042360D02*
X0435567Y0042360D01*
X0435567Y0044328D02*
X0433599Y0044328D01*
X0433599Y0046296D02*
X0435567Y0046296D01*
X0435567Y0048264D02*
X0433599Y0048264D01*
X0433599Y0050232D02*
X0435567Y0050232D01*
X0435567Y0052200D02*
X0433599Y0052200D01*
D15*
X0377083Y0046373D03*
X0372083Y0046373D03*
X0367083Y0046373D03*
X0362083Y0046373D03*
X0334583Y0046373D03*
X0329583Y0046373D03*
X0324583Y0046373D03*
X0319583Y0046373D03*
X0319583Y0066845D03*
X0324583Y0066845D03*
X0329583Y0066845D03*
X0334583Y0066845D03*
X0362083Y0066845D03*
X0367083Y0066845D03*
X0372083Y0066845D03*
X0377083Y0066845D03*
X0244583Y0066845D03*
X0239583Y0066845D03*
X0234583Y0066845D03*
X0229583Y0066845D03*
X0229583Y0046373D03*
X0234583Y0046373D03*
X0239583Y0046373D03*
X0244583Y0046373D03*
X0139583Y0046373D03*
X0134583Y0046373D03*
X0129583Y0046373D03*
X0124583Y0046373D03*
X0094583Y0046373D03*
X0089583Y0046373D03*
X0084583Y0046373D03*
X0079583Y0046373D03*
X0079583Y0066845D03*
X0084583Y0066845D03*
X0089583Y0066845D03*
X0094583Y0066845D03*
X0124583Y0066845D03*
X0129583Y0066845D03*
X0134583Y0066845D03*
X0139583Y0066845D03*
D16*
X0395853Y0060359D03*
X0395853Y0052859D03*
X0410814Y0052859D03*
X0410814Y0060359D03*
D17*
X0158388Y0026860D02*
X0157988Y0027261D01*
X0157187Y0027261D01*
X0156787Y0026860D01*
X0156787Y0026460D01*
X0157187Y0026060D01*
X0157988Y0026060D01*
X0158388Y0025659D01*
X0158388Y0025259D01*
X0157988Y0024859D01*
X0157187Y0024859D01*
X0156787Y0025259D01*
X0154825Y0024859D02*
X0154825Y0027261D01*
X0154024Y0027261D02*
X0155626Y0027261D01*
X0155626Y0028459D02*
X0154024Y0028459D01*
X0154024Y0030861D01*
X0155626Y0030861D01*
X0154825Y0029660D02*
X0154024Y0029660D01*
X0152863Y0028459D02*
X0152863Y0030861D01*
X0151262Y0030861D02*
X0152863Y0028459D01*
X0152463Y0027261D02*
X0151662Y0027261D01*
X0151262Y0026860D01*
X0151262Y0026460D01*
X0151662Y0026060D01*
X0152463Y0026060D01*
X0152863Y0025659D01*
X0152863Y0025259D01*
X0152463Y0024859D01*
X0151662Y0024859D01*
X0151262Y0025259D01*
X0150221Y0024859D02*
X0149420Y0024859D01*
X0149821Y0024859D02*
X0149821Y0027261D01*
X0150221Y0027261D02*
X0149420Y0027261D01*
X0149420Y0028459D02*
X0150221Y0028459D01*
X0149821Y0028459D02*
X0149821Y0030861D01*
X0150221Y0030861D02*
X0149420Y0030861D01*
X0148259Y0030861D02*
X0148259Y0028459D01*
X0148259Y0029660D02*
X0146658Y0029660D01*
X0146658Y0028459D02*
X0146658Y0030861D01*
X0145497Y0030460D02*
X0145097Y0030861D01*
X0144296Y0030861D01*
X0143896Y0030460D01*
X0143896Y0028859D01*
X0144296Y0028459D01*
X0145097Y0028459D01*
X0145497Y0028859D01*
X0145097Y0027261D02*
X0144296Y0027261D01*
X0143896Y0026860D01*
X0143896Y0026460D01*
X0144296Y0026060D01*
X0145097Y0026060D01*
X0145497Y0025659D01*
X0145497Y0025259D01*
X0145097Y0024859D01*
X0144296Y0024859D01*
X0143896Y0025259D01*
X0142735Y0024859D02*
X0142735Y0026460D01*
X0141934Y0027261D01*
X0141133Y0026460D01*
X0141133Y0024859D01*
X0141133Y0026060D02*
X0142735Y0026060D01*
X0142735Y0028459D02*
X0142735Y0030060D01*
X0141934Y0030861D01*
X0141133Y0030060D01*
X0141133Y0028459D01*
X0139972Y0028459D02*
X0139972Y0030861D01*
X0139172Y0030060D01*
X0138371Y0030861D01*
X0138371Y0028459D01*
X0138371Y0027261D02*
X0139972Y0027261D01*
X0139172Y0026060D02*
X0138371Y0026060D01*
X0138371Y0024859D02*
X0138371Y0027261D01*
X0141133Y0029660D02*
X0142735Y0029660D01*
X0145097Y0027261D02*
X0145497Y0026860D01*
X0146658Y0026860D02*
X0146658Y0025259D01*
X0147058Y0024859D01*
X0147859Y0024859D01*
X0148259Y0025259D01*
X0148259Y0026860D02*
X0147859Y0027261D01*
X0147058Y0027261D01*
X0146658Y0026860D01*
X0151262Y0028459D02*
X0151262Y0030861D01*
X0152463Y0027261D02*
X0152863Y0026860D01*
X0134448Y0026860D02*
X0134047Y0027261D01*
X0133247Y0027261D01*
X0132846Y0026860D01*
X0132846Y0026460D01*
X0133247Y0026060D01*
X0134047Y0026060D01*
X0134448Y0025659D01*
X0134448Y0025259D01*
X0134047Y0024859D01*
X0133247Y0024859D01*
X0132846Y0025259D01*
X0131685Y0024859D02*
X0130084Y0024859D01*
X0130084Y0027261D01*
X0129844Y0028459D02*
X0129844Y0030861D01*
X0131005Y0030861D02*
X0131805Y0030861D01*
X0131405Y0030861D02*
X0131405Y0028459D01*
X0131005Y0028459D02*
X0131805Y0028459D01*
X0132846Y0028859D02*
X0133247Y0028459D01*
X0134047Y0028459D01*
X0134448Y0028859D01*
X0134448Y0029259D01*
X0134047Y0029660D01*
X0133247Y0029660D01*
X0132846Y0030060D01*
X0132846Y0030460D01*
X0133247Y0030861D01*
X0134047Y0030861D01*
X0134448Y0030460D01*
X0129844Y0029660D02*
X0128242Y0029660D01*
X0128242Y0028459D02*
X0128242Y0030861D01*
X0127081Y0030861D02*
X0125480Y0030861D01*
X0126281Y0030861D02*
X0126281Y0028459D01*
X0126281Y0027261D02*
X0125480Y0027261D01*
X0125880Y0027261D02*
X0125880Y0024859D01*
X0125480Y0024859D02*
X0126281Y0024859D01*
X0127322Y0024859D02*
X0128923Y0024859D01*
X0127322Y0024859D02*
X0127322Y0027261D01*
X0124319Y0027261D02*
X0122718Y0025659D01*
X0123118Y0026060D02*
X0124319Y0024859D01*
X0122718Y0024859D02*
X0122718Y0027261D01*
D18*
X0120833Y0022859D02*
X0120833Y0032859D01*
X0160833Y0032859D01*
X0160833Y0022859D01*
X0120833Y0022859D01*
D19*
X0410814Y0052859D02*
X0434583Y0052859D01*
X0434583Y0067609D01*
X0444583Y0067609D02*
X0444583Y0045609D01*
X0454583Y0045609D02*
X0454583Y0067609D01*
X0464583Y0067609D02*
X0464583Y0045609D01*
X0474583Y0045609D02*
X0474583Y0067609D01*
X0474583Y0077859D01*
X0470833Y0081609D01*
X0427083Y0081609D01*
X0420833Y0075359D01*
X0420833Y0067859D01*
X0413333Y0060359D01*
X0473323Y0027332D02*
X0477031Y0031039D01*
X0481366Y0031039D01*
X0473323Y0027332D02*
X0473323Y0022859D01*
D20*
X0058883Y0005909D02*
X0058883Y0091193D01*
X0059552Y0090916D01*
X0061049Y0090916D01*
X0062431Y0091489D01*
X0063421Y0092479D01*
X0084824Y0092479D01*
X0086983Y0094637D01*
X0086983Y0090864D01*
X0087488Y0090359D01*
X0087083Y0089954D01*
X0086076Y0090961D01*
X0080571Y0090961D01*
X0079583Y0089974D01*
X0078595Y0090961D01*
X0073091Y0090961D01*
X0071983Y0089853D01*
X0071983Y0088809D01*
X0071172Y0088809D01*
X0069883Y0087520D01*
X0061133Y0078770D01*
X0061133Y0029348D01*
X0061015Y0029299D01*
X0059708Y0027992D01*
X0059000Y0026283D01*
X0059000Y0024434D01*
X0059708Y0022726D01*
X0061015Y0021418D01*
X0062724Y0020711D01*
X0064573Y0020711D01*
X0066281Y0021418D01*
X0067589Y0022726D01*
X0068296Y0024434D01*
X0068296Y0026283D01*
X0067589Y0027992D01*
X0066281Y0029299D01*
X0065533Y0029609D01*
X0065533Y0076947D01*
X0071983Y0083397D01*
X0071983Y0083364D01*
X0072488Y0082859D01*
X0071983Y0082353D01*
X0071983Y0078359D01*
X0069883Y0076260D01*
X0069883Y0064210D01*
X0068839Y0064210D01*
X0067731Y0063101D01*
X0067731Y0057597D01*
X0068718Y0056609D01*
X0067731Y0055621D01*
X0067731Y0050116D01*
X0068633Y0049214D01*
X0068633Y0045656D01*
X0068587Y0045610D01*
X0068183Y0044636D01*
X0068183Y0043582D01*
X0068587Y0042608D01*
X0069332Y0041862D01*
X0070306Y0041459D01*
X0071360Y0041459D01*
X0072334Y0041862D01*
X0073080Y0042608D01*
X0073483Y0043582D01*
X0073483Y0044636D01*
X0073080Y0045610D01*
X0073033Y0045656D01*
X0073033Y0049008D01*
X0075328Y0049008D01*
X0076436Y0050116D01*
X0076436Y0050669D01*
X0077002Y0050669D01*
X0077002Y0041462D01*
X0077383Y0041081D01*
X0077383Y0040020D01*
X0075825Y0038461D01*
X0073091Y0038461D01*
X0071983Y0037353D01*
X0071983Y0030864D01*
X0072488Y0030359D01*
X0071983Y0029853D01*
X0071983Y0023364D01*
X0073091Y0022256D01*
X0078595Y0022256D01*
X0079583Y0023244D01*
X0080571Y0022256D01*
X0081123Y0022256D01*
X0081123Y0021957D01*
X0093183Y0009897D01*
X0093183Y0009832D01*
X0093587Y0008858D01*
X0094332Y0008112D01*
X0095306Y0007709D01*
X0096360Y0007709D01*
X0097334Y0008112D01*
X0098080Y0008858D01*
X0098483Y0009832D01*
X0098483Y0010886D01*
X0098080Y0011860D01*
X0097334Y0012605D01*
X0096360Y0013009D01*
X0096295Y0013009D01*
X0086562Y0022742D01*
X0087184Y0023364D01*
X0087184Y0029853D01*
X0086678Y0030359D01*
X0087184Y0030864D01*
X0087184Y0033169D01*
X0104912Y0033169D01*
X0107791Y0030290D01*
X0107742Y0030282D01*
X0106986Y0030037D01*
X0106278Y0029676D01*
X0105635Y0029209D01*
X0105073Y0028647D01*
X0104606Y0028004D01*
X0104246Y0027297D01*
X0104000Y0026541D01*
X0103876Y0025756D01*
X0103876Y0025641D01*
X0108641Y0025641D01*
X0108641Y0025076D01*
X0103876Y0025076D01*
X0103876Y0024961D01*
X0104000Y0024177D01*
X0104246Y0023421D01*
X0104606Y0022713D01*
X0105073Y0022070D01*
X0105635Y0021508D01*
X0106278Y0021041D01*
X0106986Y0020681D01*
X0107742Y0020435D01*
X0108527Y0020311D01*
X0108641Y0020311D01*
X0108641Y0025076D01*
X0109207Y0025076D01*
X0109207Y0020311D01*
X0109321Y0020311D01*
X0110106Y0020435D01*
X0110862Y0020681D01*
X0111570Y0021041D01*
X0112212Y0021508D01*
X0112774Y0022070D01*
X0113241Y0022713D01*
X0113602Y0023421D01*
X0113633Y0023517D01*
X0113633Y0018197D01*
X0116133Y0015697D01*
X0117422Y0014409D01*
X0149392Y0014409D01*
X0150093Y0013707D01*
X0151476Y0013135D01*
X0152973Y0013135D01*
X0154355Y0013707D01*
X0155345Y0014697D01*
X0201604Y0014697D01*
X0202593Y0013707D01*
X0203976Y0013135D01*
X0205473Y0013135D01*
X0206855Y0013707D01*
X0207845Y0014697D01*
X0254104Y0014697D01*
X0255093Y0013707D01*
X0256476Y0013135D01*
X0257973Y0013135D01*
X0259355Y0013707D01*
X0260345Y0014697D01*
X0306604Y0014697D01*
X0307593Y0013707D01*
X0308976Y0013135D01*
X0310473Y0013135D01*
X0311855Y0013707D01*
X0312845Y0014697D01*
X0359104Y0014697D01*
X0360093Y0013707D01*
X0361476Y0013135D01*
X0362973Y0013135D01*
X0364355Y0013707D01*
X0365345Y0014697D01*
X0411604Y0014697D01*
X0412593Y0013707D01*
X0413976Y0013135D01*
X0415473Y0013135D01*
X0416855Y0013707D01*
X0417845Y0014697D01*
X0464104Y0014697D01*
X0465093Y0013707D01*
X0466476Y0013135D01*
X0467973Y0013135D01*
X0469355Y0013707D01*
X0470414Y0014766D01*
X0470986Y0016148D01*
X0470986Y0017645D01*
X0470630Y0018506D01*
X0476076Y0018506D01*
X0477184Y0019614D01*
X0477184Y0026103D01*
X0476478Y0026809D01*
X0478108Y0028439D01*
X0478646Y0028439D01*
X0479235Y0027849D01*
X0480618Y0027277D01*
X0482115Y0027277D01*
X0483497Y0027849D01*
X0484417Y0028769D01*
X0484417Y0005909D01*
X0058883Y0005909D01*
X0058883Y0007306D02*
X0484417Y0007306D01*
X0484417Y0008904D02*
X0098099Y0008904D01*
X0098483Y0010503D02*
X0484417Y0010503D01*
X0484417Y0012101D02*
X0097838Y0012101D01*
X0095833Y0010359D02*
X0083323Y0022869D01*
X0083323Y0026609D01*
X0087184Y0026488D02*
X0092550Y0026488D01*
X0092465Y0026283D02*
X0092465Y0024434D01*
X0093172Y0022726D01*
X0094480Y0021418D01*
X0096188Y0020711D01*
X0098037Y0020711D01*
X0099746Y0021418D01*
X0101053Y0022726D01*
X0101761Y0024434D01*
X0101761Y0026283D01*
X0101053Y0027992D01*
X0099746Y0029299D01*
X0098037Y0030007D01*
X0096188Y0030007D01*
X0094480Y0029299D01*
X0093172Y0027992D01*
X0092465Y0026283D01*
X0092465Y0024889D02*
X0087184Y0024889D01*
X0087111Y0023291D02*
X0092938Y0023291D01*
X0094206Y0021692D02*
X0087611Y0021692D01*
X0089209Y0020094D02*
X0113633Y0020094D01*
X0113633Y0021692D02*
X0112396Y0021692D01*
X0113536Y0023291D02*
X0113633Y0023291D01*
X0115833Y0025359D02*
X0115833Y0019109D01*
X0118333Y0016609D01*
X0151936Y0016609D01*
X0152224Y0016897D02*
X0204724Y0016897D01*
X0257224Y0016897D01*
X0309724Y0016897D01*
X0362224Y0016897D01*
X0414724Y0016897D01*
X0467224Y0016897D01*
X0470986Y0016897D02*
X0484417Y0016897D01*
X0484417Y0018495D02*
X0470634Y0018495D01*
X0470634Y0015298D02*
X0484417Y0015298D01*
X0484417Y0013700D02*
X0469337Y0013700D01*
X0465111Y0013700D02*
X0416837Y0013700D01*
X0412611Y0013700D02*
X0364337Y0013700D01*
X0360111Y0013700D02*
X0311837Y0013700D01*
X0307611Y0013700D02*
X0259337Y0013700D01*
X0255111Y0013700D02*
X0206837Y0013700D01*
X0202611Y0013700D02*
X0154337Y0013700D01*
X0150111Y0013700D02*
X0095604Y0013700D01*
X0094005Y0015298D02*
X0116532Y0015298D01*
X0114934Y0016897D02*
X0092406Y0016897D01*
X0090808Y0018495D02*
X0113633Y0018495D01*
X0118033Y0020020D02*
X0118033Y0026270D01*
X0116745Y0027559D01*
X0106735Y0037569D01*
X0086969Y0037569D01*
X0086783Y0037754D01*
X0086783Y0041081D01*
X0087083Y0041381D01*
X0087822Y0040642D01*
X0091344Y0040642D01*
X0092083Y0041381D01*
X0092822Y0040642D01*
X0096344Y0040642D01*
X0097164Y0041462D01*
X0097164Y0049881D01*
X0100278Y0053159D01*
X0102393Y0053159D01*
X0102393Y0050961D01*
X0101841Y0050961D01*
X0100733Y0049853D01*
X0100733Y0043364D01*
X0101841Y0042256D01*
X0107345Y0042256D01*
X0108105Y0043016D01*
X0108325Y0042687D01*
X0108644Y0042368D01*
X0109019Y0042117D01*
X0109436Y0041944D01*
X0109879Y0041856D01*
X0111643Y0041856D01*
X0111643Y0046178D01*
X0112504Y0046178D01*
X0112504Y0041856D01*
X0114268Y0041856D01*
X0114711Y0041944D01*
X0115128Y0042117D01*
X0115503Y0042368D01*
X0115822Y0042687D01*
X0116073Y0043062D01*
X0116246Y0043480D01*
X0116282Y0043662D01*
X0116832Y0043112D01*
X0117806Y0042709D01*
X0118860Y0042709D01*
X0119834Y0043112D01*
X0120181Y0043459D01*
X0122002Y0043459D01*
X0122002Y0041462D01*
X0122155Y0041309D01*
X0119583Y0041309D01*
X0114874Y0041316D01*
X0114825Y0041365D01*
X0113851Y0041769D01*
X0112796Y0041769D01*
X0111822Y0041365D01*
X0111077Y0040620D01*
X0110673Y0039646D01*
X0110673Y0038591D01*
X0111077Y0037617D01*
X0111822Y0036872D01*
X0112796Y0036469D01*
X0113851Y0036469D01*
X0114825Y0036872D01*
X0114869Y0036916D01*
X0118671Y0036910D01*
X0118672Y0036909D01*
X0119584Y0036909D01*
X0120491Y0036907D01*
X0120493Y0036909D01*
X0134245Y0036909D01*
X0135533Y0038197D01*
X0136783Y0039447D01*
X0136783Y0041081D01*
X0137083Y0041381D01*
X0137822Y0040642D01*
X0141344Y0040642D01*
X0142164Y0041462D01*
X0142164Y0051283D01*
X0141783Y0051664D01*
X0141783Y0053159D01*
X0172383Y0053159D01*
X0172383Y0050460D01*
X0171339Y0050460D01*
X0170231Y0049351D01*
X0170231Y0043847D01*
X0170990Y0043087D01*
X0170662Y0042867D01*
X0170342Y0042548D01*
X0170091Y0042173D01*
X0169919Y0041756D01*
X0169831Y0041313D01*
X0169831Y0039549D01*
X0174153Y0039549D01*
X0174153Y0038688D01*
X0175014Y0038688D01*
X0175014Y0039549D01*
X0179336Y0039549D01*
X0179336Y0041313D01*
X0179248Y0041756D01*
X0179075Y0042173D01*
X0178824Y0042548D01*
X0178505Y0042867D01*
X0178176Y0043087D01*
X0178936Y0043847D01*
X0178936Y0049351D01*
X0177828Y0050460D01*
X0176783Y0050460D01*
X0176783Y0053159D01*
X0242383Y0053159D01*
X0242383Y0051664D01*
X0242083Y0051364D01*
X0241344Y0052103D01*
X0237822Y0052103D01*
X0237083Y0051364D01*
X0236344Y0052103D01*
X0232822Y0052103D01*
X0232083Y0051364D01*
X0231344Y0052103D01*
X0227822Y0052103D01*
X0227002Y0051283D01*
X0227002Y0048573D01*
X0221131Y0048573D01*
X0221084Y0048619D01*
X0220110Y0049023D01*
X0219056Y0049023D01*
X0218082Y0048619D01*
X0217337Y0047874D01*
X0216933Y0046900D01*
X0216933Y0045845D01*
X0217337Y0044871D01*
X0218082Y0044126D01*
X0219056Y0043723D01*
X0220110Y0043723D01*
X0221084Y0044126D01*
X0221131Y0044173D01*
X0227002Y0044173D01*
X0227002Y0041462D01*
X0227155Y0041309D01*
X0212381Y0041309D01*
X0212334Y0041355D01*
X0211360Y0041759D01*
X0210306Y0041759D01*
X0209332Y0041355D01*
X0208587Y0040610D01*
X0208183Y0039636D01*
X0208183Y0038582D01*
X0208587Y0037608D01*
X0209332Y0036862D01*
X0210306Y0036459D01*
X0211360Y0036459D01*
X0212334Y0036862D01*
X0212381Y0036909D01*
X0239245Y0036909D01*
X0240495Y0038159D01*
X0241783Y0039447D01*
X0241783Y0041081D01*
X0242083Y0041381D01*
X0242822Y0040642D01*
X0246344Y0040642D01*
X0247164Y0041462D01*
X0247164Y0051283D01*
X0246783Y0051664D01*
X0246783Y0053159D01*
X0272383Y0053159D01*
X0272383Y0049210D01*
X0271339Y0049210D01*
X0270231Y0048101D01*
X0270231Y0042597D01*
X0270990Y0041837D01*
X0270662Y0041617D01*
X0270342Y0041298D01*
X0270091Y0040923D01*
X0269919Y0040506D01*
X0269831Y0040063D01*
X0269831Y0038299D01*
X0274153Y0038299D01*
X0274153Y0037438D01*
X0275014Y0037438D01*
X0275014Y0038299D01*
X0279336Y0038299D01*
X0279336Y0040063D01*
X0279248Y0040506D01*
X0279075Y0040923D01*
X0278824Y0041298D01*
X0278505Y0041617D01*
X0278176Y0041837D01*
X0278936Y0042597D01*
X0278936Y0048101D01*
X0277828Y0049210D01*
X0276783Y0049210D01*
X0276783Y0053159D01*
X0332383Y0053159D01*
X0332383Y0051664D01*
X0332083Y0051364D01*
X0331344Y0052103D01*
X0327822Y0052103D01*
X0327083Y0051364D01*
X0326344Y0052103D01*
X0322822Y0052103D01*
X0322083Y0051364D01*
X0321344Y0052103D01*
X0317822Y0052103D01*
X0317002Y0051283D01*
X0317002Y0048809D01*
X0313631Y0048809D01*
X0313584Y0048855D01*
X0312610Y0049259D01*
X0311556Y0049259D01*
X0310582Y0048855D01*
X0309837Y0048110D01*
X0309433Y0047136D01*
X0309433Y0046082D01*
X0309837Y0045108D01*
X0310582Y0044362D01*
X0311556Y0043959D01*
X0312610Y0043959D01*
X0313584Y0044362D01*
X0313631Y0044409D01*
X0317002Y0044409D01*
X0317002Y0041462D01*
X0317155Y0041309D01*
X0308631Y0041309D01*
X0308584Y0041355D01*
X0307610Y0041759D01*
X0306556Y0041759D01*
X0305582Y0041355D01*
X0304837Y0040610D01*
X0304433Y0039636D01*
X0304433Y0038582D01*
X0304837Y0037608D01*
X0305582Y0036862D01*
X0306556Y0036459D01*
X0307610Y0036459D01*
X0308584Y0036862D01*
X0308631Y0036909D01*
X0326745Y0036909D01*
X0330478Y0040642D01*
X0331344Y0040642D01*
X0332083Y0041381D01*
X0332822Y0040642D01*
X0336344Y0040642D01*
X0337164Y0041462D01*
X0337164Y0051283D01*
X0336783Y0051664D01*
X0336783Y0053159D01*
X0344892Y0053159D01*
X0344893Y0052845D01*
X0344893Y0049711D01*
X0344341Y0049711D01*
X0343233Y0048603D01*
X0343233Y0042114D01*
X0344341Y0041006D01*
X0349845Y0041006D01*
X0350605Y0041766D01*
X0350825Y0041437D01*
X0351144Y0041118D01*
X0351519Y0040867D01*
X0351936Y0040694D01*
X0352379Y0040606D01*
X0354143Y0040606D01*
X0354143Y0044928D01*
X0355004Y0044928D01*
X0355004Y0040606D01*
X0356768Y0040606D01*
X0357211Y0040694D01*
X0357628Y0040867D01*
X0358003Y0041118D01*
X0358322Y0041437D01*
X0358573Y0041812D01*
X0358746Y0042230D01*
X0358834Y0042672D01*
X0358834Y0044928D01*
X0355004Y0044928D01*
X0355004Y0045789D01*
X0358834Y0045789D01*
X0358834Y0048045D01*
X0358746Y0048488D01*
X0358573Y0048905D01*
X0358322Y0049281D01*
X0358003Y0049600D01*
X0357628Y0049851D01*
X0357211Y0050023D01*
X0356768Y0050111D01*
X0355004Y0050111D01*
X0355004Y0045789D01*
X0354143Y0045789D01*
X0354143Y0050111D01*
X0352379Y0050111D01*
X0351936Y0050023D01*
X0351519Y0049851D01*
X0351144Y0049600D01*
X0350825Y0049281D01*
X0350605Y0048952D01*
X0349845Y0049711D01*
X0349293Y0049711D01*
X0349293Y0051943D01*
X0349297Y0051946D01*
X0349293Y0052853D01*
X0349293Y0053159D01*
X0374883Y0053159D01*
X0374883Y0051664D01*
X0374823Y0051604D01*
X0374705Y0051808D01*
X0374370Y0052144D01*
X0373959Y0052381D01*
X0373501Y0052503D01*
X0372083Y0052503D01*
X0370665Y0052503D01*
X0370207Y0052381D01*
X0369797Y0052144D01*
X0369462Y0051808D01*
X0369344Y0051604D01*
X0368844Y0052103D01*
X0365322Y0052103D01*
X0364583Y0051364D01*
X0363844Y0052103D01*
X0360322Y0052103D01*
X0359502Y0051283D01*
X0359502Y0041462D01*
X0360322Y0040642D01*
X0363844Y0040642D01*
X0364583Y0041381D01*
X0365322Y0040642D01*
X0368844Y0040642D01*
X0369344Y0041141D01*
X0369462Y0040937D01*
X0369797Y0040601D01*
X0370207Y0040364D01*
X0370665Y0040242D01*
X0372083Y0040242D01*
X0372083Y0046372D01*
X0372083Y0046372D01*
X0372083Y0040242D01*
X0373501Y0040242D01*
X0373959Y0040364D01*
X0374370Y0040601D01*
X0374705Y0040937D01*
X0374823Y0041141D01*
X0375322Y0040642D01*
X0378844Y0040642D01*
X0379664Y0041462D01*
X0379664Y0051283D01*
X0379283Y0051664D01*
X0379283Y0053159D01*
X0388672Y0053159D01*
X0391172Y0050659D01*
X0391697Y0050659D01*
X0391697Y0049523D01*
X0392517Y0048703D01*
X0395622Y0048703D01*
X0395622Y0048052D01*
X0394092Y0048052D01*
X0393272Y0047232D01*
X0393272Y0038986D01*
X0394092Y0038165D01*
X0401551Y0038165D01*
X0402371Y0038986D01*
X0402371Y0047232D01*
X0401551Y0048052D01*
X0400022Y0048052D01*
X0400022Y0051989D01*
X0400009Y0052001D01*
X0400009Y0056195D01*
X0399595Y0056609D01*
X0400009Y0057023D01*
X0400009Y0063695D01*
X0399189Y0064515D01*
X0398053Y0064515D01*
X0398053Y0065415D01*
X0401551Y0065415D01*
X0402371Y0066236D01*
X0402371Y0074482D01*
X0401869Y0074984D01*
X0402072Y0075187D01*
X0402323Y0075562D01*
X0402496Y0075980D01*
X0402584Y0076422D01*
X0402584Y0078678D01*
X0398754Y0078678D01*
X0398754Y0079539D01*
X0402584Y0079539D01*
X0402584Y0081795D01*
X0402496Y0082238D01*
X0402323Y0082655D01*
X0402072Y0083031D01*
X0401961Y0083142D01*
X0402184Y0083364D01*
X0402184Y0089853D01*
X0401678Y0090359D01*
X0402184Y0090864D01*
X0402184Y0094858D01*
X0404582Y0097256D01*
X0408576Y0097256D01*
X0409684Y0098364D01*
X0409684Y0102358D01*
X0412082Y0104756D01*
X0416076Y0104756D01*
X0417083Y0105764D01*
X0418091Y0104756D01*
X0423595Y0104756D01*
X0424583Y0105744D01*
X0425571Y0104756D01*
X0431076Y0104756D01*
X0432184Y0105864D01*
X0432184Y0112353D01*
X0431076Y0113461D01*
X0430533Y0113461D01*
X0430533Y0115020D01*
X0429245Y0116309D01*
X0427995Y0117559D01*
X0406172Y0117559D01*
X0404883Y0116270D01*
X0403643Y0115030D01*
X0403643Y0113461D01*
X0403091Y0113461D01*
X0401983Y0112353D01*
X0401983Y0108359D01*
X0399585Y0105961D01*
X0395591Y0105961D01*
X0394483Y0104853D01*
X0394483Y0103809D01*
X0388672Y0103809D01*
X0387383Y0102520D01*
X0386134Y0101270D01*
X0386134Y0102498D01*
X0385561Y0103881D01*
X0384503Y0104939D01*
X0383120Y0105512D01*
X0381623Y0105512D01*
X0380240Y0104939D01*
X0379182Y0103881D01*
X0378609Y0102498D01*
X0378609Y0101001D01*
X0379182Y0099618D01*
X0380240Y0098560D01*
X0381623Y0097987D01*
X0382851Y0097987D01*
X0381742Y0096879D01*
X0378421Y0096879D01*
X0377431Y0097868D01*
X0376049Y0098441D01*
X0374552Y0098441D01*
X0373169Y0097868D01*
X0372111Y0096810D01*
X0371538Y0095427D01*
X0371538Y0093930D01*
X0372111Y0092547D01*
X0373169Y0091489D01*
X0374552Y0090916D01*
X0376049Y0090916D01*
X0377431Y0091489D01*
X0378421Y0092479D01*
X0383564Y0092479D01*
X0386983Y0095897D01*
X0386983Y0095869D01*
X0371172Y0080059D01*
X0369883Y0078770D01*
X0369883Y0072137D01*
X0369583Y0071837D01*
X0368844Y0072576D01*
X0365322Y0072576D01*
X0364583Y0071837D01*
X0363844Y0072576D01*
X0360322Y0072576D01*
X0359502Y0071756D01*
X0359502Y0061934D01*
X0359883Y0061553D01*
X0359883Y0060059D01*
X0356778Y0060059D01*
X0356773Y0061619D01*
X0356773Y0062256D01*
X0357326Y0062256D01*
X0358434Y0063364D01*
X0358434Y0069853D01*
X0357326Y0070961D01*
X0351821Y0070961D01*
X0351062Y0070202D01*
X0350842Y0070531D01*
X0350523Y0070850D01*
X0350147Y0071101D01*
X0349730Y0071273D01*
X0349287Y0071361D01*
X0347523Y0071361D01*
X0347523Y0067039D01*
X0346663Y0067039D01*
X0346663Y0071361D01*
X0344899Y0071361D01*
X0344456Y0071273D01*
X0344039Y0071101D01*
X0343664Y0070850D01*
X0343344Y0070531D01*
X0343093Y0070155D01*
X0342921Y0069738D01*
X0342833Y0069295D01*
X0342833Y0067039D01*
X0346663Y0067039D01*
X0346663Y0066178D01*
X0347523Y0066178D01*
X0347523Y0061856D01*
X0349287Y0061856D01*
X0349730Y0061944D01*
X0350147Y0062117D01*
X0350523Y0062368D01*
X0350842Y0062687D01*
X0351062Y0063016D01*
X0351821Y0062256D01*
X0352372Y0062256D01*
X0352373Y0061617D01*
X0352373Y0060707D01*
X0352376Y0060705D01*
X0352378Y0060059D01*
X0321783Y0060059D01*
X0321783Y0061553D01*
X0322083Y0061853D01*
X0322822Y0061114D01*
X0326344Y0061114D01*
X0327083Y0061853D01*
X0327822Y0061114D01*
X0331344Y0061114D01*
X0332083Y0061853D01*
X0332822Y0061114D01*
X0336344Y0061114D01*
X0337164Y0061934D01*
X0337164Y0071756D01*
X0337020Y0071900D01*
X0337020Y0072184D01*
X0341745Y0076909D01*
X0341983Y0076909D01*
X0341983Y0075864D01*
X0343091Y0074756D01*
X0348595Y0074756D01*
X0349355Y0075516D01*
X0349575Y0075187D01*
X0349894Y0074868D01*
X0350269Y0074617D01*
X0350686Y0074444D01*
X0351129Y0074356D01*
X0352893Y0074356D01*
X0352893Y0078678D01*
X0353754Y0078678D01*
X0353754Y0074356D01*
X0355518Y0074356D01*
X0355961Y0074444D01*
X0356378Y0074617D01*
X0356753Y0074868D01*
X0357072Y0075187D01*
X0357323Y0075562D01*
X0357496Y0075980D01*
X0357584Y0076422D01*
X0357584Y0078678D01*
X0353754Y0078678D01*
X0353754Y0079539D01*
X0357584Y0079539D01*
X0357584Y0081795D01*
X0357496Y0082238D01*
X0357323Y0082655D01*
X0357072Y0083031D01*
X0356961Y0083142D01*
X0357184Y0083364D01*
X0357184Y0089853D01*
X0356678Y0090359D01*
X0357184Y0090864D01*
X0357184Y0097353D01*
X0356678Y0097859D01*
X0357184Y0098364D01*
X0357184Y0102358D01*
X0359582Y0104756D01*
X0363576Y0104756D01*
X0364583Y0105764D01*
X0365591Y0104756D01*
X0371095Y0104756D01*
X0372083Y0105744D01*
X0373071Y0104756D01*
X0378576Y0104756D01*
X0379684Y0105864D01*
X0379684Y0112353D01*
X0378576Y0113461D01*
X0378033Y0113461D01*
X0378033Y0115020D01*
X0376745Y0116309D01*
X0375495Y0117559D01*
X0353672Y0117559D01*
X0352383Y0116270D01*
X0351143Y0115030D01*
X0351143Y0113461D01*
X0350591Y0113461D01*
X0349483Y0112353D01*
X0349483Y0108359D01*
X0347085Y0105961D01*
X0343091Y0105961D01*
X0341983Y0104853D01*
X0341983Y0103809D01*
X0341172Y0103809D01*
X0339883Y0102520D01*
X0334242Y0096879D01*
X0325921Y0096879D01*
X0324931Y0097868D01*
X0323549Y0098441D01*
X0322052Y0098441D01*
X0320669Y0097868D01*
X0319611Y0096810D01*
X0319038Y0095427D01*
X0319038Y0093930D01*
X0319611Y0092547D01*
X0320669Y0091489D01*
X0322052Y0090916D01*
X0323549Y0090916D01*
X0324931Y0091489D01*
X0325921Y0092479D01*
X0336064Y0092479D01*
X0341983Y0098397D01*
X0341983Y0098364D01*
X0342488Y0097859D01*
X0341983Y0097353D01*
X0341983Y0096309D01*
X0341172Y0096309D01*
X0328672Y0083809D01*
X0327383Y0082520D01*
X0327383Y0072137D01*
X0327083Y0071837D01*
X0326344Y0072576D01*
X0322822Y0072576D01*
X0322083Y0071837D01*
X0321344Y0072576D01*
X0317822Y0072576D01*
X0317002Y0071756D01*
X0317002Y0061934D01*
X0317383Y0061553D01*
X0317383Y0060059D01*
X0276783Y0060059D01*
X0276783Y0062758D01*
X0277828Y0062758D01*
X0278936Y0063866D01*
X0278936Y0069371D01*
X0278176Y0070130D01*
X0278505Y0070350D01*
X0278824Y0070669D01*
X0279075Y0071045D01*
X0279248Y0071462D01*
X0279336Y0071905D01*
X0279336Y0073669D01*
X0275014Y0073669D01*
X0275014Y0074529D01*
X0279336Y0074529D01*
X0279336Y0076293D01*
X0279248Y0076736D01*
X0279075Y0077153D01*
X0278824Y0077529D01*
X0278505Y0077848D01*
X0278130Y0078099D01*
X0277713Y0078271D01*
X0277270Y0078360D01*
X0275014Y0078360D01*
X0275014Y0074529D01*
X0274153Y0074529D01*
X0274153Y0073669D01*
X0269831Y0073669D01*
X0269831Y0071905D01*
X0269919Y0071462D01*
X0270091Y0071045D01*
X0270342Y0070669D01*
X0270662Y0070350D01*
X0270990Y0070130D01*
X0270231Y0069371D01*
X0270231Y0063866D01*
X0271339Y0062758D01*
X0272383Y0062758D01*
X0272383Y0060059D01*
X0231783Y0060059D01*
X0231783Y0061553D01*
X0232083Y0061853D01*
X0232822Y0061114D01*
X0236344Y0061114D01*
X0237083Y0061853D01*
X0237822Y0061114D01*
X0241344Y0061114D01*
X0242083Y0061853D01*
X0242822Y0061114D01*
X0246344Y0061114D01*
X0247164Y0061934D01*
X0247164Y0071756D01*
X0246783Y0072137D01*
X0246783Y0074438D01*
X0247102Y0074756D01*
X0251095Y0074756D01*
X0251855Y0075516D01*
X0252075Y0075187D01*
X0252394Y0074868D01*
X0252769Y0074617D01*
X0253186Y0074444D01*
X0253629Y0074356D01*
X0255393Y0074356D01*
X0255393Y0078678D01*
X0256254Y0078678D01*
X0256254Y0074356D01*
X0258018Y0074356D01*
X0258461Y0074444D01*
X0258878Y0074617D01*
X0259253Y0074868D01*
X0259572Y0075187D01*
X0259823Y0075562D01*
X0259996Y0075980D01*
X0260084Y0076422D01*
X0260084Y0078678D01*
X0256254Y0078678D01*
X0256254Y0079539D01*
X0260084Y0079539D01*
X0260084Y0081795D01*
X0259996Y0082238D01*
X0259823Y0082655D01*
X0259572Y0083031D01*
X0259461Y0083142D01*
X0259684Y0083364D01*
X0259684Y0089853D01*
X0259178Y0090359D01*
X0259684Y0090864D01*
X0259684Y0097353D01*
X0259178Y0097859D01*
X0259684Y0098364D01*
X0259684Y0104853D01*
X0259178Y0105359D01*
X0259583Y0105764D01*
X0260591Y0104756D01*
X0266095Y0104756D01*
X0267083Y0105744D01*
X0268071Y0104756D01*
X0273576Y0104756D01*
X0274684Y0105864D01*
X0274684Y0112353D01*
X0273576Y0113461D01*
X0273033Y0113461D01*
X0273033Y0115020D01*
X0271745Y0116309D01*
X0270495Y0117559D01*
X0248672Y0117559D01*
X0247383Y0116270D01*
X0246143Y0115030D01*
X0246143Y0113461D01*
X0245591Y0113461D01*
X0244483Y0112353D01*
X0244483Y0105864D01*
X0244988Y0105359D01*
X0244483Y0104853D01*
X0244483Y0103809D01*
X0243672Y0103809D01*
X0242383Y0102520D01*
X0236742Y0096879D01*
X0220921Y0096879D01*
X0219931Y0097868D01*
X0218549Y0098441D01*
X0217052Y0098441D01*
X0215669Y0097868D01*
X0214684Y0096883D01*
X0214684Y0097353D01*
X0214178Y0097859D01*
X0214684Y0098364D01*
X0214684Y0104853D01*
X0214178Y0105359D01*
X0214583Y0105764D01*
X0215591Y0104756D01*
X0221095Y0104756D01*
X0222083Y0105744D01*
X0222845Y0104982D01*
X0222740Y0104939D01*
X0221682Y0103881D01*
X0221109Y0102498D01*
X0221109Y0101001D01*
X0221682Y0099618D01*
X0222740Y0098560D01*
X0224123Y0097987D01*
X0225620Y0097987D01*
X0227003Y0098560D01*
X0228061Y0099618D01*
X0228634Y0101001D01*
X0228634Y0102498D01*
X0228061Y0103881D01*
X0227186Y0104756D01*
X0228576Y0104756D01*
X0229631Y0105811D01*
X0229811Y0105631D01*
X0231194Y0105058D01*
X0232691Y0105058D01*
X0234074Y0105631D01*
X0235132Y0106690D01*
X0235705Y0108072D01*
X0235705Y0109569D01*
X0235132Y0110952D01*
X0234074Y0112010D01*
X0232691Y0112583D01*
X0231194Y0112583D01*
X0229811Y0112010D01*
X0229684Y0111883D01*
X0229684Y0112353D01*
X0228576Y0113461D01*
X0228033Y0113461D01*
X0228033Y0115020D01*
X0226745Y0116309D01*
X0225495Y0117559D01*
X0203672Y0117559D01*
X0202383Y0116270D01*
X0201143Y0115030D01*
X0201143Y0113461D01*
X0200591Y0113461D01*
X0199483Y0112353D01*
X0199483Y0105864D01*
X0199988Y0105359D01*
X0199483Y0104853D01*
X0199483Y0103809D01*
X0191172Y0103809D01*
X0189883Y0102520D01*
X0184242Y0096879D01*
X0168421Y0096879D01*
X0167431Y0097868D01*
X0166049Y0098441D01*
X0164552Y0098441D01*
X0163169Y0097868D01*
X0162111Y0096810D01*
X0161538Y0095427D01*
X0161538Y0093930D01*
X0162111Y0092547D01*
X0163169Y0091489D01*
X0164552Y0090916D01*
X0166049Y0090916D01*
X0167431Y0091489D01*
X0168421Y0092479D01*
X0186064Y0092479D01*
X0192995Y0099409D01*
X0199483Y0099409D01*
X0199483Y0098364D01*
X0199988Y0097859D01*
X0199483Y0097353D01*
X0199483Y0090864D01*
X0199988Y0090359D01*
X0199483Y0089853D01*
X0199483Y0083364D01*
X0199705Y0083142D01*
X0199594Y0083031D01*
X0199343Y0082655D01*
X0199171Y0082238D01*
X0199083Y0081795D01*
X0199083Y0079539D01*
X0202913Y0079539D01*
X0202913Y0078678D01*
X0203773Y0078678D01*
X0203773Y0074356D01*
X0205537Y0074356D01*
X0205980Y0074444D01*
X0206397Y0074617D01*
X0206773Y0074868D01*
X0207092Y0075187D01*
X0207312Y0075516D01*
X0208071Y0074756D01*
X0208923Y0074756D01*
X0208923Y0074716D01*
X0208577Y0074370D01*
X0208173Y0073396D01*
X0208173Y0072341D01*
X0208577Y0071367D01*
X0209322Y0070622D01*
X0210296Y0070219D01*
X0211351Y0070219D01*
X0212325Y0070622D01*
X0213070Y0071367D01*
X0213473Y0072341D01*
X0213473Y0073396D01*
X0213070Y0074370D01*
X0212723Y0074716D01*
X0212723Y0074756D01*
X0213576Y0074756D01*
X0214684Y0075864D01*
X0214684Y0082353D01*
X0214178Y0082859D01*
X0214684Y0083364D01*
X0214684Y0087137D01*
X0216162Y0085659D01*
X0218036Y0085659D01*
X0218082Y0085612D01*
X0219056Y0085209D01*
X0220110Y0085209D01*
X0221084Y0085612D01*
X0221830Y0086358D01*
X0222233Y0087332D01*
X0222233Y0088386D01*
X0221830Y0089360D01*
X0221084Y0090105D01*
X0220110Y0090509D01*
X0219056Y0090509D01*
X0218082Y0090105D01*
X0218036Y0090059D01*
X0217985Y0090059D01*
X0217127Y0090916D01*
X0218549Y0090916D01*
X0219931Y0091489D01*
X0220921Y0092479D01*
X0238564Y0092479D01*
X0244483Y0098397D01*
X0244483Y0098364D01*
X0244988Y0097859D01*
X0244483Y0097353D01*
X0244483Y0094619D01*
X0238672Y0088809D01*
X0237383Y0087520D01*
X0237383Y0072137D01*
X0237083Y0071837D01*
X0236344Y0072576D01*
X0232822Y0072576D01*
X0232083Y0071837D01*
X0231344Y0072576D01*
X0227822Y0072576D01*
X0227002Y0071756D01*
X0227002Y0061934D01*
X0227383Y0061553D01*
X0227383Y0060059D01*
X0176783Y0060059D01*
X0176783Y0062758D01*
X0177828Y0062758D01*
X0178936Y0063866D01*
X0178936Y0069371D01*
X0178176Y0070130D01*
X0178505Y0070350D01*
X0178824Y0070669D01*
X0179075Y0071045D01*
X0179248Y0071462D01*
X0179336Y0071905D01*
X0179336Y0073669D01*
X0175014Y0073669D01*
X0175014Y0074529D01*
X0179336Y0074529D01*
X0179336Y0076293D01*
X0179248Y0076736D01*
X0179075Y0077153D01*
X0178824Y0077529D01*
X0178505Y0077848D01*
X0178130Y0078099D01*
X0177713Y0078271D01*
X0177270Y0078360D01*
X0175014Y0078360D01*
X0175014Y0074529D01*
X0174153Y0074529D01*
X0174153Y0073669D01*
X0169831Y0073669D01*
X0169831Y0071905D01*
X0169919Y0071462D01*
X0170091Y0071045D01*
X0170342Y0070669D01*
X0170662Y0070350D01*
X0170990Y0070130D01*
X0170231Y0069371D01*
X0170231Y0063866D01*
X0171339Y0062758D01*
X0172383Y0062758D01*
X0172383Y0060059D01*
X0126783Y0060059D01*
X0126783Y0061553D01*
X0127083Y0061853D01*
X0127822Y0061114D01*
X0131344Y0061114D01*
X0132083Y0061853D01*
X0132822Y0061114D01*
X0136344Y0061114D01*
X0137083Y0061853D01*
X0137822Y0061114D01*
X0141344Y0061114D01*
X0142164Y0061934D01*
X0142164Y0071756D01*
X0141883Y0072037D01*
X0144602Y0074756D01*
X0148595Y0074756D01*
X0149355Y0075516D01*
X0149575Y0075187D01*
X0149894Y0074868D01*
X0150269Y0074617D01*
X0150686Y0074444D01*
X0151129Y0074356D01*
X0152893Y0074356D01*
X0152893Y0078678D01*
X0153754Y0078678D01*
X0153754Y0074356D01*
X0155518Y0074356D01*
X0155961Y0074444D01*
X0156378Y0074617D01*
X0156753Y0074868D01*
X0157072Y0075187D01*
X0157323Y0075562D01*
X0157496Y0075980D01*
X0157584Y0076422D01*
X0157584Y0078678D01*
X0153754Y0078678D01*
X0153754Y0079539D01*
X0157584Y0079539D01*
X0157584Y0081795D01*
X0157496Y0082238D01*
X0157323Y0082655D01*
X0157072Y0083031D01*
X0156961Y0083142D01*
X0157184Y0083364D01*
X0157184Y0089853D01*
X0156678Y0090359D01*
X0157184Y0090864D01*
X0157184Y0097353D01*
X0156678Y0097859D01*
X0157184Y0098364D01*
X0157184Y0104647D01*
X0157383Y0104447D01*
X0158672Y0103159D01*
X0168883Y0103159D01*
X0168609Y0102498D01*
X0168609Y0101001D01*
X0169182Y0099618D01*
X0170240Y0098560D01*
X0171623Y0097987D01*
X0173120Y0097987D01*
X0174503Y0098560D01*
X0175561Y0099618D01*
X0176134Y0101001D01*
X0176134Y0102498D01*
X0175561Y0103881D01*
X0174503Y0104939D01*
X0173120Y0105512D01*
X0171623Y0105512D01*
X0171580Y0105494D01*
X0172995Y0106909D01*
X0174283Y0108197D01*
X0174283Y0108506D01*
X0174826Y0108506D01*
X0175680Y0109361D01*
X0175680Y0108072D01*
X0176253Y0106690D01*
X0177311Y0105631D01*
X0178694Y0105058D01*
X0180191Y0105058D01*
X0181574Y0105631D01*
X0182632Y0106690D01*
X0183205Y0108072D01*
X0183205Y0109569D01*
X0182632Y0110952D01*
X0181574Y0112010D01*
X0180191Y0112583D01*
X0178694Y0112583D01*
X0177311Y0112010D01*
X0176253Y0110952D01*
X0175934Y0110182D01*
X0175934Y0116103D01*
X0174826Y0117211D01*
X0169321Y0117211D01*
X0168333Y0116224D01*
X0167345Y0117211D01*
X0163352Y0117211D01*
X0163004Y0117559D01*
X0148672Y0117559D01*
X0147383Y0116270D01*
X0144575Y0113461D01*
X0143091Y0113461D01*
X0141983Y0112353D01*
X0141983Y0105864D01*
X0142488Y0105359D01*
X0141983Y0104853D01*
X0141983Y0103809D01*
X0138672Y0103809D01*
X0137383Y0102520D01*
X0131742Y0096879D01*
X0115921Y0096879D01*
X0114931Y0097868D01*
X0113549Y0098441D01*
X0112052Y0098441D01*
X0110669Y0097868D01*
X0109611Y0096810D01*
X0109038Y0095427D01*
X0109038Y0093930D01*
X0109611Y0092547D01*
X0110669Y0091489D01*
X0112052Y0090916D01*
X0113549Y0090916D01*
X0114931Y0091489D01*
X0115921Y0092479D01*
X0133564Y0092479D01*
X0140495Y0099409D01*
X0141983Y0099409D01*
X0141983Y0098364D01*
X0142488Y0097859D01*
X0141983Y0097353D01*
X0141983Y0096309D01*
X0141172Y0096309D01*
X0133672Y0088809D01*
X0132383Y0087520D01*
X0132383Y0072137D01*
X0132083Y0071837D01*
X0131344Y0072576D01*
X0127822Y0072576D01*
X0127083Y0071837D01*
X0126344Y0072576D01*
X0122822Y0072576D01*
X0122002Y0071756D01*
X0122002Y0061934D01*
X0122383Y0061553D01*
X0122383Y0060059D01*
X0114273Y0060059D01*
X0114273Y0062256D01*
X0114826Y0062256D01*
X0115934Y0063364D01*
X0115934Y0069853D01*
X0114826Y0070961D01*
X0109321Y0070961D01*
X0108562Y0070202D01*
X0108342Y0070531D01*
X0108023Y0070850D01*
X0107647Y0071101D01*
X0107230Y0071273D01*
X0106787Y0071361D01*
X0105023Y0071361D01*
X0105023Y0067039D01*
X0104163Y0067039D01*
X0104163Y0071361D01*
X0102399Y0071361D01*
X0101956Y0071273D01*
X0101539Y0071101D01*
X0101164Y0070850D01*
X0100844Y0070531D01*
X0100593Y0070155D01*
X0100421Y0069738D01*
X0100333Y0069295D01*
X0100333Y0067039D01*
X0104163Y0067039D01*
X0104163Y0066178D01*
X0105023Y0066178D01*
X0105023Y0061856D01*
X0106787Y0061856D01*
X0107230Y0061944D01*
X0107647Y0062117D01*
X0108023Y0062368D01*
X0108342Y0062687D01*
X0108562Y0063016D01*
X0109321Y0062256D01*
X0109873Y0062256D01*
X0109873Y0060059D01*
X0086745Y0060059D01*
X0085689Y0061114D01*
X0086344Y0061114D01*
X0087083Y0061853D01*
X0087822Y0061114D01*
X0091344Y0061114D01*
X0091844Y0061614D01*
X0091962Y0061409D01*
X0092297Y0061074D01*
X0092707Y0060837D01*
X0093165Y0060714D01*
X0094583Y0060714D01*
X0094583Y0066845D01*
X0094583Y0072976D01*
X0093165Y0072976D01*
X0092707Y0072853D01*
X0092297Y0072616D01*
X0091962Y0072281D01*
X0091844Y0072076D01*
X0091783Y0072137D01*
X0091783Y0073760D01*
X0090413Y0075131D01*
X0090413Y0078678D01*
X0091273Y0078678D01*
X0091273Y0074356D01*
X0093037Y0074356D01*
X0093480Y0074444D01*
X0093897Y0074617D01*
X0094273Y0074868D01*
X0094592Y0075187D01*
X0094812Y0075516D01*
X0095571Y0074756D01*
X0101076Y0074756D01*
X0102184Y0075864D01*
X0102184Y0076909D01*
X0111786Y0076909D01*
X0111832Y0076862D01*
X0112806Y0076459D01*
X0113860Y0076459D01*
X0114834Y0076862D01*
X0115580Y0077608D01*
X0115983Y0078582D01*
X0115983Y0079636D01*
X0115580Y0080610D01*
X0114834Y0081355D01*
X0113860Y0081759D01*
X0112806Y0081759D01*
X0111832Y0081355D01*
X0111786Y0081309D01*
X0102184Y0081309D01*
X0102184Y0082353D01*
X0101678Y0082859D01*
X0102184Y0083364D01*
X0102184Y0089853D01*
X0101678Y0090359D01*
X0102184Y0090864D01*
X0102184Y0091909D01*
X0103672Y0091909D01*
X0112383Y0083197D01*
X0113672Y0081909D01*
X0116786Y0081909D01*
X0116832Y0081862D01*
X0117806Y0081459D01*
X0118860Y0081459D01*
X0119834Y0081862D01*
X0120580Y0082608D01*
X0120983Y0083582D01*
X0120983Y0084636D01*
X0120580Y0085610D01*
X0119834Y0086355D01*
X0118860Y0086759D01*
X0117806Y0086759D01*
X0116832Y0086355D01*
X0116786Y0086309D01*
X0115495Y0086309D01*
X0105495Y0096309D01*
X0102184Y0096309D01*
X0102184Y0097353D01*
X0101678Y0097859D01*
X0102184Y0098364D01*
X0102184Y0104853D01*
X0101678Y0105359D01*
X0102083Y0105764D01*
X0103091Y0104756D01*
X0108595Y0104756D01*
X0109583Y0105744D01*
X0110571Y0104756D01*
X0116076Y0104756D01*
X0117184Y0105864D01*
X0117184Y0112353D01*
X0116076Y0113461D01*
X0115533Y0113461D01*
X0115533Y0113770D01*
X0114245Y0115059D01*
X0111745Y0117559D01*
X0093672Y0117559D01*
X0092383Y0116270D01*
X0089575Y0113461D01*
X0088091Y0113461D01*
X0086983Y0112353D01*
X0086983Y0105864D01*
X0087488Y0105359D01*
X0086983Y0104853D01*
X0086983Y0100859D01*
X0083002Y0096879D01*
X0063421Y0096879D01*
X0062431Y0097868D01*
X0061049Y0098441D01*
X0059552Y0098441D01*
X0058883Y0098164D01*
X0058883Y0118450D01*
X0078228Y0118450D01*
X0077954Y0118073D01*
X0077656Y0117489D01*
X0077454Y0116866D01*
X0077351Y0116219D01*
X0077351Y0115564D01*
X0077454Y0114917D01*
X0077656Y0114294D01*
X0077954Y0113710D01*
X0078339Y0113180D01*
X0078570Y0112949D01*
X0081513Y0115892D01*
X0081513Y0115892D01*
X0078570Y0112949D01*
X0078802Y0112717D01*
X0079332Y0112332D01*
X0079916Y0112034D01*
X0080539Y0111832D01*
X0081186Y0111730D01*
X0081841Y0111730D01*
X0082488Y0111832D01*
X0083111Y0112034D01*
X0083695Y0112332D01*
X0084225Y0112717D01*
X0084457Y0112949D01*
X0084688Y0113180D01*
X0085073Y0113710D01*
X0085371Y0114294D01*
X0085573Y0114917D01*
X0085676Y0115564D01*
X0085676Y0116219D01*
X0085573Y0116866D01*
X0085371Y0117489D01*
X0085073Y0118073D01*
X0084799Y0118450D01*
X0130728Y0118450D01*
X0130454Y0118073D01*
X0130156Y0117489D01*
X0129954Y0116866D01*
X0129851Y0116219D01*
X0129851Y0115564D01*
X0129954Y0114917D01*
X0130156Y0114294D01*
X0130454Y0113710D01*
X0130839Y0113180D01*
X0131070Y0112949D01*
X0134013Y0115892D01*
X0134013Y0115892D01*
X0131070Y0112949D01*
X0131302Y0112717D01*
X0131832Y0112332D01*
X0132416Y0112034D01*
X0133039Y0111832D01*
X0133686Y0111730D01*
X0134341Y0111730D01*
X0134988Y0111832D01*
X0135611Y0112034D01*
X0136195Y0112332D01*
X0136725Y0112717D01*
X0136957Y0112949D01*
X0137188Y0113180D01*
X0137573Y0113710D01*
X0137871Y0114294D01*
X0138073Y0114917D01*
X0138176Y0115564D01*
X0138176Y0116219D01*
X0138073Y0116866D01*
X0137871Y0117489D01*
X0137573Y0118073D01*
X0137299Y0118450D01*
X0183228Y0118450D01*
X0182954Y0118073D01*
X0182656Y0117489D01*
X0182454Y0116866D01*
X0182351Y0116219D01*
X0182351Y0115564D01*
X0182454Y0114917D01*
X0182656Y0114294D01*
X0182954Y0113710D01*
X0183339Y0113180D01*
X0183570Y0112949D01*
X0186513Y0115892D01*
X0186513Y0115892D01*
X0183570Y0112949D01*
X0183802Y0112717D01*
X0184332Y0112332D01*
X0184916Y0112034D01*
X0185539Y0111832D01*
X0186186Y0111730D01*
X0186841Y0111730D01*
X0187488Y0111832D01*
X0188111Y0112034D01*
X0188695Y0112332D01*
X0189225Y0112717D01*
X0189457Y0112949D01*
X0189688Y0113180D01*
X0190073Y0113710D01*
X0190371Y0114294D01*
X0190573Y0114917D01*
X0190676Y0115564D01*
X0190676Y0116219D01*
X0190573Y0116866D01*
X0190371Y0117489D01*
X0190073Y0118073D01*
X0189799Y0118450D01*
X0235728Y0118450D01*
X0235454Y0118073D01*
X0235156Y0117489D01*
X0234954Y0116866D01*
X0234851Y0116219D01*
X0234851Y0115564D01*
X0234954Y0114917D01*
X0235156Y0114294D01*
X0235454Y0113710D01*
X0235839Y0113180D01*
X0236070Y0112949D01*
X0239013Y0115892D01*
X0239013Y0115892D01*
X0236070Y0112949D01*
X0236302Y0112717D01*
X0236832Y0112332D01*
X0237416Y0112034D01*
X0238039Y0111832D01*
X0238686Y0111730D01*
X0239341Y0111730D01*
X0239988Y0111832D01*
X0240611Y0112034D01*
X0241195Y0112332D01*
X0241725Y0112717D01*
X0241957Y0112949D01*
X0242188Y0113180D01*
X0242573Y0113710D01*
X0242871Y0114294D01*
X0243073Y0114917D01*
X0243176Y0115564D01*
X0243176Y0116219D01*
X0243073Y0116866D01*
X0242871Y0117489D01*
X0242573Y0118073D01*
X0242299Y0118450D01*
X0288228Y0118450D01*
X0287954Y0118073D01*
X0287656Y0117489D01*
X0287454Y0116866D01*
X0287351Y0116219D01*
X0287351Y0115564D01*
X0287454Y0114917D01*
X0287656Y0114294D01*
X0287954Y0113710D01*
X0288339Y0113180D01*
X0288570Y0112949D01*
X0291513Y0115892D01*
X0291513Y0115892D01*
X0288570Y0112949D01*
X0288802Y0112717D01*
X0289332Y0112332D01*
X0289916Y0112034D01*
X0290539Y0111832D01*
X0291186Y0111730D01*
X0291841Y0111730D01*
X0292488Y0111832D01*
X0293111Y0112034D01*
X0293695Y0112332D01*
X0294225Y0112717D01*
X0294457Y0112949D01*
X0294688Y0113180D01*
X0295073Y0113710D01*
X0295371Y0114294D01*
X0295573Y0114917D01*
X0295676Y0115564D01*
X0295676Y0116219D01*
X0295573Y0116866D01*
X0295371Y0117489D01*
X0295073Y0118073D01*
X0294799Y0118450D01*
X0340728Y0118450D01*
X0340454Y0118073D01*
X0340156Y0117489D01*
X0339954Y0116866D01*
X0339851Y0116219D01*
X0339851Y0115564D01*
X0339954Y0114917D01*
X0340156Y0114294D01*
X0340454Y0113710D01*
X0340839Y0113180D01*
X0341070Y0112949D01*
X0344013Y0115892D01*
X0344013Y0115892D01*
X0341070Y0112949D01*
X0341302Y0112717D01*
X0341832Y0112332D01*
X0342416Y0112034D01*
X0343039Y0111832D01*
X0343686Y0111730D01*
X0344341Y0111730D01*
X0344988Y0111832D01*
X0345611Y0112034D01*
X0346195Y0112332D01*
X0346725Y0112717D01*
X0346957Y0112949D01*
X0347188Y0113180D01*
X0347573Y0113710D01*
X0347871Y0114294D01*
X0348073Y0114917D01*
X0348176Y0115564D01*
X0348176Y0116219D01*
X0348073Y0116866D01*
X0347871Y0117489D01*
X0347573Y0118073D01*
X0347299Y0118450D01*
X0393228Y0118450D01*
X0392954Y0118073D01*
X0392656Y0117489D01*
X0392454Y0116866D01*
X0392351Y0116219D01*
X0392351Y0115564D01*
X0392454Y0114917D01*
X0392656Y0114294D01*
X0392954Y0113710D01*
X0393339Y0113180D01*
X0393570Y0112949D01*
X0396513Y0115892D01*
X0396513Y0115892D01*
X0393570Y0112949D01*
X0393802Y0112717D01*
X0394332Y0112332D01*
X0394916Y0112034D01*
X0395539Y0111832D01*
X0396186Y0111730D01*
X0396841Y0111730D01*
X0397488Y0111832D01*
X0398111Y0112034D01*
X0398695Y0112332D01*
X0399225Y0112717D01*
X0399457Y0112949D01*
X0399688Y0113180D01*
X0400073Y0113710D01*
X0400371Y0114294D01*
X0400573Y0114917D01*
X0400676Y0115564D01*
X0400676Y0116219D01*
X0400573Y0116866D01*
X0400371Y0117489D01*
X0400073Y0118073D01*
X0399799Y0118450D01*
X0484417Y0118450D01*
X0484417Y0033309D01*
X0483497Y0034228D01*
X0482115Y0034801D01*
X0480618Y0034801D01*
X0479235Y0034228D01*
X0478646Y0033639D01*
X0476513Y0033639D01*
X0475558Y0033243D01*
X0471119Y0028805D01*
X0470723Y0027849D01*
X0470723Y0027211D01*
X0470571Y0027211D01*
X0469583Y0026224D01*
X0468595Y0027211D01*
X0465533Y0027211D01*
X0465533Y0030697D01*
X0471743Y0036908D01*
X0472611Y0036039D01*
X0476555Y0036039D01*
X0477952Y0037436D01*
X0477952Y0053781D01*
X0477183Y0054550D01*
X0477183Y0058668D01*
X0477952Y0059436D01*
X0477952Y0075781D01*
X0477183Y0076550D01*
X0477183Y0078376D01*
X0476787Y0079332D01*
X0476056Y0080063D01*
X0472306Y0083813D01*
X0471351Y0084209D01*
X0426566Y0084209D01*
X0425611Y0083813D01*
X0424879Y0083082D01*
X0418629Y0076832D01*
X0418233Y0075876D01*
X0418233Y0068936D01*
X0413812Y0064515D01*
X0407478Y0064515D01*
X0406658Y0063695D01*
X0406658Y0057023D01*
X0407072Y0056609D01*
X0406658Y0056195D01*
X0406658Y0049523D01*
X0407478Y0048703D01*
X0414149Y0048703D01*
X0414970Y0049523D01*
X0414970Y0050259D01*
X0431215Y0050259D01*
X0431215Y0037436D01*
X0432611Y0036039D01*
X0436555Y0036039D01*
X0437952Y0037436D01*
X0437952Y0053781D01*
X0437183Y0054550D01*
X0437183Y0058668D01*
X0437952Y0059436D01*
X0437952Y0075781D01*
X0436555Y0077178D01*
X0432611Y0077178D01*
X0431215Y0075781D01*
X0431215Y0059436D01*
X0431983Y0058668D01*
X0431983Y0055459D01*
X0414970Y0055459D01*
X0414970Y0056195D01*
X0414555Y0056609D01*
X0414970Y0057023D01*
X0414970Y0058318D01*
X0422306Y0065655D01*
X0423037Y0066386D01*
X0423433Y0067342D01*
X0423433Y0074282D01*
X0428160Y0079009D01*
X0469756Y0079009D01*
X0471983Y0076782D01*
X0471983Y0076550D01*
X0471215Y0075781D01*
X0471215Y0059436D01*
X0471983Y0058668D01*
X0471983Y0054550D01*
X0471215Y0053781D01*
X0471215Y0042602D01*
X0468352Y0039738D01*
X0468352Y0045424D01*
X0464768Y0045424D01*
X0464768Y0045793D01*
X0468352Y0045793D01*
X0468352Y0053068D01*
X0468245Y0053606D01*
X0468035Y0054113D01*
X0467730Y0054569D01*
X0467342Y0054956D01*
X0466886Y0055261D01*
X0466380Y0055471D01*
X0465842Y0055578D01*
X0464768Y0055578D01*
X0464768Y0045793D01*
X0464399Y0045793D01*
X0464399Y0045424D01*
X0460815Y0045424D01*
X0460815Y0038149D01*
X0460922Y0037612D01*
X0461132Y0037105D01*
X0461436Y0036649D01*
X0461824Y0036261D01*
X0462280Y0035956D01*
X0462787Y0035746D01*
X0463325Y0035639D01*
X0464253Y0035639D01*
X0462422Y0033809D01*
X0461133Y0032520D01*
X0461133Y0025059D01*
X0407686Y0025068D01*
X0407686Y0025621D01*
X0406698Y0026609D01*
X0407686Y0027597D01*
X0407686Y0028839D01*
X0425746Y0028839D01*
X0426735Y0027849D01*
X0428118Y0027277D01*
X0429615Y0027277D01*
X0430997Y0027849D01*
X0432056Y0028908D01*
X0432629Y0030291D01*
X0432629Y0031787D01*
X0432056Y0033170D01*
X0430997Y0034228D01*
X0429615Y0034801D01*
X0428118Y0034801D01*
X0426735Y0034228D01*
X0425746Y0033239D01*
X0407548Y0033239D01*
X0406578Y0034210D01*
X0400089Y0034210D01*
X0398981Y0033101D01*
X0398981Y0027597D01*
X0399968Y0026609D01*
X0398981Y0025621D01*
X0398981Y0025069D01*
X0391436Y0025069D01*
X0391436Y0025621D01*
X0390448Y0026609D01*
X0391436Y0027597D01*
X0391436Y0033101D01*
X0390328Y0034210D01*
X0383839Y0034210D01*
X0382868Y0033239D01*
X0379487Y0033239D01*
X0378497Y0034228D01*
X0377115Y0034801D01*
X0375618Y0034801D01*
X0374235Y0034228D01*
X0373177Y0033170D01*
X0372604Y0031787D01*
X0372604Y0030291D01*
X0373177Y0028908D01*
X0374235Y0027849D01*
X0375618Y0027277D01*
X0377115Y0027277D01*
X0378497Y0027849D01*
X0379487Y0028839D01*
X0382731Y0028839D01*
X0382731Y0027597D01*
X0383718Y0026609D01*
X0382731Y0025621D01*
X0382731Y0025069D01*
X0346436Y0025069D01*
X0346436Y0025621D01*
X0345448Y0026609D01*
X0346436Y0027597D01*
X0346436Y0033101D01*
X0345328Y0034210D01*
X0338839Y0034210D01*
X0337868Y0033239D01*
X0326987Y0033239D01*
X0325997Y0034228D01*
X0324615Y0034801D01*
X0323118Y0034801D01*
X0321735Y0034228D01*
X0320677Y0033170D01*
X0320104Y0031787D01*
X0320104Y0030291D01*
X0320677Y0028908D01*
X0321735Y0027849D01*
X0323118Y0027277D01*
X0324615Y0027277D01*
X0325997Y0027849D01*
X0326987Y0028839D01*
X0337731Y0028839D01*
X0337731Y0027597D01*
X0338718Y0026609D01*
X0337731Y0025621D01*
X0337731Y0025069D01*
X0293936Y0025069D01*
X0293936Y0025621D01*
X0292948Y0026609D01*
X0293936Y0027597D01*
X0293936Y0033101D01*
X0292828Y0034210D01*
X0286339Y0034210D01*
X0285368Y0033239D01*
X0274487Y0033239D01*
X0274118Y0033608D01*
X0274153Y0033608D01*
X0274153Y0037438D01*
X0269831Y0037438D01*
X0269831Y0035674D01*
X0269919Y0035231D01*
X0270091Y0034814D01*
X0270213Y0034633D01*
X0269235Y0034228D01*
X0268177Y0033170D01*
X0267604Y0031787D01*
X0267604Y0030291D01*
X0268177Y0028908D01*
X0269235Y0027849D01*
X0270618Y0027277D01*
X0272115Y0027277D01*
X0273497Y0027849D01*
X0274487Y0028839D01*
X0285231Y0028839D01*
X0285231Y0027597D01*
X0286218Y0026609D01*
X0285231Y0025621D01*
X0285231Y0025069D01*
X0248936Y0025069D01*
X0248936Y0025621D01*
X0247948Y0026609D01*
X0248936Y0027597D01*
X0248936Y0033101D01*
X0247828Y0034210D01*
X0241339Y0034210D01*
X0240368Y0033239D01*
X0221987Y0033239D01*
X0220997Y0034228D01*
X0219615Y0034801D01*
X0218118Y0034801D01*
X0216735Y0034228D01*
X0215677Y0033170D01*
X0215104Y0031787D01*
X0215104Y0030291D01*
X0215677Y0028908D01*
X0216735Y0027849D01*
X0218118Y0027277D01*
X0219615Y0027277D01*
X0220997Y0027849D01*
X0221987Y0028839D01*
X0240231Y0028839D01*
X0240231Y0027597D01*
X0241218Y0026609D01*
X0240231Y0025621D01*
X0240231Y0025069D01*
X0196436Y0025069D01*
X0196436Y0025621D01*
X0195448Y0026609D01*
X0196436Y0027597D01*
X0196436Y0029100D01*
X0196783Y0029447D01*
X0196783Y0031270D01*
X0196436Y0031617D01*
X0196436Y0033101D01*
X0195328Y0034210D01*
X0188839Y0034210D01*
X0187868Y0033239D01*
X0169487Y0033239D01*
X0168497Y0034228D01*
X0167115Y0034801D01*
X0165618Y0034801D01*
X0164235Y0034228D01*
X0163177Y0033170D01*
X0162633Y0031858D01*
X0162633Y0033604D01*
X0161579Y0034659D01*
X0120088Y0034659D01*
X0119033Y0033604D01*
X0119033Y0022113D01*
X0120088Y0021059D01*
X0161579Y0021059D01*
X0162633Y0022113D01*
X0162633Y0030220D01*
X0163177Y0028908D01*
X0164235Y0027849D01*
X0165618Y0027277D01*
X0167115Y0027277D01*
X0168497Y0027849D01*
X0169487Y0028839D01*
X0187731Y0028839D01*
X0187731Y0027597D01*
X0188718Y0026609D01*
X0187731Y0025621D01*
X0187731Y0020116D01*
X0188750Y0019097D01*
X0155345Y0019097D01*
X0154355Y0020086D01*
X0152973Y0020659D01*
X0151476Y0020659D01*
X0150093Y0020086D01*
X0149035Y0019028D01*
X0148944Y0018809D01*
X0119245Y0018809D01*
X0118033Y0020020D01*
X0118033Y0020094D02*
X0150112Y0020094D01*
X0154337Y0020094D02*
X0187753Y0020094D01*
X0187731Y0021692D02*
X0162213Y0021692D01*
X0162633Y0023291D02*
X0187731Y0023291D01*
X0187731Y0024889D02*
X0162633Y0024889D01*
X0162633Y0026488D02*
X0188598Y0026488D01*
X0187731Y0028086D02*
X0168734Y0028086D01*
X0163998Y0028086D02*
X0162633Y0028086D01*
X0162633Y0029685D02*
X0162855Y0029685D01*
X0163058Y0032882D02*
X0162633Y0032882D01*
X0161757Y0034480D02*
X0164844Y0034480D01*
X0167889Y0034480D02*
X0217344Y0034480D01*
X0215558Y0032882D02*
X0196436Y0032882D01*
X0196770Y0031283D02*
X0215104Y0031283D01*
X0215355Y0029685D02*
X0196783Y0029685D01*
X0196436Y0028086D02*
X0216498Y0028086D01*
X0221234Y0028086D02*
X0240231Y0028086D01*
X0241098Y0026488D02*
X0195569Y0026488D01*
X0194583Y0030359D02*
X0192093Y0030359D01*
X0192083Y0030349D01*
X0191393Y0031039D02*
X0166366Y0031039D01*
X0170662Y0035370D02*
X0171037Y0035119D01*
X0171454Y0034946D01*
X0171897Y0034858D01*
X0174153Y0034858D01*
X0174153Y0038688D01*
X0169831Y0038688D01*
X0169831Y0036924D01*
X0169919Y0036481D01*
X0170091Y0036064D01*
X0170342Y0035689D01*
X0170662Y0035370D01*
X0170085Y0036079D02*
X0108224Y0036079D01*
X0109823Y0034480D02*
X0119909Y0034480D01*
X0119033Y0032882D02*
X0111421Y0032882D01*
X0113020Y0031283D02*
X0119033Y0031283D01*
X0119033Y0029685D02*
X0114618Y0029685D01*
X0116217Y0028086D02*
X0119033Y0028086D01*
X0119033Y0026488D02*
X0117815Y0026488D01*
X0118033Y0024889D02*
X0119033Y0024889D01*
X0119033Y0023291D02*
X0118033Y0023291D01*
X0118033Y0021692D02*
X0119454Y0021692D01*
X0115833Y0025359D02*
X0105823Y0035369D01*
X0084583Y0035369D01*
X0084583Y0046373D01*
X0079583Y0046373D02*
X0079583Y0039109D01*
X0075843Y0035369D01*
X0075843Y0034109D02*
X0075843Y0026609D01*
X0071983Y0026488D02*
X0068212Y0026488D01*
X0068296Y0024889D02*
X0071983Y0024889D01*
X0072056Y0023291D02*
X0067823Y0023291D01*
X0066555Y0021692D02*
X0081388Y0021692D01*
X0082987Y0020094D02*
X0058883Y0020094D01*
X0058883Y0021692D02*
X0060741Y0021692D01*
X0059474Y0023291D02*
X0058883Y0023291D01*
X0058883Y0024889D02*
X0059000Y0024889D01*
X0059085Y0026488D02*
X0058883Y0026488D01*
X0058883Y0028086D02*
X0059803Y0028086D01*
X0058883Y0029685D02*
X0061133Y0029685D01*
X0061133Y0031283D02*
X0058883Y0031283D01*
X0058883Y0032882D02*
X0061133Y0032882D01*
X0061133Y0034480D02*
X0058883Y0034480D01*
X0058883Y0036079D02*
X0061133Y0036079D01*
X0061133Y0037677D02*
X0058883Y0037677D01*
X0058883Y0039276D02*
X0061133Y0039276D01*
X0061133Y0040875D02*
X0058883Y0040875D01*
X0058883Y0042473D02*
X0061133Y0042473D01*
X0061133Y0044072D02*
X0058883Y0044072D01*
X0058883Y0045670D02*
X0061133Y0045670D01*
X0061133Y0047269D02*
X0058883Y0047269D01*
X0058883Y0048867D02*
X0061133Y0048867D01*
X0061133Y0050466D02*
X0058883Y0050466D01*
X0058883Y0052064D02*
X0061133Y0052064D01*
X0061133Y0053663D02*
X0058883Y0053663D01*
X0058883Y0055261D02*
X0061133Y0055261D01*
X0061133Y0056860D02*
X0058883Y0056860D01*
X0058883Y0058458D02*
X0061133Y0058458D01*
X0061133Y0060057D02*
X0058883Y0060057D01*
X0058883Y0061655D02*
X0061133Y0061655D01*
X0061133Y0063254D02*
X0058883Y0063254D01*
X0058883Y0064852D02*
X0061133Y0064852D01*
X0061133Y0066451D02*
X0058883Y0066451D01*
X0058883Y0068049D02*
X0061133Y0068049D01*
X0061133Y0069648D02*
X0058883Y0069648D01*
X0058883Y0071246D02*
X0061133Y0071246D01*
X0061133Y0072845D02*
X0058883Y0072845D01*
X0058883Y0074443D02*
X0061133Y0074443D01*
X0061133Y0076042D02*
X0058883Y0076042D01*
X0058883Y0077640D02*
X0061133Y0077640D01*
X0061602Y0079239D02*
X0058883Y0079239D01*
X0058883Y0080837D02*
X0063201Y0080837D01*
X0064799Y0082436D02*
X0058883Y0082436D01*
X0058883Y0084034D02*
X0066398Y0084034D01*
X0067996Y0085633D02*
X0058883Y0085633D01*
X0058883Y0087231D02*
X0069595Y0087231D01*
X0072083Y0086609D02*
X0075843Y0086609D01*
X0072083Y0086609D02*
X0063333Y0077859D01*
X0063333Y0026609D01*
X0063648Y0025044D01*
X0067494Y0028086D02*
X0071983Y0028086D01*
X0071983Y0029685D02*
X0065533Y0029685D01*
X0065533Y0031283D02*
X0071983Y0031283D01*
X0071983Y0032882D02*
X0065533Y0032882D01*
X0065533Y0034480D02*
X0071983Y0034480D01*
X0071983Y0036079D02*
X0065533Y0036079D01*
X0065533Y0037677D02*
X0072307Y0037677D01*
X0076639Y0039276D02*
X0065533Y0039276D01*
X0065533Y0040875D02*
X0077383Y0040875D01*
X0077002Y0042473D02*
X0072945Y0042473D01*
X0073483Y0044072D02*
X0077002Y0044072D01*
X0077002Y0045670D02*
X0073033Y0045670D01*
X0073033Y0047269D02*
X0077002Y0047269D01*
X0077002Y0048867D02*
X0073033Y0048867D01*
X0070833Y0051619D02*
X0070833Y0044109D01*
X0068183Y0044072D02*
X0065533Y0044072D01*
X0065533Y0045670D02*
X0068633Y0045670D01*
X0068633Y0047269D02*
X0065533Y0047269D01*
X0065533Y0048867D02*
X0068633Y0048867D01*
X0067731Y0050466D02*
X0065533Y0050466D01*
X0065533Y0052064D02*
X0067731Y0052064D01*
X0067731Y0053663D02*
X0065533Y0053663D01*
X0065533Y0055261D02*
X0067731Y0055261D01*
X0068468Y0056860D02*
X0065533Y0056860D01*
X0065533Y0058458D02*
X0067731Y0058458D01*
X0067731Y0060057D02*
X0065533Y0060057D01*
X0065533Y0061655D02*
X0067731Y0061655D01*
X0067883Y0063254D02*
X0065533Y0063254D01*
X0065533Y0064852D02*
X0069883Y0064852D01*
X0069883Y0066451D02*
X0065533Y0066451D01*
X0065533Y0068049D02*
X0069883Y0068049D01*
X0069883Y0069648D02*
X0065533Y0069648D01*
X0065533Y0071246D02*
X0069883Y0071246D01*
X0069883Y0072845D02*
X0065533Y0072845D01*
X0065533Y0074443D02*
X0069883Y0074443D01*
X0069883Y0076042D02*
X0065533Y0076042D01*
X0066226Y0077640D02*
X0071263Y0077640D01*
X0071983Y0079239D02*
X0067825Y0079239D01*
X0069423Y0080837D02*
X0071983Y0080837D01*
X0072065Y0082436D02*
X0071022Y0082436D01*
X0075843Y0079109D02*
X0080843Y0074109D01*
X0082083Y0072859D01*
X0084583Y0070359D01*
X0089583Y0072849D02*
X0089583Y0066845D01*
X0094583Y0066845D02*
X0094583Y0066845D01*
X0094583Y0066845D01*
X0094583Y0072976D01*
X0096001Y0072976D01*
X0096459Y0072853D01*
X0096870Y0072616D01*
X0097205Y0072281D01*
X0097442Y0071870D01*
X0097564Y0071413D01*
X0097564Y0066845D01*
X0094583Y0066845D01*
X0094583Y0060714D01*
X0096001Y0060714D01*
X0096459Y0060837D01*
X0096870Y0061074D01*
X0097205Y0061409D01*
X0097442Y0061819D01*
X0097564Y0062277D01*
X0097564Y0066845D01*
X0094583Y0066845D01*
X0094583Y0066845D01*
X0094583Y0066451D02*
X0094583Y0066451D01*
X0094583Y0068049D02*
X0094583Y0068049D01*
X0094583Y0069648D02*
X0094583Y0069648D01*
X0094583Y0071246D02*
X0094583Y0071246D01*
X0094583Y0072845D02*
X0094583Y0072845D01*
X0092693Y0072845D02*
X0091783Y0072845D01*
X0091273Y0074443D02*
X0091100Y0074443D01*
X0091273Y0076042D02*
X0090413Y0076042D01*
X0090413Y0077640D02*
X0091273Y0077640D01*
X0093476Y0074443D02*
X0132383Y0074443D01*
X0132383Y0072845D02*
X0096474Y0072845D01*
X0097564Y0071246D02*
X0101890Y0071246D01*
X0100403Y0069648D02*
X0097564Y0069648D01*
X0097564Y0068049D02*
X0100333Y0068049D01*
X0100333Y0066178D02*
X0100333Y0063922D01*
X0100421Y0063480D01*
X0100593Y0063062D01*
X0100844Y0062687D01*
X0101164Y0062368D01*
X0101539Y0062117D01*
X0101956Y0061944D01*
X0102399Y0061856D01*
X0104163Y0061856D01*
X0104163Y0066178D01*
X0100333Y0066178D01*
X0100333Y0064852D02*
X0097564Y0064852D01*
X0097564Y0063254D02*
X0100514Y0063254D01*
X0097347Y0061655D02*
X0109873Y0061655D01*
X0112073Y0059119D02*
X0112083Y0057859D01*
X0085833Y0057859D01*
X0079583Y0064109D01*
X0079583Y0066845D01*
X0086885Y0061655D02*
X0087281Y0061655D01*
X0094583Y0061655D02*
X0094583Y0061655D01*
X0094583Y0063254D02*
X0094583Y0063254D01*
X0094583Y0064852D02*
X0094583Y0064852D01*
X0097564Y0066451D02*
X0104163Y0066451D01*
X0104163Y0068049D02*
X0105023Y0068049D01*
X0105023Y0069648D02*
X0104163Y0069648D01*
X0104163Y0071246D02*
X0105023Y0071246D01*
X0107296Y0071246D02*
X0122002Y0071246D01*
X0122002Y0069648D02*
X0115934Y0069648D01*
X0115934Y0068049D02*
X0122002Y0068049D01*
X0122002Y0066451D02*
X0115934Y0066451D01*
X0115934Y0064852D02*
X0122002Y0064852D01*
X0122002Y0063254D02*
X0115823Y0063254D01*
X0114273Y0061655D02*
X0122281Y0061655D01*
X0126885Y0061655D02*
X0127281Y0061655D01*
X0131885Y0061655D02*
X0132281Y0061655D01*
X0136885Y0061655D02*
X0137281Y0061655D01*
X0141885Y0061655D02*
X0172383Y0061655D01*
X0170843Y0063254D02*
X0142164Y0063254D01*
X0142164Y0064852D02*
X0170231Y0064852D01*
X0170231Y0066451D02*
X0142164Y0066451D01*
X0142164Y0068049D02*
X0170231Y0068049D01*
X0170507Y0069648D02*
X0142164Y0069648D01*
X0142164Y0071246D02*
X0170008Y0071246D01*
X0169831Y0072845D02*
X0142690Y0072845D01*
X0144289Y0074443D02*
X0150691Y0074443D01*
X0152893Y0074443D02*
X0153754Y0074443D01*
X0153754Y0076042D02*
X0152893Y0076042D01*
X0152893Y0077640D02*
X0153754Y0077640D01*
X0153754Y0079239D02*
X0202913Y0079239D01*
X0202913Y0078678D02*
X0199083Y0078678D01*
X0199083Y0076422D01*
X0199171Y0075980D01*
X0199343Y0075562D01*
X0199594Y0075187D01*
X0199914Y0074868D01*
X0200289Y0074617D01*
X0200706Y0074444D01*
X0201149Y0074356D01*
X0202913Y0074356D01*
X0202913Y0078678D01*
X0202913Y0077640D02*
X0203773Y0077640D01*
X0203773Y0076042D02*
X0202913Y0076042D01*
X0202913Y0074443D02*
X0203773Y0074443D01*
X0205976Y0074443D02*
X0208650Y0074443D01*
X0208173Y0072845D02*
X0179336Y0072845D01*
X0179159Y0071246D02*
X0208698Y0071246D01*
X0212949Y0071246D02*
X0227002Y0071246D01*
X0227002Y0069648D02*
X0178659Y0069648D01*
X0178936Y0068049D02*
X0227002Y0068049D01*
X0227002Y0066451D02*
X0178936Y0066451D01*
X0178936Y0064852D02*
X0227002Y0064852D01*
X0227002Y0063254D02*
X0178323Y0063254D01*
X0176783Y0061655D02*
X0227281Y0061655D01*
X0231885Y0061655D02*
X0232281Y0061655D01*
X0236885Y0061655D02*
X0237281Y0061655D01*
X0241885Y0061655D02*
X0242281Y0061655D01*
X0246885Y0061655D02*
X0272383Y0061655D01*
X0270843Y0063254D02*
X0247164Y0063254D01*
X0247164Y0064852D02*
X0270231Y0064852D01*
X0270231Y0066451D02*
X0247164Y0066451D01*
X0247164Y0068049D02*
X0270231Y0068049D01*
X0270507Y0069648D02*
X0247164Y0069648D01*
X0247164Y0071246D02*
X0270008Y0071246D01*
X0269831Y0072845D02*
X0246783Y0072845D01*
X0246789Y0074443D02*
X0253191Y0074443D01*
X0255393Y0074443D02*
X0256254Y0074443D01*
X0256254Y0076042D02*
X0255393Y0076042D01*
X0255393Y0077640D02*
X0256254Y0077640D01*
X0256254Y0079239D02*
X0292913Y0079239D01*
X0292913Y0079539D02*
X0292913Y0078678D01*
X0293773Y0078678D01*
X0293773Y0074356D01*
X0295537Y0074356D01*
X0295980Y0074444D01*
X0296397Y0074617D01*
X0296773Y0074868D01*
X0297092Y0075187D01*
X0297312Y0075516D01*
X0298071Y0074756D01*
X0303576Y0074756D01*
X0304075Y0075256D01*
X0304433Y0074897D01*
X0304433Y0074832D01*
X0304837Y0073858D01*
X0305582Y0073112D01*
X0306556Y0072709D01*
X0307610Y0072709D01*
X0308584Y0073112D01*
X0309330Y0073858D01*
X0309733Y0074832D01*
X0309733Y0075886D01*
X0309330Y0076860D01*
X0308584Y0077605D01*
X0307610Y0078009D01*
X0307545Y0078009D01*
X0304684Y0080869D01*
X0304684Y0082353D01*
X0304178Y0082859D01*
X0304684Y0083364D01*
X0304684Y0089853D01*
X0304178Y0090359D01*
X0304684Y0090864D01*
X0304684Y0091909D01*
X0304922Y0091909D01*
X0309433Y0087397D01*
X0309433Y0087332D01*
X0309837Y0086358D01*
X0310582Y0085612D01*
X0311556Y0085209D01*
X0312610Y0085209D01*
X0313584Y0085612D01*
X0314330Y0086358D01*
X0314733Y0087332D01*
X0314733Y0088386D01*
X0314330Y0089360D01*
X0313584Y0090105D01*
X0312610Y0090509D01*
X0312545Y0090509D01*
X0306745Y0096309D01*
X0304684Y0096309D01*
X0304684Y0097353D01*
X0304178Y0097859D01*
X0304684Y0098364D01*
X0304684Y0102358D01*
X0307082Y0104756D01*
X0311076Y0104756D01*
X0312083Y0105764D01*
X0313091Y0104756D01*
X0318595Y0104756D01*
X0319583Y0105744D01*
X0320571Y0104756D01*
X0326076Y0104756D01*
X0327184Y0105864D01*
X0327184Y0112353D01*
X0326076Y0113461D01*
X0325533Y0113461D01*
X0325533Y0115020D01*
X0324245Y0116309D01*
X0322995Y0117559D01*
X0301172Y0117559D01*
X0299883Y0116270D01*
X0298643Y0115030D01*
X0298643Y0113461D01*
X0298091Y0113461D01*
X0296983Y0112353D01*
X0296983Y0111309D01*
X0294922Y0111309D01*
X0293633Y0110020D01*
X0291143Y0107530D01*
X0291143Y0105961D01*
X0290591Y0105961D01*
X0289483Y0104853D01*
X0289483Y0103809D01*
X0288672Y0103809D01*
X0287383Y0102520D01*
X0281742Y0096879D01*
X0273421Y0096879D01*
X0272431Y0097868D01*
X0271049Y0098441D01*
X0269552Y0098441D01*
X0268169Y0097868D01*
X0267111Y0096810D01*
X0266538Y0095427D01*
X0266538Y0093930D01*
X0267111Y0092547D01*
X0268169Y0091489D01*
X0269552Y0090916D01*
X0271049Y0090916D01*
X0272431Y0091489D01*
X0273421Y0092479D01*
X0283564Y0092479D01*
X0289483Y0098397D01*
X0289483Y0098364D01*
X0289988Y0097859D01*
X0289483Y0097353D01*
X0289483Y0090864D01*
X0289988Y0090359D01*
X0289483Y0089853D01*
X0289483Y0083364D01*
X0289705Y0083142D01*
X0289594Y0083031D01*
X0289343Y0082655D01*
X0289171Y0082238D01*
X0289083Y0081795D01*
X0289083Y0079539D01*
X0292913Y0079539D01*
X0292913Y0078678D02*
X0289083Y0078678D01*
X0289083Y0076422D01*
X0289171Y0075980D01*
X0289343Y0075562D01*
X0289594Y0075187D01*
X0289914Y0074868D01*
X0290289Y0074617D01*
X0290706Y0074444D01*
X0291149Y0074356D01*
X0292913Y0074356D01*
X0292913Y0078678D01*
X0292913Y0077640D02*
X0293773Y0077640D01*
X0293773Y0076042D02*
X0292913Y0076042D01*
X0292913Y0074443D02*
X0293773Y0074443D01*
X0295976Y0074443D02*
X0304594Y0074443D01*
X0306228Y0072845D02*
X0279336Y0072845D01*
X0279159Y0071246D02*
X0317002Y0071246D01*
X0317002Y0069648D02*
X0278659Y0069648D01*
X0278936Y0068049D02*
X0317002Y0068049D01*
X0317002Y0066451D02*
X0278936Y0066451D01*
X0278936Y0064852D02*
X0317002Y0064852D01*
X0317002Y0063254D02*
X0278323Y0063254D01*
X0276783Y0061655D02*
X0317281Y0061655D01*
X0321885Y0061655D02*
X0322281Y0061655D01*
X0326885Y0061655D02*
X0327281Y0061655D01*
X0331885Y0061655D02*
X0332281Y0061655D01*
X0336885Y0061655D02*
X0352373Y0061655D01*
X0354573Y0061619D02*
X0354583Y0057859D01*
X0319583Y0057859D01*
X0319583Y0066845D01*
X0324583Y0066845D02*
X0329583Y0066845D01*
X0329583Y0081609D01*
X0342083Y0094109D01*
X0345843Y0094109D01*
X0341983Y0096822D02*
X0340408Y0096822D01*
X0340087Y0095224D02*
X0338810Y0095224D01*
X0338489Y0093625D02*
X0337211Y0093625D01*
X0336890Y0092027D02*
X0325469Y0092027D01*
X0333693Y0088830D02*
X0314549Y0088830D01*
X0314692Y0087231D02*
X0332095Y0087231D01*
X0330496Y0085633D02*
X0313605Y0085633D01*
X0312083Y0087859D02*
X0305833Y0094109D01*
X0300823Y0094109D01*
X0304684Y0096822D02*
X0319624Y0096822D01*
X0319038Y0095224D02*
X0307829Y0095224D01*
X0309428Y0093625D02*
X0319164Y0093625D01*
X0320131Y0092027D02*
X0311026Y0092027D01*
X0312805Y0090428D02*
X0335292Y0090428D01*
X0335153Y0094679D02*
X0322800Y0094679D01*
X0322004Y0098421D02*
X0304684Y0098421D01*
X0304684Y0100019D02*
X0326516Y0100019D01*
X0326682Y0099618D02*
X0327740Y0098560D01*
X0329123Y0097987D01*
X0330620Y0097987D01*
X0332003Y0098560D01*
X0333061Y0099618D01*
X0333634Y0101001D01*
X0333634Y0102498D01*
X0333061Y0103881D01*
X0332003Y0104939D01*
X0330620Y0105512D01*
X0329123Y0105512D01*
X0327740Y0104939D01*
X0326682Y0103881D01*
X0326109Y0102498D01*
X0326109Y0101001D01*
X0326682Y0099618D01*
X0328076Y0098421D02*
X0323597Y0098421D01*
X0326109Y0101618D02*
X0304684Y0101618D01*
X0305542Y0103216D02*
X0326407Y0103216D01*
X0326135Y0104815D02*
X0327616Y0104815D01*
X0327184Y0106413D02*
X0334029Y0106413D01*
X0333753Y0106690D02*
X0334811Y0105631D01*
X0336194Y0105058D01*
X0337691Y0105058D01*
X0339074Y0105631D01*
X0340132Y0106690D01*
X0340705Y0108072D01*
X0340705Y0109569D01*
X0340132Y0110952D01*
X0339074Y0112010D01*
X0337691Y0112583D01*
X0336194Y0112583D01*
X0334811Y0112010D01*
X0333753Y0110952D01*
X0333180Y0109569D01*
X0333180Y0108072D01*
X0333753Y0106690D01*
X0333205Y0108012D02*
X0327184Y0108012D01*
X0327184Y0109610D02*
X0333197Y0109610D01*
X0334010Y0111209D02*
X0327184Y0111209D01*
X0326730Y0112808D02*
X0341211Y0112808D01*
X0340120Y0114406D02*
X0325533Y0114406D01*
X0324549Y0116005D02*
X0339851Y0116005D01*
X0340214Y0117603D02*
X0295313Y0117603D01*
X0295676Y0116005D02*
X0299618Y0116005D01*
X0298643Y0114406D02*
X0295407Y0114406D01*
X0294457Y0112949D02*
X0291514Y0115892D01*
X0291514Y0115892D01*
X0294457Y0112949D01*
X0294316Y0112808D02*
X0297437Y0112808D01*
X0294822Y0111209D02*
X0287375Y0111209D01*
X0287632Y0110952D02*
X0286574Y0112010D01*
X0285191Y0112583D01*
X0283694Y0112583D01*
X0282311Y0112010D01*
X0281253Y0110952D01*
X0280680Y0109569D01*
X0280680Y0108072D01*
X0281253Y0106690D01*
X0282311Y0105631D01*
X0283694Y0105058D01*
X0285191Y0105058D01*
X0286574Y0105631D01*
X0287632Y0106690D01*
X0288205Y0108072D01*
X0288205Y0109569D01*
X0287632Y0110952D01*
X0288187Y0109610D02*
X0293224Y0109610D01*
X0291625Y0108012D02*
X0288180Y0108012D01*
X0287356Y0106413D02*
X0291143Y0106413D01*
X0293343Y0106619D02*
X0295833Y0109109D01*
X0300843Y0109109D01*
X0300843Y0114119D01*
X0302083Y0115359D01*
X0322083Y0115359D01*
X0323333Y0114109D01*
X0323333Y0109119D01*
X0323323Y0109109D01*
X0315843Y0109109D02*
X0308323Y0109109D01*
X0300823Y0101609D01*
X0300823Y0101589D02*
X0293343Y0094109D01*
X0293343Y0086609D01*
X0289483Y0087231D02*
X0259684Y0087231D01*
X0259684Y0085633D02*
X0289483Y0085633D01*
X0289483Y0084034D02*
X0259684Y0084034D01*
X0259914Y0082436D02*
X0289253Y0082436D01*
X0289083Y0080837D02*
X0260084Y0080837D01*
X0260084Y0077640D02*
X0270454Y0077640D01*
X0270342Y0077529D02*
X0270091Y0077153D01*
X0269919Y0076736D01*
X0269831Y0076293D01*
X0269831Y0074529D01*
X0274153Y0074529D01*
X0274153Y0078360D01*
X0271897Y0078360D01*
X0271454Y0078271D01*
X0271037Y0078099D01*
X0270662Y0077848D01*
X0270342Y0077529D01*
X0269831Y0076042D02*
X0260008Y0076042D01*
X0258456Y0074443D02*
X0274153Y0074443D01*
X0275014Y0074443D02*
X0290710Y0074443D01*
X0289158Y0076042D02*
X0279336Y0076042D01*
X0278713Y0077640D02*
X0289083Y0077640D01*
X0300823Y0079109D02*
X0300823Y0086609D01*
X0304684Y0087231D02*
X0309475Y0087231D01*
X0310562Y0085633D02*
X0304684Y0085633D01*
X0304684Y0084034D02*
X0328898Y0084034D01*
X0327383Y0082436D02*
X0304601Y0082436D01*
X0304716Y0080837D02*
X0327383Y0080837D01*
X0327383Y0079239D02*
X0306315Y0079239D01*
X0308500Y0077640D02*
X0327383Y0077640D01*
X0327383Y0076042D02*
X0309669Y0076042D01*
X0309572Y0074443D02*
X0327383Y0074443D01*
X0327383Y0072845D02*
X0307939Y0072845D01*
X0307083Y0075359D02*
X0303333Y0079109D01*
X0304684Y0088830D02*
X0308001Y0088830D01*
X0306402Y0090428D02*
X0304248Y0090428D01*
X0289919Y0090428D02*
X0259248Y0090428D01*
X0259684Y0088830D02*
X0289483Y0088830D01*
X0289483Y0092027D02*
X0272969Y0092027D01*
X0267631Y0092027D02*
X0259684Y0092027D01*
X0259684Y0093625D02*
X0266664Y0093625D01*
X0266538Y0095224D02*
X0259684Y0095224D01*
X0259684Y0096822D02*
X0267124Y0096822D01*
X0269504Y0098421D02*
X0259684Y0098421D01*
X0259684Y0100019D02*
X0274016Y0100019D01*
X0274182Y0099618D02*
X0275240Y0098560D01*
X0276623Y0097987D01*
X0278120Y0097987D01*
X0279503Y0098560D01*
X0280561Y0099618D01*
X0281134Y0101001D01*
X0281134Y0102498D01*
X0280561Y0103881D01*
X0279503Y0104939D01*
X0278120Y0105512D01*
X0276623Y0105512D01*
X0275240Y0104939D01*
X0274182Y0103881D01*
X0273609Y0102498D01*
X0273609Y0101001D01*
X0274182Y0099618D01*
X0275576Y0098421D02*
X0271097Y0098421D01*
X0270300Y0094679D02*
X0282653Y0094679D01*
X0289583Y0101609D01*
X0293343Y0101609D01*
X0293343Y0106619D01*
X0289483Y0104815D02*
X0279627Y0104815D01*
X0280836Y0103216D02*
X0288080Y0103216D01*
X0286481Y0101618D02*
X0281134Y0101618D01*
X0280727Y0100019D02*
X0284883Y0100019D01*
X0283284Y0098421D02*
X0279166Y0098421D01*
X0273609Y0101618D02*
X0259684Y0101618D01*
X0259684Y0103216D02*
X0273907Y0103216D01*
X0273635Y0104815D02*
X0275116Y0104815D01*
X0274684Y0106413D02*
X0281529Y0106413D01*
X0280705Y0108012D02*
X0274684Y0108012D01*
X0274684Y0109610D02*
X0280697Y0109610D01*
X0281510Y0111209D02*
X0274684Y0111209D01*
X0274230Y0112808D02*
X0288711Y0112808D01*
X0287620Y0114406D02*
X0273033Y0114406D01*
X0272049Y0116005D02*
X0287351Y0116005D01*
X0287714Y0117603D02*
X0242813Y0117603D01*
X0243176Y0116005D02*
X0247118Y0116005D01*
X0246143Y0114406D02*
X0242907Y0114406D01*
X0241957Y0112949D02*
X0239014Y0115892D01*
X0239014Y0115892D01*
X0241957Y0112949D01*
X0241816Y0112808D02*
X0244937Y0112808D01*
X0244483Y0111209D02*
X0234875Y0111209D01*
X0235687Y0109610D02*
X0244483Y0109610D01*
X0244483Y0108012D02*
X0235680Y0108012D01*
X0234856Y0106413D02*
X0244483Y0106413D01*
X0244483Y0104815D02*
X0228635Y0104815D01*
X0228336Y0103216D02*
X0243080Y0103216D01*
X0244583Y0101609D02*
X0248343Y0101609D01*
X0248343Y0109109D01*
X0248343Y0114119D01*
X0249583Y0115359D01*
X0269583Y0115359D01*
X0270833Y0114109D01*
X0270833Y0109119D01*
X0270823Y0109109D01*
X0268012Y0104815D02*
X0266154Y0104815D01*
X0260532Y0104815D02*
X0259684Y0104815D01*
X0255823Y0101609D02*
X0255823Y0094109D01*
X0255823Y0086609D01*
X0248343Y0086609D02*
X0248343Y0079109D01*
X0244583Y0075349D01*
X0244583Y0066845D01*
X0239583Y0066845D02*
X0234583Y0066845D01*
X0229583Y0066845D02*
X0229583Y0057859D01*
X0174583Y0057859D01*
X0174583Y0066619D01*
X0174153Y0074443D02*
X0155956Y0074443D01*
X0157508Y0076042D02*
X0169831Y0076042D01*
X0169831Y0076293D02*
X0169831Y0074529D01*
X0174153Y0074529D01*
X0174153Y0078360D01*
X0171897Y0078360D01*
X0171454Y0078271D01*
X0171037Y0078099D01*
X0170662Y0077848D01*
X0170342Y0077529D01*
X0170091Y0077153D01*
X0169919Y0076736D01*
X0169831Y0076293D01*
X0170454Y0077640D02*
X0157584Y0077640D01*
X0157584Y0080837D02*
X0199083Y0080837D01*
X0199253Y0082436D02*
X0157414Y0082436D01*
X0157184Y0084034D02*
X0199483Y0084034D01*
X0199483Y0085633D02*
X0157184Y0085633D01*
X0157184Y0087231D02*
X0199483Y0087231D01*
X0199483Y0088830D02*
X0157184Y0088830D01*
X0156748Y0090428D02*
X0199919Y0090428D01*
X0199483Y0092027D02*
X0167969Y0092027D01*
X0162631Y0092027D02*
X0157184Y0092027D01*
X0157184Y0093625D02*
X0161664Y0093625D01*
X0161538Y0095224D02*
X0157184Y0095224D01*
X0157184Y0096822D02*
X0162124Y0096822D01*
X0164504Y0098421D02*
X0157184Y0098421D01*
X0157184Y0100019D02*
X0169016Y0100019D01*
X0168609Y0101618D02*
X0157184Y0101618D01*
X0157184Y0103216D02*
X0158614Y0103216D01*
X0159583Y0105359D02*
X0168333Y0105359D01*
X0172083Y0109109D01*
X0172083Y0112849D01*
X0172073Y0112859D01*
X0175934Y0112808D02*
X0183711Y0112808D01*
X0182620Y0114406D02*
X0175934Y0114406D01*
X0175934Y0116005D02*
X0182351Y0116005D01*
X0182714Y0117603D02*
X0137813Y0117603D01*
X0138176Y0116005D02*
X0147118Y0116005D01*
X0145519Y0114406D02*
X0137907Y0114406D01*
X0136957Y0112949D02*
X0134014Y0115892D01*
X0134014Y0115892D01*
X0136957Y0112949D01*
X0136816Y0112808D02*
X0142437Y0112808D01*
X0141983Y0111209D02*
X0129875Y0111209D01*
X0130132Y0110952D02*
X0129074Y0112010D01*
X0127691Y0112583D01*
X0126194Y0112583D01*
X0124811Y0112010D01*
X0123753Y0110952D01*
X0123180Y0109569D01*
X0123180Y0108072D01*
X0123753Y0106690D01*
X0124811Y0105631D01*
X0126194Y0105058D01*
X0127691Y0105058D01*
X0129074Y0105631D01*
X0130132Y0106690D01*
X0130705Y0108072D01*
X0130705Y0109569D01*
X0130132Y0110952D01*
X0130687Y0109610D02*
X0141983Y0109610D01*
X0141983Y0108012D02*
X0130680Y0108012D01*
X0129856Y0106413D02*
X0141983Y0106413D01*
X0141983Y0104815D02*
X0122127Y0104815D01*
X0122003Y0104939D02*
X0120620Y0105512D01*
X0119123Y0105512D01*
X0117740Y0104939D01*
X0116682Y0103881D01*
X0116109Y0102498D01*
X0116109Y0101001D01*
X0116682Y0099618D01*
X0117740Y0098560D01*
X0119123Y0097987D01*
X0120620Y0097987D01*
X0122003Y0098560D01*
X0123061Y0099618D01*
X0123634Y0101001D01*
X0123634Y0102498D01*
X0123061Y0103881D01*
X0122003Y0104939D01*
X0123336Y0103216D02*
X0138080Y0103216D01*
X0139583Y0101609D02*
X0145843Y0101609D01*
X0145843Y0109109D01*
X0145843Y0111619D01*
X0149583Y0115359D01*
X0162093Y0115359D01*
X0164593Y0112859D01*
X0159583Y0105359D02*
X0155833Y0109109D01*
X0153323Y0109109D01*
X0153323Y0101609D01*
X0153323Y0094109D01*
X0153323Y0086609D01*
X0145843Y0086609D02*
X0145843Y0079109D01*
X0139583Y0072849D01*
X0139583Y0066845D01*
X0134583Y0066845D02*
X0134583Y0086609D01*
X0142083Y0094109D01*
X0145843Y0094109D01*
X0141983Y0096822D02*
X0137908Y0096822D01*
X0136310Y0095224D02*
X0140087Y0095224D01*
X0138489Y0093625D02*
X0134711Y0093625D01*
X0132653Y0094679D02*
X0139583Y0101609D01*
X0136481Y0101618D02*
X0123634Y0101618D01*
X0123227Y0100019D02*
X0134883Y0100019D01*
X0133284Y0098421D02*
X0121666Y0098421D01*
X0118076Y0098421D02*
X0113597Y0098421D01*
X0112004Y0098421D02*
X0102184Y0098421D01*
X0102184Y0100019D02*
X0116516Y0100019D01*
X0116109Y0101618D02*
X0102184Y0101618D01*
X0102184Y0103216D02*
X0116407Y0103216D01*
X0116135Y0104815D02*
X0117616Y0104815D01*
X0117184Y0106413D02*
X0124029Y0106413D01*
X0123205Y0108012D02*
X0117184Y0108012D01*
X0117184Y0109610D02*
X0123197Y0109610D01*
X0124010Y0111209D02*
X0117184Y0111209D01*
X0116730Y0112808D02*
X0131211Y0112808D01*
X0130120Y0114406D02*
X0114897Y0114406D01*
X0113333Y0112859D02*
X0110833Y0115359D01*
X0094583Y0115359D01*
X0090843Y0111619D01*
X0090843Y0109109D02*
X0090843Y0101609D01*
X0083913Y0094679D01*
X0060300Y0094679D01*
X0059504Y0098421D02*
X0058883Y0098421D01*
X0058883Y0100019D02*
X0064016Y0100019D01*
X0064182Y0099618D02*
X0065240Y0098560D01*
X0066623Y0097987D01*
X0068120Y0097987D01*
X0069503Y0098560D01*
X0070561Y0099618D01*
X0071134Y0101001D01*
X0071134Y0102498D01*
X0070561Y0103881D01*
X0069503Y0104939D01*
X0068120Y0105512D01*
X0066623Y0105512D01*
X0065240Y0104939D01*
X0064182Y0103881D01*
X0063609Y0102498D01*
X0063609Y0101001D01*
X0064182Y0099618D01*
X0065576Y0098421D02*
X0061097Y0098421D01*
X0058883Y0101618D02*
X0063609Y0101618D01*
X0063907Y0103216D02*
X0058883Y0103216D01*
X0058883Y0104815D02*
X0065116Y0104815D01*
X0069627Y0104815D02*
X0086983Y0104815D01*
X0086983Y0106413D02*
X0077356Y0106413D01*
X0077632Y0106690D02*
X0078205Y0108072D01*
X0078205Y0109569D01*
X0077632Y0110952D01*
X0076574Y0112010D01*
X0075191Y0112583D01*
X0073694Y0112583D01*
X0072311Y0112010D01*
X0071253Y0110952D01*
X0070680Y0109569D01*
X0070680Y0108072D01*
X0071253Y0106690D01*
X0072311Y0105631D01*
X0073694Y0105058D01*
X0075191Y0105058D01*
X0076574Y0105631D01*
X0077632Y0106690D01*
X0078180Y0108012D02*
X0086983Y0108012D01*
X0086983Y0109610D02*
X0078187Y0109610D01*
X0077375Y0111209D02*
X0086983Y0111209D01*
X0087437Y0112808D02*
X0084316Y0112808D01*
X0084457Y0112949D02*
X0081514Y0115892D01*
X0084457Y0112949D01*
X0085407Y0114406D02*
X0090519Y0114406D01*
X0092118Y0116005D02*
X0085676Y0116005D01*
X0085313Y0117603D02*
X0130214Y0117603D01*
X0129851Y0116005D02*
X0113299Y0116005D01*
X0113333Y0112859D02*
X0113333Y0109119D01*
X0105843Y0109109D02*
X0098323Y0109109D01*
X0098323Y0101609D01*
X0098323Y0101589D02*
X0090843Y0094109D01*
X0090843Y0086609D01*
X0098323Y0086609D02*
X0098323Y0079109D01*
X0113333Y0079109D01*
X0115983Y0079239D02*
X0132383Y0079239D01*
X0132383Y0080837D02*
X0115352Y0080837D01*
X0113145Y0082436D02*
X0102101Y0082436D01*
X0102184Y0084034D02*
X0111546Y0084034D01*
X0109948Y0085633D02*
X0102184Y0085633D01*
X0102184Y0087231D02*
X0108349Y0087231D01*
X0106751Y0088830D02*
X0102184Y0088830D01*
X0101748Y0090428D02*
X0105152Y0090428D01*
X0104583Y0094109D02*
X0114583Y0084109D01*
X0118333Y0084109D01*
X0120983Y0084034D02*
X0132383Y0084034D01*
X0132383Y0082436D02*
X0120408Y0082436D01*
X0120557Y0085633D02*
X0132383Y0085633D01*
X0132383Y0087231D02*
X0114572Y0087231D01*
X0112973Y0088830D02*
X0133693Y0088830D01*
X0135292Y0090428D02*
X0111375Y0090428D01*
X0110131Y0092027D02*
X0109776Y0092027D01*
X0109164Y0093625D02*
X0108178Y0093625D01*
X0109038Y0095224D02*
X0106579Y0095224D01*
X0104583Y0094109D02*
X0098323Y0094109D01*
X0102184Y0096822D02*
X0109624Y0096822D01*
X0112800Y0094679D02*
X0132653Y0094679D01*
X0139507Y0098421D02*
X0141983Y0098421D01*
X0136890Y0092027D02*
X0115469Y0092027D01*
X0110512Y0104815D02*
X0108654Y0104815D01*
X0103032Y0104815D02*
X0102184Y0104815D01*
X0086983Y0103216D02*
X0070836Y0103216D01*
X0071134Y0101618D02*
X0086983Y0101618D01*
X0086143Y0100019D02*
X0070727Y0100019D01*
X0069166Y0098421D02*
X0084544Y0098421D01*
X0085971Y0093625D02*
X0086983Y0093625D01*
X0086983Y0092027D02*
X0062969Y0092027D01*
X0058883Y0090428D02*
X0072558Y0090428D01*
X0071983Y0088830D02*
X0058883Y0088830D01*
X0072083Y0075349D02*
X0075843Y0079109D01*
X0083323Y0079109D02*
X0083323Y0086609D01*
X0080038Y0090428D02*
X0079129Y0090428D01*
X0086609Y0090428D02*
X0087419Y0090428D01*
X0083323Y0079109D02*
X0089583Y0072849D01*
X0102184Y0076042D02*
X0132383Y0076042D01*
X0132383Y0077640D02*
X0115593Y0077640D01*
X0112073Y0066609D02*
X0112073Y0059119D01*
X0112083Y0057859D02*
X0124583Y0057859D01*
X0124583Y0066845D01*
X0129583Y0066845D02*
X0134583Y0066845D01*
X0124583Y0057859D02*
X0174583Y0057859D01*
X0174583Y0055359D02*
X0174583Y0046599D01*
X0170231Y0047269D02*
X0142164Y0047269D01*
X0142164Y0048867D02*
X0170231Y0048867D01*
X0172383Y0050466D02*
X0142164Y0050466D01*
X0141783Y0052064D02*
X0172383Y0052064D01*
X0174583Y0055359D02*
X0139583Y0055359D01*
X0139583Y0046373D01*
X0142164Y0045670D02*
X0170231Y0045670D01*
X0170231Y0044072D02*
X0142164Y0044072D01*
X0142164Y0042473D02*
X0170292Y0042473D01*
X0169831Y0040875D02*
X0141577Y0040875D01*
X0137590Y0040875D02*
X0136783Y0040875D01*
X0136612Y0039276D02*
X0174153Y0039276D01*
X0175014Y0039276D02*
X0208183Y0039276D01*
X0208558Y0037677D02*
X0179336Y0037677D01*
X0179336Y0036924D02*
X0179336Y0038688D01*
X0175014Y0038688D01*
X0175014Y0034858D01*
X0177270Y0034858D01*
X0177713Y0034946D01*
X0178130Y0035119D01*
X0178505Y0035370D01*
X0178824Y0035689D01*
X0179075Y0036064D01*
X0179248Y0036481D01*
X0179336Y0036924D01*
X0179081Y0036079D02*
X0269831Y0036079D01*
X0269844Y0034480D02*
X0220389Y0034480D01*
X0218866Y0031039D02*
X0243893Y0031039D01*
X0244393Y0030539D02*
X0244583Y0030349D01*
X0248936Y0029685D02*
X0267855Y0029685D01*
X0267604Y0031283D02*
X0248936Y0031283D01*
X0248936Y0032882D02*
X0268058Y0032882D01*
X0271366Y0031039D02*
X0288893Y0031039D01*
X0289393Y0030539D02*
X0289583Y0030349D01*
X0293936Y0029685D02*
X0320355Y0029685D01*
X0320104Y0031283D02*
X0293936Y0031283D01*
X0293936Y0032882D02*
X0320558Y0032882D01*
X0322344Y0034480D02*
X0278852Y0034480D01*
X0278824Y0034439D02*
X0279075Y0034814D01*
X0279248Y0035231D01*
X0279336Y0035674D01*
X0279336Y0037438D01*
X0275014Y0037438D01*
X0275014Y0033608D01*
X0277270Y0033608D01*
X0277713Y0033696D01*
X0278130Y0033869D01*
X0278505Y0034120D01*
X0278824Y0034439D01*
X0279336Y0036079D02*
X0432572Y0036079D01*
X0431215Y0037677D02*
X0327513Y0037677D01*
X0325833Y0039109D02*
X0329583Y0042859D01*
X0331577Y0040875D02*
X0332590Y0040875D01*
X0329112Y0039276D02*
X0393272Y0039276D01*
X0393272Y0040875D02*
X0379077Y0040875D01*
X0379664Y0042473D02*
X0393272Y0042473D01*
X0393272Y0044072D02*
X0379664Y0044072D01*
X0379664Y0045670D02*
X0393272Y0045670D01*
X0393309Y0047269D02*
X0379664Y0047269D01*
X0379664Y0048867D02*
X0392353Y0048867D01*
X0391697Y0050466D02*
X0379664Y0050466D01*
X0379283Y0052064D02*
X0389767Y0052064D01*
X0392083Y0052859D02*
X0389583Y0055359D01*
X0377083Y0055359D01*
X0377083Y0046373D01*
X0372083Y0046373D02*
X0372083Y0046373D01*
X0372083Y0052503D01*
X0372083Y0046373D01*
X0372083Y0045670D02*
X0372083Y0045670D01*
X0372083Y0044072D02*
X0372083Y0044072D01*
X0372083Y0042473D02*
X0372083Y0042473D01*
X0372083Y0040875D02*
X0372083Y0040875D01*
X0369524Y0040875D02*
X0369077Y0040875D01*
X0365090Y0040875D02*
X0364077Y0040875D01*
X0360090Y0040875D02*
X0357639Y0040875D01*
X0358794Y0042473D02*
X0359502Y0042473D01*
X0359502Y0044072D02*
X0358834Y0044072D01*
X0359502Y0045670D02*
X0355004Y0045670D01*
X0355004Y0044072D02*
X0354143Y0044072D01*
X0354143Y0042473D02*
X0355004Y0042473D01*
X0355004Y0040875D02*
X0354143Y0040875D01*
X0351508Y0040875D02*
X0336577Y0040875D01*
X0337164Y0042473D02*
X0343233Y0042473D01*
X0343233Y0044072D02*
X0337164Y0044072D01*
X0337164Y0045670D02*
X0343233Y0045670D01*
X0343233Y0047269D02*
X0337164Y0047269D01*
X0337164Y0048867D02*
X0343496Y0048867D01*
X0344893Y0050466D02*
X0337164Y0050466D01*
X0336783Y0052064D02*
X0344893Y0052064D01*
X0347093Y0052849D02*
X0347083Y0055359D01*
X0334583Y0055359D01*
X0334583Y0046373D01*
X0324583Y0046373D02*
X0319583Y0046373D01*
X0319347Y0046609D02*
X0312083Y0046609D01*
X0309604Y0045670D02*
X0278936Y0045670D01*
X0278936Y0044072D02*
X0311284Y0044072D01*
X0312883Y0044072D02*
X0317002Y0044072D01*
X0317002Y0042473D02*
X0278812Y0042473D01*
X0279095Y0040875D02*
X0305101Y0040875D01*
X0304433Y0039276D02*
X0279336Y0039276D01*
X0275014Y0037677D02*
X0304808Y0037677D01*
X0307083Y0039109D02*
X0325833Y0039109D01*
X0325389Y0034480D02*
X0374844Y0034480D01*
X0373058Y0032882D02*
X0346436Y0032882D01*
X0346436Y0031283D02*
X0372604Y0031283D01*
X0372855Y0029685D02*
X0346436Y0029685D01*
X0346436Y0028086D02*
X0373998Y0028086D01*
X0378734Y0028086D02*
X0382731Y0028086D01*
X0383598Y0026488D02*
X0345569Y0026488D01*
X0342083Y0030349D02*
X0341893Y0030539D01*
X0341393Y0031039D02*
X0323866Y0031039D01*
X0321498Y0028086D02*
X0293936Y0028086D01*
X0293069Y0026488D02*
X0338598Y0026488D01*
X0337731Y0028086D02*
X0326234Y0028086D01*
X0342083Y0022869D02*
X0289583Y0022869D01*
X0244583Y0022869D01*
X0192083Y0022869D01*
X0194583Y0030359D02*
X0194403Y0030539D01*
X0210833Y0039109D02*
X0238333Y0039109D01*
X0239583Y0040359D01*
X0239583Y0046373D01*
X0234583Y0046373D02*
X0229583Y0046373D01*
X0219583Y0046373D01*
X0218681Y0048867D02*
X0178936Y0048867D01*
X0178936Y0047269D02*
X0217086Y0047269D01*
X0217006Y0045670D02*
X0178936Y0045670D01*
X0178936Y0044072D02*
X0218214Y0044072D01*
X0220953Y0044072D02*
X0227002Y0044072D01*
X0227002Y0042473D02*
X0178875Y0042473D01*
X0179336Y0040875D02*
X0208851Y0040875D01*
X0220486Y0048867D02*
X0227002Y0048867D01*
X0227002Y0050466D02*
X0176783Y0050466D01*
X0176783Y0052064D02*
X0227783Y0052064D01*
X0231383Y0052064D02*
X0232783Y0052064D01*
X0236383Y0052064D02*
X0237783Y0052064D01*
X0241383Y0052064D02*
X0242383Y0052064D01*
X0244583Y0055359D02*
X0244583Y0046373D01*
X0247164Y0045670D02*
X0270231Y0045670D01*
X0270231Y0044072D02*
X0247164Y0044072D01*
X0247164Y0042473D02*
X0270354Y0042473D01*
X0270071Y0040875D02*
X0246577Y0040875D01*
X0242590Y0040875D02*
X0241783Y0040875D01*
X0241612Y0039276D02*
X0269831Y0039276D01*
X0274153Y0037677D02*
X0240013Y0037677D01*
X0247164Y0047269D02*
X0270231Y0047269D01*
X0270996Y0048867D02*
X0247164Y0048867D01*
X0247164Y0050466D02*
X0272383Y0050466D01*
X0272383Y0052064D02*
X0246783Y0052064D01*
X0244583Y0055359D02*
X0174583Y0055359D01*
X0139583Y0055359D02*
X0099333Y0055359D01*
X0094583Y0050359D01*
X0094583Y0046373D01*
X0097164Y0045670D02*
X0100733Y0045670D01*
X0100733Y0044072D02*
X0097164Y0044072D01*
X0097164Y0042473D02*
X0101624Y0042473D01*
X0096577Y0040875D02*
X0111332Y0040875D01*
X0111643Y0042473D02*
X0112504Y0042473D01*
X0112504Y0044072D02*
X0111643Y0044072D01*
X0111643Y0045670D02*
X0112504Y0045670D01*
X0112504Y0047039D02*
X0111643Y0047039D01*
X0111643Y0051361D01*
X0109879Y0051361D01*
X0109436Y0051273D01*
X0109019Y0051101D01*
X0108644Y0050850D01*
X0108325Y0050531D01*
X0108105Y0050202D01*
X0107345Y0050961D01*
X0106793Y0050961D01*
X0106793Y0053159D01*
X0137383Y0053159D01*
X0137383Y0051664D01*
X0137083Y0051364D01*
X0136344Y0052103D01*
X0132822Y0052103D01*
X0132083Y0051364D01*
X0131344Y0052103D01*
X0127822Y0052103D01*
X0127083Y0051364D01*
X0126344Y0052103D01*
X0122822Y0052103D01*
X0122002Y0051283D01*
X0122002Y0047259D01*
X0120181Y0047259D01*
X0119834Y0047605D01*
X0118860Y0048009D01*
X0117806Y0048009D01*
X0116832Y0047605D01*
X0116334Y0047107D01*
X0116334Y0049295D01*
X0116246Y0049738D01*
X0116073Y0050155D01*
X0115822Y0050531D01*
X0115503Y0050850D01*
X0115128Y0051101D01*
X0114711Y0051273D01*
X0114268Y0051361D01*
X0112504Y0051361D01*
X0112504Y0047039D01*
X0112504Y0047269D02*
X0111643Y0047269D01*
X0111643Y0048867D02*
X0112504Y0048867D01*
X0112504Y0050466D02*
X0111643Y0050466D01*
X0108281Y0050466D02*
X0107841Y0050466D01*
X0106793Y0052064D02*
X0122783Y0052064D01*
X0122002Y0050466D02*
X0115866Y0050466D01*
X0116334Y0048867D02*
X0122002Y0048867D01*
X0122002Y0047269D02*
X0120171Y0047269D01*
X0116495Y0047269D02*
X0116334Y0047269D01*
X0115608Y0042473D02*
X0122002Y0042473D01*
X0119583Y0039109D02*
X0133333Y0039109D01*
X0134583Y0040359D01*
X0134583Y0046373D01*
X0132783Y0052064D02*
X0131383Y0052064D01*
X0127783Y0052064D02*
X0126383Y0052064D01*
X0136383Y0052064D02*
X0137383Y0052064D01*
X0119583Y0039109D02*
X0113323Y0039119D01*
X0110673Y0039276D02*
X0086783Y0039276D01*
X0086783Y0040875D02*
X0087590Y0040875D01*
X0091577Y0040875D02*
X0092590Y0040875D01*
X0089583Y0046373D02*
X0089583Y0051609D01*
X0088323Y0052869D01*
X0072083Y0052869D01*
X0076436Y0050466D02*
X0077002Y0050466D01*
X0072083Y0060349D02*
X0072083Y0075349D01*
X0104163Y0064852D02*
X0105023Y0064852D01*
X0105023Y0063254D02*
X0104163Y0063254D01*
X0104593Y0055349D02*
X0104593Y0046609D01*
X0100733Y0047269D02*
X0097164Y0047269D01*
X0097164Y0048867D02*
X0100733Y0048867D01*
X0101345Y0050466D02*
X0097719Y0050466D01*
X0099238Y0052064D02*
X0102393Y0052064D01*
X0107562Y0042473D02*
X0108539Y0042473D01*
X0111052Y0037677D02*
X0086860Y0037677D01*
X0087184Y0032882D02*
X0105199Y0032882D01*
X0106797Y0031283D02*
X0087184Y0031283D01*
X0087184Y0029685D02*
X0095411Y0029685D01*
X0093267Y0028086D02*
X0087184Y0028086D01*
X0098814Y0029685D02*
X0106295Y0029685D01*
X0104666Y0028086D02*
X0100958Y0028086D01*
X0101676Y0026488D02*
X0103992Y0026488D01*
X0103887Y0024889D02*
X0101761Y0024889D01*
X0101287Y0023291D02*
X0104312Y0023291D01*
X0105451Y0021692D02*
X0100020Y0021692D01*
X0108641Y0021692D02*
X0109207Y0021692D01*
X0109207Y0023291D02*
X0108641Y0023291D01*
X0108641Y0024889D02*
X0109207Y0024889D01*
X0087782Y0015298D02*
X0058883Y0015298D01*
X0058883Y0013700D02*
X0089381Y0013700D01*
X0090979Y0012101D02*
X0058883Y0012101D01*
X0058883Y0010503D02*
X0092578Y0010503D01*
X0093567Y0008904D02*
X0058883Y0008904D01*
X0058883Y0016897D02*
X0086184Y0016897D01*
X0084585Y0018495D02*
X0058883Y0018495D01*
X0065533Y0042473D02*
X0068721Y0042473D01*
X0135013Y0037677D02*
X0169831Y0037677D01*
X0174153Y0037677D02*
X0175014Y0037677D01*
X0175014Y0036079D02*
X0174153Y0036079D01*
X0229583Y0057859D02*
X0274583Y0057859D01*
X0274583Y0066619D01*
X0274583Y0057859D02*
X0319583Y0057859D01*
X0317783Y0052064D02*
X0276783Y0052064D01*
X0276783Y0050466D02*
X0317002Y0050466D01*
X0317002Y0048867D02*
X0313556Y0048867D01*
X0310611Y0048867D02*
X0278170Y0048867D01*
X0278936Y0047269D02*
X0309488Y0047269D01*
X0321383Y0052064D02*
X0322783Y0052064D01*
X0326383Y0052064D02*
X0327783Y0052064D01*
X0331383Y0052064D02*
X0332383Y0052064D01*
X0334583Y0055359D02*
X0274583Y0055359D01*
X0274583Y0045349D01*
X0274153Y0036079D02*
X0275014Y0036079D01*
X0275014Y0034480D02*
X0274153Y0034480D01*
X0273734Y0028086D02*
X0285231Y0028086D01*
X0286098Y0026488D02*
X0248069Y0026488D01*
X0248936Y0028086D02*
X0268998Y0028086D01*
X0287083Y0022859D02*
X0289573Y0022859D01*
X0289583Y0022869D01*
X0287093Y0022869D01*
X0287083Y0022859D01*
X0342083Y0022869D02*
X0387083Y0022869D01*
X0403333Y0022869D01*
X0463333Y0022859D01*
X0463333Y0022860D01*
X0463333Y0031609D01*
X0474583Y0042859D01*
X0474583Y0045609D01*
X0471215Y0045670D02*
X0464768Y0045670D01*
X0464399Y0045670D02*
X0454768Y0045670D01*
X0454768Y0045793D02*
X0458352Y0045793D01*
X0458352Y0053068D01*
X0458245Y0053606D01*
X0458035Y0054113D01*
X0457730Y0054569D01*
X0457342Y0054956D01*
X0456886Y0055261D01*
X0456380Y0055471D01*
X0455842Y0055578D01*
X0454768Y0055578D01*
X0454768Y0045793D01*
X0454768Y0045424D01*
X0458352Y0045424D01*
X0458352Y0038149D01*
X0458245Y0037612D01*
X0458035Y0037105D01*
X0457730Y0036649D01*
X0457342Y0036261D01*
X0456886Y0035956D01*
X0456380Y0035746D01*
X0455842Y0035639D01*
X0454768Y0035639D01*
X0454768Y0045424D01*
X0454399Y0045424D01*
X0454399Y0035639D01*
X0453325Y0035639D01*
X0452787Y0035746D01*
X0452280Y0035956D01*
X0451824Y0036261D01*
X0451436Y0036649D01*
X0451132Y0037105D01*
X0450922Y0037612D01*
X0450815Y0038149D01*
X0450815Y0045424D01*
X0454399Y0045424D01*
X0454399Y0045793D01*
X0450815Y0045793D01*
X0450815Y0053068D01*
X0450922Y0053606D01*
X0451132Y0054113D01*
X0451436Y0054569D01*
X0451824Y0054956D01*
X0452280Y0055261D01*
X0446886Y0055261D01*
X0446380Y0055471D01*
X0445842Y0055578D01*
X0444768Y0055578D01*
X0444768Y0045793D01*
X0448352Y0045793D01*
X0448352Y0053068D01*
X0448245Y0053606D01*
X0448035Y0054113D01*
X0447730Y0054569D01*
X0447342Y0054956D01*
X0446886Y0055261D01*
X0448221Y0053663D02*
X0450945Y0053663D01*
X0450815Y0052064D02*
X0448352Y0052064D01*
X0448352Y0050466D02*
X0450815Y0050466D01*
X0450815Y0048867D02*
X0448352Y0048867D01*
X0448352Y0047269D02*
X0450815Y0047269D01*
X0448352Y0045424D02*
X0444768Y0045424D01*
X0444768Y0045793D01*
X0444399Y0045793D01*
X0444399Y0045424D01*
X0444768Y0045424D01*
X0444768Y0035639D01*
X0445842Y0035639D01*
X0446380Y0035746D01*
X0446886Y0035956D01*
X0447342Y0036261D01*
X0447730Y0036649D01*
X0448035Y0037105D01*
X0448245Y0037612D01*
X0448352Y0038149D01*
X0448352Y0045424D01*
X0448352Y0044072D02*
X0450815Y0044072D01*
X0450815Y0042473D02*
X0448352Y0042473D01*
X0448352Y0040875D02*
X0450815Y0040875D01*
X0450815Y0039276D02*
X0448352Y0039276D01*
X0448258Y0037677D02*
X0450909Y0037677D01*
X0452097Y0036079D02*
X0447070Y0036079D01*
X0444768Y0036079D02*
X0444399Y0036079D01*
X0444399Y0035639D02*
X0444399Y0045424D01*
X0440815Y0045424D01*
X0440815Y0038149D01*
X0440922Y0037612D01*
X0441132Y0037105D01*
X0441436Y0036649D01*
X0441824Y0036261D01*
X0442280Y0035956D01*
X0442787Y0035746D01*
X0443325Y0035639D01*
X0444399Y0035639D01*
X0444399Y0037677D02*
X0444768Y0037677D01*
X0444768Y0039276D02*
X0444399Y0039276D01*
X0444399Y0040875D02*
X0444768Y0040875D01*
X0444768Y0042473D02*
X0444399Y0042473D01*
X0444399Y0044072D02*
X0444768Y0044072D01*
X0444768Y0045670D02*
X0454399Y0045670D01*
X0454399Y0045793D02*
X0454399Y0055578D01*
X0453325Y0055578D01*
X0452787Y0055471D01*
X0452280Y0055261D01*
X0454399Y0055261D02*
X0454768Y0055261D01*
X0454768Y0053663D02*
X0454399Y0053663D01*
X0454399Y0052064D02*
X0454768Y0052064D01*
X0454768Y0050466D02*
X0454399Y0050466D01*
X0454399Y0048867D02*
X0454768Y0048867D01*
X0454768Y0047269D02*
X0454399Y0047269D01*
X0454399Y0045793D02*
X0454768Y0045793D01*
X0454768Y0044072D02*
X0454399Y0044072D01*
X0454399Y0042473D02*
X0454768Y0042473D01*
X0454768Y0040875D02*
X0454399Y0040875D01*
X0454399Y0039276D02*
X0454768Y0039276D01*
X0454768Y0037677D02*
X0454399Y0037677D01*
X0454399Y0036079D02*
X0454768Y0036079D01*
X0457070Y0036079D02*
X0462097Y0036079D01*
X0463094Y0034480D02*
X0430389Y0034480D01*
X0432175Y0032882D02*
X0461495Y0032882D01*
X0461133Y0031283D02*
X0432629Y0031283D01*
X0432378Y0029685D02*
X0461133Y0029685D01*
X0461133Y0028086D02*
X0431234Y0028086D01*
X0426498Y0028086D02*
X0407686Y0028086D01*
X0406819Y0026488D02*
X0461133Y0026488D01*
X0465533Y0028086D02*
X0470822Y0028086D01*
X0469848Y0026488D02*
X0469319Y0026488D01*
X0472000Y0029685D02*
X0465533Y0029685D01*
X0466119Y0031283D02*
X0473598Y0031283D01*
X0475197Y0032882D02*
X0467718Y0032882D01*
X0469316Y0034480D02*
X0479844Y0034480D01*
X0482889Y0034480D02*
X0484417Y0034480D01*
X0484417Y0036079D02*
X0476595Y0036079D01*
X0477952Y0037677D02*
X0484417Y0037677D01*
X0484417Y0039276D02*
X0477952Y0039276D01*
X0477952Y0040875D02*
X0484417Y0040875D01*
X0484417Y0042473D02*
X0477952Y0042473D01*
X0477952Y0044072D02*
X0484417Y0044072D01*
X0484417Y0045670D02*
X0477952Y0045670D01*
X0477952Y0047269D02*
X0484417Y0047269D01*
X0484417Y0048867D02*
X0477952Y0048867D01*
X0477952Y0050466D02*
X0484417Y0050466D01*
X0484417Y0052064D02*
X0477952Y0052064D01*
X0477952Y0053663D02*
X0484417Y0053663D01*
X0484417Y0055261D02*
X0477183Y0055261D01*
X0477183Y0056860D02*
X0484417Y0056860D01*
X0484417Y0058458D02*
X0477183Y0058458D01*
X0477952Y0060057D02*
X0484417Y0060057D01*
X0484417Y0061655D02*
X0477952Y0061655D01*
X0477952Y0063254D02*
X0484417Y0063254D01*
X0484417Y0064852D02*
X0477952Y0064852D01*
X0477952Y0066451D02*
X0484417Y0066451D01*
X0484417Y0068049D02*
X0477952Y0068049D01*
X0477952Y0069648D02*
X0484417Y0069648D01*
X0484417Y0071246D02*
X0477952Y0071246D01*
X0477952Y0072845D02*
X0484417Y0072845D01*
X0484417Y0074443D02*
X0477952Y0074443D01*
X0477691Y0076042D02*
X0484417Y0076042D01*
X0484417Y0077640D02*
X0477183Y0077640D01*
X0476826Y0079239D02*
X0484417Y0079239D01*
X0484417Y0080837D02*
X0475282Y0080837D01*
X0473683Y0082436D02*
X0484417Y0082436D01*
X0484417Y0084034D02*
X0471772Y0084034D01*
X0484417Y0085633D02*
X0402184Y0085633D01*
X0402184Y0087231D02*
X0484417Y0087231D01*
X0484417Y0088830D02*
X0402184Y0088830D01*
X0401748Y0090428D02*
X0484417Y0090428D01*
X0484417Y0092027D02*
X0402184Y0092027D01*
X0402184Y0093625D02*
X0484417Y0093625D01*
X0484417Y0095224D02*
X0481957Y0095224D01*
X0481901Y0095168D02*
X0483209Y0096476D01*
X0483916Y0098184D01*
X0483916Y0100033D01*
X0483209Y0101742D01*
X0481901Y0103049D01*
X0480193Y0103757D01*
X0478344Y0103757D01*
X0476635Y0103049D01*
X0475328Y0101742D01*
X0474620Y0100033D01*
X0474620Y0098184D01*
X0475328Y0096476D01*
X0476635Y0095168D01*
X0478344Y0094461D01*
X0480193Y0094461D01*
X0481901Y0095168D01*
X0483352Y0096822D02*
X0484417Y0096822D01*
X0484417Y0098421D02*
X0483916Y0098421D01*
X0483916Y0100019D02*
X0484417Y0100019D01*
X0484417Y0101618D02*
X0483260Y0101618D01*
X0484417Y0103216D02*
X0481497Y0103216D01*
X0484417Y0104815D02*
X0431135Y0104815D01*
X0432055Y0103787D02*
X0431347Y0103426D01*
X0430704Y0102959D01*
X0430142Y0102397D01*
X0429675Y0101754D01*
X0429315Y0101047D01*
X0429069Y0100291D01*
X0428945Y0099506D01*
X0428945Y0099391D01*
X0433710Y0099391D01*
X0433710Y0098826D01*
X0428945Y0098826D01*
X0428945Y0098711D01*
X0429069Y0097927D01*
X0429315Y0097171D01*
X0429675Y0096463D01*
X0430142Y0095820D01*
X0430704Y0095258D01*
X0431347Y0094791D01*
X0432055Y0094431D01*
X0432811Y0094185D01*
X0433595Y0094061D01*
X0433710Y0094061D01*
X0433710Y0098826D01*
X0434275Y0098826D01*
X0434275Y0094061D01*
X0434390Y0094061D01*
X0435175Y0094185D01*
X0435931Y0094431D01*
X0436639Y0094791D01*
X0437281Y0095258D01*
X0437843Y0095820D01*
X0438310Y0096463D01*
X0438671Y0097171D01*
X0438916Y0097927D01*
X0439041Y0098711D01*
X0439041Y0098826D01*
X0434276Y0098826D01*
X0434276Y0099391D01*
X0439041Y0099391D01*
X0439041Y0099506D01*
X0438916Y0100291D01*
X0438671Y0101047D01*
X0438310Y0101754D01*
X0437843Y0102397D01*
X0437281Y0102959D01*
X0436639Y0103426D01*
X0435931Y0103787D01*
X0435175Y0104032D01*
X0434390Y0104157D01*
X0434275Y0104157D01*
X0434275Y0099391D01*
X0433710Y0099391D01*
X0433710Y0104157D01*
X0433595Y0104157D01*
X0432811Y0104032D01*
X0432055Y0103787D01*
X0431058Y0103216D02*
X0410542Y0103216D01*
X0409684Y0101618D02*
X0429606Y0101618D01*
X0429026Y0100019D02*
X0409684Y0100019D01*
X0409684Y0098421D02*
X0428991Y0098421D01*
X0429492Y0096822D02*
X0404148Y0096822D01*
X0402550Y0095224D02*
X0430752Y0095224D01*
X0433710Y0095224D02*
X0434275Y0095224D01*
X0434275Y0096822D02*
X0433710Y0096822D01*
X0433710Y0098421D02*
X0434275Y0098421D01*
X0434275Y0100019D02*
X0433710Y0100019D01*
X0433710Y0101618D02*
X0434275Y0101618D01*
X0434275Y0103216D02*
X0433710Y0103216D01*
X0436927Y0103216D02*
X0443575Y0103216D01*
X0443171Y0103049D02*
X0441863Y0101742D01*
X0441156Y0100033D01*
X0441156Y0098184D01*
X0441863Y0096476D01*
X0443171Y0095168D01*
X0444879Y0094461D01*
X0446728Y0094461D01*
X0448437Y0095168D01*
X0449744Y0096476D01*
X0450452Y0098184D01*
X0450452Y0100033D01*
X0449744Y0101742D01*
X0448437Y0103049D01*
X0446728Y0103757D01*
X0444879Y0103757D01*
X0443171Y0103049D01*
X0441812Y0101618D02*
X0438380Y0101618D01*
X0438959Y0100019D02*
X0441156Y0100019D01*
X0441156Y0098421D02*
X0438995Y0098421D01*
X0438493Y0096822D02*
X0441720Y0096822D01*
X0443115Y0095224D02*
X0437234Y0095224D01*
X0448492Y0095224D02*
X0476580Y0095224D01*
X0475184Y0096822D02*
X0449888Y0096822D01*
X0450452Y0098421D02*
X0474620Y0098421D01*
X0474620Y0100019D02*
X0450452Y0100019D01*
X0449795Y0101618D02*
X0475277Y0101618D01*
X0477039Y0103216D02*
X0448033Y0103216D01*
X0432184Y0106413D02*
X0484417Y0106413D01*
X0484417Y0108012D02*
X0432184Y0108012D01*
X0432184Y0109610D02*
X0484417Y0109610D01*
X0484417Y0111209D02*
X0432184Y0111209D01*
X0431730Y0112808D02*
X0484417Y0112808D01*
X0484417Y0114406D02*
X0430533Y0114406D01*
X0429549Y0116005D02*
X0484417Y0116005D01*
X0484417Y0117603D02*
X0400313Y0117603D01*
X0400676Y0116005D02*
X0404618Y0116005D01*
X0403643Y0114406D02*
X0400407Y0114406D01*
X0399457Y0112949D02*
X0396514Y0115892D01*
X0396514Y0115892D01*
X0399457Y0112949D01*
X0399316Y0112808D02*
X0402437Y0112808D01*
X0401983Y0111209D02*
X0392375Y0111209D01*
X0392632Y0110952D02*
X0391574Y0112010D01*
X0390191Y0112583D01*
X0388694Y0112583D01*
X0387311Y0112010D01*
X0386253Y0110952D01*
X0385680Y0109569D01*
X0385680Y0108072D01*
X0386253Y0106690D01*
X0387311Y0105631D01*
X0388694Y0105058D01*
X0390191Y0105058D01*
X0391574Y0105631D01*
X0392632Y0106690D01*
X0393205Y0108072D01*
X0393205Y0109569D01*
X0392632Y0110952D01*
X0393187Y0109610D02*
X0401983Y0109610D01*
X0401635Y0108012D02*
X0393180Y0108012D01*
X0392356Y0106413D02*
X0400037Y0106413D01*
X0394483Y0104815D02*
X0384627Y0104815D01*
X0385836Y0103216D02*
X0388080Y0103216D01*
X0389583Y0101609D02*
X0398343Y0101609D01*
X0405843Y0109109D01*
X0405843Y0114119D01*
X0407083Y0115359D01*
X0427083Y0115359D01*
X0428333Y0114109D01*
X0428333Y0109119D01*
X0428323Y0109109D01*
X0420843Y0109109D02*
X0413323Y0109109D01*
X0405823Y0101609D01*
X0398323Y0094109D01*
X0398323Y0086609D01*
X0402184Y0084034D02*
X0426145Y0084034D01*
X0424233Y0082436D02*
X0402414Y0082436D01*
X0402584Y0080837D02*
X0422635Y0080837D01*
X0421036Y0079239D02*
X0398754Y0079239D01*
X0402584Y0077640D02*
X0419438Y0077640D01*
X0418302Y0076042D02*
X0402508Y0076042D01*
X0402371Y0074443D02*
X0403977Y0074443D01*
X0404018Y0074597D02*
X0403896Y0074139D01*
X0403896Y0071134D01*
X0408070Y0071134D01*
X0408070Y0075702D01*
X0405459Y0075702D01*
X0405001Y0075579D01*
X0404590Y0075342D01*
X0404255Y0075007D01*
X0404018Y0074597D01*
X0403896Y0072845D02*
X0402371Y0072845D01*
X0402371Y0071246D02*
X0403896Y0071246D01*
X0403896Y0069584D02*
X0403896Y0066578D01*
X0404018Y0066121D01*
X0404255Y0065710D01*
X0404590Y0065375D01*
X0405001Y0065138D01*
X0405459Y0065015D01*
X0408070Y0065015D01*
X0408070Y0069584D01*
X0403896Y0069584D01*
X0402371Y0069648D02*
X0408070Y0069648D01*
X0408070Y0069584D02*
X0408070Y0071134D01*
X0409620Y0071134D01*
X0409620Y0075702D01*
X0412232Y0075702D01*
X0412690Y0075579D01*
X0413100Y0075342D01*
X0413435Y0075007D01*
X0413672Y0074597D01*
X0413795Y0074139D01*
X0413795Y0071134D01*
X0409620Y0071134D01*
X0409620Y0069584D01*
X0413795Y0069584D01*
X0413795Y0066578D01*
X0413672Y0066121D01*
X0413435Y0065710D01*
X0413100Y0065375D01*
X0412690Y0065138D01*
X0412232Y0065015D01*
X0409620Y0065015D01*
X0409620Y0069584D01*
X0408070Y0069584D01*
X0408070Y0068049D02*
X0409620Y0068049D01*
X0409620Y0066451D02*
X0408070Y0066451D01*
X0409620Y0069648D02*
X0418233Y0069648D01*
X0418233Y0071246D02*
X0413795Y0071246D01*
X0413795Y0072845D02*
X0418233Y0072845D01*
X0418233Y0074443D02*
X0413713Y0074443D01*
X0409620Y0074443D02*
X0408070Y0074443D01*
X0408070Y0072845D02*
X0409620Y0072845D01*
X0409620Y0071246D02*
X0408070Y0071246D01*
X0403896Y0068049D02*
X0402371Y0068049D01*
X0402371Y0066451D02*
X0403930Y0066451D01*
X0398053Y0064852D02*
X0414150Y0064852D01*
X0413760Y0066451D02*
X0415748Y0066451D01*
X0417347Y0068049D02*
X0413795Y0068049D01*
X0419905Y0063254D02*
X0431215Y0063254D01*
X0431215Y0064852D02*
X0421504Y0064852D01*
X0423064Y0066451D02*
X0431215Y0066451D01*
X0431215Y0068049D02*
X0423433Y0068049D01*
X0423433Y0069648D02*
X0431215Y0069648D01*
X0431215Y0071246D02*
X0423433Y0071246D01*
X0423433Y0072845D02*
X0431215Y0072845D01*
X0431215Y0074443D02*
X0423595Y0074443D01*
X0425193Y0076042D02*
X0431475Y0076042D01*
X0426792Y0077640D02*
X0471125Y0077640D01*
X0471475Y0076042D02*
X0468064Y0076042D01*
X0468035Y0076113D02*
X0467730Y0076569D01*
X0467342Y0076956D01*
X0466886Y0077261D01*
X0466380Y0077471D01*
X0465842Y0077578D01*
X0464768Y0077578D01*
X0464768Y0067793D01*
X0468352Y0067793D01*
X0468352Y0075068D01*
X0468245Y0075606D01*
X0468035Y0076113D01*
X0468352Y0074443D02*
X0471215Y0074443D01*
X0471215Y0072845D02*
X0468352Y0072845D01*
X0468352Y0071246D02*
X0471215Y0071246D01*
X0471215Y0069648D02*
X0468352Y0069648D01*
X0468352Y0068049D02*
X0471215Y0068049D01*
X0471215Y0066451D02*
X0468352Y0066451D01*
X0468352Y0067424D02*
X0464768Y0067424D01*
X0464768Y0067793D01*
X0464399Y0067793D01*
X0464399Y0067424D01*
X0464768Y0067424D01*
X0464768Y0057639D01*
X0465842Y0057639D01*
X0466380Y0057746D01*
X0466886Y0057956D01*
X0467342Y0058261D01*
X0467730Y0058649D01*
X0468035Y0059105D01*
X0468245Y0059612D01*
X0468352Y0060149D01*
X0468352Y0067424D01*
X0468352Y0064852D02*
X0471215Y0064852D01*
X0471215Y0063254D02*
X0468352Y0063254D01*
X0468352Y0061655D02*
X0471215Y0061655D01*
X0471215Y0060057D02*
X0468333Y0060057D01*
X0467540Y0058458D02*
X0471983Y0058458D01*
X0471983Y0056860D02*
X0437183Y0056860D01*
X0437183Y0058458D02*
X0441627Y0058458D01*
X0441436Y0058649D02*
X0441824Y0058261D01*
X0442280Y0057956D01*
X0442787Y0057746D01*
X0443325Y0057639D01*
X0444399Y0057639D01*
X0444399Y0067424D01*
X0444768Y0067424D01*
X0444768Y0067793D01*
X0448352Y0067793D01*
X0448352Y0075068D01*
X0448245Y0075606D01*
X0448035Y0076113D01*
X0447730Y0076569D01*
X0447342Y0076956D01*
X0446886Y0077261D01*
X0446380Y0077471D01*
X0445842Y0077578D01*
X0444768Y0077578D01*
X0444768Y0067793D01*
X0444399Y0067793D01*
X0444399Y0067424D01*
X0440815Y0067424D01*
X0440815Y0060149D01*
X0440922Y0059612D01*
X0441132Y0059105D01*
X0441436Y0058649D01*
X0440833Y0060057D02*
X0437952Y0060057D01*
X0437952Y0061655D02*
X0440815Y0061655D01*
X0440815Y0063254D02*
X0437952Y0063254D01*
X0437952Y0064852D02*
X0440815Y0064852D01*
X0440815Y0066451D02*
X0437952Y0066451D01*
X0437952Y0068049D02*
X0440815Y0068049D01*
X0440815Y0067793D02*
X0440815Y0075068D01*
X0440922Y0075606D01*
X0441132Y0076113D01*
X0441436Y0076569D01*
X0441824Y0076956D01*
X0442280Y0077261D01*
X0442787Y0077471D01*
X0443325Y0077578D01*
X0444399Y0077578D01*
X0444399Y0067793D01*
X0440815Y0067793D01*
X0440815Y0069648D02*
X0437952Y0069648D01*
X0437952Y0071246D02*
X0440815Y0071246D01*
X0440815Y0072845D02*
X0437952Y0072845D01*
X0437952Y0074443D02*
X0440815Y0074443D01*
X0441102Y0076042D02*
X0437691Y0076042D01*
X0444399Y0076042D02*
X0444768Y0076042D01*
X0444768Y0074443D02*
X0444399Y0074443D01*
X0444399Y0072845D02*
X0444768Y0072845D01*
X0444768Y0071246D02*
X0444399Y0071246D01*
X0444399Y0069648D02*
X0444768Y0069648D01*
X0444768Y0068049D02*
X0444399Y0068049D01*
X0444768Y0067424D02*
X0448352Y0067424D01*
X0448352Y0060149D01*
X0448245Y0059612D01*
X0448035Y0059105D01*
X0447730Y0058649D01*
X0447342Y0058261D01*
X0446886Y0057956D01*
X0446380Y0057746D01*
X0445842Y0057639D01*
X0444768Y0057639D01*
X0444768Y0067424D01*
X0444768Y0066451D02*
X0444399Y0066451D01*
X0444399Y0064852D02*
X0444768Y0064852D01*
X0444768Y0063254D02*
X0444399Y0063254D01*
X0444399Y0061655D02*
X0444768Y0061655D01*
X0444768Y0060057D02*
X0444399Y0060057D01*
X0444399Y0058458D02*
X0444768Y0058458D01*
X0447540Y0058458D02*
X0451627Y0058458D01*
X0451436Y0058649D02*
X0451824Y0058261D01*
X0452280Y0057956D01*
X0452787Y0057746D01*
X0453325Y0057639D01*
X0454399Y0057639D01*
X0454399Y0067424D01*
X0454768Y0067424D01*
X0454768Y0067793D01*
X0458352Y0067793D01*
X0458352Y0075068D01*
X0458245Y0075606D01*
X0458035Y0076113D01*
X0457730Y0076569D01*
X0457342Y0076956D01*
X0456886Y0077261D01*
X0456380Y0077471D01*
X0455842Y0077578D01*
X0454768Y0077578D01*
X0454768Y0067793D01*
X0454399Y0067793D01*
X0454399Y0067424D01*
X0450815Y0067424D01*
X0450815Y0060149D01*
X0450922Y0059612D01*
X0451132Y0059105D01*
X0451436Y0058649D01*
X0450833Y0060057D02*
X0448333Y0060057D01*
X0448352Y0061655D02*
X0450815Y0061655D01*
X0450815Y0063254D02*
X0448352Y0063254D01*
X0448352Y0064852D02*
X0450815Y0064852D01*
X0450815Y0066451D02*
X0448352Y0066451D01*
X0448352Y0068049D02*
X0450815Y0068049D01*
X0450815Y0067793D02*
X0450815Y0075068D01*
X0450922Y0075606D01*
X0451132Y0076113D01*
X0451436Y0076569D01*
X0451824Y0076956D01*
X0452280Y0077261D01*
X0452787Y0077471D01*
X0453325Y0077578D01*
X0454399Y0077578D01*
X0454399Y0067793D01*
X0450815Y0067793D01*
X0450815Y0069648D02*
X0448352Y0069648D01*
X0448352Y0071246D02*
X0450815Y0071246D01*
X0450815Y0072845D02*
X0448352Y0072845D01*
X0448352Y0074443D02*
X0450815Y0074443D01*
X0451102Y0076042D02*
X0448064Y0076042D01*
X0454399Y0076042D02*
X0454768Y0076042D01*
X0454768Y0074443D02*
X0454399Y0074443D01*
X0454399Y0072845D02*
X0454768Y0072845D01*
X0454768Y0071246D02*
X0454399Y0071246D01*
X0454399Y0069648D02*
X0454768Y0069648D01*
X0454768Y0068049D02*
X0454399Y0068049D01*
X0454768Y0067424D02*
X0458352Y0067424D01*
X0458352Y0060149D01*
X0458245Y0059612D01*
X0458035Y0059105D01*
X0457730Y0058649D01*
X0457342Y0058261D01*
X0456886Y0057956D01*
X0456380Y0057746D01*
X0455842Y0057639D01*
X0454768Y0057639D01*
X0454768Y0067424D01*
X0454768Y0066451D02*
X0454399Y0066451D01*
X0454399Y0064852D02*
X0454768Y0064852D01*
X0454768Y0063254D02*
X0454399Y0063254D01*
X0454399Y0061655D02*
X0454768Y0061655D01*
X0454768Y0060057D02*
X0454399Y0060057D01*
X0454399Y0058458D02*
X0454768Y0058458D01*
X0457540Y0058458D02*
X0461627Y0058458D01*
X0461436Y0058649D02*
X0461824Y0058261D01*
X0462280Y0057956D01*
X0462787Y0057746D01*
X0463325Y0057639D01*
X0464399Y0057639D01*
X0464399Y0067424D01*
X0460815Y0067424D01*
X0460815Y0060149D01*
X0460922Y0059612D01*
X0461132Y0059105D01*
X0461436Y0058649D01*
X0460833Y0060057D02*
X0458333Y0060057D01*
X0458352Y0061655D02*
X0460815Y0061655D01*
X0460815Y0063254D02*
X0458352Y0063254D01*
X0458352Y0064852D02*
X0460815Y0064852D01*
X0460815Y0066451D02*
X0458352Y0066451D01*
X0458352Y0068049D02*
X0460815Y0068049D01*
X0460815Y0067793D02*
X0460815Y0075068D01*
X0460922Y0075606D01*
X0461132Y0076113D01*
X0461436Y0076569D01*
X0461824Y0076956D01*
X0462280Y0077261D01*
X0462787Y0077471D01*
X0463325Y0077578D01*
X0464399Y0077578D01*
X0464399Y0067793D01*
X0460815Y0067793D01*
X0460815Y0069648D02*
X0458352Y0069648D01*
X0458352Y0071246D02*
X0460815Y0071246D01*
X0460815Y0072845D02*
X0458352Y0072845D01*
X0458352Y0074443D02*
X0460815Y0074443D01*
X0461102Y0076042D02*
X0458064Y0076042D01*
X0464399Y0076042D02*
X0464768Y0076042D01*
X0464768Y0074443D02*
X0464399Y0074443D01*
X0464399Y0072845D02*
X0464768Y0072845D01*
X0464768Y0071246D02*
X0464399Y0071246D01*
X0464399Y0069648D02*
X0464768Y0069648D01*
X0464768Y0068049D02*
X0464399Y0068049D01*
X0464399Y0066451D02*
X0464768Y0066451D01*
X0464768Y0064852D02*
X0464399Y0064852D01*
X0464399Y0063254D02*
X0464768Y0063254D01*
X0464768Y0061655D02*
X0464399Y0061655D01*
X0464399Y0060057D02*
X0464768Y0060057D01*
X0464768Y0058458D02*
X0464399Y0058458D01*
X0464399Y0055578D02*
X0463325Y0055578D01*
X0462787Y0055471D01*
X0462280Y0055261D01*
X0456886Y0055261D01*
X0458221Y0053663D02*
X0460945Y0053663D01*
X0460922Y0053606D02*
X0460815Y0053068D01*
X0460815Y0045793D01*
X0464399Y0045793D01*
X0464399Y0055578D01*
X0464399Y0055261D02*
X0464768Y0055261D01*
X0464768Y0053663D02*
X0464399Y0053663D01*
X0464399Y0052064D02*
X0464768Y0052064D01*
X0464768Y0050466D02*
X0464399Y0050466D01*
X0464399Y0048867D02*
X0464768Y0048867D01*
X0464768Y0047269D02*
X0464399Y0047269D01*
X0460815Y0047269D02*
X0458352Y0047269D01*
X0458352Y0048867D02*
X0460815Y0048867D01*
X0460815Y0050466D02*
X0458352Y0050466D01*
X0458352Y0052064D02*
X0460815Y0052064D01*
X0460922Y0053606D02*
X0461132Y0054113D01*
X0461436Y0054569D01*
X0461824Y0054956D01*
X0462280Y0055261D01*
X0466886Y0055261D02*
X0471983Y0055261D01*
X0471215Y0053663D02*
X0468221Y0053663D01*
X0468352Y0052064D02*
X0471215Y0052064D01*
X0471215Y0050466D02*
X0468352Y0050466D01*
X0468352Y0048867D02*
X0471215Y0048867D01*
X0471215Y0047269D02*
X0468352Y0047269D01*
X0468352Y0044072D02*
X0471215Y0044072D01*
X0471086Y0042473D02*
X0468352Y0042473D01*
X0468352Y0040875D02*
X0469488Y0040875D01*
X0460815Y0040875D02*
X0458352Y0040875D01*
X0458352Y0042473D02*
X0460815Y0042473D01*
X0460815Y0044072D02*
X0458352Y0044072D01*
X0458352Y0039276D02*
X0460815Y0039276D01*
X0460909Y0037677D02*
X0458258Y0037677D01*
X0470915Y0036079D02*
X0472572Y0036079D01*
X0477755Y0028086D02*
X0478998Y0028086D01*
X0476799Y0026488D02*
X0484417Y0026488D01*
X0484417Y0028086D02*
X0483734Y0028086D01*
X0484417Y0024889D02*
X0477184Y0024889D01*
X0477184Y0023291D02*
X0484417Y0023291D01*
X0484417Y0021692D02*
X0477184Y0021692D01*
X0477184Y0020094D02*
X0484417Y0020094D01*
X0465843Y0022859D02*
X0463333Y0022859D01*
X0442097Y0036079D02*
X0436595Y0036079D01*
X0437952Y0037677D02*
X0440909Y0037677D01*
X0440815Y0039276D02*
X0437952Y0039276D01*
X0437952Y0040875D02*
X0440815Y0040875D01*
X0440815Y0042473D02*
X0437952Y0042473D01*
X0437952Y0044072D02*
X0440815Y0044072D01*
X0440815Y0045793D02*
X0440815Y0053068D01*
X0440922Y0053606D01*
X0441132Y0054113D01*
X0441436Y0054569D01*
X0441824Y0054956D01*
X0442280Y0055261D01*
X0437183Y0055261D01*
X0437952Y0053663D02*
X0440945Y0053663D01*
X0440815Y0052064D02*
X0437952Y0052064D01*
X0437952Y0050466D02*
X0440815Y0050466D01*
X0440815Y0048867D02*
X0437952Y0048867D01*
X0437952Y0047269D02*
X0440815Y0047269D01*
X0440815Y0045793D02*
X0444399Y0045793D01*
X0444399Y0055578D01*
X0443325Y0055578D01*
X0442787Y0055471D01*
X0442280Y0055261D01*
X0444399Y0055261D02*
X0444768Y0055261D01*
X0444768Y0053663D02*
X0444399Y0053663D01*
X0444399Y0052064D02*
X0444768Y0052064D01*
X0444768Y0050466D02*
X0444399Y0050466D01*
X0444399Y0048867D02*
X0444768Y0048867D01*
X0444768Y0047269D02*
X0444399Y0047269D01*
X0444399Y0045670D02*
X0437952Y0045670D01*
X0434583Y0045609D02*
X0434583Y0052859D01*
X0431983Y0056860D02*
X0414806Y0056860D01*
X0415110Y0058458D02*
X0431983Y0058458D01*
X0431215Y0060057D02*
X0416708Y0060057D01*
X0418307Y0061655D02*
X0431215Y0061655D01*
X0413333Y0060359D02*
X0410814Y0060359D01*
X0406658Y0060057D02*
X0400009Y0060057D01*
X0400009Y0061655D02*
X0406658Y0061655D01*
X0406658Y0063254D02*
X0400009Y0063254D01*
X0395853Y0060359D02*
X0392083Y0060359D01*
X0389583Y0057859D01*
X0362083Y0057859D01*
X0362083Y0066845D01*
X0359502Y0066451D02*
X0358434Y0066451D01*
X0358434Y0068049D02*
X0359502Y0068049D01*
X0359502Y0069648D02*
X0358434Y0069648D01*
X0359502Y0071246D02*
X0349796Y0071246D01*
X0347523Y0071246D02*
X0346663Y0071246D01*
X0346663Y0069648D02*
X0347523Y0069648D01*
X0347523Y0068049D02*
X0346663Y0068049D01*
X0346663Y0066451D02*
X0337164Y0066451D01*
X0337164Y0068049D02*
X0342833Y0068049D01*
X0342903Y0069648D02*
X0337164Y0069648D01*
X0337164Y0071246D02*
X0344390Y0071246D01*
X0339279Y0074443D02*
X0350691Y0074443D01*
X0352893Y0074443D02*
X0353754Y0074443D01*
X0353754Y0076042D02*
X0352893Y0076042D01*
X0352893Y0077640D02*
X0353754Y0077640D01*
X0353754Y0079239D02*
X0370352Y0079239D01*
X0369883Y0077640D02*
X0357584Y0077640D01*
X0357508Y0076042D02*
X0369883Y0076042D01*
X0369883Y0074443D02*
X0355956Y0074443D01*
X0345843Y0079109D02*
X0340833Y0079109D01*
X0334820Y0073095D01*
X0334820Y0066609D01*
X0337164Y0064852D02*
X0342833Y0064852D01*
X0342833Y0063922D02*
X0342921Y0063480D01*
X0343093Y0063062D01*
X0343344Y0062687D01*
X0343664Y0062368D01*
X0344039Y0062117D01*
X0344456Y0061944D01*
X0344899Y0061856D01*
X0346663Y0061856D01*
X0346663Y0066178D01*
X0342833Y0066178D01*
X0342833Y0063922D01*
X0343014Y0063254D02*
X0337164Y0063254D01*
X0346663Y0063254D02*
X0347523Y0063254D01*
X0347523Y0064852D02*
X0346663Y0064852D01*
X0354573Y0066609D02*
X0354573Y0061619D01*
X0356773Y0061655D02*
X0359781Y0061655D01*
X0359502Y0063254D02*
X0358323Y0063254D01*
X0358434Y0064852D02*
X0359502Y0064852D01*
X0367083Y0066845D02*
X0372083Y0066845D01*
X0372083Y0077859D01*
X0388333Y0094109D01*
X0386337Y0095224D02*
X0386310Y0095224D01*
X0384739Y0093625D02*
X0384711Y0093625D01*
X0383140Y0092027D02*
X0377969Y0092027D01*
X0379943Y0088830D02*
X0357184Y0088830D01*
X0357184Y0087231D02*
X0378345Y0087231D01*
X0376746Y0085633D02*
X0357184Y0085633D01*
X0357184Y0084034D02*
X0375148Y0084034D01*
X0373549Y0082436D02*
X0357414Y0082436D01*
X0357584Y0080837D02*
X0371951Y0080837D01*
X0377083Y0072859D02*
X0383333Y0079109D01*
X0390843Y0079109D01*
X0390843Y0086609D01*
X0381542Y0090428D02*
X0356748Y0090428D01*
X0357184Y0092027D02*
X0372631Y0092027D01*
X0371664Y0093625D02*
X0357184Y0093625D01*
X0357184Y0095224D02*
X0371538Y0095224D01*
X0372124Y0096822D02*
X0357184Y0096822D01*
X0357184Y0098421D02*
X0374504Y0098421D01*
X0376097Y0098421D02*
X0380576Y0098421D01*
X0379016Y0100019D02*
X0357184Y0100019D01*
X0357184Y0101618D02*
X0378609Y0101618D01*
X0378907Y0103216D02*
X0358042Y0103216D01*
X0353323Y0101609D02*
X0360823Y0109109D01*
X0368343Y0109109D01*
X0365532Y0104815D02*
X0363635Y0104815D01*
X0371154Y0104815D02*
X0373012Y0104815D01*
X0378635Y0104815D02*
X0380116Y0104815D01*
X0379684Y0106413D02*
X0386529Y0106413D01*
X0385705Y0108012D02*
X0379684Y0108012D01*
X0379684Y0109610D02*
X0385697Y0109610D01*
X0386510Y0111209D02*
X0379684Y0111209D01*
X0379230Y0112808D02*
X0393711Y0112808D01*
X0392620Y0114406D02*
X0378033Y0114406D01*
X0377049Y0116005D02*
X0392351Y0116005D01*
X0392714Y0117603D02*
X0347813Y0117603D01*
X0348176Y0116005D02*
X0352118Y0116005D01*
X0351143Y0114406D02*
X0347907Y0114406D01*
X0346957Y0112949D02*
X0344014Y0115892D01*
X0344014Y0115892D01*
X0346957Y0112949D01*
X0346816Y0112808D02*
X0349937Y0112808D01*
X0349483Y0111209D02*
X0339875Y0111209D01*
X0340687Y0109610D02*
X0349483Y0109610D01*
X0349135Y0108012D02*
X0340680Y0108012D01*
X0339856Y0106413D02*
X0347537Y0106413D01*
X0345843Y0101609D02*
X0353343Y0109109D01*
X0353343Y0114119D01*
X0354583Y0115359D01*
X0374583Y0115359D01*
X0375833Y0114109D01*
X0375833Y0109119D01*
X0375823Y0109109D01*
X0395028Y0114406D02*
X0395028Y0114406D01*
X0397999Y0114406D02*
X0397999Y0114406D01*
X0416135Y0104815D02*
X0418032Y0104815D01*
X0423654Y0104815D02*
X0425512Y0104815D01*
X0389583Y0101609D02*
X0382653Y0094679D01*
X0375300Y0094679D01*
X0386134Y0101618D02*
X0386481Y0101618D01*
X0353323Y0101609D02*
X0353323Y0094109D01*
X0353323Y0086609D01*
X0345843Y0086609D02*
X0345843Y0079109D01*
X0341983Y0076042D02*
X0340878Y0076042D01*
X0337681Y0072845D02*
X0369883Y0072845D01*
X0377083Y0072859D02*
X0377083Y0066845D01*
X0362083Y0057859D02*
X0354583Y0057859D01*
X0347083Y0055359D02*
X0377083Y0055359D01*
X0374883Y0052064D02*
X0374449Y0052064D01*
X0372083Y0052064D02*
X0372083Y0052064D01*
X0372083Y0050466D02*
X0372083Y0050466D01*
X0372083Y0048867D02*
X0372083Y0048867D01*
X0372083Y0047269D02*
X0372083Y0047269D01*
X0367083Y0046373D02*
X0362083Y0046373D01*
X0359502Y0047269D02*
X0358834Y0047269D01*
X0358589Y0048867D02*
X0359502Y0048867D01*
X0359502Y0050466D02*
X0349293Y0050466D01*
X0349296Y0052064D02*
X0360283Y0052064D01*
X0363883Y0052064D02*
X0365283Y0052064D01*
X0368883Y0052064D02*
X0369717Y0052064D01*
X0355004Y0048867D02*
X0354143Y0048867D01*
X0354143Y0047269D02*
X0355004Y0047269D01*
X0347093Y0045359D02*
X0347093Y0052849D01*
X0374643Y0040875D02*
X0375090Y0040875D01*
X0377889Y0034480D02*
X0427344Y0034480D01*
X0428866Y0031039D02*
X0404023Y0031039D01*
X0398981Y0031283D02*
X0391436Y0031283D01*
X0391436Y0029685D02*
X0398981Y0029685D01*
X0398981Y0028086D02*
X0391436Y0028086D01*
X0390569Y0026488D02*
X0399848Y0026488D01*
X0398981Y0032882D02*
X0391436Y0032882D01*
X0387083Y0030349D02*
X0386893Y0030539D01*
X0386393Y0031039D02*
X0376366Y0031039D01*
X0397822Y0043109D02*
X0397822Y0051077D01*
X0400022Y0050466D02*
X0406658Y0050466D01*
X0406658Y0052064D02*
X0400009Y0052064D01*
X0400009Y0053663D02*
X0406658Y0053663D01*
X0406658Y0055261D02*
X0400009Y0055261D01*
X0399846Y0056860D02*
X0406821Y0056860D01*
X0406658Y0058458D02*
X0400009Y0058458D01*
X0395853Y0060359D02*
X0395853Y0071077D01*
X0395853Y0052859D02*
X0392083Y0052859D01*
X0400022Y0048867D02*
X0407314Y0048867D01*
X0408070Y0048452D02*
X0405459Y0048452D01*
X0405001Y0048329D01*
X0404590Y0048092D01*
X0404255Y0047757D01*
X0404018Y0047347D01*
X0403896Y0046889D01*
X0403896Y0043884D01*
X0408070Y0043884D01*
X0408070Y0048452D01*
X0408070Y0047269D02*
X0409620Y0047269D01*
X0409620Y0048452D02*
X0409620Y0043884D01*
X0408070Y0043884D01*
X0408070Y0042334D01*
X0403896Y0042334D01*
X0403896Y0039328D01*
X0404018Y0038871D01*
X0404255Y0038460D01*
X0404590Y0038125D01*
X0405001Y0037888D01*
X0405459Y0037765D01*
X0408070Y0037765D01*
X0408070Y0042334D01*
X0409620Y0042334D01*
X0409620Y0043884D01*
X0413795Y0043884D01*
X0413795Y0046889D01*
X0413672Y0047347D01*
X0413435Y0047757D01*
X0413100Y0048092D01*
X0412690Y0048329D01*
X0412232Y0048452D01*
X0409620Y0048452D01*
X0409620Y0045670D02*
X0408070Y0045670D01*
X0408070Y0044072D02*
X0409620Y0044072D01*
X0409620Y0042473D02*
X0431215Y0042473D01*
X0431215Y0040875D02*
X0413795Y0040875D01*
X0413795Y0042334D02*
X0409620Y0042334D01*
X0409620Y0037765D01*
X0412232Y0037765D01*
X0412690Y0037888D01*
X0413100Y0038125D01*
X0413435Y0038460D01*
X0413672Y0038871D01*
X0413795Y0039328D01*
X0413795Y0042334D01*
X0413795Y0044072D02*
X0431215Y0044072D01*
X0431215Y0045670D02*
X0413795Y0045670D01*
X0413693Y0047269D02*
X0431215Y0047269D01*
X0431215Y0048867D02*
X0414314Y0048867D01*
X0403997Y0047269D02*
X0402335Y0047269D01*
X0402371Y0045670D02*
X0403896Y0045670D01*
X0403896Y0044072D02*
X0402371Y0044072D01*
X0402371Y0042473D02*
X0408070Y0042473D01*
X0408070Y0040875D02*
X0409620Y0040875D01*
X0409620Y0039276D02*
X0408070Y0039276D01*
X0403910Y0039276D02*
X0402371Y0039276D01*
X0402371Y0040875D02*
X0403896Y0040875D01*
X0413781Y0039276D02*
X0431215Y0039276D01*
X0342083Y0101609D02*
X0335153Y0094679D01*
X0335784Y0098421D02*
X0331666Y0098421D01*
X0333227Y0100019D02*
X0337383Y0100019D01*
X0338981Y0101618D02*
X0333634Y0101618D01*
X0333336Y0103216D02*
X0340580Y0103216D01*
X0341983Y0104815D02*
X0332127Y0104815D01*
X0342083Y0101609D02*
X0345843Y0101609D01*
X0320512Y0104815D02*
X0318654Y0104815D01*
X0313032Y0104815D02*
X0311135Y0104815D01*
X0292999Y0114406D02*
X0292999Y0114406D01*
X0290028Y0114406D02*
X0290028Y0114406D01*
X0263343Y0109109D02*
X0255823Y0109109D01*
X0255823Y0101609D01*
X0244583Y0101609D02*
X0237653Y0094679D01*
X0217800Y0094679D01*
X0217004Y0098421D02*
X0214684Y0098421D01*
X0214684Y0100019D02*
X0221516Y0100019D01*
X0221109Y0101618D02*
X0214684Y0101618D01*
X0214684Y0103216D02*
X0221407Y0103216D01*
X0221154Y0104815D02*
X0222616Y0104815D01*
X0215532Y0104815D02*
X0214684Y0104815D01*
X0210823Y0101609D02*
X0210823Y0109109D01*
X0218343Y0109109D01*
X0225823Y0109109D02*
X0225833Y0109119D01*
X0225833Y0114109D01*
X0224583Y0115359D01*
X0204583Y0115359D01*
X0203343Y0114119D01*
X0203343Y0109109D01*
X0203343Y0101609D01*
X0192083Y0101609D01*
X0185153Y0094679D01*
X0165300Y0094679D01*
X0166097Y0098421D02*
X0170576Y0098421D01*
X0174166Y0098421D02*
X0185784Y0098421D01*
X0187383Y0100019D02*
X0175727Y0100019D01*
X0176134Y0101618D02*
X0188981Y0101618D01*
X0190580Y0103216D02*
X0175836Y0103216D01*
X0174627Y0104815D02*
X0199483Y0104815D01*
X0199483Y0106413D02*
X0182356Y0106413D01*
X0183180Y0108012D02*
X0199483Y0108012D01*
X0199483Y0109610D02*
X0183187Y0109610D01*
X0182375Y0111209D02*
X0199483Y0111209D01*
X0199937Y0112808D02*
X0189316Y0112808D01*
X0189457Y0112949D02*
X0186514Y0115892D01*
X0189457Y0112949D01*
X0190407Y0114406D02*
X0201143Y0114406D01*
X0202118Y0116005D02*
X0190676Y0116005D01*
X0190313Y0117603D02*
X0235214Y0117603D01*
X0234851Y0116005D02*
X0227049Y0116005D01*
X0228033Y0114406D02*
X0235120Y0114406D01*
X0236211Y0112808D02*
X0229230Y0112808D01*
X0237528Y0114406D02*
X0237528Y0114406D01*
X0240499Y0114406D02*
X0240499Y0114406D01*
X0241481Y0101618D02*
X0228634Y0101618D01*
X0228227Y0100019D02*
X0239883Y0100019D01*
X0238284Y0098421D02*
X0226666Y0098421D01*
X0223076Y0098421D02*
X0218597Y0098421D01*
X0210823Y0101589D02*
X0203343Y0094109D01*
X0203343Y0086609D01*
X0214684Y0085633D02*
X0218062Y0085633D01*
X0217073Y0087859D02*
X0210823Y0094109D01*
X0217615Y0090428D02*
X0218862Y0090428D01*
X0220305Y0090428D02*
X0240292Y0090428D01*
X0238693Y0088830D02*
X0222049Y0088830D01*
X0222192Y0087231D02*
X0237383Y0087231D01*
X0237383Y0085633D02*
X0221105Y0085633D01*
X0219583Y0087859D02*
X0217073Y0087859D01*
X0220469Y0092027D02*
X0241890Y0092027D01*
X0243489Y0093625D02*
X0239711Y0093625D01*
X0241310Y0095224D02*
X0244483Y0095224D01*
X0244483Y0096822D02*
X0242908Y0096822D01*
X0247083Y0094109D02*
X0239583Y0086609D01*
X0239583Y0066845D01*
X0237383Y0072845D02*
X0213473Y0072845D01*
X0212996Y0074443D02*
X0237383Y0074443D01*
X0237383Y0076042D02*
X0214684Y0076042D01*
X0214684Y0077640D02*
X0237383Y0077640D01*
X0237383Y0079239D02*
X0214684Y0079239D01*
X0214684Y0080837D02*
X0237383Y0080837D01*
X0237383Y0082436D02*
X0214601Y0082436D01*
X0214684Y0084034D02*
X0237383Y0084034D01*
X0274153Y0077640D02*
X0275014Y0077640D01*
X0275014Y0076042D02*
X0274153Y0076042D01*
X0284711Y0093625D02*
X0289483Y0093625D01*
X0289483Y0095224D02*
X0286310Y0095224D01*
X0287908Y0096822D02*
X0289483Y0096822D01*
X0342528Y0114406D02*
X0342528Y0114406D01*
X0345499Y0114406D02*
X0345499Y0114406D01*
X0274583Y0055359D02*
X0244583Y0055359D01*
X0200710Y0074443D02*
X0175014Y0074443D01*
X0175014Y0076042D02*
X0174153Y0076042D01*
X0174153Y0077640D02*
X0175014Y0077640D01*
X0178713Y0077640D02*
X0199083Y0077640D01*
X0199158Y0076042D02*
X0179336Y0076042D01*
X0187211Y0093625D02*
X0199483Y0093625D01*
X0199483Y0095224D02*
X0188810Y0095224D01*
X0190408Y0096822D02*
X0199483Y0096822D01*
X0199483Y0098421D02*
X0192007Y0098421D01*
X0176529Y0106413D02*
X0172499Y0106413D01*
X0174098Y0108012D02*
X0175705Y0108012D01*
X0175934Y0111209D02*
X0176510Y0111209D01*
X0185028Y0114406D02*
X0185028Y0114406D01*
X0186514Y0115892D02*
X0186514Y0115892D01*
X0187999Y0114406D02*
X0187999Y0114406D01*
X0135499Y0114406D02*
X0135499Y0114406D01*
X0132528Y0114406D02*
X0132528Y0114406D01*
X0082999Y0114406D02*
X0082999Y0114406D01*
X0081514Y0115892D02*
X0081514Y0115892D01*
X0080028Y0114406D02*
X0080028Y0114406D01*
X0078711Y0112808D02*
X0058883Y0112808D01*
X0058883Y0114406D02*
X0077620Y0114406D01*
X0077351Y0116005D02*
X0058883Y0116005D01*
X0058883Y0117603D02*
X0077714Y0117603D01*
X0071510Y0111209D02*
X0058883Y0111209D01*
X0058883Y0109610D02*
X0070697Y0109610D01*
X0070705Y0108012D02*
X0058883Y0108012D01*
X0058883Y0106413D02*
X0071529Y0106413D01*
D21*
X0090843Y0109109D02*
X0090843Y0111619D01*
X0113323Y0109109D02*
X0113333Y0109119D01*
X0098323Y0101609D02*
X0098323Y0101589D01*
X0098323Y0079109D02*
X0098333Y0079109D01*
X0084583Y0070359D02*
X0084583Y0066845D01*
X0099333Y0055359D02*
X0104593Y0055349D01*
X0118333Y0045359D02*
X0123570Y0045359D01*
X0124583Y0046373D01*
X0129583Y0046373D01*
X0084583Y0035369D02*
X0083323Y0034109D01*
X0075843Y0034109D02*
X0075843Y0035369D01*
X0063648Y0025359D02*
X0063648Y0025044D01*
X0070833Y0051619D02*
X0072083Y0052869D01*
X0151936Y0016609D02*
X0152224Y0016897D01*
X0191393Y0031039D02*
X0192083Y0030349D01*
X0243893Y0031039D02*
X0244583Y0030349D01*
X0288893Y0031039D02*
X0289583Y0030349D01*
X0319347Y0046609D02*
X0319583Y0046373D01*
X0329583Y0046373D02*
X0329583Y0042859D01*
X0341393Y0031039D02*
X0342083Y0030349D01*
X0386393Y0031039D02*
X0387083Y0030349D01*
X0403333Y0030349D02*
X0404023Y0031039D01*
X0397822Y0051077D02*
X0395853Y0052859D01*
X0397822Y0070359D02*
X0395853Y0071077D01*
X0390843Y0094109D02*
X0388333Y0094109D01*
X0334820Y0066609D02*
X0334583Y0066845D01*
X0303333Y0079109D02*
X0300823Y0079109D01*
X0300823Y0101589D02*
X0300823Y0101609D01*
X0248343Y0094109D02*
X0247083Y0094109D01*
X0210823Y0101589D02*
X0210823Y0101609D01*
X0210823Y0086609D02*
X0210823Y0079109D01*
X0210823Y0072869D01*
D22*
X0210823Y0072869D03*
X0219583Y0087859D03*
X0219583Y0046373D03*
X0210833Y0039109D03*
X0118333Y0045359D03*
X0113323Y0039119D03*
X0070833Y0044109D03*
X0095833Y0010359D03*
X0113333Y0079109D03*
X0118333Y0084109D03*
X0307083Y0075359D03*
X0312083Y0087859D03*
X0312083Y0046609D03*
X0307083Y0039109D03*
M02*
