G75*
%MOIN*%
%OFA0B0*%
%FSLAX25Y25*%
%IPPOS*%
%LPD*%
%AMOC8*
5,1,8,0,0,1.08239X$1,22.5*
%
%ADD10C,0.00600*%
%ADD11C,0.00300*%
D10*
X0008899Y0013562D02*
X0007832Y0014629D01*
X0007832Y0016765D01*
X0008899Y0017832D01*
X0013169Y0017832D01*
X0014237Y0016765D01*
X0014237Y0014629D01*
X0013169Y0013562D01*
X0018332Y0014629D02*
X0018332Y0016765D01*
X0019399Y0017832D01*
X0023669Y0017832D01*
X0024737Y0016765D01*
X0024737Y0014629D01*
X0023669Y0013562D01*
X0021534Y0013562D01*
X0021534Y0015697D01*
X0019399Y0013562D02*
X0018332Y0014629D01*
X0028832Y0014629D02*
X0029899Y0013562D01*
X0032034Y0013562D01*
X0033102Y0014629D01*
X0033102Y0017832D01*
X0035237Y0017832D02*
X0028832Y0017832D01*
X0028832Y0014629D01*
X0033102Y0015697D02*
X0035237Y0013562D01*
X0035237Y0020007D02*
X0030967Y0020007D01*
X0028832Y0022143D01*
X0030967Y0024278D01*
X0035237Y0024278D01*
X0035237Y0026453D02*
X0035237Y0030723D01*
X0028832Y0030723D01*
X0024737Y0030750D02*
X0018332Y0030750D01*
X0021534Y0030750D02*
X0021534Y0035020D01*
X0018332Y0035020D02*
X0024737Y0035020D01*
X0028832Y0032898D02*
X0034169Y0032898D01*
X0035237Y0033966D01*
X0035237Y0036101D01*
X0034169Y0037169D01*
X0028832Y0037169D01*
X0029899Y0039344D02*
X0028832Y0040411D01*
X0028832Y0043614D01*
X0035237Y0043614D01*
X0035237Y0040411D01*
X0034169Y0039344D01*
X0029899Y0039344D01*
X0024737Y0039330D02*
X0018332Y0039330D01*
X0018332Y0037195D02*
X0018332Y0041466D01*
X0014237Y0041466D02*
X0007832Y0041466D01*
X0009967Y0039330D01*
X0007832Y0037195D01*
X0014237Y0037195D01*
X0013169Y0035020D02*
X0007832Y0035020D01*
X0013169Y0035020D02*
X0014237Y0033953D01*
X0014237Y0031817D01*
X0013169Y0030750D01*
X0007832Y0030750D01*
X0008899Y0028575D02*
X0009967Y0028575D01*
X0011034Y0027507D01*
X0011034Y0025372D01*
X0012102Y0024304D01*
X0013169Y0024304D01*
X0014237Y0025372D01*
X0014237Y0027507D01*
X0013169Y0028575D01*
X0008899Y0028575D02*
X0007832Y0027507D01*
X0007832Y0025372D01*
X0008899Y0024304D01*
X0007832Y0022129D02*
X0007832Y0019994D01*
X0007832Y0021062D02*
X0014237Y0021062D01*
X0014237Y0022129D02*
X0014237Y0019994D01*
X0018332Y0020007D02*
X0024737Y0020007D01*
X0018332Y0024278D01*
X0024737Y0024278D01*
X0024737Y0026440D02*
X0024737Y0028575D01*
X0024737Y0027507D02*
X0018332Y0027507D01*
X0018332Y0026440D02*
X0018332Y0028575D01*
X0032034Y0024278D02*
X0032034Y0020007D01*
X0029899Y0045789D02*
X0028832Y0046857D01*
X0028832Y0048992D01*
X0029899Y0050060D01*
X0034169Y0050060D01*
X0035237Y0048992D01*
X0035237Y0046857D01*
X0034169Y0045789D01*
X0029899Y0045789D01*
X0028832Y0052235D02*
X0035237Y0052235D01*
X0030967Y0054370D02*
X0028832Y0052235D01*
X0030967Y0054370D02*
X0028832Y0056505D01*
X0035237Y0056505D01*
X0494489Y0056045D02*
X0494489Y0053910D01*
X0495557Y0052842D01*
X0497692Y0052842D02*
X0497692Y0054977D01*
X0499827Y0052842D02*
X0500894Y0053910D01*
X0500894Y0056045D01*
X0499827Y0057113D01*
X0495557Y0057113D01*
X0494489Y0056045D01*
X0497692Y0052842D02*
X0499827Y0052842D01*
X0500894Y0050667D02*
X0494489Y0050667D01*
X0494489Y0047464D01*
X0495557Y0046397D01*
X0497692Y0046397D01*
X0498759Y0047464D01*
X0498759Y0050667D01*
X0498759Y0048532D02*
X0500894Y0046397D01*
X0500894Y0044222D02*
X0496624Y0044222D01*
X0494489Y0042086D01*
X0496624Y0039951D01*
X0500894Y0039951D01*
X0497692Y0039951D02*
X0497692Y0044222D01*
X0498759Y0037776D02*
X0498759Y0034573D01*
X0497692Y0033506D01*
X0495557Y0033506D01*
X0494489Y0034573D01*
X0494489Y0037776D01*
X0500894Y0037776D01*
X0500894Y0031331D02*
X0494489Y0031331D01*
X0497692Y0031331D02*
X0497692Y0027060D01*
X0500894Y0027060D02*
X0494489Y0027060D01*
X0494489Y0024885D02*
X0494489Y0022750D01*
X0494489Y0023818D02*
X0500894Y0023818D01*
X0500894Y0024885D02*
X0500894Y0022750D01*
X0499827Y0020588D02*
X0495557Y0020588D01*
X0494489Y0019521D01*
X0494489Y0017385D01*
X0495557Y0016318D01*
X0499827Y0016318D02*
X0500894Y0017385D01*
X0500894Y0019521D01*
X0499827Y0020588D01*
D11*
X0458126Y0031396D02*
X0458126Y0034887D01*
X0458563Y0035324D01*
X0460308Y0033578D01*
X0457704Y0036182D02*
X0455085Y0033564D01*
X0455944Y0032705D02*
X0457690Y0030959D01*
X0458126Y0031396D01*
X0456395Y0034873D02*
X0454649Y0036619D01*
X0454227Y0037914D02*
X0454663Y0038350D01*
X0454663Y0039223D01*
X0453790Y0040096D01*
X0452917Y0040096D01*
X0452059Y0040955D02*
X0451622Y0040518D01*
X0450749Y0040518D01*
X0449440Y0041828D01*
X0450313Y0042700D01*
X0451186Y0042700D01*
X0452059Y0041828D01*
X0452059Y0040955D01*
X0449440Y0040082D02*
X0449440Y0041828D01*
X0449440Y0040082D02*
X0449877Y0038773D01*
X0451172Y0038350D02*
X0451172Y0037478D01*
X0452045Y0036605D01*
X0452917Y0036605D01*
X0453354Y0037041D01*
X0453354Y0037914D01*
X0454227Y0037914D01*
X0453354Y0037914D02*
X0452917Y0038350D01*
X0453340Y0035310D02*
X0455958Y0037928D01*
X0408041Y0033578D02*
X0406295Y0035324D01*
X0405858Y0034887D01*
X0405858Y0031396D01*
X0405422Y0030959D01*
X0403676Y0032705D01*
X0402818Y0033564D02*
X0405436Y0036182D01*
X0404127Y0034873D02*
X0402381Y0036619D01*
X0400650Y0036605D02*
X0402395Y0038350D01*
X0402395Y0039223D01*
X0401523Y0040096D01*
X0400650Y0040096D01*
X0400650Y0036605D01*
X0399777Y0036605D01*
X0398904Y0037478D01*
X0398904Y0038350D01*
X0400650Y0040096D01*
X0399791Y0040955D02*
X0399355Y0040518D01*
X0398482Y0040518D01*
X0397172Y0041828D01*
X0398045Y0042700D01*
X0398918Y0042700D01*
X0399791Y0041828D01*
X0399791Y0040955D01*
X0397172Y0040082D02*
X0397172Y0041828D01*
X0397623Y0043996D02*
X0395877Y0045741D01*
X0396750Y0044868D02*
X0394132Y0042250D01*
X0394132Y0043996D01*
X0397172Y0040082D02*
X0397609Y0038773D01*
X0401072Y0035310D02*
X0403690Y0037928D01*
X0355466Y0033578D02*
X0353720Y0035324D01*
X0353284Y0034887D01*
X0353284Y0031396D01*
X0352847Y0030959D01*
X0351102Y0032705D01*
X0350243Y0033564D02*
X0352861Y0036182D01*
X0351552Y0034873D02*
X0349806Y0036619D01*
X0348075Y0036605D02*
X0349821Y0038350D01*
X0349821Y0039223D01*
X0348948Y0040096D01*
X0348075Y0040096D01*
X0348075Y0036605D01*
X0347202Y0036605D01*
X0346329Y0037478D01*
X0346329Y0038350D01*
X0348075Y0040096D01*
X0347653Y0041391D02*
X0345907Y0043137D01*
X0346780Y0042264D02*
X0344161Y0039645D01*
X0344161Y0041391D01*
X0343739Y0042686D02*
X0341993Y0044432D01*
X0341993Y0041813D01*
X0344612Y0044432D01*
X0351116Y0037928D02*
X0348497Y0035310D01*
X0303422Y0033578D02*
X0301677Y0035324D01*
X0301240Y0034887D01*
X0301240Y0031396D01*
X0300804Y0030959D01*
X0299058Y0032705D01*
X0298200Y0033564D02*
X0300818Y0036182D01*
X0299509Y0034873D02*
X0297763Y0036619D01*
X0299072Y0037928D02*
X0296454Y0035310D01*
X0295595Y0036168D02*
X0295595Y0039660D01*
X0295595Y0038787D02*
X0298214Y0038787D01*
X0296468Y0040532D02*
X0293849Y0037914D01*
X0292118Y0039645D02*
X0294736Y0042264D01*
X0293864Y0043137D02*
X0295609Y0041391D01*
X0292118Y0041391D02*
X0292118Y0039645D01*
X0250773Y0033578D02*
X0249027Y0035324D01*
X0248591Y0034887D01*
X0248591Y0031396D01*
X0248154Y0030959D01*
X0246409Y0032705D01*
X0245550Y0033564D02*
X0248168Y0036182D01*
X0246859Y0034873D02*
X0245113Y0036619D01*
X0243816Y0037043D02*
X0243380Y0039226D01*
X0245562Y0038789D01*
X0246423Y0037928D02*
X0243804Y0035310D01*
X0241634Y0037480D02*
X0244252Y0040098D01*
X0242957Y0040521D02*
X0242084Y0039648D01*
X0241212Y0039648D01*
X0240775Y0040084D01*
X0240339Y0041394D01*
X0239030Y0040084D01*
X0240775Y0038339D01*
X0242957Y0040521D02*
X0242957Y0041394D01*
X0242084Y0042266D01*
X0241212Y0042266D01*
X0240346Y0043132D02*
X0240782Y0043569D01*
X0240346Y0044005D01*
X0239909Y0043569D01*
X0240346Y0043132D01*
X0239487Y0044864D02*
X0237741Y0046609D01*
X0237741Y0043118D01*
X0237305Y0042682D01*
X0236432Y0042682D01*
X0235559Y0043554D01*
X0235559Y0044427D01*
X0197698Y0033578D02*
X0195952Y0035324D01*
X0195516Y0034887D01*
X0195516Y0031396D01*
X0195080Y0030959D01*
X0193334Y0032705D01*
X0192475Y0033564D02*
X0195094Y0036182D01*
X0193784Y0034873D02*
X0192039Y0036619D01*
X0190741Y0037043D02*
X0190305Y0039226D01*
X0192487Y0038789D01*
X0193348Y0037928D02*
X0190729Y0035310D01*
X0188559Y0037480D02*
X0191178Y0040098D01*
X0188137Y0038775D02*
X0188137Y0042266D01*
X0188573Y0042703D01*
X0187708Y0043569D02*
X0187271Y0044005D01*
X0186835Y0043569D01*
X0187271Y0043132D01*
X0187708Y0043569D01*
X0184230Y0042682D02*
X0184230Y0046173D01*
X0184667Y0046609D01*
X0182048Y0043991D02*
X0183794Y0042245D01*
X0184230Y0042682D01*
X0185955Y0040084D02*
X0187700Y0038339D01*
X0188137Y0038775D01*
X0145942Y0033578D02*
X0144196Y0035324D01*
X0143760Y0034887D01*
X0143760Y0031396D01*
X0143324Y0030959D01*
X0141578Y0032705D01*
X0140719Y0033564D02*
X0143338Y0036182D01*
X0142028Y0034873D02*
X0140283Y0036619D01*
X0138985Y0037043D02*
X0138549Y0039226D01*
X0140731Y0038789D01*
X0141592Y0037928D02*
X0138974Y0035310D01*
X0136803Y0037480D02*
X0139422Y0040098D01*
X0138127Y0040521D02*
X0137690Y0040084D01*
X0136817Y0040084D01*
X0135508Y0041394D01*
X0136381Y0042266D01*
X0137254Y0042266D01*
X0138127Y0041394D01*
X0138127Y0040521D01*
X0135508Y0039648D02*
X0135508Y0041394D01*
X0135508Y0039648D02*
X0135945Y0038339D01*
X0132467Y0041816D02*
X0135086Y0044434D01*
X0134213Y0045307D02*
X0135959Y0043561D01*
X0132467Y0043561D02*
X0132467Y0041816D01*
M02*
