G75*
%MOIN*%
%OFA0B0*%
%FSLAX25Y25*%
%IPPOS*%
%LPD*%
%AMOC8*
5,1,8,0,0,1.08239X$1,22.5*
%
%ADD10C,0.04724*%
%ADD11C,0.06496*%
%ADD12C,0.00600*%
%ADD13C,0.00800*%
%ADD14C,0.01600*%
%ADD15C,0.02500*%
%ADD16C,0.01000*%
D10*
X0152224Y0017509D03*
X0166366Y0031651D03*
X0204724Y0017509D03*
X0218866Y0031651D03*
X0257224Y0017509D03*
X0271366Y0031651D03*
X0309724Y0017509D03*
X0323866Y0031651D03*
X0362224Y0017509D03*
X0376366Y0031651D03*
X0414724Y0017509D03*
X0428866Y0031651D03*
X0467224Y0017509D03*
X0481366Y0031651D03*
X0375300Y0095291D03*
X0382371Y0102362D03*
X0389442Y0109433D03*
X0396514Y0116504D03*
X0344014Y0116504D03*
X0336942Y0109433D03*
X0329871Y0102362D03*
X0322800Y0095291D03*
X0284442Y0109433D03*
X0277371Y0102362D03*
X0270300Y0095291D03*
X0231942Y0109433D03*
X0224871Y0102362D03*
X0217800Y0095291D03*
X0179442Y0109433D03*
X0172371Y0102362D03*
X0165300Y0095291D03*
X0126942Y0109433D03*
X0119871Y0102362D03*
X0112800Y0095291D03*
X0074442Y0109433D03*
X0067371Y0102362D03*
X0060300Y0095291D03*
X0081514Y0116504D03*
X0134014Y0116504D03*
X0186514Y0116504D03*
X0239014Y0116504D03*
X0291514Y0116504D03*
D11*
X0433993Y0099721D03*
X0445804Y0099721D03*
X0479268Y0099721D03*
X0108924Y0025971D03*
X0097113Y0025971D03*
X0063648Y0025971D03*
D12*
X0423968Y0009873D02*
X0423968Y0007471D01*
X0423968Y0008272D02*
X0425569Y0009873D01*
X0426730Y0009873D02*
X0427531Y0009873D01*
X0427130Y0009873D02*
X0427130Y0007471D01*
X0426730Y0007471D02*
X0427531Y0007471D01*
X0428572Y0007471D02*
X0430173Y0007471D01*
X0431334Y0007471D02*
X0431334Y0009873D01*
X0431094Y0011071D02*
X0431094Y0013473D01*
X0432255Y0013473D02*
X0433055Y0013473D01*
X0432655Y0013473D02*
X0432655Y0011071D01*
X0432255Y0011071D02*
X0433055Y0011071D01*
X0434096Y0011472D02*
X0434497Y0011071D01*
X0435297Y0011071D01*
X0435698Y0011472D01*
X0435698Y0011872D01*
X0435297Y0012272D01*
X0434497Y0012272D01*
X0434096Y0012673D01*
X0434096Y0013073D01*
X0434497Y0013473D01*
X0435297Y0013473D01*
X0435698Y0013073D01*
X0435297Y0009873D02*
X0434497Y0009873D01*
X0434096Y0009473D01*
X0434096Y0009073D01*
X0434497Y0008672D01*
X0435297Y0008672D01*
X0435698Y0008272D01*
X0435698Y0007872D01*
X0435297Y0007471D01*
X0434497Y0007471D01*
X0434096Y0007872D01*
X0432935Y0007471D02*
X0431334Y0007471D01*
X0428572Y0007471D02*
X0428572Y0009873D01*
X0429492Y0011071D02*
X0429492Y0013473D01*
X0428331Y0013473D02*
X0426730Y0013473D01*
X0427531Y0013473D02*
X0427531Y0011071D01*
X0429492Y0012272D02*
X0431094Y0012272D01*
X0435297Y0009873D02*
X0435698Y0009473D01*
X0439621Y0009873D02*
X0439621Y0007471D01*
X0439621Y0008672D02*
X0440422Y0008672D01*
X0439621Y0009873D02*
X0441222Y0009873D01*
X0441222Y0011071D02*
X0441222Y0013473D01*
X0440422Y0012673D01*
X0439621Y0013473D01*
X0439621Y0011071D01*
X0442383Y0011071D02*
X0442383Y0012673D01*
X0443184Y0013473D01*
X0443985Y0012673D01*
X0443985Y0011071D01*
X0443985Y0012272D02*
X0442383Y0012272D01*
X0443184Y0009873D02*
X0443985Y0009073D01*
X0443985Y0007471D01*
X0443985Y0008672D02*
X0442383Y0008672D01*
X0442383Y0009073D02*
X0443184Y0009873D01*
X0442383Y0009073D02*
X0442383Y0007471D01*
X0445146Y0007872D02*
X0445546Y0007471D01*
X0446347Y0007471D01*
X0446747Y0007872D01*
X0446747Y0008272D01*
X0446347Y0008672D01*
X0445546Y0008672D01*
X0445146Y0009073D01*
X0445146Y0009473D01*
X0445546Y0009873D01*
X0446347Y0009873D01*
X0446747Y0009473D01*
X0447908Y0009473D02*
X0447908Y0007872D01*
X0448308Y0007471D01*
X0449109Y0007471D01*
X0449509Y0007872D01*
X0450670Y0007471D02*
X0451471Y0007471D01*
X0451071Y0007471D02*
X0451071Y0009873D01*
X0451471Y0009873D02*
X0450670Y0009873D01*
X0450670Y0011071D02*
X0451471Y0011071D01*
X0451071Y0011071D02*
X0451071Y0013473D01*
X0451471Y0013473D02*
X0450670Y0013473D01*
X0449509Y0013473D02*
X0449509Y0011071D01*
X0449509Y0012272D02*
X0447908Y0012272D01*
X0447908Y0011071D02*
X0447908Y0013473D01*
X0446747Y0013073D02*
X0446347Y0013473D01*
X0445546Y0013473D01*
X0445146Y0013073D01*
X0445146Y0011472D01*
X0445546Y0011071D01*
X0446347Y0011071D01*
X0446747Y0011472D01*
X0448308Y0009873D02*
X0447908Y0009473D01*
X0448308Y0009873D02*
X0449109Y0009873D01*
X0449509Y0009473D01*
X0452512Y0009473D02*
X0452912Y0009873D01*
X0453713Y0009873D01*
X0454113Y0009473D01*
X0453713Y0008672D02*
X0454113Y0008272D01*
X0454113Y0007872D01*
X0453713Y0007471D01*
X0452912Y0007471D01*
X0452512Y0007872D01*
X0452912Y0008672D02*
X0453713Y0008672D01*
X0452912Y0008672D02*
X0452512Y0009073D01*
X0452512Y0009473D01*
X0452512Y0011071D02*
X0452512Y0013473D01*
X0454113Y0011071D01*
X0454113Y0013473D01*
X0455274Y0013473D02*
X0455274Y0011071D01*
X0456876Y0011071D01*
X0456876Y0009873D02*
X0455274Y0009873D01*
X0456075Y0009873D02*
X0456075Y0007471D01*
X0458037Y0007872D02*
X0458437Y0007471D01*
X0459238Y0007471D01*
X0459638Y0007872D01*
X0459638Y0008272D01*
X0459238Y0008672D01*
X0458437Y0008672D01*
X0458037Y0009073D01*
X0458037Y0009473D01*
X0458437Y0009873D01*
X0459238Y0009873D01*
X0459638Y0009473D01*
X0456075Y0012272D02*
X0455274Y0012272D01*
X0455274Y0013473D02*
X0456876Y0013473D01*
X0425569Y0007471D02*
X0424368Y0008672D01*
D13*
X0422083Y0005471D02*
X0422083Y0015471D01*
X0462083Y0015471D01*
X0462083Y0005471D01*
X0422083Y0005471D01*
D14*
X0059483Y0007121D02*
X0059483Y0022149D01*
X0060449Y0021183D01*
X0062525Y0020323D01*
X0064772Y0020323D01*
X0066848Y0021183D01*
X0068436Y0022772D01*
X0069296Y0024848D01*
X0069296Y0027095D01*
X0068436Y0029171D01*
X0066848Y0030759D01*
X0064772Y0031619D01*
X0062525Y0031619D01*
X0060449Y0030759D01*
X0059483Y0029794D01*
X0059483Y0090529D01*
X0061248Y0090529D01*
X0062998Y0091254D01*
X0064171Y0092427D01*
X0064171Y0047547D01*
X0064659Y0046370D01*
X0067289Y0043740D01*
X0067739Y0042654D01*
X0068766Y0041627D01*
X0070107Y0041071D01*
X0071559Y0041071D01*
X0072901Y0041627D01*
X0073928Y0042654D01*
X0074483Y0043995D01*
X0074483Y0045447D01*
X0073928Y0046789D01*
X0072901Y0047816D01*
X0071814Y0048266D01*
X0070571Y0049509D01*
X0070571Y0098827D01*
X0070906Y0099162D01*
X0109937Y0099162D01*
X0108763Y0097989D01*
X0108038Y0096238D01*
X0108038Y0094344D01*
X0108763Y0092593D01*
X0110103Y0091254D01*
X0111853Y0090529D01*
X0113748Y0090529D01*
X0115498Y0091254D01*
X0116838Y0092593D01*
X0117563Y0094344D01*
X0117563Y0096238D01*
X0116838Y0097989D01*
X0115664Y0099162D01*
X0116337Y0099162D01*
X0117174Y0098325D01*
X0118924Y0097600D01*
X0120819Y0097600D01*
X0122569Y0098325D01*
X0123406Y0099162D01*
X0162437Y0099162D01*
X0161263Y0097989D01*
X0160538Y0096238D01*
X0160538Y0094344D01*
X0161263Y0092593D01*
X0162603Y0091254D01*
X0164353Y0090529D01*
X0166248Y0090529D01*
X0167998Y0091254D01*
X0169338Y0092593D01*
X0170063Y0094344D01*
X0170063Y0096238D01*
X0169338Y0097989D01*
X0168164Y0099162D01*
X0168837Y0099162D01*
X0169674Y0098325D01*
X0171424Y0097600D01*
X0173319Y0097600D01*
X0175069Y0098325D01*
X0175906Y0099162D01*
X0214937Y0099162D01*
X0213763Y0097989D01*
X0213038Y0096238D01*
X0213038Y0094344D01*
X0213763Y0092593D01*
X0215103Y0091254D01*
X0216589Y0090638D01*
X0216489Y0090539D01*
X0215933Y0089197D01*
X0215933Y0087745D01*
X0216383Y0086659D01*
X0216383Y0048797D01*
X0215933Y0047711D01*
X0215933Y0046259D01*
X0216489Y0044917D01*
X0217516Y0043891D01*
X0218857Y0043335D01*
X0220309Y0043335D01*
X0221651Y0043891D01*
X0222678Y0044917D01*
X0223233Y0046259D01*
X0223233Y0047711D01*
X0222783Y0048797D01*
X0222783Y0086659D01*
X0223233Y0087745D01*
X0223233Y0089197D01*
X0222678Y0090539D01*
X0221651Y0091566D01*
X0221056Y0091812D01*
X0221838Y0092593D01*
X0222563Y0094344D01*
X0222563Y0096238D01*
X0221838Y0097989D01*
X0220664Y0099162D01*
X0221337Y0099162D01*
X0222174Y0098325D01*
X0223924Y0097600D01*
X0225819Y0097600D01*
X0227569Y0098325D01*
X0228406Y0099162D01*
X0267437Y0099162D01*
X0266263Y0097989D01*
X0265538Y0096238D01*
X0265538Y0094344D01*
X0266263Y0092593D01*
X0267603Y0091254D01*
X0269353Y0090529D01*
X0271248Y0090529D01*
X0272998Y0091254D01*
X0274338Y0092593D01*
X0275063Y0094344D01*
X0275063Y0096238D01*
X0274338Y0097989D01*
X0273164Y0099162D01*
X0273837Y0099162D01*
X0274674Y0098325D01*
X0276424Y0097600D01*
X0278319Y0097600D01*
X0280069Y0098325D01*
X0280906Y0099162D01*
X0319937Y0099162D01*
X0318763Y0097989D01*
X0318038Y0096238D01*
X0318038Y0094344D01*
X0318763Y0092593D01*
X0320103Y0091254D01*
X0321853Y0090529D01*
X0323748Y0090529D01*
X0325498Y0091254D01*
X0326838Y0092593D01*
X0327563Y0094344D01*
X0327563Y0096238D01*
X0326838Y0097989D01*
X0325664Y0099162D01*
X0326337Y0099162D01*
X0327174Y0098325D01*
X0328924Y0097600D01*
X0330819Y0097600D01*
X0332569Y0098325D01*
X0333406Y0099162D01*
X0372437Y0099162D01*
X0371263Y0097989D01*
X0370538Y0096238D01*
X0370538Y0094344D01*
X0371263Y0092593D01*
X0372603Y0091254D01*
X0374353Y0090529D01*
X0376248Y0090529D01*
X0377998Y0091254D01*
X0379338Y0092593D01*
X0380063Y0094344D01*
X0380063Y0096238D01*
X0379338Y0097989D01*
X0378164Y0099162D01*
X0378837Y0099162D01*
X0379674Y0098325D01*
X0381424Y0097600D01*
X0383319Y0097600D01*
X0385069Y0098325D01*
X0386409Y0099665D01*
X0387134Y0101415D01*
X0387134Y0103309D01*
X0386409Y0105060D01*
X0385069Y0106399D01*
X0383319Y0107124D01*
X0381424Y0107124D01*
X0379674Y0106399D01*
X0378837Y0105562D01*
X0339806Y0105562D01*
X0340980Y0106736D01*
X0341705Y0108486D01*
X0341705Y0110380D01*
X0340980Y0112131D01*
X0339640Y0113470D01*
X0337890Y0114195D01*
X0335995Y0114195D01*
X0334245Y0113470D01*
X0332905Y0112131D01*
X0332180Y0110380D01*
X0332180Y0108486D01*
X0332905Y0106736D01*
X0334079Y0105562D01*
X0333406Y0105562D01*
X0332569Y0106399D01*
X0330819Y0107124D01*
X0328924Y0107124D01*
X0327174Y0106399D01*
X0326337Y0105562D01*
X0287306Y0105562D01*
X0288480Y0106736D01*
X0289205Y0108486D01*
X0289205Y0110380D01*
X0288480Y0112131D01*
X0287140Y0113470D01*
X0285390Y0114195D01*
X0283495Y0114195D01*
X0281745Y0113470D01*
X0280405Y0112131D01*
X0279680Y0110380D01*
X0279680Y0108486D01*
X0280405Y0106736D01*
X0281579Y0105562D01*
X0280906Y0105562D01*
X0280069Y0106399D01*
X0278319Y0107124D01*
X0276424Y0107124D01*
X0274674Y0106399D01*
X0273837Y0105562D01*
X0234806Y0105562D01*
X0235980Y0106736D01*
X0236705Y0108486D01*
X0236705Y0110380D01*
X0235980Y0112131D01*
X0234640Y0113470D01*
X0232890Y0114195D01*
X0230995Y0114195D01*
X0229245Y0113470D01*
X0227905Y0112131D01*
X0227180Y0110380D01*
X0227180Y0108486D01*
X0227905Y0106736D01*
X0229079Y0105562D01*
X0228406Y0105562D01*
X0227569Y0106399D01*
X0225819Y0107124D01*
X0223924Y0107124D01*
X0222174Y0106399D01*
X0221337Y0105562D01*
X0182306Y0105562D01*
X0183480Y0106736D01*
X0184205Y0108486D01*
X0184205Y0110380D01*
X0183480Y0112131D01*
X0182140Y0113470D01*
X0180390Y0114195D01*
X0178495Y0114195D01*
X0176745Y0113470D01*
X0175405Y0112131D01*
X0174680Y0110380D01*
X0174680Y0108486D01*
X0175405Y0106736D01*
X0176579Y0105562D01*
X0175906Y0105562D01*
X0175069Y0106399D01*
X0173319Y0107124D01*
X0171424Y0107124D01*
X0169674Y0106399D01*
X0168837Y0105562D01*
X0129806Y0105562D01*
X0130980Y0106736D01*
X0131705Y0108486D01*
X0131705Y0110380D01*
X0130980Y0112131D01*
X0129640Y0113470D01*
X0127890Y0114195D01*
X0125995Y0114195D01*
X0124245Y0113470D01*
X0122905Y0112131D01*
X0122180Y0110380D01*
X0122180Y0108486D01*
X0122905Y0106736D01*
X0124079Y0105562D01*
X0123406Y0105562D01*
X0122569Y0106399D01*
X0120819Y0107124D01*
X0118924Y0107124D01*
X0117174Y0106399D01*
X0116337Y0105562D01*
X0077306Y0105562D01*
X0078480Y0106736D01*
X0079205Y0108486D01*
X0079205Y0110380D01*
X0078480Y0112131D01*
X0077140Y0113470D01*
X0075390Y0114195D01*
X0073495Y0114195D01*
X0071745Y0113470D01*
X0070405Y0112131D01*
X0069680Y0110380D01*
X0069680Y0108486D01*
X0070405Y0106736D01*
X0071579Y0105562D01*
X0070906Y0105562D01*
X0070069Y0106399D01*
X0068319Y0107124D01*
X0066424Y0107124D01*
X0064674Y0106399D01*
X0063334Y0105060D01*
X0062609Y0103309D01*
X0062609Y0101415D01*
X0063334Y0099665D01*
X0064171Y0098827D01*
X0064171Y0098155D01*
X0062998Y0099328D01*
X0061248Y0100053D01*
X0059483Y0100053D01*
X0059483Y0118463D01*
X0077840Y0118463D01*
X0077656Y0118102D01*
X0077454Y0117479D01*
X0077351Y0116832D01*
X0077351Y0116177D01*
X0077454Y0115530D01*
X0077656Y0114906D01*
X0077954Y0114323D01*
X0078339Y0113793D01*
X0078570Y0113561D01*
X0081513Y0116504D01*
X0081513Y0116504D01*
X0078570Y0113561D01*
X0078802Y0113329D01*
X0079332Y0112944D01*
X0079916Y0112647D01*
X0080539Y0112444D01*
X0081186Y0112342D01*
X0081841Y0112342D01*
X0082488Y0112444D01*
X0083111Y0112647D01*
X0083695Y0112944D01*
X0084225Y0113329D01*
X0084457Y0113561D01*
X0084688Y0113793D01*
X0085073Y0114323D01*
X0085371Y0114906D01*
X0085573Y0115530D01*
X0085676Y0116177D01*
X0085676Y0116832D01*
X0085573Y0117479D01*
X0085371Y0118102D01*
X0085187Y0118463D01*
X0130340Y0118463D01*
X0130156Y0118102D01*
X0129954Y0117479D01*
X0129851Y0116832D01*
X0129851Y0116177D01*
X0129954Y0115530D01*
X0130156Y0114906D01*
X0130454Y0114323D01*
X0130839Y0113793D01*
X0131070Y0113561D01*
X0134013Y0116504D01*
X0134013Y0116504D01*
X0131070Y0113561D01*
X0131302Y0113329D01*
X0131832Y0112944D01*
X0132416Y0112647D01*
X0133039Y0112444D01*
X0133686Y0112342D01*
X0134341Y0112342D01*
X0134988Y0112444D01*
X0135611Y0112647D01*
X0136195Y0112944D01*
X0136725Y0113329D01*
X0136957Y0113561D01*
X0137188Y0113793D01*
X0137573Y0114323D01*
X0137871Y0114906D01*
X0138073Y0115530D01*
X0138176Y0116177D01*
X0138176Y0116832D01*
X0138073Y0117479D01*
X0137871Y0118102D01*
X0137687Y0118463D01*
X0182840Y0118463D01*
X0182656Y0118102D01*
X0182454Y0117479D01*
X0182351Y0116832D01*
X0182351Y0116177D01*
X0182454Y0115530D01*
X0182656Y0114906D01*
X0182954Y0114323D01*
X0183339Y0113793D01*
X0183570Y0113561D01*
X0186513Y0116504D01*
X0186513Y0116504D01*
X0183570Y0113561D01*
X0183802Y0113329D01*
X0184332Y0112944D01*
X0184916Y0112647D01*
X0185539Y0112444D01*
X0186186Y0112342D01*
X0186841Y0112342D01*
X0187488Y0112444D01*
X0188111Y0112647D01*
X0188695Y0112944D01*
X0189225Y0113329D01*
X0189457Y0113561D01*
X0189688Y0113793D01*
X0190073Y0114323D01*
X0190371Y0114906D01*
X0190573Y0115530D01*
X0190676Y0116177D01*
X0190676Y0116832D01*
X0190573Y0117479D01*
X0190371Y0118102D01*
X0190187Y0118463D01*
X0235340Y0118463D01*
X0235156Y0118102D01*
X0234954Y0117479D01*
X0234851Y0116832D01*
X0234851Y0116177D01*
X0234954Y0115530D01*
X0235156Y0114906D01*
X0235454Y0114323D01*
X0235839Y0113793D01*
X0236070Y0113561D01*
X0239013Y0116504D01*
X0239013Y0116504D01*
X0236070Y0113561D01*
X0236302Y0113329D01*
X0236832Y0112944D01*
X0237416Y0112647D01*
X0238039Y0112444D01*
X0238686Y0112342D01*
X0239341Y0112342D01*
X0239988Y0112444D01*
X0240611Y0112647D01*
X0241195Y0112944D01*
X0241725Y0113329D01*
X0241957Y0113561D01*
X0242188Y0113793D01*
X0242573Y0114323D01*
X0242871Y0114906D01*
X0243073Y0115530D01*
X0243176Y0116177D01*
X0243176Y0116832D01*
X0243073Y0117479D01*
X0242871Y0118102D01*
X0242687Y0118463D01*
X0287840Y0118463D01*
X0287656Y0118102D01*
X0287454Y0117479D01*
X0287351Y0116832D01*
X0287351Y0116177D01*
X0287454Y0115530D01*
X0287656Y0114906D01*
X0287954Y0114323D01*
X0288339Y0113793D01*
X0288570Y0113561D01*
X0291513Y0116504D01*
X0291513Y0116504D01*
X0288570Y0113561D01*
X0288802Y0113329D01*
X0289332Y0112944D01*
X0289916Y0112647D01*
X0290539Y0112444D01*
X0291186Y0112342D01*
X0291841Y0112342D01*
X0292488Y0112444D01*
X0293111Y0112647D01*
X0293695Y0112944D01*
X0294225Y0113329D01*
X0294457Y0113561D01*
X0294688Y0113793D01*
X0295073Y0114323D01*
X0295371Y0114906D01*
X0295573Y0115530D01*
X0295676Y0116177D01*
X0295676Y0116832D01*
X0295573Y0117479D01*
X0295371Y0118102D01*
X0295187Y0118463D01*
X0340340Y0118463D01*
X0340156Y0118102D01*
X0339954Y0117479D01*
X0339851Y0116832D01*
X0339851Y0116177D01*
X0339954Y0115530D01*
X0340156Y0114906D01*
X0340454Y0114323D01*
X0340839Y0113793D01*
X0341070Y0113561D01*
X0344013Y0116504D01*
X0344013Y0116504D01*
X0341070Y0113561D01*
X0341302Y0113329D01*
X0341832Y0112944D01*
X0342416Y0112647D01*
X0343039Y0112444D01*
X0343686Y0112342D01*
X0344341Y0112342D01*
X0344988Y0112444D01*
X0345611Y0112647D01*
X0346195Y0112944D01*
X0346725Y0113329D01*
X0346957Y0113561D01*
X0347188Y0113793D01*
X0347573Y0114323D01*
X0347871Y0114906D01*
X0348073Y0115530D01*
X0348176Y0116177D01*
X0348176Y0116832D01*
X0348073Y0117479D01*
X0347871Y0118102D01*
X0347687Y0118463D01*
X0392840Y0118463D01*
X0392656Y0118102D01*
X0392454Y0117479D01*
X0392351Y0116832D01*
X0392351Y0116177D01*
X0392454Y0115530D01*
X0392656Y0114906D01*
X0392954Y0114323D01*
X0393339Y0113793D01*
X0393570Y0113561D01*
X0396513Y0116504D01*
X0396513Y0116504D01*
X0393570Y0113561D01*
X0393802Y0113329D01*
X0394332Y0112944D01*
X0394916Y0112647D01*
X0395539Y0112444D01*
X0396186Y0112342D01*
X0396841Y0112342D01*
X0397488Y0112444D01*
X0398111Y0112647D01*
X0398695Y0112944D01*
X0399225Y0113329D01*
X0399457Y0113561D01*
X0399688Y0113793D01*
X0400073Y0114323D01*
X0400371Y0114906D01*
X0400573Y0115530D01*
X0400676Y0116177D01*
X0400676Y0116832D01*
X0400573Y0117479D01*
X0400371Y0118102D01*
X0400187Y0118463D01*
X0483817Y0118463D01*
X0483817Y0103160D01*
X0482468Y0104509D01*
X0480392Y0105369D01*
X0478145Y0105369D01*
X0476069Y0104509D01*
X0474480Y0102921D01*
X0473620Y0100845D01*
X0473620Y0098598D01*
X0474480Y0096522D01*
X0476069Y0094933D01*
X0477633Y0094285D01*
X0477633Y0044797D01*
X0460758Y0027921D01*
X0431871Y0027921D01*
X0432904Y0028954D01*
X0433629Y0030704D01*
X0433629Y0032599D01*
X0432904Y0034349D01*
X0431564Y0035689D01*
X0429814Y0036414D01*
X0427919Y0036414D01*
X0426169Y0035689D01*
X0424829Y0034349D01*
X0424104Y0032599D01*
X0424104Y0030704D01*
X0424829Y0028954D01*
X0425862Y0027921D01*
X0406447Y0027921D01*
X0405271Y0027434D01*
X0404370Y0026534D01*
X0404370Y0026534D01*
X0392008Y0014171D01*
X0365621Y0014171D01*
X0366261Y0014812D01*
X0366986Y0016562D01*
X0366986Y0018457D01*
X0366261Y0020207D01*
X0364922Y0021546D01*
X0363171Y0022271D01*
X0361277Y0022271D01*
X0359527Y0021546D01*
X0358187Y0020207D01*
X0357462Y0018457D01*
X0357462Y0016562D01*
X0358187Y0014812D01*
X0358828Y0014171D01*
X0313121Y0014171D01*
X0313761Y0014812D01*
X0314486Y0016562D01*
X0314486Y0018457D01*
X0313761Y0020207D01*
X0312422Y0021546D01*
X0310671Y0022271D01*
X0308777Y0022271D01*
X0307027Y0021546D01*
X0305687Y0020207D01*
X0304962Y0018457D01*
X0304962Y0016562D01*
X0305687Y0014812D01*
X0306328Y0014171D01*
X0260621Y0014171D01*
X0261261Y0014812D01*
X0261986Y0016562D01*
X0261986Y0018457D01*
X0261261Y0020207D01*
X0259922Y0021546D01*
X0258171Y0022271D01*
X0256277Y0022271D01*
X0254527Y0021546D01*
X0253187Y0020207D01*
X0252462Y0018457D01*
X0252462Y0016562D01*
X0253187Y0014812D01*
X0253828Y0014171D01*
X0208121Y0014171D01*
X0208761Y0014812D01*
X0209486Y0016562D01*
X0209486Y0018457D01*
X0208761Y0020207D01*
X0207422Y0021546D01*
X0205671Y0022271D01*
X0203777Y0022271D01*
X0202027Y0021546D01*
X0200687Y0020207D01*
X0199962Y0018457D01*
X0199962Y0016562D01*
X0200687Y0014812D01*
X0201328Y0014171D01*
X0155621Y0014171D01*
X0156261Y0014812D01*
X0156986Y0016562D01*
X0156986Y0018457D01*
X0156261Y0020207D01*
X0154922Y0021546D01*
X0153171Y0022271D01*
X0151277Y0022271D01*
X0149527Y0021546D01*
X0148187Y0020207D01*
X0147462Y0018457D01*
X0147462Y0016562D01*
X0148187Y0014812D01*
X0148828Y0014171D01*
X0097646Y0014171D01*
X0096757Y0014539D01*
X0096757Y0020323D01*
X0098236Y0020323D01*
X0100312Y0021183D01*
X0101901Y0022772D01*
X0102761Y0024848D01*
X0102761Y0027095D01*
X0101901Y0029171D01*
X0100312Y0030759D01*
X0098236Y0031619D01*
X0096757Y0031619D01*
X0096757Y0037472D01*
X0096392Y0038354D01*
X0095716Y0039029D01*
X0094834Y0039395D01*
X0071832Y0039395D01*
X0070950Y0039029D01*
X0070275Y0038354D01*
X0069910Y0037472D01*
X0069910Y0014470D01*
X0070275Y0013588D01*
X0070950Y0012913D01*
X0071832Y0012548D01*
X0092536Y0012548D01*
X0092183Y0011697D01*
X0092183Y0010245D01*
X0092739Y0008904D01*
X0093766Y0007877D01*
X0095107Y0007321D01*
X0096559Y0007321D01*
X0097646Y0007771D01*
X0393970Y0007771D01*
X0395146Y0008258D01*
X0408409Y0021521D01*
X0412001Y0021521D01*
X0410687Y0020207D01*
X0409962Y0018457D01*
X0409962Y0016562D01*
X0410687Y0014812D01*
X0412027Y0013472D01*
X0413777Y0012747D01*
X0415671Y0012747D01*
X0417422Y0013472D01*
X0418761Y0014812D01*
X0419486Y0016562D01*
X0419486Y0018457D01*
X0418761Y0020207D01*
X0417447Y0021521D01*
X0462720Y0021521D01*
X0463896Y0022008D01*
X0464796Y0022909D01*
X0483546Y0041659D01*
X0483817Y0042313D01*
X0483817Y0035791D01*
X0482314Y0036414D01*
X0480419Y0036414D01*
X0478669Y0035689D01*
X0477329Y0034349D01*
X0476604Y0032599D01*
X0476604Y0030704D01*
X0477329Y0028954D01*
X0478669Y0027614D01*
X0480419Y0026889D01*
X0482314Y0026889D01*
X0483817Y0027512D01*
X0483817Y0007121D01*
X0464883Y0007121D01*
X0464883Y0013324D01*
X0466277Y0012747D01*
X0468171Y0012747D01*
X0469922Y0013472D01*
X0471261Y0014812D01*
X0471986Y0016562D01*
X0471986Y0018457D01*
X0471261Y0020207D01*
X0469922Y0021546D01*
X0468171Y0022271D01*
X0466277Y0022271D01*
X0464527Y0021546D01*
X0463187Y0020207D01*
X0462462Y0018457D01*
X0462462Y0018271D01*
X0421526Y0018271D01*
X0420497Y0017845D01*
X0419710Y0017057D01*
X0419283Y0016028D01*
X0419283Y0007121D01*
X0059483Y0007121D01*
X0059483Y0007918D02*
X0093724Y0007918D01*
X0092485Y0009517D02*
X0059483Y0009517D01*
X0059483Y0011115D02*
X0092183Y0011115D01*
X0095833Y0010971D02*
X0393333Y0010971D01*
X0407083Y0024721D01*
X0462083Y0024721D01*
X0480833Y0043471D01*
X0480833Y0098156D01*
X0479268Y0099721D01*
X0474102Y0097435D02*
X0473007Y0097435D01*
X0473007Y0099033D02*
X0473620Y0099033D01*
X0473620Y0100632D02*
X0473007Y0100632D01*
X0473007Y0102230D02*
X0474194Y0102230D01*
X0473007Y0103829D02*
X0475389Y0103829D01*
X0473007Y0105427D02*
X0483817Y0105427D01*
X0483817Y0103829D02*
X0483148Y0103829D01*
X0483817Y0107026D02*
X0473007Y0107026D01*
X0473007Y0108624D02*
X0483817Y0108624D01*
X0483817Y0110223D02*
X0473007Y0110223D01*
X0473007Y0111222D02*
X0472642Y0112104D01*
X0471966Y0112779D01*
X0471084Y0113145D01*
X0448082Y0113145D01*
X0447200Y0112779D01*
X0446525Y0112104D01*
X0446160Y0111222D01*
X0446160Y0105369D01*
X0444680Y0105369D01*
X0442604Y0104509D01*
X0441016Y0102921D01*
X0440156Y0100845D01*
X0440156Y0098598D01*
X0441016Y0096522D01*
X0442604Y0094933D01*
X0444680Y0094073D01*
X0446160Y0094073D01*
X0446160Y0088220D01*
X0446525Y0087338D01*
X0447200Y0086663D01*
X0448082Y0086298D01*
X0471084Y0086298D01*
X0471966Y0086663D01*
X0472642Y0087338D01*
X0473007Y0088220D01*
X0473007Y0111222D01*
X0472759Y0111821D02*
X0483817Y0111821D01*
X0483817Y0113420D02*
X0399316Y0113420D01*
X0399457Y0113561D02*
X0396514Y0116504D01*
X0399457Y0113561D01*
X0400407Y0115018D02*
X0483817Y0115018D01*
X0483817Y0116617D02*
X0400676Y0116617D01*
X0400313Y0118216D02*
X0483817Y0118216D01*
X0446408Y0111821D02*
X0393608Y0111821D01*
X0393480Y0112131D02*
X0392140Y0113470D01*
X0390390Y0114195D01*
X0388495Y0114195D01*
X0386745Y0113470D01*
X0385405Y0112131D01*
X0384680Y0110380D01*
X0384680Y0108486D01*
X0385405Y0106736D01*
X0386745Y0105396D01*
X0388495Y0104671D01*
X0390390Y0104671D01*
X0392140Y0105396D01*
X0393480Y0106736D01*
X0394205Y0108486D01*
X0394205Y0110380D01*
X0393480Y0112131D01*
X0393711Y0113420D02*
X0392190Y0113420D01*
X0392620Y0115018D02*
X0347907Y0115018D01*
X0348176Y0116617D02*
X0392351Y0116617D01*
X0392714Y0118216D02*
X0347813Y0118216D01*
X0345499Y0115018D02*
X0345499Y0115018D01*
X0346957Y0113561D02*
X0344014Y0116504D01*
X0344014Y0116504D01*
X0346957Y0113561D01*
X0346816Y0113420D02*
X0386695Y0113420D01*
X0385277Y0111821D02*
X0341108Y0111821D01*
X0341211Y0113420D02*
X0339690Y0113420D01*
X0340120Y0115018D02*
X0295407Y0115018D01*
X0295676Y0116617D02*
X0339851Y0116617D01*
X0340214Y0118216D02*
X0295313Y0118216D01*
X0292999Y0115018D02*
X0292999Y0115018D01*
X0294457Y0113561D02*
X0291514Y0116504D01*
X0291514Y0116504D01*
X0294457Y0113561D01*
X0294316Y0113420D02*
X0334195Y0113420D01*
X0332777Y0111821D02*
X0288608Y0111821D01*
X0288711Y0113420D02*
X0287190Y0113420D01*
X0287620Y0115018D02*
X0242907Y0115018D01*
X0243176Y0116617D02*
X0287351Y0116617D01*
X0287714Y0118216D02*
X0242813Y0118216D01*
X0240499Y0115018D02*
X0240499Y0115018D01*
X0241957Y0113561D02*
X0239014Y0116504D01*
X0239014Y0116504D01*
X0241957Y0113561D01*
X0241816Y0113420D02*
X0281695Y0113420D01*
X0280277Y0111821D02*
X0236108Y0111821D01*
X0236211Y0113420D02*
X0234690Y0113420D01*
X0235120Y0115018D02*
X0190407Y0115018D01*
X0190676Y0116617D02*
X0234851Y0116617D01*
X0235214Y0118216D02*
X0190313Y0118216D01*
X0187999Y0115018D02*
X0187999Y0115018D01*
X0189457Y0113561D02*
X0186514Y0116504D01*
X0186514Y0116504D01*
X0189457Y0113561D01*
X0189316Y0113420D02*
X0229195Y0113420D01*
X0227777Y0111821D02*
X0183608Y0111821D01*
X0183711Y0113420D02*
X0182190Y0113420D01*
X0182620Y0115018D02*
X0137907Y0115018D01*
X0138176Y0116617D02*
X0182351Y0116617D01*
X0182714Y0118216D02*
X0137813Y0118216D01*
X0135499Y0115018D02*
X0135499Y0115018D01*
X0136957Y0113561D02*
X0134014Y0116504D01*
X0134014Y0116504D01*
X0136957Y0113561D01*
X0136816Y0113420D02*
X0176695Y0113420D01*
X0175277Y0111821D02*
X0131108Y0111821D01*
X0131211Y0113420D02*
X0129690Y0113420D01*
X0130120Y0115018D02*
X0085407Y0115018D01*
X0085676Y0116617D02*
X0129851Y0116617D01*
X0130214Y0118216D02*
X0085313Y0118216D01*
X0082999Y0115018D02*
X0082999Y0115018D01*
X0084457Y0113561D02*
X0081514Y0116504D01*
X0081514Y0116504D01*
X0084457Y0113561D01*
X0084316Y0113420D02*
X0124195Y0113420D01*
X0122777Y0111821D02*
X0078608Y0111821D01*
X0078711Y0113420D02*
X0077190Y0113420D01*
X0077620Y0115018D02*
X0059483Y0115018D01*
X0059483Y0113420D02*
X0071695Y0113420D01*
X0070277Y0111821D02*
X0059483Y0111821D01*
X0059483Y0110223D02*
X0069680Y0110223D01*
X0069680Y0108624D02*
X0059483Y0108624D01*
X0059483Y0107026D02*
X0066187Y0107026D01*
X0068556Y0107026D02*
X0070285Y0107026D01*
X0078600Y0107026D02*
X0118687Y0107026D01*
X0121056Y0107026D02*
X0122785Y0107026D01*
X0122180Y0108624D02*
X0079205Y0108624D01*
X0079205Y0110223D02*
X0122180Y0110223D01*
X0131100Y0107026D02*
X0171187Y0107026D01*
X0173556Y0107026D02*
X0175285Y0107026D01*
X0174680Y0108624D02*
X0131705Y0108624D01*
X0131705Y0110223D02*
X0174680Y0110223D01*
X0183600Y0107026D02*
X0223687Y0107026D01*
X0226056Y0107026D02*
X0227785Y0107026D01*
X0227180Y0108624D02*
X0184205Y0108624D01*
X0184205Y0110223D02*
X0227180Y0110223D01*
X0236100Y0107026D02*
X0276187Y0107026D01*
X0278556Y0107026D02*
X0280285Y0107026D01*
X0279680Y0108624D02*
X0236705Y0108624D01*
X0236705Y0110223D02*
X0279680Y0110223D01*
X0288600Y0107026D02*
X0328687Y0107026D01*
X0331056Y0107026D02*
X0332785Y0107026D01*
X0332180Y0108624D02*
X0289205Y0108624D01*
X0289205Y0110223D02*
X0332180Y0110223D01*
X0341100Y0107026D02*
X0381187Y0107026D01*
X0383556Y0107026D02*
X0385285Y0107026D01*
X0384680Y0108624D02*
X0341705Y0108624D01*
X0341705Y0110223D02*
X0384680Y0110223D01*
X0386041Y0105427D02*
X0386713Y0105427D01*
X0386918Y0103829D02*
X0431058Y0103829D01*
X0431347Y0104039D02*
X0430704Y0103572D01*
X0430142Y0103010D01*
X0429675Y0102367D01*
X0429315Y0101659D01*
X0429069Y0100903D01*
X0428945Y0100119D01*
X0428945Y0100004D01*
X0433710Y0100004D01*
X0433710Y0104769D01*
X0433595Y0104769D01*
X0432811Y0104645D01*
X0432055Y0104399D01*
X0431347Y0104039D01*
X0433710Y0103829D02*
X0434275Y0103829D01*
X0434275Y0104769D02*
X0434275Y0100004D01*
X0433710Y0100004D01*
X0433710Y0099439D01*
X0428945Y0099439D01*
X0428945Y0099324D01*
X0429069Y0098539D01*
X0429315Y0097783D01*
X0429675Y0097075D01*
X0430142Y0096433D01*
X0430704Y0095871D01*
X0431347Y0095404D01*
X0432055Y0095043D01*
X0432811Y0094797D01*
X0433595Y0094673D01*
X0433710Y0094673D01*
X0433710Y0099438D01*
X0434275Y0099438D01*
X0434275Y0094673D01*
X0434390Y0094673D01*
X0435175Y0094797D01*
X0435931Y0095043D01*
X0436639Y0095404D01*
X0437281Y0095871D01*
X0437843Y0096433D01*
X0438310Y0097075D01*
X0438671Y0097783D01*
X0438916Y0098539D01*
X0439041Y0099324D01*
X0439041Y0099439D01*
X0434276Y0099439D01*
X0434276Y0100004D01*
X0439041Y0100004D01*
X0439041Y0100119D01*
X0438916Y0100903D01*
X0438671Y0101659D01*
X0438310Y0102367D01*
X0437843Y0103010D01*
X0437281Y0103572D01*
X0436639Y0104039D01*
X0435931Y0104399D01*
X0435175Y0104645D01*
X0434390Y0104769D01*
X0434275Y0104769D01*
X0434275Y0102230D02*
X0433710Y0102230D01*
X0433710Y0100632D02*
X0434275Y0100632D01*
X0434275Y0099033D02*
X0433710Y0099033D01*
X0433710Y0097435D02*
X0434275Y0097435D01*
X0434275Y0095836D02*
X0433710Y0095836D01*
X0430752Y0095836D02*
X0380063Y0095836D01*
X0380019Y0094238D02*
X0444283Y0094238D01*
X0446160Y0092639D02*
X0379357Y0092639D01*
X0377484Y0091041D02*
X0446160Y0091041D01*
X0446160Y0089442D02*
X0315632Y0089442D01*
X0315733Y0089197D02*
X0315178Y0090539D01*
X0314151Y0091566D01*
X0312809Y0092121D01*
X0311357Y0092121D01*
X0310016Y0091566D01*
X0308989Y0090539D01*
X0308433Y0089197D01*
X0308433Y0087745D01*
X0308883Y0086659D01*
X0308883Y0079176D01*
X0307809Y0079621D01*
X0306357Y0079621D01*
X0305016Y0079066D01*
X0303989Y0078039D01*
X0303433Y0076697D01*
X0303433Y0075245D01*
X0303883Y0074159D01*
X0303883Y0041534D01*
X0303433Y0040447D01*
X0303433Y0038995D01*
X0303989Y0037654D01*
X0305016Y0036627D01*
X0306357Y0036071D01*
X0307809Y0036071D01*
X0309151Y0036627D01*
X0310178Y0037654D01*
X0310733Y0038995D01*
X0310733Y0040447D01*
X0310283Y0041534D01*
X0310283Y0044016D01*
X0311357Y0043571D01*
X0312809Y0043571D01*
X0314151Y0044127D01*
X0315178Y0045154D01*
X0315733Y0046495D01*
X0315733Y0047947D01*
X0315283Y0049034D01*
X0315283Y0086659D01*
X0315733Y0087745D01*
X0315733Y0089197D01*
X0315733Y0087844D02*
X0446316Y0087844D01*
X0441701Y0095836D02*
X0437234Y0095836D01*
X0438493Y0097435D02*
X0440637Y0097435D01*
X0440156Y0099033D02*
X0438995Y0099033D01*
X0438959Y0100632D02*
X0440156Y0100632D01*
X0440730Y0102230D02*
X0438380Y0102230D01*
X0436927Y0103829D02*
X0441924Y0103829D01*
X0446160Y0105427D02*
X0392172Y0105427D01*
X0393600Y0107026D02*
X0446160Y0107026D01*
X0446160Y0108624D02*
X0394205Y0108624D01*
X0394205Y0110223D02*
X0446160Y0110223D01*
X0429606Y0102230D02*
X0387134Y0102230D01*
X0386809Y0100632D02*
X0429026Y0100632D01*
X0428991Y0099033D02*
X0385777Y0099033D01*
X0382371Y0102362D02*
X0329871Y0102362D01*
X0277371Y0102362D01*
X0224871Y0102362D01*
X0172371Y0102362D01*
X0119871Y0102362D01*
X0067371Y0102362D01*
X0067371Y0048183D01*
X0070833Y0044721D01*
X0074483Y0044684D02*
X0110125Y0044684D01*
X0110125Y0046283D02*
X0074137Y0046283D01*
X0072743Y0047881D02*
X0110125Y0047881D01*
X0110126Y0049480D02*
X0070600Y0049480D01*
X0070571Y0051078D02*
X0110126Y0051078D01*
X0110127Y0052677D02*
X0070571Y0052677D01*
X0070571Y0054275D02*
X0110127Y0054275D01*
X0110127Y0055874D02*
X0070571Y0055874D01*
X0070571Y0057472D02*
X0110128Y0057472D01*
X0110128Y0059071D02*
X0070571Y0059071D01*
X0070571Y0060669D02*
X0110129Y0060669D01*
X0110129Y0062268D02*
X0070571Y0062268D01*
X0070571Y0063866D02*
X0110129Y0063866D01*
X0110130Y0065465D02*
X0070571Y0065465D01*
X0070571Y0067063D02*
X0110130Y0067063D01*
X0110131Y0068662D02*
X0070571Y0068662D01*
X0070571Y0070260D02*
X0110131Y0070260D01*
X0110131Y0071859D02*
X0070571Y0071859D01*
X0070571Y0073457D02*
X0110132Y0073457D01*
X0110132Y0075056D02*
X0070571Y0075056D01*
X0070571Y0076654D02*
X0110133Y0076654D01*
X0110133Y0077910D02*
X0110124Y0041545D01*
X0109673Y0040457D01*
X0109673Y0039005D01*
X0110229Y0037663D01*
X0111256Y0036637D01*
X0112597Y0036081D01*
X0114050Y0036081D01*
X0115391Y0036637D01*
X0116418Y0037663D01*
X0116973Y0039005D01*
X0116973Y0040457D01*
X0116524Y0041542D01*
X0116524Y0042770D01*
X0117607Y0042321D01*
X0119059Y0042321D01*
X0120401Y0042877D01*
X0121428Y0043904D01*
X0121983Y0045245D01*
X0121983Y0046697D01*
X0121533Y0047784D01*
X0121533Y0082909D01*
X0121983Y0083995D01*
X0121983Y0085447D01*
X0121428Y0086789D01*
X0120401Y0087816D01*
X0119059Y0088371D01*
X0117607Y0088371D01*
X0116266Y0087816D01*
X0115239Y0086789D01*
X0114683Y0085447D01*
X0114683Y0083995D01*
X0115125Y0082930D01*
X0114059Y0083371D01*
X0112607Y0083371D01*
X0111266Y0082816D01*
X0110239Y0081789D01*
X0109683Y0080447D01*
X0109683Y0078995D01*
X0110133Y0077910D01*
X0109991Y0078253D02*
X0070571Y0078253D01*
X0070571Y0079851D02*
X0109683Y0079851D01*
X0110099Y0081450D02*
X0070571Y0081450D01*
X0070571Y0083048D02*
X0111828Y0083048D01*
X0114839Y0083048D02*
X0115076Y0083048D01*
X0114683Y0084647D02*
X0070571Y0084647D01*
X0070571Y0086245D02*
X0115014Y0086245D01*
X0116334Y0087844D02*
X0070571Y0087844D01*
X0070571Y0089442D02*
X0216035Y0089442D01*
X0215933Y0087844D02*
X0120333Y0087844D01*
X0121653Y0086245D02*
X0216383Y0086245D01*
X0216383Y0084647D02*
X0121983Y0084647D01*
X0121591Y0083048D02*
X0216383Y0083048D01*
X0216383Y0081450D02*
X0121533Y0081450D01*
X0121533Y0079851D02*
X0216383Y0079851D01*
X0216383Y0078253D02*
X0121533Y0078253D01*
X0121533Y0076654D02*
X0208946Y0076654D01*
X0208756Y0076575D02*
X0207729Y0075549D01*
X0207173Y0074207D01*
X0207173Y0072755D01*
X0207633Y0071645D01*
X0207633Y0041534D01*
X0207183Y0040447D01*
X0207183Y0038995D01*
X0207739Y0037654D01*
X0208766Y0036627D01*
X0210107Y0036071D01*
X0211559Y0036071D01*
X0212901Y0036627D01*
X0213928Y0037654D01*
X0214483Y0038995D01*
X0214483Y0040447D01*
X0214033Y0041534D01*
X0214033Y0071692D01*
X0214473Y0072755D01*
X0214473Y0074207D01*
X0213918Y0075549D01*
X0212891Y0076575D01*
X0211550Y0077131D01*
X0210097Y0077131D01*
X0208756Y0076575D01*
X0207525Y0075056D02*
X0121533Y0075056D01*
X0121533Y0073457D02*
X0207173Y0073457D01*
X0207545Y0071859D02*
X0121533Y0071859D01*
X0121533Y0070260D02*
X0207633Y0070260D01*
X0207633Y0068662D02*
X0121533Y0068662D01*
X0121533Y0067063D02*
X0207633Y0067063D01*
X0207633Y0065465D02*
X0121533Y0065465D01*
X0121533Y0063866D02*
X0207633Y0063866D01*
X0207633Y0062268D02*
X0121533Y0062268D01*
X0121533Y0060669D02*
X0207633Y0060669D01*
X0207633Y0059071D02*
X0121533Y0059071D01*
X0121533Y0057472D02*
X0207633Y0057472D01*
X0207633Y0055874D02*
X0121533Y0055874D01*
X0121533Y0054275D02*
X0207633Y0054275D01*
X0207633Y0052677D02*
X0121533Y0052677D01*
X0121533Y0051078D02*
X0207633Y0051078D01*
X0207633Y0049480D02*
X0121533Y0049480D01*
X0121533Y0047881D02*
X0207633Y0047881D01*
X0207633Y0046283D02*
X0121983Y0046283D01*
X0121751Y0044684D02*
X0207633Y0044684D01*
X0207633Y0043085D02*
X0120609Y0043085D01*
X0118333Y0045971D02*
X0118333Y0084721D01*
X0113333Y0079721D02*
X0113323Y0039731D01*
X0109970Y0038290D02*
X0096418Y0038290D01*
X0096757Y0036691D02*
X0111201Y0036691D01*
X0109673Y0039888D02*
X0059483Y0039888D01*
X0059483Y0038290D02*
X0070248Y0038290D01*
X0069910Y0036691D02*
X0059483Y0036691D01*
X0059483Y0035093D02*
X0069910Y0035093D01*
X0069910Y0033494D02*
X0059483Y0033494D01*
X0059483Y0031896D02*
X0069910Y0031896D01*
X0069910Y0030297D02*
X0067310Y0030297D01*
X0068632Y0028699D02*
X0069910Y0028699D01*
X0069910Y0027100D02*
X0069294Y0027100D01*
X0069296Y0025502D02*
X0069910Y0025502D01*
X0069910Y0023903D02*
X0068905Y0023903D01*
X0067969Y0022305D02*
X0069910Y0022305D01*
X0069910Y0020706D02*
X0065697Y0020706D01*
X0061600Y0020706D02*
X0059483Y0020706D01*
X0059483Y0019108D02*
X0069910Y0019108D01*
X0069910Y0017509D02*
X0059483Y0017509D01*
X0059483Y0015911D02*
X0069910Y0015911D01*
X0069975Y0014312D02*
X0059483Y0014312D01*
X0059483Y0012714D02*
X0071431Y0012714D01*
X0096757Y0015911D02*
X0147732Y0015911D01*
X0147462Y0017509D02*
X0096757Y0017509D01*
X0096757Y0019108D02*
X0147732Y0019108D01*
X0148687Y0020706D02*
X0099161Y0020706D01*
X0101434Y0022305D02*
X0105451Y0022305D01*
X0105635Y0022121D02*
X0106278Y0021654D01*
X0106986Y0021293D01*
X0107742Y0021047D01*
X0108527Y0020923D01*
X0108641Y0020923D01*
X0108641Y0025688D01*
X0109207Y0025688D01*
X0109207Y0025689D02*
X0109207Y0026254D01*
X0113972Y0026254D01*
X0113972Y0026369D01*
X0113848Y0027153D01*
X0113602Y0027909D01*
X0113241Y0028617D01*
X0112774Y0029260D01*
X0112212Y0029822D01*
X0111570Y0030289D01*
X0110862Y0030649D01*
X0110106Y0030895D01*
X0109321Y0031019D01*
X0109207Y0031019D01*
X0109207Y0026254D01*
X0108641Y0026254D01*
X0108641Y0025689D01*
X0103876Y0025689D01*
X0103876Y0025574D01*
X0104000Y0024789D01*
X0104246Y0024033D01*
X0104606Y0023325D01*
X0105073Y0022683D01*
X0105635Y0022121D01*
X0104312Y0023903D02*
X0102370Y0023903D01*
X0102761Y0025502D02*
X0103887Y0025502D01*
X0103876Y0026254D02*
X0108641Y0026254D01*
X0108641Y0031019D01*
X0108527Y0031019D01*
X0107742Y0030895D01*
X0106986Y0030649D01*
X0106278Y0030289D01*
X0105635Y0029822D01*
X0105073Y0029260D01*
X0104606Y0028617D01*
X0104246Y0027909D01*
X0104000Y0027153D01*
X0103876Y0026369D01*
X0103876Y0026254D01*
X0103992Y0027100D02*
X0102759Y0027100D01*
X0102096Y0028699D02*
X0104666Y0028699D01*
X0106295Y0030297D02*
X0100774Y0030297D01*
X0096757Y0031896D02*
X0161604Y0031896D01*
X0161604Y0032599D02*
X0161604Y0030704D01*
X0162329Y0028954D01*
X0163669Y0027614D01*
X0165419Y0026889D01*
X0167314Y0026889D01*
X0169064Y0027614D01*
X0170404Y0028954D01*
X0171129Y0030704D01*
X0171129Y0032599D01*
X0170404Y0034349D01*
X0169064Y0035689D01*
X0167314Y0036414D01*
X0165419Y0036414D01*
X0163669Y0035689D01*
X0162329Y0034349D01*
X0161604Y0032599D01*
X0161975Y0033494D02*
X0096757Y0033494D01*
X0096757Y0035093D02*
X0163073Y0035093D01*
X0169660Y0035093D02*
X0215573Y0035093D01*
X0216169Y0035689D02*
X0214829Y0034349D01*
X0214104Y0032599D01*
X0214104Y0030704D01*
X0214829Y0028954D01*
X0216169Y0027614D01*
X0217919Y0026889D01*
X0219814Y0026889D01*
X0221564Y0027614D01*
X0222904Y0028954D01*
X0223629Y0030704D01*
X0223629Y0032599D01*
X0222904Y0034349D01*
X0221564Y0035689D01*
X0219814Y0036414D01*
X0217919Y0036414D01*
X0216169Y0035689D01*
X0214475Y0033494D02*
X0170758Y0033494D01*
X0171129Y0031896D02*
X0214104Y0031896D01*
X0214273Y0030297D02*
X0170960Y0030297D01*
X0170149Y0028699D02*
X0215084Y0028699D01*
X0217409Y0027100D02*
X0167823Y0027100D01*
X0164909Y0027100D02*
X0113856Y0027100D01*
X0113972Y0025689D02*
X0109207Y0025689D01*
X0109207Y0025688D02*
X0109207Y0020923D01*
X0109321Y0020923D01*
X0110106Y0021047D01*
X0110862Y0021293D01*
X0111570Y0021654D01*
X0112212Y0022121D01*
X0112774Y0022683D01*
X0113241Y0023325D01*
X0113602Y0024033D01*
X0113848Y0024789D01*
X0113972Y0025574D01*
X0113972Y0025689D01*
X0113960Y0025502D02*
X0403339Y0025502D01*
X0404937Y0027100D02*
X0377823Y0027100D01*
X0377314Y0026889D02*
X0379064Y0027614D01*
X0380404Y0028954D01*
X0381129Y0030704D01*
X0381129Y0032599D01*
X0380404Y0034349D01*
X0379064Y0035689D01*
X0377314Y0036414D01*
X0375419Y0036414D01*
X0373669Y0035689D01*
X0372329Y0034349D01*
X0371604Y0032599D01*
X0371604Y0030704D01*
X0372329Y0028954D01*
X0373669Y0027614D01*
X0375419Y0026889D01*
X0377314Y0026889D01*
X0374909Y0027100D02*
X0325323Y0027100D01*
X0324814Y0026889D02*
X0326564Y0027614D01*
X0327904Y0028954D01*
X0328629Y0030704D01*
X0328629Y0032599D01*
X0327904Y0034349D01*
X0326564Y0035689D01*
X0324814Y0036414D01*
X0322919Y0036414D01*
X0321169Y0035689D01*
X0319829Y0034349D01*
X0319104Y0032599D01*
X0319104Y0030704D01*
X0319829Y0028954D01*
X0321169Y0027614D01*
X0322919Y0026889D01*
X0324814Y0026889D01*
X0322409Y0027100D02*
X0272823Y0027100D01*
X0272314Y0026889D02*
X0274064Y0027614D01*
X0275404Y0028954D01*
X0276129Y0030704D01*
X0276129Y0032599D01*
X0275404Y0034349D01*
X0274064Y0035689D01*
X0272314Y0036414D01*
X0270419Y0036414D01*
X0268669Y0035689D01*
X0267329Y0034349D01*
X0266604Y0032599D01*
X0266604Y0030704D01*
X0267329Y0028954D01*
X0268669Y0027614D01*
X0270419Y0026889D01*
X0272314Y0026889D01*
X0269909Y0027100D02*
X0220323Y0027100D01*
X0222649Y0028699D02*
X0267584Y0028699D01*
X0266773Y0030297D02*
X0223460Y0030297D01*
X0223629Y0031896D02*
X0266604Y0031896D01*
X0266975Y0033494D02*
X0223258Y0033494D01*
X0222160Y0035093D02*
X0268073Y0035093D01*
X0274660Y0035093D02*
X0320573Y0035093D01*
X0319475Y0033494D02*
X0275758Y0033494D01*
X0276129Y0031896D02*
X0319104Y0031896D01*
X0319273Y0030297D02*
X0275960Y0030297D01*
X0275149Y0028699D02*
X0320084Y0028699D01*
X0327649Y0028699D02*
X0372584Y0028699D01*
X0371773Y0030297D02*
X0328460Y0030297D01*
X0328629Y0031896D02*
X0371604Y0031896D01*
X0371975Y0033494D02*
X0328258Y0033494D01*
X0327160Y0035093D02*
X0373073Y0035093D01*
X0379660Y0035093D02*
X0425573Y0035093D01*
X0424475Y0033494D02*
X0380758Y0033494D01*
X0381129Y0031896D02*
X0424104Y0031896D01*
X0424273Y0030297D02*
X0380960Y0030297D01*
X0380149Y0028699D02*
X0425084Y0028699D01*
X0432649Y0028699D02*
X0461536Y0028699D01*
X0463134Y0030297D02*
X0433460Y0030297D01*
X0433629Y0031896D02*
X0464733Y0031896D01*
X0466331Y0033494D02*
X0433258Y0033494D01*
X0432160Y0035093D02*
X0467930Y0035093D01*
X0469528Y0036691D02*
X0309215Y0036691D01*
X0310441Y0038290D02*
X0471127Y0038290D01*
X0472725Y0039888D02*
X0310733Y0039888D01*
X0310303Y0041487D02*
X0474324Y0041487D01*
X0475922Y0043085D02*
X0310283Y0043085D01*
X0312083Y0047221D02*
X0312083Y0088471D01*
X0309491Y0091041D02*
X0272484Y0091041D01*
X0274357Y0092639D02*
X0318744Y0092639D01*
X0318082Y0094238D02*
X0275019Y0094238D01*
X0275063Y0095836D02*
X0318038Y0095836D01*
X0318534Y0097435D02*
X0274567Y0097435D01*
X0273965Y0099033D02*
X0273293Y0099033D01*
X0267308Y0099033D02*
X0228277Y0099033D01*
X0222067Y0097435D02*
X0266034Y0097435D01*
X0265538Y0095836D02*
X0222563Y0095836D01*
X0222519Y0094238D02*
X0265582Y0094238D01*
X0266244Y0092639D02*
X0221857Y0092639D01*
X0222176Y0091041D02*
X0268117Y0091041D01*
X0280777Y0099033D02*
X0319808Y0099033D01*
X0325793Y0099033D02*
X0326465Y0099033D01*
X0327067Y0097435D02*
X0371034Y0097435D01*
X0370538Y0095836D02*
X0327563Y0095836D01*
X0327519Y0094238D02*
X0370582Y0094238D01*
X0371244Y0092639D02*
X0326857Y0092639D01*
X0324984Y0091041D02*
X0373117Y0091041D01*
X0372308Y0099033D02*
X0333277Y0099033D01*
X0320617Y0091041D02*
X0314676Y0091041D01*
X0308535Y0089442D02*
X0223132Y0089442D01*
X0223233Y0087844D02*
X0308433Y0087844D01*
X0308883Y0086245D02*
X0222783Y0086245D01*
X0222783Y0084647D02*
X0308883Y0084647D01*
X0308883Y0083048D02*
X0222783Y0083048D01*
X0222783Y0081450D02*
X0308883Y0081450D01*
X0308883Y0079851D02*
X0222783Y0079851D01*
X0222783Y0078253D02*
X0304203Y0078253D01*
X0303433Y0076654D02*
X0222783Y0076654D01*
X0222783Y0075056D02*
X0303512Y0075056D01*
X0303883Y0073457D02*
X0222783Y0073457D01*
X0222783Y0071859D02*
X0303883Y0071859D01*
X0303883Y0070260D02*
X0222783Y0070260D01*
X0222783Y0068662D02*
X0303883Y0068662D01*
X0303883Y0067063D02*
X0222783Y0067063D01*
X0222783Y0065465D02*
X0303883Y0065465D01*
X0303883Y0063866D02*
X0222783Y0063866D01*
X0222783Y0062268D02*
X0303883Y0062268D01*
X0303883Y0060669D02*
X0222783Y0060669D01*
X0222783Y0059071D02*
X0303883Y0059071D01*
X0303883Y0057472D02*
X0222783Y0057472D01*
X0222783Y0055874D02*
X0303883Y0055874D01*
X0303883Y0054275D02*
X0222783Y0054275D01*
X0222783Y0052677D02*
X0303883Y0052677D01*
X0303883Y0051078D02*
X0222783Y0051078D01*
X0222783Y0049480D02*
X0303883Y0049480D01*
X0303883Y0047881D02*
X0223163Y0047881D01*
X0223233Y0046283D02*
X0303883Y0046283D01*
X0303883Y0044684D02*
X0222444Y0044684D01*
X0219583Y0046985D02*
X0219583Y0088471D01*
X0215617Y0091041D02*
X0167484Y0091041D01*
X0169357Y0092639D02*
X0213744Y0092639D01*
X0213082Y0094238D02*
X0170019Y0094238D01*
X0170063Y0095836D02*
X0213038Y0095836D01*
X0213534Y0097435D02*
X0169567Y0097435D01*
X0168965Y0099033D02*
X0168293Y0099033D01*
X0162308Y0099033D02*
X0123277Y0099033D01*
X0117067Y0097435D02*
X0161034Y0097435D01*
X0160538Y0095836D02*
X0117563Y0095836D01*
X0117519Y0094238D02*
X0160582Y0094238D01*
X0161244Y0092639D02*
X0116857Y0092639D01*
X0114984Y0091041D02*
X0163117Y0091041D01*
X0175777Y0099033D02*
X0214808Y0099033D01*
X0220793Y0099033D02*
X0221465Y0099033D01*
X0237528Y0115018D02*
X0237528Y0115018D01*
X0290028Y0115018D02*
X0290028Y0115018D01*
X0342528Y0115018D02*
X0342528Y0115018D01*
X0378293Y0099033D02*
X0378965Y0099033D01*
X0379567Y0097435D02*
X0429492Y0097435D01*
X0397999Y0115018D02*
X0397999Y0115018D01*
X0396514Y0116504D02*
X0396514Y0116504D01*
X0395028Y0115018D02*
X0395028Y0115018D01*
X0473007Y0095836D02*
X0475166Y0095836D01*
X0473007Y0094238D02*
X0477633Y0094238D01*
X0477633Y0092639D02*
X0473007Y0092639D01*
X0473007Y0091041D02*
X0477633Y0091041D01*
X0477633Y0089442D02*
X0473007Y0089442D01*
X0472851Y0087844D02*
X0477633Y0087844D01*
X0477633Y0086245D02*
X0315283Y0086245D01*
X0315283Y0084647D02*
X0477633Y0084647D01*
X0477633Y0083048D02*
X0315283Y0083048D01*
X0315283Y0081450D02*
X0477633Y0081450D01*
X0477633Y0079851D02*
X0315283Y0079851D01*
X0315283Y0078253D02*
X0477633Y0078253D01*
X0477633Y0076654D02*
X0315283Y0076654D01*
X0315283Y0075056D02*
X0477633Y0075056D01*
X0477633Y0073457D02*
X0315283Y0073457D01*
X0315283Y0071859D02*
X0477633Y0071859D01*
X0477633Y0070260D02*
X0315283Y0070260D01*
X0315283Y0068662D02*
X0477633Y0068662D01*
X0477633Y0067063D02*
X0315283Y0067063D01*
X0315283Y0065465D02*
X0477633Y0065465D01*
X0477633Y0063866D02*
X0315283Y0063866D01*
X0315283Y0062268D02*
X0477633Y0062268D01*
X0477633Y0060669D02*
X0315283Y0060669D01*
X0315283Y0059071D02*
X0477633Y0059071D01*
X0477633Y0057472D02*
X0315283Y0057472D01*
X0315283Y0055874D02*
X0477633Y0055874D01*
X0477633Y0054275D02*
X0315283Y0054275D01*
X0315283Y0052677D02*
X0477633Y0052677D01*
X0477633Y0051078D02*
X0315283Y0051078D01*
X0315283Y0049480D02*
X0477633Y0049480D01*
X0477633Y0047881D02*
X0315733Y0047881D01*
X0315645Y0046283D02*
X0477633Y0046283D01*
X0477521Y0044684D02*
X0314708Y0044684D01*
X0307083Y0039721D02*
X0307083Y0075971D01*
X0303883Y0043085D02*
X0214033Y0043085D01*
X0214053Y0041487D02*
X0303864Y0041487D01*
X0303433Y0039888D02*
X0214483Y0039888D01*
X0214191Y0038290D02*
X0303725Y0038290D01*
X0304951Y0036691D02*
X0212965Y0036691D01*
X0210833Y0039721D02*
X0210833Y0073471D01*
X0214473Y0073457D02*
X0216383Y0073457D01*
X0216383Y0071859D02*
X0214102Y0071859D01*
X0214033Y0070260D02*
X0216383Y0070260D01*
X0216383Y0068662D02*
X0214033Y0068662D01*
X0214033Y0067063D02*
X0216383Y0067063D01*
X0216383Y0065465D02*
X0214033Y0065465D01*
X0214033Y0063866D02*
X0216383Y0063866D01*
X0216383Y0062268D02*
X0214033Y0062268D01*
X0214033Y0060669D02*
X0216383Y0060669D01*
X0216383Y0059071D02*
X0214033Y0059071D01*
X0214033Y0057472D02*
X0216383Y0057472D01*
X0216383Y0055874D02*
X0214033Y0055874D01*
X0214033Y0054275D02*
X0216383Y0054275D01*
X0216383Y0052677D02*
X0214033Y0052677D01*
X0214033Y0051078D02*
X0216383Y0051078D01*
X0216383Y0049480D02*
X0214033Y0049480D01*
X0214033Y0047881D02*
X0216004Y0047881D01*
X0215933Y0046283D02*
X0214033Y0046283D01*
X0214033Y0044684D02*
X0216722Y0044684D01*
X0207614Y0041487D02*
X0116547Y0041487D01*
X0116973Y0039888D02*
X0207183Y0039888D01*
X0207475Y0038290D02*
X0116677Y0038290D01*
X0115446Y0036691D02*
X0208701Y0036691D01*
X0208262Y0020706D02*
X0253687Y0020706D01*
X0252732Y0019108D02*
X0209217Y0019108D01*
X0209486Y0017509D02*
X0252462Y0017509D01*
X0252732Y0015911D02*
X0209217Y0015911D01*
X0208262Y0014312D02*
X0253686Y0014312D01*
X0260762Y0014312D02*
X0306186Y0014312D01*
X0305232Y0015911D02*
X0261717Y0015911D01*
X0261986Y0017509D02*
X0304962Y0017509D01*
X0305232Y0019108D02*
X0261717Y0019108D01*
X0260762Y0020706D02*
X0306187Y0020706D01*
X0313262Y0020706D02*
X0358687Y0020706D01*
X0357732Y0019108D02*
X0314217Y0019108D01*
X0314486Y0017509D02*
X0357462Y0017509D01*
X0357732Y0015911D02*
X0314217Y0015911D01*
X0313262Y0014312D02*
X0358686Y0014312D01*
X0365762Y0014312D02*
X0392149Y0014312D01*
X0393747Y0015911D02*
X0366717Y0015911D01*
X0366986Y0017509D02*
X0395346Y0017509D01*
X0396944Y0019108D02*
X0366717Y0019108D01*
X0365762Y0020706D02*
X0398543Y0020706D01*
X0400141Y0022305D02*
X0112396Y0022305D01*
X0113536Y0023903D02*
X0401740Y0023903D01*
X0405995Y0019108D02*
X0410232Y0019108D01*
X0409962Y0017509D02*
X0404397Y0017509D01*
X0402798Y0015911D02*
X0410232Y0015911D01*
X0411186Y0014312D02*
X0401200Y0014312D01*
X0399601Y0012714D02*
X0419283Y0012714D01*
X0419283Y0014312D02*
X0418262Y0014312D01*
X0419217Y0015911D02*
X0419283Y0015911D01*
X0419486Y0017509D02*
X0420162Y0017509D01*
X0419217Y0019108D02*
X0462732Y0019108D01*
X0463687Y0020706D02*
X0418262Y0020706D01*
X0411187Y0020706D02*
X0407594Y0020706D01*
X0398003Y0011115D02*
X0419283Y0011115D01*
X0419283Y0009517D02*
X0396404Y0009517D01*
X0394325Y0007918D02*
X0419283Y0007918D01*
X0464883Y0007918D02*
X0483817Y0007918D01*
X0483817Y0009517D02*
X0464883Y0009517D01*
X0464883Y0011115D02*
X0483817Y0011115D01*
X0483817Y0012714D02*
X0464883Y0012714D01*
X0470762Y0014312D02*
X0483817Y0014312D01*
X0483817Y0015911D02*
X0471717Y0015911D01*
X0471986Y0017509D02*
X0483817Y0017509D01*
X0483817Y0019108D02*
X0471717Y0019108D01*
X0470762Y0020706D02*
X0483817Y0020706D01*
X0483817Y0022305D02*
X0464192Y0022305D01*
X0464796Y0022909D02*
X0464796Y0022909D01*
X0465791Y0023903D02*
X0483817Y0023903D01*
X0483817Y0025502D02*
X0467389Y0025502D01*
X0468988Y0027100D02*
X0479909Y0027100D01*
X0477584Y0028699D02*
X0470586Y0028699D01*
X0472185Y0030297D02*
X0476773Y0030297D01*
X0476604Y0031896D02*
X0473783Y0031896D01*
X0475382Y0033494D02*
X0476975Y0033494D01*
X0476981Y0035093D02*
X0478073Y0035093D01*
X0478579Y0036691D02*
X0483817Y0036691D01*
X0483817Y0038290D02*
X0480178Y0038290D01*
X0481776Y0039888D02*
X0483817Y0039888D01*
X0483817Y0041487D02*
X0483375Y0041487D01*
X0483817Y0027100D02*
X0482823Y0027100D01*
X0216383Y0075056D02*
X0214122Y0075056D01*
X0212701Y0076654D02*
X0216383Y0076654D01*
X0185028Y0115018D02*
X0185028Y0115018D01*
X0132528Y0115018D02*
X0132528Y0115018D01*
X0116465Y0099033D02*
X0115793Y0099033D01*
X0109808Y0099033D02*
X0070777Y0099033D01*
X0070571Y0097435D02*
X0108534Y0097435D01*
X0108038Y0095836D02*
X0070571Y0095836D01*
X0070571Y0094238D02*
X0108082Y0094238D01*
X0108744Y0092639D02*
X0070571Y0092639D01*
X0070571Y0091041D02*
X0110617Y0091041D01*
X0080028Y0115018D02*
X0080028Y0115018D01*
X0077351Y0116617D02*
X0059483Y0116617D01*
X0059483Y0118216D02*
X0077714Y0118216D01*
X0063702Y0105427D02*
X0059483Y0105427D01*
X0059483Y0103829D02*
X0062824Y0103829D01*
X0062609Y0102230D02*
X0059483Y0102230D01*
X0059483Y0100632D02*
X0062933Y0100632D01*
X0063293Y0099033D02*
X0063965Y0099033D01*
X0064171Y0091041D02*
X0062484Y0091041D01*
X0064171Y0089442D02*
X0059483Y0089442D01*
X0059483Y0087844D02*
X0064171Y0087844D01*
X0064171Y0086245D02*
X0059483Y0086245D01*
X0059483Y0084647D02*
X0064171Y0084647D01*
X0064171Y0083048D02*
X0059483Y0083048D01*
X0059483Y0081450D02*
X0064171Y0081450D01*
X0064171Y0079851D02*
X0059483Y0079851D01*
X0059483Y0078253D02*
X0064171Y0078253D01*
X0064171Y0076654D02*
X0059483Y0076654D01*
X0059483Y0075056D02*
X0064171Y0075056D01*
X0064171Y0073457D02*
X0059483Y0073457D01*
X0059483Y0071859D02*
X0064171Y0071859D01*
X0064171Y0070260D02*
X0059483Y0070260D01*
X0059483Y0068662D02*
X0064171Y0068662D01*
X0064171Y0067063D02*
X0059483Y0067063D01*
X0059483Y0065465D02*
X0064171Y0065465D01*
X0064171Y0063866D02*
X0059483Y0063866D01*
X0059483Y0062268D02*
X0064171Y0062268D01*
X0064171Y0060669D02*
X0059483Y0060669D01*
X0059483Y0059071D02*
X0064171Y0059071D01*
X0064171Y0057472D02*
X0059483Y0057472D01*
X0059483Y0055874D02*
X0064171Y0055874D01*
X0064171Y0054275D02*
X0059483Y0054275D01*
X0059483Y0052677D02*
X0064171Y0052677D01*
X0064171Y0051078D02*
X0059483Y0051078D01*
X0059483Y0049480D02*
X0064171Y0049480D01*
X0064171Y0047881D02*
X0059483Y0047881D01*
X0059483Y0046283D02*
X0064747Y0046283D01*
X0066345Y0044684D02*
X0059483Y0044684D01*
X0059483Y0043085D02*
X0067560Y0043085D01*
X0069104Y0041487D02*
X0059483Y0041487D01*
X0072563Y0041487D02*
X0110100Y0041487D01*
X0110124Y0043085D02*
X0074107Y0043085D01*
X0059987Y0030297D02*
X0059483Y0030297D01*
X0097305Y0014312D02*
X0148686Y0014312D01*
X0155762Y0014312D02*
X0201186Y0014312D01*
X0200232Y0015911D02*
X0156717Y0015911D01*
X0156986Y0017509D02*
X0199962Y0017509D01*
X0200232Y0019108D02*
X0156717Y0019108D01*
X0155762Y0020706D02*
X0201187Y0020706D01*
X0162584Y0028699D02*
X0113182Y0028699D01*
X0111553Y0030297D02*
X0161773Y0030297D01*
X0109207Y0030297D02*
X0108641Y0030297D01*
X0108641Y0028699D02*
X0109207Y0028699D01*
X0109207Y0027100D02*
X0108641Y0027100D01*
X0108641Y0025502D02*
X0109207Y0025502D01*
X0109207Y0023903D02*
X0108641Y0023903D01*
X0108641Y0022305D02*
X0109207Y0022305D01*
D15*
X0095833Y0010971D03*
X0113323Y0039731D03*
X0118333Y0045971D03*
X0070833Y0044721D03*
X0113333Y0079721D03*
X0118333Y0084721D03*
X0210823Y0073481D03*
X0219583Y0088471D03*
X0219583Y0046985D03*
X0210833Y0039721D03*
X0307083Y0039721D03*
X0312083Y0047221D03*
X0307083Y0075971D03*
X0312083Y0088471D03*
D16*
X0210833Y0073471D02*
X0210823Y0073481D01*
M02*
