G75*
%MOIN*%
%OFA0B0*%
%FSLAX25Y25*%
%IPPOS*%
%LPD*%
%AMOC8*
5,1,8,0,0,1.08239X$1,22.5*
%
%ADD10C,0.05124*%
%ADD11C,0.06896*%
%ADD12C,0.01064*%
%ADD13R,0.06699X0.07487*%
%ADD14C,0.02169*%
%ADD15R,0.02762X0.09061*%
%ADD16R,0.05912X0.05912*%
%ADD17R,0.40000X0.10000*%
%ADD18C,0.05000*%
%ADD19C,0.04337*%
D10*
X0152224Y0017509D03*
X0166366Y0031651D03*
X0204724Y0017509D03*
X0218866Y0031651D03*
X0257224Y0017509D03*
X0271366Y0031651D03*
X0309724Y0017509D03*
X0323866Y0031651D03*
X0362224Y0017509D03*
X0376366Y0031651D03*
X0414724Y0017509D03*
X0428866Y0031651D03*
X0467224Y0017509D03*
X0481366Y0031651D03*
X0375300Y0095291D03*
X0382371Y0102362D03*
X0389442Y0109433D03*
X0396514Y0116504D03*
X0344014Y0116504D03*
X0336942Y0109433D03*
X0329871Y0102362D03*
X0322800Y0095291D03*
X0284442Y0109433D03*
X0277371Y0102362D03*
X0270300Y0095291D03*
X0231942Y0109433D03*
X0224871Y0102362D03*
X0217800Y0095291D03*
X0179442Y0109433D03*
X0172371Y0102362D03*
X0165300Y0095291D03*
X0126942Y0109433D03*
X0119871Y0102362D03*
X0112800Y0095291D03*
X0074442Y0109433D03*
X0067371Y0102362D03*
X0060300Y0095291D03*
X0081514Y0116504D03*
X0134014Y0116504D03*
X0186514Y0116504D03*
X0239014Y0116504D03*
X0291514Y0116504D03*
D11*
X0433993Y0099721D03*
X0445804Y0099721D03*
X0479268Y0099721D03*
X0108924Y0025971D03*
X0097113Y0025971D03*
X0063648Y0025971D03*
D12*
X0073715Y0024600D02*
X0073715Y0029842D01*
X0077971Y0029842D01*
X0077971Y0024600D01*
X0073715Y0024600D01*
X0073715Y0025663D02*
X0077971Y0025663D01*
X0077971Y0026726D02*
X0073715Y0026726D01*
X0073715Y0027789D02*
X0077971Y0027789D01*
X0077971Y0028852D02*
X0073715Y0028852D01*
X0073715Y0032100D02*
X0073715Y0037342D01*
X0077971Y0037342D01*
X0077971Y0032100D01*
X0073715Y0032100D01*
X0073715Y0033163D02*
X0077971Y0033163D01*
X0077971Y0034226D02*
X0073715Y0034226D01*
X0073715Y0035289D02*
X0077971Y0035289D01*
X0077971Y0036352D02*
X0073715Y0036352D01*
X0081195Y0037342D02*
X0081195Y0032100D01*
X0081195Y0037342D02*
X0085451Y0037342D01*
X0085451Y0032100D01*
X0081195Y0032100D01*
X0081195Y0033163D02*
X0085451Y0033163D01*
X0085451Y0034226D02*
X0081195Y0034226D01*
X0081195Y0035289D02*
X0085451Y0035289D01*
X0085451Y0036352D02*
X0081195Y0036352D01*
X0081195Y0029842D02*
X0081195Y0024600D01*
X0081195Y0029842D02*
X0085451Y0029842D01*
X0085451Y0024600D01*
X0081195Y0024600D01*
X0081195Y0025663D02*
X0085451Y0025663D01*
X0085451Y0026726D02*
X0081195Y0026726D01*
X0081195Y0027789D02*
X0085451Y0027789D01*
X0085451Y0028852D02*
X0081195Y0028852D01*
X0106721Y0044600D02*
X0106721Y0049842D01*
X0106721Y0044600D02*
X0102465Y0044600D01*
X0102465Y0049842D01*
X0106721Y0049842D01*
X0106721Y0045663D02*
X0102465Y0045663D01*
X0102465Y0046726D02*
X0106721Y0046726D01*
X0106721Y0047789D02*
X0102465Y0047789D01*
X0102465Y0048852D02*
X0106721Y0048852D01*
X0114201Y0049842D02*
X0114201Y0044600D01*
X0109945Y0044600D01*
X0109945Y0049842D01*
X0114201Y0049842D01*
X0114201Y0045663D02*
X0109945Y0045663D01*
X0109945Y0046726D02*
X0114201Y0046726D01*
X0114201Y0047789D02*
X0109945Y0047789D01*
X0109945Y0048852D02*
X0114201Y0048852D01*
X0114201Y0064600D02*
X0114201Y0069842D01*
X0114201Y0064600D02*
X0109945Y0064600D01*
X0109945Y0069842D01*
X0114201Y0069842D01*
X0114201Y0065663D02*
X0109945Y0065663D01*
X0109945Y0066726D02*
X0114201Y0066726D01*
X0114201Y0067789D02*
X0109945Y0067789D01*
X0109945Y0068852D02*
X0114201Y0068852D01*
X0106721Y0069842D02*
X0106721Y0064600D01*
X0102465Y0064600D01*
X0102465Y0069842D01*
X0106721Y0069842D01*
X0106721Y0065663D02*
X0102465Y0065663D01*
X0102465Y0066726D02*
X0106721Y0066726D01*
X0106721Y0067789D02*
X0102465Y0067789D01*
X0102465Y0068852D02*
X0106721Y0068852D01*
X0100451Y0077100D02*
X0100451Y0082342D01*
X0100451Y0077100D02*
X0096195Y0077100D01*
X0096195Y0082342D01*
X0100451Y0082342D01*
X0100451Y0078163D02*
X0096195Y0078163D01*
X0096195Y0079226D02*
X0100451Y0079226D01*
X0100451Y0080289D02*
X0096195Y0080289D01*
X0096195Y0081352D02*
X0100451Y0081352D01*
X0100451Y0084600D02*
X0100451Y0089842D01*
X0100451Y0084600D02*
X0096195Y0084600D01*
X0096195Y0089842D01*
X0100451Y0089842D01*
X0100451Y0085663D02*
X0096195Y0085663D01*
X0096195Y0086726D02*
X0100451Y0086726D01*
X0100451Y0087789D02*
X0096195Y0087789D01*
X0096195Y0088852D02*
X0100451Y0088852D01*
X0100451Y0092100D02*
X0100451Y0097342D01*
X0100451Y0092100D02*
X0096195Y0092100D01*
X0096195Y0097342D01*
X0100451Y0097342D01*
X0100451Y0093163D02*
X0096195Y0093163D01*
X0096195Y0094226D02*
X0100451Y0094226D01*
X0100451Y0095289D02*
X0096195Y0095289D01*
X0096195Y0096352D02*
X0100451Y0096352D01*
X0092971Y0097342D02*
X0092971Y0092100D01*
X0088715Y0092100D01*
X0088715Y0097342D01*
X0092971Y0097342D01*
X0092971Y0093163D02*
X0088715Y0093163D01*
X0088715Y0094226D02*
X0092971Y0094226D01*
X0092971Y0095289D02*
X0088715Y0095289D01*
X0088715Y0096352D02*
X0092971Y0096352D01*
X0092971Y0099600D02*
X0092971Y0104842D01*
X0092971Y0099600D02*
X0088715Y0099600D01*
X0088715Y0104842D01*
X0092971Y0104842D01*
X0092971Y0100663D02*
X0088715Y0100663D01*
X0088715Y0101726D02*
X0092971Y0101726D01*
X0092971Y0102789D02*
X0088715Y0102789D01*
X0088715Y0103852D02*
X0092971Y0103852D01*
X0100451Y0104842D02*
X0100451Y0099600D01*
X0096195Y0099600D01*
X0096195Y0104842D01*
X0100451Y0104842D01*
X0100451Y0100663D02*
X0096195Y0100663D01*
X0096195Y0101726D02*
X0100451Y0101726D01*
X0100451Y0102789D02*
X0096195Y0102789D01*
X0096195Y0103852D02*
X0100451Y0103852D01*
X0100451Y0107100D02*
X0100451Y0112342D01*
X0100451Y0107100D02*
X0096195Y0107100D01*
X0096195Y0112342D01*
X0100451Y0112342D01*
X0100451Y0108163D02*
X0096195Y0108163D01*
X0096195Y0109226D02*
X0100451Y0109226D01*
X0100451Y0110289D02*
X0096195Y0110289D01*
X0096195Y0111352D02*
X0100451Y0111352D01*
X0107971Y0112342D02*
X0107971Y0107100D01*
X0103715Y0107100D01*
X0103715Y0112342D01*
X0107971Y0112342D01*
X0107971Y0108163D02*
X0103715Y0108163D01*
X0103715Y0109226D02*
X0107971Y0109226D01*
X0107971Y0110289D02*
X0103715Y0110289D01*
X0103715Y0111352D02*
X0107971Y0111352D01*
X0115451Y0112342D02*
X0115451Y0107100D01*
X0111195Y0107100D01*
X0111195Y0112342D01*
X0115451Y0112342D01*
X0115451Y0108163D02*
X0111195Y0108163D01*
X0111195Y0109226D02*
X0115451Y0109226D01*
X0115451Y0110289D02*
X0111195Y0110289D01*
X0111195Y0111352D02*
X0115451Y0111352D01*
X0092971Y0112342D02*
X0092971Y0107100D01*
X0088715Y0107100D01*
X0088715Y0112342D01*
X0092971Y0112342D01*
X0092971Y0108163D02*
X0088715Y0108163D01*
X0088715Y0109226D02*
X0092971Y0109226D01*
X0092971Y0110289D02*
X0088715Y0110289D01*
X0088715Y0111352D02*
X0092971Y0111352D01*
X0092971Y0089842D02*
X0092971Y0084600D01*
X0088715Y0084600D01*
X0088715Y0089842D01*
X0092971Y0089842D01*
X0092971Y0085663D02*
X0088715Y0085663D01*
X0088715Y0086726D02*
X0092971Y0086726D01*
X0092971Y0087789D02*
X0088715Y0087789D01*
X0088715Y0088852D02*
X0092971Y0088852D01*
X0085451Y0089842D02*
X0085451Y0084600D01*
X0081195Y0084600D01*
X0081195Y0089842D01*
X0085451Y0089842D01*
X0085451Y0085663D02*
X0081195Y0085663D01*
X0081195Y0086726D02*
X0085451Y0086726D01*
X0085451Y0087789D02*
X0081195Y0087789D01*
X0081195Y0088852D02*
X0085451Y0088852D01*
X0077971Y0089842D02*
X0077971Y0084600D01*
X0073715Y0084600D01*
X0073715Y0089842D01*
X0077971Y0089842D01*
X0077971Y0085663D02*
X0073715Y0085663D01*
X0073715Y0086726D02*
X0077971Y0086726D01*
X0077971Y0087789D02*
X0073715Y0087789D01*
X0073715Y0088852D02*
X0077971Y0088852D01*
X0077971Y0082342D02*
X0077971Y0077100D01*
X0073715Y0077100D01*
X0073715Y0082342D01*
X0077971Y0082342D01*
X0077971Y0078163D02*
X0073715Y0078163D01*
X0073715Y0079226D02*
X0077971Y0079226D01*
X0077971Y0080289D02*
X0073715Y0080289D01*
X0073715Y0081352D02*
X0077971Y0081352D01*
X0085451Y0082342D02*
X0085451Y0077100D01*
X0081195Y0077100D01*
X0081195Y0082342D01*
X0085451Y0082342D01*
X0085451Y0078163D02*
X0081195Y0078163D01*
X0081195Y0079226D02*
X0085451Y0079226D01*
X0085451Y0080289D02*
X0081195Y0080289D01*
X0081195Y0081352D02*
X0085451Y0081352D01*
X0092971Y0082342D02*
X0092971Y0077100D01*
X0088715Y0077100D01*
X0088715Y0082342D01*
X0092971Y0082342D01*
X0092971Y0078163D02*
X0088715Y0078163D01*
X0088715Y0079226D02*
X0092971Y0079226D01*
X0092971Y0080289D02*
X0088715Y0080289D01*
X0088715Y0081352D02*
X0092971Y0081352D01*
X0074704Y0063089D02*
X0069462Y0063089D01*
X0074704Y0063089D02*
X0074704Y0058833D01*
X0069462Y0058833D01*
X0069462Y0063089D01*
X0069462Y0059896D02*
X0074704Y0059896D01*
X0074704Y0060959D02*
X0069462Y0060959D01*
X0069462Y0062022D02*
X0074704Y0062022D01*
X0074704Y0063085D02*
X0069462Y0063085D01*
X0069462Y0055609D02*
X0074704Y0055609D01*
X0074704Y0051353D01*
X0069462Y0051353D01*
X0069462Y0055609D01*
X0069462Y0052416D02*
X0074704Y0052416D01*
X0074704Y0053479D02*
X0069462Y0053479D01*
X0069462Y0054542D02*
X0074704Y0054542D01*
X0074704Y0055605D02*
X0069462Y0055605D01*
X0147971Y0077100D02*
X0147971Y0082342D01*
X0147971Y0077100D02*
X0143715Y0077100D01*
X0143715Y0082342D01*
X0147971Y0082342D01*
X0147971Y0078163D02*
X0143715Y0078163D01*
X0143715Y0079226D02*
X0147971Y0079226D01*
X0147971Y0080289D02*
X0143715Y0080289D01*
X0143715Y0081352D02*
X0147971Y0081352D01*
X0155451Y0082342D02*
X0155451Y0077100D01*
X0151195Y0077100D01*
X0151195Y0082342D01*
X0155451Y0082342D01*
X0155451Y0078163D02*
X0151195Y0078163D01*
X0151195Y0079226D02*
X0155451Y0079226D01*
X0155451Y0080289D02*
X0151195Y0080289D01*
X0151195Y0081352D02*
X0155451Y0081352D01*
X0155451Y0084600D02*
X0155451Y0089842D01*
X0155451Y0084600D02*
X0151195Y0084600D01*
X0151195Y0089842D01*
X0155451Y0089842D01*
X0155451Y0085663D02*
X0151195Y0085663D01*
X0151195Y0086726D02*
X0155451Y0086726D01*
X0155451Y0087789D02*
X0151195Y0087789D01*
X0151195Y0088852D02*
X0155451Y0088852D01*
X0155451Y0092100D02*
X0155451Y0097342D01*
X0155451Y0092100D02*
X0151195Y0092100D01*
X0151195Y0097342D01*
X0155451Y0097342D01*
X0155451Y0093163D02*
X0151195Y0093163D01*
X0151195Y0094226D02*
X0155451Y0094226D01*
X0155451Y0095289D02*
X0151195Y0095289D01*
X0151195Y0096352D02*
X0155451Y0096352D01*
X0147971Y0097342D02*
X0147971Y0092100D01*
X0143715Y0092100D01*
X0143715Y0097342D01*
X0147971Y0097342D01*
X0147971Y0093163D02*
X0143715Y0093163D01*
X0143715Y0094226D02*
X0147971Y0094226D01*
X0147971Y0095289D02*
X0143715Y0095289D01*
X0143715Y0096352D02*
X0147971Y0096352D01*
X0147971Y0099600D02*
X0147971Y0104842D01*
X0147971Y0099600D02*
X0143715Y0099600D01*
X0143715Y0104842D01*
X0147971Y0104842D01*
X0147971Y0100663D02*
X0143715Y0100663D01*
X0143715Y0101726D02*
X0147971Y0101726D01*
X0147971Y0102789D02*
X0143715Y0102789D01*
X0143715Y0103852D02*
X0147971Y0103852D01*
X0155451Y0104842D02*
X0155451Y0099600D01*
X0151195Y0099600D01*
X0151195Y0104842D01*
X0155451Y0104842D01*
X0155451Y0100663D02*
X0151195Y0100663D01*
X0151195Y0101726D02*
X0155451Y0101726D01*
X0155451Y0102789D02*
X0151195Y0102789D01*
X0151195Y0103852D02*
X0155451Y0103852D01*
X0155451Y0107100D02*
X0155451Y0112342D01*
X0155451Y0107100D02*
X0151195Y0107100D01*
X0151195Y0112342D01*
X0155451Y0112342D01*
X0155451Y0108163D02*
X0151195Y0108163D01*
X0151195Y0109226D02*
X0155451Y0109226D01*
X0155451Y0110289D02*
X0151195Y0110289D01*
X0151195Y0111352D02*
X0155451Y0111352D01*
X0166721Y0110850D02*
X0166721Y0116092D01*
X0166721Y0110850D02*
X0162465Y0110850D01*
X0162465Y0116092D01*
X0166721Y0116092D01*
X0166721Y0111913D02*
X0162465Y0111913D01*
X0162465Y0112976D02*
X0166721Y0112976D01*
X0166721Y0114039D02*
X0162465Y0114039D01*
X0162465Y0115102D02*
X0166721Y0115102D01*
X0174201Y0116092D02*
X0174201Y0110850D01*
X0169945Y0110850D01*
X0169945Y0116092D01*
X0174201Y0116092D01*
X0174201Y0111913D02*
X0169945Y0111913D01*
X0169945Y0112976D02*
X0174201Y0112976D01*
X0174201Y0114039D02*
X0169945Y0114039D01*
X0169945Y0115102D02*
X0174201Y0115102D01*
X0147971Y0112342D02*
X0147971Y0107100D01*
X0143715Y0107100D01*
X0143715Y0112342D01*
X0147971Y0112342D01*
X0147971Y0108163D02*
X0143715Y0108163D01*
X0143715Y0109226D02*
X0147971Y0109226D01*
X0147971Y0110289D02*
X0143715Y0110289D01*
X0143715Y0111352D02*
X0147971Y0111352D01*
X0147971Y0089842D02*
X0147971Y0084600D01*
X0143715Y0084600D01*
X0143715Y0089842D01*
X0147971Y0089842D01*
X0147971Y0085663D02*
X0143715Y0085663D01*
X0143715Y0086726D02*
X0147971Y0086726D01*
X0147971Y0087789D02*
X0143715Y0087789D01*
X0143715Y0088852D02*
X0147971Y0088852D01*
X0171962Y0072583D02*
X0177204Y0072583D01*
X0171962Y0072583D02*
X0171962Y0076839D01*
X0177204Y0076839D01*
X0177204Y0072583D01*
X0177204Y0073646D02*
X0171962Y0073646D01*
X0171962Y0074709D02*
X0177204Y0074709D01*
X0177204Y0075772D02*
X0171962Y0075772D01*
X0171962Y0076835D02*
X0177204Y0076835D01*
X0177204Y0065103D02*
X0171962Y0065103D01*
X0171962Y0069359D01*
X0177204Y0069359D01*
X0177204Y0065103D01*
X0177204Y0066166D02*
X0171962Y0066166D01*
X0171962Y0067229D02*
X0177204Y0067229D01*
X0177204Y0068292D02*
X0171962Y0068292D01*
X0171962Y0069355D02*
X0177204Y0069355D01*
X0205471Y0077100D02*
X0205471Y0082342D01*
X0205471Y0077100D02*
X0201215Y0077100D01*
X0201215Y0082342D01*
X0205471Y0082342D01*
X0205471Y0078163D02*
X0201215Y0078163D01*
X0201215Y0079226D02*
X0205471Y0079226D01*
X0205471Y0080289D02*
X0201215Y0080289D01*
X0201215Y0081352D02*
X0205471Y0081352D01*
X0212951Y0082342D02*
X0212951Y0077100D01*
X0208695Y0077100D01*
X0208695Y0082342D01*
X0212951Y0082342D01*
X0212951Y0078163D02*
X0208695Y0078163D01*
X0208695Y0079226D02*
X0212951Y0079226D01*
X0212951Y0080289D02*
X0208695Y0080289D01*
X0208695Y0081352D02*
X0212951Y0081352D01*
X0212951Y0084600D02*
X0212951Y0089842D01*
X0212951Y0084600D02*
X0208695Y0084600D01*
X0208695Y0089842D01*
X0212951Y0089842D01*
X0212951Y0085663D02*
X0208695Y0085663D01*
X0208695Y0086726D02*
X0212951Y0086726D01*
X0212951Y0087789D02*
X0208695Y0087789D01*
X0208695Y0088852D02*
X0212951Y0088852D01*
X0212951Y0092100D02*
X0212951Y0097342D01*
X0212951Y0092100D02*
X0208695Y0092100D01*
X0208695Y0097342D01*
X0212951Y0097342D01*
X0212951Y0093163D02*
X0208695Y0093163D01*
X0208695Y0094226D02*
X0212951Y0094226D01*
X0212951Y0095289D02*
X0208695Y0095289D01*
X0208695Y0096352D02*
X0212951Y0096352D01*
X0205471Y0097342D02*
X0205471Y0092100D01*
X0201215Y0092100D01*
X0201215Y0097342D01*
X0205471Y0097342D01*
X0205471Y0093163D02*
X0201215Y0093163D01*
X0201215Y0094226D02*
X0205471Y0094226D01*
X0205471Y0095289D02*
X0201215Y0095289D01*
X0201215Y0096352D02*
X0205471Y0096352D01*
X0205471Y0099600D02*
X0205471Y0104842D01*
X0205471Y0099600D02*
X0201215Y0099600D01*
X0201215Y0104842D01*
X0205471Y0104842D01*
X0205471Y0100663D02*
X0201215Y0100663D01*
X0201215Y0101726D02*
X0205471Y0101726D01*
X0205471Y0102789D02*
X0201215Y0102789D01*
X0201215Y0103852D02*
X0205471Y0103852D01*
X0212951Y0104842D02*
X0212951Y0099600D01*
X0208695Y0099600D01*
X0208695Y0104842D01*
X0212951Y0104842D01*
X0212951Y0100663D02*
X0208695Y0100663D01*
X0208695Y0101726D02*
X0212951Y0101726D01*
X0212951Y0102789D02*
X0208695Y0102789D01*
X0208695Y0103852D02*
X0212951Y0103852D01*
X0212951Y0107100D02*
X0212951Y0112342D01*
X0212951Y0107100D02*
X0208695Y0107100D01*
X0208695Y0112342D01*
X0212951Y0112342D01*
X0212951Y0108163D02*
X0208695Y0108163D01*
X0208695Y0109226D02*
X0212951Y0109226D01*
X0212951Y0110289D02*
X0208695Y0110289D01*
X0208695Y0111352D02*
X0212951Y0111352D01*
X0220471Y0112342D02*
X0220471Y0107100D01*
X0216215Y0107100D01*
X0216215Y0112342D01*
X0220471Y0112342D01*
X0220471Y0108163D02*
X0216215Y0108163D01*
X0216215Y0109226D02*
X0220471Y0109226D01*
X0220471Y0110289D02*
X0216215Y0110289D01*
X0216215Y0111352D02*
X0220471Y0111352D01*
X0227951Y0112342D02*
X0227951Y0107100D01*
X0223695Y0107100D01*
X0223695Y0112342D01*
X0227951Y0112342D01*
X0227951Y0108163D02*
X0223695Y0108163D01*
X0223695Y0109226D02*
X0227951Y0109226D01*
X0227951Y0110289D02*
X0223695Y0110289D01*
X0223695Y0111352D02*
X0227951Y0111352D01*
X0250471Y0112342D02*
X0250471Y0107100D01*
X0246215Y0107100D01*
X0246215Y0112342D01*
X0250471Y0112342D01*
X0250471Y0108163D02*
X0246215Y0108163D01*
X0246215Y0109226D02*
X0250471Y0109226D01*
X0250471Y0110289D02*
X0246215Y0110289D01*
X0246215Y0111352D02*
X0250471Y0111352D01*
X0257951Y0112342D02*
X0257951Y0107100D01*
X0253695Y0107100D01*
X0253695Y0112342D01*
X0257951Y0112342D01*
X0257951Y0108163D02*
X0253695Y0108163D01*
X0253695Y0109226D02*
X0257951Y0109226D01*
X0257951Y0110289D02*
X0253695Y0110289D01*
X0253695Y0111352D02*
X0257951Y0111352D01*
X0265471Y0112342D02*
X0265471Y0107100D01*
X0261215Y0107100D01*
X0261215Y0112342D01*
X0265471Y0112342D01*
X0265471Y0108163D02*
X0261215Y0108163D01*
X0261215Y0109226D02*
X0265471Y0109226D01*
X0265471Y0110289D02*
X0261215Y0110289D01*
X0261215Y0111352D02*
X0265471Y0111352D01*
X0272951Y0112342D02*
X0272951Y0107100D01*
X0268695Y0107100D01*
X0268695Y0112342D01*
X0272951Y0112342D01*
X0272951Y0108163D02*
X0268695Y0108163D01*
X0268695Y0109226D02*
X0272951Y0109226D01*
X0272951Y0110289D02*
X0268695Y0110289D01*
X0268695Y0111352D02*
X0272951Y0111352D01*
X0257951Y0104842D02*
X0257951Y0099600D01*
X0253695Y0099600D01*
X0253695Y0104842D01*
X0257951Y0104842D01*
X0257951Y0100663D02*
X0253695Y0100663D01*
X0253695Y0101726D02*
X0257951Y0101726D01*
X0257951Y0102789D02*
X0253695Y0102789D01*
X0253695Y0103852D02*
X0257951Y0103852D01*
X0250471Y0104842D02*
X0250471Y0099600D01*
X0246215Y0099600D01*
X0246215Y0104842D01*
X0250471Y0104842D01*
X0250471Y0100663D02*
X0246215Y0100663D01*
X0246215Y0101726D02*
X0250471Y0101726D01*
X0250471Y0102789D02*
X0246215Y0102789D01*
X0246215Y0103852D02*
X0250471Y0103852D01*
X0250471Y0097342D02*
X0250471Y0092100D01*
X0246215Y0092100D01*
X0246215Y0097342D01*
X0250471Y0097342D01*
X0250471Y0093163D02*
X0246215Y0093163D01*
X0246215Y0094226D02*
X0250471Y0094226D01*
X0250471Y0095289D02*
X0246215Y0095289D01*
X0246215Y0096352D02*
X0250471Y0096352D01*
X0257951Y0097342D02*
X0257951Y0092100D01*
X0253695Y0092100D01*
X0253695Y0097342D01*
X0257951Y0097342D01*
X0257951Y0093163D02*
X0253695Y0093163D01*
X0253695Y0094226D02*
X0257951Y0094226D01*
X0257951Y0095289D02*
X0253695Y0095289D01*
X0253695Y0096352D02*
X0257951Y0096352D01*
X0257951Y0089842D02*
X0257951Y0084600D01*
X0253695Y0084600D01*
X0253695Y0089842D01*
X0257951Y0089842D01*
X0257951Y0085663D02*
X0253695Y0085663D01*
X0253695Y0086726D02*
X0257951Y0086726D01*
X0257951Y0087789D02*
X0253695Y0087789D01*
X0253695Y0088852D02*
X0257951Y0088852D01*
X0250471Y0089842D02*
X0250471Y0084600D01*
X0246215Y0084600D01*
X0246215Y0089842D01*
X0250471Y0089842D01*
X0250471Y0085663D02*
X0246215Y0085663D01*
X0246215Y0086726D02*
X0250471Y0086726D01*
X0250471Y0087789D02*
X0246215Y0087789D01*
X0246215Y0088852D02*
X0250471Y0088852D01*
X0250471Y0082342D02*
X0250471Y0077100D01*
X0246215Y0077100D01*
X0246215Y0082342D01*
X0250471Y0082342D01*
X0250471Y0078163D02*
X0246215Y0078163D01*
X0246215Y0079226D02*
X0250471Y0079226D01*
X0250471Y0080289D02*
X0246215Y0080289D01*
X0246215Y0081352D02*
X0250471Y0081352D01*
X0257951Y0082342D02*
X0257951Y0077100D01*
X0253695Y0077100D01*
X0253695Y0082342D01*
X0257951Y0082342D01*
X0257951Y0078163D02*
X0253695Y0078163D01*
X0253695Y0079226D02*
X0257951Y0079226D01*
X0257951Y0080289D02*
X0253695Y0080289D01*
X0253695Y0081352D02*
X0257951Y0081352D01*
X0271962Y0072583D02*
X0277204Y0072583D01*
X0271962Y0072583D02*
X0271962Y0076839D01*
X0277204Y0076839D01*
X0277204Y0072583D01*
X0277204Y0073646D02*
X0271962Y0073646D01*
X0271962Y0074709D02*
X0277204Y0074709D01*
X0277204Y0075772D02*
X0271962Y0075772D01*
X0271962Y0076835D02*
X0277204Y0076835D01*
X0295471Y0077100D02*
X0295471Y0082342D01*
X0295471Y0077100D02*
X0291215Y0077100D01*
X0291215Y0082342D01*
X0295471Y0082342D01*
X0295471Y0078163D02*
X0291215Y0078163D01*
X0291215Y0079226D02*
X0295471Y0079226D01*
X0295471Y0080289D02*
X0291215Y0080289D01*
X0291215Y0081352D02*
X0295471Y0081352D01*
X0302951Y0082342D02*
X0302951Y0077100D01*
X0298695Y0077100D01*
X0298695Y0082342D01*
X0302951Y0082342D01*
X0302951Y0078163D02*
X0298695Y0078163D01*
X0298695Y0079226D02*
X0302951Y0079226D01*
X0302951Y0080289D02*
X0298695Y0080289D01*
X0298695Y0081352D02*
X0302951Y0081352D01*
X0302951Y0084600D02*
X0302951Y0089842D01*
X0302951Y0084600D02*
X0298695Y0084600D01*
X0298695Y0089842D01*
X0302951Y0089842D01*
X0302951Y0085663D02*
X0298695Y0085663D01*
X0298695Y0086726D02*
X0302951Y0086726D01*
X0302951Y0087789D02*
X0298695Y0087789D01*
X0298695Y0088852D02*
X0302951Y0088852D01*
X0302951Y0092100D02*
X0302951Y0097342D01*
X0302951Y0092100D02*
X0298695Y0092100D01*
X0298695Y0097342D01*
X0302951Y0097342D01*
X0302951Y0093163D02*
X0298695Y0093163D01*
X0298695Y0094226D02*
X0302951Y0094226D01*
X0302951Y0095289D02*
X0298695Y0095289D01*
X0298695Y0096352D02*
X0302951Y0096352D01*
X0295471Y0097342D02*
X0295471Y0092100D01*
X0291215Y0092100D01*
X0291215Y0097342D01*
X0295471Y0097342D01*
X0295471Y0093163D02*
X0291215Y0093163D01*
X0291215Y0094226D02*
X0295471Y0094226D01*
X0295471Y0095289D02*
X0291215Y0095289D01*
X0291215Y0096352D02*
X0295471Y0096352D01*
X0295471Y0099600D02*
X0295471Y0104842D01*
X0295471Y0099600D02*
X0291215Y0099600D01*
X0291215Y0104842D01*
X0295471Y0104842D01*
X0295471Y0100663D02*
X0291215Y0100663D01*
X0291215Y0101726D02*
X0295471Y0101726D01*
X0295471Y0102789D02*
X0291215Y0102789D01*
X0291215Y0103852D02*
X0295471Y0103852D01*
X0302951Y0104842D02*
X0302951Y0099600D01*
X0298695Y0099600D01*
X0298695Y0104842D01*
X0302951Y0104842D01*
X0302951Y0100663D02*
X0298695Y0100663D01*
X0298695Y0101726D02*
X0302951Y0101726D01*
X0302951Y0102789D02*
X0298695Y0102789D01*
X0298695Y0103852D02*
X0302951Y0103852D01*
X0302971Y0107100D02*
X0302971Y0112342D01*
X0302971Y0107100D02*
X0298715Y0107100D01*
X0298715Y0112342D01*
X0302971Y0112342D01*
X0302971Y0108163D02*
X0298715Y0108163D01*
X0298715Y0109226D02*
X0302971Y0109226D01*
X0302971Y0110289D02*
X0298715Y0110289D01*
X0298715Y0111352D02*
X0302971Y0111352D01*
X0310451Y0112342D02*
X0310451Y0107100D01*
X0306195Y0107100D01*
X0306195Y0112342D01*
X0310451Y0112342D01*
X0310451Y0108163D02*
X0306195Y0108163D01*
X0306195Y0109226D02*
X0310451Y0109226D01*
X0310451Y0110289D02*
X0306195Y0110289D01*
X0306195Y0111352D02*
X0310451Y0111352D01*
X0317971Y0112342D02*
X0317971Y0107100D01*
X0313715Y0107100D01*
X0313715Y0112342D01*
X0317971Y0112342D01*
X0317971Y0108163D02*
X0313715Y0108163D01*
X0313715Y0109226D02*
X0317971Y0109226D01*
X0317971Y0110289D02*
X0313715Y0110289D01*
X0313715Y0111352D02*
X0317971Y0111352D01*
X0325451Y0112342D02*
X0325451Y0107100D01*
X0321195Y0107100D01*
X0321195Y0112342D01*
X0325451Y0112342D01*
X0325451Y0108163D02*
X0321195Y0108163D01*
X0321195Y0109226D02*
X0325451Y0109226D01*
X0325451Y0110289D02*
X0321195Y0110289D01*
X0321195Y0111352D02*
X0325451Y0111352D01*
X0347971Y0104842D02*
X0347971Y0099600D01*
X0343715Y0099600D01*
X0343715Y0104842D01*
X0347971Y0104842D01*
X0347971Y0100663D02*
X0343715Y0100663D01*
X0343715Y0101726D02*
X0347971Y0101726D01*
X0347971Y0102789D02*
X0343715Y0102789D01*
X0343715Y0103852D02*
X0347971Y0103852D01*
X0355451Y0104842D02*
X0355451Y0099600D01*
X0351195Y0099600D01*
X0351195Y0104842D01*
X0355451Y0104842D01*
X0355451Y0100663D02*
X0351195Y0100663D01*
X0351195Y0101726D02*
X0355451Y0101726D01*
X0355451Y0102789D02*
X0351195Y0102789D01*
X0351195Y0103852D02*
X0355451Y0103852D01*
X0355471Y0107100D02*
X0355471Y0112342D01*
X0355471Y0107100D02*
X0351215Y0107100D01*
X0351215Y0112342D01*
X0355471Y0112342D01*
X0355471Y0108163D02*
X0351215Y0108163D01*
X0351215Y0109226D02*
X0355471Y0109226D01*
X0355471Y0110289D02*
X0351215Y0110289D01*
X0351215Y0111352D02*
X0355471Y0111352D01*
X0362951Y0112342D02*
X0362951Y0107100D01*
X0358695Y0107100D01*
X0358695Y0112342D01*
X0362951Y0112342D01*
X0362951Y0108163D02*
X0358695Y0108163D01*
X0358695Y0109226D02*
X0362951Y0109226D01*
X0362951Y0110289D02*
X0358695Y0110289D01*
X0358695Y0111352D02*
X0362951Y0111352D01*
X0366215Y0112342D02*
X0366215Y0107100D01*
X0366215Y0112342D02*
X0370471Y0112342D01*
X0370471Y0107100D01*
X0366215Y0107100D01*
X0366215Y0108163D02*
X0370471Y0108163D01*
X0370471Y0109226D02*
X0366215Y0109226D01*
X0366215Y0110289D02*
X0370471Y0110289D01*
X0370471Y0111352D02*
X0366215Y0111352D01*
X0373695Y0112342D02*
X0373695Y0107100D01*
X0373695Y0112342D02*
X0377951Y0112342D01*
X0377951Y0107100D01*
X0373695Y0107100D01*
X0373695Y0108163D02*
X0377951Y0108163D01*
X0377951Y0109226D02*
X0373695Y0109226D01*
X0373695Y0110289D02*
X0377951Y0110289D01*
X0377951Y0111352D02*
X0373695Y0111352D01*
X0400471Y0104842D02*
X0400471Y0099600D01*
X0396215Y0099600D01*
X0396215Y0104842D01*
X0400471Y0104842D01*
X0400471Y0100663D02*
X0396215Y0100663D01*
X0396215Y0101726D02*
X0400471Y0101726D01*
X0400471Y0102789D02*
X0396215Y0102789D01*
X0396215Y0103852D02*
X0400471Y0103852D01*
X0407951Y0104842D02*
X0407951Y0099600D01*
X0403695Y0099600D01*
X0403695Y0104842D01*
X0407951Y0104842D01*
X0407951Y0100663D02*
X0403695Y0100663D01*
X0403695Y0101726D02*
X0407951Y0101726D01*
X0407951Y0102789D02*
X0403695Y0102789D01*
X0403695Y0103852D02*
X0407951Y0103852D01*
X0407971Y0107100D02*
X0407971Y0112342D01*
X0407971Y0107100D02*
X0403715Y0107100D01*
X0403715Y0112342D01*
X0407971Y0112342D01*
X0407971Y0108163D02*
X0403715Y0108163D01*
X0403715Y0109226D02*
X0407971Y0109226D01*
X0407971Y0110289D02*
X0403715Y0110289D01*
X0403715Y0111352D02*
X0407971Y0111352D01*
X0415451Y0112342D02*
X0415451Y0107100D01*
X0411195Y0107100D01*
X0411195Y0112342D01*
X0415451Y0112342D01*
X0415451Y0108163D02*
X0411195Y0108163D01*
X0411195Y0109226D02*
X0415451Y0109226D01*
X0415451Y0110289D02*
X0411195Y0110289D01*
X0411195Y0111352D02*
X0415451Y0111352D01*
X0418715Y0112342D02*
X0418715Y0107100D01*
X0418715Y0112342D02*
X0422971Y0112342D01*
X0422971Y0107100D01*
X0418715Y0107100D01*
X0418715Y0108163D02*
X0422971Y0108163D01*
X0422971Y0109226D02*
X0418715Y0109226D01*
X0418715Y0110289D02*
X0422971Y0110289D01*
X0422971Y0111352D02*
X0418715Y0111352D01*
X0426195Y0112342D02*
X0426195Y0107100D01*
X0426195Y0112342D02*
X0430451Y0112342D01*
X0430451Y0107100D01*
X0426195Y0107100D01*
X0426195Y0108163D02*
X0430451Y0108163D01*
X0430451Y0109226D02*
X0426195Y0109226D01*
X0426195Y0110289D02*
X0430451Y0110289D01*
X0430451Y0111352D02*
X0426195Y0111352D01*
X0400451Y0097342D02*
X0400451Y0092100D01*
X0396195Y0092100D01*
X0396195Y0097342D01*
X0400451Y0097342D01*
X0400451Y0093163D02*
X0396195Y0093163D01*
X0396195Y0094226D02*
X0400451Y0094226D01*
X0400451Y0095289D02*
X0396195Y0095289D01*
X0396195Y0096352D02*
X0400451Y0096352D01*
X0392971Y0097342D02*
X0392971Y0092100D01*
X0388715Y0092100D01*
X0388715Y0097342D01*
X0392971Y0097342D01*
X0392971Y0093163D02*
X0388715Y0093163D01*
X0388715Y0094226D02*
X0392971Y0094226D01*
X0392971Y0095289D02*
X0388715Y0095289D01*
X0388715Y0096352D02*
X0392971Y0096352D01*
X0392971Y0089842D02*
X0392971Y0084600D01*
X0388715Y0084600D01*
X0388715Y0089842D01*
X0392971Y0089842D01*
X0392971Y0085663D02*
X0388715Y0085663D01*
X0388715Y0086726D02*
X0392971Y0086726D01*
X0392971Y0087789D02*
X0388715Y0087789D01*
X0388715Y0088852D02*
X0392971Y0088852D01*
X0400451Y0089842D02*
X0400451Y0084600D01*
X0396195Y0084600D01*
X0396195Y0089842D01*
X0400451Y0089842D01*
X0400451Y0085663D02*
X0396195Y0085663D01*
X0396195Y0086726D02*
X0400451Y0086726D01*
X0400451Y0087789D02*
X0396195Y0087789D01*
X0396195Y0088852D02*
X0400451Y0088852D01*
X0400451Y0082342D02*
X0400451Y0077100D01*
X0396195Y0077100D01*
X0396195Y0082342D01*
X0400451Y0082342D01*
X0400451Y0078163D02*
X0396195Y0078163D01*
X0396195Y0079226D02*
X0400451Y0079226D01*
X0400451Y0080289D02*
X0396195Y0080289D01*
X0396195Y0081352D02*
X0400451Y0081352D01*
X0392971Y0082342D02*
X0392971Y0077100D01*
X0388715Y0077100D01*
X0388715Y0082342D01*
X0392971Y0082342D01*
X0392971Y0078163D02*
X0388715Y0078163D01*
X0388715Y0079226D02*
X0392971Y0079226D01*
X0392971Y0080289D02*
X0388715Y0080289D01*
X0388715Y0081352D02*
X0392971Y0081352D01*
X0355451Y0082342D02*
X0355451Y0077100D01*
X0351195Y0077100D01*
X0351195Y0082342D01*
X0355451Y0082342D01*
X0355451Y0078163D02*
X0351195Y0078163D01*
X0351195Y0079226D02*
X0355451Y0079226D01*
X0355451Y0080289D02*
X0351195Y0080289D01*
X0351195Y0081352D02*
X0355451Y0081352D01*
X0355451Y0084600D02*
X0355451Y0089842D01*
X0355451Y0084600D02*
X0351195Y0084600D01*
X0351195Y0089842D01*
X0355451Y0089842D01*
X0355451Y0085663D02*
X0351195Y0085663D01*
X0351195Y0086726D02*
X0355451Y0086726D01*
X0355451Y0087789D02*
X0351195Y0087789D01*
X0351195Y0088852D02*
X0355451Y0088852D01*
X0355451Y0092100D02*
X0355451Y0097342D01*
X0355451Y0092100D02*
X0351195Y0092100D01*
X0351195Y0097342D01*
X0355451Y0097342D01*
X0355451Y0093163D02*
X0351195Y0093163D01*
X0351195Y0094226D02*
X0355451Y0094226D01*
X0355451Y0095289D02*
X0351195Y0095289D01*
X0351195Y0096352D02*
X0355451Y0096352D01*
X0347971Y0097342D02*
X0347971Y0092100D01*
X0343715Y0092100D01*
X0343715Y0097342D01*
X0347971Y0097342D01*
X0347971Y0093163D02*
X0343715Y0093163D01*
X0343715Y0094226D02*
X0347971Y0094226D01*
X0347971Y0095289D02*
X0343715Y0095289D01*
X0343715Y0096352D02*
X0347971Y0096352D01*
X0347971Y0089842D02*
X0347971Y0084600D01*
X0343715Y0084600D01*
X0343715Y0089842D01*
X0347971Y0089842D01*
X0347971Y0085663D02*
X0343715Y0085663D01*
X0343715Y0086726D02*
X0347971Y0086726D01*
X0347971Y0087789D02*
X0343715Y0087789D01*
X0343715Y0088852D02*
X0347971Y0088852D01*
X0347971Y0082342D02*
X0347971Y0077100D01*
X0343715Y0077100D01*
X0343715Y0082342D01*
X0347971Y0082342D01*
X0347971Y0078163D02*
X0343715Y0078163D01*
X0343715Y0079226D02*
X0347971Y0079226D01*
X0347971Y0080289D02*
X0343715Y0080289D01*
X0343715Y0081352D02*
X0347971Y0081352D01*
X0349221Y0069842D02*
X0349221Y0064600D01*
X0344965Y0064600D01*
X0344965Y0069842D01*
X0349221Y0069842D01*
X0349221Y0065663D02*
X0344965Y0065663D01*
X0344965Y0066726D02*
X0349221Y0066726D01*
X0349221Y0067789D02*
X0344965Y0067789D01*
X0344965Y0068852D02*
X0349221Y0068852D01*
X0356701Y0069842D02*
X0356701Y0064600D01*
X0352445Y0064600D01*
X0352445Y0069842D01*
X0356701Y0069842D01*
X0356701Y0065663D02*
X0352445Y0065663D01*
X0352445Y0066726D02*
X0356701Y0066726D01*
X0356701Y0067789D02*
X0352445Y0067789D01*
X0352445Y0068852D02*
X0356701Y0068852D01*
X0356701Y0048592D02*
X0356701Y0043350D01*
X0352445Y0043350D01*
X0352445Y0048592D01*
X0356701Y0048592D01*
X0356701Y0044413D02*
X0352445Y0044413D01*
X0352445Y0045476D02*
X0356701Y0045476D01*
X0356701Y0046539D02*
X0352445Y0046539D01*
X0352445Y0047602D02*
X0356701Y0047602D01*
X0349221Y0048592D02*
X0349221Y0043350D01*
X0344965Y0043350D01*
X0344965Y0048592D01*
X0349221Y0048592D01*
X0349221Y0044413D02*
X0344965Y0044413D01*
X0344965Y0045476D02*
X0349221Y0045476D01*
X0349221Y0046539D02*
X0344965Y0046539D01*
X0344965Y0047602D02*
X0349221Y0047602D01*
X0344704Y0028833D02*
X0339462Y0028833D01*
X0339462Y0033089D01*
X0344704Y0033089D01*
X0344704Y0028833D01*
X0344704Y0029896D02*
X0339462Y0029896D01*
X0339462Y0030959D02*
X0344704Y0030959D01*
X0344704Y0032022D02*
X0339462Y0032022D01*
X0339462Y0033085D02*
X0344704Y0033085D01*
X0344704Y0021353D02*
X0339462Y0021353D01*
X0339462Y0025609D01*
X0344704Y0025609D01*
X0344704Y0021353D01*
X0344704Y0022416D02*
X0339462Y0022416D01*
X0339462Y0023479D02*
X0344704Y0023479D01*
X0344704Y0024542D02*
X0339462Y0024542D01*
X0339462Y0025605D02*
X0344704Y0025605D01*
X0384462Y0021353D02*
X0389704Y0021353D01*
X0384462Y0021353D02*
X0384462Y0025609D01*
X0389704Y0025609D01*
X0389704Y0021353D01*
X0389704Y0022416D02*
X0384462Y0022416D01*
X0384462Y0023479D02*
X0389704Y0023479D01*
X0389704Y0024542D02*
X0384462Y0024542D01*
X0384462Y0025605D02*
X0389704Y0025605D01*
X0389704Y0028833D02*
X0384462Y0028833D01*
X0384462Y0033089D01*
X0389704Y0033089D01*
X0389704Y0028833D01*
X0389704Y0029896D02*
X0384462Y0029896D01*
X0384462Y0030959D02*
X0389704Y0030959D01*
X0389704Y0032022D02*
X0384462Y0032022D01*
X0384462Y0033085D02*
X0389704Y0033085D01*
X0400712Y0028833D02*
X0405954Y0028833D01*
X0400712Y0028833D02*
X0400712Y0033089D01*
X0405954Y0033089D01*
X0405954Y0028833D01*
X0405954Y0029896D02*
X0400712Y0029896D01*
X0400712Y0030959D02*
X0405954Y0030959D01*
X0405954Y0032022D02*
X0400712Y0032022D01*
X0400712Y0033085D02*
X0405954Y0033085D01*
X0405954Y0021353D02*
X0400712Y0021353D01*
X0400712Y0025609D01*
X0405954Y0025609D01*
X0405954Y0021353D01*
X0405954Y0022416D02*
X0400712Y0022416D01*
X0400712Y0023479D02*
X0405954Y0023479D01*
X0405954Y0024542D02*
X0400712Y0024542D01*
X0400712Y0025605D02*
X0405954Y0025605D01*
X0463715Y0023350D02*
X0463715Y0028592D01*
X0467971Y0028592D01*
X0467971Y0023350D01*
X0463715Y0023350D01*
X0463715Y0024413D02*
X0467971Y0024413D01*
X0467971Y0025476D02*
X0463715Y0025476D01*
X0463715Y0026539D02*
X0467971Y0026539D01*
X0467971Y0027602D02*
X0463715Y0027602D01*
X0471195Y0028592D02*
X0471195Y0023350D01*
X0471195Y0028592D02*
X0475451Y0028592D01*
X0475451Y0023350D01*
X0471195Y0023350D01*
X0471195Y0024413D02*
X0475451Y0024413D01*
X0475451Y0025476D02*
X0471195Y0025476D01*
X0471195Y0026539D02*
X0475451Y0026539D01*
X0475451Y0027602D02*
X0471195Y0027602D01*
X0295471Y0084600D02*
X0295471Y0089842D01*
X0295471Y0084600D02*
X0291215Y0084600D01*
X0291215Y0089842D01*
X0295471Y0089842D01*
X0295471Y0085663D02*
X0291215Y0085663D01*
X0291215Y0086726D02*
X0295471Y0086726D01*
X0295471Y0087789D02*
X0291215Y0087789D01*
X0291215Y0088852D02*
X0295471Y0088852D01*
X0277204Y0065103D02*
X0271962Y0065103D01*
X0271962Y0069359D01*
X0277204Y0069359D01*
X0277204Y0065103D01*
X0277204Y0066166D02*
X0271962Y0066166D01*
X0271962Y0067229D02*
X0277204Y0067229D01*
X0277204Y0068292D02*
X0271962Y0068292D01*
X0271962Y0069355D02*
X0277204Y0069355D01*
X0277204Y0046333D02*
X0271962Y0046333D01*
X0271962Y0050589D01*
X0277204Y0050589D01*
X0277204Y0046333D01*
X0277204Y0047396D02*
X0271962Y0047396D01*
X0271962Y0048459D02*
X0277204Y0048459D01*
X0277204Y0049522D02*
X0271962Y0049522D01*
X0271962Y0050585D02*
X0277204Y0050585D01*
X0277204Y0038853D02*
X0271962Y0038853D01*
X0271962Y0043109D01*
X0277204Y0043109D01*
X0277204Y0038853D01*
X0277204Y0039916D02*
X0271962Y0039916D01*
X0271962Y0040979D02*
X0277204Y0040979D01*
X0277204Y0042042D02*
X0271962Y0042042D01*
X0271962Y0043105D02*
X0277204Y0043105D01*
X0286962Y0028833D02*
X0292204Y0028833D01*
X0286962Y0028833D02*
X0286962Y0033089D01*
X0292204Y0033089D01*
X0292204Y0028833D01*
X0292204Y0029896D02*
X0286962Y0029896D01*
X0286962Y0030959D02*
X0292204Y0030959D01*
X0292204Y0032022D02*
X0286962Y0032022D01*
X0286962Y0033085D02*
X0292204Y0033085D01*
X0292204Y0021353D02*
X0286962Y0021353D01*
X0286962Y0025609D01*
X0292204Y0025609D01*
X0292204Y0021353D01*
X0292204Y0022416D02*
X0286962Y0022416D01*
X0286962Y0023479D02*
X0292204Y0023479D01*
X0292204Y0024542D02*
X0286962Y0024542D01*
X0286962Y0025605D02*
X0292204Y0025605D01*
X0247204Y0021353D02*
X0241962Y0021353D01*
X0241962Y0025609D01*
X0247204Y0025609D01*
X0247204Y0021353D01*
X0247204Y0022416D02*
X0241962Y0022416D01*
X0241962Y0023479D02*
X0247204Y0023479D01*
X0247204Y0024542D02*
X0241962Y0024542D01*
X0241962Y0025605D02*
X0247204Y0025605D01*
X0247204Y0028833D02*
X0241962Y0028833D01*
X0241962Y0033089D01*
X0247204Y0033089D01*
X0247204Y0028833D01*
X0247204Y0029896D02*
X0241962Y0029896D01*
X0241962Y0030959D02*
X0247204Y0030959D01*
X0247204Y0032022D02*
X0241962Y0032022D01*
X0241962Y0033085D02*
X0247204Y0033085D01*
X0194704Y0028833D02*
X0189462Y0028833D01*
X0189462Y0033089D01*
X0194704Y0033089D01*
X0194704Y0028833D01*
X0194704Y0029896D02*
X0189462Y0029896D01*
X0189462Y0030959D02*
X0194704Y0030959D01*
X0194704Y0032022D02*
X0189462Y0032022D01*
X0189462Y0033085D02*
X0194704Y0033085D01*
X0194704Y0021353D02*
X0189462Y0021353D01*
X0189462Y0025609D01*
X0194704Y0025609D01*
X0194704Y0021353D01*
X0194704Y0022416D02*
X0189462Y0022416D01*
X0189462Y0023479D02*
X0194704Y0023479D01*
X0194704Y0024542D02*
X0189462Y0024542D01*
X0189462Y0025605D02*
X0194704Y0025605D01*
X0177204Y0037603D02*
X0171962Y0037603D01*
X0171962Y0041859D01*
X0177204Y0041859D01*
X0177204Y0037603D01*
X0177204Y0038666D02*
X0171962Y0038666D01*
X0171962Y0039729D02*
X0177204Y0039729D01*
X0177204Y0040792D02*
X0171962Y0040792D01*
X0171962Y0041855D02*
X0177204Y0041855D01*
X0177204Y0045083D02*
X0171962Y0045083D01*
X0171962Y0049339D01*
X0177204Y0049339D01*
X0177204Y0045083D01*
X0177204Y0046146D02*
X0171962Y0046146D01*
X0171962Y0047209D02*
X0177204Y0047209D01*
X0177204Y0048272D02*
X0171962Y0048272D01*
X0171962Y0049335D02*
X0177204Y0049335D01*
X0205471Y0084600D02*
X0205471Y0089842D01*
X0205471Y0084600D02*
X0201215Y0084600D01*
X0201215Y0089842D01*
X0205471Y0089842D01*
X0205471Y0085663D02*
X0201215Y0085663D01*
X0201215Y0086726D02*
X0205471Y0086726D01*
X0205471Y0087789D02*
X0201215Y0087789D01*
X0201215Y0088852D02*
X0205471Y0088852D01*
X0205471Y0107100D02*
X0205471Y0112342D01*
X0205471Y0107100D02*
X0201215Y0107100D01*
X0201215Y0112342D01*
X0205471Y0112342D01*
X0205471Y0108163D02*
X0201215Y0108163D01*
X0201215Y0109226D02*
X0205471Y0109226D01*
X0205471Y0110289D02*
X0201215Y0110289D01*
X0201215Y0111352D02*
X0205471Y0111352D01*
D13*
X0397822Y0070971D03*
X0408845Y0070971D03*
X0408845Y0043721D03*
X0397822Y0043721D03*
D14*
X0435667Y0038936D02*
X0435667Y0053506D01*
X0435667Y0038936D02*
X0433499Y0038936D01*
X0433499Y0053506D01*
X0435667Y0053506D01*
X0435667Y0041104D02*
X0433499Y0041104D01*
X0433499Y0043272D02*
X0435667Y0043272D01*
X0435667Y0045440D02*
X0433499Y0045440D01*
X0433499Y0047608D02*
X0435667Y0047608D01*
X0435667Y0049776D02*
X0433499Y0049776D01*
X0433499Y0051944D02*
X0435667Y0051944D01*
X0445667Y0053506D02*
X0445667Y0038936D01*
X0443499Y0038936D01*
X0443499Y0053506D01*
X0445667Y0053506D01*
X0445667Y0041104D02*
X0443499Y0041104D01*
X0443499Y0043272D02*
X0445667Y0043272D01*
X0445667Y0045440D02*
X0443499Y0045440D01*
X0443499Y0047608D02*
X0445667Y0047608D01*
X0445667Y0049776D02*
X0443499Y0049776D01*
X0443499Y0051944D02*
X0445667Y0051944D01*
X0455667Y0053506D02*
X0455667Y0038936D01*
X0453499Y0038936D01*
X0453499Y0053506D01*
X0455667Y0053506D01*
X0455667Y0041104D02*
X0453499Y0041104D01*
X0453499Y0043272D02*
X0455667Y0043272D01*
X0455667Y0045440D02*
X0453499Y0045440D01*
X0453499Y0047608D02*
X0455667Y0047608D01*
X0455667Y0049776D02*
X0453499Y0049776D01*
X0453499Y0051944D02*
X0455667Y0051944D01*
X0465667Y0053506D02*
X0465667Y0038936D01*
X0463499Y0038936D01*
X0463499Y0053506D01*
X0465667Y0053506D01*
X0465667Y0041104D02*
X0463499Y0041104D01*
X0463499Y0043272D02*
X0465667Y0043272D01*
X0465667Y0045440D02*
X0463499Y0045440D01*
X0463499Y0047608D02*
X0465667Y0047608D01*
X0465667Y0049776D02*
X0463499Y0049776D01*
X0463499Y0051944D02*
X0465667Y0051944D01*
X0475667Y0053506D02*
X0475667Y0038936D01*
X0473499Y0038936D01*
X0473499Y0053506D01*
X0475667Y0053506D01*
X0475667Y0041104D02*
X0473499Y0041104D01*
X0473499Y0043272D02*
X0475667Y0043272D01*
X0475667Y0045440D02*
X0473499Y0045440D01*
X0473499Y0047608D02*
X0475667Y0047608D01*
X0475667Y0049776D02*
X0473499Y0049776D01*
X0473499Y0051944D02*
X0475667Y0051944D01*
X0475667Y0060936D02*
X0475667Y0075506D01*
X0475667Y0060936D02*
X0473499Y0060936D01*
X0473499Y0075506D01*
X0475667Y0075506D01*
X0475667Y0063104D02*
X0473499Y0063104D01*
X0473499Y0065272D02*
X0475667Y0065272D01*
X0475667Y0067440D02*
X0473499Y0067440D01*
X0473499Y0069608D02*
X0475667Y0069608D01*
X0475667Y0071776D02*
X0473499Y0071776D01*
X0473499Y0073944D02*
X0475667Y0073944D01*
X0465667Y0075506D02*
X0465667Y0060936D01*
X0463499Y0060936D01*
X0463499Y0075506D01*
X0465667Y0075506D01*
X0465667Y0063104D02*
X0463499Y0063104D01*
X0463499Y0065272D02*
X0465667Y0065272D01*
X0465667Y0067440D02*
X0463499Y0067440D01*
X0463499Y0069608D02*
X0465667Y0069608D01*
X0465667Y0071776D02*
X0463499Y0071776D01*
X0463499Y0073944D02*
X0465667Y0073944D01*
X0455667Y0075506D02*
X0455667Y0060936D01*
X0453499Y0060936D01*
X0453499Y0075506D01*
X0455667Y0075506D01*
X0455667Y0063104D02*
X0453499Y0063104D01*
X0453499Y0065272D02*
X0455667Y0065272D01*
X0455667Y0067440D02*
X0453499Y0067440D01*
X0453499Y0069608D02*
X0455667Y0069608D01*
X0455667Y0071776D02*
X0453499Y0071776D01*
X0453499Y0073944D02*
X0455667Y0073944D01*
X0445667Y0075506D02*
X0445667Y0060936D01*
X0443499Y0060936D01*
X0443499Y0075506D01*
X0445667Y0075506D01*
X0445667Y0063104D02*
X0443499Y0063104D01*
X0443499Y0065272D02*
X0445667Y0065272D01*
X0445667Y0067440D02*
X0443499Y0067440D01*
X0443499Y0069608D02*
X0445667Y0069608D01*
X0445667Y0071776D02*
X0443499Y0071776D01*
X0443499Y0073944D02*
X0445667Y0073944D01*
X0435667Y0075506D02*
X0435667Y0060936D01*
X0433499Y0060936D01*
X0433499Y0075506D01*
X0435667Y0075506D01*
X0435667Y0063104D02*
X0433499Y0063104D01*
X0433499Y0065272D02*
X0435667Y0065272D01*
X0435667Y0067440D02*
X0433499Y0067440D01*
X0433499Y0069608D02*
X0435667Y0069608D01*
X0435667Y0071776D02*
X0433499Y0071776D01*
X0433499Y0073944D02*
X0435667Y0073944D01*
D15*
X0377083Y0067457D03*
X0372083Y0067457D03*
X0367083Y0067457D03*
X0362083Y0067457D03*
X0334583Y0067457D03*
X0329583Y0067457D03*
X0324583Y0067457D03*
X0319583Y0067457D03*
X0319583Y0046985D03*
X0324583Y0046985D03*
X0329583Y0046985D03*
X0334583Y0046985D03*
X0362083Y0046985D03*
X0367083Y0046985D03*
X0372083Y0046985D03*
X0377083Y0046985D03*
X0244583Y0046985D03*
X0239583Y0046985D03*
X0234583Y0046985D03*
X0229583Y0046985D03*
X0229583Y0067457D03*
X0234583Y0067457D03*
X0239583Y0067457D03*
X0244583Y0067457D03*
X0139583Y0067457D03*
X0134583Y0067457D03*
X0129583Y0067457D03*
X0124583Y0067457D03*
X0094583Y0067457D03*
X0089583Y0067457D03*
X0084583Y0067457D03*
X0079583Y0067457D03*
X0079583Y0046985D03*
X0084583Y0046985D03*
X0089583Y0046985D03*
X0094583Y0046985D03*
X0124583Y0046985D03*
X0129583Y0046985D03*
X0134583Y0046985D03*
X0139583Y0046985D03*
D16*
X0395853Y0053471D03*
X0395853Y0060971D03*
X0410814Y0060971D03*
X0410814Y0053471D03*
D17*
X0442083Y0010471D03*
D18*
X0478540Y0115971D02*
X0478542Y0116089D01*
X0478548Y0116208D01*
X0478558Y0116326D01*
X0478572Y0116443D01*
X0478589Y0116560D01*
X0478611Y0116677D01*
X0478637Y0116792D01*
X0478666Y0116907D01*
X0478699Y0117021D01*
X0478736Y0117133D01*
X0478777Y0117244D01*
X0478821Y0117354D01*
X0478869Y0117462D01*
X0478921Y0117569D01*
X0478976Y0117674D01*
X0479035Y0117777D01*
X0479097Y0117877D01*
X0479162Y0117976D01*
X0479231Y0118073D01*
X0479302Y0118167D01*
X0479377Y0118258D01*
X0479455Y0118348D01*
X0479536Y0118434D01*
X0479620Y0118518D01*
X0479706Y0118599D01*
X0479796Y0118677D01*
X0479887Y0118752D01*
X0479981Y0118823D01*
X0480078Y0118892D01*
X0480177Y0118957D01*
X0480277Y0119019D01*
X0480380Y0119078D01*
X0480485Y0119133D01*
X0480592Y0119185D01*
X0480700Y0119233D01*
X0480810Y0119277D01*
X0480921Y0119318D01*
X0481033Y0119355D01*
X0481147Y0119388D01*
X0481262Y0119417D01*
X0481377Y0119443D01*
X0481494Y0119465D01*
X0481611Y0119482D01*
X0481728Y0119496D01*
X0481846Y0119506D01*
X0481965Y0119512D01*
X0482083Y0119514D01*
X0482201Y0119512D01*
X0482320Y0119506D01*
X0482438Y0119496D01*
X0482555Y0119482D01*
X0482672Y0119465D01*
X0482789Y0119443D01*
X0482904Y0119417D01*
X0483019Y0119388D01*
X0483133Y0119355D01*
X0483245Y0119318D01*
X0483356Y0119277D01*
X0483466Y0119233D01*
X0483574Y0119185D01*
X0483681Y0119133D01*
X0483786Y0119078D01*
X0483889Y0119019D01*
X0483989Y0118957D01*
X0484088Y0118892D01*
X0484185Y0118823D01*
X0484279Y0118752D01*
X0484370Y0118677D01*
X0484460Y0118599D01*
X0484546Y0118518D01*
X0484630Y0118434D01*
X0484711Y0118348D01*
X0484789Y0118258D01*
X0484864Y0118167D01*
X0484935Y0118073D01*
X0485004Y0117976D01*
X0485069Y0117877D01*
X0485131Y0117777D01*
X0485190Y0117674D01*
X0485245Y0117569D01*
X0485297Y0117462D01*
X0485345Y0117354D01*
X0485389Y0117244D01*
X0485430Y0117133D01*
X0485467Y0117021D01*
X0485500Y0116907D01*
X0485529Y0116792D01*
X0485555Y0116677D01*
X0485577Y0116560D01*
X0485594Y0116443D01*
X0485608Y0116326D01*
X0485618Y0116208D01*
X0485624Y0116089D01*
X0485626Y0115971D01*
X0485624Y0115853D01*
X0485618Y0115734D01*
X0485608Y0115616D01*
X0485594Y0115499D01*
X0485577Y0115382D01*
X0485555Y0115265D01*
X0485529Y0115150D01*
X0485500Y0115035D01*
X0485467Y0114921D01*
X0485430Y0114809D01*
X0485389Y0114698D01*
X0485345Y0114588D01*
X0485297Y0114480D01*
X0485245Y0114373D01*
X0485190Y0114268D01*
X0485131Y0114165D01*
X0485069Y0114065D01*
X0485004Y0113966D01*
X0484935Y0113869D01*
X0484864Y0113775D01*
X0484789Y0113684D01*
X0484711Y0113594D01*
X0484630Y0113508D01*
X0484546Y0113424D01*
X0484460Y0113343D01*
X0484370Y0113265D01*
X0484279Y0113190D01*
X0484185Y0113119D01*
X0484088Y0113050D01*
X0483989Y0112985D01*
X0483889Y0112923D01*
X0483786Y0112864D01*
X0483681Y0112809D01*
X0483574Y0112757D01*
X0483466Y0112709D01*
X0483356Y0112665D01*
X0483245Y0112624D01*
X0483133Y0112587D01*
X0483019Y0112554D01*
X0482904Y0112525D01*
X0482789Y0112499D01*
X0482672Y0112477D01*
X0482555Y0112460D01*
X0482438Y0112446D01*
X0482320Y0112436D01*
X0482201Y0112430D01*
X0482083Y0112428D01*
X0481965Y0112430D01*
X0481846Y0112436D01*
X0481728Y0112446D01*
X0481611Y0112460D01*
X0481494Y0112477D01*
X0481377Y0112499D01*
X0481262Y0112525D01*
X0481147Y0112554D01*
X0481033Y0112587D01*
X0480921Y0112624D01*
X0480810Y0112665D01*
X0480700Y0112709D01*
X0480592Y0112757D01*
X0480485Y0112809D01*
X0480380Y0112864D01*
X0480277Y0112923D01*
X0480177Y0112985D01*
X0480078Y0113050D01*
X0479981Y0113119D01*
X0479887Y0113190D01*
X0479796Y0113265D01*
X0479706Y0113343D01*
X0479620Y0113424D01*
X0479536Y0113508D01*
X0479455Y0113594D01*
X0479377Y0113684D01*
X0479302Y0113775D01*
X0479231Y0113869D01*
X0479162Y0113966D01*
X0479097Y0114065D01*
X0479035Y0114165D01*
X0478976Y0114268D01*
X0478921Y0114373D01*
X0478869Y0114480D01*
X0478821Y0114588D01*
X0478777Y0114698D01*
X0478736Y0114809D01*
X0478699Y0114921D01*
X0478666Y0115035D01*
X0478637Y0115150D01*
X0478611Y0115265D01*
X0478589Y0115382D01*
X0478572Y0115499D01*
X0478558Y0115616D01*
X0478548Y0115734D01*
X0478542Y0115853D01*
X0478540Y0115971D01*
X0058540Y0009721D02*
X0058542Y0009839D01*
X0058548Y0009958D01*
X0058558Y0010076D01*
X0058572Y0010193D01*
X0058589Y0010310D01*
X0058611Y0010427D01*
X0058637Y0010542D01*
X0058666Y0010657D01*
X0058699Y0010771D01*
X0058736Y0010883D01*
X0058777Y0010994D01*
X0058821Y0011104D01*
X0058869Y0011212D01*
X0058921Y0011319D01*
X0058976Y0011424D01*
X0059035Y0011527D01*
X0059097Y0011627D01*
X0059162Y0011726D01*
X0059231Y0011823D01*
X0059302Y0011917D01*
X0059377Y0012008D01*
X0059455Y0012098D01*
X0059536Y0012184D01*
X0059620Y0012268D01*
X0059706Y0012349D01*
X0059796Y0012427D01*
X0059887Y0012502D01*
X0059981Y0012573D01*
X0060078Y0012642D01*
X0060177Y0012707D01*
X0060277Y0012769D01*
X0060380Y0012828D01*
X0060485Y0012883D01*
X0060592Y0012935D01*
X0060700Y0012983D01*
X0060810Y0013027D01*
X0060921Y0013068D01*
X0061033Y0013105D01*
X0061147Y0013138D01*
X0061262Y0013167D01*
X0061377Y0013193D01*
X0061494Y0013215D01*
X0061611Y0013232D01*
X0061728Y0013246D01*
X0061846Y0013256D01*
X0061965Y0013262D01*
X0062083Y0013264D01*
X0062201Y0013262D01*
X0062320Y0013256D01*
X0062438Y0013246D01*
X0062555Y0013232D01*
X0062672Y0013215D01*
X0062789Y0013193D01*
X0062904Y0013167D01*
X0063019Y0013138D01*
X0063133Y0013105D01*
X0063245Y0013068D01*
X0063356Y0013027D01*
X0063466Y0012983D01*
X0063574Y0012935D01*
X0063681Y0012883D01*
X0063786Y0012828D01*
X0063889Y0012769D01*
X0063989Y0012707D01*
X0064088Y0012642D01*
X0064185Y0012573D01*
X0064279Y0012502D01*
X0064370Y0012427D01*
X0064460Y0012349D01*
X0064546Y0012268D01*
X0064630Y0012184D01*
X0064711Y0012098D01*
X0064789Y0012008D01*
X0064864Y0011917D01*
X0064935Y0011823D01*
X0065004Y0011726D01*
X0065069Y0011627D01*
X0065131Y0011527D01*
X0065190Y0011424D01*
X0065245Y0011319D01*
X0065297Y0011212D01*
X0065345Y0011104D01*
X0065389Y0010994D01*
X0065430Y0010883D01*
X0065467Y0010771D01*
X0065500Y0010657D01*
X0065529Y0010542D01*
X0065555Y0010427D01*
X0065577Y0010310D01*
X0065594Y0010193D01*
X0065608Y0010076D01*
X0065618Y0009958D01*
X0065624Y0009839D01*
X0065626Y0009721D01*
X0065624Y0009603D01*
X0065618Y0009484D01*
X0065608Y0009366D01*
X0065594Y0009249D01*
X0065577Y0009132D01*
X0065555Y0009015D01*
X0065529Y0008900D01*
X0065500Y0008785D01*
X0065467Y0008671D01*
X0065430Y0008559D01*
X0065389Y0008448D01*
X0065345Y0008338D01*
X0065297Y0008230D01*
X0065245Y0008123D01*
X0065190Y0008018D01*
X0065131Y0007915D01*
X0065069Y0007815D01*
X0065004Y0007716D01*
X0064935Y0007619D01*
X0064864Y0007525D01*
X0064789Y0007434D01*
X0064711Y0007344D01*
X0064630Y0007258D01*
X0064546Y0007174D01*
X0064460Y0007093D01*
X0064370Y0007015D01*
X0064279Y0006940D01*
X0064185Y0006869D01*
X0064088Y0006800D01*
X0063989Y0006735D01*
X0063889Y0006673D01*
X0063786Y0006614D01*
X0063681Y0006559D01*
X0063574Y0006507D01*
X0063466Y0006459D01*
X0063356Y0006415D01*
X0063245Y0006374D01*
X0063133Y0006337D01*
X0063019Y0006304D01*
X0062904Y0006275D01*
X0062789Y0006249D01*
X0062672Y0006227D01*
X0062555Y0006210D01*
X0062438Y0006196D01*
X0062320Y0006186D01*
X0062201Y0006180D01*
X0062083Y0006178D01*
X0061965Y0006180D01*
X0061846Y0006186D01*
X0061728Y0006196D01*
X0061611Y0006210D01*
X0061494Y0006227D01*
X0061377Y0006249D01*
X0061262Y0006275D01*
X0061147Y0006304D01*
X0061033Y0006337D01*
X0060921Y0006374D01*
X0060810Y0006415D01*
X0060700Y0006459D01*
X0060592Y0006507D01*
X0060485Y0006559D01*
X0060380Y0006614D01*
X0060277Y0006673D01*
X0060177Y0006735D01*
X0060078Y0006800D01*
X0059981Y0006869D01*
X0059887Y0006940D01*
X0059796Y0007015D01*
X0059706Y0007093D01*
X0059620Y0007174D01*
X0059536Y0007258D01*
X0059455Y0007344D01*
X0059377Y0007434D01*
X0059302Y0007525D01*
X0059231Y0007619D01*
X0059162Y0007716D01*
X0059097Y0007815D01*
X0059035Y0007915D01*
X0058976Y0008018D01*
X0058921Y0008123D01*
X0058869Y0008230D01*
X0058821Y0008338D01*
X0058777Y0008448D01*
X0058736Y0008559D01*
X0058699Y0008671D01*
X0058666Y0008785D01*
X0058637Y0008900D01*
X0058611Y0009015D01*
X0058589Y0009132D01*
X0058572Y0009249D01*
X0058558Y0009366D01*
X0058548Y0009484D01*
X0058542Y0009603D01*
X0058540Y0009721D01*
D19*
X0062083Y0009721D03*
X0482083Y0115971D03*
M02*
