G75*
%MOIN*%
%OFA0B0*%
%FSLAX25Y25*%
%IPPOS*%
%LPD*%
%AMOC8*
5,1,8,0,0,1.08239X$1,22.5*
%
%ADD10C,0.00600*%
%ADD11C,0.00300*%
D10*
X0493673Y0013785D02*
X0494741Y0012718D01*
X0493673Y0013785D02*
X0493673Y0015921D01*
X0494741Y0016988D01*
X0499011Y0016988D01*
X0500079Y0015921D01*
X0500079Y0013785D01*
X0499011Y0012718D01*
X0500079Y0019150D02*
X0500079Y0021285D01*
X0500079Y0020218D02*
X0493673Y0020218D01*
X0493673Y0021285D02*
X0493673Y0019150D01*
X0493673Y0023460D02*
X0500079Y0023460D01*
X0496876Y0023460D02*
X0496876Y0027731D01*
X0496876Y0029906D02*
X0494741Y0029906D01*
X0493673Y0030973D01*
X0493673Y0034176D01*
X0500079Y0034176D01*
X0497944Y0034176D02*
X0497944Y0030973D01*
X0496876Y0029906D01*
X0500079Y0027731D02*
X0493673Y0027731D01*
X0495808Y0036351D02*
X0500079Y0036351D01*
X0496876Y0036351D02*
X0496876Y0040622D01*
X0495808Y0040622D02*
X0493673Y0038486D01*
X0495808Y0036351D01*
X0495808Y0040622D02*
X0500079Y0040622D01*
X0500079Y0042797D02*
X0497944Y0044932D01*
X0497944Y0043864D02*
X0497944Y0047067D01*
X0500079Y0047067D02*
X0493673Y0047067D01*
X0493673Y0043864D01*
X0494741Y0042797D01*
X0496876Y0042797D01*
X0497944Y0043864D01*
X0499011Y0049242D02*
X0496876Y0049242D01*
X0496876Y0051377D01*
X0494741Y0049242D02*
X0493673Y0050310D01*
X0493673Y0052445D01*
X0494741Y0053513D01*
X0499011Y0053513D01*
X0500079Y0052445D01*
X0500079Y0050310D01*
X0499011Y0049242D01*
D11*
X0148908Y0035935D02*
X0148472Y0037244D01*
X0148472Y0038990D01*
X0149781Y0037680D01*
X0150654Y0037680D01*
X0151090Y0038117D01*
X0151090Y0038990D01*
X0150218Y0039862D01*
X0149345Y0039862D01*
X0148472Y0038990D01*
X0148050Y0042030D02*
X0145431Y0039412D01*
X0145431Y0041158D01*
X0147177Y0042903D02*
X0148922Y0041158D01*
X0152386Y0037694D02*
X0149767Y0035076D01*
X0151949Y0034640D02*
X0151513Y0036822D01*
X0153695Y0036385D01*
X0154556Y0035524D02*
X0151937Y0032906D01*
X0153247Y0034215D02*
X0154992Y0032469D01*
X0156724Y0032483D02*
X0157160Y0032920D01*
X0158906Y0031174D01*
X0156724Y0032483D02*
X0156724Y0028992D01*
X0156287Y0028556D01*
X0154542Y0030301D01*
X0153683Y0031160D02*
X0156302Y0033778D01*
X0191469Y0041587D02*
X0193214Y0039841D01*
X0193651Y0040278D01*
X0193651Y0043769D01*
X0194087Y0044205D01*
X0196692Y0041601D02*
X0197128Y0041165D01*
X0196692Y0040728D01*
X0196255Y0041165D01*
X0196692Y0041601D01*
X0197994Y0040299D02*
X0197557Y0039862D01*
X0197557Y0036371D01*
X0197121Y0035935D01*
X0195375Y0037680D01*
X0197980Y0035076D02*
X0200598Y0037694D01*
X0199725Y0036822D02*
X0200162Y0034640D01*
X0201459Y0034215D02*
X0203205Y0032469D01*
X0204936Y0032483D02*
X0205373Y0032920D01*
X0207119Y0031174D01*
X0204936Y0032483D02*
X0204936Y0028992D01*
X0204500Y0028556D01*
X0202754Y0030301D01*
X0201896Y0031160D02*
X0204514Y0033778D01*
X0202768Y0035524D02*
X0200150Y0032906D01*
X0201907Y0036385D02*
X0199725Y0036822D01*
X0240649Y0043119D02*
X0240649Y0043992D01*
X0240649Y0043119D02*
X0241522Y0042246D01*
X0242395Y0042246D01*
X0242831Y0042683D01*
X0242831Y0046174D01*
X0244577Y0044428D01*
X0245436Y0043570D02*
X0244999Y0043133D01*
X0245436Y0042697D01*
X0245872Y0043133D01*
X0245436Y0043570D01*
X0246301Y0041831D02*
X0247174Y0041831D01*
X0248047Y0040958D01*
X0248047Y0040085D01*
X0247174Y0039212D01*
X0246301Y0039212D01*
X0245865Y0039649D01*
X0245429Y0040958D01*
X0244119Y0039649D01*
X0245865Y0037903D01*
X0246724Y0037044D02*
X0249342Y0039663D01*
X0248469Y0038790D02*
X0248906Y0036608D01*
X0250203Y0036183D02*
X0251949Y0034438D01*
X0253680Y0034452D02*
X0254117Y0034888D01*
X0255863Y0033143D01*
X0253680Y0034452D02*
X0253680Y0030960D01*
X0253244Y0030524D01*
X0251498Y0032270D01*
X0250640Y0033128D02*
X0253258Y0035747D01*
X0251513Y0037493D02*
X0248894Y0034874D01*
X0250651Y0038354D02*
X0248469Y0038790D01*
X0291302Y0038987D02*
X0291302Y0037242D01*
X0293921Y0039860D01*
X0293048Y0040733D02*
X0294794Y0038987D01*
X0295652Y0038129D02*
X0293034Y0035510D01*
X0294779Y0036383D02*
X0297398Y0036383D01*
X0298257Y0035524D02*
X0295638Y0032906D01*
X0294779Y0033764D02*
X0294779Y0037256D01*
X0296947Y0034215D02*
X0298693Y0032469D01*
X0300425Y0032483D02*
X0300861Y0032920D01*
X0302607Y0031174D01*
X0300425Y0032483D02*
X0300425Y0028992D01*
X0299988Y0028556D01*
X0298242Y0030301D01*
X0297384Y0031160D02*
X0300002Y0033778D01*
X0336847Y0039910D02*
X0336847Y0042528D01*
X0338592Y0040782D01*
X0339015Y0039487D02*
X0339015Y0037742D01*
X0341633Y0040360D01*
X0340760Y0041233D02*
X0342506Y0039487D01*
X0342928Y0038192D02*
X0342928Y0034701D01*
X0344674Y0036446D01*
X0344674Y0037319D01*
X0343801Y0038192D01*
X0342928Y0038192D01*
X0341183Y0036446D01*
X0341183Y0035574D01*
X0342056Y0034701D01*
X0342928Y0034701D01*
X0343351Y0033406D02*
X0345969Y0036024D01*
X0344660Y0034715D02*
X0346406Y0032969D01*
X0348137Y0032983D02*
X0348574Y0033420D01*
X0350319Y0031674D01*
X0348137Y0032983D02*
X0348137Y0029492D01*
X0347701Y0029056D01*
X0345955Y0030801D01*
X0345096Y0031660D02*
X0347715Y0034278D01*
X0339465Y0042528D02*
X0336847Y0039910D01*
X0384654Y0040346D02*
X0387273Y0042964D01*
X0388146Y0042092D02*
X0386400Y0043837D01*
X0384654Y0042092D02*
X0384654Y0040346D01*
X0387695Y0039924D02*
X0389005Y0038614D01*
X0389877Y0038614D01*
X0390314Y0039051D01*
X0390314Y0039924D01*
X0389441Y0040796D01*
X0388568Y0040796D01*
X0387695Y0039924D01*
X0387695Y0038178D01*
X0388132Y0036869D01*
X0389427Y0036446D02*
X0389427Y0035574D01*
X0390300Y0034701D01*
X0391173Y0034701D01*
X0391173Y0038192D01*
X0392045Y0038192D01*
X0392918Y0037319D01*
X0392918Y0036446D01*
X0391173Y0034701D01*
X0391595Y0033406D02*
X0394213Y0036024D01*
X0392904Y0034715D02*
X0394650Y0032969D01*
X0396381Y0032983D02*
X0396818Y0033420D01*
X0398563Y0031674D01*
X0396381Y0032983D02*
X0396381Y0029492D01*
X0395945Y0029056D01*
X0394199Y0030801D01*
X0393340Y0031660D02*
X0395959Y0034278D01*
X0391173Y0038192D02*
X0389427Y0036446D01*
X0434845Y0038178D02*
X0435281Y0036869D01*
X0436576Y0036446D02*
X0436576Y0035574D01*
X0437449Y0034701D01*
X0438322Y0034701D01*
X0438759Y0035137D01*
X0438759Y0036010D01*
X0439631Y0036010D01*
X0440068Y0036446D01*
X0440068Y0037319D01*
X0439195Y0038192D01*
X0438322Y0038192D01*
X0437463Y0039051D02*
X0437027Y0038614D01*
X0436154Y0038614D01*
X0434845Y0039924D01*
X0435718Y0040796D01*
X0436591Y0040796D01*
X0437463Y0039924D01*
X0437463Y0039051D01*
X0434845Y0038178D02*
X0434845Y0039924D01*
X0438322Y0036446D02*
X0438759Y0036010D01*
X0440054Y0034715D02*
X0441799Y0032969D01*
X0443531Y0032983D02*
X0443967Y0033420D01*
X0445713Y0031674D01*
X0443531Y0032983D02*
X0443531Y0029492D01*
X0443094Y0029056D01*
X0441349Y0030801D01*
X0440490Y0031660D02*
X0443109Y0034278D01*
X0441363Y0036024D02*
X0438744Y0033406D01*
M02*
