G75*
%MOIN*%
%OFA0B0*%
%FSLAX25Y25*%
%IPPOS*%
%LPD*%
%AMOC8*
5,1,8,0,0,1.08239X$1,22.5*
%
%ADD10C,0.00200*%
%ADD11C,0.00600*%
%ADD12C,0.00800*%
%ADD13C,0.01600*%
%ADD14C,0.28016*%
D10*
X0024404Y0002860D02*
X0025949Y0002860D01*
X0025934Y0003100D01*
X0025934Y0003340D01*
X0025994Y0003730D01*
X0026069Y0003925D01*
X0026189Y0004090D01*
X0026339Y0004240D01*
X0026534Y0004360D01*
X0026774Y0004435D01*
X0027059Y0004465D01*
X0030839Y0004465D01*
X0030839Y0005965D01*
X0024539Y0005965D01*
X0024539Y0004525D01*
X0024554Y0004510D01*
X0025394Y0004510D01*
X0025394Y0004480D01*
X0024989Y0004225D01*
X0024674Y0003925D01*
X0024464Y0003565D01*
X0024389Y0003130D01*
X0024389Y0002995D01*
X0024404Y0002860D01*
X0024390Y0002985D02*
X0025941Y0002985D01*
X0025934Y0003184D02*
X0024398Y0003184D01*
X0024433Y0003382D02*
X0025941Y0003382D01*
X0025971Y0003581D02*
X0024473Y0003581D01*
X0024589Y0003779D02*
X0026013Y0003779D01*
X0026108Y0003978D02*
X0024730Y0003978D01*
X0024938Y0004176D02*
X0026275Y0004176D01*
X0026581Y0004375D02*
X0025227Y0004375D01*
X0024539Y0004573D02*
X0030839Y0004573D01*
X0030839Y0004772D02*
X0024539Y0004772D01*
X0024539Y0004970D02*
X0030839Y0004970D01*
X0030839Y0005169D02*
X0024539Y0005169D01*
X0024539Y0005367D02*
X0030839Y0005367D01*
X0030839Y0005566D02*
X0024539Y0005566D01*
X0024539Y0005764D02*
X0030839Y0005764D01*
X0030839Y0005963D02*
X0024539Y0005963D01*
X0025244Y0007180D02*
X0024959Y0007375D01*
X0024734Y0007645D01*
X0024569Y0008005D01*
X0024464Y0008485D01*
X0024434Y0009100D01*
X0024389Y0009130D01*
X0024419Y0009535D01*
X0024494Y0009925D01*
X0024629Y0010270D01*
X0024824Y0010570D01*
X0025094Y0010825D01*
X0025424Y0011020D01*
X0025844Y0011140D01*
X0026354Y0011185D01*
X0026504Y0011185D01*
X0026504Y0009835D01*
X0026324Y0009835D01*
X0025994Y0009790D01*
X0025739Y0009655D01*
X0025574Y0009445D01*
X0025514Y0009145D01*
X0025559Y0008815D01*
X0025709Y0008605D01*
X0025949Y0008485D01*
X0026264Y0008440D01*
X0026549Y0008470D01*
X0026744Y0008575D01*
X0026894Y0008755D01*
X0026999Y0009040D01*
X0027014Y0009085D01*
X0028019Y0009085D01*
X0027914Y0008770D01*
X0027704Y0008440D01*
X0028949Y0008440D01*
X0029189Y0008455D01*
X0029399Y0008515D01*
X0029564Y0008620D01*
X0029699Y0008740D01*
X0029864Y0009040D01*
X0029864Y0009070D01*
X0030839Y0009070D01*
X0030839Y0009055D01*
X0030749Y0008890D01*
X0030614Y0008740D01*
X0030209Y0008455D01*
X0030209Y0008425D01*
X0030539Y0008350D01*
X0030869Y0008230D01*
X0030869Y0006790D01*
X0030344Y0006940D01*
X0029654Y0006985D01*
X0026354Y0006985D01*
X0025949Y0007000D01*
X0025574Y0007060D01*
X0025244Y0007180D01*
X0025316Y0007154D02*
X0030869Y0007154D01*
X0030869Y0007352D02*
X0024992Y0007352D01*
X0024813Y0007551D02*
X0030869Y0007551D01*
X0030869Y0007749D02*
X0024686Y0007749D01*
X0024595Y0007948D02*
X0030869Y0007948D01*
X0030869Y0008146D02*
X0024538Y0008146D01*
X0024495Y0008345D02*
X0030553Y0008345D01*
X0030335Y0008543D02*
X0029444Y0008543D01*
X0029700Y0008742D02*
X0030616Y0008742D01*
X0030777Y0008940D02*
X0029809Y0008940D01*
X0029849Y0009100D02*
X0029894Y0009385D01*
X0029834Y0009640D01*
X0029639Y0009820D01*
X0029354Y0009910D01*
X0029024Y0009940D01*
X0028649Y0009895D01*
X0028364Y0009745D01*
X0028154Y0009490D01*
X0028019Y0009100D01*
X0027014Y0009100D01*
X0027239Y0009895D01*
X0027509Y0010570D01*
X0027674Y0010825D01*
X0027884Y0011035D01*
X0028139Y0011185D01*
X0028439Y0011290D01*
X0028799Y0011350D01*
X0029219Y0011365D01*
X0029849Y0011290D01*
X0030149Y0011185D01*
X0030419Y0011050D01*
X0030644Y0010855D01*
X0030824Y0010615D01*
X0030929Y0010315D01*
X0030959Y0009955D01*
X0030929Y0009460D01*
X0030824Y0009085D01*
X0030824Y0009100D01*
X0029849Y0009100D01*
X0029855Y0009139D02*
X0030839Y0009139D01*
X0030895Y0009337D02*
X0029887Y0009337D01*
X0029859Y0009536D02*
X0030934Y0009536D01*
X0030946Y0009734D02*
X0029732Y0009734D01*
X0029101Y0009933D02*
X0030958Y0009933D01*
X0030945Y0010132D02*
X0027334Y0010132D01*
X0027413Y0010330D02*
X0030924Y0010330D01*
X0030855Y0010529D02*
X0027493Y0010529D01*
X0027611Y0010727D02*
X0030740Y0010727D01*
X0030563Y0010926D02*
X0027775Y0010926D01*
X0028036Y0011124D02*
X0030271Y0011124D01*
X0029575Y0011323D02*
X0028635Y0011323D01*
X0028966Y0009933D02*
X0027254Y0009933D01*
X0027194Y0009734D02*
X0028356Y0009734D01*
X0028192Y0009536D02*
X0027138Y0009536D01*
X0027081Y0009337D02*
X0028101Y0009337D01*
X0028033Y0009139D02*
X0027025Y0009139D01*
X0026963Y0008940D02*
X0027971Y0008940D01*
X0027896Y0008742D02*
X0026883Y0008742D01*
X0026686Y0008543D02*
X0027770Y0008543D01*
X0026504Y0009933D02*
X0024497Y0009933D01*
X0024458Y0009734D02*
X0025889Y0009734D01*
X0025646Y0009536D02*
X0024419Y0009536D01*
X0024405Y0009337D02*
X0025553Y0009337D01*
X0025515Y0009139D02*
X0024390Y0009139D01*
X0024442Y0008940D02*
X0025542Y0008940D01*
X0025611Y0008742D02*
X0024452Y0008742D01*
X0024461Y0008543D02*
X0025832Y0008543D01*
X0026504Y0010132D02*
X0024575Y0010132D01*
X0024668Y0010330D02*
X0026504Y0010330D01*
X0026504Y0010529D02*
X0024797Y0010529D01*
X0024991Y0010727D02*
X0026504Y0010727D01*
X0026504Y0010926D02*
X0025264Y0010926D01*
X0025789Y0011124D02*
X0026504Y0011124D01*
X0022484Y0012025D02*
X0022484Y0013525D01*
X0030824Y0013525D01*
X0030824Y0012025D01*
X0022484Y0012025D01*
X0022484Y0012117D02*
X0030824Y0012117D01*
X0030824Y0012315D02*
X0022484Y0012315D01*
X0022484Y0012514D02*
X0030824Y0012514D01*
X0030824Y0012712D02*
X0022484Y0012712D01*
X0022484Y0012911D02*
X0030824Y0012911D01*
X0030824Y0013109D02*
X0022484Y0013109D01*
X0022484Y0013308D02*
X0030824Y0013308D01*
X0030824Y0013506D02*
X0022484Y0013506D01*
X0022504Y0013903D02*
X0015509Y0013903D01*
X0015509Y0013780D02*
X0015509Y0015220D01*
X0016214Y0015220D01*
X0016214Y0015250D01*
X0015794Y0015505D01*
X0015524Y0015820D01*
X0015389Y0016150D01*
X0015374Y0016210D01*
X0016604Y0016210D01*
X0016574Y0016030D01*
X0016604Y0015820D01*
X0016694Y0015655D01*
X0016844Y0015520D01*
X0017054Y0015415D01*
X0017699Y0015295D01*
X0018674Y0015250D01*
X0019409Y0015295D01*
X0019979Y0015430D01*
X0020189Y0015535D01*
X0020354Y0015670D01*
X0020459Y0015850D01*
X0020489Y0016075D01*
X0020459Y0016225D01*
X0021674Y0016225D01*
X0021734Y0016165D01*
X0021719Y0016120D01*
X0021554Y0015775D01*
X0021314Y0015475D01*
X0020999Y0015220D01*
X0020999Y0015190D01*
X0021824Y0015190D01*
X0022259Y0015235D01*
X0022619Y0015370D01*
X0022754Y0015475D01*
X0022859Y0015625D01*
X0022919Y0015805D01*
X0022934Y0016015D01*
X0022889Y0016285D01*
X0022754Y0016525D01*
X0022544Y0016690D01*
X0022274Y0016750D01*
X0022274Y0018190D01*
X0022649Y0018160D01*
X0022979Y0018070D01*
X0023264Y0017905D01*
X0023504Y0017680D01*
X0023699Y0017395D01*
X0023834Y0017050D01*
X0023924Y0016660D01*
X0023954Y0016210D01*
X0023909Y0015595D01*
X0023789Y0015085D01*
X0023594Y0014665D01*
X0023324Y0014335D01*
X0022979Y0014095D01*
X0022559Y0013915D01*
X0022064Y0013810D01*
X0021494Y0013780D01*
X0015509Y0013780D01*
X0015509Y0014102D02*
X0022989Y0014102D01*
X0023274Y0014300D02*
X0015509Y0014300D01*
X0015509Y0014499D02*
X0023458Y0014499D01*
X0023609Y0014697D02*
X0015509Y0014697D01*
X0015509Y0014896D02*
X0023701Y0014896D01*
X0023791Y0015094D02*
X0015509Y0015094D01*
X0015817Y0015491D02*
X0016902Y0015491D01*
X0016675Y0015690D02*
X0015636Y0015690D01*
X0015496Y0015888D02*
X0016594Y0015888D01*
X0016584Y0016087D02*
X0015415Y0016087D01*
X0015449Y0016135D02*
X0015404Y0016390D01*
X0015419Y0016675D01*
X0015479Y0016930D01*
X0015569Y0017155D01*
X0015704Y0017350D01*
X0016034Y0017665D01*
X0016454Y0017905D01*
X0016949Y0018070D01*
X0017489Y0018160D01*
X0018614Y0018220D01*
X0019409Y0018190D01*
X0020084Y0018100D01*
X0020639Y0017965D01*
X0021059Y0017770D01*
X0021374Y0017515D01*
X0021599Y0017200D01*
X0021734Y0016840D01*
X0021779Y0016420D01*
X0021734Y0016120D01*
X0021734Y0016165D01*
X0020519Y0016165D01*
X0020504Y0016225D01*
X0020399Y0016390D01*
X0020249Y0016525D01*
X0020039Y0016615D01*
X0019514Y0016720D01*
X0018899Y0016750D01*
X0017834Y0016720D01*
X0017444Y0016675D01*
X0017144Y0016600D01*
X0016919Y0016495D01*
X0016769Y0016360D01*
X0016679Y0016180D01*
X0016679Y0016135D01*
X0015449Y0016135D01*
X0015423Y0016285D02*
X0016732Y0016285D01*
X0016907Y0016484D02*
X0015409Y0016484D01*
X0015421Y0016682D02*
X0017508Y0016682D01*
X0017747Y0015293D02*
X0016144Y0015293D01*
X0019373Y0015293D02*
X0021089Y0015293D01*
X0021327Y0015491D02*
X0020102Y0015491D01*
X0020366Y0015690D02*
X0021486Y0015690D01*
X0021608Y0015888D02*
X0020464Y0015888D01*
X0020487Y0016087D02*
X0021703Y0016087D01*
X0021759Y0016285D02*
X0020466Y0016285D01*
X0020295Y0016484D02*
X0021772Y0016484D01*
X0021751Y0016682D02*
X0019702Y0016682D01*
X0020836Y0017873D02*
X0016399Y0017873D01*
X0016052Y0017675D02*
X0021177Y0017675D01*
X0021402Y0017476D02*
X0015837Y0017476D01*
X0015654Y0017278D02*
X0021544Y0017278D01*
X0021644Y0017079D02*
X0015539Y0017079D01*
X0015468Y0016881D02*
X0021719Y0016881D01*
X0022274Y0016881D02*
X0023873Y0016881D01*
X0023919Y0016682D02*
X0022554Y0016682D01*
X0022777Y0016484D02*
X0023936Y0016484D01*
X0023949Y0016285D02*
X0022889Y0016285D01*
X0022922Y0016087D02*
X0023945Y0016087D01*
X0023931Y0015888D02*
X0022925Y0015888D01*
X0022881Y0015690D02*
X0023916Y0015690D01*
X0023885Y0015491D02*
X0022766Y0015491D01*
X0022413Y0015293D02*
X0023838Y0015293D01*
X0024569Y0015293D02*
X0030869Y0015293D01*
X0030869Y0015491D02*
X0024569Y0015491D01*
X0024569Y0015640D02*
X0024569Y0014140D01*
X0030869Y0014140D01*
X0030869Y0015580D01*
X0030134Y0015580D01*
X0030134Y0015610D01*
X0030104Y0015595D01*
X0030509Y0015865D01*
X0030779Y0016210D01*
X0030929Y0016615D01*
X0030974Y0017080D01*
X0030944Y0017410D01*
X0030869Y0017710D01*
X0030749Y0017965D01*
X0030569Y0018175D01*
X0030329Y0018340D01*
X0030029Y0018460D01*
X0029654Y0018535D01*
X0029219Y0018565D01*
X0024539Y0018565D01*
X0024539Y0017065D01*
X0028889Y0017065D01*
X0029309Y0017020D01*
X0029579Y0016900D01*
X0029729Y0016705D01*
X0029774Y0016420D01*
X0029714Y0016075D01*
X0029639Y0015940D01*
X0029519Y0015835D01*
X0029189Y0015685D01*
X0028739Y0015640D01*
X0024569Y0015640D01*
X0024569Y0015094D02*
X0030869Y0015094D01*
X0030869Y0014896D02*
X0024569Y0014896D01*
X0024569Y0014697D02*
X0030869Y0014697D01*
X0030869Y0014499D02*
X0024569Y0014499D01*
X0024569Y0014300D02*
X0030869Y0014300D01*
X0030247Y0015690D02*
X0029200Y0015690D01*
X0029580Y0015888D02*
X0030528Y0015888D01*
X0030683Y0016087D02*
X0029716Y0016087D01*
X0029751Y0016285D02*
X0030807Y0016285D01*
X0030881Y0016484D02*
X0029764Y0016484D01*
X0029733Y0016682D02*
X0030936Y0016682D01*
X0030955Y0016881D02*
X0029594Y0016881D01*
X0030974Y0017079D02*
X0024539Y0017079D01*
X0024539Y0017278D02*
X0030956Y0017278D01*
X0030928Y0017476D02*
X0024539Y0017476D01*
X0024539Y0017675D02*
X0030878Y0017675D01*
X0030792Y0017873D02*
X0024539Y0017873D01*
X0024539Y0018072D02*
X0030658Y0018072D01*
X0030430Y0018270D02*
X0024539Y0018270D01*
X0024539Y0018469D02*
X0029984Y0018469D01*
X0030839Y0018910D02*
X0030839Y0020350D01*
X0030164Y0020350D01*
X0030164Y0020365D01*
X0030539Y0020635D01*
X0030779Y0020935D01*
X0030899Y0021250D01*
X0029744Y0021250D01*
X0029744Y0021205D01*
X0029714Y0020980D01*
X0029609Y0020800D01*
X0029444Y0020665D01*
X0029219Y0020575D01*
X0028574Y0020470D01*
X0027674Y0020440D01*
X0026774Y0020470D01*
X0026129Y0020575D01*
X0025904Y0020665D01*
X0025739Y0020800D01*
X0025634Y0020980D01*
X0025604Y0021205D01*
X0025604Y0021250D01*
X0024434Y0021250D01*
X0024554Y0020980D01*
X0024794Y0020695D01*
X0025124Y0020440D01*
X0025124Y0020425D01*
X0022484Y0020425D01*
X0022499Y0020410D01*
X0022499Y0018910D01*
X0030839Y0018910D01*
X0030839Y0019065D02*
X0022499Y0019065D01*
X0022499Y0019263D02*
X0030839Y0019263D01*
X0030839Y0019462D02*
X0022499Y0019462D01*
X0022499Y0019660D02*
X0030839Y0019660D01*
X0030839Y0019859D02*
X0022499Y0019859D01*
X0022499Y0020057D02*
X0030839Y0020057D01*
X0030839Y0020256D02*
X0022499Y0020256D01*
X0021839Y0020256D02*
X0015388Y0020256D01*
X0015374Y0020410D02*
X0015404Y0020065D01*
X0015479Y0019765D01*
X0015614Y0019510D01*
X0015794Y0019300D01*
X0016034Y0019135D01*
X0016349Y0019015D01*
X0016724Y0018940D01*
X0017159Y0018910D01*
X0021839Y0018910D01*
X0021839Y0020410D01*
X0017489Y0020410D01*
X0017069Y0020455D01*
X0016799Y0020575D01*
X0016649Y0020770D01*
X0016604Y0021055D01*
X0016664Y0021400D01*
X0016739Y0021535D01*
X0016859Y0021640D01*
X0017189Y0021790D01*
X0017639Y0021835D01*
X0021809Y0021835D01*
X0021809Y0023335D01*
X0015509Y0023335D01*
X0015509Y0021895D01*
X0015554Y0021925D01*
X0016289Y0021925D01*
X0016289Y0021895D01*
X0015884Y0021625D01*
X0015599Y0021280D01*
X0015434Y0020875D01*
X0015374Y0020410D01*
X0015380Y0020454D02*
X0017078Y0020454D01*
X0016740Y0020653D02*
X0015406Y0020653D01*
X0015431Y0020851D02*
X0016636Y0020851D01*
X0016605Y0021050D02*
X0015505Y0021050D01*
X0015586Y0021248D02*
X0016638Y0021248D01*
X0016690Y0021447D02*
X0015737Y0021447D01*
X0015915Y0021645D02*
X0016871Y0021645D01*
X0016212Y0021844D02*
X0021809Y0021844D01*
X0021809Y0022042D02*
X0015509Y0022042D01*
X0015509Y0022241D02*
X0021809Y0022241D01*
X0021809Y0022439D02*
X0015509Y0022439D01*
X0015509Y0022638D02*
X0021809Y0022638D01*
X0021809Y0022836D02*
X0015509Y0022836D01*
X0015509Y0023035D02*
X0021809Y0023035D01*
X0021809Y0023233D02*
X0015509Y0023233D01*
X0015554Y0024205D02*
X0015554Y0025705D01*
X0021854Y0025705D01*
X0021854Y0024205D01*
X0015554Y0024205D01*
X0015554Y0024226D02*
X0021854Y0024226D01*
X0021854Y0024424D02*
X0015554Y0024424D01*
X0015554Y0024623D02*
X0021854Y0024623D01*
X0021854Y0024821D02*
X0015554Y0024821D01*
X0015554Y0025020D02*
X0021854Y0025020D01*
X0021854Y0025218D02*
X0015554Y0025218D01*
X0015554Y0025417D02*
X0021854Y0025417D01*
X0021854Y0025615D02*
X0015554Y0025615D01*
X0014774Y0025615D02*
X0013394Y0025615D01*
X0013394Y0025705D02*
X0013394Y0024205D01*
X0014774Y0024205D01*
X0014774Y0025705D01*
X0013394Y0025705D01*
X0013394Y0025417D02*
X0014774Y0025417D01*
X0014774Y0025218D02*
X0013394Y0025218D01*
X0013394Y0025020D02*
X0014774Y0025020D01*
X0014774Y0024821D02*
X0013394Y0024821D01*
X0013394Y0024623D02*
X0014774Y0024623D01*
X0014774Y0024424D02*
X0013394Y0024424D01*
X0013394Y0024226D02*
X0014774Y0024226D01*
X0012869Y0024226D02*
X0006569Y0024226D01*
X0006569Y0024424D02*
X0012869Y0024424D01*
X0012869Y0024623D02*
X0006569Y0024623D01*
X0006569Y0024821D02*
X0012869Y0024821D01*
X0012869Y0025020D02*
X0006569Y0025020D01*
X0006569Y0025218D02*
X0012184Y0025218D01*
X0012134Y0025180D02*
X0012104Y0025165D01*
X0012509Y0025435D01*
X0012779Y0025780D01*
X0012929Y0026185D01*
X0012974Y0026650D01*
X0012944Y0026995D01*
X0012869Y0027295D01*
X0012749Y0027550D01*
X0012569Y0027760D01*
X0012329Y0027925D01*
X0012029Y0028045D01*
X0011654Y0028120D01*
X0011219Y0028150D01*
X0006539Y0028150D01*
X0006539Y0026650D01*
X0010889Y0026650D01*
X0011309Y0026605D01*
X0011579Y0026485D01*
X0011729Y0026290D01*
X0011774Y0026005D01*
X0011714Y0025660D01*
X0011639Y0025525D01*
X0011519Y0025420D01*
X0011189Y0025270D01*
X0010739Y0025225D01*
X0006569Y0025225D01*
X0006569Y0023725D01*
X0012869Y0023725D01*
X0012869Y0025165D01*
X0012134Y0025165D01*
X0012134Y0025180D01*
X0012482Y0025417D02*
X0011512Y0025417D01*
X0011689Y0025615D02*
X0012650Y0025615D01*
X0012792Y0025814D02*
X0011741Y0025814D01*
X0011773Y0026012D02*
X0012865Y0026012D01*
X0012932Y0026211D02*
X0011742Y0026211D01*
X0011637Y0026409D02*
X0012951Y0026409D01*
X0012970Y0026608D02*
X0011282Y0026608D01*
X0012148Y0027998D02*
X0006539Y0027998D01*
X0006539Y0027799D02*
X0012512Y0027799D01*
X0012706Y0027601D02*
X0006539Y0027601D01*
X0006539Y0027402D02*
X0012819Y0027402D01*
X0012892Y0027203D02*
X0006539Y0027203D01*
X0006539Y0027005D02*
X0012942Y0027005D01*
X0012961Y0026806D02*
X0006539Y0026806D01*
X0006569Y0024027D02*
X0012869Y0024027D01*
X0012869Y0023829D02*
X0006569Y0023829D01*
X0007149Y0023035D02*
X0009422Y0023035D01*
X0009389Y0023065D02*
X0009164Y0023200D01*
X0008909Y0023305D01*
X0008624Y0023365D01*
X0008309Y0023380D01*
X0007934Y0023350D01*
X0007574Y0023260D01*
X0007244Y0023110D01*
X0006959Y0022885D01*
X0006734Y0022585D01*
X0006554Y0022210D01*
X0006434Y0021760D01*
X0006389Y0021220D01*
X0006419Y0020740D01*
X0006509Y0020335D01*
X0006659Y0019990D01*
X0006869Y0019705D01*
X0007124Y0019495D01*
X0007424Y0019345D01*
X0007784Y0019255D01*
X0008189Y0019225D01*
X0008444Y0019225D01*
X0008444Y0020575D01*
X0008024Y0020605D01*
X0007724Y0020710D01*
X0007619Y0020800D01*
X0007544Y0020920D01*
X0007484Y0021235D01*
X0007529Y0021505D01*
X0007664Y0021730D01*
X0007874Y0021895D01*
X0008174Y0021955D01*
X0008399Y0021925D01*
X0008594Y0021820D01*
X0008774Y0021625D01*
X0008924Y0021310D01*
X0009254Y0020410D01*
X0009389Y0020080D01*
X0009554Y0019810D01*
X0009734Y0019585D01*
X0009929Y0019405D01*
X0010154Y0019270D01*
X0010424Y0019180D01*
X0010724Y0019120D01*
X0011069Y0019105D01*
X0011534Y0019150D01*
X0011939Y0019270D01*
X0012284Y0019465D01*
X0012554Y0019720D01*
X0012764Y0020035D01*
X0012899Y0020410D01*
X0012974Y0020830D01*
X0013004Y0021280D01*
X0012974Y0021865D01*
X0012884Y0022330D01*
X0012719Y0022705D01*
X0012494Y0022990D01*
X0012209Y0023200D01*
X0011864Y0023335D01*
X0011474Y0023410D01*
X0011039Y0023440D01*
X0010814Y0023440D01*
X0010814Y0022090D01*
X0011024Y0022090D01*
X0010994Y0022045D01*
X0011369Y0022000D01*
X0011654Y0021850D01*
X0011849Y0021610D01*
X0011909Y0021280D01*
X0011864Y0020965D01*
X0011729Y0020725D01*
X0011489Y0020575D01*
X0011159Y0020530D01*
X0010889Y0020575D01*
X0010694Y0020695D01*
X0010559Y0020875D01*
X0010454Y0021085D01*
X0010049Y0022135D01*
X0009764Y0022675D01*
X0009584Y0022885D01*
X0009389Y0023065D01*
X0009626Y0022836D02*
X0006923Y0022836D01*
X0006774Y0022638D02*
X0009784Y0022638D01*
X0009889Y0022439D02*
X0006664Y0022439D01*
X0006569Y0022241D02*
X0009993Y0022241D01*
X0010085Y0022042D02*
X0006510Y0022042D01*
X0006457Y0021844D02*
X0007809Y0021844D01*
X0007613Y0021645D02*
X0006425Y0021645D01*
X0006408Y0021447D02*
X0007520Y0021447D01*
X0007486Y0021248D02*
X0006392Y0021248D01*
X0006400Y0021050D02*
X0007520Y0021050D01*
X0007587Y0020851D02*
X0006412Y0020851D01*
X0006439Y0020653D02*
X0007888Y0020653D01*
X0008444Y0020454D02*
X0006483Y0020454D01*
X0006544Y0020256D02*
X0008444Y0020256D01*
X0008444Y0020057D02*
X0006630Y0020057D01*
X0006756Y0019859D02*
X0008444Y0019859D01*
X0008444Y0019660D02*
X0006924Y0019660D01*
X0007191Y0019462D02*
X0008444Y0019462D01*
X0008444Y0019263D02*
X0007752Y0019263D01*
X0006554Y0018265D02*
X0006554Y0016765D01*
X0012854Y0016765D01*
X0012854Y0018265D01*
X0006554Y0018265D01*
X0006554Y0018072D02*
X0012854Y0018072D01*
X0012854Y0017873D02*
X0006554Y0017873D01*
X0006554Y0017675D02*
X0012854Y0017675D01*
X0012854Y0017476D02*
X0006554Y0017476D01*
X0006554Y0017278D02*
X0012854Y0017278D01*
X0012854Y0017079D02*
X0006554Y0017079D01*
X0006554Y0016881D02*
X0012854Y0016881D01*
X0011864Y0015610D02*
X0011294Y0015790D01*
X0010574Y0015895D01*
X0009704Y0015925D01*
X0008819Y0015880D01*
X0008099Y0015745D01*
X0007529Y0015535D01*
X0007079Y0015250D01*
X0006764Y0014905D01*
X0006554Y0014500D01*
X0006434Y0014035D01*
X0006389Y0013540D01*
X0006434Y0013045D01*
X0006554Y0012625D01*
X0006764Y0012265D01*
X0007049Y0011965D01*
X0007409Y0011740D01*
X0007829Y0011575D01*
X0008309Y0011470D01*
X0008834Y0011440D01*
X0008834Y0012880D01*
X0008384Y0012910D01*
X0008369Y0012925D01*
X0007964Y0013030D01*
X0007799Y0013120D01*
X0007664Y0013240D01*
X0007574Y0013390D01*
X0007544Y0013585D01*
X0007574Y0013840D01*
X0007679Y0014035D01*
X0007844Y0014185D01*
X0008069Y0014290D01*
X0008729Y0014410D01*
X0009689Y0014440D01*
X0010694Y0014410D01*
X0011069Y0014365D01*
X0011369Y0014290D01*
X0011594Y0014185D01*
X0011759Y0014050D01*
X0011849Y0013870D01*
X0011879Y0013645D01*
X0011864Y0013465D01*
X0011804Y0013315D01*
X0011699Y0013195D01*
X0011549Y0013090D01*
X0011099Y0012955D01*
X0010424Y0012910D01*
X0010424Y0011470D01*
X0011009Y0011500D01*
X0011519Y0011590D01*
X0011954Y0011755D01*
X0012314Y0011980D01*
X0012599Y0012280D01*
X0012809Y0012670D01*
X0012929Y0013135D01*
X0012974Y0013690D01*
X0012944Y0014215D01*
X0012839Y0014665D01*
X0012629Y0015055D01*
X0012314Y0015370D01*
X0011864Y0015610D01*
X0012087Y0015491D02*
X0007460Y0015491D01*
X0007147Y0015293D02*
X0012391Y0015293D01*
X0012590Y0015094D02*
X0006937Y0015094D01*
X0006759Y0014896D02*
X0012715Y0014896D01*
X0012822Y0014697D02*
X0006657Y0014697D01*
X0006554Y0014499D02*
X0012878Y0014499D01*
X0012924Y0014300D02*
X0011328Y0014300D01*
X0011696Y0014102D02*
X0012951Y0014102D01*
X0012962Y0013903D02*
X0011833Y0013903D01*
X0011871Y0013705D02*
X0012973Y0013705D01*
X0012959Y0013506D02*
X0011868Y0013506D01*
X0011798Y0013308D02*
X0012943Y0013308D01*
X0012923Y0013109D02*
X0011577Y0013109D01*
X0010434Y0012911D02*
X0012871Y0012911D01*
X0012820Y0012712D02*
X0010424Y0012712D01*
X0010424Y0012514D02*
X0012725Y0012514D01*
X0012618Y0012315D02*
X0010424Y0012315D01*
X0010424Y0012117D02*
X0012444Y0012117D01*
X0012215Y0011918D02*
X0010424Y0011918D01*
X0010424Y0011720D02*
X0011861Y0011720D01*
X0011129Y0011521D02*
X0010424Y0011521D01*
X0008834Y0011521D02*
X0008076Y0011521D01*
X0007461Y0011720D02*
X0008834Y0011720D01*
X0008834Y0011918D02*
X0007124Y0011918D01*
X0006905Y0012117D02*
X0008834Y0012117D01*
X0008834Y0012315D02*
X0006735Y0012315D01*
X0006619Y0012514D02*
X0008834Y0012514D01*
X0008834Y0012712D02*
X0006529Y0012712D01*
X0006473Y0012911D02*
X0008384Y0012911D01*
X0007819Y0013109D02*
X0006428Y0013109D01*
X0006410Y0013308D02*
X0007624Y0013308D01*
X0007556Y0013506D02*
X0006392Y0013506D01*
X0006404Y0013705D02*
X0007558Y0013705D01*
X0007608Y0013903D02*
X0006422Y0013903D01*
X0006451Y0014102D02*
X0007753Y0014102D01*
X0008126Y0014300D02*
X0006503Y0014300D01*
X0007950Y0015690D02*
X0011611Y0015690D01*
X0010620Y0015888D02*
X0008984Y0015888D01*
X0005774Y0016765D02*
X0005774Y0018265D01*
X0004394Y0018265D01*
X0004394Y0016765D01*
X0005774Y0016765D01*
X0005774Y0016881D02*
X0004394Y0016881D01*
X0004394Y0017079D02*
X0005774Y0017079D01*
X0005774Y0017278D02*
X0004394Y0017278D01*
X0004394Y0017476D02*
X0005774Y0017476D01*
X0005774Y0017675D02*
X0004394Y0017675D01*
X0004394Y0017873D02*
X0005774Y0017873D01*
X0005774Y0018072D02*
X0004394Y0018072D01*
X0009317Y0020256D02*
X0012844Y0020256D01*
X0012907Y0020454D02*
X0009238Y0020454D01*
X0009165Y0020653D02*
X0010763Y0020653D01*
X0010577Y0020851D02*
X0009092Y0020851D01*
X0009020Y0021050D02*
X0010472Y0021050D01*
X0010391Y0021248D02*
X0008947Y0021248D01*
X0008859Y0021447D02*
X0010315Y0021447D01*
X0010238Y0021645D02*
X0008756Y0021645D01*
X0008550Y0021844D02*
X0010162Y0021844D01*
X0010814Y0022241D02*
X0012902Y0022241D01*
X0012940Y0022042D02*
X0011018Y0022042D01*
X0010814Y0022439D02*
X0012836Y0022439D01*
X0012749Y0022638D02*
X0010814Y0022638D01*
X0010814Y0022836D02*
X0012616Y0022836D01*
X0012434Y0023035D02*
X0010814Y0023035D01*
X0010814Y0023233D02*
X0012124Y0023233D01*
X0011158Y0023432D02*
X0010814Y0023432D01*
X0009083Y0023233D02*
X0007515Y0023233D01*
X0011659Y0021844D02*
X0012975Y0021844D01*
X0012986Y0021645D02*
X0011821Y0021645D01*
X0011879Y0021447D02*
X0012996Y0021447D01*
X0013002Y0021248D02*
X0011905Y0021248D01*
X0011876Y0021050D02*
X0012989Y0021050D01*
X0012976Y0020851D02*
X0011800Y0020851D01*
X0011613Y0020653D02*
X0012943Y0020653D01*
X0012772Y0020057D02*
X0009403Y0020057D01*
X0009525Y0019859D02*
X0012647Y0019859D01*
X0012491Y0019660D02*
X0009674Y0019660D01*
X0009868Y0019462D02*
X0012278Y0019462D01*
X0011916Y0019263D02*
X0010175Y0019263D01*
X0015406Y0020057D02*
X0021839Y0020057D01*
X0021839Y0019859D02*
X0015456Y0019859D01*
X0015535Y0019660D02*
X0021839Y0019660D01*
X0021839Y0019462D02*
X0015656Y0019462D01*
X0015848Y0019263D02*
X0021839Y0019263D01*
X0021839Y0019065D02*
X0016219Y0019065D01*
X0016961Y0018072D02*
X0020199Y0018072D01*
X0022274Y0018072D02*
X0022972Y0018072D01*
X0023298Y0017873D02*
X0022274Y0017873D01*
X0022274Y0017675D02*
X0023508Y0017675D01*
X0023644Y0017476D02*
X0022274Y0017476D01*
X0022274Y0017278D02*
X0023745Y0017278D01*
X0023823Y0017079D02*
X0022274Y0017079D01*
X0024849Y0020653D02*
X0025935Y0020653D01*
X0025709Y0020851D02*
X0024663Y0020851D01*
X0024523Y0021050D02*
X0025625Y0021050D01*
X0025604Y0021248D02*
X0024435Y0021248D01*
X0024449Y0021265D02*
X0024419Y0021325D01*
X0024374Y0021715D01*
X0024419Y0022150D01*
X0024569Y0022525D01*
X0024809Y0022840D01*
X0025154Y0023095D01*
X0025604Y0023290D01*
X0026174Y0023425D01*
X0026864Y0023500D01*
X0027674Y0023530D01*
X0028484Y0023500D01*
X0029174Y0023425D01*
X0029744Y0023290D01*
X0030194Y0023095D01*
X0030524Y0022840D01*
X0030764Y0022525D01*
X0030899Y0022150D01*
X0030944Y0021715D01*
X0030899Y0021295D01*
X0030884Y0021265D01*
X0030914Y0021265D01*
X0029759Y0021265D01*
X0029729Y0021445D01*
X0029624Y0021625D01*
X0029459Y0021760D01*
X0029234Y0021850D01*
X0028589Y0021955D01*
X0027689Y0021985D01*
X0026789Y0021955D01*
X0026144Y0021850D01*
X0025919Y0021760D01*
X0025754Y0021625D01*
X0025649Y0021445D01*
X0025619Y0021265D01*
X0024449Y0021265D01*
X0024405Y0021447D02*
X0025650Y0021447D01*
X0025779Y0021645D02*
X0024382Y0021645D01*
X0024388Y0021844D02*
X0026128Y0021844D01*
X0025473Y0023233D02*
X0029875Y0023233D01*
X0030272Y0023035D02*
X0025073Y0023035D01*
X0024806Y0022836D02*
X0030527Y0022836D01*
X0030678Y0022638D02*
X0024655Y0022638D01*
X0024535Y0022439D02*
X0030795Y0022439D01*
X0030867Y0022241D02*
X0024456Y0022241D01*
X0024408Y0022042D02*
X0030910Y0022042D01*
X0030931Y0021844D02*
X0029250Y0021844D01*
X0029600Y0021645D02*
X0030937Y0021645D01*
X0030916Y0021447D02*
X0029728Y0021447D01*
X0029744Y0021248D02*
X0030899Y0021248D01*
X0030823Y0021050D02*
X0029724Y0021050D01*
X0029639Y0020851D02*
X0030712Y0020851D01*
X0030553Y0020653D02*
X0029413Y0020653D01*
X0030288Y0020454D02*
X0028097Y0020454D01*
X0027251Y0020454D02*
X0025106Y0020454D01*
X0026237Y0023432D02*
X0029112Y0023432D01*
X0029010Y0023829D02*
X0026260Y0023829D01*
X0026249Y0023830D02*
X0025679Y0023980D01*
X0025214Y0024205D01*
X0024854Y0024505D01*
X0024599Y0024910D01*
X0024449Y0025420D01*
X0024404Y0026035D01*
X0024419Y0026170D01*
X0024404Y0026185D01*
X0025544Y0026185D01*
X0025559Y0026290D01*
X0025679Y0026485D01*
X0025874Y0026635D01*
X0026129Y0026740D01*
X0026834Y0026845D01*
X0027719Y0026860D01*
X0028604Y0026845D01*
X0029309Y0026740D01*
X0029564Y0026635D01*
X0029759Y0026485D01*
X0029879Y0026290D01*
X0029894Y0026185D01*
X0030974Y0026185D01*
X0030944Y0026665D01*
X0030794Y0027175D01*
X0030539Y0027580D01*
X0030179Y0027895D01*
X0029714Y0028120D01*
X0029144Y0028270D01*
X0028469Y0028345D01*
X0027704Y0028375D01*
X0026939Y0028345D01*
X0026279Y0028255D01*
X0025709Y0028090D01*
X0025244Y0027850D01*
X0024884Y0027535D01*
X0024614Y0027130D01*
X0024449Y0026635D01*
X0024404Y0026185D01*
X0025514Y0026185D01*
X0025484Y0026050D01*
X0025514Y0025840D01*
X0025604Y0025660D01*
X0025769Y0025525D01*
X0025994Y0025420D01*
X0026684Y0025285D01*
X0027704Y0025240D01*
X0028724Y0025285D01*
X0029399Y0025420D01*
X0029624Y0025525D01*
X0029789Y0025660D01*
X0029879Y0025840D01*
X0029909Y0026050D01*
X0029879Y0026185D01*
X0030959Y0026185D01*
X0030974Y0026050D01*
X0030929Y0025465D01*
X0030779Y0024970D01*
X0030524Y0024565D01*
X0030164Y0024250D01*
X0029699Y0024010D01*
X0029129Y0023845D01*
X0028469Y0023755D01*
X0027704Y0023725D01*
X0026924Y0023755D01*
X0026249Y0023830D01*
X0025581Y0024027D02*
X0029733Y0024027D01*
X0030117Y0024226D02*
X0025189Y0024226D01*
X0024951Y0024424D02*
X0030363Y0024424D01*
X0030561Y0024623D02*
X0024780Y0024623D01*
X0024655Y0024821D02*
X0030686Y0024821D01*
X0030794Y0025020D02*
X0024567Y0025020D01*
X0024509Y0025218D02*
X0030855Y0025218D01*
X0030915Y0025417D02*
X0029384Y0025417D01*
X0029735Y0025615D02*
X0030941Y0025615D01*
X0030956Y0025814D02*
X0029866Y0025814D01*
X0029904Y0026012D02*
X0030971Y0026012D01*
X0030973Y0026211D02*
X0029891Y0026211D01*
X0029806Y0026409D02*
X0030960Y0026409D01*
X0030948Y0026608D02*
X0029599Y0026608D01*
X0028863Y0026806D02*
X0030903Y0026806D01*
X0030844Y0027005D02*
X0024573Y0027005D01*
X0024506Y0026806D02*
X0026576Y0026806D01*
X0025839Y0026608D02*
X0024447Y0026608D01*
X0024427Y0026409D02*
X0025633Y0026409D01*
X0025548Y0026211D02*
X0024407Y0026211D01*
X0024406Y0026012D02*
X0025490Y0026012D01*
X0025527Y0025814D02*
X0024420Y0025814D01*
X0024435Y0025615D02*
X0025659Y0025615D01*
X0026010Y0025417D02*
X0024450Y0025417D01*
X0024663Y0027203D02*
X0030776Y0027203D01*
X0030651Y0027402D02*
X0024796Y0027402D01*
X0024959Y0027601D02*
X0030516Y0027601D01*
X0030289Y0027799D02*
X0025186Y0027799D01*
X0025530Y0027998D02*
X0029967Y0027998D01*
X0029425Y0028196D02*
X0026076Y0028196D01*
X0022484Y0028990D02*
X0030824Y0028990D01*
X0030824Y0030430D01*
X0024164Y0030430D01*
X0024164Y0030460D01*
X0028604Y0031390D01*
X0030824Y0031855D01*
X0030824Y0033070D01*
X0028604Y0033535D01*
X0024164Y0034465D01*
X0024164Y0034480D01*
X0030824Y0034480D01*
X0030824Y0035920D01*
X0022484Y0035920D01*
X0022484Y0033580D01*
X0026414Y0032830D01*
X0028379Y0032455D01*
X0028379Y0032440D01*
X0026414Y0032065D01*
X0022484Y0031315D01*
X0022484Y0028990D01*
X0030824Y0028990D01*
X0030824Y0029189D02*
X0022484Y0029189D01*
X0022484Y0029387D02*
X0030824Y0029387D01*
X0030824Y0029586D02*
X0022484Y0029586D01*
X0022484Y0029784D02*
X0030824Y0029784D01*
X0030824Y0029983D02*
X0022484Y0029983D01*
X0022484Y0030181D02*
X0030824Y0030181D01*
X0030824Y0030380D02*
X0022484Y0030380D01*
X0022484Y0030578D02*
X0024728Y0030578D01*
X0025676Y0030777D02*
X0022484Y0030777D01*
X0022484Y0030975D02*
X0026624Y0030975D01*
X0027572Y0031174D02*
X0022484Y0031174D01*
X0022784Y0031372D02*
X0028519Y0031372D01*
X0029467Y0031571D02*
X0023824Y0031571D01*
X0024865Y0031769D02*
X0030415Y0031769D01*
X0030824Y0031968D02*
X0025905Y0031968D01*
X0025731Y0032960D02*
X0030824Y0032960D01*
X0030824Y0032762D02*
X0026772Y0032762D01*
X0026945Y0032166D02*
X0030824Y0032166D01*
X0030824Y0032365D02*
X0027985Y0032365D01*
X0027812Y0032563D02*
X0030824Y0032563D01*
X0030400Y0033159D02*
X0024691Y0033159D01*
X0023651Y0033357D02*
X0029452Y0033357D01*
X0028505Y0033556D02*
X0022611Y0033556D01*
X0022484Y0033754D02*
X0027557Y0033754D01*
X0026609Y0033953D02*
X0022484Y0033953D01*
X0022484Y0034151D02*
X0025661Y0034151D01*
X0024714Y0034350D02*
X0022484Y0034350D01*
X0022484Y0034548D02*
X0030824Y0034548D01*
X0030824Y0034747D02*
X0022484Y0034747D01*
X0022484Y0034945D02*
X0030824Y0034945D01*
X0030824Y0035144D02*
X0022484Y0035144D01*
X0022484Y0035342D02*
X0030824Y0035342D01*
X0030824Y0035541D02*
X0022484Y0035541D01*
X0022484Y0035739D02*
X0030824Y0035739D01*
X0021854Y0034645D02*
X0021854Y0033085D01*
X0014879Y0033085D01*
X0014879Y0031390D01*
X0013499Y0031390D01*
X0013499Y0036340D01*
X0014879Y0036340D01*
X0014879Y0034645D01*
X0021854Y0034645D01*
X0021854Y0034548D02*
X0013499Y0034548D01*
X0013499Y0034350D02*
X0021854Y0034350D01*
X0021854Y0034151D02*
X0013499Y0034151D01*
X0013499Y0033953D02*
X0021854Y0033953D01*
X0021854Y0033754D02*
X0013499Y0033754D01*
X0013499Y0033556D02*
X0021854Y0033556D01*
X0021854Y0033357D02*
X0013499Y0033357D01*
X0013499Y0033159D02*
X0021854Y0033159D01*
X0021824Y0030955D02*
X0013484Y0030955D01*
X0013484Y0029455D01*
X0013499Y0029485D01*
X0016199Y0029485D01*
X0016199Y0029455D01*
X0015839Y0029200D01*
X0015584Y0028885D01*
X0015434Y0028495D01*
X0015389Y0028030D01*
X0015419Y0027685D01*
X0015494Y0027385D01*
X0015629Y0027130D01*
X0015809Y0026920D01*
X0016049Y0026755D01*
X0016364Y0026635D01*
X0016739Y0026560D01*
X0017174Y0026530D01*
X0021854Y0026530D01*
X0021854Y0028030D01*
X0017504Y0028030D01*
X0017084Y0028075D01*
X0016814Y0028195D01*
X0016664Y0028390D01*
X0016619Y0028675D01*
X0016679Y0029020D01*
X0016754Y0029155D01*
X0016874Y0029260D01*
X0017204Y0029410D01*
X0017654Y0029455D01*
X0021824Y0029455D01*
X0021824Y0030955D01*
X0021824Y0030777D02*
X0013484Y0030777D01*
X0013484Y0030578D02*
X0021824Y0030578D01*
X0021824Y0030380D02*
X0013484Y0030380D01*
X0013484Y0030181D02*
X0021824Y0030181D01*
X0021824Y0029983D02*
X0013484Y0029983D01*
X0013484Y0029784D02*
X0021824Y0029784D01*
X0021824Y0029586D02*
X0013484Y0029586D01*
X0012839Y0029586D02*
X0004499Y0029586D01*
X0004499Y0029784D02*
X0012839Y0029784D01*
X0012839Y0029983D02*
X0004499Y0029983D01*
X0004499Y0030181D02*
X0012839Y0030181D01*
X0012839Y0030380D02*
X0004499Y0030380D01*
X0004499Y0030578D02*
X0006743Y0030578D01*
X0006179Y0030460D02*
X0008399Y0030925D01*
X0010619Y0031390D01*
X0012839Y0031855D01*
X0012839Y0033070D01*
X0010619Y0033535D01*
X0008399Y0034000D01*
X0006179Y0034465D01*
X0006179Y0034480D01*
X0012839Y0034480D01*
X0012839Y0035920D01*
X0004499Y0035920D01*
X0004499Y0033580D01*
X0006464Y0033205D01*
X0008429Y0032830D01*
X0010394Y0032455D01*
X0010394Y0032440D01*
X0008429Y0032065D01*
X0006464Y0031690D01*
X0004499Y0031315D01*
X0004499Y0028990D01*
X0012839Y0028990D01*
X0012839Y0030430D01*
X0006179Y0030430D01*
X0006179Y0030460D01*
X0005839Y0031571D02*
X0011482Y0031571D01*
X0010534Y0031372D02*
X0004799Y0031372D01*
X0004499Y0031174D02*
X0009587Y0031174D01*
X0008639Y0030975D02*
X0004499Y0030975D01*
X0004499Y0030777D02*
X0007691Y0030777D01*
X0007920Y0031968D02*
X0012839Y0031968D01*
X0012839Y0032166D02*
X0008960Y0032166D01*
X0008787Y0032762D02*
X0012839Y0032762D01*
X0012839Y0032960D02*
X0007746Y0032960D01*
X0006706Y0033159D02*
X0012415Y0033159D01*
X0012839Y0032563D02*
X0009827Y0032563D01*
X0010000Y0032365D02*
X0012839Y0032365D01*
X0013499Y0032365D02*
X0014879Y0032365D01*
X0014879Y0032563D02*
X0013499Y0032563D01*
X0013499Y0032762D02*
X0014879Y0032762D01*
X0014879Y0032960D02*
X0013499Y0032960D01*
X0013499Y0032166D02*
X0014879Y0032166D01*
X0014879Y0031968D02*
X0013499Y0031968D01*
X0013499Y0031769D02*
X0014879Y0031769D01*
X0014879Y0031571D02*
X0013499Y0031571D01*
X0012430Y0031769D02*
X0006880Y0031769D01*
X0005666Y0033357D02*
X0011467Y0033357D01*
X0010520Y0033556D02*
X0004626Y0033556D01*
X0004499Y0033754D02*
X0009572Y0033754D01*
X0008624Y0033953D02*
X0004499Y0033953D01*
X0004499Y0034151D02*
X0007676Y0034151D01*
X0006729Y0034350D02*
X0004499Y0034350D01*
X0004499Y0034548D02*
X0012839Y0034548D01*
X0012839Y0034747D02*
X0004499Y0034747D01*
X0004499Y0034945D02*
X0012839Y0034945D01*
X0012839Y0035144D02*
X0004499Y0035144D01*
X0004499Y0035342D02*
X0012839Y0035342D01*
X0012839Y0035541D02*
X0004499Y0035541D01*
X0004499Y0035739D02*
X0012839Y0035739D01*
X0013499Y0035739D02*
X0014879Y0035739D01*
X0014879Y0035541D02*
X0013499Y0035541D01*
X0013499Y0035342D02*
X0014879Y0035342D01*
X0014879Y0035144D02*
X0013499Y0035144D01*
X0013499Y0034945D02*
X0014879Y0034945D01*
X0014879Y0034747D02*
X0013499Y0034747D01*
X0013499Y0035938D02*
X0014879Y0035938D01*
X0014879Y0036137D02*
X0013499Y0036137D01*
X0013499Y0036335D02*
X0014879Y0036335D01*
X0016103Y0029387D02*
X0017154Y0029387D01*
X0016793Y0029189D02*
X0015830Y0029189D01*
X0015669Y0028990D02*
X0016674Y0028990D01*
X0016640Y0028792D02*
X0015548Y0028792D01*
X0015472Y0028593D02*
X0016632Y0028593D01*
X0016664Y0028395D02*
X0015425Y0028395D01*
X0015405Y0028196D02*
X0016813Y0028196D01*
X0015392Y0027998D02*
X0021854Y0027998D01*
X0021854Y0027799D02*
X0015409Y0027799D01*
X0015440Y0027601D02*
X0021854Y0027601D01*
X0021854Y0027402D02*
X0015490Y0027402D01*
X0015590Y0027203D02*
X0021854Y0027203D01*
X0021854Y0027005D02*
X0015736Y0027005D01*
X0015974Y0026806D02*
X0021854Y0026806D01*
X0021854Y0026608D02*
X0016499Y0026608D01*
X0012839Y0028990D02*
X0004499Y0028990D01*
X0004499Y0029189D02*
X0012839Y0029189D01*
X0012839Y0029387D02*
X0004499Y0029387D01*
X0030109Y0006955D02*
X0030869Y0006955D01*
D11*
X0469730Y0109400D02*
X0470130Y0109000D01*
X0470931Y0109000D01*
X0471331Y0109400D01*
X0470931Y0110201D02*
X0470130Y0110201D01*
X0469730Y0109801D01*
X0469730Y0109400D01*
X0470931Y0110201D02*
X0471331Y0110601D01*
X0471331Y0111002D01*
X0470931Y0111402D01*
X0470130Y0111402D01*
X0469730Y0111002D01*
X0472492Y0111402D02*
X0474093Y0111402D01*
X0473293Y0111402D02*
X0473293Y0109000D01*
X0475254Y0109400D02*
X0475655Y0109000D01*
X0476455Y0109000D01*
X0476856Y0109400D01*
X0476455Y0110201D02*
X0475655Y0110201D01*
X0475254Y0109801D01*
X0475254Y0109400D01*
X0476455Y0110201D02*
X0476856Y0110601D01*
X0476856Y0111002D01*
X0476455Y0111402D01*
X0475655Y0111402D01*
X0475254Y0111002D01*
X0475254Y0112600D02*
X0475254Y0115002D01*
X0474093Y0115002D02*
X0474093Y0112600D01*
X0472492Y0112600D01*
X0473293Y0113801D02*
X0474093Y0113801D01*
X0474093Y0115002D02*
X0472492Y0115002D01*
X0475254Y0112600D02*
X0476856Y0115002D01*
X0476856Y0112600D01*
X0477897Y0112600D02*
X0478697Y0112600D01*
X0478297Y0112600D02*
X0478297Y0115002D01*
X0478697Y0115002D02*
X0477897Y0115002D01*
X0479858Y0115002D02*
X0479858Y0112600D01*
X0479858Y0113801D02*
X0481460Y0113801D01*
X0481460Y0112600D02*
X0481460Y0115002D01*
X0482621Y0114602D02*
X0483021Y0115002D01*
X0483822Y0115002D01*
X0484222Y0114602D01*
X0484222Y0113000D01*
X0483822Y0112600D01*
X0483021Y0112600D01*
X0482621Y0113000D01*
X0485383Y0112600D02*
X0485383Y0114201D01*
X0486184Y0115002D01*
X0486984Y0114201D01*
X0486984Y0112600D01*
X0488145Y0112600D02*
X0488145Y0115002D01*
X0488946Y0114201D01*
X0489747Y0115002D01*
X0489747Y0112600D01*
X0489747Y0111402D02*
X0488145Y0111402D01*
X0486984Y0110601D02*
X0486184Y0111402D01*
X0485383Y0110601D01*
X0485383Y0109000D01*
X0485383Y0110201D02*
X0486984Y0110201D01*
X0486984Y0110601D02*
X0486984Y0109000D01*
X0488946Y0110201D02*
X0489747Y0110201D01*
X0489747Y0109000D02*
X0489747Y0111402D01*
X0493670Y0111002D02*
X0494070Y0111402D01*
X0494871Y0111402D01*
X0495271Y0111002D01*
X0495271Y0110601D01*
X0494871Y0110201D01*
X0494070Y0110201D01*
X0493670Y0109801D01*
X0493670Y0109400D01*
X0494070Y0109000D01*
X0494871Y0109000D01*
X0495271Y0109400D01*
X0496432Y0109000D02*
X0498034Y0109000D01*
X0498034Y0111402D01*
X0498274Y0112600D02*
X0498274Y0115002D01*
X0497113Y0115002D02*
X0496312Y0115002D01*
X0496713Y0115002D02*
X0496713Y0112600D01*
X0497113Y0112600D02*
X0496312Y0112600D01*
X0495271Y0113000D02*
X0494871Y0112600D01*
X0494070Y0112600D01*
X0493670Y0113000D01*
X0493670Y0113401D01*
X0494070Y0113801D01*
X0494871Y0113801D01*
X0495271Y0114201D01*
X0495271Y0114602D01*
X0494871Y0115002D01*
X0494070Y0115002D01*
X0493670Y0114602D01*
X0498274Y0113801D02*
X0499875Y0113801D01*
X0499875Y0112600D02*
X0499875Y0115002D01*
X0501036Y0115002D02*
X0502638Y0115002D01*
X0501837Y0115002D02*
X0501837Y0112600D01*
X0501837Y0111402D02*
X0502638Y0111402D01*
X0502237Y0111402D02*
X0502237Y0109000D01*
X0501837Y0109000D02*
X0502638Y0109000D01*
X0503799Y0109000D02*
X0505000Y0110201D01*
X0505400Y0109801D02*
X0503799Y0111402D01*
X0505400Y0111402D02*
X0505400Y0109000D01*
X0500796Y0109000D02*
X0499195Y0109000D01*
X0500796Y0109000D02*
X0500796Y0111402D01*
X0486984Y0113801D02*
X0485383Y0113801D01*
X0483822Y0111402D02*
X0484222Y0111002D01*
X0484222Y0110601D01*
X0483822Y0110201D01*
X0483021Y0110201D01*
X0482621Y0109801D01*
X0482621Y0109400D01*
X0483021Y0109000D01*
X0483822Y0109000D01*
X0484222Y0109400D01*
X0483822Y0111402D02*
X0483021Y0111402D01*
X0482621Y0111002D01*
X0481460Y0111002D02*
X0481460Y0109400D01*
X0481059Y0109000D01*
X0480259Y0109000D01*
X0479858Y0109400D01*
X0478697Y0109000D02*
X0477897Y0109000D01*
X0478297Y0109000D02*
X0478297Y0111402D01*
X0478697Y0111402D02*
X0477897Y0111402D01*
X0479858Y0111002D02*
X0480259Y0111402D01*
X0481059Y0111402D01*
X0481460Y0111002D01*
D12*
X0467284Y0107000D02*
X0507284Y0107000D01*
X0507284Y0117000D01*
X0467284Y0117000D01*
X0467284Y0107000D01*
D13*
X0465484Y0106502D02*
X0004584Y0106502D01*
X0004584Y0104903D02*
X0506890Y0104903D01*
X0506890Y0105200D02*
X0506890Y0002800D01*
X0027456Y0002800D01*
X0027449Y0002907D01*
X0027449Y0002965D01*
X0031461Y0002965D01*
X0032339Y0003844D01*
X0032339Y0006139D01*
X0032369Y0006169D01*
X0032369Y0006580D01*
X0032482Y0006975D01*
X0032369Y0007179D01*
X0032369Y0007966D01*
X0032491Y0008301D01*
X0032369Y0008563D01*
X0032369Y0008728D01*
X0032374Y0008736D01*
X0032389Y0008749D01*
X0032390Y0008765D01*
X0032454Y0008882D01*
X0032407Y0009042D01*
X0032417Y0009210D01*
X0032478Y0009427D01*
X0032506Y0009460D01*
X0032501Y0009512D01*
X0032541Y0009654D01*
X0032481Y0009762D01*
X0032463Y0009972D01*
X0032468Y0010053D01*
X0032550Y0010224D01*
X0032489Y0010399D01*
X0032494Y0010484D01*
X0032436Y0010550D01*
X0032408Y0010630D01*
X0032384Y0010924D01*
X0032397Y0011018D01*
X0032373Y0011050D01*
X0032372Y0011059D01*
X0032356Y0011073D01*
X0032201Y0011280D01*
X0032324Y0011404D01*
X0032324Y0013474D01*
X0032369Y0013519D01*
X0032369Y0015922D01*
X0032404Y0016277D01*
X0032520Y0016592D01*
X0032524Y0016597D01*
X0032524Y0016602D01*
X0032552Y0016677D01*
X0032509Y0016770D01*
X0032482Y0017058D01*
X0032550Y0017171D01*
X0032507Y0017344D01*
X0032527Y0017554D01*
X0032444Y0017655D01*
X0032491Y0017787D01*
X0032398Y0017984D01*
X0032382Y0018165D01*
X0032291Y0018240D01*
X0032339Y0018289D01*
X0032339Y0020569D01*
X0032414Y0020644D01*
X0032414Y0020971D01*
X0032519Y0021180D01*
X0032500Y0021238D01*
X0032522Y0021297D01*
X0032488Y0021374D01*
X0032453Y0021712D01*
X0032482Y0021992D01*
X0032521Y0022073D01*
X0032498Y0022137D01*
X0032502Y0022173D01*
X0032472Y0022210D01*
X0032372Y0022486D01*
X0032329Y0022905D01*
X0032334Y0022940D01*
X0032097Y0023250D01*
X0031965Y0023618D01*
X0031935Y0023632D01*
X0031933Y0023647D01*
X0031837Y0023721D01*
X0031980Y0023845D01*
X0031984Y0023913D01*
X0032035Y0023940D01*
X0032156Y0024342D01*
X0032380Y0024697D01*
X0032373Y0024727D01*
X0032377Y0024730D01*
X0032412Y0025187D01*
X0032545Y0025625D01*
X0032527Y0025658D01*
X0032488Y0026006D01*
X0032482Y0026100D01*
X0032505Y0026394D01*
X0032559Y0026492D01*
X0032474Y0026779D01*
X0032474Y0026806D01*
X0032463Y0026818D01*
X0032431Y0026927D01*
X0032403Y0027379D01*
X0032383Y0027396D01*
X0032395Y0027448D01*
X0032175Y0027798D01*
X0032079Y0028123D01*
X0032324Y0028369D01*
X0032324Y0031051D01*
X0032233Y0031142D01*
X0032324Y0031234D01*
X0032324Y0031408D01*
X0032420Y0031554D01*
X0032324Y0032010D01*
X0032324Y0032915D01*
X0032420Y0033371D01*
X0032324Y0033517D01*
X0032324Y0033691D01*
X0032241Y0033775D01*
X0032324Y0033859D01*
X0032324Y0036541D01*
X0031446Y0037420D01*
X0021863Y0037420D01*
X0020984Y0036541D01*
X0020984Y0036145D01*
X0016379Y0036145D01*
X0016379Y0036961D01*
X0015501Y0037840D01*
X0012878Y0037840D01*
X0012458Y0037420D01*
X0004584Y0037420D01*
X0004584Y0117310D01*
X0465484Y0117310D01*
X0465484Y0106254D01*
X0466539Y0105200D01*
X0506890Y0105200D01*
X0506890Y0103305D02*
X0004584Y0103305D01*
X0004584Y0101706D02*
X0010616Y0101706D01*
X0010005Y0101453D02*
X0012983Y0102687D01*
X0016207Y0102687D01*
X0019186Y0101453D01*
X0019186Y0101453D01*
X0021466Y0099173D01*
X0021466Y0099173D01*
X0022699Y0096195D01*
X0022699Y0095330D01*
X0022699Y0095330D01*
X0022699Y0083835D01*
X0022699Y0082971D01*
X0021466Y0079992D01*
X0021466Y0079992D01*
X0019186Y0077712D01*
X0019186Y0077712D01*
X0016207Y0076478D01*
X0012983Y0076478D01*
X0010005Y0077712D01*
X0010005Y0077712D01*
X0007725Y0079992D01*
X0006491Y0082971D01*
X0006491Y0082971D01*
X0006491Y0083835D01*
X0006491Y0083835D01*
X0006491Y0095029D01*
X0006491Y0096195D01*
X0007725Y0099173D01*
X0007725Y0099173D01*
X0010005Y0101453D01*
X0010005Y0101453D01*
X0008659Y0100108D02*
X0004584Y0100108D01*
X0004584Y0098509D02*
X0007450Y0098509D01*
X0006788Y0096911D02*
X0004584Y0096911D01*
X0004584Y0095312D02*
X0006491Y0095312D01*
X0006491Y0093714D02*
X0004584Y0093714D01*
X0004584Y0092115D02*
X0006491Y0092115D01*
X0006491Y0090517D02*
X0004584Y0090517D01*
X0004584Y0088918D02*
X0006491Y0088918D01*
X0006491Y0087320D02*
X0004584Y0087320D01*
X0004584Y0085721D02*
X0006491Y0085721D01*
X0006491Y0084123D02*
X0004584Y0084123D01*
X0004584Y0082524D02*
X0006676Y0082524D01*
X0007338Y0080926D02*
X0004584Y0080926D01*
X0004584Y0079327D02*
X0008390Y0079327D01*
X0009988Y0077729D02*
X0004584Y0077729D01*
X0004584Y0076130D02*
X0506890Y0076130D01*
X0506890Y0074532D02*
X0004584Y0074532D01*
X0004584Y0072933D02*
X0506890Y0072933D01*
X0506890Y0071334D02*
X0004584Y0071334D01*
X0004584Y0069736D02*
X0506890Y0069736D01*
X0506890Y0068137D02*
X0004584Y0068137D01*
X0004584Y0066539D02*
X0506890Y0066539D01*
X0506890Y0064940D02*
X0004584Y0064940D01*
X0004584Y0063342D02*
X0506890Y0063342D01*
X0506890Y0061743D02*
X0004584Y0061743D01*
X0004584Y0060145D02*
X0506890Y0060145D01*
X0506890Y0058546D02*
X0004584Y0058546D01*
X0004584Y0056948D02*
X0506890Y0056948D01*
X0506890Y0055349D02*
X0004584Y0055349D01*
X0004584Y0053751D02*
X0506890Y0053751D01*
X0506890Y0052152D02*
X0004584Y0052152D01*
X0004584Y0050554D02*
X0506890Y0050554D01*
X0506890Y0048955D02*
X0004584Y0048955D01*
X0004584Y0047357D02*
X0506890Y0047357D01*
X0506890Y0045758D02*
X0004584Y0045758D01*
X0004584Y0044160D02*
X0506890Y0044160D01*
X0506890Y0042561D02*
X0004584Y0042561D01*
X0004584Y0040963D02*
X0506890Y0040963D01*
X0506890Y0039364D02*
X0004584Y0039364D01*
X0004584Y0037766D02*
X0012804Y0037766D01*
X0015575Y0037766D02*
X0506890Y0037766D01*
X0506890Y0036167D02*
X0032324Y0036167D01*
X0032324Y0034569D02*
X0506890Y0034569D01*
X0506890Y0032970D02*
X0032336Y0032970D01*
X0032324Y0031372D02*
X0506890Y0031372D01*
X0506890Y0029773D02*
X0032324Y0029773D01*
X0032130Y0028175D02*
X0506890Y0028175D01*
X0506890Y0026576D02*
X0032534Y0026576D01*
X0032396Y0024978D02*
X0506890Y0024978D01*
X0506890Y0023379D02*
X0032051Y0023379D01*
X0032460Y0021781D02*
X0506890Y0021781D01*
X0506890Y0020182D02*
X0032339Y0020182D01*
X0032339Y0018584D02*
X0506890Y0018584D01*
X0506890Y0016985D02*
X0032489Y0016985D01*
X0032369Y0015387D02*
X0506890Y0015387D01*
X0506890Y0013788D02*
X0032369Y0013788D01*
X0032324Y0012190D02*
X0506890Y0012190D01*
X0506890Y0010591D02*
X0032422Y0010591D01*
X0032421Y0008993D02*
X0506890Y0008993D01*
X0506890Y0007394D02*
X0032369Y0007394D01*
X0032339Y0005796D02*
X0506890Y0005796D01*
X0506890Y0004197D02*
X0032339Y0004197D01*
X0020984Y0036167D02*
X0016379Y0036167D01*
X0019202Y0077729D02*
X0492272Y0077729D01*
X0492288Y0077712D02*
X0495267Y0076478D01*
X0498491Y0076478D01*
X0501469Y0077712D01*
X0501469Y0077712D01*
X0503749Y0079992D01*
X0504983Y0082971D01*
X0504983Y0085330D01*
X0504983Y0095330D01*
X0504983Y0095330D01*
X0504983Y0096195D01*
X0503749Y0099173D01*
X0503749Y0099173D01*
X0501469Y0101453D01*
X0498491Y0102687D01*
X0495267Y0102687D01*
X0492288Y0101453D01*
X0490008Y0099173D01*
X0488775Y0096195D01*
X0488775Y0093979D01*
X0488775Y0083835D01*
X0488775Y0082971D01*
X0490008Y0079992D01*
X0492288Y0077712D01*
X0492288Y0077712D01*
X0490673Y0079327D02*
X0020801Y0079327D01*
X0021852Y0080926D02*
X0489622Y0080926D01*
X0490008Y0079992D02*
X0490008Y0079992D01*
X0488959Y0082524D02*
X0022514Y0082524D01*
X0022699Y0084123D02*
X0488775Y0084123D01*
X0488775Y0083835D02*
X0488775Y0083835D01*
X0488775Y0085721D02*
X0022699Y0085721D01*
X0022699Y0087320D02*
X0488775Y0087320D01*
X0488775Y0088918D02*
X0022699Y0088918D01*
X0022699Y0090517D02*
X0488775Y0090517D01*
X0488775Y0092115D02*
X0022699Y0092115D01*
X0022699Y0093714D02*
X0488775Y0093714D01*
X0488775Y0095312D02*
X0022699Y0095312D01*
X0022403Y0096911D02*
X0489071Y0096911D01*
X0489733Y0098509D02*
X0021741Y0098509D01*
X0020531Y0100108D02*
X0490943Y0100108D01*
X0490008Y0099173D02*
X0490008Y0099173D01*
X0492288Y0101453D02*
X0492288Y0101453D01*
X0492899Y0101706D02*
X0018575Y0101706D01*
X0004584Y0108100D02*
X0465484Y0108100D01*
X0465484Y0109699D02*
X0004584Y0109699D01*
X0004584Y0111297D02*
X0465484Y0111297D01*
X0465484Y0112896D02*
X0004584Y0112896D01*
X0004584Y0114494D02*
X0465484Y0114494D01*
X0465484Y0116093D02*
X0004584Y0116093D01*
X0500858Y0101706D02*
X0506890Y0101706D01*
X0506890Y0100108D02*
X0502815Y0100108D01*
X0501469Y0101453D02*
X0501469Y0101453D01*
X0504024Y0098509D02*
X0506890Y0098509D01*
X0506890Y0096911D02*
X0504686Y0096911D01*
X0504983Y0095312D02*
X0506890Y0095312D01*
X0506890Y0093714D02*
X0504983Y0093714D01*
X0504983Y0092115D02*
X0506890Y0092115D01*
X0506890Y0090517D02*
X0504983Y0090517D01*
X0504983Y0088918D02*
X0506890Y0088918D01*
X0506890Y0087320D02*
X0504983Y0087320D01*
X0504983Y0085721D02*
X0506890Y0085721D01*
X0506890Y0084123D02*
X0504983Y0084123D01*
X0504798Y0082524D02*
X0506890Y0082524D01*
X0506890Y0080926D02*
X0504136Y0080926D01*
X0503749Y0079992D02*
X0503749Y0079992D01*
X0503084Y0079327D02*
X0506890Y0079327D01*
X0506890Y0077729D02*
X0501486Y0077729D01*
D14*
X0443670Y0096984D03*
X0067420Y0023234D03*
M02*
