G75*
%MOIN*%
%OFA0B0*%
%FSLAX25Y25*%
%IPPOS*%
%LPD*%
%AMOC8*
5,1,8,0,0,1.08239X$1,22.5*
%
%ADD10C,0.05124*%
%ADD11C,0.06896*%
%ADD12C,0.01064*%
%ADD13R,0.06699X0.07487*%
%ADD14C,0.02169*%
%ADD15R,0.02762X0.09061*%
%ADD16R,0.05912X0.05912*%
%ADD17R,0.40000X0.10000*%
%ADD18C,0.05000*%
%ADD19C,0.06306*%
D10*
X0152224Y0017509D03*
X0166366Y0031651D03*
X0204724Y0017509D03*
X0218866Y0031651D03*
X0257224Y0017509D03*
X0271366Y0031651D03*
X0309724Y0017509D03*
X0323866Y0031651D03*
X0362224Y0017509D03*
X0376366Y0031651D03*
X0414724Y0017509D03*
X0428866Y0031651D03*
X0467224Y0017509D03*
X0481366Y0031651D03*
X0375300Y0095291D03*
X0382371Y0102362D03*
X0389442Y0109433D03*
X0396514Y0116504D03*
X0344014Y0116504D03*
X0336942Y0109433D03*
X0329871Y0102362D03*
X0322800Y0095291D03*
X0284442Y0109433D03*
X0277371Y0102362D03*
X0270300Y0095291D03*
X0231942Y0109433D03*
X0224871Y0102362D03*
X0217800Y0095291D03*
X0179442Y0109433D03*
X0172371Y0102362D03*
X0165300Y0095291D03*
X0126942Y0109433D03*
X0119871Y0102362D03*
X0112800Y0095291D03*
X0074442Y0109433D03*
X0067371Y0102362D03*
X0060300Y0095291D03*
X0081514Y0116504D03*
X0134014Y0116504D03*
X0186514Y0116504D03*
X0239014Y0116504D03*
X0291514Y0116504D03*
D11*
X0063648Y0025971D03*
X0097113Y0025971D03*
X0108924Y0025971D03*
X0433993Y0099721D03*
X0445804Y0099721D03*
X0479268Y0099721D03*
D12*
X0426195Y0107100D02*
X0426195Y0112342D01*
X0430451Y0112342D01*
X0430451Y0107100D01*
X0426195Y0107100D01*
X0426195Y0108163D02*
X0430451Y0108163D01*
X0430451Y0109226D02*
X0426195Y0109226D01*
X0426195Y0110289D02*
X0430451Y0110289D01*
X0430451Y0111352D02*
X0426195Y0111352D01*
X0418715Y0112342D02*
X0418715Y0107100D01*
X0418715Y0112342D02*
X0422971Y0112342D01*
X0422971Y0107100D01*
X0418715Y0107100D01*
X0418715Y0108163D02*
X0422971Y0108163D01*
X0422971Y0109226D02*
X0418715Y0109226D01*
X0418715Y0110289D02*
X0422971Y0110289D01*
X0422971Y0111352D02*
X0418715Y0111352D01*
X0415451Y0112342D02*
X0415451Y0107100D01*
X0411195Y0107100D01*
X0411195Y0112342D01*
X0415451Y0112342D01*
X0415451Y0108163D02*
X0411195Y0108163D01*
X0411195Y0109226D02*
X0415451Y0109226D01*
X0415451Y0110289D02*
X0411195Y0110289D01*
X0411195Y0111352D02*
X0415451Y0111352D01*
X0407971Y0112342D02*
X0407971Y0107100D01*
X0403715Y0107100D01*
X0403715Y0112342D01*
X0407971Y0112342D01*
X0407971Y0108163D02*
X0403715Y0108163D01*
X0403715Y0109226D02*
X0407971Y0109226D01*
X0407971Y0110289D02*
X0403715Y0110289D01*
X0403715Y0111352D02*
X0407971Y0111352D01*
X0407951Y0104842D02*
X0407951Y0099600D01*
X0403695Y0099600D01*
X0403695Y0104842D01*
X0407951Y0104842D01*
X0407951Y0100663D02*
X0403695Y0100663D01*
X0403695Y0101726D02*
X0407951Y0101726D01*
X0407951Y0102789D02*
X0403695Y0102789D01*
X0403695Y0103852D02*
X0407951Y0103852D01*
X0400471Y0104842D02*
X0400471Y0099600D01*
X0396215Y0099600D01*
X0396215Y0104842D01*
X0400471Y0104842D01*
X0400471Y0100663D02*
X0396215Y0100663D01*
X0396215Y0101726D02*
X0400471Y0101726D01*
X0400471Y0102789D02*
X0396215Y0102789D01*
X0396215Y0103852D02*
X0400471Y0103852D01*
X0400451Y0097342D02*
X0400451Y0092100D01*
X0396195Y0092100D01*
X0396195Y0097342D01*
X0400451Y0097342D01*
X0400451Y0093163D02*
X0396195Y0093163D01*
X0396195Y0094226D02*
X0400451Y0094226D01*
X0400451Y0095289D02*
X0396195Y0095289D01*
X0396195Y0096352D02*
X0400451Y0096352D01*
X0392971Y0097342D02*
X0392971Y0092100D01*
X0388715Y0092100D01*
X0388715Y0097342D01*
X0392971Y0097342D01*
X0392971Y0093163D02*
X0388715Y0093163D01*
X0388715Y0094226D02*
X0392971Y0094226D01*
X0392971Y0095289D02*
X0388715Y0095289D01*
X0388715Y0096352D02*
X0392971Y0096352D01*
X0392971Y0089842D02*
X0392971Y0084600D01*
X0388715Y0084600D01*
X0388715Y0089842D01*
X0392971Y0089842D01*
X0392971Y0085663D02*
X0388715Y0085663D01*
X0388715Y0086726D02*
X0392971Y0086726D01*
X0392971Y0087789D02*
X0388715Y0087789D01*
X0388715Y0088852D02*
X0392971Y0088852D01*
X0400451Y0089842D02*
X0400451Y0084600D01*
X0396195Y0084600D01*
X0396195Y0089842D01*
X0400451Y0089842D01*
X0400451Y0085663D02*
X0396195Y0085663D01*
X0396195Y0086726D02*
X0400451Y0086726D01*
X0400451Y0087789D02*
X0396195Y0087789D01*
X0396195Y0088852D02*
X0400451Y0088852D01*
X0400451Y0082342D02*
X0400451Y0077100D01*
X0396195Y0077100D01*
X0396195Y0082342D01*
X0400451Y0082342D01*
X0400451Y0078163D02*
X0396195Y0078163D01*
X0396195Y0079226D02*
X0400451Y0079226D01*
X0400451Y0080289D02*
X0396195Y0080289D01*
X0396195Y0081352D02*
X0400451Y0081352D01*
X0392971Y0082342D02*
X0392971Y0077100D01*
X0388715Y0077100D01*
X0388715Y0082342D01*
X0392971Y0082342D01*
X0392971Y0078163D02*
X0388715Y0078163D01*
X0388715Y0079226D02*
X0392971Y0079226D01*
X0392971Y0080289D02*
X0388715Y0080289D01*
X0388715Y0081352D02*
X0392971Y0081352D01*
X0355451Y0082342D02*
X0355451Y0077100D01*
X0351195Y0077100D01*
X0351195Y0082342D01*
X0355451Y0082342D01*
X0355451Y0078163D02*
X0351195Y0078163D01*
X0351195Y0079226D02*
X0355451Y0079226D01*
X0355451Y0080289D02*
X0351195Y0080289D01*
X0351195Y0081352D02*
X0355451Y0081352D01*
X0355451Y0084600D02*
X0355451Y0089842D01*
X0355451Y0084600D02*
X0351195Y0084600D01*
X0351195Y0089842D01*
X0355451Y0089842D01*
X0355451Y0085663D02*
X0351195Y0085663D01*
X0351195Y0086726D02*
X0355451Y0086726D01*
X0355451Y0087789D02*
X0351195Y0087789D01*
X0351195Y0088852D02*
X0355451Y0088852D01*
X0355451Y0092100D02*
X0355451Y0097342D01*
X0355451Y0092100D02*
X0351195Y0092100D01*
X0351195Y0097342D01*
X0355451Y0097342D01*
X0355451Y0093163D02*
X0351195Y0093163D01*
X0351195Y0094226D02*
X0355451Y0094226D01*
X0355451Y0095289D02*
X0351195Y0095289D01*
X0351195Y0096352D02*
X0355451Y0096352D01*
X0347971Y0097342D02*
X0347971Y0092100D01*
X0343715Y0092100D01*
X0343715Y0097342D01*
X0347971Y0097342D01*
X0347971Y0093163D02*
X0343715Y0093163D01*
X0343715Y0094226D02*
X0347971Y0094226D01*
X0347971Y0095289D02*
X0343715Y0095289D01*
X0343715Y0096352D02*
X0347971Y0096352D01*
X0347971Y0099600D02*
X0347971Y0104842D01*
X0347971Y0099600D02*
X0343715Y0099600D01*
X0343715Y0104842D01*
X0347971Y0104842D01*
X0347971Y0100663D02*
X0343715Y0100663D01*
X0343715Y0101726D02*
X0347971Y0101726D01*
X0347971Y0102789D02*
X0343715Y0102789D01*
X0343715Y0103852D02*
X0347971Y0103852D01*
X0355451Y0104842D02*
X0355451Y0099600D01*
X0351195Y0099600D01*
X0351195Y0104842D01*
X0355451Y0104842D01*
X0355451Y0100663D02*
X0351195Y0100663D01*
X0351195Y0101726D02*
X0355451Y0101726D01*
X0355451Y0102789D02*
X0351195Y0102789D01*
X0351195Y0103852D02*
X0355451Y0103852D01*
X0355471Y0107100D02*
X0355471Y0112342D01*
X0355471Y0107100D02*
X0351215Y0107100D01*
X0351215Y0112342D01*
X0355471Y0112342D01*
X0355471Y0108163D02*
X0351215Y0108163D01*
X0351215Y0109226D02*
X0355471Y0109226D01*
X0355471Y0110289D02*
X0351215Y0110289D01*
X0351215Y0111352D02*
X0355471Y0111352D01*
X0362951Y0112342D02*
X0362951Y0107100D01*
X0358695Y0107100D01*
X0358695Y0112342D01*
X0362951Y0112342D01*
X0362951Y0108163D02*
X0358695Y0108163D01*
X0358695Y0109226D02*
X0362951Y0109226D01*
X0362951Y0110289D02*
X0358695Y0110289D01*
X0358695Y0111352D02*
X0362951Y0111352D01*
X0366215Y0112342D02*
X0366215Y0107100D01*
X0366215Y0112342D02*
X0370471Y0112342D01*
X0370471Y0107100D01*
X0366215Y0107100D01*
X0366215Y0108163D02*
X0370471Y0108163D01*
X0370471Y0109226D02*
X0366215Y0109226D01*
X0366215Y0110289D02*
X0370471Y0110289D01*
X0370471Y0111352D02*
X0366215Y0111352D01*
X0373695Y0112342D02*
X0373695Y0107100D01*
X0373695Y0112342D02*
X0377951Y0112342D01*
X0377951Y0107100D01*
X0373695Y0107100D01*
X0373695Y0108163D02*
X0377951Y0108163D01*
X0377951Y0109226D02*
X0373695Y0109226D01*
X0373695Y0110289D02*
X0377951Y0110289D01*
X0377951Y0111352D02*
X0373695Y0111352D01*
X0347971Y0089842D02*
X0347971Y0084600D01*
X0343715Y0084600D01*
X0343715Y0089842D01*
X0347971Y0089842D01*
X0347971Y0085663D02*
X0343715Y0085663D01*
X0343715Y0086726D02*
X0347971Y0086726D01*
X0347971Y0087789D02*
X0343715Y0087789D01*
X0343715Y0088852D02*
X0347971Y0088852D01*
X0347971Y0082342D02*
X0347971Y0077100D01*
X0343715Y0077100D01*
X0343715Y0082342D01*
X0347971Y0082342D01*
X0347971Y0078163D02*
X0343715Y0078163D01*
X0343715Y0079226D02*
X0347971Y0079226D01*
X0347971Y0080289D02*
X0343715Y0080289D01*
X0343715Y0081352D02*
X0347971Y0081352D01*
X0349221Y0069842D02*
X0349221Y0064600D01*
X0344965Y0064600D01*
X0344965Y0069842D01*
X0349221Y0069842D01*
X0349221Y0065663D02*
X0344965Y0065663D01*
X0344965Y0066726D02*
X0349221Y0066726D01*
X0349221Y0067789D02*
X0344965Y0067789D01*
X0344965Y0068852D02*
X0349221Y0068852D01*
X0356701Y0069842D02*
X0356701Y0064600D01*
X0352445Y0064600D01*
X0352445Y0069842D01*
X0356701Y0069842D01*
X0356701Y0065663D02*
X0352445Y0065663D01*
X0352445Y0066726D02*
X0356701Y0066726D01*
X0356701Y0067789D02*
X0352445Y0067789D01*
X0352445Y0068852D02*
X0356701Y0068852D01*
X0356701Y0048592D02*
X0356701Y0043350D01*
X0352445Y0043350D01*
X0352445Y0048592D01*
X0356701Y0048592D01*
X0356701Y0044413D02*
X0352445Y0044413D01*
X0352445Y0045476D02*
X0356701Y0045476D01*
X0356701Y0046539D02*
X0352445Y0046539D01*
X0352445Y0047602D02*
X0356701Y0047602D01*
X0349221Y0048592D02*
X0349221Y0043350D01*
X0344965Y0043350D01*
X0344965Y0048592D01*
X0349221Y0048592D01*
X0349221Y0044413D02*
X0344965Y0044413D01*
X0344965Y0045476D02*
X0349221Y0045476D01*
X0349221Y0046539D02*
X0344965Y0046539D01*
X0344965Y0047602D02*
X0349221Y0047602D01*
X0344704Y0028833D02*
X0339462Y0028833D01*
X0339462Y0033089D01*
X0344704Y0033089D01*
X0344704Y0028833D01*
X0344704Y0029896D02*
X0339462Y0029896D01*
X0339462Y0030959D02*
X0344704Y0030959D01*
X0344704Y0032022D02*
X0339462Y0032022D01*
X0339462Y0033085D02*
X0344704Y0033085D01*
X0344704Y0021353D02*
X0339462Y0021353D01*
X0339462Y0025609D01*
X0344704Y0025609D01*
X0344704Y0021353D01*
X0344704Y0022416D02*
X0339462Y0022416D01*
X0339462Y0023479D02*
X0344704Y0023479D01*
X0344704Y0024542D02*
X0339462Y0024542D01*
X0339462Y0025605D02*
X0344704Y0025605D01*
X0384462Y0021353D02*
X0389704Y0021353D01*
X0384462Y0021353D02*
X0384462Y0025609D01*
X0389704Y0025609D01*
X0389704Y0021353D01*
X0389704Y0022416D02*
X0384462Y0022416D01*
X0384462Y0023479D02*
X0389704Y0023479D01*
X0389704Y0024542D02*
X0384462Y0024542D01*
X0384462Y0025605D02*
X0389704Y0025605D01*
X0389704Y0028833D02*
X0384462Y0028833D01*
X0384462Y0033089D01*
X0389704Y0033089D01*
X0389704Y0028833D01*
X0389704Y0029896D02*
X0384462Y0029896D01*
X0384462Y0030959D02*
X0389704Y0030959D01*
X0389704Y0032022D02*
X0384462Y0032022D01*
X0384462Y0033085D02*
X0389704Y0033085D01*
X0400712Y0028833D02*
X0405954Y0028833D01*
X0400712Y0028833D02*
X0400712Y0033089D01*
X0405954Y0033089D01*
X0405954Y0028833D01*
X0405954Y0029896D02*
X0400712Y0029896D01*
X0400712Y0030959D02*
X0405954Y0030959D01*
X0405954Y0032022D02*
X0400712Y0032022D01*
X0400712Y0033085D02*
X0405954Y0033085D01*
X0405954Y0021353D02*
X0400712Y0021353D01*
X0400712Y0025609D01*
X0405954Y0025609D01*
X0405954Y0021353D01*
X0405954Y0022416D02*
X0400712Y0022416D01*
X0400712Y0023479D02*
X0405954Y0023479D01*
X0405954Y0024542D02*
X0400712Y0024542D01*
X0400712Y0025605D02*
X0405954Y0025605D01*
X0463715Y0023350D02*
X0463715Y0028592D01*
X0467971Y0028592D01*
X0467971Y0023350D01*
X0463715Y0023350D01*
X0463715Y0024413D02*
X0467971Y0024413D01*
X0467971Y0025476D02*
X0463715Y0025476D01*
X0463715Y0026539D02*
X0467971Y0026539D01*
X0467971Y0027602D02*
X0463715Y0027602D01*
X0471195Y0028592D02*
X0471195Y0023350D01*
X0471195Y0028592D02*
X0475451Y0028592D01*
X0475451Y0023350D01*
X0471195Y0023350D01*
X0471195Y0024413D02*
X0475451Y0024413D01*
X0475451Y0025476D02*
X0471195Y0025476D01*
X0471195Y0026539D02*
X0475451Y0026539D01*
X0475451Y0027602D02*
X0471195Y0027602D01*
X0302951Y0077100D02*
X0302951Y0082342D01*
X0302951Y0077100D02*
X0298695Y0077100D01*
X0298695Y0082342D01*
X0302951Y0082342D01*
X0302951Y0078163D02*
X0298695Y0078163D01*
X0298695Y0079226D02*
X0302951Y0079226D01*
X0302951Y0080289D02*
X0298695Y0080289D01*
X0298695Y0081352D02*
X0302951Y0081352D01*
X0302951Y0084600D02*
X0302951Y0089842D01*
X0302951Y0084600D02*
X0298695Y0084600D01*
X0298695Y0089842D01*
X0302951Y0089842D01*
X0302951Y0085663D02*
X0298695Y0085663D01*
X0298695Y0086726D02*
X0302951Y0086726D01*
X0302951Y0087789D02*
X0298695Y0087789D01*
X0298695Y0088852D02*
X0302951Y0088852D01*
X0302951Y0092100D02*
X0302951Y0097342D01*
X0302951Y0092100D02*
X0298695Y0092100D01*
X0298695Y0097342D01*
X0302951Y0097342D01*
X0302951Y0093163D02*
X0298695Y0093163D01*
X0298695Y0094226D02*
X0302951Y0094226D01*
X0302951Y0095289D02*
X0298695Y0095289D01*
X0298695Y0096352D02*
X0302951Y0096352D01*
X0295471Y0097342D02*
X0295471Y0092100D01*
X0291215Y0092100D01*
X0291215Y0097342D01*
X0295471Y0097342D01*
X0295471Y0093163D02*
X0291215Y0093163D01*
X0291215Y0094226D02*
X0295471Y0094226D01*
X0295471Y0095289D02*
X0291215Y0095289D01*
X0291215Y0096352D02*
X0295471Y0096352D01*
X0295471Y0099600D02*
X0295471Y0104842D01*
X0295471Y0099600D02*
X0291215Y0099600D01*
X0291215Y0104842D01*
X0295471Y0104842D01*
X0295471Y0100663D02*
X0291215Y0100663D01*
X0291215Y0101726D02*
X0295471Y0101726D01*
X0295471Y0102789D02*
X0291215Y0102789D01*
X0291215Y0103852D02*
X0295471Y0103852D01*
X0302951Y0104842D02*
X0302951Y0099600D01*
X0298695Y0099600D01*
X0298695Y0104842D01*
X0302951Y0104842D01*
X0302951Y0100663D02*
X0298695Y0100663D01*
X0298695Y0101726D02*
X0302951Y0101726D01*
X0302951Y0102789D02*
X0298695Y0102789D01*
X0298695Y0103852D02*
X0302951Y0103852D01*
X0302971Y0107100D02*
X0302971Y0112342D01*
X0302971Y0107100D02*
X0298715Y0107100D01*
X0298715Y0112342D01*
X0302971Y0112342D01*
X0302971Y0108163D02*
X0298715Y0108163D01*
X0298715Y0109226D02*
X0302971Y0109226D01*
X0302971Y0110289D02*
X0298715Y0110289D01*
X0298715Y0111352D02*
X0302971Y0111352D01*
X0310451Y0112342D02*
X0310451Y0107100D01*
X0306195Y0107100D01*
X0306195Y0112342D01*
X0310451Y0112342D01*
X0310451Y0108163D02*
X0306195Y0108163D01*
X0306195Y0109226D02*
X0310451Y0109226D01*
X0310451Y0110289D02*
X0306195Y0110289D01*
X0306195Y0111352D02*
X0310451Y0111352D01*
X0317971Y0112342D02*
X0317971Y0107100D01*
X0313715Y0107100D01*
X0313715Y0112342D01*
X0317971Y0112342D01*
X0317971Y0108163D02*
X0313715Y0108163D01*
X0313715Y0109226D02*
X0317971Y0109226D01*
X0317971Y0110289D02*
X0313715Y0110289D01*
X0313715Y0111352D02*
X0317971Y0111352D01*
X0325451Y0112342D02*
X0325451Y0107100D01*
X0321195Y0107100D01*
X0321195Y0112342D01*
X0325451Y0112342D01*
X0325451Y0108163D02*
X0321195Y0108163D01*
X0321195Y0109226D02*
X0325451Y0109226D01*
X0325451Y0110289D02*
X0321195Y0110289D01*
X0321195Y0111352D02*
X0325451Y0111352D01*
X0295471Y0089842D02*
X0295471Y0084600D01*
X0291215Y0084600D01*
X0291215Y0089842D01*
X0295471Y0089842D01*
X0295471Y0085663D02*
X0291215Y0085663D01*
X0291215Y0086726D02*
X0295471Y0086726D01*
X0295471Y0087789D02*
X0291215Y0087789D01*
X0291215Y0088852D02*
X0295471Y0088852D01*
X0295471Y0082342D02*
X0295471Y0077100D01*
X0291215Y0077100D01*
X0291215Y0082342D01*
X0295471Y0082342D01*
X0295471Y0078163D02*
X0291215Y0078163D01*
X0291215Y0079226D02*
X0295471Y0079226D01*
X0295471Y0080289D02*
X0291215Y0080289D01*
X0291215Y0081352D02*
X0295471Y0081352D01*
X0277204Y0072583D02*
X0271962Y0072583D01*
X0271962Y0076839D01*
X0277204Y0076839D01*
X0277204Y0072583D01*
X0277204Y0073646D02*
X0271962Y0073646D01*
X0271962Y0074709D02*
X0277204Y0074709D01*
X0277204Y0075772D02*
X0271962Y0075772D01*
X0271962Y0076835D02*
X0277204Y0076835D01*
X0277204Y0065103D02*
X0271962Y0065103D01*
X0271962Y0069359D01*
X0277204Y0069359D01*
X0277204Y0065103D01*
X0277204Y0066166D02*
X0271962Y0066166D01*
X0271962Y0067229D02*
X0277204Y0067229D01*
X0277204Y0068292D02*
X0271962Y0068292D01*
X0271962Y0069355D02*
X0277204Y0069355D01*
X0257951Y0077100D02*
X0257951Y0082342D01*
X0257951Y0077100D02*
X0253695Y0077100D01*
X0253695Y0082342D01*
X0257951Y0082342D01*
X0257951Y0078163D02*
X0253695Y0078163D01*
X0253695Y0079226D02*
X0257951Y0079226D01*
X0257951Y0080289D02*
X0253695Y0080289D01*
X0253695Y0081352D02*
X0257951Y0081352D01*
X0257951Y0084600D02*
X0257951Y0089842D01*
X0257951Y0084600D02*
X0253695Y0084600D01*
X0253695Y0089842D01*
X0257951Y0089842D01*
X0257951Y0085663D02*
X0253695Y0085663D01*
X0253695Y0086726D02*
X0257951Y0086726D01*
X0257951Y0087789D02*
X0253695Y0087789D01*
X0253695Y0088852D02*
X0257951Y0088852D01*
X0257951Y0092100D02*
X0257951Y0097342D01*
X0257951Y0092100D02*
X0253695Y0092100D01*
X0253695Y0097342D01*
X0257951Y0097342D01*
X0257951Y0093163D02*
X0253695Y0093163D01*
X0253695Y0094226D02*
X0257951Y0094226D01*
X0257951Y0095289D02*
X0253695Y0095289D01*
X0253695Y0096352D02*
X0257951Y0096352D01*
X0250471Y0097342D02*
X0250471Y0092100D01*
X0246215Y0092100D01*
X0246215Y0097342D01*
X0250471Y0097342D01*
X0250471Y0093163D02*
X0246215Y0093163D01*
X0246215Y0094226D02*
X0250471Y0094226D01*
X0250471Y0095289D02*
X0246215Y0095289D01*
X0246215Y0096352D02*
X0250471Y0096352D01*
X0250471Y0099600D02*
X0250471Y0104842D01*
X0250471Y0099600D02*
X0246215Y0099600D01*
X0246215Y0104842D01*
X0250471Y0104842D01*
X0250471Y0100663D02*
X0246215Y0100663D01*
X0246215Y0101726D02*
X0250471Y0101726D01*
X0250471Y0102789D02*
X0246215Y0102789D01*
X0246215Y0103852D02*
X0250471Y0103852D01*
X0257951Y0104842D02*
X0257951Y0099600D01*
X0253695Y0099600D01*
X0253695Y0104842D01*
X0257951Y0104842D01*
X0257951Y0100663D02*
X0253695Y0100663D01*
X0253695Y0101726D02*
X0257951Y0101726D01*
X0257951Y0102789D02*
X0253695Y0102789D01*
X0253695Y0103852D02*
X0257951Y0103852D01*
X0257951Y0107100D02*
X0257951Y0112342D01*
X0257951Y0107100D02*
X0253695Y0107100D01*
X0253695Y0112342D01*
X0257951Y0112342D01*
X0257951Y0108163D02*
X0253695Y0108163D01*
X0253695Y0109226D02*
X0257951Y0109226D01*
X0257951Y0110289D02*
X0253695Y0110289D01*
X0253695Y0111352D02*
X0257951Y0111352D01*
X0265471Y0112342D02*
X0265471Y0107100D01*
X0261215Y0107100D01*
X0261215Y0112342D01*
X0265471Y0112342D01*
X0265471Y0108163D02*
X0261215Y0108163D01*
X0261215Y0109226D02*
X0265471Y0109226D01*
X0265471Y0110289D02*
X0261215Y0110289D01*
X0261215Y0111352D02*
X0265471Y0111352D01*
X0272951Y0112342D02*
X0272951Y0107100D01*
X0268695Y0107100D01*
X0268695Y0112342D01*
X0272951Y0112342D01*
X0272951Y0108163D02*
X0268695Y0108163D01*
X0268695Y0109226D02*
X0272951Y0109226D01*
X0272951Y0110289D02*
X0268695Y0110289D01*
X0268695Y0111352D02*
X0272951Y0111352D01*
X0250471Y0112342D02*
X0250471Y0107100D01*
X0246215Y0107100D01*
X0246215Y0112342D01*
X0250471Y0112342D01*
X0250471Y0108163D02*
X0246215Y0108163D01*
X0246215Y0109226D02*
X0250471Y0109226D01*
X0250471Y0110289D02*
X0246215Y0110289D01*
X0246215Y0111352D02*
X0250471Y0111352D01*
X0227951Y0112342D02*
X0227951Y0107100D01*
X0223695Y0107100D01*
X0223695Y0112342D01*
X0227951Y0112342D01*
X0227951Y0108163D02*
X0223695Y0108163D01*
X0223695Y0109226D02*
X0227951Y0109226D01*
X0227951Y0110289D02*
X0223695Y0110289D01*
X0223695Y0111352D02*
X0227951Y0111352D01*
X0220471Y0112342D02*
X0220471Y0107100D01*
X0216215Y0107100D01*
X0216215Y0112342D01*
X0220471Y0112342D01*
X0220471Y0108163D02*
X0216215Y0108163D01*
X0216215Y0109226D02*
X0220471Y0109226D01*
X0220471Y0110289D02*
X0216215Y0110289D01*
X0216215Y0111352D02*
X0220471Y0111352D01*
X0212951Y0112342D02*
X0212951Y0107100D01*
X0208695Y0107100D01*
X0208695Y0112342D01*
X0212951Y0112342D01*
X0212951Y0108163D02*
X0208695Y0108163D01*
X0208695Y0109226D02*
X0212951Y0109226D01*
X0212951Y0110289D02*
X0208695Y0110289D01*
X0208695Y0111352D02*
X0212951Y0111352D01*
X0205471Y0112342D02*
X0205471Y0107100D01*
X0201215Y0107100D01*
X0201215Y0112342D01*
X0205471Y0112342D01*
X0205471Y0108163D02*
X0201215Y0108163D01*
X0201215Y0109226D02*
X0205471Y0109226D01*
X0205471Y0110289D02*
X0201215Y0110289D01*
X0201215Y0111352D02*
X0205471Y0111352D01*
X0205471Y0104842D02*
X0205471Y0099600D01*
X0201215Y0099600D01*
X0201215Y0104842D01*
X0205471Y0104842D01*
X0205471Y0100663D02*
X0201215Y0100663D01*
X0201215Y0101726D02*
X0205471Y0101726D01*
X0205471Y0102789D02*
X0201215Y0102789D01*
X0201215Y0103852D02*
X0205471Y0103852D01*
X0212951Y0104842D02*
X0212951Y0099600D01*
X0208695Y0099600D01*
X0208695Y0104842D01*
X0212951Y0104842D01*
X0212951Y0100663D02*
X0208695Y0100663D01*
X0208695Y0101726D02*
X0212951Y0101726D01*
X0212951Y0102789D02*
X0208695Y0102789D01*
X0208695Y0103852D02*
X0212951Y0103852D01*
X0212951Y0097342D02*
X0212951Y0092100D01*
X0208695Y0092100D01*
X0208695Y0097342D01*
X0212951Y0097342D01*
X0212951Y0093163D02*
X0208695Y0093163D01*
X0208695Y0094226D02*
X0212951Y0094226D01*
X0212951Y0095289D02*
X0208695Y0095289D01*
X0208695Y0096352D02*
X0212951Y0096352D01*
X0205471Y0097342D02*
X0205471Y0092100D01*
X0201215Y0092100D01*
X0201215Y0097342D01*
X0205471Y0097342D01*
X0205471Y0093163D02*
X0201215Y0093163D01*
X0201215Y0094226D02*
X0205471Y0094226D01*
X0205471Y0095289D02*
X0201215Y0095289D01*
X0201215Y0096352D02*
X0205471Y0096352D01*
X0205471Y0089842D02*
X0205471Y0084600D01*
X0201215Y0084600D01*
X0201215Y0089842D01*
X0205471Y0089842D01*
X0205471Y0085663D02*
X0201215Y0085663D01*
X0201215Y0086726D02*
X0205471Y0086726D01*
X0205471Y0087789D02*
X0201215Y0087789D01*
X0201215Y0088852D02*
X0205471Y0088852D01*
X0212951Y0089842D02*
X0212951Y0084600D01*
X0208695Y0084600D01*
X0208695Y0089842D01*
X0212951Y0089842D01*
X0212951Y0085663D02*
X0208695Y0085663D01*
X0208695Y0086726D02*
X0212951Y0086726D01*
X0212951Y0087789D02*
X0208695Y0087789D01*
X0208695Y0088852D02*
X0212951Y0088852D01*
X0212951Y0082342D02*
X0212951Y0077100D01*
X0208695Y0077100D01*
X0208695Y0082342D01*
X0212951Y0082342D01*
X0212951Y0078163D02*
X0208695Y0078163D01*
X0208695Y0079226D02*
X0212951Y0079226D01*
X0212951Y0080289D02*
X0208695Y0080289D01*
X0208695Y0081352D02*
X0212951Y0081352D01*
X0205471Y0082342D02*
X0205471Y0077100D01*
X0201215Y0077100D01*
X0201215Y0082342D01*
X0205471Y0082342D01*
X0205471Y0078163D02*
X0201215Y0078163D01*
X0201215Y0079226D02*
X0205471Y0079226D01*
X0205471Y0080289D02*
X0201215Y0080289D01*
X0201215Y0081352D02*
X0205471Y0081352D01*
X0177204Y0072583D02*
X0171962Y0072583D01*
X0171962Y0076839D01*
X0177204Y0076839D01*
X0177204Y0072583D01*
X0177204Y0073646D02*
X0171962Y0073646D01*
X0171962Y0074709D02*
X0177204Y0074709D01*
X0177204Y0075772D02*
X0171962Y0075772D01*
X0171962Y0076835D02*
X0177204Y0076835D01*
X0177204Y0065103D02*
X0171962Y0065103D01*
X0171962Y0069359D01*
X0177204Y0069359D01*
X0177204Y0065103D01*
X0177204Y0066166D02*
X0171962Y0066166D01*
X0171962Y0067229D02*
X0177204Y0067229D01*
X0177204Y0068292D02*
X0171962Y0068292D01*
X0171962Y0069355D02*
X0177204Y0069355D01*
X0155451Y0077100D02*
X0155451Y0082342D01*
X0155451Y0077100D02*
X0151195Y0077100D01*
X0151195Y0082342D01*
X0155451Y0082342D01*
X0155451Y0078163D02*
X0151195Y0078163D01*
X0151195Y0079226D02*
X0155451Y0079226D01*
X0155451Y0080289D02*
X0151195Y0080289D01*
X0151195Y0081352D02*
X0155451Y0081352D01*
X0155451Y0084600D02*
X0155451Y0089842D01*
X0155451Y0084600D02*
X0151195Y0084600D01*
X0151195Y0089842D01*
X0155451Y0089842D01*
X0155451Y0085663D02*
X0151195Y0085663D01*
X0151195Y0086726D02*
X0155451Y0086726D01*
X0155451Y0087789D02*
X0151195Y0087789D01*
X0151195Y0088852D02*
X0155451Y0088852D01*
X0155451Y0092100D02*
X0155451Y0097342D01*
X0155451Y0092100D02*
X0151195Y0092100D01*
X0151195Y0097342D01*
X0155451Y0097342D01*
X0155451Y0093163D02*
X0151195Y0093163D01*
X0151195Y0094226D02*
X0155451Y0094226D01*
X0155451Y0095289D02*
X0151195Y0095289D01*
X0151195Y0096352D02*
X0155451Y0096352D01*
X0147971Y0097342D02*
X0147971Y0092100D01*
X0143715Y0092100D01*
X0143715Y0097342D01*
X0147971Y0097342D01*
X0147971Y0093163D02*
X0143715Y0093163D01*
X0143715Y0094226D02*
X0147971Y0094226D01*
X0147971Y0095289D02*
X0143715Y0095289D01*
X0143715Y0096352D02*
X0147971Y0096352D01*
X0147971Y0099600D02*
X0147971Y0104842D01*
X0147971Y0099600D02*
X0143715Y0099600D01*
X0143715Y0104842D01*
X0147971Y0104842D01*
X0147971Y0100663D02*
X0143715Y0100663D01*
X0143715Y0101726D02*
X0147971Y0101726D01*
X0147971Y0102789D02*
X0143715Y0102789D01*
X0143715Y0103852D02*
X0147971Y0103852D01*
X0155451Y0104842D02*
X0155451Y0099600D01*
X0151195Y0099600D01*
X0151195Y0104842D01*
X0155451Y0104842D01*
X0155451Y0100663D02*
X0151195Y0100663D01*
X0151195Y0101726D02*
X0155451Y0101726D01*
X0155451Y0102789D02*
X0151195Y0102789D01*
X0151195Y0103852D02*
X0155451Y0103852D01*
X0155451Y0107100D02*
X0155451Y0112342D01*
X0155451Y0107100D02*
X0151195Y0107100D01*
X0151195Y0112342D01*
X0155451Y0112342D01*
X0155451Y0108163D02*
X0151195Y0108163D01*
X0151195Y0109226D02*
X0155451Y0109226D01*
X0155451Y0110289D02*
X0151195Y0110289D01*
X0151195Y0111352D02*
X0155451Y0111352D01*
X0166721Y0110850D02*
X0166721Y0116092D01*
X0166721Y0110850D02*
X0162465Y0110850D01*
X0162465Y0116092D01*
X0166721Y0116092D01*
X0166721Y0111913D02*
X0162465Y0111913D01*
X0162465Y0112976D02*
X0166721Y0112976D01*
X0166721Y0114039D02*
X0162465Y0114039D01*
X0162465Y0115102D02*
X0166721Y0115102D01*
X0174201Y0116092D02*
X0174201Y0110850D01*
X0169945Y0110850D01*
X0169945Y0116092D01*
X0174201Y0116092D01*
X0174201Y0111913D02*
X0169945Y0111913D01*
X0169945Y0112976D02*
X0174201Y0112976D01*
X0174201Y0114039D02*
X0169945Y0114039D01*
X0169945Y0115102D02*
X0174201Y0115102D01*
X0147971Y0112342D02*
X0147971Y0107100D01*
X0143715Y0107100D01*
X0143715Y0112342D01*
X0147971Y0112342D01*
X0147971Y0108163D02*
X0143715Y0108163D01*
X0143715Y0109226D02*
X0147971Y0109226D01*
X0147971Y0110289D02*
X0143715Y0110289D01*
X0143715Y0111352D02*
X0147971Y0111352D01*
X0115451Y0112342D02*
X0115451Y0107100D01*
X0111195Y0107100D01*
X0111195Y0112342D01*
X0115451Y0112342D01*
X0115451Y0108163D02*
X0111195Y0108163D01*
X0111195Y0109226D02*
X0115451Y0109226D01*
X0115451Y0110289D02*
X0111195Y0110289D01*
X0111195Y0111352D02*
X0115451Y0111352D01*
X0107971Y0112342D02*
X0107971Y0107100D01*
X0103715Y0107100D01*
X0103715Y0112342D01*
X0107971Y0112342D01*
X0107971Y0108163D02*
X0103715Y0108163D01*
X0103715Y0109226D02*
X0107971Y0109226D01*
X0107971Y0110289D02*
X0103715Y0110289D01*
X0103715Y0111352D02*
X0107971Y0111352D01*
X0100451Y0112342D02*
X0100451Y0107100D01*
X0096195Y0107100D01*
X0096195Y0112342D01*
X0100451Y0112342D01*
X0100451Y0108163D02*
X0096195Y0108163D01*
X0096195Y0109226D02*
X0100451Y0109226D01*
X0100451Y0110289D02*
X0096195Y0110289D01*
X0096195Y0111352D02*
X0100451Y0111352D01*
X0092971Y0112342D02*
X0092971Y0107100D01*
X0088715Y0107100D01*
X0088715Y0112342D01*
X0092971Y0112342D01*
X0092971Y0108163D02*
X0088715Y0108163D01*
X0088715Y0109226D02*
X0092971Y0109226D01*
X0092971Y0110289D02*
X0088715Y0110289D01*
X0088715Y0111352D02*
X0092971Y0111352D01*
X0092971Y0104842D02*
X0092971Y0099600D01*
X0088715Y0099600D01*
X0088715Y0104842D01*
X0092971Y0104842D01*
X0092971Y0100663D02*
X0088715Y0100663D01*
X0088715Y0101726D02*
X0092971Y0101726D01*
X0092971Y0102789D02*
X0088715Y0102789D01*
X0088715Y0103852D02*
X0092971Y0103852D01*
X0100451Y0104842D02*
X0100451Y0099600D01*
X0096195Y0099600D01*
X0096195Y0104842D01*
X0100451Y0104842D01*
X0100451Y0100663D02*
X0096195Y0100663D01*
X0096195Y0101726D02*
X0100451Y0101726D01*
X0100451Y0102789D02*
X0096195Y0102789D01*
X0096195Y0103852D02*
X0100451Y0103852D01*
X0100451Y0097342D02*
X0100451Y0092100D01*
X0096195Y0092100D01*
X0096195Y0097342D01*
X0100451Y0097342D01*
X0100451Y0093163D02*
X0096195Y0093163D01*
X0096195Y0094226D02*
X0100451Y0094226D01*
X0100451Y0095289D02*
X0096195Y0095289D01*
X0096195Y0096352D02*
X0100451Y0096352D01*
X0092971Y0097342D02*
X0092971Y0092100D01*
X0088715Y0092100D01*
X0088715Y0097342D01*
X0092971Y0097342D01*
X0092971Y0093163D02*
X0088715Y0093163D01*
X0088715Y0094226D02*
X0092971Y0094226D01*
X0092971Y0095289D02*
X0088715Y0095289D01*
X0088715Y0096352D02*
X0092971Y0096352D01*
X0092971Y0089842D02*
X0092971Y0084600D01*
X0088715Y0084600D01*
X0088715Y0089842D01*
X0092971Y0089842D01*
X0092971Y0085663D02*
X0088715Y0085663D01*
X0088715Y0086726D02*
X0092971Y0086726D01*
X0092971Y0087789D02*
X0088715Y0087789D01*
X0088715Y0088852D02*
X0092971Y0088852D01*
X0100451Y0089842D02*
X0100451Y0084600D01*
X0096195Y0084600D01*
X0096195Y0089842D01*
X0100451Y0089842D01*
X0100451Y0085663D02*
X0096195Y0085663D01*
X0096195Y0086726D02*
X0100451Y0086726D01*
X0100451Y0087789D02*
X0096195Y0087789D01*
X0096195Y0088852D02*
X0100451Y0088852D01*
X0100451Y0082342D02*
X0100451Y0077100D01*
X0096195Y0077100D01*
X0096195Y0082342D01*
X0100451Y0082342D01*
X0100451Y0078163D02*
X0096195Y0078163D01*
X0096195Y0079226D02*
X0100451Y0079226D01*
X0100451Y0080289D02*
X0096195Y0080289D01*
X0096195Y0081352D02*
X0100451Y0081352D01*
X0092971Y0082342D02*
X0092971Y0077100D01*
X0088715Y0077100D01*
X0088715Y0082342D01*
X0092971Y0082342D01*
X0092971Y0078163D02*
X0088715Y0078163D01*
X0088715Y0079226D02*
X0092971Y0079226D01*
X0092971Y0080289D02*
X0088715Y0080289D01*
X0088715Y0081352D02*
X0092971Y0081352D01*
X0085451Y0082342D02*
X0085451Y0077100D01*
X0081195Y0077100D01*
X0081195Y0082342D01*
X0085451Y0082342D01*
X0085451Y0078163D02*
X0081195Y0078163D01*
X0081195Y0079226D02*
X0085451Y0079226D01*
X0085451Y0080289D02*
X0081195Y0080289D01*
X0081195Y0081352D02*
X0085451Y0081352D01*
X0085451Y0084600D02*
X0085451Y0089842D01*
X0085451Y0084600D02*
X0081195Y0084600D01*
X0081195Y0089842D01*
X0085451Y0089842D01*
X0085451Y0085663D02*
X0081195Y0085663D01*
X0081195Y0086726D02*
X0085451Y0086726D01*
X0085451Y0087789D02*
X0081195Y0087789D01*
X0081195Y0088852D02*
X0085451Y0088852D01*
X0077971Y0089842D02*
X0077971Y0084600D01*
X0073715Y0084600D01*
X0073715Y0089842D01*
X0077971Y0089842D01*
X0077971Y0085663D02*
X0073715Y0085663D01*
X0073715Y0086726D02*
X0077971Y0086726D01*
X0077971Y0087789D02*
X0073715Y0087789D01*
X0073715Y0088852D02*
X0077971Y0088852D01*
X0077971Y0082342D02*
X0077971Y0077100D01*
X0073715Y0077100D01*
X0073715Y0082342D01*
X0077971Y0082342D01*
X0077971Y0078163D02*
X0073715Y0078163D01*
X0073715Y0079226D02*
X0077971Y0079226D01*
X0077971Y0080289D02*
X0073715Y0080289D01*
X0073715Y0081352D02*
X0077971Y0081352D01*
X0106721Y0069842D02*
X0106721Y0064600D01*
X0102465Y0064600D01*
X0102465Y0069842D01*
X0106721Y0069842D01*
X0106721Y0065663D02*
X0102465Y0065663D01*
X0102465Y0066726D02*
X0106721Y0066726D01*
X0106721Y0067789D02*
X0102465Y0067789D01*
X0102465Y0068852D02*
X0106721Y0068852D01*
X0114201Y0069842D02*
X0114201Y0064600D01*
X0109945Y0064600D01*
X0109945Y0069842D01*
X0114201Y0069842D01*
X0114201Y0065663D02*
X0109945Y0065663D01*
X0109945Y0066726D02*
X0114201Y0066726D01*
X0114201Y0067789D02*
X0109945Y0067789D01*
X0109945Y0068852D02*
X0114201Y0068852D01*
X0147971Y0077100D02*
X0147971Y0082342D01*
X0147971Y0077100D02*
X0143715Y0077100D01*
X0143715Y0082342D01*
X0147971Y0082342D01*
X0147971Y0078163D02*
X0143715Y0078163D01*
X0143715Y0079226D02*
X0147971Y0079226D01*
X0147971Y0080289D02*
X0143715Y0080289D01*
X0143715Y0081352D02*
X0147971Y0081352D01*
X0147971Y0084600D02*
X0147971Y0089842D01*
X0147971Y0084600D02*
X0143715Y0084600D01*
X0143715Y0089842D01*
X0147971Y0089842D01*
X0147971Y0085663D02*
X0143715Y0085663D01*
X0143715Y0086726D02*
X0147971Y0086726D01*
X0147971Y0087789D02*
X0143715Y0087789D01*
X0143715Y0088852D02*
X0147971Y0088852D01*
X0074704Y0063089D02*
X0069462Y0063089D01*
X0074704Y0063089D02*
X0074704Y0058833D01*
X0069462Y0058833D01*
X0069462Y0063089D01*
X0069462Y0059896D02*
X0074704Y0059896D01*
X0074704Y0060959D02*
X0069462Y0060959D01*
X0069462Y0062022D02*
X0074704Y0062022D01*
X0074704Y0063085D02*
X0069462Y0063085D01*
X0069462Y0055609D02*
X0074704Y0055609D01*
X0074704Y0051353D01*
X0069462Y0051353D01*
X0069462Y0055609D01*
X0069462Y0052416D02*
X0074704Y0052416D01*
X0074704Y0053479D02*
X0069462Y0053479D01*
X0069462Y0054542D02*
X0074704Y0054542D01*
X0074704Y0055605D02*
X0069462Y0055605D01*
X0106721Y0049842D02*
X0106721Y0044600D01*
X0102465Y0044600D01*
X0102465Y0049842D01*
X0106721Y0049842D01*
X0106721Y0045663D02*
X0102465Y0045663D01*
X0102465Y0046726D02*
X0106721Y0046726D01*
X0106721Y0047789D02*
X0102465Y0047789D01*
X0102465Y0048852D02*
X0106721Y0048852D01*
X0114201Y0049842D02*
X0114201Y0044600D01*
X0109945Y0044600D01*
X0109945Y0049842D01*
X0114201Y0049842D01*
X0114201Y0045663D02*
X0109945Y0045663D01*
X0109945Y0046726D02*
X0114201Y0046726D01*
X0114201Y0047789D02*
X0109945Y0047789D01*
X0109945Y0048852D02*
X0114201Y0048852D01*
X0081195Y0037342D02*
X0081195Y0032100D01*
X0081195Y0037342D02*
X0085451Y0037342D01*
X0085451Y0032100D01*
X0081195Y0032100D01*
X0081195Y0033163D02*
X0085451Y0033163D01*
X0085451Y0034226D02*
X0081195Y0034226D01*
X0081195Y0035289D02*
X0085451Y0035289D01*
X0085451Y0036352D02*
X0081195Y0036352D01*
X0073715Y0037342D02*
X0073715Y0032100D01*
X0073715Y0037342D02*
X0077971Y0037342D01*
X0077971Y0032100D01*
X0073715Y0032100D01*
X0073715Y0033163D02*
X0077971Y0033163D01*
X0077971Y0034226D02*
X0073715Y0034226D01*
X0073715Y0035289D02*
X0077971Y0035289D01*
X0077971Y0036352D02*
X0073715Y0036352D01*
X0073715Y0029842D02*
X0073715Y0024600D01*
X0073715Y0029842D02*
X0077971Y0029842D01*
X0077971Y0024600D01*
X0073715Y0024600D01*
X0073715Y0025663D02*
X0077971Y0025663D01*
X0077971Y0026726D02*
X0073715Y0026726D01*
X0073715Y0027789D02*
X0077971Y0027789D01*
X0077971Y0028852D02*
X0073715Y0028852D01*
X0081195Y0029842D02*
X0081195Y0024600D01*
X0081195Y0029842D02*
X0085451Y0029842D01*
X0085451Y0024600D01*
X0081195Y0024600D01*
X0081195Y0025663D02*
X0085451Y0025663D01*
X0085451Y0026726D02*
X0081195Y0026726D01*
X0081195Y0027789D02*
X0085451Y0027789D01*
X0085451Y0028852D02*
X0081195Y0028852D01*
X0171962Y0037603D02*
X0177204Y0037603D01*
X0171962Y0037603D02*
X0171962Y0041859D01*
X0177204Y0041859D01*
X0177204Y0037603D01*
X0177204Y0038666D02*
X0171962Y0038666D01*
X0171962Y0039729D02*
X0177204Y0039729D01*
X0177204Y0040792D02*
X0171962Y0040792D01*
X0171962Y0041855D02*
X0177204Y0041855D01*
X0177204Y0045083D02*
X0171962Y0045083D01*
X0171962Y0049339D01*
X0177204Y0049339D01*
X0177204Y0045083D01*
X0177204Y0046146D02*
X0171962Y0046146D01*
X0171962Y0047209D02*
X0177204Y0047209D01*
X0177204Y0048272D02*
X0171962Y0048272D01*
X0171962Y0049335D02*
X0177204Y0049335D01*
X0189462Y0028833D02*
X0194704Y0028833D01*
X0189462Y0028833D02*
X0189462Y0033089D01*
X0194704Y0033089D01*
X0194704Y0028833D01*
X0194704Y0029896D02*
X0189462Y0029896D01*
X0189462Y0030959D02*
X0194704Y0030959D01*
X0194704Y0032022D02*
X0189462Y0032022D01*
X0189462Y0033085D02*
X0194704Y0033085D01*
X0194704Y0021353D02*
X0189462Y0021353D01*
X0189462Y0025609D01*
X0194704Y0025609D01*
X0194704Y0021353D01*
X0194704Y0022416D02*
X0189462Y0022416D01*
X0189462Y0023479D02*
X0194704Y0023479D01*
X0194704Y0024542D02*
X0189462Y0024542D01*
X0189462Y0025605D02*
X0194704Y0025605D01*
X0241962Y0021353D02*
X0247204Y0021353D01*
X0241962Y0021353D02*
X0241962Y0025609D01*
X0247204Y0025609D01*
X0247204Y0021353D01*
X0247204Y0022416D02*
X0241962Y0022416D01*
X0241962Y0023479D02*
X0247204Y0023479D01*
X0247204Y0024542D02*
X0241962Y0024542D01*
X0241962Y0025605D02*
X0247204Y0025605D01*
X0247204Y0028833D02*
X0241962Y0028833D01*
X0241962Y0033089D01*
X0247204Y0033089D01*
X0247204Y0028833D01*
X0247204Y0029896D02*
X0241962Y0029896D01*
X0241962Y0030959D02*
X0247204Y0030959D01*
X0247204Y0032022D02*
X0241962Y0032022D01*
X0241962Y0033085D02*
X0247204Y0033085D01*
X0271962Y0036353D02*
X0277204Y0036353D01*
X0271962Y0036353D02*
X0271962Y0040609D01*
X0277204Y0040609D01*
X0277204Y0036353D01*
X0277204Y0037416D02*
X0271962Y0037416D01*
X0271962Y0038479D02*
X0277204Y0038479D01*
X0277204Y0039542D02*
X0271962Y0039542D01*
X0271962Y0040605D02*
X0277204Y0040605D01*
X0277204Y0043833D02*
X0271962Y0043833D01*
X0271962Y0048089D01*
X0277204Y0048089D01*
X0277204Y0043833D01*
X0277204Y0044896D02*
X0271962Y0044896D01*
X0271962Y0045959D02*
X0277204Y0045959D01*
X0277204Y0047022D02*
X0271962Y0047022D01*
X0271962Y0048085D02*
X0277204Y0048085D01*
X0286962Y0028833D02*
X0292204Y0028833D01*
X0286962Y0028833D02*
X0286962Y0033089D01*
X0292204Y0033089D01*
X0292204Y0028833D01*
X0292204Y0029896D02*
X0286962Y0029896D01*
X0286962Y0030959D02*
X0292204Y0030959D01*
X0292204Y0032022D02*
X0286962Y0032022D01*
X0286962Y0033085D02*
X0292204Y0033085D01*
X0292204Y0021353D02*
X0286962Y0021353D01*
X0286962Y0025609D01*
X0292204Y0025609D01*
X0292204Y0021353D01*
X0292204Y0022416D02*
X0286962Y0022416D01*
X0286962Y0023479D02*
X0292204Y0023479D01*
X0292204Y0024542D02*
X0286962Y0024542D01*
X0286962Y0025605D02*
X0292204Y0025605D01*
X0250471Y0077100D02*
X0250471Y0082342D01*
X0250471Y0077100D02*
X0246215Y0077100D01*
X0246215Y0082342D01*
X0250471Y0082342D01*
X0250471Y0078163D02*
X0246215Y0078163D01*
X0246215Y0079226D02*
X0250471Y0079226D01*
X0250471Y0080289D02*
X0246215Y0080289D01*
X0246215Y0081352D02*
X0250471Y0081352D01*
X0250471Y0084600D02*
X0250471Y0089842D01*
X0250471Y0084600D02*
X0246215Y0084600D01*
X0246215Y0089842D01*
X0250471Y0089842D01*
X0250471Y0085663D02*
X0246215Y0085663D01*
X0246215Y0086726D02*
X0250471Y0086726D01*
X0250471Y0087789D02*
X0246215Y0087789D01*
X0246215Y0088852D02*
X0250471Y0088852D01*
D13*
X0397822Y0070971D03*
X0408845Y0070971D03*
X0408845Y0043721D03*
X0397822Y0043721D03*
D14*
X0435667Y0038936D02*
X0435667Y0053506D01*
X0435667Y0038936D02*
X0433499Y0038936D01*
X0433499Y0053506D01*
X0435667Y0053506D01*
X0435667Y0041104D02*
X0433499Y0041104D01*
X0433499Y0043272D02*
X0435667Y0043272D01*
X0435667Y0045440D02*
X0433499Y0045440D01*
X0433499Y0047608D02*
X0435667Y0047608D01*
X0435667Y0049776D02*
X0433499Y0049776D01*
X0433499Y0051944D02*
X0435667Y0051944D01*
X0445667Y0053506D02*
X0445667Y0038936D01*
X0443499Y0038936D01*
X0443499Y0053506D01*
X0445667Y0053506D01*
X0445667Y0041104D02*
X0443499Y0041104D01*
X0443499Y0043272D02*
X0445667Y0043272D01*
X0445667Y0045440D02*
X0443499Y0045440D01*
X0443499Y0047608D02*
X0445667Y0047608D01*
X0445667Y0049776D02*
X0443499Y0049776D01*
X0443499Y0051944D02*
X0445667Y0051944D01*
X0455667Y0053506D02*
X0455667Y0038936D01*
X0453499Y0038936D01*
X0453499Y0053506D01*
X0455667Y0053506D01*
X0455667Y0041104D02*
X0453499Y0041104D01*
X0453499Y0043272D02*
X0455667Y0043272D01*
X0455667Y0045440D02*
X0453499Y0045440D01*
X0453499Y0047608D02*
X0455667Y0047608D01*
X0455667Y0049776D02*
X0453499Y0049776D01*
X0453499Y0051944D02*
X0455667Y0051944D01*
X0465667Y0053506D02*
X0465667Y0038936D01*
X0463499Y0038936D01*
X0463499Y0053506D01*
X0465667Y0053506D01*
X0465667Y0041104D02*
X0463499Y0041104D01*
X0463499Y0043272D02*
X0465667Y0043272D01*
X0465667Y0045440D02*
X0463499Y0045440D01*
X0463499Y0047608D02*
X0465667Y0047608D01*
X0465667Y0049776D02*
X0463499Y0049776D01*
X0463499Y0051944D02*
X0465667Y0051944D01*
X0475667Y0053506D02*
X0475667Y0038936D01*
X0473499Y0038936D01*
X0473499Y0053506D01*
X0475667Y0053506D01*
X0475667Y0041104D02*
X0473499Y0041104D01*
X0473499Y0043272D02*
X0475667Y0043272D01*
X0475667Y0045440D02*
X0473499Y0045440D01*
X0473499Y0047608D02*
X0475667Y0047608D01*
X0475667Y0049776D02*
X0473499Y0049776D01*
X0473499Y0051944D02*
X0475667Y0051944D01*
X0475667Y0060936D02*
X0475667Y0075506D01*
X0475667Y0060936D02*
X0473499Y0060936D01*
X0473499Y0075506D01*
X0475667Y0075506D01*
X0475667Y0063104D02*
X0473499Y0063104D01*
X0473499Y0065272D02*
X0475667Y0065272D01*
X0475667Y0067440D02*
X0473499Y0067440D01*
X0473499Y0069608D02*
X0475667Y0069608D01*
X0475667Y0071776D02*
X0473499Y0071776D01*
X0473499Y0073944D02*
X0475667Y0073944D01*
X0465667Y0075506D02*
X0465667Y0060936D01*
X0463499Y0060936D01*
X0463499Y0075506D01*
X0465667Y0075506D01*
X0465667Y0063104D02*
X0463499Y0063104D01*
X0463499Y0065272D02*
X0465667Y0065272D01*
X0465667Y0067440D02*
X0463499Y0067440D01*
X0463499Y0069608D02*
X0465667Y0069608D01*
X0465667Y0071776D02*
X0463499Y0071776D01*
X0463499Y0073944D02*
X0465667Y0073944D01*
X0455667Y0075506D02*
X0455667Y0060936D01*
X0453499Y0060936D01*
X0453499Y0075506D01*
X0455667Y0075506D01*
X0455667Y0063104D02*
X0453499Y0063104D01*
X0453499Y0065272D02*
X0455667Y0065272D01*
X0455667Y0067440D02*
X0453499Y0067440D01*
X0453499Y0069608D02*
X0455667Y0069608D01*
X0455667Y0071776D02*
X0453499Y0071776D01*
X0453499Y0073944D02*
X0455667Y0073944D01*
X0445667Y0075506D02*
X0445667Y0060936D01*
X0443499Y0060936D01*
X0443499Y0075506D01*
X0445667Y0075506D01*
X0445667Y0063104D02*
X0443499Y0063104D01*
X0443499Y0065272D02*
X0445667Y0065272D01*
X0445667Y0067440D02*
X0443499Y0067440D01*
X0443499Y0069608D02*
X0445667Y0069608D01*
X0445667Y0071776D02*
X0443499Y0071776D01*
X0443499Y0073944D02*
X0445667Y0073944D01*
X0435667Y0075506D02*
X0435667Y0060936D01*
X0433499Y0060936D01*
X0433499Y0075506D01*
X0435667Y0075506D01*
X0435667Y0063104D02*
X0433499Y0063104D01*
X0433499Y0065272D02*
X0435667Y0065272D01*
X0435667Y0067440D02*
X0433499Y0067440D01*
X0433499Y0069608D02*
X0435667Y0069608D01*
X0435667Y0071776D02*
X0433499Y0071776D01*
X0433499Y0073944D02*
X0435667Y0073944D01*
D15*
X0377083Y0067457D03*
X0372083Y0067457D03*
X0367083Y0067457D03*
X0362083Y0067457D03*
X0334583Y0067457D03*
X0329583Y0067457D03*
X0324583Y0067457D03*
X0319583Y0067457D03*
X0319583Y0046985D03*
X0324583Y0046985D03*
X0329583Y0046985D03*
X0334583Y0046985D03*
X0362083Y0046985D03*
X0367083Y0046985D03*
X0372083Y0046985D03*
X0377083Y0046985D03*
X0244583Y0046985D03*
X0239583Y0046985D03*
X0234583Y0046985D03*
X0229583Y0046985D03*
X0229583Y0067457D03*
X0234583Y0067457D03*
X0239583Y0067457D03*
X0244583Y0067457D03*
X0139583Y0067457D03*
X0134583Y0067457D03*
X0129583Y0067457D03*
X0124583Y0067457D03*
X0094583Y0067457D03*
X0089583Y0067457D03*
X0084583Y0067457D03*
X0079583Y0067457D03*
X0079583Y0046985D03*
X0084583Y0046985D03*
X0089583Y0046985D03*
X0094583Y0046985D03*
X0124583Y0046985D03*
X0129583Y0046985D03*
X0134583Y0046985D03*
X0139583Y0046985D03*
D16*
X0395853Y0053471D03*
X0395853Y0060971D03*
X0410814Y0060971D03*
X0410814Y0053471D03*
D17*
X0140833Y0028471D03*
D18*
X0062268Y0012221D02*
X0062270Y0012340D01*
X0062276Y0012459D01*
X0062286Y0012578D01*
X0062300Y0012696D01*
X0062318Y0012814D01*
X0062339Y0012931D01*
X0062365Y0013047D01*
X0062395Y0013163D01*
X0062428Y0013277D01*
X0062465Y0013390D01*
X0062506Y0013502D01*
X0062551Y0013613D01*
X0062599Y0013722D01*
X0062651Y0013829D01*
X0062707Y0013934D01*
X0062766Y0014038D01*
X0062828Y0014139D01*
X0062894Y0014239D01*
X0062963Y0014336D01*
X0063035Y0014430D01*
X0063111Y0014523D01*
X0063189Y0014612D01*
X0063270Y0014699D01*
X0063355Y0014784D01*
X0063442Y0014865D01*
X0063531Y0014943D01*
X0063624Y0015019D01*
X0063718Y0015091D01*
X0063815Y0015160D01*
X0063915Y0015226D01*
X0064016Y0015288D01*
X0064120Y0015347D01*
X0064225Y0015403D01*
X0064332Y0015455D01*
X0064441Y0015503D01*
X0064552Y0015548D01*
X0064664Y0015589D01*
X0064777Y0015626D01*
X0064891Y0015659D01*
X0065007Y0015689D01*
X0065123Y0015715D01*
X0065240Y0015736D01*
X0065358Y0015754D01*
X0065476Y0015768D01*
X0065595Y0015778D01*
X0065714Y0015784D01*
X0065833Y0015786D01*
X0065952Y0015784D01*
X0066071Y0015778D01*
X0066190Y0015768D01*
X0066308Y0015754D01*
X0066426Y0015736D01*
X0066543Y0015715D01*
X0066659Y0015689D01*
X0066775Y0015659D01*
X0066889Y0015626D01*
X0067002Y0015589D01*
X0067114Y0015548D01*
X0067225Y0015503D01*
X0067334Y0015455D01*
X0067441Y0015403D01*
X0067546Y0015347D01*
X0067650Y0015288D01*
X0067751Y0015226D01*
X0067851Y0015160D01*
X0067948Y0015091D01*
X0068042Y0015019D01*
X0068135Y0014943D01*
X0068224Y0014865D01*
X0068311Y0014784D01*
X0068396Y0014699D01*
X0068477Y0014612D01*
X0068555Y0014523D01*
X0068631Y0014430D01*
X0068703Y0014336D01*
X0068772Y0014239D01*
X0068838Y0014139D01*
X0068900Y0014038D01*
X0068959Y0013934D01*
X0069015Y0013829D01*
X0069067Y0013722D01*
X0069115Y0013613D01*
X0069160Y0013502D01*
X0069201Y0013390D01*
X0069238Y0013277D01*
X0069271Y0013163D01*
X0069301Y0013047D01*
X0069327Y0012931D01*
X0069348Y0012814D01*
X0069366Y0012696D01*
X0069380Y0012578D01*
X0069390Y0012459D01*
X0069396Y0012340D01*
X0069398Y0012221D01*
X0069396Y0012102D01*
X0069390Y0011983D01*
X0069380Y0011864D01*
X0069366Y0011746D01*
X0069348Y0011628D01*
X0069327Y0011511D01*
X0069301Y0011395D01*
X0069271Y0011279D01*
X0069238Y0011165D01*
X0069201Y0011052D01*
X0069160Y0010940D01*
X0069115Y0010829D01*
X0069067Y0010720D01*
X0069015Y0010613D01*
X0068959Y0010508D01*
X0068900Y0010404D01*
X0068838Y0010303D01*
X0068772Y0010203D01*
X0068703Y0010106D01*
X0068631Y0010012D01*
X0068555Y0009919D01*
X0068477Y0009830D01*
X0068396Y0009743D01*
X0068311Y0009658D01*
X0068224Y0009577D01*
X0068135Y0009499D01*
X0068042Y0009423D01*
X0067948Y0009351D01*
X0067851Y0009282D01*
X0067751Y0009216D01*
X0067650Y0009154D01*
X0067546Y0009095D01*
X0067441Y0009039D01*
X0067334Y0008987D01*
X0067225Y0008939D01*
X0067114Y0008894D01*
X0067002Y0008853D01*
X0066889Y0008816D01*
X0066775Y0008783D01*
X0066659Y0008753D01*
X0066543Y0008727D01*
X0066426Y0008706D01*
X0066308Y0008688D01*
X0066190Y0008674D01*
X0066071Y0008664D01*
X0065952Y0008658D01*
X0065833Y0008656D01*
X0065714Y0008658D01*
X0065595Y0008664D01*
X0065476Y0008674D01*
X0065358Y0008688D01*
X0065240Y0008706D01*
X0065123Y0008727D01*
X0065007Y0008753D01*
X0064891Y0008783D01*
X0064777Y0008816D01*
X0064664Y0008853D01*
X0064552Y0008894D01*
X0064441Y0008939D01*
X0064332Y0008987D01*
X0064225Y0009039D01*
X0064120Y0009095D01*
X0064016Y0009154D01*
X0063915Y0009216D01*
X0063815Y0009282D01*
X0063718Y0009351D01*
X0063624Y0009423D01*
X0063531Y0009499D01*
X0063442Y0009577D01*
X0063355Y0009658D01*
X0063270Y0009743D01*
X0063189Y0009830D01*
X0063111Y0009919D01*
X0063035Y0010012D01*
X0062963Y0010106D01*
X0062894Y0010203D01*
X0062828Y0010303D01*
X0062766Y0010404D01*
X0062707Y0010508D01*
X0062651Y0010613D01*
X0062599Y0010720D01*
X0062551Y0010829D01*
X0062506Y0010940D01*
X0062465Y0011052D01*
X0062428Y0011165D01*
X0062395Y0011279D01*
X0062365Y0011395D01*
X0062339Y0011511D01*
X0062318Y0011628D01*
X0062300Y0011746D01*
X0062286Y0011864D01*
X0062276Y0011983D01*
X0062270Y0012102D01*
X0062268Y0012221D01*
X0474768Y0113471D02*
X0474770Y0113590D01*
X0474776Y0113709D01*
X0474786Y0113828D01*
X0474800Y0113946D01*
X0474818Y0114064D01*
X0474839Y0114181D01*
X0474865Y0114297D01*
X0474895Y0114413D01*
X0474928Y0114527D01*
X0474965Y0114640D01*
X0475006Y0114752D01*
X0475051Y0114863D01*
X0475099Y0114972D01*
X0475151Y0115079D01*
X0475207Y0115184D01*
X0475266Y0115288D01*
X0475328Y0115389D01*
X0475394Y0115489D01*
X0475463Y0115586D01*
X0475535Y0115680D01*
X0475611Y0115773D01*
X0475689Y0115862D01*
X0475770Y0115949D01*
X0475855Y0116034D01*
X0475942Y0116115D01*
X0476031Y0116193D01*
X0476124Y0116269D01*
X0476218Y0116341D01*
X0476315Y0116410D01*
X0476415Y0116476D01*
X0476516Y0116538D01*
X0476620Y0116597D01*
X0476725Y0116653D01*
X0476832Y0116705D01*
X0476941Y0116753D01*
X0477052Y0116798D01*
X0477164Y0116839D01*
X0477277Y0116876D01*
X0477391Y0116909D01*
X0477507Y0116939D01*
X0477623Y0116965D01*
X0477740Y0116986D01*
X0477858Y0117004D01*
X0477976Y0117018D01*
X0478095Y0117028D01*
X0478214Y0117034D01*
X0478333Y0117036D01*
X0478452Y0117034D01*
X0478571Y0117028D01*
X0478690Y0117018D01*
X0478808Y0117004D01*
X0478926Y0116986D01*
X0479043Y0116965D01*
X0479159Y0116939D01*
X0479275Y0116909D01*
X0479389Y0116876D01*
X0479502Y0116839D01*
X0479614Y0116798D01*
X0479725Y0116753D01*
X0479834Y0116705D01*
X0479941Y0116653D01*
X0480046Y0116597D01*
X0480150Y0116538D01*
X0480251Y0116476D01*
X0480351Y0116410D01*
X0480448Y0116341D01*
X0480542Y0116269D01*
X0480635Y0116193D01*
X0480724Y0116115D01*
X0480811Y0116034D01*
X0480896Y0115949D01*
X0480977Y0115862D01*
X0481055Y0115773D01*
X0481131Y0115680D01*
X0481203Y0115586D01*
X0481272Y0115489D01*
X0481338Y0115389D01*
X0481400Y0115288D01*
X0481459Y0115184D01*
X0481515Y0115079D01*
X0481567Y0114972D01*
X0481615Y0114863D01*
X0481660Y0114752D01*
X0481701Y0114640D01*
X0481738Y0114527D01*
X0481771Y0114413D01*
X0481801Y0114297D01*
X0481827Y0114181D01*
X0481848Y0114064D01*
X0481866Y0113946D01*
X0481880Y0113828D01*
X0481890Y0113709D01*
X0481896Y0113590D01*
X0481898Y0113471D01*
X0481896Y0113352D01*
X0481890Y0113233D01*
X0481880Y0113114D01*
X0481866Y0112996D01*
X0481848Y0112878D01*
X0481827Y0112761D01*
X0481801Y0112645D01*
X0481771Y0112529D01*
X0481738Y0112415D01*
X0481701Y0112302D01*
X0481660Y0112190D01*
X0481615Y0112079D01*
X0481567Y0111970D01*
X0481515Y0111863D01*
X0481459Y0111758D01*
X0481400Y0111654D01*
X0481338Y0111553D01*
X0481272Y0111453D01*
X0481203Y0111356D01*
X0481131Y0111262D01*
X0481055Y0111169D01*
X0480977Y0111080D01*
X0480896Y0110993D01*
X0480811Y0110908D01*
X0480724Y0110827D01*
X0480635Y0110749D01*
X0480542Y0110673D01*
X0480448Y0110601D01*
X0480351Y0110532D01*
X0480251Y0110466D01*
X0480150Y0110404D01*
X0480046Y0110345D01*
X0479941Y0110289D01*
X0479834Y0110237D01*
X0479725Y0110189D01*
X0479614Y0110144D01*
X0479502Y0110103D01*
X0479389Y0110066D01*
X0479275Y0110033D01*
X0479159Y0110003D01*
X0479043Y0109977D01*
X0478926Y0109956D01*
X0478808Y0109938D01*
X0478690Y0109924D01*
X0478571Y0109914D01*
X0478452Y0109908D01*
X0478333Y0109906D01*
X0478214Y0109908D01*
X0478095Y0109914D01*
X0477976Y0109924D01*
X0477858Y0109938D01*
X0477740Y0109956D01*
X0477623Y0109977D01*
X0477507Y0110003D01*
X0477391Y0110033D01*
X0477277Y0110066D01*
X0477164Y0110103D01*
X0477052Y0110144D01*
X0476941Y0110189D01*
X0476832Y0110237D01*
X0476725Y0110289D01*
X0476620Y0110345D01*
X0476516Y0110404D01*
X0476415Y0110466D01*
X0476315Y0110532D01*
X0476218Y0110601D01*
X0476124Y0110673D01*
X0476031Y0110749D01*
X0475942Y0110827D01*
X0475855Y0110908D01*
X0475770Y0110993D01*
X0475689Y0111080D01*
X0475611Y0111169D01*
X0475535Y0111262D01*
X0475463Y0111356D01*
X0475394Y0111453D01*
X0475328Y0111553D01*
X0475266Y0111654D01*
X0475207Y0111758D01*
X0475151Y0111863D01*
X0475099Y0111970D01*
X0475051Y0112079D01*
X0475006Y0112190D01*
X0474965Y0112302D01*
X0474928Y0112415D01*
X0474895Y0112529D01*
X0474865Y0112645D01*
X0474839Y0112761D01*
X0474818Y0112878D01*
X0474800Y0112996D01*
X0474786Y0113114D01*
X0474776Y0113233D01*
X0474770Y0113352D01*
X0474768Y0113471D01*
D19*
X0478333Y0113471D03*
X0065833Y0012221D03*
M02*
