G75*
%MOIN*%
%OFA0B0*%
%FSLAX25Y25*%
%IPPOS*%
%LPD*%
%AMOC8*
5,1,8,0,0,1.08239X$1,22.5*
%
%ADD10C,0.04724*%
%ADD11C,0.06496*%
%ADD12C,0.00600*%
%ADD13C,0.00800*%
%ADD14C,0.01600*%
%ADD15C,0.02500*%
%ADD16C,0.01000*%
D10*
X0152224Y0017509D03*
X0166366Y0031651D03*
X0204724Y0017509D03*
X0218866Y0031651D03*
X0257224Y0017509D03*
X0271366Y0031651D03*
X0309724Y0017509D03*
X0323866Y0031651D03*
X0362224Y0017509D03*
X0376366Y0031651D03*
X0414724Y0017509D03*
X0428866Y0031651D03*
X0467224Y0017509D03*
X0481366Y0031651D03*
X0375300Y0095291D03*
X0382371Y0102362D03*
X0389442Y0109433D03*
X0396514Y0116504D03*
X0344014Y0116504D03*
X0336942Y0109433D03*
X0329871Y0102362D03*
X0322800Y0095291D03*
X0284442Y0109433D03*
X0277371Y0102362D03*
X0270300Y0095291D03*
X0231942Y0109433D03*
X0224871Y0102362D03*
X0217800Y0095291D03*
X0179442Y0109433D03*
X0172371Y0102362D03*
X0165300Y0095291D03*
X0126942Y0109433D03*
X0119871Y0102362D03*
X0112800Y0095291D03*
X0074442Y0109433D03*
X0067371Y0102362D03*
X0060300Y0095291D03*
X0081514Y0116504D03*
X0134014Y0116504D03*
X0186514Y0116504D03*
X0239014Y0116504D03*
X0291514Y0116504D03*
D11*
X0433993Y0099721D03*
X0445804Y0099721D03*
X0479268Y0099721D03*
X0108924Y0025971D03*
X0097113Y0025971D03*
X0063648Y0025971D03*
D12*
X0122718Y0026272D02*
X0124319Y0027873D01*
X0125480Y0027873D02*
X0126281Y0027873D01*
X0125880Y0027873D02*
X0125880Y0025471D01*
X0125480Y0025471D02*
X0126281Y0025471D01*
X0127322Y0025471D02*
X0128923Y0025471D01*
X0130084Y0025471D02*
X0131685Y0025471D01*
X0132846Y0025872D02*
X0133247Y0025471D01*
X0134047Y0025471D01*
X0134448Y0025872D01*
X0134448Y0026272D01*
X0134047Y0026672D01*
X0133247Y0026672D01*
X0132846Y0027073D01*
X0132846Y0027473D01*
X0133247Y0027873D01*
X0134047Y0027873D01*
X0134448Y0027473D01*
X0134047Y0029071D02*
X0133247Y0029071D01*
X0132846Y0029472D01*
X0133247Y0030272D02*
X0134047Y0030272D01*
X0134448Y0029872D01*
X0134448Y0029472D01*
X0134047Y0029071D01*
X0133247Y0030272D02*
X0132846Y0030673D01*
X0132846Y0031073D01*
X0133247Y0031473D01*
X0134047Y0031473D01*
X0134448Y0031073D01*
X0131805Y0031473D02*
X0131005Y0031473D01*
X0131405Y0031473D02*
X0131405Y0029071D01*
X0131005Y0029071D02*
X0131805Y0029071D01*
X0129844Y0029071D02*
X0129844Y0031473D01*
X0129844Y0030272D02*
X0128242Y0030272D01*
X0128242Y0029071D02*
X0128242Y0031473D01*
X0127081Y0031473D02*
X0125480Y0031473D01*
X0126281Y0031473D02*
X0126281Y0029071D01*
X0127322Y0027873D02*
X0127322Y0025471D01*
X0130084Y0025471D02*
X0130084Y0027873D01*
X0124319Y0025471D02*
X0123118Y0026672D01*
X0122718Y0027873D02*
X0122718Y0025471D01*
X0138371Y0025471D02*
X0138371Y0027873D01*
X0139972Y0027873D01*
X0139972Y0029071D02*
X0139972Y0031473D01*
X0139172Y0030673D01*
X0138371Y0031473D01*
X0138371Y0029071D01*
X0138371Y0026672D02*
X0139172Y0026672D01*
X0141133Y0026672D02*
X0142735Y0026672D01*
X0142735Y0027073D02*
X0142735Y0025471D01*
X0143896Y0025872D02*
X0144296Y0025471D01*
X0145097Y0025471D01*
X0145497Y0025872D01*
X0145497Y0026272D01*
X0145097Y0026672D01*
X0144296Y0026672D01*
X0143896Y0027073D01*
X0143896Y0027473D01*
X0144296Y0027873D01*
X0145097Y0027873D01*
X0145497Y0027473D01*
X0146658Y0027473D02*
X0146658Y0025872D01*
X0147058Y0025471D01*
X0147859Y0025471D01*
X0148259Y0025872D01*
X0149420Y0025471D02*
X0150221Y0025471D01*
X0149821Y0025471D02*
X0149821Y0027873D01*
X0150221Y0027873D02*
X0149420Y0027873D01*
X0149420Y0029071D02*
X0150221Y0029071D01*
X0149821Y0029071D02*
X0149821Y0031473D01*
X0150221Y0031473D02*
X0149420Y0031473D01*
X0148259Y0031473D02*
X0148259Y0029071D01*
X0148259Y0030272D02*
X0146658Y0030272D01*
X0146658Y0029071D02*
X0146658Y0031473D01*
X0145497Y0031073D02*
X0145097Y0031473D01*
X0144296Y0031473D01*
X0143896Y0031073D01*
X0143896Y0029472D01*
X0144296Y0029071D01*
X0145097Y0029071D01*
X0145497Y0029472D01*
X0147058Y0027873D02*
X0146658Y0027473D01*
X0147058Y0027873D02*
X0147859Y0027873D01*
X0148259Y0027473D01*
X0151262Y0027473D02*
X0151262Y0027073D01*
X0151662Y0026672D01*
X0152463Y0026672D01*
X0152863Y0026272D01*
X0152863Y0025872D01*
X0152463Y0025471D01*
X0151662Y0025471D01*
X0151262Y0025872D01*
X0151262Y0027473D02*
X0151662Y0027873D01*
X0152463Y0027873D01*
X0152863Y0027473D01*
X0154024Y0027873D02*
X0155626Y0027873D01*
X0154825Y0027873D02*
X0154825Y0025471D01*
X0156787Y0025872D02*
X0157187Y0025471D01*
X0157988Y0025471D01*
X0158388Y0025872D01*
X0158388Y0026272D01*
X0157988Y0026672D01*
X0157187Y0026672D01*
X0156787Y0027073D01*
X0156787Y0027473D01*
X0157187Y0027873D01*
X0157988Y0027873D01*
X0158388Y0027473D01*
X0155626Y0029071D02*
X0154024Y0029071D01*
X0154024Y0031473D01*
X0155626Y0031473D01*
X0154825Y0030272D02*
X0154024Y0030272D01*
X0152863Y0029071D02*
X0152863Y0031473D01*
X0151262Y0031473D02*
X0152863Y0029071D01*
X0151262Y0029071D02*
X0151262Y0031473D01*
X0142735Y0030673D02*
X0142735Y0029071D01*
X0142735Y0030272D02*
X0141133Y0030272D01*
X0141133Y0030673D02*
X0141934Y0031473D01*
X0142735Y0030673D01*
X0141133Y0030673D02*
X0141133Y0029071D01*
X0141934Y0027873D02*
X0142735Y0027073D01*
X0141934Y0027873D02*
X0141133Y0027073D01*
X0141133Y0025471D01*
D13*
X0160833Y0023471D02*
X0160833Y0033471D01*
X0120833Y0033471D01*
X0120833Y0023471D01*
X0160833Y0023471D01*
D14*
X0058883Y0006521D02*
X0058883Y0091806D01*
X0059552Y0091529D01*
X0061049Y0091529D01*
X0062431Y0092102D01*
X0063490Y0093160D01*
X0064063Y0094543D01*
X0064063Y0096039D01*
X0063490Y0097422D01*
X0062431Y0098480D01*
X0061049Y0099053D01*
X0059552Y0099053D01*
X0058883Y0098776D01*
X0058883Y0119063D01*
X0078228Y0119063D01*
X0077954Y0118686D01*
X0077656Y0118102D01*
X0077454Y0117479D01*
X0077351Y0116832D01*
X0077351Y0116177D01*
X0077454Y0115530D01*
X0077656Y0114906D01*
X0077954Y0114323D01*
X0078339Y0113793D01*
X0078570Y0113561D01*
X0081513Y0116504D01*
X0081513Y0116504D01*
X0078570Y0113561D01*
X0078802Y0113329D01*
X0079332Y0112944D01*
X0079916Y0112647D01*
X0080539Y0112444D01*
X0081186Y0112342D01*
X0081841Y0112342D01*
X0082488Y0112444D01*
X0083111Y0112647D01*
X0083695Y0112944D01*
X0084225Y0113329D01*
X0084457Y0113561D01*
X0084688Y0113793D01*
X0085073Y0114323D01*
X0085371Y0114906D01*
X0085573Y0115530D01*
X0085676Y0116177D01*
X0085676Y0116832D01*
X0085573Y0117479D01*
X0085371Y0118102D01*
X0085073Y0118686D01*
X0084799Y0119063D01*
X0130728Y0119063D01*
X0130454Y0118686D01*
X0130156Y0118102D01*
X0129954Y0117479D01*
X0129851Y0116832D01*
X0129851Y0116177D01*
X0129954Y0115530D01*
X0130156Y0114906D01*
X0130454Y0114323D01*
X0130839Y0113793D01*
X0131070Y0113561D01*
X0134013Y0116504D01*
X0134013Y0116504D01*
X0131070Y0113561D01*
X0131302Y0113329D01*
X0131832Y0112944D01*
X0132416Y0112647D01*
X0133039Y0112444D01*
X0133686Y0112342D01*
X0134341Y0112342D01*
X0134988Y0112444D01*
X0135611Y0112647D01*
X0136195Y0112944D01*
X0136725Y0113329D01*
X0136957Y0113561D01*
X0137188Y0113793D01*
X0137573Y0114323D01*
X0137871Y0114906D01*
X0138073Y0115530D01*
X0138176Y0116177D01*
X0138176Y0116832D01*
X0138073Y0117479D01*
X0137871Y0118102D01*
X0137573Y0118686D01*
X0137299Y0119063D01*
X0183228Y0119063D01*
X0182954Y0118686D01*
X0182656Y0118102D01*
X0182454Y0117479D01*
X0182351Y0116832D01*
X0182351Y0116177D01*
X0182454Y0115530D01*
X0182656Y0114906D01*
X0182954Y0114323D01*
X0183339Y0113793D01*
X0183570Y0113561D01*
X0186513Y0116504D01*
X0186513Y0116504D01*
X0183570Y0113561D01*
X0183802Y0113329D01*
X0184332Y0112944D01*
X0184916Y0112647D01*
X0185539Y0112444D01*
X0186186Y0112342D01*
X0186841Y0112342D01*
X0187488Y0112444D01*
X0188111Y0112647D01*
X0188695Y0112944D01*
X0189225Y0113329D01*
X0189457Y0113561D01*
X0189688Y0113793D01*
X0190073Y0114323D01*
X0190371Y0114906D01*
X0190573Y0115530D01*
X0190676Y0116177D01*
X0190676Y0116832D01*
X0190573Y0117479D01*
X0190371Y0118102D01*
X0190073Y0118686D01*
X0189799Y0119063D01*
X0235728Y0119063D01*
X0235454Y0118686D01*
X0235156Y0118102D01*
X0234954Y0117479D01*
X0234851Y0116832D01*
X0234851Y0116177D01*
X0234954Y0115530D01*
X0235156Y0114906D01*
X0235454Y0114323D01*
X0235839Y0113793D01*
X0236070Y0113561D01*
X0239013Y0116504D01*
X0239013Y0116504D01*
X0236070Y0113561D01*
X0236302Y0113329D01*
X0236832Y0112944D01*
X0237416Y0112647D01*
X0238039Y0112444D01*
X0238686Y0112342D01*
X0239341Y0112342D01*
X0239988Y0112444D01*
X0240611Y0112647D01*
X0241195Y0112944D01*
X0241725Y0113329D01*
X0241957Y0113561D01*
X0242188Y0113793D01*
X0242573Y0114323D01*
X0242871Y0114906D01*
X0243073Y0115530D01*
X0243176Y0116177D01*
X0243176Y0116832D01*
X0243073Y0117479D01*
X0242871Y0118102D01*
X0242573Y0118686D01*
X0242299Y0119063D01*
X0288228Y0119063D01*
X0287954Y0118686D01*
X0287656Y0118102D01*
X0287454Y0117479D01*
X0287351Y0116832D01*
X0287351Y0116177D01*
X0287454Y0115530D01*
X0287656Y0114906D01*
X0287954Y0114323D01*
X0288339Y0113793D01*
X0288570Y0113561D01*
X0291513Y0116504D01*
X0291513Y0116504D01*
X0288570Y0113561D01*
X0288802Y0113329D01*
X0289332Y0112944D01*
X0289916Y0112647D01*
X0290539Y0112444D01*
X0291186Y0112342D01*
X0291841Y0112342D01*
X0292488Y0112444D01*
X0293111Y0112647D01*
X0293695Y0112944D01*
X0294225Y0113329D01*
X0294457Y0113561D01*
X0294688Y0113793D01*
X0295073Y0114323D01*
X0295371Y0114906D01*
X0295573Y0115530D01*
X0295676Y0116177D01*
X0295676Y0116832D01*
X0295573Y0117479D01*
X0295371Y0118102D01*
X0295073Y0118686D01*
X0294799Y0119063D01*
X0340728Y0119063D01*
X0340454Y0118686D01*
X0340156Y0118102D01*
X0339954Y0117479D01*
X0339851Y0116832D01*
X0339851Y0116177D01*
X0339954Y0115530D01*
X0340156Y0114906D01*
X0340454Y0114323D01*
X0340839Y0113793D01*
X0341070Y0113561D01*
X0344013Y0116504D01*
X0344013Y0116504D01*
X0341070Y0113561D01*
X0341302Y0113329D01*
X0341832Y0112944D01*
X0342416Y0112647D01*
X0343039Y0112444D01*
X0343686Y0112342D01*
X0344341Y0112342D01*
X0344988Y0112444D01*
X0345611Y0112647D01*
X0346195Y0112944D01*
X0346725Y0113329D01*
X0346957Y0113561D01*
X0347188Y0113793D01*
X0347573Y0114323D01*
X0347871Y0114906D01*
X0348073Y0115530D01*
X0348176Y0116177D01*
X0348176Y0116832D01*
X0348073Y0117479D01*
X0347871Y0118102D01*
X0347573Y0118686D01*
X0347299Y0119063D01*
X0393228Y0119063D01*
X0392954Y0118686D01*
X0392656Y0118102D01*
X0392454Y0117479D01*
X0392351Y0116832D01*
X0392351Y0116177D01*
X0392454Y0115530D01*
X0392656Y0114906D01*
X0392954Y0114323D01*
X0393339Y0113793D01*
X0393570Y0113561D01*
X0396513Y0116504D01*
X0396513Y0116504D01*
X0393570Y0113561D01*
X0393802Y0113329D01*
X0394332Y0112944D01*
X0394916Y0112647D01*
X0395539Y0112444D01*
X0396186Y0112342D01*
X0396841Y0112342D01*
X0397488Y0112444D01*
X0398111Y0112647D01*
X0398695Y0112944D01*
X0399225Y0113329D01*
X0399457Y0113561D01*
X0399688Y0113793D01*
X0400073Y0114323D01*
X0400371Y0114906D01*
X0400573Y0115530D01*
X0400676Y0116177D01*
X0400676Y0116832D01*
X0400573Y0117479D01*
X0400371Y0118102D01*
X0400073Y0118686D01*
X0399799Y0119063D01*
X0484417Y0119063D01*
X0484417Y0033921D01*
X0483497Y0034841D01*
X0482115Y0035414D01*
X0481265Y0035414D01*
X0482492Y0037019D01*
X0483033Y0037560D01*
X0483033Y0037726D01*
X0483134Y0037859D01*
X0483033Y0038617D01*
X0483033Y0096913D01*
X0483209Y0097088D01*
X0483916Y0098797D01*
X0483916Y0100646D01*
X0483209Y0102354D01*
X0481901Y0103662D01*
X0480193Y0104369D01*
X0478344Y0104369D01*
X0476635Y0103662D01*
X0475328Y0102354D01*
X0474620Y0100646D01*
X0474620Y0098797D01*
X0475328Y0097088D01*
X0476635Y0095781D01*
X0478344Y0095073D01*
X0478633Y0095073D01*
X0478633Y0039216D01*
X0475924Y0035674D01*
X0475383Y0035132D01*
X0475383Y0034966D01*
X0475282Y0034834D01*
X0475383Y0034075D01*
X0475383Y0013882D01*
X0474672Y0013171D01*
X0097381Y0013171D01*
X0097334Y0013218D01*
X0096360Y0013621D01*
X0095306Y0013621D01*
X0094332Y0013218D01*
X0093587Y0012472D01*
X0093183Y0011498D01*
X0093183Y0010444D01*
X0093587Y0009470D01*
X0094332Y0008725D01*
X0095306Y0008321D01*
X0096360Y0008321D01*
X0097334Y0008725D01*
X0097381Y0008771D01*
X0476495Y0008771D01*
X0477783Y0010060D01*
X0478495Y0010771D01*
X0479783Y0012060D01*
X0479783Y0028235D01*
X0480618Y0027889D01*
X0482115Y0027889D01*
X0483497Y0028462D01*
X0484417Y0029382D01*
X0484417Y0006521D01*
X0058883Y0006521D01*
X0058883Y0007918D02*
X0484417Y0007918D01*
X0484417Y0009517D02*
X0477240Y0009517D01*
X0477783Y0010060D02*
X0477783Y0010060D01*
X0478495Y0010771D02*
X0478495Y0010771D01*
X0478839Y0011115D02*
X0484417Y0011115D01*
X0484417Y0012714D02*
X0479783Y0012714D01*
X0479783Y0014312D02*
X0484417Y0014312D01*
X0484417Y0015911D02*
X0479783Y0015911D01*
X0479783Y0017509D02*
X0484417Y0017509D01*
X0484417Y0019108D02*
X0479783Y0019108D01*
X0479783Y0020706D02*
X0484417Y0020706D01*
X0484417Y0022305D02*
X0479783Y0022305D01*
X0479783Y0023903D02*
X0484417Y0023903D01*
X0484417Y0025502D02*
X0479783Y0025502D01*
X0479783Y0027100D02*
X0484417Y0027100D01*
X0484417Y0028699D02*
X0483734Y0028699D01*
X0484417Y0035093D02*
X0482889Y0035093D01*
X0482242Y0036691D02*
X0484417Y0036691D01*
X0484417Y0038290D02*
X0483077Y0038290D01*
X0483033Y0039888D02*
X0484417Y0039888D01*
X0484417Y0041487D02*
X0483033Y0041487D01*
X0483033Y0043085D02*
X0484417Y0043085D01*
X0484417Y0044684D02*
X0483033Y0044684D01*
X0483033Y0046283D02*
X0484417Y0046283D01*
X0484417Y0047881D02*
X0483033Y0047881D01*
X0483033Y0049480D02*
X0484417Y0049480D01*
X0484417Y0051078D02*
X0483033Y0051078D01*
X0483033Y0052677D02*
X0484417Y0052677D01*
X0484417Y0054275D02*
X0483033Y0054275D01*
X0483033Y0055874D02*
X0484417Y0055874D01*
X0484417Y0057472D02*
X0483033Y0057472D01*
X0483033Y0059071D02*
X0484417Y0059071D01*
X0484417Y0060669D02*
X0483033Y0060669D01*
X0483033Y0062268D02*
X0484417Y0062268D01*
X0484417Y0063866D02*
X0483033Y0063866D01*
X0483033Y0065465D02*
X0484417Y0065465D01*
X0484417Y0067063D02*
X0483033Y0067063D01*
X0483033Y0068662D02*
X0484417Y0068662D01*
X0484417Y0070260D02*
X0483033Y0070260D01*
X0483033Y0071859D02*
X0484417Y0071859D01*
X0484417Y0073457D02*
X0483033Y0073457D01*
X0483033Y0075056D02*
X0484417Y0075056D01*
X0484417Y0076654D02*
X0483033Y0076654D01*
X0483033Y0078253D02*
X0484417Y0078253D01*
X0484417Y0079851D02*
X0483033Y0079851D01*
X0483033Y0081450D02*
X0484417Y0081450D01*
X0484417Y0083048D02*
X0483033Y0083048D01*
X0483033Y0084647D02*
X0484417Y0084647D01*
X0484417Y0086245D02*
X0483033Y0086245D01*
X0483033Y0087844D02*
X0484417Y0087844D01*
X0484417Y0089442D02*
X0483033Y0089442D01*
X0483033Y0091041D02*
X0484417Y0091041D01*
X0484417Y0092639D02*
X0483033Y0092639D01*
X0483033Y0094238D02*
X0484417Y0094238D01*
X0484417Y0095836D02*
X0483033Y0095836D01*
X0483352Y0097435D02*
X0484417Y0097435D01*
X0484417Y0099033D02*
X0483916Y0099033D01*
X0483916Y0100632D02*
X0484417Y0100632D01*
X0484417Y0102230D02*
X0483260Y0102230D01*
X0484417Y0103829D02*
X0481497Y0103829D01*
X0484417Y0105427D02*
X0471407Y0105427D01*
X0471407Y0103829D02*
X0477039Y0103829D01*
X0475277Y0102230D02*
X0471407Y0102230D01*
X0471407Y0100632D02*
X0474620Y0100632D01*
X0474620Y0099033D02*
X0471407Y0099033D01*
X0471407Y0097435D02*
X0475184Y0097435D01*
X0476580Y0095836D02*
X0471407Y0095836D01*
X0471407Y0094238D02*
X0478633Y0094238D01*
X0478633Y0092639D02*
X0471407Y0092639D01*
X0471407Y0091041D02*
X0478633Y0091041D01*
X0478633Y0089442D02*
X0471407Y0089442D01*
X0471407Y0088366D02*
X0471407Y0111076D01*
X0470938Y0111545D01*
X0448228Y0111545D01*
X0447760Y0111076D01*
X0447760Y0103942D01*
X0446728Y0104369D01*
X0444879Y0104369D01*
X0443171Y0103662D01*
X0441863Y0102354D01*
X0441156Y0100646D01*
X0441156Y0098797D01*
X0441863Y0097088D01*
X0443171Y0095781D01*
X0444879Y0095073D01*
X0446728Y0095073D01*
X0447760Y0095500D01*
X0447760Y0088366D01*
X0448228Y0087898D01*
X0470938Y0087898D01*
X0471407Y0088366D01*
X0478633Y0087844D02*
X0314692Y0087844D01*
X0314733Y0087944D02*
X0314733Y0088998D01*
X0314330Y0089972D01*
X0313584Y0090718D01*
X0312610Y0091121D01*
X0311556Y0091121D01*
X0310582Y0090718D01*
X0309837Y0089972D01*
X0309433Y0088998D01*
X0309433Y0087944D01*
X0309837Y0086970D01*
X0309883Y0086924D01*
X0309883Y0048769D01*
X0309837Y0048722D01*
X0309433Y0047748D01*
X0309433Y0046694D01*
X0309837Y0045720D01*
X0310582Y0044975D01*
X0311556Y0044571D01*
X0312610Y0044571D01*
X0313584Y0044975D01*
X0314330Y0045720D01*
X0314733Y0046694D01*
X0314733Y0047748D01*
X0314330Y0048722D01*
X0314283Y0048769D01*
X0314283Y0086924D01*
X0314330Y0086970D01*
X0314733Y0087944D01*
X0314549Y0089442D02*
X0447760Y0089442D01*
X0447760Y0091041D02*
X0312805Y0091041D01*
X0311362Y0091041D02*
X0220305Y0091041D01*
X0220110Y0091121D02*
X0221084Y0090718D01*
X0221830Y0089972D01*
X0222233Y0088998D01*
X0222233Y0087944D01*
X0221830Y0086970D01*
X0221783Y0086924D01*
X0221783Y0048533D01*
X0221830Y0048486D01*
X0222233Y0047512D01*
X0222233Y0046458D01*
X0221830Y0045484D01*
X0221084Y0044738D01*
X0220110Y0044335D01*
X0219056Y0044335D01*
X0218082Y0044738D01*
X0217337Y0045484D01*
X0216933Y0046458D01*
X0216933Y0047512D01*
X0217337Y0048486D01*
X0217383Y0048533D01*
X0217383Y0086924D01*
X0217337Y0086970D01*
X0216933Y0087944D01*
X0216933Y0088998D01*
X0217337Y0089972D01*
X0218082Y0090718D01*
X0219056Y0091121D01*
X0220110Y0091121D01*
X0219931Y0092102D02*
X0220990Y0093160D01*
X0221563Y0094543D01*
X0221563Y0096039D01*
X0220990Y0097422D01*
X0219931Y0098480D01*
X0218549Y0099053D01*
X0217052Y0099053D01*
X0215669Y0098480D01*
X0214611Y0097422D01*
X0214038Y0096039D01*
X0214038Y0094543D01*
X0214611Y0093160D01*
X0215669Y0092102D01*
X0217052Y0091529D01*
X0218549Y0091529D01*
X0219931Y0092102D01*
X0220469Y0092639D02*
X0267631Y0092639D01*
X0267111Y0093160D02*
X0268169Y0092102D01*
X0269552Y0091529D01*
X0271049Y0091529D01*
X0272431Y0092102D01*
X0273490Y0093160D01*
X0274063Y0094543D01*
X0274063Y0096039D01*
X0273490Y0097422D01*
X0272431Y0098480D01*
X0271049Y0099053D01*
X0269552Y0099053D01*
X0268169Y0098480D01*
X0267111Y0097422D01*
X0266538Y0096039D01*
X0266538Y0094543D01*
X0267111Y0093160D01*
X0266664Y0094238D02*
X0221436Y0094238D01*
X0221563Y0095836D02*
X0266538Y0095836D01*
X0267124Y0097435D02*
X0220977Y0097435D01*
X0222740Y0099173D02*
X0224123Y0098600D01*
X0225620Y0098600D01*
X0227003Y0099173D01*
X0227992Y0100162D01*
X0274251Y0100162D01*
X0275240Y0099173D01*
X0276623Y0098600D01*
X0278120Y0098600D01*
X0279503Y0099173D01*
X0280492Y0100162D01*
X0326751Y0100162D01*
X0327740Y0099173D01*
X0329123Y0098600D01*
X0330620Y0098600D01*
X0332003Y0099173D01*
X0332992Y0100162D01*
X0379251Y0100162D01*
X0380240Y0099173D01*
X0381623Y0098600D01*
X0383120Y0098600D01*
X0384503Y0099173D01*
X0385561Y0100231D01*
X0386134Y0101614D01*
X0386134Y0103110D01*
X0385561Y0104493D01*
X0384503Y0105552D01*
X0383120Y0106124D01*
X0381623Y0106124D01*
X0380240Y0105552D01*
X0379251Y0104562D01*
X0332992Y0104562D01*
X0332003Y0105552D01*
X0330620Y0106124D01*
X0329123Y0106124D01*
X0327740Y0105552D01*
X0326751Y0104562D01*
X0280492Y0104562D01*
X0279503Y0105552D01*
X0278120Y0106124D01*
X0276623Y0106124D01*
X0275240Y0105552D01*
X0274251Y0104562D01*
X0227992Y0104562D01*
X0227003Y0105552D01*
X0225620Y0106124D01*
X0224123Y0106124D01*
X0222740Y0105552D01*
X0221751Y0104562D01*
X0175492Y0104562D01*
X0174503Y0105552D01*
X0173120Y0106124D01*
X0171623Y0106124D01*
X0170240Y0105552D01*
X0169251Y0104562D01*
X0122992Y0104562D01*
X0122003Y0105552D01*
X0120620Y0106124D01*
X0119123Y0106124D01*
X0117740Y0105552D01*
X0116751Y0104562D01*
X0070492Y0104562D01*
X0069503Y0105552D01*
X0068120Y0106124D01*
X0066623Y0106124D01*
X0065240Y0105552D01*
X0064182Y0104493D01*
X0063609Y0103110D01*
X0063609Y0101614D01*
X0064182Y0100231D01*
X0065171Y0099242D01*
X0065171Y0047272D01*
X0068183Y0044260D01*
X0068183Y0044194D01*
X0068587Y0043220D01*
X0069332Y0042475D01*
X0070306Y0042071D01*
X0071360Y0042071D01*
X0072334Y0042475D01*
X0073080Y0043220D01*
X0073483Y0044194D01*
X0073483Y0045248D01*
X0073080Y0046222D01*
X0072334Y0046968D01*
X0071360Y0047371D01*
X0071295Y0047371D01*
X0069571Y0049094D01*
X0069571Y0099242D01*
X0070492Y0100162D01*
X0116751Y0100162D01*
X0117740Y0099173D01*
X0119123Y0098600D01*
X0120620Y0098600D01*
X0122003Y0099173D01*
X0122992Y0100162D01*
X0169251Y0100162D01*
X0170240Y0099173D01*
X0171623Y0098600D01*
X0173120Y0098600D01*
X0174503Y0099173D01*
X0175492Y0100162D01*
X0221751Y0100162D01*
X0222740Y0099173D01*
X0223076Y0099033D02*
X0218597Y0099033D01*
X0217004Y0099033D02*
X0174166Y0099033D01*
X0170576Y0099033D02*
X0166097Y0099033D01*
X0166049Y0099053D02*
X0164552Y0099053D01*
X0163169Y0098480D01*
X0162111Y0097422D01*
X0161538Y0096039D01*
X0161538Y0094543D01*
X0162111Y0093160D01*
X0163169Y0092102D01*
X0164552Y0091529D01*
X0166049Y0091529D01*
X0167431Y0092102D01*
X0168490Y0093160D01*
X0169063Y0094543D01*
X0169063Y0096039D01*
X0168490Y0097422D01*
X0167431Y0098480D01*
X0166049Y0099053D01*
X0164504Y0099033D02*
X0121666Y0099033D01*
X0118076Y0099033D02*
X0113597Y0099033D01*
X0113549Y0099053D02*
X0112052Y0099053D01*
X0110669Y0098480D01*
X0109611Y0097422D01*
X0109038Y0096039D01*
X0109038Y0094543D01*
X0109611Y0093160D01*
X0110669Y0092102D01*
X0112052Y0091529D01*
X0113549Y0091529D01*
X0114931Y0092102D01*
X0115990Y0093160D01*
X0116563Y0094543D01*
X0116563Y0096039D01*
X0115990Y0097422D01*
X0114931Y0098480D01*
X0113549Y0099053D01*
X0112004Y0099033D02*
X0069571Y0099033D01*
X0069571Y0097435D02*
X0109624Y0097435D01*
X0109038Y0095836D02*
X0069571Y0095836D01*
X0069571Y0094238D02*
X0109164Y0094238D01*
X0110131Y0092639D02*
X0069571Y0092639D01*
X0069571Y0091041D02*
X0218862Y0091041D01*
X0217117Y0089442D02*
X0069571Y0089442D01*
X0069571Y0087844D02*
X0216975Y0087844D01*
X0217383Y0086245D02*
X0120557Y0086245D01*
X0120580Y0086222D02*
X0119834Y0086968D01*
X0118860Y0087371D01*
X0117806Y0087371D01*
X0116832Y0086968D01*
X0116087Y0086222D01*
X0115683Y0085248D01*
X0115683Y0084194D01*
X0116087Y0083220D01*
X0116133Y0083174D01*
X0116133Y0047519D01*
X0116087Y0047472D01*
X0115683Y0046498D01*
X0115683Y0045444D01*
X0116087Y0044470D01*
X0116832Y0043725D01*
X0117806Y0043321D01*
X0118860Y0043321D01*
X0119834Y0043725D01*
X0120580Y0044470D01*
X0120983Y0045444D01*
X0120983Y0046498D01*
X0120580Y0047472D01*
X0120533Y0047519D01*
X0120533Y0083174D01*
X0120580Y0083220D01*
X0120983Y0084194D01*
X0120983Y0085248D01*
X0120580Y0086222D01*
X0120983Y0084647D02*
X0217383Y0084647D01*
X0217383Y0083048D02*
X0120533Y0083048D01*
X0120533Y0081450D02*
X0217383Y0081450D01*
X0217383Y0079851D02*
X0120533Y0079851D01*
X0120533Y0078253D02*
X0217383Y0078253D01*
X0217383Y0076654D02*
X0120533Y0076654D01*
X0120533Y0075056D02*
X0208650Y0075056D01*
X0208577Y0074982D02*
X0208173Y0074008D01*
X0208173Y0072954D01*
X0208577Y0071980D01*
X0208633Y0071924D01*
X0208633Y0041269D01*
X0208587Y0041222D01*
X0208183Y0040248D01*
X0208183Y0039194D01*
X0208587Y0038220D01*
X0209332Y0037475D01*
X0210306Y0037071D01*
X0211360Y0037071D01*
X0212334Y0037475D01*
X0213080Y0038220D01*
X0213483Y0039194D01*
X0213483Y0040248D01*
X0213080Y0041222D01*
X0213033Y0041269D01*
X0213033Y0071943D01*
X0213070Y0071980D01*
X0213473Y0072954D01*
X0213473Y0074008D01*
X0213070Y0074982D01*
X0212325Y0075728D01*
X0211351Y0076131D01*
X0210296Y0076131D01*
X0209322Y0075728D01*
X0208577Y0074982D01*
X0208173Y0073457D02*
X0120533Y0073457D01*
X0120533Y0071859D02*
X0208633Y0071859D01*
X0208633Y0070260D02*
X0120533Y0070260D01*
X0120533Y0068662D02*
X0208633Y0068662D01*
X0208633Y0067063D02*
X0120533Y0067063D01*
X0120533Y0065465D02*
X0208633Y0065465D01*
X0208633Y0063866D02*
X0120533Y0063866D01*
X0120533Y0062268D02*
X0208633Y0062268D01*
X0208633Y0060669D02*
X0120533Y0060669D01*
X0120533Y0059071D02*
X0208633Y0059071D01*
X0208633Y0057472D02*
X0120533Y0057472D01*
X0120533Y0055874D02*
X0208633Y0055874D01*
X0208633Y0054275D02*
X0120533Y0054275D01*
X0120533Y0052677D02*
X0208633Y0052677D01*
X0208633Y0051078D02*
X0120533Y0051078D01*
X0120533Y0049480D02*
X0208633Y0049480D01*
X0208633Y0047881D02*
X0120533Y0047881D01*
X0120983Y0046283D02*
X0208633Y0046283D01*
X0208633Y0044684D02*
X0120668Y0044684D01*
X0118333Y0045971D02*
X0118333Y0084721D01*
X0115683Y0084647D02*
X0069571Y0084647D01*
X0069571Y0086245D02*
X0116110Y0086245D01*
X0116133Y0083048D02*
X0069571Y0083048D01*
X0069571Y0081450D02*
X0111314Y0081450D01*
X0111087Y0081222D02*
X0110683Y0080248D01*
X0110683Y0079194D01*
X0111087Y0078220D01*
X0111133Y0078174D01*
X0111124Y0041279D01*
X0111077Y0041232D01*
X0110673Y0040258D01*
X0110673Y0039204D01*
X0111077Y0038230D01*
X0111822Y0037484D01*
X0112796Y0037081D01*
X0113851Y0037081D01*
X0114825Y0037484D01*
X0115570Y0038230D01*
X0115973Y0039204D01*
X0115973Y0040258D01*
X0115570Y0041232D01*
X0115524Y0041278D01*
X0115533Y0078173D01*
X0115580Y0078220D01*
X0115983Y0079194D01*
X0115983Y0080248D01*
X0115580Y0081222D01*
X0114834Y0081968D01*
X0113860Y0082371D01*
X0112806Y0082371D01*
X0111832Y0081968D01*
X0111087Y0081222D01*
X0110683Y0079851D02*
X0069571Y0079851D01*
X0069571Y0078253D02*
X0111073Y0078253D01*
X0111133Y0076654D02*
X0069571Y0076654D01*
X0069571Y0075056D02*
X0111132Y0075056D01*
X0111132Y0073457D02*
X0069571Y0073457D01*
X0069571Y0071859D02*
X0111131Y0071859D01*
X0111131Y0070260D02*
X0069571Y0070260D01*
X0069571Y0068662D02*
X0111131Y0068662D01*
X0111130Y0067063D02*
X0069571Y0067063D01*
X0069571Y0065465D02*
X0111130Y0065465D01*
X0111129Y0063866D02*
X0069571Y0063866D01*
X0069571Y0062268D02*
X0111129Y0062268D01*
X0111129Y0060669D02*
X0069571Y0060669D01*
X0069571Y0059071D02*
X0111128Y0059071D01*
X0111128Y0057472D02*
X0069571Y0057472D01*
X0069571Y0055874D02*
X0111127Y0055874D01*
X0111127Y0054275D02*
X0069571Y0054275D01*
X0069571Y0052677D02*
X0111127Y0052677D01*
X0111126Y0051078D02*
X0069571Y0051078D01*
X0069571Y0049480D02*
X0111126Y0049480D01*
X0111126Y0047881D02*
X0070785Y0047881D01*
X0073020Y0046283D02*
X0111125Y0046283D01*
X0111125Y0044684D02*
X0073483Y0044684D01*
X0072945Y0043085D02*
X0111124Y0043085D01*
X0111124Y0041487D02*
X0058883Y0041487D01*
X0058883Y0043085D02*
X0068721Y0043085D01*
X0067759Y0044684D02*
X0058883Y0044684D01*
X0058883Y0046283D02*
X0066161Y0046283D01*
X0065171Y0047881D02*
X0058883Y0047881D01*
X0058883Y0049480D02*
X0065171Y0049480D01*
X0065171Y0051078D02*
X0058883Y0051078D01*
X0058883Y0052677D02*
X0065171Y0052677D01*
X0065171Y0054275D02*
X0058883Y0054275D01*
X0058883Y0055874D02*
X0065171Y0055874D01*
X0065171Y0057472D02*
X0058883Y0057472D01*
X0058883Y0059071D02*
X0065171Y0059071D01*
X0065171Y0060669D02*
X0058883Y0060669D01*
X0058883Y0062268D02*
X0065171Y0062268D01*
X0065171Y0063866D02*
X0058883Y0063866D01*
X0058883Y0065465D02*
X0065171Y0065465D01*
X0065171Y0067063D02*
X0058883Y0067063D01*
X0058883Y0068662D02*
X0065171Y0068662D01*
X0065171Y0070260D02*
X0058883Y0070260D01*
X0058883Y0071859D02*
X0065171Y0071859D01*
X0065171Y0073457D02*
X0058883Y0073457D01*
X0058883Y0075056D02*
X0065171Y0075056D01*
X0065171Y0076654D02*
X0058883Y0076654D01*
X0058883Y0078253D02*
X0065171Y0078253D01*
X0065171Y0079851D02*
X0058883Y0079851D01*
X0058883Y0081450D02*
X0065171Y0081450D01*
X0065171Y0083048D02*
X0058883Y0083048D01*
X0058883Y0084647D02*
X0065171Y0084647D01*
X0065171Y0086245D02*
X0058883Y0086245D01*
X0058883Y0087844D02*
X0065171Y0087844D01*
X0065171Y0089442D02*
X0058883Y0089442D01*
X0058883Y0091041D02*
X0065171Y0091041D01*
X0065171Y0092639D02*
X0062969Y0092639D01*
X0063936Y0094238D02*
X0065171Y0094238D01*
X0065171Y0095836D02*
X0064063Y0095836D01*
X0063477Y0097435D02*
X0065171Y0097435D01*
X0065171Y0099033D02*
X0061097Y0099033D01*
X0059504Y0099033D02*
X0058883Y0099033D01*
X0058883Y0100632D02*
X0064016Y0100632D01*
X0063609Y0102230D02*
X0058883Y0102230D01*
X0058883Y0103829D02*
X0063907Y0103829D01*
X0065116Y0105427D02*
X0058883Y0105427D01*
X0058883Y0107026D02*
X0071529Y0107026D01*
X0071253Y0107302D02*
X0072311Y0106244D01*
X0073694Y0105671D01*
X0075191Y0105671D01*
X0076574Y0106244D01*
X0077632Y0107302D01*
X0078205Y0108685D01*
X0078205Y0110181D01*
X0077632Y0111564D01*
X0076574Y0112623D01*
X0075191Y0113195D01*
X0073694Y0113195D01*
X0072311Y0112623D01*
X0071253Y0111564D01*
X0070680Y0110181D01*
X0070680Y0108685D01*
X0071253Y0107302D01*
X0070705Y0108624D02*
X0058883Y0108624D01*
X0058883Y0110223D02*
X0070697Y0110223D01*
X0071510Y0111821D02*
X0058883Y0111821D01*
X0058883Y0113420D02*
X0078711Y0113420D01*
X0077620Y0115018D02*
X0058883Y0115018D01*
X0058883Y0116617D02*
X0077351Y0116617D01*
X0077714Y0118216D02*
X0058883Y0118216D01*
X0077375Y0111821D02*
X0124010Y0111821D01*
X0123753Y0111564D02*
X0123180Y0110181D01*
X0123180Y0108685D01*
X0123753Y0107302D01*
X0124811Y0106244D01*
X0126194Y0105671D01*
X0127691Y0105671D01*
X0129074Y0106244D01*
X0130132Y0107302D01*
X0130705Y0108685D01*
X0130705Y0110181D01*
X0130132Y0111564D01*
X0129074Y0112623D01*
X0127691Y0113195D01*
X0126194Y0113195D01*
X0124811Y0112623D01*
X0123753Y0111564D01*
X0123197Y0110223D02*
X0078187Y0110223D01*
X0078180Y0108624D02*
X0123205Y0108624D01*
X0124029Y0107026D02*
X0077356Y0107026D01*
X0069627Y0105427D02*
X0117616Y0105427D01*
X0119871Y0102362D02*
X0172371Y0102362D01*
X0224871Y0102362D01*
X0277371Y0102362D01*
X0329871Y0102362D01*
X0382371Y0102362D01*
X0385836Y0103829D02*
X0431058Y0103829D01*
X0431347Y0104039D02*
X0430704Y0103572D01*
X0430142Y0103010D01*
X0429675Y0102367D01*
X0429315Y0101659D01*
X0429069Y0100903D01*
X0428945Y0100119D01*
X0428945Y0100004D01*
X0433710Y0100004D01*
X0433710Y0104769D01*
X0433595Y0104769D01*
X0432811Y0104645D01*
X0432055Y0104399D01*
X0431347Y0104039D01*
X0433710Y0103829D02*
X0434275Y0103829D01*
X0434275Y0104769D02*
X0434275Y0100004D01*
X0433710Y0100004D01*
X0433710Y0099439D01*
X0428945Y0099439D01*
X0428945Y0099324D01*
X0429069Y0098539D01*
X0429315Y0097783D01*
X0429675Y0097075D01*
X0430142Y0096433D01*
X0430704Y0095871D01*
X0431347Y0095404D01*
X0432055Y0095043D01*
X0432811Y0094797D01*
X0433595Y0094673D01*
X0433710Y0094673D01*
X0433710Y0099438D01*
X0434275Y0099438D01*
X0434275Y0094673D01*
X0434390Y0094673D01*
X0435175Y0094797D01*
X0435931Y0095043D01*
X0436639Y0095404D01*
X0437281Y0095871D01*
X0437843Y0096433D01*
X0438310Y0097075D01*
X0438671Y0097783D01*
X0438916Y0098539D01*
X0439041Y0099324D01*
X0439041Y0099439D01*
X0434276Y0099439D01*
X0434276Y0100004D01*
X0439041Y0100004D01*
X0439041Y0100119D01*
X0438916Y0100903D01*
X0438671Y0101659D01*
X0438310Y0102367D01*
X0437843Y0103010D01*
X0437281Y0103572D01*
X0436639Y0104039D01*
X0435931Y0104399D01*
X0435175Y0104645D01*
X0434390Y0104769D01*
X0434275Y0104769D01*
X0434275Y0102230D02*
X0433710Y0102230D01*
X0433710Y0100632D02*
X0434275Y0100632D01*
X0434275Y0099033D02*
X0433710Y0099033D01*
X0433710Y0097435D02*
X0434275Y0097435D01*
X0434275Y0095836D02*
X0433710Y0095836D01*
X0430752Y0095836D02*
X0379063Y0095836D01*
X0379063Y0096039D02*
X0378490Y0097422D01*
X0377431Y0098480D01*
X0376049Y0099053D01*
X0374552Y0099053D01*
X0373169Y0098480D01*
X0372111Y0097422D01*
X0371538Y0096039D01*
X0371538Y0094543D01*
X0372111Y0093160D01*
X0373169Y0092102D01*
X0374552Y0091529D01*
X0376049Y0091529D01*
X0377431Y0092102D01*
X0378490Y0093160D01*
X0379063Y0094543D01*
X0379063Y0096039D01*
X0378477Y0097435D02*
X0429492Y0097435D01*
X0428991Y0099033D02*
X0384166Y0099033D01*
X0385727Y0100632D02*
X0429026Y0100632D01*
X0429606Y0102230D02*
X0386134Y0102230D01*
X0384627Y0105427D02*
X0447760Y0105427D01*
X0447760Y0107026D02*
X0392356Y0107026D01*
X0392632Y0107302D02*
X0393205Y0108685D01*
X0393205Y0110181D01*
X0392632Y0111564D01*
X0391574Y0112623D01*
X0390191Y0113195D01*
X0388694Y0113195D01*
X0387311Y0112623D01*
X0386253Y0111564D01*
X0385680Y0110181D01*
X0385680Y0108685D01*
X0386253Y0107302D01*
X0387311Y0106244D01*
X0388694Y0105671D01*
X0390191Y0105671D01*
X0391574Y0106244D01*
X0392632Y0107302D01*
X0393180Y0108624D02*
X0447760Y0108624D01*
X0447760Y0110223D02*
X0393187Y0110223D01*
X0392375Y0111821D02*
X0484417Y0111821D01*
X0484417Y0110223D02*
X0471407Y0110223D01*
X0471407Y0108624D02*
X0484417Y0108624D01*
X0484417Y0107026D02*
X0471407Y0107026D01*
X0484417Y0113420D02*
X0399316Y0113420D01*
X0399457Y0113561D02*
X0396514Y0116504D01*
X0399457Y0113561D01*
X0400407Y0115018D02*
X0484417Y0115018D01*
X0484417Y0116617D02*
X0400676Y0116617D01*
X0400313Y0118216D02*
X0484417Y0118216D01*
X0479268Y0099721D02*
X0480833Y0098156D01*
X0480833Y0038471D01*
X0477583Y0034221D01*
X0477583Y0012971D01*
X0475583Y0010971D01*
X0095833Y0010971D01*
X0093183Y0011115D02*
X0058883Y0011115D01*
X0058883Y0009517D02*
X0093567Y0009517D01*
X0093828Y0012714D02*
X0058883Y0012714D01*
X0058883Y0014312D02*
X0071814Y0014312D01*
X0071978Y0014148D02*
X0071510Y0014616D01*
X0071510Y0037326D01*
X0071978Y0037795D01*
X0094688Y0037795D01*
X0095157Y0037326D01*
X0095157Y0030192D01*
X0096188Y0030619D01*
X0098037Y0030619D01*
X0099746Y0029912D01*
X0101053Y0028604D01*
X0101761Y0026896D01*
X0101761Y0025047D01*
X0101053Y0023338D01*
X0099746Y0022031D01*
X0098037Y0021323D01*
X0096188Y0021323D01*
X0095157Y0021750D01*
X0095157Y0014616D01*
X0094688Y0014148D01*
X0071978Y0014148D01*
X0071510Y0015911D02*
X0058883Y0015911D01*
X0058883Y0017509D02*
X0071510Y0017509D01*
X0071510Y0019108D02*
X0058883Y0019108D01*
X0058883Y0020706D02*
X0071510Y0020706D01*
X0071510Y0022305D02*
X0066555Y0022305D01*
X0066281Y0022031D02*
X0067589Y0023338D01*
X0068296Y0025047D01*
X0068296Y0026896D01*
X0067589Y0028604D01*
X0066281Y0029912D01*
X0064573Y0030619D01*
X0062724Y0030619D01*
X0061015Y0029912D01*
X0059708Y0028604D01*
X0059000Y0026896D01*
X0059000Y0025047D01*
X0059708Y0023338D01*
X0061015Y0022031D01*
X0062724Y0021323D01*
X0064573Y0021323D01*
X0066281Y0022031D01*
X0067823Y0023903D02*
X0071510Y0023903D01*
X0071510Y0025502D02*
X0068296Y0025502D01*
X0068212Y0027100D02*
X0071510Y0027100D01*
X0071510Y0028699D02*
X0067494Y0028699D01*
X0065350Y0030297D02*
X0071510Y0030297D01*
X0071510Y0031896D02*
X0058883Y0031896D01*
X0058883Y0033494D02*
X0071510Y0033494D01*
X0071510Y0035093D02*
X0058883Y0035093D01*
X0058883Y0036691D02*
X0071510Y0036691D01*
X0070833Y0044721D02*
X0067371Y0048183D01*
X0067371Y0102362D01*
X0119871Y0102362D01*
X0122127Y0105427D02*
X0170116Y0105427D01*
X0174627Y0105427D02*
X0222616Y0105427D01*
X0227127Y0105427D02*
X0275116Y0105427D01*
X0279627Y0105427D02*
X0327616Y0105427D01*
X0332127Y0105427D02*
X0380116Y0105427D01*
X0385705Y0108624D02*
X0340680Y0108624D01*
X0340705Y0108685D02*
X0340132Y0107302D01*
X0339074Y0106244D01*
X0337691Y0105671D01*
X0336194Y0105671D01*
X0334811Y0106244D01*
X0333753Y0107302D01*
X0333180Y0108685D01*
X0333180Y0110181D01*
X0333753Y0111564D01*
X0334811Y0112623D01*
X0336194Y0113195D01*
X0337691Y0113195D01*
X0339074Y0112623D01*
X0340132Y0111564D01*
X0340705Y0110181D01*
X0340705Y0108685D01*
X0340687Y0110223D02*
X0385697Y0110223D01*
X0386510Y0111821D02*
X0339875Y0111821D01*
X0341211Y0113420D02*
X0294316Y0113420D01*
X0294457Y0113561D02*
X0291514Y0116504D01*
X0294457Y0113561D01*
X0295407Y0115018D02*
X0340120Y0115018D01*
X0339851Y0116617D02*
X0295676Y0116617D01*
X0295313Y0118216D02*
X0340214Y0118216D01*
X0342528Y0115018D02*
X0342528Y0115018D01*
X0344014Y0116504D02*
X0344014Y0116504D01*
X0346957Y0113561D01*
X0344014Y0116504D01*
X0345499Y0115018D02*
X0345499Y0115018D01*
X0346816Y0113420D02*
X0393711Y0113420D01*
X0392620Y0115018D02*
X0347907Y0115018D01*
X0348176Y0116617D02*
X0392351Y0116617D01*
X0392714Y0118216D02*
X0347813Y0118216D01*
X0334010Y0111821D02*
X0287375Y0111821D01*
X0287632Y0111564D02*
X0286574Y0112623D01*
X0285191Y0113195D01*
X0283694Y0113195D01*
X0282311Y0112623D01*
X0281253Y0111564D01*
X0280680Y0110181D01*
X0280680Y0108685D01*
X0281253Y0107302D01*
X0282311Y0106244D01*
X0283694Y0105671D01*
X0285191Y0105671D01*
X0286574Y0106244D01*
X0287632Y0107302D01*
X0288205Y0108685D01*
X0288205Y0110181D01*
X0287632Y0111564D01*
X0288187Y0110223D02*
X0333197Y0110223D01*
X0333205Y0108624D02*
X0288180Y0108624D01*
X0287356Y0107026D02*
X0334029Y0107026D01*
X0339856Y0107026D02*
X0386529Y0107026D01*
X0395028Y0115018D02*
X0395028Y0115018D01*
X0396514Y0116504D02*
X0396514Y0116504D01*
X0397999Y0115018D02*
X0397999Y0115018D01*
X0380576Y0099033D02*
X0376097Y0099033D01*
X0374504Y0099033D02*
X0331666Y0099033D01*
X0328076Y0099033D02*
X0323597Y0099033D01*
X0323549Y0099053D02*
X0322052Y0099053D01*
X0320669Y0098480D01*
X0319611Y0097422D01*
X0319038Y0096039D01*
X0319038Y0094543D01*
X0319611Y0093160D01*
X0320669Y0092102D01*
X0322052Y0091529D01*
X0323549Y0091529D01*
X0324931Y0092102D01*
X0325990Y0093160D01*
X0326563Y0094543D01*
X0326563Y0096039D01*
X0325990Y0097422D01*
X0324931Y0098480D01*
X0323549Y0099053D01*
X0322004Y0099033D02*
X0279166Y0099033D01*
X0275576Y0099033D02*
X0271097Y0099033D01*
X0269504Y0099033D02*
X0226666Y0099033D01*
X0229811Y0106244D02*
X0231194Y0105671D01*
X0232691Y0105671D01*
X0234074Y0106244D01*
X0235132Y0107302D01*
X0235705Y0108685D01*
X0235705Y0110181D01*
X0235132Y0111564D01*
X0234074Y0112623D01*
X0232691Y0113195D01*
X0231194Y0113195D01*
X0229811Y0112623D01*
X0228753Y0111564D01*
X0228180Y0110181D01*
X0228180Y0108685D01*
X0228753Y0107302D01*
X0229811Y0106244D01*
X0229029Y0107026D02*
X0182356Y0107026D01*
X0182632Y0107302D02*
X0183205Y0108685D01*
X0183205Y0110181D01*
X0182632Y0111564D01*
X0181574Y0112623D01*
X0180191Y0113195D01*
X0178694Y0113195D01*
X0177311Y0112623D01*
X0176253Y0111564D01*
X0175680Y0110181D01*
X0175680Y0108685D01*
X0176253Y0107302D01*
X0177311Y0106244D01*
X0178694Y0105671D01*
X0180191Y0105671D01*
X0181574Y0106244D01*
X0182632Y0107302D01*
X0183180Y0108624D02*
X0228205Y0108624D01*
X0228197Y0110223D02*
X0183187Y0110223D01*
X0182375Y0111821D02*
X0229010Y0111821D01*
X0234875Y0111821D02*
X0281510Y0111821D01*
X0280697Y0110223D02*
X0235687Y0110223D01*
X0235680Y0108624D02*
X0280705Y0108624D01*
X0281529Y0107026D02*
X0234856Y0107026D01*
X0236211Y0113420D02*
X0189316Y0113420D01*
X0189457Y0113561D02*
X0186514Y0116504D01*
X0189457Y0113561D01*
X0190407Y0115018D02*
X0235120Y0115018D01*
X0234851Y0116617D02*
X0190676Y0116617D01*
X0190313Y0118216D02*
X0235214Y0118216D01*
X0237528Y0115018D02*
X0237528Y0115018D01*
X0239014Y0116504D02*
X0239014Y0116504D01*
X0241957Y0113561D01*
X0239014Y0116504D01*
X0240499Y0115018D02*
X0240499Y0115018D01*
X0241816Y0113420D02*
X0288711Y0113420D01*
X0287620Y0115018D02*
X0242907Y0115018D01*
X0243176Y0116617D02*
X0287351Y0116617D01*
X0287714Y0118216D02*
X0242813Y0118216D01*
X0214624Y0097435D02*
X0168477Y0097435D01*
X0169063Y0095836D02*
X0214038Y0095836D01*
X0214164Y0094238D02*
X0168936Y0094238D01*
X0167969Y0092639D02*
X0215131Y0092639D01*
X0219583Y0088471D02*
X0219583Y0046985D01*
X0217086Y0047881D02*
X0213033Y0047881D01*
X0213033Y0046283D02*
X0217006Y0046283D01*
X0218214Y0044684D02*
X0213033Y0044684D01*
X0213033Y0043085D02*
X0304883Y0043085D01*
X0304883Y0041487D02*
X0213033Y0041487D01*
X0213483Y0039888D02*
X0304433Y0039888D01*
X0304433Y0040248D02*
X0304433Y0039194D01*
X0304837Y0038220D01*
X0305582Y0037475D01*
X0306556Y0037071D01*
X0307610Y0037071D01*
X0308584Y0037475D01*
X0309330Y0038220D01*
X0309733Y0039194D01*
X0309733Y0040248D01*
X0309330Y0041222D01*
X0309283Y0041269D01*
X0309283Y0074424D01*
X0309330Y0074470D01*
X0309733Y0075444D01*
X0309733Y0076498D01*
X0309330Y0077472D01*
X0308584Y0078218D01*
X0307610Y0078621D01*
X0306556Y0078621D01*
X0305582Y0078218D01*
X0304837Y0077472D01*
X0304433Y0076498D01*
X0304433Y0075444D01*
X0304837Y0074470D01*
X0304883Y0074424D01*
X0304883Y0041269D01*
X0304837Y0041222D01*
X0304433Y0040248D01*
X0304808Y0038290D02*
X0213109Y0038290D01*
X0210833Y0039721D02*
X0210833Y0073471D01*
X0213473Y0073457D02*
X0217383Y0073457D01*
X0217383Y0071859D02*
X0213033Y0071859D01*
X0213033Y0070260D02*
X0217383Y0070260D01*
X0217383Y0068662D02*
X0213033Y0068662D01*
X0213033Y0067063D02*
X0217383Y0067063D01*
X0217383Y0065465D02*
X0213033Y0065465D01*
X0213033Y0063866D02*
X0217383Y0063866D01*
X0217383Y0062268D02*
X0213033Y0062268D01*
X0213033Y0060669D02*
X0217383Y0060669D01*
X0217383Y0059071D02*
X0213033Y0059071D01*
X0213033Y0057472D02*
X0217383Y0057472D01*
X0217383Y0055874D02*
X0213033Y0055874D01*
X0213033Y0054275D02*
X0217383Y0054275D01*
X0217383Y0052677D02*
X0213033Y0052677D01*
X0213033Y0051078D02*
X0217383Y0051078D01*
X0217383Y0049480D02*
X0213033Y0049480D01*
X0208633Y0043085D02*
X0115524Y0043085D01*
X0115524Y0041487D02*
X0208633Y0041487D01*
X0208183Y0039888D02*
X0115973Y0039888D01*
X0115595Y0038290D02*
X0208558Y0038290D01*
X0215677Y0033783D02*
X0215104Y0032400D01*
X0215104Y0030903D01*
X0215677Y0029520D01*
X0216735Y0028462D01*
X0218118Y0027889D01*
X0219615Y0027889D01*
X0220997Y0028462D01*
X0222056Y0029520D01*
X0222629Y0030903D01*
X0222629Y0032400D01*
X0222056Y0033783D01*
X0220997Y0034841D01*
X0219615Y0035414D01*
X0218118Y0035414D01*
X0216735Y0034841D01*
X0215677Y0033783D01*
X0215558Y0033494D02*
X0169675Y0033494D01*
X0169556Y0033783D02*
X0168497Y0034841D01*
X0167115Y0035414D01*
X0165618Y0035414D01*
X0164235Y0034841D01*
X0163177Y0033783D01*
X0162633Y0032470D01*
X0162633Y0034217D01*
X0161579Y0035271D01*
X0120088Y0035271D01*
X0119033Y0034217D01*
X0119033Y0022726D01*
X0120088Y0021671D01*
X0161579Y0021671D01*
X0162633Y0022726D01*
X0162633Y0030833D01*
X0163177Y0029520D01*
X0164235Y0028462D01*
X0165618Y0027889D01*
X0167115Y0027889D01*
X0168497Y0028462D01*
X0169556Y0029520D01*
X0170129Y0030903D01*
X0170129Y0032400D01*
X0169556Y0033783D01*
X0170129Y0031896D02*
X0215104Y0031896D01*
X0215355Y0030297D02*
X0169878Y0030297D01*
X0168734Y0028699D02*
X0216498Y0028699D01*
X0221234Y0028699D02*
X0268998Y0028699D01*
X0269235Y0028462D02*
X0270618Y0027889D01*
X0272115Y0027889D01*
X0273497Y0028462D01*
X0274556Y0029520D01*
X0275129Y0030903D01*
X0275129Y0032400D01*
X0274556Y0033783D01*
X0273497Y0034841D01*
X0272115Y0035414D01*
X0270618Y0035414D01*
X0269235Y0034841D01*
X0268177Y0033783D01*
X0267604Y0032400D01*
X0267604Y0030903D01*
X0268177Y0029520D01*
X0269235Y0028462D01*
X0267855Y0030297D02*
X0222378Y0030297D01*
X0222629Y0031896D02*
X0267604Y0031896D01*
X0268058Y0033494D02*
X0222175Y0033494D01*
X0220389Y0035093D02*
X0269844Y0035093D01*
X0272889Y0035093D02*
X0322344Y0035093D01*
X0321735Y0034841D02*
X0320677Y0033783D01*
X0320104Y0032400D01*
X0320104Y0030903D01*
X0320677Y0029520D01*
X0321735Y0028462D01*
X0323118Y0027889D01*
X0324615Y0027889D01*
X0325997Y0028462D01*
X0327056Y0029520D01*
X0327629Y0030903D01*
X0327629Y0032400D01*
X0327056Y0033783D01*
X0325997Y0034841D01*
X0324615Y0035414D01*
X0323118Y0035414D01*
X0321735Y0034841D01*
X0320558Y0033494D02*
X0274675Y0033494D01*
X0275129Y0031896D02*
X0320104Y0031896D01*
X0320355Y0030297D02*
X0274878Y0030297D01*
X0273734Y0028699D02*
X0321498Y0028699D01*
X0326234Y0028699D02*
X0373998Y0028699D01*
X0374235Y0028462D02*
X0375618Y0027889D01*
X0377115Y0027889D01*
X0378497Y0028462D01*
X0379556Y0029520D01*
X0380129Y0030903D01*
X0380129Y0032400D01*
X0379556Y0033783D01*
X0378497Y0034841D01*
X0377115Y0035414D01*
X0375618Y0035414D01*
X0374235Y0034841D01*
X0373177Y0033783D01*
X0372604Y0032400D01*
X0372604Y0030903D01*
X0373177Y0029520D01*
X0374235Y0028462D01*
X0372855Y0030297D02*
X0327378Y0030297D01*
X0327629Y0031896D02*
X0372604Y0031896D01*
X0373058Y0033494D02*
X0327175Y0033494D01*
X0325389Y0035093D02*
X0374844Y0035093D01*
X0377889Y0035093D02*
X0427344Y0035093D01*
X0426735Y0034841D02*
X0425677Y0033783D01*
X0425104Y0032400D01*
X0425104Y0030903D01*
X0425677Y0029520D01*
X0426735Y0028462D01*
X0428118Y0027889D01*
X0429615Y0027889D01*
X0430997Y0028462D01*
X0432056Y0029520D01*
X0432629Y0030903D01*
X0432629Y0032400D01*
X0432056Y0033783D01*
X0430997Y0034841D01*
X0429615Y0035414D01*
X0428118Y0035414D01*
X0426735Y0034841D01*
X0425558Y0033494D02*
X0379675Y0033494D01*
X0380129Y0031896D02*
X0425104Y0031896D01*
X0425355Y0030297D02*
X0379878Y0030297D01*
X0378734Y0028699D02*
X0426498Y0028699D01*
X0431234Y0028699D02*
X0475383Y0028699D01*
X0475383Y0030297D02*
X0432378Y0030297D01*
X0432629Y0031896D02*
X0475383Y0031896D01*
X0475383Y0033494D02*
X0432175Y0033494D01*
X0430389Y0035093D02*
X0475383Y0035093D01*
X0476703Y0036691D02*
X0095157Y0036691D01*
X0095157Y0035093D02*
X0119909Y0035093D01*
X0119033Y0033494D02*
X0095157Y0033494D01*
X0095157Y0031896D02*
X0119033Y0031896D01*
X0119033Y0030297D02*
X0111553Y0030297D01*
X0111570Y0030289D02*
X0110862Y0030649D01*
X0110106Y0030895D01*
X0109321Y0031019D01*
X0109207Y0031019D01*
X0109207Y0026254D01*
X0113972Y0026254D01*
X0113972Y0026369D01*
X0113848Y0027153D01*
X0113602Y0027909D01*
X0113241Y0028617D01*
X0112774Y0029260D01*
X0112212Y0029822D01*
X0111570Y0030289D01*
X0113182Y0028699D02*
X0119033Y0028699D01*
X0119033Y0027100D02*
X0113856Y0027100D01*
X0113972Y0025689D02*
X0109207Y0025689D01*
X0109207Y0026254D01*
X0108641Y0026254D01*
X0108641Y0025689D01*
X0103876Y0025689D01*
X0103876Y0025574D01*
X0104000Y0024789D01*
X0104246Y0024033D01*
X0104606Y0023325D01*
X0105073Y0022683D01*
X0105635Y0022121D01*
X0106278Y0021654D01*
X0106986Y0021293D01*
X0107742Y0021047D01*
X0108527Y0020923D01*
X0108641Y0020923D01*
X0108641Y0025688D01*
X0109207Y0025688D01*
X0109207Y0020923D01*
X0109321Y0020923D01*
X0110106Y0021047D01*
X0110862Y0021293D01*
X0111570Y0021654D01*
X0112212Y0022121D01*
X0112774Y0022683D01*
X0113241Y0023325D01*
X0113602Y0024033D01*
X0113848Y0024789D01*
X0113972Y0025574D01*
X0113972Y0025689D01*
X0113960Y0025502D02*
X0119033Y0025502D01*
X0119033Y0023903D02*
X0113536Y0023903D01*
X0112396Y0022305D02*
X0119454Y0022305D01*
X0109207Y0022305D02*
X0108641Y0022305D01*
X0108641Y0023903D02*
X0109207Y0023903D01*
X0109207Y0025502D02*
X0108641Y0025502D01*
X0108641Y0026254D02*
X0103876Y0026254D01*
X0103876Y0026369D01*
X0104000Y0027153D01*
X0104246Y0027909D01*
X0104606Y0028617D01*
X0105073Y0029260D01*
X0105635Y0029822D01*
X0106278Y0030289D01*
X0106986Y0030649D01*
X0107742Y0030895D01*
X0108527Y0031019D01*
X0108641Y0031019D01*
X0108641Y0026254D01*
X0108641Y0027100D02*
X0109207Y0027100D01*
X0109207Y0028699D02*
X0108641Y0028699D01*
X0108641Y0030297D02*
X0109207Y0030297D01*
X0106295Y0030297D02*
X0098814Y0030297D01*
X0100958Y0028699D02*
X0104666Y0028699D01*
X0103992Y0027100D02*
X0101676Y0027100D01*
X0101761Y0025502D02*
X0103887Y0025502D01*
X0104312Y0023903D02*
X0101287Y0023903D01*
X0100020Y0022305D02*
X0105451Y0022305D01*
X0095157Y0020706D02*
X0150112Y0020706D01*
X0150093Y0020699D02*
X0149035Y0019640D01*
X0148462Y0018258D01*
X0148462Y0016761D01*
X0149035Y0015378D01*
X0150093Y0014320D01*
X0151476Y0013747D01*
X0152973Y0013747D01*
X0154355Y0014320D01*
X0155414Y0015378D01*
X0155986Y0016761D01*
X0155986Y0018258D01*
X0155414Y0019640D01*
X0154355Y0020699D01*
X0152973Y0021271D01*
X0151476Y0021271D01*
X0150093Y0020699D01*
X0148814Y0019108D02*
X0095157Y0019108D01*
X0095157Y0017509D02*
X0148462Y0017509D01*
X0148814Y0015911D02*
X0095157Y0015911D01*
X0094853Y0014312D02*
X0150111Y0014312D01*
X0154337Y0014312D02*
X0202611Y0014312D01*
X0202593Y0014320D02*
X0203976Y0013747D01*
X0205473Y0013747D01*
X0206855Y0014320D01*
X0207914Y0015378D01*
X0208486Y0016761D01*
X0208486Y0018258D01*
X0207914Y0019640D01*
X0206855Y0020699D01*
X0205473Y0021271D01*
X0203976Y0021271D01*
X0202593Y0020699D01*
X0201535Y0019640D01*
X0200962Y0018258D01*
X0200962Y0016761D01*
X0201535Y0015378D01*
X0202593Y0014320D01*
X0201314Y0015911D02*
X0155634Y0015911D01*
X0155986Y0017509D02*
X0200962Y0017509D01*
X0201314Y0019108D02*
X0155634Y0019108D01*
X0154337Y0020706D02*
X0202612Y0020706D01*
X0206837Y0020706D02*
X0255112Y0020706D01*
X0255093Y0020699D02*
X0254035Y0019640D01*
X0253462Y0018258D01*
X0253462Y0016761D01*
X0254035Y0015378D01*
X0255093Y0014320D01*
X0256476Y0013747D01*
X0257973Y0013747D01*
X0259355Y0014320D01*
X0260414Y0015378D01*
X0260986Y0016761D01*
X0260986Y0018258D01*
X0260414Y0019640D01*
X0259355Y0020699D01*
X0257973Y0021271D01*
X0256476Y0021271D01*
X0255093Y0020699D01*
X0253814Y0019108D02*
X0208134Y0019108D01*
X0208486Y0017509D02*
X0253462Y0017509D01*
X0253814Y0015911D02*
X0208134Y0015911D01*
X0206837Y0014312D02*
X0255111Y0014312D01*
X0259337Y0014312D02*
X0307611Y0014312D01*
X0307593Y0014320D02*
X0308976Y0013747D01*
X0310473Y0013747D01*
X0311855Y0014320D01*
X0312914Y0015378D01*
X0313486Y0016761D01*
X0313486Y0018258D01*
X0312914Y0019640D01*
X0311855Y0020699D01*
X0310473Y0021271D01*
X0308976Y0021271D01*
X0307593Y0020699D01*
X0306535Y0019640D01*
X0305962Y0018258D01*
X0305962Y0016761D01*
X0306535Y0015378D01*
X0307593Y0014320D01*
X0306314Y0015911D02*
X0260634Y0015911D01*
X0260986Y0017509D02*
X0305962Y0017509D01*
X0306314Y0019108D02*
X0260634Y0019108D01*
X0259337Y0020706D02*
X0307612Y0020706D01*
X0311837Y0020706D02*
X0360112Y0020706D01*
X0360093Y0020699D02*
X0359035Y0019640D01*
X0358462Y0018258D01*
X0358462Y0016761D01*
X0359035Y0015378D01*
X0360093Y0014320D01*
X0361476Y0013747D01*
X0362973Y0013747D01*
X0364355Y0014320D01*
X0365414Y0015378D01*
X0365986Y0016761D01*
X0365986Y0018258D01*
X0365414Y0019640D01*
X0364355Y0020699D01*
X0362973Y0021271D01*
X0361476Y0021271D01*
X0360093Y0020699D01*
X0358814Y0019108D02*
X0313134Y0019108D01*
X0313486Y0017509D02*
X0358462Y0017509D01*
X0358814Y0015911D02*
X0313134Y0015911D01*
X0311837Y0014312D02*
X0360111Y0014312D01*
X0364337Y0014312D02*
X0412611Y0014312D01*
X0412593Y0014320D02*
X0413976Y0013747D01*
X0415473Y0013747D01*
X0416855Y0014320D01*
X0417914Y0015378D01*
X0418486Y0016761D01*
X0418486Y0018258D01*
X0417914Y0019640D01*
X0416855Y0020699D01*
X0415473Y0021271D01*
X0413976Y0021271D01*
X0412593Y0020699D01*
X0411535Y0019640D01*
X0410962Y0018258D01*
X0410962Y0016761D01*
X0411535Y0015378D01*
X0412593Y0014320D01*
X0411314Y0015911D02*
X0365634Y0015911D01*
X0365986Y0017509D02*
X0410962Y0017509D01*
X0411314Y0019108D02*
X0365634Y0019108D01*
X0364337Y0020706D02*
X0412612Y0020706D01*
X0416837Y0020706D02*
X0465112Y0020706D01*
X0465093Y0020699D02*
X0464035Y0019640D01*
X0463462Y0018258D01*
X0463462Y0016761D01*
X0464035Y0015378D01*
X0465093Y0014320D01*
X0466476Y0013747D01*
X0467973Y0013747D01*
X0469355Y0014320D01*
X0470414Y0015378D01*
X0470986Y0016761D01*
X0470986Y0018258D01*
X0470414Y0019640D01*
X0469355Y0020699D01*
X0467973Y0021271D01*
X0466476Y0021271D01*
X0465093Y0020699D01*
X0463814Y0019108D02*
X0418134Y0019108D01*
X0418486Y0017509D02*
X0463462Y0017509D01*
X0463814Y0015911D02*
X0418134Y0015911D01*
X0416837Y0014312D02*
X0465111Y0014312D01*
X0469337Y0014312D02*
X0475383Y0014312D01*
X0475383Y0015911D02*
X0470634Y0015911D01*
X0470986Y0017509D02*
X0475383Y0017509D01*
X0475383Y0019108D02*
X0470634Y0019108D01*
X0469337Y0020706D02*
X0475383Y0020706D01*
X0475383Y0022305D02*
X0162213Y0022305D01*
X0162633Y0023903D02*
X0475383Y0023903D01*
X0475383Y0025502D02*
X0162633Y0025502D01*
X0162633Y0027100D02*
X0475383Y0027100D01*
X0477925Y0038290D02*
X0309359Y0038290D01*
X0309733Y0039888D02*
X0478633Y0039888D01*
X0478633Y0041487D02*
X0309283Y0041487D01*
X0309283Y0043085D02*
X0478633Y0043085D01*
X0478633Y0044684D02*
X0312883Y0044684D01*
X0311284Y0044684D02*
X0309283Y0044684D01*
X0309283Y0046283D02*
X0309604Y0046283D01*
X0309488Y0047881D02*
X0309283Y0047881D01*
X0309283Y0049480D02*
X0309883Y0049480D01*
X0309883Y0051078D02*
X0309283Y0051078D01*
X0309283Y0052677D02*
X0309883Y0052677D01*
X0309883Y0054275D02*
X0309283Y0054275D01*
X0309283Y0055874D02*
X0309883Y0055874D01*
X0309883Y0057472D02*
X0309283Y0057472D01*
X0309283Y0059071D02*
X0309883Y0059071D01*
X0309883Y0060669D02*
X0309283Y0060669D01*
X0309283Y0062268D02*
X0309883Y0062268D01*
X0309883Y0063866D02*
X0309283Y0063866D01*
X0309283Y0065465D02*
X0309883Y0065465D01*
X0309883Y0067063D02*
X0309283Y0067063D01*
X0309283Y0068662D02*
X0309883Y0068662D01*
X0309883Y0070260D02*
X0309283Y0070260D01*
X0309283Y0071859D02*
X0309883Y0071859D01*
X0309883Y0073457D02*
X0309283Y0073457D01*
X0309572Y0075056D02*
X0309883Y0075056D01*
X0309883Y0076654D02*
X0309669Y0076654D01*
X0309883Y0078253D02*
X0308500Y0078253D01*
X0309883Y0079851D02*
X0221783Y0079851D01*
X0221783Y0078253D02*
X0305667Y0078253D01*
X0304498Y0076654D02*
X0221783Y0076654D01*
X0221783Y0075056D02*
X0304594Y0075056D01*
X0304883Y0073457D02*
X0221783Y0073457D01*
X0221783Y0071859D02*
X0304883Y0071859D01*
X0304883Y0070260D02*
X0221783Y0070260D01*
X0221783Y0068662D02*
X0304883Y0068662D01*
X0304883Y0067063D02*
X0221783Y0067063D01*
X0221783Y0065465D02*
X0304883Y0065465D01*
X0304883Y0063866D02*
X0221783Y0063866D01*
X0221783Y0062268D02*
X0304883Y0062268D01*
X0304883Y0060669D02*
X0221783Y0060669D01*
X0221783Y0059071D02*
X0304883Y0059071D01*
X0304883Y0057472D02*
X0221783Y0057472D01*
X0221783Y0055874D02*
X0304883Y0055874D01*
X0304883Y0054275D02*
X0221783Y0054275D01*
X0221783Y0052677D02*
X0304883Y0052677D01*
X0304883Y0051078D02*
X0221783Y0051078D01*
X0221783Y0049480D02*
X0304883Y0049480D01*
X0304883Y0047881D02*
X0222081Y0047881D01*
X0222161Y0046283D02*
X0304883Y0046283D01*
X0304883Y0044684D02*
X0220953Y0044684D01*
X0217344Y0035093D02*
X0167889Y0035093D01*
X0164844Y0035093D02*
X0161757Y0035093D01*
X0162633Y0033494D02*
X0163058Y0033494D01*
X0162855Y0030297D02*
X0162633Y0030297D01*
X0162633Y0028699D02*
X0163998Y0028699D01*
X0115998Y0044684D02*
X0115525Y0044684D01*
X0115525Y0046283D02*
X0115683Y0046283D01*
X0115525Y0047881D02*
X0116133Y0047881D01*
X0116133Y0049480D02*
X0115526Y0049480D01*
X0115526Y0051078D02*
X0116133Y0051078D01*
X0116133Y0052677D02*
X0115527Y0052677D01*
X0115527Y0054275D02*
X0116133Y0054275D01*
X0116133Y0055874D02*
X0115527Y0055874D01*
X0115528Y0057472D02*
X0116133Y0057472D01*
X0116133Y0059071D02*
X0115528Y0059071D01*
X0115529Y0060669D02*
X0116133Y0060669D01*
X0116133Y0062268D02*
X0115529Y0062268D01*
X0115529Y0063866D02*
X0116133Y0063866D01*
X0116133Y0065465D02*
X0115530Y0065465D01*
X0115530Y0067063D02*
X0116133Y0067063D01*
X0116133Y0068662D02*
X0115531Y0068662D01*
X0115531Y0070260D02*
X0116133Y0070260D01*
X0116133Y0071859D02*
X0115531Y0071859D01*
X0115532Y0073457D02*
X0116133Y0073457D01*
X0116133Y0075056D02*
X0115532Y0075056D01*
X0115533Y0076654D02*
X0116133Y0076654D01*
X0116133Y0078253D02*
X0115593Y0078253D01*
X0115983Y0079851D02*
X0116133Y0079851D01*
X0116133Y0081450D02*
X0115352Y0081450D01*
X0113333Y0079721D02*
X0113323Y0039731D01*
X0110673Y0039888D02*
X0058883Y0039888D01*
X0058883Y0038290D02*
X0111052Y0038290D01*
X0095411Y0030297D02*
X0095157Y0030297D01*
X0061947Y0030297D02*
X0058883Y0030297D01*
X0058883Y0028699D02*
X0059803Y0028699D01*
X0059085Y0027100D02*
X0058883Y0027100D01*
X0058883Y0025502D02*
X0059000Y0025502D01*
X0058883Y0023903D02*
X0059474Y0023903D01*
X0058883Y0022305D02*
X0060741Y0022305D01*
X0115469Y0092639D02*
X0162631Y0092639D01*
X0161664Y0094238D02*
X0116436Y0094238D01*
X0116563Y0095836D02*
X0161538Y0095836D01*
X0162124Y0097435D02*
X0115977Y0097435D01*
X0129856Y0107026D02*
X0176529Y0107026D01*
X0175705Y0108624D02*
X0130680Y0108624D01*
X0130687Y0110223D02*
X0175697Y0110223D01*
X0176510Y0111821D02*
X0129875Y0111821D01*
X0131211Y0113420D02*
X0084316Y0113420D01*
X0084457Y0113561D02*
X0081514Y0116504D01*
X0084457Y0113561D01*
X0085407Y0115018D02*
X0130120Y0115018D01*
X0129851Y0116617D02*
X0085676Y0116617D01*
X0085313Y0118216D02*
X0130214Y0118216D01*
X0132528Y0115018D02*
X0132528Y0115018D01*
X0134014Y0116504D02*
X0134014Y0116504D01*
X0136957Y0113561D01*
X0134014Y0116504D01*
X0135499Y0115018D02*
X0135499Y0115018D01*
X0136816Y0113420D02*
X0183711Y0113420D01*
X0182620Y0115018D02*
X0137907Y0115018D01*
X0138176Y0116617D02*
X0182351Y0116617D01*
X0182714Y0118216D02*
X0137813Y0118216D01*
X0185028Y0115018D02*
X0185028Y0115018D01*
X0186514Y0116504D02*
X0186514Y0116504D01*
X0187999Y0115018D02*
X0187999Y0115018D01*
X0222049Y0089442D02*
X0309617Y0089442D01*
X0309475Y0087844D02*
X0222192Y0087844D01*
X0221783Y0086245D02*
X0309883Y0086245D01*
X0309883Y0084647D02*
X0221783Y0084647D01*
X0221783Y0083048D02*
X0309883Y0083048D01*
X0309883Y0081450D02*
X0221783Y0081450D01*
X0217383Y0075056D02*
X0212996Y0075056D01*
X0272969Y0092639D02*
X0320131Y0092639D01*
X0319164Y0094238D02*
X0273936Y0094238D01*
X0274063Y0095836D02*
X0319038Y0095836D01*
X0319624Y0097435D02*
X0273477Y0097435D01*
X0290028Y0115018D02*
X0290028Y0115018D01*
X0291514Y0116504D02*
X0291514Y0116504D01*
X0292999Y0115018D02*
X0292999Y0115018D01*
X0325977Y0097435D02*
X0372124Y0097435D01*
X0371538Y0095836D02*
X0326563Y0095836D01*
X0326436Y0094238D02*
X0371664Y0094238D01*
X0372631Y0092639D02*
X0325469Y0092639D01*
X0314283Y0086245D02*
X0478633Y0086245D01*
X0478633Y0084647D02*
X0314283Y0084647D01*
X0314283Y0083048D02*
X0478633Y0083048D01*
X0478633Y0081450D02*
X0314283Y0081450D01*
X0314283Y0079851D02*
X0478633Y0079851D01*
X0478633Y0078253D02*
X0314283Y0078253D01*
X0314283Y0076654D02*
X0478633Y0076654D01*
X0478633Y0075056D02*
X0314283Y0075056D01*
X0314283Y0073457D02*
X0478633Y0073457D01*
X0478633Y0071859D02*
X0314283Y0071859D01*
X0314283Y0070260D02*
X0478633Y0070260D01*
X0478633Y0068662D02*
X0314283Y0068662D01*
X0314283Y0067063D02*
X0478633Y0067063D01*
X0478633Y0065465D02*
X0314283Y0065465D01*
X0314283Y0063866D02*
X0478633Y0063866D01*
X0478633Y0062268D02*
X0314283Y0062268D01*
X0314283Y0060669D02*
X0478633Y0060669D01*
X0478633Y0059071D02*
X0314283Y0059071D01*
X0314283Y0057472D02*
X0478633Y0057472D01*
X0478633Y0055874D02*
X0314283Y0055874D01*
X0314283Y0054275D02*
X0478633Y0054275D01*
X0478633Y0052677D02*
X0314283Y0052677D01*
X0314283Y0051078D02*
X0478633Y0051078D01*
X0478633Y0049480D02*
X0314283Y0049480D01*
X0314678Y0047881D02*
X0478633Y0047881D01*
X0478633Y0046283D02*
X0314563Y0046283D01*
X0312083Y0047221D02*
X0312083Y0088471D01*
X0307083Y0075971D02*
X0307083Y0039721D01*
X0377969Y0092639D02*
X0447760Y0092639D01*
X0447760Y0094238D02*
X0378936Y0094238D01*
X0437234Y0095836D02*
X0443115Y0095836D01*
X0441720Y0097435D02*
X0438493Y0097435D01*
X0438995Y0099033D02*
X0441156Y0099033D01*
X0441156Y0100632D02*
X0438959Y0100632D01*
X0438380Y0102230D02*
X0441812Y0102230D01*
X0443575Y0103829D02*
X0436927Y0103829D01*
X0082999Y0115018D02*
X0082999Y0115018D01*
X0081514Y0116504D02*
X0081514Y0116504D01*
X0080028Y0115018D02*
X0080028Y0115018D01*
D15*
X0118333Y0084721D03*
X0113333Y0079721D03*
X0118333Y0045971D03*
X0113323Y0039731D03*
X0070833Y0044721D03*
X0095833Y0010971D03*
X0210833Y0039721D03*
X0219583Y0046985D03*
X0210823Y0073481D03*
X0219583Y0088471D03*
X0307083Y0075971D03*
X0312083Y0088471D03*
X0312083Y0047221D03*
X0307083Y0039721D03*
D16*
X0210833Y0073471D02*
X0210823Y0073481D01*
M02*
