%
M48
M72
T01C0.0130
T02C0.0315
T03C0.0433
%
T01
X7083Y4472
X11332Y3973
X11833Y4597
X11333Y7972
X11833Y8472
X21082Y7348
X21958Y8847
X21958Y4698
X21083Y3972
X30708Y3972
X31208Y4722
X30708Y7597
X31208Y8847
X9583Y1097
T02
X15222Y1751
X16637Y3165
X20472Y1751
X21887Y3165
X25722Y1751
X27137Y3165
X30972Y1751
X32387Y3165
X36222Y1751
X37637Y3165
X41472Y1751
X42887Y3165
X46722Y1751
X48137Y3165
X37530Y9529
X38237Y10236
X38944Y10943
X39651Y11650
X34401Y11650
X33694Y10943
X32987Y10236
X32280Y9529
X28444Y10943
X27737Y10236
X27030Y9529
X23194Y10943
X22487Y10236
X21780Y9529
X17944Y10943
X17237Y10236
X16530Y9529
X12694Y10943
X11987Y10236
X11280Y9529
X7444Y10943
X6737Y10236
X6030Y9529
X8151Y11650
X13401Y11650
X18651Y11650
X23901Y11650
X29151Y11650
T03
X6365Y2597
X9711Y2597
X10892Y2597
X43399Y9972
X44580Y9972
X47927Y9972
M30
