G75*
%MOIN*%
%OFA0B0*%
%FSLAX25Y25*%
%IPPOS*%
%LPD*%
%AMOC8*
5,1,8,0,0,1.08239X$1,22.5*
%
%ADD10C,0.05124*%
%ADD11C,0.06896*%
%ADD12R,0.40000X0.10000*%
D10*
X0152224Y0017509D03*
X0166366Y0031651D03*
X0204724Y0017509D03*
X0218866Y0031651D03*
X0257224Y0017509D03*
X0271366Y0031651D03*
X0309724Y0017509D03*
X0323866Y0031651D03*
X0362224Y0017509D03*
X0376366Y0031651D03*
X0414724Y0017509D03*
X0428866Y0031651D03*
X0467224Y0017509D03*
X0481366Y0031651D03*
X0375300Y0095291D03*
X0382371Y0102362D03*
X0389442Y0109433D03*
X0396514Y0116504D03*
X0344014Y0116504D03*
X0336942Y0109433D03*
X0329871Y0102362D03*
X0322800Y0095291D03*
X0284442Y0109433D03*
X0277371Y0102362D03*
X0270300Y0095291D03*
X0231942Y0109433D03*
X0224871Y0102362D03*
X0217800Y0095291D03*
X0179442Y0109433D03*
X0172371Y0102362D03*
X0165300Y0095291D03*
X0126942Y0109433D03*
X0119871Y0102362D03*
X0112800Y0095291D03*
X0074442Y0109433D03*
X0067371Y0102362D03*
X0060300Y0095291D03*
X0081514Y0116504D03*
X0134014Y0116504D03*
X0186514Y0116504D03*
X0239014Y0116504D03*
X0291514Y0116504D03*
D11*
X0063648Y0025971D03*
X0097113Y0025971D03*
X0108924Y0025971D03*
X0433993Y0099721D03*
X0445804Y0099721D03*
X0479268Y0099721D03*
D12*
X0140833Y0028471D03*
M02*
